<?xml version="1.0" encoding="utf-8" standalone="no"?>
<!DOCTYPE svg PUBLIC "-//W3C//DTD SVG 1.1//EN"
  "http://www.w3.org/Graphics/SVG/1.1/DTD/svg11.dtd">
<!-- Created with matplotlib (http://matplotlib.org/) -->
<svg height="392.113125pt" version="1.1" viewBox="0 0 894.665625 392.113125" width="894.665625pt" xmlns="http://www.w3.org/2000/svg" xmlns:xlink="http://www.w3.org/1999/xlink">
 <defs>
  <style type="text/css">
*{stroke-linecap:butt;stroke-linejoin:round;}
  </style>
 </defs>
 <g id="figure_1">
  <g id="patch_1">
   <path d="M 0 392.113125 
L 894.665625 392.113125 
L 894.665625 0 
L 0 0 
z
" style="fill:#ffffff;"/>
  </g>
  <g id="axes_1">
   <g id="patch_2">
    <path d="M 46.965625 354.556875 
L 883.965625 354.556875 
L 883.965625 28.396875 
L 46.965625 28.396875 
z
" style="fill:#ffffff;"/>
   </g>
   <g id="patch_3">
    <path clip-path="url(#p83c2b437fe)" d="M 85.01108 354.556875 
L 89.061546 354.556875 
L 89.061546 352.627505 
L 85.01108 352.627505 
z
" style="fill:#55638a;"/>
   </g>
   <g id="patch_4">
    <path clip-path="url(#p83c2b437fe)" d="M 96.583841 354.556875 
L 100.634308 354.556875 
L 100.634308 350.698135 
L 96.583841 350.698135 
z
" style="fill:#55638a;"/>
   </g>
   <g id="patch_5">
    <path clip-path="url(#p83c2b437fe)" d="M 108.156603 354.556875 
L 112.20707 354.556875 
L 112.20707 352.627505 
L 108.156603 352.627505 
z
" style="fill:#55638a;"/>
   </g>
   <g id="patch_6">
    <path clip-path="url(#p83c2b437fe)" d="M 119.729365 354.556875 
L 123.779832 354.556875 
L 123.779832 344.910025 
L 119.729365 344.910025 
z
" style="fill:#55638a;"/>
   </g>
   <g id="patch_7">
    <path clip-path="url(#p83c2b437fe)" d="M 131.302127 354.556875 
L 135.352594 354.556875 
L 135.352594 346.839395 
L 131.302127 346.839395 
z
" style="fill:#55638a;"/>
   </g>
   <g id="patch_8">
    <path clip-path="url(#p83c2b437fe)" d="M 142.874889 354.556875 
L 146.925355 354.556875 
L 146.925355 346.839395 
L 142.874889 346.839395 
z
" style="fill:#55638a;"/>
   </g>
   <g id="patch_9">
    <path clip-path="url(#p83c2b437fe)" d="M 154.447651 354.556875 
L 158.498117 354.556875 
L 158.498117 346.839395 
L 154.447651 346.839395 
z
" style="fill:#55638a;"/>
   </g>
   <g id="patch_10">
    <path clip-path="url(#p83c2b437fe)" d="M 166.020412 354.556875 
L 170.070879 354.556875 
L 170.070879 331.404435 
L 166.020412 331.404435 
z
" style="fill:#55638a;"/>
   </g>
   <g id="patch_11">
    <path clip-path="url(#p83c2b437fe)" d="M 177.593174 354.556875 
L 181.643641 354.556875 
L 181.643641 344.910025 
L 177.593174 344.910025 
z
" style="fill:#55638a;"/>
   </g>
   <g id="patch_12">
    <path clip-path="url(#p83c2b437fe)" d="M 189.165936 354.556875 
L 193.216403 354.556875 
L 193.216403 333.333805 
L 189.165936 333.333805 
z
" style="fill:#55638a;"/>
   </g>
   <g id="patch_13">
    <path clip-path="url(#p83c2b437fe)" d="M 200.738698 354.556875 
L 204.789165 354.556875 
L 204.789165 335.263175 
L 200.738698 335.263175 
z
" style="fill:#55638a;"/>
   </g>
   <g id="patch_14">
    <path clip-path="url(#p83c2b437fe)" d="M 212.31146 354.556875 
L 216.361926 354.556875 
L 216.361926 333.333805 
L 212.31146 333.333805 
z
" style="fill:#55638a;"/>
   </g>
   <g id="patch_15">
    <path clip-path="url(#p83c2b437fe)" d="M 223.884222 354.556875 
L 227.934688 354.556875 
L 227.934688 333.333805 
L 223.884222 333.333805 
z
" style="fill:#55638a;"/>
   </g>
   <g id="patch_16">
    <path clip-path="url(#p83c2b437fe)" d="M 235.456983 354.556875 
L 239.50745 354.556875 
L 239.50745 342.980655 
L 235.456983 342.980655 
z
" style="fill:#55638a;"/>
   </g>
   <g id="patch_17">
    <path clip-path="url(#p83c2b437fe)" d="M 247.029745 354.556875 
L 251.080212 354.556875 
L 251.080212 321.757585 
L 247.029745 321.757585 
z
" style="fill:#55638a;"/>
   </g>
   <g id="patch_18">
    <path clip-path="url(#p83c2b437fe)" d="M 258.602507 354.556875 
L 262.652974 354.556875 
L 262.652974 319.828215 
L 258.602507 319.828215 
z
" style="fill:#55638a;"/>
   </g>
   <g id="patch_19">
    <path clip-path="url(#p83c2b437fe)" d="M 270.175269 354.556875 
L 274.225736 354.556875 
L 274.225736 333.333805 
L 270.175269 333.333805 
z
" style="fill:#55638a;"/>
   </g>
   <g id="patch_20">
    <path clip-path="url(#p83c2b437fe)" d="M 281.748031 354.556875 
L 285.798497 354.556875 
L 285.798497 273.523335 
L 281.748031 273.523335 
z
" style="fill:#55638a;"/>
   </g>
   <g id="patch_21">
    <path clip-path="url(#p83c2b437fe)" d="M 293.320793 354.556875 
L 297.371259 354.556875 
L 297.371259 342.980655 
L 293.320793 342.980655 
z
" style="fill:#55638a;"/>
   </g>
   <g id="patch_22">
    <path clip-path="url(#p83c2b437fe)" d="M 304.893554 354.556875 
L 308.944021 354.556875 
L 308.944021 302.463885 
L 304.893554 302.463885 
z
" style="fill:#55638a;"/>
   </g>
   <g id="patch_23">
    <path clip-path="url(#p83c2b437fe)" d="M 316.466316 354.556875 
L 320.516783 354.556875 
L 320.516783 323.686955 
L 316.466316 323.686955 
z
" style="fill:#55638a;"/>
   </g>
   <g id="patch_24">
    <path clip-path="url(#p83c2b437fe)" d="M 328.039078 354.556875 
L 332.089545 354.556875 
L 332.089545 300.534515 
L 328.039078 300.534515 
z
" style="fill:#55638a;"/>
   </g>
   <g id="patch_25">
    <path clip-path="url(#p83c2b437fe)" d="M 339.61184 354.556875 
L 343.662307 354.556875 
L 343.662307 304.393255 
L 339.61184 304.393255 
z
" style="fill:#55638a;"/>
   </g>
   <g id="patch_26">
    <path clip-path="url(#p83c2b437fe)" d="M 351.184602 354.556875 
L 355.235068 354.556875 
L 355.235068 281.240815 
L 351.184602 281.240815 
z
" style="fill:#55638a;"/>
   </g>
   <g id="patch_27">
    <path clip-path="url(#p83c2b437fe)" d="M 362.757364 354.556875 
L 366.80783 354.556875 
L 366.80783 290.887665 
L 362.757364 290.887665 
z
" style="fill:#55638a;"/>
   </g>
   <g id="patch_28">
    <path clip-path="url(#p83c2b437fe)" d="M 374.330126 354.556875 
L 378.380592 354.556875 
L 378.380592 302.463885 
L 374.330126 302.463885 
z
" style="fill:#55638a;"/>
   </g>
   <g id="patch_29">
    <path clip-path="url(#p83c2b437fe)" d="M 385.902887 354.556875 
L 389.953354 354.556875 
L 389.953354 288.958295 
L 385.902887 288.958295 
z
" style="fill:#55638a;"/>
   </g>
   <g id="patch_30">
    <path clip-path="url(#p83c2b437fe)" d="M 397.475649 354.556875 
L 401.526116 354.556875 
L 401.526116 287.028925 
L 397.475649 287.028925 
z
" style="fill:#55638a;"/>
   </g>
   <g id="patch_31">
    <path clip-path="url(#p83c2b437fe)" d="M 409.048411 354.556875 
L 413.098878 354.556875 
L 413.098878 258.088375 
L 409.048411 258.088375 
z
" style="fill:#55638a;"/>
   </g>
   <g id="patch_32">
    <path clip-path="url(#p83c2b437fe)" d="M 420.621173 354.556875 
L 424.67164 354.556875 
L 424.67164 252.300265 
L 420.621173 252.300265 
z
" style="fill:#55638a;"/>
   </g>
   <g id="patch_33">
    <path clip-path="url(#p83c2b437fe)" d="M 432.193935 354.556875 
L 436.244401 354.556875 
L 436.244401 252.300265 
L 432.193935 252.300265 
z
" style="fill:#55638a;"/>
   </g>
   <g id="patch_34">
    <path clip-path="url(#p83c2b437fe)" d="M 443.766697 354.556875 
L 447.817163 354.556875 
L 447.817163 233.006564 
L 443.766697 233.006564 
z
" style="fill:#55638a;"/>
   </g>
   <g id="patch_35">
    <path clip-path="url(#p83c2b437fe)" d="M 455.339458 354.556875 
L 459.389925 354.556875 
L 459.389925 248.441525 
L 455.339458 248.441525 
z
" style="fill:#55638a;"/>
   </g>
   <g id="patch_36">
    <path clip-path="url(#p83c2b437fe)" d="M 466.91222 354.556875 
L 470.962687 354.556875 
L 470.962687 236.865304 
L 466.91222 236.865304 
z
" style="fill:#55638a;"/>
   </g>
   <g id="patch_37">
    <path clip-path="url(#p83c2b437fe)" d="M 478.484982 354.556875 
L 482.535449 354.556875 
L 482.535449 182.842944 
L 478.484982 182.842944 
z
" style="fill:#55638a;"/>
   </g>
   <g id="patch_38">
    <path clip-path="url(#p83c2b437fe)" d="M 490.057744 354.556875 
L 494.108211 354.556875 
L 494.108211 205.995384 
L 490.057744 205.995384 
z
" style="fill:#55638a;"/>
   </g>
   <g id="patch_39">
    <path clip-path="url(#p83c2b437fe)" d="M 501.630506 354.556875 
L 505.680972 354.556875 
L 505.680972 204.066014 
L 501.630506 204.066014 
z
" style="fill:#55638a;"/>
   </g>
   <g id="patch_40">
    <path clip-path="url(#p83c2b437fe)" d="M 513.203268 354.556875 
L 517.253734 354.556875 
L 517.253734 126.891214 
L 513.203268 126.891214 
z
" style="fill:#55638a;"/>
   </g>
   <g id="patch_41">
    <path clip-path="url(#p83c2b437fe)" d="M 524.776029 354.556875 
L 528.826496 354.556875 
L 528.826496 167.407984 
L 524.776029 167.407984 
z
" style="fill:#55638a;"/>
   </g>
   <g id="patch_42">
    <path clip-path="url(#p83c2b437fe)" d="M 536.348791 354.556875 
L 540.399258 354.556875 
L 540.399258 190.560424 
L 536.348791 190.560424 
z
" style="fill:#55638a;"/>
   </g>
   <g id="patch_43">
    <path clip-path="url(#p83c2b437fe)" d="M 547.921553 354.556875 
L 551.97202 354.556875 
L 551.97202 173.196094 
L 547.921553 173.196094 
z
" style="fill:#55638a;"/>
   </g>
   <g id="patch_44">
    <path clip-path="url(#p83c2b437fe)" d="M 559.494315 354.556875 
L 563.544782 354.556875 
L 563.544782 204.066014 
L 559.494315 204.066014 
z
" style="fill:#55638a;"/>
   </g>
   <g id="patch_45">
    <path clip-path="url(#p83c2b437fe)" d="M 571.067077 354.556875 
L 575.117543 354.556875 
L 575.117543 107.597514 
L 571.067077 107.597514 
z
" style="fill:#55638a;"/>
   </g>
   <g id="patch_46">
    <path clip-path="url(#p83c2b437fe)" d="M 582.639839 354.556875 
L 586.690305 354.556875 
L 586.690305 121.103104 
L 582.639839 121.103104 
z
" style="fill:#55638a;"/>
   </g>
   <g id="patch_47">
    <path clip-path="url(#p83c2b437fe)" d="M 594.2126 354.556875 
L 598.263067 354.556875 
L 598.263067 134.608694 
L 594.2126 134.608694 
z
" style="fill:#55638a;"/>
   </g>
   <g id="patch_48">
    <path clip-path="url(#p83c2b437fe)" d="M 605.785362 354.556875 
L 609.835829 354.556875 
L 609.835829 136.538064 
L 605.785362 136.538064 
z
" style="fill:#55638a;"/>
   </g>
   <g id="patch_49">
    <path clip-path="url(#p83c2b437fe)" d="M 617.358124 354.556875 
L 621.408591 354.556875 
L 621.408591 82.515704 
L 617.358124 82.515704 
z
" style="fill:#55638a;"/>
   </g>
   <g id="patch_50">
    <path clip-path="url(#p83c2b437fe)" d="M 628.930886 354.556875 
L 632.981353 354.556875 
L 632.981353 115.314994 
L 628.930886 115.314994 
z
" style="fill:#55638a;"/>
   </g>
   <g id="patch_51">
    <path clip-path="url(#p83c2b437fe)" d="M 640.503648 354.556875 
L 644.554114 354.556875 
L 644.554114 111.456254 
L 640.503648 111.456254 
z
" style="fill:#55638a;"/>
   </g>
   <g id="patch_52">
    <path clip-path="url(#p83c2b437fe)" d="M 652.07641 354.556875 
L 656.126876 354.556875 
L 656.126876 186.701684 
L 652.07641 186.701684 
z
" style="fill:#55638a;"/>
   </g>
   <g id="patch_53">
    <path clip-path="url(#p83c2b437fe)" d="M 663.649171 354.556875 
L 667.699638 354.556875 
L 667.699638 163.549244 
L 663.649171 163.549244 
z
" style="fill:#55638a;"/>
   </g>
   <g id="patch_54">
    <path clip-path="url(#p83c2b437fe)" d="M 675.221933 354.556875 
L 679.2724 354.556875 
L 679.2724 175.125464 
L 675.221933 175.125464 
z
" style="fill:#55638a;"/>
   </g>
   <g id="patch_55">
    <path clip-path="url(#p83c2b437fe)" d="M 686.794695 354.556875 
L 690.845162 354.556875 
L 690.845162 165.478614 
L 686.794695 165.478614 
z
" style="fill:#55638a;"/>
   </g>
   <g id="patch_56">
    <path clip-path="url(#p83c2b437fe)" d="M 698.367457 354.556875 
L 702.417924 354.556875 
L 702.417924 221.430344 
L 698.367457 221.430344 
z
" style="fill:#55638a;"/>
   </g>
   <g id="patch_57">
    <path clip-path="url(#p83c2b437fe)" d="M 709.940219 354.556875 
L 713.990685 354.556875 
L 713.990685 242.653414 
L 709.940219 242.653414 
z
" style="fill:#55638a;"/>
   </g>
   <g id="patch_58">
    <path clip-path="url(#p83c2b437fe)" d="M 721.512981 354.556875 
L 725.563447 354.556875 
L 725.563447 271.593965 
L 721.512981 271.593965 
z
" style="fill:#55638a;"/>
   </g>
   <g id="patch_59">
    <path clip-path="url(#p83c2b437fe)" d="M 733.085743 354.556875 
L 737.136209 354.556875 
L 737.136209 294.746405 
L 733.085743 294.746405 
z
" style="fill:#55638a;"/>
   </g>
   <g id="patch_60">
    <path clip-path="url(#p83c2b437fe)" d="M 744.658504 354.556875 
L 748.708971 354.556875 
L 748.708971 302.463885 
L 744.658504 302.463885 
z
" style="fill:#55638a;"/>
   </g>
   <g id="patch_61">
    <path clip-path="url(#p83c2b437fe)" d="M 756.231266 354.556875 
L 760.281733 354.556875 
L 760.281733 283.170185 
L 756.231266 283.170185 
z
" style="fill:#55638a;"/>
   </g>
   <g id="patch_62">
    <path clip-path="url(#p83c2b437fe)" d="M 767.804028 354.556875 
L 771.854495 354.556875 
L 771.854495 321.757585 
L 767.804028 321.757585 
z
" style="fill:#55638a;"/>
   </g>
   <g id="patch_63">
    <path clip-path="url(#p83c2b437fe)" d="M 779.37679 354.556875 
L 783.427257 354.556875 
L 783.427257 325.616325 
L 779.37679 325.616325 
z
" style="fill:#55638a;"/>
   </g>
   <g id="patch_64">
    <path clip-path="url(#p83c2b437fe)" d="M 790.949552 354.556875 
L 795.000018 354.556875 
L 795.000018 341.051285 
L 790.949552 341.051285 
z
" style="fill:#55638a;"/>
   </g>
   <g id="patch_65">
    <path clip-path="url(#p83c2b437fe)" d="M 802.522314 354.556875 
L 806.57278 354.556875 
L 806.57278 344.910025 
L 802.522314 344.910025 
z
" style="fill:#55638a;"/>
   </g>
   <g id="patch_66">
    <path clip-path="url(#p83c2b437fe)" d="M 814.095075 354.556875 
L 818.145542 354.556875 
L 818.145542 348.768765 
L 814.095075 348.768765 
z
" style="fill:#55638a;"/>
   </g>
   <g id="patch_67">
    <path clip-path="url(#p83c2b437fe)" d="M 825.667837 354.556875 
L 829.718304 354.556875 
L 829.718304 346.839395 
L 825.667837 346.839395 
z
" style="fill:#55638a;"/>
   </g>
   <g id="patch_68">
    <path clip-path="url(#p83c2b437fe)" d="M 101.212946 354.556875 
L 105.263413 354.556875 
L 105.263413 352.627505 
L 101.212946 352.627505 
z
" style="fill:#9e1030;"/>
   </g>
   <g id="patch_69">
    <path clip-path="url(#p83c2b437fe)" d="M 112.785708 354.556875 
L 116.836175 354.556875 
L 116.836175 354.556875 
L 112.785708 354.556875 
z
" style="fill:#9e1030;"/>
   </g>
   <g id="patch_70">
    <path clip-path="url(#p83c2b437fe)" d="M 124.35847 354.556875 
L 128.408936 354.556875 
L 128.408936 350.698135 
L 124.35847 350.698135 
z
" style="fill:#9e1030;"/>
   </g>
   <g id="patch_71">
    <path clip-path="url(#p83c2b437fe)" d="M 135.931232 354.556875 
L 139.981698 354.556875 
L 139.981698 348.768765 
L 135.931232 348.768765 
z
" style="fill:#9e1030;"/>
   </g>
   <g id="patch_72">
    <path clip-path="url(#p83c2b437fe)" d="M 147.503993 354.556875 
L 151.55446 354.556875 
L 151.55446 348.768765 
L 147.503993 348.768765 
z
" style="fill:#9e1030;"/>
   </g>
   <g id="patch_73">
    <path clip-path="url(#p83c2b437fe)" d="M 159.076755 354.556875 
L 163.127222 354.556875 
L 163.127222 350.698135 
L 159.076755 350.698135 
z
" style="fill:#9e1030;"/>
   </g>
   <g id="patch_74">
    <path clip-path="url(#p83c2b437fe)" d="M 170.649517 354.556875 
L 174.699984 354.556875 
L 174.699984 342.980655 
L 170.649517 342.980655 
z
" style="fill:#9e1030;"/>
   </g>
   <g id="patch_75">
    <path clip-path="url(#p83c2b437fe)" d="M 182.222279 354.556875 
L 186.272746 354.556875 
L 186.272746 344.910025 
L 182.222279 344.910025 
z
" style="fill:#9e1030;"/>
   </g>
   <g id="patch_76">
    <path clip-path="url(#p83c2b437fe)" d="M 193.795041 354.556875 
L 197.845507 354.556875 
L 197.845507 342.980655 
L 193.795041 342.980655 
z
" style="fill:#9e1030;"/>
   </g>
   <g id="patch_77">
    <path clip-path="url(#p83c2b437fe)" d="M 205.367803 354.556875 
L 209.418269 354.556875 
L 209.418269 341.051285 
L 205.367803 341.051285 
z
" style="fill:#9e1030;"/>
   </g>
   <g id="patch_78">
    <path clip-path="url(#p83c2b437fe)" d="M 216.940565 354.556875 
L 220.991031 354.556875 
L 220.991031 339.121915 
L 216.940565 339.121915 
z
" style="fill:#9e1030;"/>
   </g>
   <g id="patch_79">
    <path clip-path="url(#p83c2b437fe)" d="M 228.513326 354.556875 
L 232.563793 354.556875 
L 232.563793 341.051285 
L 228.513326 341.051285 
z
" style="fill:#9e1030;"/>
   </g>
   <g id="patch_80">
    <path clip-path="url(#p83c2b437fe)" d="M 240.086088 354.556875 
L 244.136555 354.556875 
L 244.136555 342.980655 
L 240.086088 342.980655 
z
" style="fill:#9e1030;"/>
   </g>
   <g id="patch_81">
    <path clip-path="url(#p83c2b437fe)" d="M 251.65885 354.556875 
L 255.709317 354.556875 
L 255.709317 329.475065 
L 251.65885 329.475065 
z
" style="fill:#9e1030;"/>
   </g>
   <g id="patch_82">
    <path clip-path="url(#p83c2b437fe)" d="M 263.231612 354.556875 
L 267.282079 354.556875 
L 267.282079 341.051285 
L 263.231612 341.051285 
z
" style="fill:#9e1030;"/>
   </g>
   <g id="patch_83">
    <path clip-path="url(#p83c2b437fe)" d="M 274.804374 354.556875 
L 278.85484 354.556875 
L 278.85484 339.121915 
L 274.804374 339.121915 
z
" style="fill:#9e1030;"/>
   </g>
   <g id="patch_84">
    <path clip-path="url(#p83c2b437fe)" d="M 286.377136 354.556875 
L 290.427602 354.556875 
L 290.427602 325.616325 
L 286.377136 325.616325 
z
" style="fill:#9e1030;"/>
   </g>
   <g id="patch_85">
    <path clip-path="url(#p83c2b437fe)" d="M 297.949897 354.556875 
L 302.000364 354.556875 
L 302.000364 342.980655 
L 297.949897 342.980655 
z
" style="fill:#9e1030;"/>
   </g>
   <g id="patch_86">
    <path clip-path="url(#p83c2b437fe)" d="M 309.522659 354.556875 
L 313.573126 354.556875 
L 313.573126 335.263175 
L 309.522659 335.263175 
z
" style="fill:#9e1030;"/>
   </g>
   <g id="patch_87">
    <path clip-path="url(#p83c2b437fe)" d="M 321.095421 354.556875 
L 325.145888 354.556875 
L 325.145888 329.475065 
L 321.095421 329.475065 
z
" style="fill:#9e1030;"/>
   </g>
   <g id="patch_88">
    <path clip-path="url(#p83c2b437fe)" d="M 332.668183 354.556875 
L 336.71865 354.556875 
L 336.71865 327.545695 
L 332.668183 327.545695 
z
" style="fill:#9e1030;"/>
   </g>
   <g id="patch_89">
    <path clip-path="url(#p83c2b437fe)" d="M 344.240945 354.556875 
L 348.291411 354.556875 
L 348.291411 325.616325 
L 344.240945 325.616325 
z
" style="fill:#9e1030;"/>
   </g>
   <g id="patch_90">
    <path clip-path="url(#p83c2b437fe)" d="M 355.813707 354.556875 
L 359.864173 354.556875 
L 359.864173 329.475065 
L 355.813707 329.475065 
z
" style="fill:#9e1030;"/>
   </g>
   <g id="patch_91">
    <path clip-path="url(#p83c2b437fe)" d="M 367.386468 354.556875 
L 371.436935 354.556875 
L 371.436935 310.181365 
L 367.386468 310.181365 
z
" style="fill:#9e1030;"/>
   </g>
   <g id="patch_92">
    <path clip-path="url(#p83c2b437fe)" d="M 378.95923 354.556875 
L 383.009697 354.556875 
L 383.009697 308.251995 
L 378.95923 308.251995 
z
" style="fill:#9e1030;"/>
   </g>
   <g id="patch_93">
    <path clip-path="url(#p83c2b437fe)" d="M 390.531992 354.556875 
L 394.582459 354.556875 
L 394.582459 302.463885 
L 390.531992 302.463885 
z
" style="fill:#9e1030;"/>
   </g>
   <g id="patch_94">
    <path clip-path="url(#p83c2b437fe)" d="M 402.104754 354.556875 
L 406.155221 354.556875 
L 406.155221 292.817035 
L 402.104754 292.817035 
z
" style="fill:#9e1030;"/>
   </g>
   <g id="patch_95">
    <path clip-path="url(#p83c2b437fe)" d="M 413.677516 354.556875 
L 417.727982 354.556875 
L 417.727982 288.958295 
L 413.677516 288.958295 
z
" style="fill:#9e1030;"/>
   </g>
   <g id="patch_96">
    <path clip-path="url(#p83c2b437fe)" d="M 425.250278 354.556875 
L 429.300744 354.556875 
L 429.300744 296.675775 
L 425.250278 296.675775 
z
" style="fill:#9e1030;"/>
   </g>
   <g id="patch_97">
    <path clip-path="url(#p83c2b437fe)" d="M 436.823039 354.556875 
L 440.873506 354.556875 
L 440.873506 277.382075 
L 436.823039 277.382075 
z
" style="fill:#9e1030;"/>
   </g>
   <g id="patch_98">
    <path clip-path="url(#p83c2b437fe)" d="M 448.395801 354.556875 
L 452.446268 354.556875 
L 452.446268 298.605145 
L 448.395801 298.605145 
z
" style="fill:#9e1030;"/>
   </g>
   <g id="patch_99">
    <path clip-path="url(#p83c2b437fe)" d="M 459.968563 354.556875 
L 464.01903 354.556875 
L 464.01903 250.370895 
L 459.968563 250.370895 
z
" style="fill:#9e1030;"/>
   </g>
   <g id="patch_100">
    <path clip-path="url(#p83c2b437fe)" d="M 471.541325 354.556875 
L 475.591792 354.556875 
L 475.591792 283.170185 
L 471.541325 283.170185 
z
" style="fill:#9e1030;"/>
   </g>
   <g id="patch_101">
    <path clip-path="url(#p83c2b437fe)" d="M 483.114087 354.556875 
L 487.164553 354.556875 
L 487.164553 246.512155 
L 483.114087 246.512155 
z
" style="fill:#9e1030;"/>
   </g>
   <g id="patch_102">
    <path clip-path="url(#p83c2b437fe)" d="M 494.686849 354.556875 
L 498.737315 354.556875 
L 498.737315 250.370895 
L 494.686849 250.370895 
z
" style="fill:#9e1030;"/>
   </g>
   <g id="patch_103">
    <path clip-path="url(#p83c2b437fe)" d="M 506.25961 354.556875 
L 510.310077 354.556875 
L 510.310077 271.593965 
L 506.25961 271.593965 
z
" style="fill:#9e1030;"/>
   </g>
   <g id="patch_104">
    <path clip-path="url(#p83c2b437fe)" d="M 517.832372 354.556875 
L 521.882839 354.556875 
L 521.882839 215.642234 
L 517.832372 215.642234 
z
" style="fill:#9e1030;"/>
   </g>
   <g id="patch_105">
    <path clip-path="url(#p83c2b437fe)" d="M 529.405134 354.556875 
L 533.455601 354.556875 
L 533.455601 215.642234 
L 529.405134 215.642234 
z
" style="fill:#9e1030;"/>
   </g>
   <g id="patch_106">
    <path clip-path="url(#p83c2b437fe)" d="M 540.977896 354.556875 
L 545.028363 354.556875 
L 545.028363 240.724044 
L 540.977896 240.724044 
z
" style="fill:#9e1030;"/>
   </g>
   <g id="patch_107">
    <path clip-path="url(#p83c2b437fe)" d="M 552.550658 354.556875 
L 556.601124 354.556875 
L 556.601124 223.359714 
L 552.550658 223.359714 
z
" style="fill:#9e1030;"/>
   </g>
   <g id="patch_108">
    <path clip-path="url(#p83c2b437fe)" d="M 564.12342 354.556875 
L 568.173886 354.556875 
L 568.173886 258.088375 
L 564.12342 258.088375 
z
" style="fill:#9e1030;"/>
   </g>
   <g id="patch_109">
    <path clip-path="url(#p83c2b437fe)" d="M 575.696182 354.556875 
L 579.746648 354.556875 
L 579.746648 192.489794 
L 575.696182 192.489794 
z
" style="fill:#9e1030;"/>
   </g>
   <g id="patch_110">
    <path clip-path="url(#p83c2b437fe)" d="M 587.268943 354.556875 
L 591.31941 354.556875 
L 591.31941 223.359714 
L 587.268943 223.359714 
z
" style="fill:#9e1030;"/>
   </g>
   <g id="patch_111">
    <path clip-path="url(#p83c2b437fe)" d="M 598.841705 354.556875 
L 602.892172 354.556875 
L 602.892172 242.653414 
L 598.841705 242.653414 
z
" style="fill:#9e1030;"/>
   </g>
   <g id="patch_112">
    <path clip-path="url(#p83c2b437fe)" d="M 610.414467 354.556875 
L 614.464934 354.556875 
L 614.464934 194.419164 
L 610.414467 194.419164 
z
" style="fill:#9e1030;"/>
   </g>
   <g id="patch_113">
    <path clip-path="url(#p83c2b437fe)" d="M 621.987229 354.556875 
L 626.037696 354.556875 
L 626.037696 184.772314 
L 621.987229 184.772314 
z
" style="fill:#9e1030;"/>
   </g>
   <g id="patch_114">
    <path clip-path="url(#p83c2b437fe)" d="M 633.559991 354.556875 
L 637.610457 354.556875 
L 637.610457 202.136644 
L 633.559991 202.136644 
z
" style="fill:#9e1030;"/>
   </g>
   <g id="patch_115">
    <path clip-path="url(#p83c2b437fe)" d="M 645.132753 354.556875 
L 649.183219 354.556875 
L 649.183219 186.701684 
L 645.132753 186.701684 
z
" style="fill:#9e1030;"/>
   </g>
   <g id="patch_116">
    <path clip-path="url(#p83c2b437fe)" d="M 656.705514 354.556875 
L 660.755981 354.556875 
L 660.755981 231.077194 
L 656.705514 231.077194 
z
" style="fill:#9e1030;"/>
   </g>
   <g id="patch_117">
    <path clip-path="url(#p83c2b437fe)" d="M 668.278276 354.556875 
L 672.328743 354.556875 
L 672.328743 233.006564 
L 668.278276 233.006564 
z
" style="fill:#9e1030;"/>
   </g>
   <g id="patch_118">
    <path clip-path="url(#p83c2b437fe)" d="M 679.851038 354.556875 
L 683.901505 354.556875 
L 683.901505 240.724044 
L 679.851038 240.724044 
z
" style="fill:#9e1030;"/>
   </g>
   <g id="patch_119">
    <path clip-path="url(#p83c2b437fe)" d="M 691.4238 354.556875 
L 695.474267 354.556875 
L 695.474267 246.512155 
L 691.4238 246.512155 
z
" style="fill:#9e1030;"/>
   </g>
   <g id="patch_120">
    <path clip-path="url(#p83c2b437fe)" d="M 702.996562 354.556875 
L 707.047028 354.556875 
L 707.047028 265.805855 
L 702.996562 265.805855 
z
" style="fill:#9e1030;"/>
   </g>
   <g id="patch_121">
    <path clip-path="url(#p83c2b437fe)" d="M 714.569324 354.556875 
L 718.61979 354.556875 
L 718.61979 287.028925 
L 714.569324 287.028925 
z
" style="fill:#9e1030;"/>
   </g>
   <g id="patch_122">
    <path clip-path="url(#p83c2b437fe)" d="M 726.142085 354.556875 
L 730.192552 354.556875 
L 730.192552 315.969475 
L 726.142085 315.969475 
z
" style="fill:#9e1030;"/>
   </g>
   <g id="patch_123">
    <path clip-path="url(#p83c2b437fe)" d="M 737.714847 354.556875 
L 741.765314 354.556875 
L 741.765314 308.251995 
L 737.714847 308.251995 
z
" style="fill:#9e1030;"/>
   </g>
   <g id="patch_124">
    <path clip-path="url(#p83c2b437fe)" d="M 749.287609 354.556875 
L 753.338076 354.556875 
L 753.338076 288.958295 
L 749.287609 288.958295 
z
" style="fill:#9e1030;"/>
   </g>
   <g id="patch_125">
    <path clip-path="url(#p83c2b437fe)" d="M 760.860371 354.556875 
L 764.910838 354.556875 
L 764.910838 321.757585 
L 760.860371 321.757585 
z
" style="fill:#9e1030;"/>
   </g>
   <g id="patch_126">
    <path clip-path="url(#p83c2b437fe)" d="M 772.433133 354.556875 
L 776.483599 354.556875 
L 776.483599 329.475065 
L 772.433133 329.475065 
z
" style="fill:#9e1030;"/>
   </g>
   <g id="patch_127">
    <path clip-path="url(#p83c2b437fe)" d="M 784.005895 354.556875 
L 788.056361 354.556875 
L 788.056361 333.333805 
L 784.005895 333.333805 
z
" style="fill:#9e1030;"/>
   </g>
   <g id="patch_128">
    <path clip-path="url(#p83c2b437fe)" d="M 795.578656 354.556875 
L 799.629123 354.556875 
L 799.629123 337.192545 
L 795.578656 337.192545 
z
" style="fill:#9e1030;"/>
   </g>
   <g id="patch_129">
    <path clip-path="url(#p83c2b437fe)" d="M 807.151418 354.556875 
L 811.201885 354.556875 
L 811.201885 344.910025 
L 807.151418 344.910025 
z
" style="fill:#9e1030;"/>
   </g>
   <g id="patch_130">
    <path clip-path="url(#p83c2b437fe)" d="M 818.72418 354.556875 
L 822.774647 354.556875 
L 822.774647 344.910025 
L 818.72418 344.910025 
z
" style="fill:#9e1030;"/>
   </g>
   <g id="patch_131">
    <path clip-path="url(#p83c2b437fe)" d="M 830.296942 354.556875 
L 834.347409 354.556875 
L 834.347409 346.839395 
L 830.296942 346.839395 
z
" style="fill:#9e1030;"/>
   </g>
   <g id="patch_132">
    <path clip-path="url(#p83c2b437fe)" d="M 841.869704 354.556875 
L 845.92017 354.556875 
L 845.92017 341.051285 
L 841.869704 341.051285 
z
" style="fill:#9e1030;"/>
   </g>
   <g id="matplotlib.axis_1">
    <g id="xtick_1">
     <g id="line2d_1">
      <defs>
       <path d="M 0 0 
L 0 3.5 
" id="mafe559143b" style="stroke:#000000;stroke-width:0.8;"/>
      </defs>
      <g>
       <use style="stroke:#000000;stroke-width:0.8;" x="98.609075" xlink:href="#mafe559143b" y="354.556875"/>
      </g>
     </g>
     <g id="text_1">
      <!-- 2 -->
      <defs>
       <path d="M 19.1875 8.296875 
L 53.609375 8.296875 
L 53.609375 0 
L 7.328125 0 
L 7.328125 8.296875 
Q 12.9375 14.109375 22.625 23.890625 
Q 32.328125 33.6875 34.8125 36.53125 
Q 39.546875 41.84375 41.421875 45.53125 
Q 43.3125 49.21875 43.3125 52.78125 
Q 43.3125 58.59375 39.234375 62.25 
Q 35.15625 65.921875 28.609375 65.921875 
Q 23.96875 65.921875 18.8125 64.3125 
Q 13.671875 62.703125 7.8125 59.421875 
L 7.8125 69.390625 
Q 13.765625 71.78125 18.9375 73 
Q 24.125 74.21875 28.421875 74.21875 
Q 39.75 74.21875 46.484375 68.546875 
Q 53.21875 62.890625 53.21875 53.421875 
Q 53.21875 48.921875 51.53125 44.890625 
Q 49.859375 40.875 45.40625 35.40625 
Q 44.1875 33.984375 37.640625 27.21875 
Q 31.109375 20.453125 19.1875 8.296875 
z
" id="DejaVuSans-32"/>
      </defs>
      <g transform="translate(95.427825 369.155312)scale(0.1 -0.1)">
       <use xlink:href="#DejaVuSans-32"/>
      </g>
     </g>
    </g>
    <g id="xtick_2">
     <g id="line2d_2">
      <g>
       <use style="stroke:#000000;stroke-width:0.8;" x="214.336693" xlink:href="#mafe559143b" y="354.556875"/>
      </g>
     </g>
     <g id="text_2">
      <!-- 3 -->
      <defs>
       <path d="M 40.578125 39.3125 
Q 47.65625 37.796875 51.625 33 
Q 55.609375 28.21875 55.609375 21.1875 
Q 55.609375 10.40625 48.1875 4.484375 
Q 40.765625 -1.421875 27.09375 -1.421875 
Q 22.515625 -1.421875 17.65625 -0.515625 
Q 12.796875 0.390625 7.625 2.203125 
L 7.625 11.71875 
Q 11.71875 9.328125 16.59375 8.109375 
Q 21.484375 6.890625 26.8125 6.890625 
Q 36.078125 6.890625 40.9375 10.546875 
Q 45.796875 14.203125 45.796875 21.1875 
Q 45.796875 27.640625 41.28125 31.265625 
Q 36.765625 34.90625 28.71875 34.90625 
L 20.21875 34.90625 
L 20.21875 43.015625 
L 29.109375 43.015625 
Q 36.375 43.015625 40.234375 45.921875 
Q 44.09375 48.828125 44.09375 54.296875 
Q 44.09375 59.90625 40.109375 62.90625 
Q 36.140625 65.921875 28.71875 65.921875 
Q 24.65625 65.921875 20.015625 65.03125 
Q 15.375 64.15625 9.8125 62.3125 
L 9.8125 71.09375 
Q 15.4375 72.65625 20.34375 73.4375 
Q 25.25 74.21875 29.59375 74.21875 
Q 40.828125 74.21875 47.359375 69.109375 
Q 53.90625 64.015625 53.90625 55.328125 
Q 53.90625 49.265625 50.4375 45.09375 
Q 46.96875 40.921875 40.578125 39.3125 
z
" id="DejaVuSans-33"/>
      </defs>
      <g transform="translate(211.155443 369.155312)scale(0.1 -0.1)">
       <use xlink:href="#DejaVuSans-33"/>
      </g>
     </g>
    </g>
    <g id="xtick_3">
     <g id="line2d_3">
      <g>
       <use style="stroke:#000000;stroke-width:0.8;" x="330.064311" xlink:href="#mafe559143b" y="354.556875"/>
      </g>
     </g>
     <g id="text_3">
      <!-- 4 -->
      <defs>
       <path d="M 37.796875 64.3125 
L 12.890625 25.390625 
L 37.796875 25.390625 
z
M 35.203125 72.90625 
L 47.609375 72.90625 
L 47.609375 25.390625 
L 58.015625 25.390625 
L 58.015625 17.1875 
L 47.609375 17.1875 
L 47.609375 0 
L 37.796875 0 
L 37.796875 17.1875 
L 4.890625 17.1875 
L 4.890625 26.703125 
z
" id="DejaVuSans-34"/>
      </defs>
      <g transform="translate(326.883061 369.155312)scale(0.1 -0.1)">
       <use xlink:href="#DejaVuSans-34"/>
      </g>
     </g>
    </g>
    <g id="xtick_4">
     <g id="line2d_4">
      <g>
       <use style="stroke:#000000;stroke-width:0.8;" x="445.79193" xlink:href="#mafe559143b" y="354.556875"/>
      </g>
     </g>
     <g id="text_4">
      <!-- 5 -->
      <defs>
       <path d="M 10.796875 72.90625 
L 49.515625 72.90625 
L 49.515625 64.59375 
L 19.828125 64.59375 
L 19.828125 46.734375 
Q 21.96875 47.46875 24.109375 47.828125 
Q 26.265625 48.1875 28.421875 48.1875 
Q 40.625 48.1875 47.75 41.5 
Q 54.890625 34.8125 54.890625 23.390625 
Q 54.890625 11.625 47.5625 5.09375 
Q 40.234375 -1.421875 26.90625 -1.421875 
Q 22.3125 -1.421875 17.546875 -0.640625 
Q 12.796875 0.140625 7.71875 1.703125 
L 7.71875 11.625 
Q 12.109375 9.234375 16.796875 8.0625 
Q 21.484375 6.890625 26.703125 6.890625 
Q 35.15625 6.890625 40.078125 11.328125 
Q 45.015625 15.765625 45.015625 23.390625 
Q 45.015625 31 40.078125 35.4375 
Q 35.15625 39.890625 26.703125 39.890625 
Q 22.75 39.890625 18.8125 39.015625 
Q 14.890625 38.140625 10.796875 36.28125 
z
" id="DejaVuSans-35"/>
      </defs>
      <g transform="translate(442.61068 369.155312)scale(0.1 -0.1)">
       <use xlink:href="#DejaVuSans-35"/>
      </g>
     </g>
    </g>
    <g id="xtick_5">
     <g id="line2d_5">
      <g>
       <use style="stroke:#000000;stroke-width:0.8;" x="561.519548" xlink:href="#mafe559143b" y="354.556875"/>
      </g>
     </g>
     <g id="text_5">
      <!-- 6 -->
      <defs>
       <path d="M 33.015625 40.375 
Q 26.375 40.375 22.484375 35.828125 
Q 18.609375 31.296875 18.609375 23.390625 
Q 18.609375 15.53125 22.484375 10.953125 
Q 26.375 6.390625 33.015625 6.390625 
Q 39.65625 6.390625 43.53125 10.953125 
Q 47.40625 15.53125 47.40625 23.390625 
Q 47.40625 31.296875 43.53125 35.828125 
Q 39.65625 40.375 33.015625 40.375 
z
M 52.59375 71.296875 
L 52.59375 62.3125 
Q 48.875 64.0625 45.09375 64.984375 
Q 41.3125 65.921875 37.59375 65.921875 
Q 27.828125 65.921875 22.671875 59.328125 
Q 17.53125 52.734375 16.796875 39.40625 
Q 19.671875 43.65625 24.015625 45.921875 
Q 28.375 48.1875 33.59375 48.1875 
Q 44.578125 48.1875 50.953125 41.515625 
Q 57.328125 34.859375 57.328125 23.390625 
Q 57.328125 12.15625 50.6875 5.359375 
Q 44.046875 -1.421875 33.015625 -1.421875 
Q 20.359375 -1.421875 13.671875 8.265625 
Q 6.984375 17.96875 6.984375 36.375 
Q 6.984375 53.65625 15.1875 63.9375 
Q 23.390625 74.21875 37.203125 74.21875 
Q 40.921875 74.21875 44.703125 73.484375 
Q 48.484375 72.75 52.59375 71.296875 
z
" id="DejaVuSans-36"/>
      </defs>
      <g transform="translate(558.338298 369.155312)scale(0.1 -0.1)">
       <use xlink:href="#DejaVuSans-36"/>
      </g>
     </g>
    </g>
    <g id="xtick_6">
     <g id="line2d_6">
      <g>
       <use style="stroke:#000000;stroke-width:0.8;" x="677.247167" xlink:href="#mafe559143b" y="354.556875"/>
      </g>
     </g>
     <g id="text_6">
      <!-- 7 -->
      <defs>
       <path d="M 8.203125 72.90625 
L 55.078125 72.90625 
L 55.078125 68.703125 
L 28.609375 0 
L 18.3125 0 
L 43.21875 64.59375 
L 8.203125 64.59375 
z
" id="DejaVuSans-37"/>
      </defs>
      <g transform="translate(674.065917 369.155312)scale(0.1 -0.1)">
       <use xlink:href="#DejaVuSans-37"/>
      </g>
     </g>
    </g>
    <g id="xtick_7">
     <g id="line2d_7">
      <g>
       <use style="stroke:#000000;stroke-width:0.8;" x="792.974785" xlink:href="#mafe559143b" y="354.556875"/>
      </g>
     </g>
     <g id="text_7">
      <!-- 8 -->
      <defs>
       <path d="M 31.78125 34.625 
Q 24.75 34.625 20.71875 30.859375 
Q 16.703125 27.09375 16.703125 20.515625 
Q 16.703125 13.921875 20.71875 10.15625 
Q 24.75 6.390625 31.78125 6.390625 
Q 38.8125 6.390625 42.859375 10.171875 
Q 46.921875 13.96875 46.921875 20.515625 
Q 46.921875 27.09375 42.890625 30.859375 
Q 38.875 34.625 31.78125 34.625 
z
M 21.921875 38.8125 
Q 15.578125 40.375 12.03125 44.71875 
Q 8.5 49.078125 8.5 55.328125 
Q 8.5 64.0625 14.71875 69.140625 
Q 20.953125 74.21875 31.78125 74.21875 
Q 42.671875 74.21875 48.875 69.140625 
Q 55.078125 64.0625 55.078125 55.328125 
Q 55.078125 49.078125 51.53125 44.71875 
Q 48 40.375 41.703125 38.8125 
Q 48.828125 37.15625 52.796875 32.3125 
Q 56.78125 27.484375 56.78125 20.515625 
Q 56.78125 9.90625 50.3125 4.234375 
Q 43.84375 -1.421875 31.78125 -1.421875 
Q 19.734375 -1.421875 13.25 4.234375 
Q 6.78125 9.90625 6.78125 20.515625 
Q 6.78125 27.484375 10.78125 32.3125 
Q 14.796875 37.15625 21.921875 38.8125 
z
M 18.3125 54.390625 
Q 18.3125 48.734375 21.84375 45.5625 
Q 25.390625 42.390625 31.78125 42.390625 
Q 38.140625 42.390625 41.71875 45.5625 
Q 45.3125 48.734375 45.3125 54.390625 
Q 45.3125 60.0625 41.71875 63.234375 
Q 38.140625 66.40625 31.78125 66.40625 
Q 25.390625 66.40625 21.84375 63.234375 
Q 18.3125 60.0625 18.3125 54.390625 
z
" id="DejaVuSans-38"/>
      </defs>
      <g transform="translate(789.793535 369.155312)scale(0.1 -0.1)">
       <use xlink:href="#DejaVuSans-38"/>
      </g>
     </g>
    </g>
    <g id="text_8">
     <!-- Degrees -->
     <defs>
      <path d="M 19.671875 64.796875 
L 19.671875 8.109375 
L 31.59375 8.109375 
Q 46.6875 8.109375 53.6875 14.9375 
Q 60.6875 21.78125 60.6875 36.53125 
Q 60.6875 51.171875 53.6875 57.984375 
Q 46.6875 64.796875 31.59375 64.796875 
z
M 9.8125 72.90625 
L 30.078125 72.90625 
Q 51.265625 72.90625 61.171875 64.09375 
Q 71.09375 55.28125 71.09375 36.53125 
Q 71.09375 17.671875 61.125 8.828125 
Q 51.171875 0 30.078125 0 
L 9.8125 0 
z
" id="DejaVuSans-44"/>
      <path d="M 56.203125 29.59375 
L 56.203125 25.203125 
L 14.890625 25.203125 
Q 15.484375 15.921875 20.484375 11.0625 
Q 25.484375 6.203125 34.421875 6.203125 
Q 39.59375 6.203125 44.453125 7.46875 
Q 49.3125 8.734375 54.109375 11.28125 
L 54.109375 2.78125 
Q 49.265625 0.734375 44.1875 -0.34375 
Q 39.109375 -1.421875 33.890625 -1.421875 
Q 20.796875 -1.421875 13.15625 6.1875 
Q 5.515625 13.8125 5.515625 26.8125 
Q 5.515625 40.234375 12.765625 48.109375 
Q 20.015625 56 32.328125 56 
Q 43.359375 56 49.78125 48.890625 
Q 56.203125 41.796875 56.203125 29.59375 
z
M 47.21875 32.234375 
Q 47.125 39.59375 43.09375 43.984375 
Q 39.0625 48.390625 32.421875 48.390625 
Q 24.90625 48.390625 20.390625 44.140625 
Q 15.875 39.890625 15.1875 32.171875 
z
" id="DejaVuSans-65"/>
      <path d="M 45.40625 27.984375 
Q 45.40625 37.75 41.375 43.109375 
Q 37.359375 48.484375 30.078125 48.484375 
Q 22.859375 48.484375 18.828125 43.109375 
Q 14.796875 37.75 14.796875 27.984375 
Q 14.796875 18.265625 18.828125 12.890625 
Q 22.859375 7.515625 30.078125 7.515625 
Q 37.359375 7.515625 41.375 12.890625 
Q 45.40625 18.265625 45.40625 27.984375 
z
M 54.390625 6.78125 
Q 54.390625 -7.171875 48.1875 -13.984375 
Q 42 -20.796875 29.203125 -20.796875 
Q 24.46875 -20.796875 20.265625 -20.09375 
Q 16.0625 -19.390625 12.109375 -17.921875 
L 12.109375 -9.1875 
Q 16.0625 -11.328125 19.921875 -12.34375 
Q 23.78125 -13.375 27.78125 -13.375 
Q 36.625 -13.375 41.015625 -8.765625 
Q 45.40625 -4.15625 45.40625 5.171875 
L 45.40625 9.625 
Q 42.625 4.78125 38.28125 2.390625 
Q 33.9375 0 27.875 0 
Q 17.828125 0 11.671875 7.65625 
Q 5.515625 15.328125 5.515625 27.984375 
Q 5.515625 40.671875 11.671875 48.328125 
Q 17.828125 56 27.875 56 
Q 33.9375 56 38.28125 53.609375 
Q 42.625 51.21875 45.40625 46.390625 
L 45.40625 54.6875 
L 54.390625 54.6875 
z
" id="DejaVuSans-67"/>
      <path d="M 41.109375 46.296875 
Q 39.59375 47.171875 37.8125 47.578125 
Q 36.03125 48 33.890625 48 
Q 26.265625 48 22.1875 43.046875 
Q 18.109375 38.09375 18.109375 28.8125 
L 18.109375 0 
L 9.078125 0 
L 9.078125 54.6875 
L 18.109375 54.6875 
L 18.109375 46.1875 
Q 20.953125 51.171875 25.484375 53.578125 
Q 30.03125 56 36.53125 56 
Q 37.453125 56 38.578125 55.875 
Q 39.703125 55.765625 41.0625 55.515625 
z
" id="DejaVuSans-72"/>
      <path d="M 44.28125 53.078125 
L 44.28125 44.578125 
Q 40.484375 46.53125 36.375 47.5 
Q 32.28125 48.484375 27.875 48.484375 
Q 21.1875 48.484375 17.84375 46.4375 
Q 14.5 44.390625 14.5 40.28125 
Q 14.5 37.15625 16.890625 35.375 
Q 19.28125 33.59375 26.515625 31.984375 
L 29.59375 31.296875 
Q 39.15625 29.25 43.1875 25.515625 
Q 47.21875 21.78125 47.21875 15.09375 
Q 47.21875 7.46875 41.1875 3.015625 
Q 35.15625 -1.421875 24.609375 -1.421875 
Q 20.21875 -1.421875 15.453125 -0.5625 
Q 10.6875 0.296875 5.421875 2 
L 5.421875 11.28125 
Q 10.40625 8.6875 15.234375 7.390625 
Q 20.0625 6.109375 24.8125 6.109375 
Q 31.15625 6.109375 34.5625 8.28125 
Q 37.984375 10.453125 37.984375 14.40625 
Q 37.984375 18.0625 35.515625 20.015625 
Q 33.0625 21.96875 24.703125 23.78125 
L 21.578125 24.515625 
Q 13.234375 26.265625 9.515625 29.90625 
Q 5.8125 33.546875 5.8125 39.890625 
Q 5.8125 47.609375 11.28125 51.796875 
Q 16.75 56 26.8125 56 
Q 31.78125 56 36.171875 55.265625 
Q 40.578125 54.546875 44.28125 53.078125 
z
" id="DejaVuSans-73"/>
     </defs>
     <g transform="translate(444.553125 382.833437)scale(0.1 -0.1)">
      <use xlink:href="#DejaVuSans-44"/>
      <use x="77.001953" xlink:href="#DejaVuSans-65"/>
      <use x="138.525391" xlink:href="#DejaVuSans-67"/>
      <use x="202.001953" xlink:href="#DejaVuSans-72"/>
      <use x="243.083984" xlink:href="#DejaVuSans-65"/>
      <use x="304.607422" xlink:href="#DejaVuSans-65"/>
      <use x="366.130859" xlink:href="#DejaVuSans-73"/>
     </g>
    </g>
   </g>
   <g id="matplotlib.axis_2">
    <g id="ytick_1">
     <g id="line2d_8">
      <defs>
       <path d="M 0 0 
L -3.5 0 
" id="m093faaf412" style="stroke:#000000;stroke-width:0.8;"/>
      </defs>
      <g>
       <use style="stroke:#000000;stroke-width:0.8;" x="46.965625" xlink:href="#m093faaf412" y="354.556875"/>
      </g>
     </g>
     <g id="text_9">
      <!-- 0 -->
      <defs>
       <path d="M 31.78125 66.40625 
Q 24.171875 66.40625 20.328125 58.90625 
Q 16.5 51.421875 16.5 36.375 
Q 16.5 21.390625 20.328125 13.890625 
Q 24.171875 6.390625 31.78125 6.390625 
Q 39.453125 6.390625 43.28125 13.890625 
Q 47.125 21.390625 47.125 36.375 
Q 47.125 51.421875 43.28125 58.90625 
Q 39.453125 66.40625 31.78125 66.40625 
z
M 31.78125 74.21875 
Q 44.046875 74.21875 50.515625 64.515625 
Q 56.984375 54.828125 56.984375 36.375 
Q 56.984375 17.96875 50.515625 8.265625 
Q 44.046875 -1.421875 31.78125 -1.421875 
Q 19.53125 -1.421875 13.0625 8.265625 
Q 6.59375 17.96875 6.59375 36.375 
Q 6.59375 54.828125 13.0625 64.515625 
Q 19.53125 74.21875 31.78125 74.21875 
z
" id="DejaVuSans-30"/>
      </defs>
      <g transform="translate(33.603125 358.356094)scale(0.1 -0.1)">
       <use xlink:href="#DejaVuSans-30"/>
      </g>
     </g>
    </g>
    <g id="ytick_2">
     <g id="line2d_9">
      <g>
       <use style="stroke:#000000;stroke-width:0.8;" x="46.965625" xlink:href="#m093faaf412" y="315.969475"/>
      </g>
     </g>
     <g id="text_10">
      <!-- 20 -->
      <g transform="translate(27.240625 319.768694)scale(0.1 -0.1)">
       <use xlink:href="#DejaVuSans-32"/>
       <use x="63.623047" xlink:href="#DejaVuSans-30"/>
      </g>
     </g>
    </g>
    <g id="ytick_3">
     <g id="line2d_10">
      <g>
       <use style="stroke:#000000;stroke-width:0.8;" x="46.965625" xlink:href="#m093faaf412" y="277.382075"/>
      </g>
     </g>
     <g id="text_11">
      <!-- 40 -->
      <g transform="translate(27.240625 281.181293)scale(0.1 -0.1)">
       <use xlink:href="#DejaVuSans-34"/>
       <use x="63.623047" xlink:href="#DejaVuSans-30"/>
      </g>
     </g>
    </g>
    <g id="ytick_4">
     <g id="line2d_11">
      <g>
       <use style="stroke:#000000;stroke-width:0.8;" x="46.965625" xlink:href="#m093faaf412" y="238.794674"/>
      </g>
     </g>
     <g id="text_12">
      <!-- 60 -->
      <g transform="translate(27.240625 242.593893)scale(0.1 -0.1)">
       <use xlink:href="#DejaVuSans-36"/>
       <use x="63.623047" xlink:href="#DejaVuSans-30"/>
      </g>
     </g>
    </g>
    <g id="ytick_5">
     <g id="line2d_12">
      <g>
       <use style="stroke:#000000;stroke-width:0.8;" x="46.965625" xlink:href="#m093faaf412" y="200.207274"/>
      </g>
     </g>
     <g id="text_13">
      <!-- 80 -->
      <g transform="translate(27.240625 204.006493)scale(0.1 -0.1)">
       <use xlink:href="#DejaVuSans-38"/>
       <use x="63.623047" xlink:href="#DejaVuSans-30"/>
      </g>
     </g>
    </g>
    <g id="ytick_6">
     <g id="line2d_13">
      <g>
       <use style="stroke:#000000;stroke-width:0.8;" x="46.965625" xlink:href="#m093faaf412" y="161.619874"/>
      </g>
     </g>
     <g id="text_14">
      <!-- 100 -->
      <defs>
       <path d="M 12.40625 8.296875 
L 28.515625 8.296875 
L 28.515625 63.921875 
L 10.984375 60.40625 
L 10.984375 69.390625 
L 28.421875 72.90625 
L 38.28125 72.90625 
L 38.28125 8.296875 
L 54.390625 8.296875 
L 54.390625 0 
L 12.40625 0 
z
" id="DejaVuSans-31"/>
      </defs>
      <g transform="translate(20.878125 165.419093)scale(0.1 -0.1)">
       <use xlink:href="#DejaVuSans-31"/>
       <use x="63.623047" xlink:href="#DejaVuSans-30"/>
       <use x="127.246094" xlink:href="#DejaVuSans-30"/>
      </g>
     </g>
    </g>
    <g id="ytick_7">
     <g id="line2d_14">
      <g>
       <use style="stroke:#000000;stroke-width:0.8;" x="46.965625" xlink:href="#m093faaf412" y="123.032474"/>
      </g>
     </g>
     <g id="text_15">
      <!-- 120 -->
      <g transform="translate(20.878125 126.831693)scale(0.1 -0.1)">
       <use xlink:href="#DejaVuSans-31"/>
       <use x="63.623047" xlink:href="#DejaVuSans-32"/>
       <use x="127.246094" xlink:href="#DejaVuSans-30"/>
      </g>
     </g>
    </g>
    <g id="ytick_8">
     <g id="line2d_15">
      <g>
       <use style="stroke:#000000;stroke-width:0.8;" x="46.965625" xlink:href="#m093faaf412" y="84.445074"/>
      </g>
     </g>
     <g id="text_16">
      <!-- 140 -->
      <g transform="translate(20.878125 88.244293)scale(0.1 -0.1)">
       <use xlink:href="#DejaVuSans-31"/>
       <use x="63.623047" xlink:href="#DejaVuSans-34"/>
       <use x="127.246094" xlink:href="#DejaVuSans-30"/>
      </g>
     </g>
    </g>
    <g id="ytick_9">
     <g id="line2d_16">
      <g>
       <use style="stroke:#000000;stroke-width:0.8;" x="46.965625" xlink:href="#m093faaf412" y="45.857674"/>
      </g>
     </g>
     <g id="text_17">
      <!-- 160 -->
      <g transform="translate(20.878125 49.656892)scale(0.1 -0.1)">
       <use xlink:href="#DejaVuSans-31"/>
       <use x="63.623047" xlink:href="#DejaVuSans-36"/>
       <use x="127.246094" xlink:href="#DejaVuSans-30"/>
      </g>
     </g>
    </g>
    <g id="text_18">
     <!-- Number of occurences -->
     <defs>
      <path d="M 9.8125 72.90625 
L 23.09375 72.90625 
L 55.421875 11.921875 
L 55.421875 72.90625 
L 64.984375 72.90625 
L 64.984375 0 
L 51.703125 0 
L 19.390625 60.984375 
L 19.390625 0 
L 9.8125 0 
z
" id="DejaVuSans-4e"/>
      <path d="M 8.5 21.578125 
L 8.5 54.6875 
L 17.484375 54.6875 
L 17.484375 21.921875 
Q 17.484375 14.15625 20.5 10.265625 
Q 23.53125 6.390625 29.59375 6.390625 
Q 36.859375 6.390625 41.078125 11.03125 
Q 45.3125 15.671875 45.3125 23.6875 
L 45.3125 54.6875 
L 54.296875 54.6875 
L 54.296875 0 
L 45.3125 0 
L 45.3125 8.40625 
Q 42.046875 3.421875 37.71875 1 
Q 33.40625 -1.421875 27.6875 -1.421875 
Q 18.265625 -1.421875 13.375 4.4375 
Q 8.5 10.296875 8.5 21.578125 
z
M 31.109375 56 
z
" id="DejaVuSans-75"/>
      <path d="M 52 44.1875 
Q 55.375 50.25 60.0625 53.125 
Q 64.75 56 71.09375 56 
Q 79.640625 56 84.28125 50.015625 
Q 88.921875 44.046875 88.921875 33.015625 
L 88.921875 0 
L 79.890625 0 
L 79.890625 32.71875 
Q 79.890625 40.578125 77.09375 44.375 
Q 74.3125 48.1875 68.609375 48.1875 
Q 61.625 48.1875 57.5625 43.546875 
Q 53.515625 38.921875 53.515625 30.90625 
L 53.515625 0 
L 44.484375 0 
L 44.484375 32.71875 
Q 44.484375 40.625 41.703125 44.40625 
Q 38.921875 48.1875 33.109375 48.1875 
Q 26.21875 48.1875 22.15625 43.53125 
Q 18.109375 38.875 18.109375 30.90625 
L 18.109375 0 
L 9.078125 0 
L 9.078125 54.6875 
L 18.109375 54.6875 
L 18.109375 46.1875 
Q 21.1875 51.21875 25.484375 53.609375 
Q 29.78125 56 35.6875 56 
Q 41.65625 56 45.828125 52.96875 
Q 50 49.953125 52 44.1875 
z
" id="DejaVuSans-6d"/>
      <path d="M 48.6875 27.296875 
Q 48.6875 37.203125 44.609375 42.84375 
Q 40.53125 48.484375 33.40625 48.484375 
Q 26.265625 48.484375 22.1875 42.84375 
Q 18.109375 37.203125 18.109375 27.296875 
Q 18.109375 17.390625 22.1875 11.75 
Q 26.265625 6.109375 33.40625 6.109375 
Q 40.53125 6.109375 44.609375 11.75 
Q 48.6875 17.390625 48.6875 27.296875 
z
M 18.109375 46.390625 
Q 20.953125 51.265625 25.265625 53.625 
Q 29.59375 56 35.59375 56 
Q 45.5625 56 51.78125 48.09375 
Q 58.015625 40.1875 58.015625 27.296875 
Q 58.015625 14.40625 51.78125 6.484375 
Q 45.5625 -1.421875 35.59375 -1.421875 
Q 29.59375 -1.421875 25.265625 0.953125 
Q 20.953125 3.328125 18.109375 8.203125 
L 18.109375 0 
L 9.078125 0 
L 9.078125 75.984375 
L 18.109375 75.984375 
z
" id="DejaVuSans-62"/>
      <path id="DejaVuSans-20"/>
      <path d="M 30.609375 48.390625 
Q 23.390625 48.390625 19.1875 42.75 
Q 14.984375 37.109375 14.984375 27.296875 
Q 14.984375 17.484375 19.15625 11.84375 
Q 23.34375 6.203125 30.609375 6.203125 
Q 37.796875 6.203125 41.984375 11.859375 
Q 46.1875 17.53125 46.1875 27.296875 
Q 46.1875 37.015625 41.984375 42.703125 
Q 37.796875 48.390625 30.609375 48.390625 
z
M 30.609375 56 
Q 42.328125 56 49.015625 48.375 
Q 55.71875 40.765625 55.71875 27.296875 
Q 55.71875 13.875 49.015625 6.21875 
Q 42.328125 -1.421875 30.609375 -1.421875 
Q 18.84375 -1.421875 12.171875 6.21875 
Q 5.515625 13.875 5.515625 27.296875 
Q 5.515625 40.765625 12.171875 48.375 
Q 18.84375 56 30.609375 56 
z
" id="DejaVuSans-6f"/>
      <path d="M 37.109375 75.984375 
L 37.109375 68.5 
L 28.515625 68.5 
Q 23.6875 68.5 21.796875 66.546875 
Q 19.921875 64.59375 19.921875 59.515625 
L 19.921875 54.6875 
L 34.71875 54.6875 
L 34.71875 47.703125 
L 19.921875 47.703125 
L 19.921875 0 
L 10.890625 0 
L 10.890625 47.703125 
L 2.296875 47.703125 
L 2.296875 54.6875 
L 10.890625 54.6875 
L 10.890625 58.5 
Q 10.890625 67.625 15.140625 71.796875 
Q 19.390625 75.984375 28.609375 75.984375 
z
" id="DejaVuSans-66"/>
      <path d="M 48.78125 52.59375 
L 48.78125 44.1875 
Q 44.96875 46.296875 41.140625 47.34375 
Q 37.3125 48.390625 33.40625 48.390625 
Q 24.65625 48.390625 19.8125 42.84375 
Q 14.984375 37.3125 14.984375 27.296875 
Q 14.984375 17.28125 19.8125 11.734375 
Q 24.65625 6.203125 33.40625 6.203125 
Q 37.3125 6.203125 41.140625 7.25 
Q 44.96875 8.296875 48.78125 10.40625 
L 48.78125 2.09375 
Q 45.015625 0.34375 40.984375 -0.53125 
Q 36.96875 -1.421875 32.421875 -1.421875 
Q 20.0625 -1.421875 12.78125 6.34375 
Q 5.515625 14.109375 5.515625 27.296875 
Q 5.515625 40.671875 12.859375 48.328125 
Q 20.21875 56 33.015625 56 
Q 37.15625 56 41.109375 55.140625 
Q 45.0625 54.296875 48.78125 52.59375 
z
" id="DejaVuSans-63"/>
      <path d="M 54.890625 33.015625 
L 54.890625 0 
L 45.90625 0 
L 45.90625 32.71875 
Q 45.90625 40.484375 42.875 44.328125 
Q 39.84375 48.1875 33.796875 48.1875 
Q 26.515625 48.1875 22.3125 43.546875 
Q 18.109375 38.921875 18.109375 30.90625 
L 18.109375 0 
L 9.078125 0 
L 9.078125 54.6875 
L 18.109375 54.6875 
L 18.109375 46.1875 
Q 21.34375 51.125 25.703125 53.5625 
Q 30.078125 56 35.796875 56 
Q 45.21875 56 50.046875 50.171875 
Q 54.890625 44.34375 54.890625 33.015625 
z
" id="DejaVuSans-6e"/>
     </defs>
     <g transform="translate(14.798438 248.016719)rotate(-90)scale(0.1 -0.1)">
      <use xlink:href="#DejaVuSans-4e"/>
      <use x="74.804688" xlink:href="#DejaVuSans-75"/>
      <use x="138.183594" xlink:href="#DejaVuSans-6d"/>
      <use x="235.595703" xlink:href="#DejaVuSans-62"/>
      <use x="299.072266" xlink:href="#DejaVuSans-65"/>
      <use x="360.595703" xlink:href="#DejaVuSans-72"/>
      <use x="401.708984" xlink:href="#DejaVuSans-20"/>
      <use x="433.496094" xlink:href="#DejaVuSans-6f"/>
      <use x="494.677734" xlink:href="#DejaVuSans-66"/>
      <use x="529.882812" xlink:href="#DejaVuSans-20"/>
      <use x="561.669922" xlink:href="#DejaVuSans-6f"/>
      <use x="622.851562" xlink:href="#DejaVuSans-63"/>
      <use x="677.832031" xlink:href="#DejaVuSans-63"/>
      <use x="732.8125" xlink:href="#DejaVuSans-75"/>
      <use x="796.191406" xlink:href="#DejaVuSans-72"/>
      <use x="837.273438" xlink:href="#DejaVuSans-65"/>
      <use x="898.796875" xlink:href="#DejaVuSans-6e"/>
      <use x="962.175781" xlink:href="#DejaVuSans-63"/>
      <use x="1017.15625" xlink:href="#DejaVuSans-65"/>
      <use x="1078.679688" xlink:href="#DejaVuSans-73"/>
     </g>
    </g>
   </g>
   <g id="line2d_17">
    <path clip-path="url(#p83c2b437fe)" d="M 546.250773 354.556875 
L 546.250773 43.928304 
" style="fill:none;stroke:#1dcaff;stroke-linecap:square;"/>
   </g>
   <g id="line2d_18">
    <path clip-path="url(#p83c2b437fe)" d="M 551.270715 354.556875 
L 551.270715 43.928304 
" style="fill:none;stroke:#ffc0cb;stroke-linecap:square;"/>
   </g>
   <g id="patch_133">
    <path d="M 46.965625 354.556875 
L 46.965625 28.396875 
" style="fill:none;stroke:#000000;stroke-linecap:square;stroke-linejoin:miter;stroke-width:0.8;"/>
   </g>
   <g id="patch_134">
    <path d="M 883.965625 354.556875 
L 883.965625 28.396875 
" style="fill:none;stroke:#000000;stroke-linecap:square;stroke-linejoin:miter;stroke-width:0.8;"/>
   </g>
   <g id="patch_135">
    <path d="M 46.965625 354.556875 
L 883.965625 354.556875 
" style="fill:none;stroke:#000000;stroke-linecap:square;stroke-linejoin:miter;stroke-width:0.8;"/>
   </g>
   <g id="patch_136">
    <path d="M 46.965625 28.396875 
L 883.965625 28.396875 
" style="fill:none;stroke:#000000;stroke-linecap:square;stroke-linejoin:miter;stroke-width:0.8;"/>
   </g>
   <g id="text_19">
    <!-- Actors Average Ratings Period 2000+ -->
    <defs>
     <path d="M 53.421875 13.28125 
L 24.03125 13.28125 
L 19.390625 0 
L 0.484375 0 
L 27.484375 72.90625 
L 49.90625 72.90625 
L 76.90625 0 
L 58.015625 0 
z
M 28.71875 26.8125 
L 48.6875 26.8125 
L 38.71875 55.8125 
z
" id="DejaVuSans-Bold-41"/>
     <path d="M 52.59375 52.984375 
L 52.59375 38.71875 
Q 49.03125 41.15625 45.4375 42.328125 
Q 41.84375 43.5 37.984375 43.5 
Q 30.671875 43.5 26.59375 39.234375 
Q 22.515625 34.96875 22.515625 27.296875 
Q 22.515625 19.625 26.59375 15.34375 
Q 30.671875 11.078125 37.984375 11.078125 
Q 42.09375 11.078125 45.78125 12.296875 
Q 49.46875 13.53125 52.59375 15.921875 
L 52.59375 1.609375 
Q 48.484375 0.09375 44.265625 -0.65625 
Q 40.046875 -1.421875 35.796875 -1.421875 
Q 21 -1.421875 12.640625 6.171875 
Q 4.296875 13.765625 4.296875 27.296875 
Q 4.296875 40.828125 12.640625 48.40625 
Q 21 56 35.796875 56 
Q 40.09375 56 44.265625 55.25 
Q 48.4375 54.5 52.59375 52.984375 
z
" id="DejaVuSans-Bold-63"/>
     <path d="M 27.484375 70.21875 
L 27.484375 54.6875 
L 45.515625 54.6875 
L 45.515625 42.1875 
L 27.484375 42.1875 
L 27.484375 19 
Q 27.484375 15.1875 29 13.84375 
Q 30.515625 12.5 35.015625 12.5 
L 44 12.5 
L 44 0 
L 29 0 
Q 18.65625 0 14.328125 4.3125 
Q 10.015625 8.640625 10.015625 19 
L 10.015625 42.1875 
L 1.3125 42.1875 
L 1.3125 54.6875 
L 10.015625 54.6875 
L 10.015625 70.21875 
z
" id="DejaVuSans-Bold-74"/>
     <path d="M 34.421875 43.5 
Q 28.609375 43.5 25.5625 39.328125 
Q 22.515625 35.15625 22.515625 27.296875 
Q 22.515625 19.4375 25.5625 15.25 
Q 28.609375 11.078125 34.421875 11.078125 
Q 40.140625 11.078125 43.15625 15.25 
Q 46.1875 19.4375 46.1875 27.296875 
Q 46.1875 35.15625 43.15625 39.328125 
Q 40.140625 43.5 34.421875 43.5 
z
M 34.421875 56 
Q 48.53125 56 56.46875 48.375 
Q 64.40625 40.765625 64.40625 27.296875 
Q 64.40625 13.8125 56.46875 6.1875 
Q 48.53125 -1.421875 34.421875 -1.421875 
Q 20.265625 -1.421875 12.28125 6.1875 
Q 4.296875 13.8125 4.296875 27.296875 
Q 4.296875 40.765625 12.28125 48.375 
Q 20.265625 56 34.421875 56 
z
" id="DejaVuSans-Bold-6f"/>
     <path d="M 49.03125 39.796875 
Q 46.734375 40.875 44.453125 41.375 
Q 42.1875 41.890625 39.890625 41.890625 
Q 33.15625 41.890625 29.515625 37.5625 
Q 25.875 33.25 25.875 25.203125 
L 25.875 0 
L 8.40625 0 
L 8.40625 54.6875 
L 25.875 54.6875 
L 25.875 45.703125 
Q 29.25 51.078125 33.609375 53.53125 
Q 37.984375 56 44.09375 56 
Q 44.96875 56 45.984375 55.921875 
Q 47.015625 55.859375 48.96875 55.609375 
z
" id="DejaVuSans-Bold-72"/>
     <path d="M 51.125 52.984375 
L 51.125 39.703125 
Q 45.515625 42.046875 40.28125 43.21875 
Q 35.0625 44.390625 30.421875 44.390625 
Q 25.4375 44.390625 23.015625 43.140625 
Q 20.609375 41.890625 20.609375 39.3125 
Q 20.609375 37.203125 22.4375 36.078125 
Q 24.265625 34.96875 29 34.421875 
L 32.078125 33.984375 
Q 45.515625 32.28125 50.140625 28.375 
Q 54.78125 24.46875 54.78125 16.109375 
Q 54.78125 7.375 48.328125 2.96875 
Q 41.890625 -1.421875 29.109375 -1.421875 
Q 23.6875 -1.421875 17.890625 -0.5625 
Q 12.109375 0.296875 6 2 
L 6 15.28125 
Q 11.234375 12.75 16.71875 11.46875 
Q 22.21875 10.203125 27.875 10.203125 
Q 33.015625 10.203125 35.59375 11.609375 
Q 38.1875 13.03125 38.1875 15.828125 
Q 38.1875 18.171875 36.40625 19.3125 
Q 34.625 20.453125 29.296875 21.09375 
L 26.21875 21.484375 
Q 14.546875 22.953125 9.859375 26.90625 
Q 5.171875 30.859375 5.171875 38.921875 
Q 5.171875 47.609375 11.125 51.796875 
Q 17.09375 56 29.390625 56 
Q 34.234375 56 39.546875 55.265625 
Q 44.875 54.546875 51.125 52.984375 
z
" id="DejaVuSans-Bold-73"/>
     <path id="DejaVuSans-Bold-20"/>
     <path d="M 1.515625 54.6875 
L 19 54.6875 
L 32.625 16.890625 
L 46.1875 54.6875 
L 63.71875 54.6875 
L 42.1875 0 
L 23 0 
z
" id="DejaVuSans-Bold-76"/>
     <path d="M 62.984375 27.484375 
L 62.984375 22.515625 
L 22.125 22.515625 
Q 22.75 16.359375 26.5625 13.28125 
Q 30.375 10.203125 37.203125 10.203125 
Q 42.71875 10.203125 48.5 11.84375 
Q 54.296875 13.484375 60.40625 16.796875 
L 60.40625 3.328125 
Q 54.203125 0.984375 48 -0.21875 
Q 41.796875 -1.421875 35.59375 -1.421875 
Q 20.75 -1.421875 12.515625 6.125 
Q 4.296875 13.671875 4.296875 27.296875 
Q 4.296875 40.671875 12.375 48.328125 
Q 20.453125 56 34.625 56 
Q 47.515625 56 55.25 48.234375 
Q 62.984375 40.484375 62.984375 27.484375 
z
M 45.015625 33.296875 
Q 45.015625 38.28125 42.109375 41.328125 
Q 39.203125 44.390625 34.515625 44.390625 
Q 29.4375 44.390625 26.265625 41.53125 
Q 23.09375 38.671875 22.3125 33.296875 
z
" id="DejaVuSans-Bold-65"/>
     <path d="M 32.90625 24.609375 
Q 27.4375 24.609375 24.671875 22.75 
Q 21.921875 20.90625 21.921875 17.28125 
Q 21.921875 13.96875 24.140625 12.078125 
Q 26.375 10.203125 30.328125 10.203125 
Q 35.25 10.203125 38.625 13.734375 
Q 42 17.28125 42 22.609375 
L 42 24.609375 
z
M 59.625 31.203125 
L 59.625 0 
L 42 0 
L 42 8.109375 
Q 38.484375 3.125 34.078125 0.84375 
Q 29.6875 -1.421875 23.390625 -1.421875 
Q 14.890625 -1.421875 9.59375 3.53125 
Q 4.296875 8.5 4.296875 16.40625 
Q 4.296875 26.03125 10.90625 30.515625 
Q 17.53125 35.015625 31.6875 35.015625 
L 42 35.015625 
L 42 36.375 
Q 42 40.53125 38.71875 42.453125 
Q 35.453125 44.390625 28.515625 44.390625 
Q 22.90625 44.390625 18.0625 43.265625 
Q 13.234375 42.140625 9.078125 39.890625 
L 9.078125 53.21875 
Q 14.703125 54.59375 20.359375 55.296875 
Q 26.03125 56 31.6875 56 
Q 46.484375 56 53.046875 50.171875 
Q 59.625 44.34375 59.625 31.203125 
z
" id="DejaVuSans-Bold-61"/>
     <path d="M 45.609375 9.28125 
Q 42 4.5 37.640625 2.25 
Q 33.296875 0 27.59375 0 
Q 17.578125 0 11.03125 7.875 
Q 4.5 15.765625 4.5 27.984375 
Q 4.5 40.234375 11.03125 48.0625 
Q 17.578125 55.90625 27.59375 55.90625 
Q 33.296875 55.90625 37.640625 53.65625 
Q 42 51.421875 45.609375 46.578125 
L 45.609375 54.6875 
L 63.1875 54.6875 
L 63.1875 5.515625 
Q 63.1875 -7.671875 54.859375 -14.625 
Q 46.53125 -21.578125 30.71875 -21.578125 
Q 25.59375 -21.578125 20.796875 -20.796875 
Q 16.015625 -20.015625 11.1875 -18.40625 
L 11.1875 -4.78125 
Q 15.765625 -7.421875 20.15625 -8.71875 
Q 24.5625 -10.015625 29 -10.015625 
Q 37.59375 -10.015625 41.59375 -6.25 
Q 45.609375 -2.484375 45.609375 5.515625 
z
M 34.078125 43.3125 
Q 28.65625 43.3125 25.625 39.296875 
Q 22.609375 35.296875 22.609375 27.984375 
Q 22.609375 20.453125 25.53125 16.578125 
Q 28.46875 12.703125 34.078125 12.703125 
Q 39.546875 12.703125 42.578125 16.703125 
Q 45.609375 20.703125 45.609375 27.984375 
Q 45.609375 35.296875 42.578125 39.296875 
Q 39.546875 43.3125 34.078125 43.3125 
z
" id="DejaVuSans-Bold-67"/>
     <path d="M 35.890625 40.578125 
Q 41.796875 40.578125 44.359375 42.765625 
Q 46.921875 44.96875 46.921875 50 
Q 46.921875 54.984375 44.359375 57.125 
Q 41.796875 59.28125 35.890625 59.28125 
L 27.984375 59.28125 
L 27.984375 40.578125 
z
M 27.984375 27.59375 
L 27.984375 0 
L 9.1875 0 
L 9.1875 72.90625 
L 37.890625 72.90625 
Q 52.296875 72.90625 59 68.0625 
Q 65.71875 63.234375 65.71875 52.78125 
Q 65.71875 45.5625 62.21875 40.921875 
Q 58.734375 36.28125 51.703125 34.078125 
Q 55.5625 33.203125 58.609375 30.09375 
Q 61.671875 27 64.796875 20.703125 
L 75 0 
L 54.984375 0 
L 46.09375 18.109375 
Q 43.40625 23.578125 40.640625 25.578125 
Q 37.890625 27.59375 33.296875 27.59375 
z
" id="DejaVuSans-Bold-52"/>
     <path d="M 8.40625 54.6875 
L 25.875 54.6875 
L 25.875 0 
L 8.40625 0 
z
M 8.40625 75.984375 
L 25.875 75.984375 
L 25.875 61.71875 
L 8.40625 61.71875 
z
" id="DejaVuSans-Bold-69"/>
     <path d="M 63.375 33.296875 
L 63.375 0 
L 45.796875 0 
L 45.796875 5.421875 
L 45.796875 25.484375 
Q 45.796875 32.5625 45.484375 35.25 
Q 45.171875 37.9375 44.390625 39.203125 
Q 43.359375 40.921875 41.59375 41.875 
Q 39.84375 42.828125 37.59375 42.828125 
Q 32.125 42.828125 29 38.59375 
Q 25.875 34.375 25.875 26.90625 
L 25.875 0 
L 8.40625 0 
L 8.40625 54.6875 
L 25.875 54.6875 
L 25.875 46.6875 
Q 29.828125 51.46875 34.265625 53.734375 
Q 38.71875 56 44.09375 56 
Q 53.5625 56 58.46875 50.1875 
Q 63.375 44.390625 63.375 33.296875 
z
" id="DejaVuSans-Bold-6e"/>
     <path d="M 9.1875 72.90625 
L 40.375 72.90625 
Q 54.296875 72.90625 61.734375 66.71875 
Q 69.1875 60.546875 69.1875 49.125 
Q 69.1875 37.640625 61.734375 31.46875 
Q 54.296875 25.296875 40.375 25.296875 
L 27.984375 25.296875 
L 27.984375 0 
L 9.1875 0 
z
M 27.984375 59.28125 
L 27.984375 38.921875 
L 38.375 38.921875 
Q 43.84375 38.921875 46.828125 41.578125 
Q 49.8125 44.234375 49.8125 49.125 
Q 49.8125 54 46.828125 56.640625 
Q 43.84375 59.28125 38.375 59.28125 
z
" id="DejaVuSans-Bold-50"/>
     <path d="M 45.609375 46.6875 
L 45.609375 75.984375 
L 63.1875 75.984375 
L 63.1875 0 
L 45.609375 0 
L 45.609375 7.90625 
Q 42 3.078125 37.640625 0.828125 
Q 33.296875 -1.421875 27.59375 -1.421875 
Q 17.484375 -1.421875 10.984375 6.609375 
Q 4.5 14.65625 4.5 27.296875 
Q 4.5 39.9375 10.984375 47.96875 
Q 17.484375 56 27.59375 56 
Q 33.25 56 37.625 53.734375 
Q 42 51.46875 45.609375 46.6875 
z
M 34.078125 11.28125 
Q 39.703125 11.28125 42.65625 15.375 
Q 45.609375 19.484375 45.609375 27.296875 
Q 45.609375 35.109375 42.65625 39.203125 
Q 39.703125 43.3125 34.078125 43.3125 
Q 28.515625 43.3125 25.5625 39.203125 
Q 22.609375 35.109375 22.609375 27.296875 
Q 22.609375 19.484375 25.5625 15.375 
Q 28.515625 11.28125 34.078125 11.28125 
z
" id="DejaVuSans-Bold-64"/>
     <path d="M 28.8125 13.8125 
L 60.890625 13.8125 
L 60.890625 0 
L 7.90625 0 
L 7.90625 13.8125 
L 34.515625 37.3125 
Q 38.09375 40.53125 39.796875 43.609375 
Q 41.5 46.6875 41.5 50 
Q 41.5 55.125 38.0625 58.25 
Q 34.625 61.375 28.90625 61.375 
Q 24.515625 61.375 19.28125 59.5 
Q 14.0625 57.625 8.109375 53.90625 
L 8.109375 69.921875 
Q 14.453125 72.015625 20.65625 73.109375 
Q 26.859375 74.21875 32.8125 74.21875 
Q 45.90625 74.21875 53.15625 68.453125 
Q 60.40625 62.703125 60.40625 52.390625 
Q 60.40625 46.4375 57.328125 41.28125 
Q 54.25 36.140625 44.390625 27.484375 
z
" id="DejaVuSans-Bold-32"/>
     <path d="M 46 36.53125 
Q 46 50.203125 43.4375 55.78125 
Q 40.875 61.375 34.8125 61.375 
Q 28.765625 61.375 26.171875 55.78125 
Q 23.578125 50.203125 23.578125 36.53125 
Q 23.578125 22.703125 26.171875 17.03125 
Q 28.765625 11.375 34.8125 11.375 
Q 40.828125 11.375 43.40625 17.03125 
Q 46 22.703125 46 36.53125 
z
M 64.796875 36.375 
Q 64.796875 18.265625 56.984375 8.421875 
Q 49.171875 -1.421875 34.8125 -1.421875 
Q 20.40625 -1.421875 12.59375 8.421875 
Q 4.78125 18.265625 4.78125 36.375 
Q 4.78125 54.546875 12.59375 64.375 
Q 20.40625 74.21875 34.8125 74.21875 
Q 49.171875 74.21875 56.984375 64.375 
Q 64.796875 54.546875 64.796875 36.375 
z
" id="DejaVuSans-Bold-30"/>
     <path d="M 47.703125 62.703125 
L 47.703125 37.109375 
L 73.1875 37.109375 
L 73.1875 25.59375 
L 47.703125 25.59375 
L 47.703125 0 
L 36.078125 0 
L 36.078125 25.59375 
L 10.59375 25.59375 
L 10.59375 37.109375 
L 36.078125 37.109375 
L 36.078125 62.703125 
z
" id="DejaVuSans-Bold-2b"/>
    </defs>
    <g transform="translate(253.089063 22.396875)scale(0.2 -0.2)">
     <use xlink:href="#DejaVuSans-Bold-41"/>
     <use x="77.392578" xlink:href="#DejaVuSans-Bold-63"/>
     <use x="136.669922" xlink:href="#DejaVuSans-Bold-74"/>
     <use x="184.472656" xlink:href="#DejaVuSans-Bold-6f"/>
     <use x="253.173828" xlink:href="#DejaVuSans-Bold-72"/>
     <use x="302.490234" xlink:href="#DejaVuSans-Bold-73"/>
     <use x="362.011719" xlink:href="#DejaVuSans-Bold-20"/>
     <use x="396.826172" xlink:href="#DejaVuSans-Bold-41"/>
     <use x="474.171875" xlink:href="#DejaVuSans-Bold-76"/>
     <use x="539.357422" xlink:href="#DejaVuSans-Bold-65"/>
     <use x="607.179688" xlink:href="#DejaVuSans-Bold-72"/>
     <use x="656.496094" xlink:href="#DejaVuSans-Bold-61"/>
     <use x="723.976562" xlink:href="#DejaVuSans-Bold-67"/>
     <use x="795.558594" xlink:href="#DejaVuSans-Bold-65"/>
     <use x="863.380859" xlink:href="#DejaVuSans-Bold-20"/>
     <use x="898.195312" xlink:href="#DejaVuSans-Bold-52"/>
     <use x="975.197266" xlink:href="#DejaVuSans-Bold-61"/>
     <use x="1042.677734" xlink:href="#DejaVuSans-Bold-74"/>
     <use x="1090.480469" xlink:href="#DejaVuSans-Bold-69"/>
     <use x="1124.757812" xlink:href="#DejaVuSans-Bold-6e"/>
     <use x="1195.949219" xlink:href="#DejaVuSans-Bold-67"/>
     <use x="1267.53125" xlink:href="#DejaVuSans-Bold-73"/>
     <use x="1327.052734" xlink:href="#DejaVuSans-Bold-20"/>
     <use x="1361.867188" xlink:href="#DejaVuSans-Bold-50"/>
     <use x="1435.158203" xlink:href="#DejaVuSans-Bold-65"/>
     <use x="1502.980469" xlink:href="#DejaVuSans-Bold-72"/>
     <use x="1552.296875" xlink:href="#DejaVuSans-Bold-69"/>
     <use x="1586.574219" xlink:href="#DejaVuSans-Bold-6f"/>
     <use x="1655.275391" xlink:href="#DejaVuSans-Bold-64"/>
     <use x="1726.857422" xlink:href="#DejaVuSans-Bold-20"/>
     <use x="1761.671875" xlink:href="#DejaVuSans-Bold-32"/>
     <use x="1831.251953" xlink:href="#DejaVuSans-Bold-30"/>
     <use x="1900.832031" xlink:href="#DejaVuSans-Bold-30"/>
     <use x="1970.412109" xlink:href="#DejaVuSans-Bold-30"/>
     <use x="2039.992188" xlink:href="#DejaVuSans-Bold-2b"/>
    </g>
   </g>
   <g id="legend_1">
    <g id="patch_137">
     <path d="M 709.542188 95.109375 
L 876.965625 95.109375 
Q 878.965625 95.109375 878.965625 93.109375 
L 878.965625 35.396875 
Q 878.965625 33.396875 876.965625 33.396875 
L 709.542188 33.396875 
Q 707.542188 33.396875 707.542188 35.396875 
L 707.542188 93.109375 
Q 707.542188 95.109375 709.542188 95.109375 
z
" style="fill:#ffffff;opacity:0.8;stroke:#cccccc;stroke-linejoin:miter;"/>
    </g>
    <g id="line2d_19">
     <path d="M 711.542188 41.495312 
L 731.542188 41.495312 
" style="fill:none;stroke:#1dcaff;stroke-linecap:square;"/>
    </g>
    <g id="line2d_20"/>
    <g id="text_20">
     <!-- Men Mean 5.87 -->
     <defs>
      <path d="M 9.8125 72.90625 
L 24.515625 72.90625 
L 43.109375 23.296875 
L 61.8125 72.90625 
L 76.515625 72.90625 
L 76.515625 0 
L 66.890625 0 
L 66.890625 64.015625 
L 48.09375 14.015625 
L 38.1875 14.015625 
L 19.390625 64.015625 
L 19.390625 0 
L 9.8125 0 
z
" id="DejaVuSans-4d"/>
      <path d="M 34.28125 27.484375 
Q 23.390625 27.484375 19.1875 25 
Q 14.984375 22.515625 14.984375 16.5 
Q 14.984375 11.71875 18.140625 8.90625 
Q 21.296875 6.109375 26.703125 6.109375 
Q 34.1875 6.109375 38.703125 11.40625 
Q 43.21875 16.703125 43.21875 25.484375 
L 43.21875 27.484375 
z
M 52.203125 31.203125 
L 52.203125 0 
L 43.21875 0 
L 43.21875 8.296875 
Q 40.140625 3.328125 35.546875 0.953125 
Q 30.953125 -1.421875 24.3125 -1.421875 
Q 15.921875 -1.421875 10.953125 3.296875 
Q 6 8.015625 6 15.921875 
Q 6 25.140625 12.171875 29.828125 
Q 18.359375 34.515625 30.609375 34.515625 
L 43.21875 34.515625 
L 43.21875 35.40625 
Q 43.21875 41.609375 39.140625 45 
Q 35.0625 48.390625 27.6875 48.390625 
Q 23 48.390625 18.546875 47.265625 
Q 14.109375 46.140625 10.015625 43.890625 
L 10.015625 52.203125 
Q 14.9375 54.109375 19.578125 55.046875 
Q 24.21875 56 28.609375 56 
Q 40.484375 56 46.34375 49.84375 
Q 52.203125 43.703125 52.203125 31.203125 
z
" id="DejaVuSans-61"/>
      <path d="M 10.6875 12.40625 
L 21 12.40625 
L 21 0 
L 10.6875 0 
z
" id="DejaVuSans-2e"/>
     </defs>
     <g transform="translate(739.542188 44.995312)scale(0.1 -0.1)">
      <use xlink:href="#DejaVuSans-4d"/>
      <use x="86.279297" xlink:href="#DejaVuSans-65"/>
      <use x="147.802734" xlink:href="#DejaVuSans-6e"/>
      <use x="211.181641" xlink:href="#DejaVuSans-20"/>
      <use x="242.96875" xlink:href="#DejaVuSans-4d"/>
      <use x="329.248047" xlink:href="#DejaVuSans-65"/>
      <use x="390.771484" xlink:href="#DejaVuSans-61"/>
      <use x="452.050781" xlink:href="#DejaVuSans-6e"/>
      <use x="515.429688" xlink:href="#DejaVuSans-20"/>
      <use x="547.216797" xlink:href="#DejaVuSans-35"/>
      <use x="610.839844" xlink:href="#DejaVuSans-2e"/>
      <use x="642.626953" xlink:href="#DejaVuSans-38"/>
      <use x="706.25" xlink:href="#DejaVuSans-37"/>
     </g>
    </g>
    <g id="line2d_21">
     <path d="M 711.542188 56.173437 
L 731.542188 56.173437 
" style="fill:none;stroke:#ffc0cb;stroke-linecap:square;"/>
    </g>
    <g id="line2d_22"/>
    <g id="text_21">
     <!-- Women Mean 5.91 -->
     <defs>
      <path d="M 3.328125 72.90625 
L 13.28125 72.90625 
L 28.609375 11.28125 
L 43.890625 72.90625 
L 54.984375 72.90625 
L 70.3125 11.28125 
L 85.59375 72.90625 
L 95.609375 72.90625 
L 77.296875 0 
L 64.890625 0 
L 49.515625 63.28125 
L 33.984375 0 
L 21.578125 0 
z
" id="DejaVuSans-57"/>
      <path d="M 10.984375 1.515625 
L 10.984375 10.5 
Q 14.703125 8.734375 18.5 7.8125 
Q 22.3125 6.890625 25.984375 6.890625 
Q 35.75 6.890625 40.890625 13.453125 
Q 46.046875 20.015625 46.78125 33.40625 
Q 43.953125 29.203125 39.59375 26.953125 
Q 35.25 24.703125 29.984375 24.703125 
Q 19.046875 24.703125 12.671875 31.3125 
Q 6.296875 37.9375 6.296875 49.421875 
Q 6.296875 60.640625 12.9375 67.421875 
Q 19.578125 74.21875 30.609375 74.21875 
Q 43.265625 74.21875 49.921875 64.515625 
Q 56.59375 54.828125 56.59375 36.375 
Q 56.59375 19.140625 48.40625 8.859375 
Q 40.234375 -1.421875 26.421875 -1.421875 
Q 22.703125 -1.421875 18.890625 -0.6875 
Q 15.09375 0.046875 10.984375 1.515625 
z
M 30.609375 32.421875 
Q 37.25 32.421875 41.125 36.953125 
Q 45.015625 41.5 45.015625 49.421875 
Q 45.015625 57.28125 41.125 61.84375 
Q 37.25 66.40625 30.609375 66.40625 
Q 23.96875 66.40625 20.09375 61.84375 
Q 16.21875 57.28125 16.21875 49.421875 
Q 16.21875 41.5 20.09375 36.953125 
Q 23.96875 32.421875 30.609375 32.421875 
z
" id="DejaVuSans-39"/>
     </defs>
     <g transform="translate(739.542188 59.673437)scale(0.1 -0.1)">
      <use xlink:href="#DejaVuSans-57"/>
      <use x="98.798828" xlink:href="#DejaVuSans-6f"/>
      <use x="159.980469" xlink:href="#DejaVuSans-6d"/>
      <use x="257.392578" xlink:href="#DejaVuSans-65"/>
      <use x="318.916016" xlink:href="#DejaVuSans-6e"/>
      <use x="382.294922" xlink:href="#DejaVuSans-20"/>
      <use x="414.082031" xlink:href="#DejaVuSans-4d"/>
      <use x="500.361328" xlink:href="#DejaVuSans-65"/>
      <use x="561.884766" xlink:href="#DejaVuSans-61"/>
      <use x="623.164062" xlink:href="#DejaVuSans-6e"/>
      <use x="686.542969" xlink:href="#DejaVuSans-20"/>
      <use x="718.330078" xlink:href="#DejaVuSans-35"/>
      <use x="781.953125" xlink:href="#DejaVuSans-2e"/>
      <use x="813.740234" xlink:href="#DejaVuSans-39"/>
      <use x="877.363281" xlink:href="#DejaVuSans-31"/>
     </g>
    </g>
    <g id="patch_138">
     <path d="M 711.542188 74.351562 
L 731.542188 74.351562 
L 731.542188 67.351562 
L 711.542188 67.351562 
z
" style="fill:#55638a;"/>
    </g>
    <g id="text_22">
     <!-- Average Ratings of Actors -->
     <defs>
      <path d="M 34.1875 63.1875 
L 20.796875 26.90625 
L 47.609375 26.90625 
z
M 28.609375 72.90625 
L 39.796875 72.90625 
L 67.578125 0 
L 57.328125 0 
L 50.6875 18.703125 
L 17.828125 18.703125 
L 11.1875 0 
L 0.78125 0 
z
" id="DejaVuSans-41"/>
      <path d="M 2.984375 54.6875 
L 12.5 54.6875 
L 29.59375 8.796875 
L 46.6875 54.6875 
L 56.203125 54.6875 
L 35.6875 0 
L 23.484375 0 
z
" id="DejaVuSans-76"/>
      <path d="M 44.390625 34.1875 
Q 47.5625 33.109375 50.5625 29.59375 
Q 53.5625 26.078125 56.59375 19.921875 
L 66.609375 0 
L 56 0 
L 46.6875 18.703125 
Q 43.0625 26.03125 39.671875 28.421875 
Q 36.28125 30.8125 30.421875 30.8125 
L 19.671875 30.8125 
L 19.671875 0 
L 9.8125 0 
L 9.8125 72.90625 
L 32.078125 72.90625 
Q 44.578125 72.90625 50.734375 67.671875 
Q 56.890625 62.453125 56.890625 51.90625 
Q 56.890625 45.015625 53.6875 40.46875 
Q 50.484375 35.9375 44.390625 34.1875 
z
M 19.671875 64.796875 
L 19.671875 38.921875 
L 32.078125 38.921875 
Q 39.203125 38.921875 42.84375 42.21875 
Q 46.484375 45.515625 46.484375 51.90625 
Q 46.484375 58.296875 42.84375 61.546875 
Q 39.203125 64.796875 32.078125 64.796875 
z
" id="DejaVuSans-52"/>
      <path d="M 18.3125 70.21875 
L 18.3125 54.6875 
L 36.8125 54.6875 
L 36.8125 47.703125 
L 18.3125 47.703125 
L 18.3125 18.015625 
Q 18.3125 11.328125 20.140625 9.421875 
Q 21.96875 7.515625 27.59375 7.515625 
L 36.8125 7.515625 
L 36.8125 0 
L 27.59375 0 
Q 17.1875 0 13.234375 3.875 
Q 9.28125 7.765625 9.28125 18.015625 
L 9.28125 47.703125 
L 2.6875 47.703125 
L 2.6875 54.6875 
L 9.28125 54.6875 
L 9.28125 70.21875 
z
" id="DejaVuSans-74"/>
      <path d="M 9.421875 54.6875 
L 18.40625 54.6875 
L 18.40625 0 
L 9.421875 0 
z
M 9.421875 75.984375 
L 18.40625 75.984375 
L 18.40625 64.59375 
L 9.421875 64.59375 
z
" id="DejaVuSans-69"/>
     </defs>
     <g transform="translate(739.542188 74.351562)scale(0.1 -0.1)">
      <use xlink:href="#DejaVuSans-41"/>
      <use x="68.330078" xlink:href="#DejaVuSans-76"/>
      <use x="127.509766" xlink:href="#DejaVuSans-65"/>
      <use x="189.033203" xlink:href="#DejaVuSans-72"/>
      <use x="230.146484" xlink:href="#DejaVuSans-61"/>
      <use x="291.425781" xlink:href="#DejaVuSans-67"/>
      <use x="354.902344" xlink:href="#DejaVuSans-65"/>
      <use x="416.425781" xlink:href="#DejaVuSans-20"/>
      <use x="448.212891" xlink:href="#DejaVuSans-52"/>
      <use x="517.664062" xlink:href="#DejaVuSans-61"/>
      <use x="578.943359" xlink:href="#DejaVuSans-74"/>
      <use x="618.152344" xlink:href="#DejaVuSans-69"/>
      <use x="645.935547" xlink:href="#DejaVuSans-6e"/>
      <use x="709.314453" xlink:href="#DejaVuSans-67"/>
      <use x="772.791016" xlink:href="#DejaVuSans-73"/>
      <use x="824.890625" xlink:href="#DejaVuSans-20"/>
      <use x="856.677734" xlink:href="#DejaVuSans-6f"/>
      <use x="917.859375" xlink:href="#DejaVuSans-66"/>
      <use x="953.064453" xlink:href="#DejaVuSans-20"/>
      <use x="984.851562" xlink:href="#DejaVuSans-41"/>
      <use x="1053.244141" xlink:href="#DejaVuSans-63"/>
      <use x="1108.224609" xlink:href="#DejaVuSans-74"/>
      <use x="1147.433594" xlink:href="#DejaVuSans-6f"/>
      <use x="1208.615234" xlink:href="#DejaVuSans-72"/>
      <use x="1249.728516" xlink:href="#DejaVuSans-73"/>
     </g>
    </g>
    <g id="patch_139">
     <path d="M 711.542188 89.029687 
L 731.542188 89.029687 
L 731.542188 82.029687 
L 711.542188 82.029687 
z
" style="fill:#9e1030;"/>
    </g>
    <g id="text_23">
     <!-- Average Ratings of Actress -->
     <g transform="translate(739.542188 89.029687)scale(0.1 -0.1)">
      <use xlink:href="#DejaVuSans-41"/>
      <use x="68.330078" xlink:href="#DejaVuSans-76"/>
      <use x="127.509766" xlink:href="#DejaVuSans-65"/>
      <use x="189.033203" xlink:href="#DejaVuSans-72"/>
      <use x="230.146484" xlink:href="#DejaVuSans-61"/>
      <use x="291.425781" xlink:href="#DejaVuSans-67"/>
      <use x="354.902344" xlink:href="#DejaVuSans-65"/>
      <use x="416.425781" xlink:href="#DejaVuSans-20"/>
      <use x="448.212891" xlink:href="#DejaVuSans-52"/>
      <use x="517.664062" xlink:href="#DejaVuSans-61"/>
      <use x="578.943359" xlink:href="#DejaVuSans-74"/>
      <use x="618.152344" xlink:href="#DejaVuSans-69"/>
      <use x="645.935547" xlink:href="#DejaVuSans-6e"/>
      <use x="709.314453" xlink:href="#DejaVuSans-67"/>
      <use x="772.791016" xlink:href="#DejaVuSans-73"/>
      <use x="824.890625" xlink:href="#DejaVuSans-20"/>
      <use x="856.677734" xlink:href="#DejaVuSans-6f"/>
      <use x="917.859375" xlink:href="#DejaVuSans-66"/>
      <use x="953.064453" xlink:href="#DejaVuSans-20"/>
      <use x="984.851562" xlink:href="#DejaVuSans-41"/>
      <use x="1053.244141" xlink:href="#DejaVuSans-63"/>
      <use x="1108.224609" xlink:href="#DejaVuSans-74"/>
      <use x="1147.433594" xlink:href="#DejaVuSans-72"/>
      <use x="1188.515625" xlink:href="#DejaVuSans-65"/>
      <use x="1250.039062" xlink:href="#DejaVuSans-73"/>
      <use x="1302.138672" xlink:href="#DejaVuSans-73"/>
     </g>
    </g>
   </g>
  </g>
 </g>
 <defs>
  <clipPath id="p83c2b437fe">
   <rect height="326.16" width="837" x="46.965625" y="28.396875"/>
  </clipPath>
 </defs>
</svg>
