<?xml version="1.0" encoding="utf-8" standalone="no"?>
<!DOCTYPE svg PUBLIC "-//W3C//DTD SVG 1.1//EN"
  "http://www.w3.org/Graphics/SVG/1.1/DTD/svg11.dtd">
<!-- Created with matplotlib (http://matplotlib.org/) -->
<svg height="392.113125pt" version="1.1" viewBox="0 0 894.665625 392.113125" width="894.665625pt" xmlns="http://www.w3.org/2000/svg" xmlns:xlink="http://www.w3.org/1999/xlink">
 <defs>
  <style type="text/css">
*{stroke-linecap:butt;stroke-linejoin:round;}
  </style>
 </defs>
 <g id="figure_1">
  <g id="patch_1">
   <path d="M 0 392.113125 
L 894.665625 392.113125 
L 894.665625 0 
L 0 0 
z
" style="fill:#ffffff;"/>
  </g>
  <g id="axes_1">
   <g id="patch_2">
    <path d="M 46.965625 354.556875 
L 883.965625 354.556875 
L 883.965625 28.396875 
L 46.965625 28.396875 
z
" style="fill:#ffffff;"/>
   </g>
   <g id="patch_3">
    <path clip-path="url(#p11235335b3)" d="M 113.293619 354.556875 
L 117.100884 354.556875 
L 117.100884 352.305943 
L 113.293619 352.305943 
z
" style="fill:#55638a;"/>
   </g>
   <g id="patch_4">
    <path clip-path="url(#p11235335b3)" d="M 124.171519 354.556875 
L 127.978784 354.556875 
L 127.978784 347.80408 
L 124.171519 347.80408 
z
" style="fill:#55638a;"/>
   </g>
   <g id="patch_5">
    <path clip-path="url(#p11235335b3)" d="M 135.049419 354.556875 
L 138.856684 354.556875 
L 138.856684 352.305943 
L 135.049419 352.305943 
z
" style="fill:#55638a;"/>
   </g>
   <g id="patch_6">
    <path clip-path="url(#p11235335b3)" d="M 145.927318 354.556875 
L 149.734583 354.556875 
L 149.734583 352.305943 
L 145.927318 352.305943 
z
" style="fill:#55638a;"/>
   </g>
   <g id="patch_7">
    <path clip-path="url(#p11235335b3)" d="M 156.805218 354.556875 
L 160.612483 354.556875 
L 160.612483 343.302217 
L 156.805218 343.302217 
z
" style="fill:#55638a;"/>
   </g>
   <g id="patch_8">
    <path clip-path="url(#p11235335b3)" d="M 167.683118 354.556875 
L 171.490383 354.556875 
L 171.490383 350.055012 
L 167.683118 350.055012 
z
" style="fill:#55638a;"/>
   </g>
   <g id="patch_9">
    <path clip-path="url(#p11235335b3)" d="M 178.561018 354.556875 
L 182.368283 354.556875 
L 182.368283 350.055012 
L 178.561018 350.055012 
z
" style="fill:#55638a;"/>
   </g>
   <g id="patch_10">
    <path clip-path="url(#p11235335b3)" d="M 189.438918 354.556875 
L 193.246183 354.556875 
L 193.246183 350.055012 
L 189.438918 350.055012 
z
" style="fill:#55638a;"/>
   </g>
   <g id="patch_11">
    <path clip-path="url(#p11235335b3)" d="M 200.316817 354.556875 
L 204.124082 354.556875 
L 204.124082 352.305943 
L 200.316817 352.305943 
z
" style="fill:#55638a;"/>
   </g>
   <g id="patch_12">
    <path clip-path="url(#p11235335b3)" d="M 211.194717 354.556875 
L 215.001982 354.556875 
L 215.001982 350.055012 
L 211.194717 350.055012 
z
" style="fill:#55638a;"/>
   </g>
   <g id="patch_13">
    <path clip-path="url(#p11235335b3)" d="M 222.072617 354.556875 
L 225.879882 354.556875 
L 225.879882 345.553148 
L 222.072617 345.553148 
z
" style="fill:#55638a;"/>
   </g>
   <g id="patch_14">
    <path clip-path="url(#p11235335b3)" d="M 232.950517 354.556875 
L 236.757782 354.556875 
L 236.757782 338.800353 
L 232.950517 338.800353 
z
" style="fill:#55638a;"/>
   </g>
   <g id="patch_15">
    <path clip-path="url(#p11235335b3)" d="M 243.828417 354.556875 
L 247.635682 354.556875 
L 247.635682 345.553148 
L 243.828417 345.553148 
z
" style="fill:#55638a;"/>
   </g>
   <g id="patch_16">
    <path clip-path="url(#p11235335b3)" d="M 254.706316 354.556875 
L 258.513581 354.556875 
L 258.513581 338.800353 
L 254.706316 338.800353 
z
" style="fill:#55638a;"/>
   </g>
   <g id="patch_17">
    <path clip-path="url(#p11235335b3)" d="M 265.584216 354.556875 
L 269.391481 354.556875 
L 269.391481 352.305943 
L 265.584216 352.305943 
z
" style="fill:#55638a;"/>
   </g>
   <g id="patch_18">
    <path clip-path="url(#p11235335b3)" d="M 276.462116 354.556875 
L 280.269381 354.556875 
L 280.269381 345.553148 
L 276.462116 345.553148 
z
" style="fill:#55638a;"/>
   </g>
   <g id="patch_19">
    <path clip-path="url(#p11235335b3)" d="M 287.340016 354.556875 
L 291.147281 354.556875 
L 291.147281 343.302217 
L 287.340016 343.302217 
z
" style="fill:#55638a;"/>
   </g>
   <g id="patch_20">
    <path clip-path="url(#p11235335b3)" d="M 298.217916 354.556875 
L 302.025181 354.556875 
L 302.025181 347.80408 
L 298.217916 347.80408 
z
" style="fill:#55638a;"/>
   </g>
   <g id="patch_21">
    <path clip-path="url(#p11235335b3)" d="M 309.095815 354.556875 
L 312.90308 354.556875 
L 312.90308 347.80408 
L 309.095815 347.80408 
z
" style="fill:#55638a;"/>
   </g>
   <g id="patch_22">
    <path clip-path="url(#p11235335b3)" d="M 319.973715 354.556875 
L 323.78098 354.556875 
L 323.78098 347.80408 
L 319.973715 347.80408 
z
" style="fill:#55638a;"/>
   </g>
   <g id="patch_23">
    <path clip-path="url(#p11235335b3)" d="M 330.851615 354.556875 
L 334.65888 354.556875 
L 334.65888 347.80408 
L 330.851615 347.80408 
z
" style="fill:#55638a;"/>
   </g>
   <g id="patch_24">
    <path clip-path="url(#p11235335b3)" d="M 341.729515 354.556875 
L 345.53678 354.556875 
L 345.53678 323.043832 
L 341.729515 323.043832 
z
" style="fill:#55638a;"/>
   </g>
   <g id="patch_25">
    <path clip-path="url(#p11235335b3)" d="M 352.607415 354.556875 
L 356.41468 354.556875 
L 356.41468 343.302217 
L 352.607415 343.302217 
z
" style="fill:#55638a;"/>
   </g>
   <g id="patch_26">
    <path clip-path="url(#p11235335b3)" d="M 363.485314 354.556875 
L 367.292579 354.556875 
L 367.292579 334.29849 
L 363.485314 334.29849 
z
" style="fill:#55638a;"/>
   </g>
   <g id="patch_27">
    <path clip-path="url(#p11235335b3)" d="M 374.363214 354.556875 
L 378.170479 354.556875 
L 378.170479 338.800353 
L 374.363214 338.800353 
z
" style="fill:#55638a;"/>
   </g>
   <g id="patch_28">
    <path clip-path="url(#p11235335b3)" d="M 385.241114 354.556875 
L 389.048379 354.556875 
L 389.048379 325.294763 
L 385.241114 325.294763 
z
" style="fill:#55638a;"/>
   </g>
   <g id="patch_29">
    <path clip-path="url(#p11235335b3)" d="M 396.119014 354.556875 
L 399.926279 354.556875 
L 399.926279 336.549422 
L 396.119014 336.549422 
z
" style="fill:#55638a;"/>
   </g>
   <g id="patch_30">
    <path clip-path="url(#p11235335b3)" d="M 406.996914 354.556875 
L 410.804179 354.556875 
L 410.804179 332.047558 
L 406.996914 332.047558 
z
" style="fill:#55638a;"/>
   </g>
   <g id="patch_31">
    <path clip-path="url(#p11235335b3)" d="M 417.874813 354.556875 
L 421.682078 354.556875 
L 421.682078 293.78172 
L 417.874813 293.78172 
z
" style="fill:#55638a;"/>
   </g>
   <g id="patch_32">
    <path clip-path="url(#p11235335b3)" d="M 428.752713 354.556875 
L 432.559978 354.556875 
L 432.559978 311.789173 
L 428.752713 311.789173 
z
" style="fill:#55638a;"/>
   </g>
   <g id="patch_33">
    <path clip-path="url(#p11235335b3)" d="M 439.630613 354.556875 
L 443.437878 354.556875 
L 443.437878 302.785446 
L 439.630613 302.785446 
z
" style="fill:#55638a;"/>
   </g>
   <g id="patch_34">
    <path clip-path="url(#p11235335b3)" d="M 450.508513 354.556875 
L 454.315778 354.556875 
L 454.315778 302.785446 
L 450.508513 302.785446 
z
" style="fill:#55638a;"/>
   </g>
   <g id="patch_35">
    <path clip-path="url(#p11235335b3)" d="M 461.386413 354.556875 
L 465.193678 354.556875 
L 465.193678 273.523335 
L 461.386413 273.523335 
z
" style="fill:#55638a;"/>
   </g>
   <g id="patch_36">
    <path clip-path="url(#p11235335b3)" d="M 472.264312 354.556875 
L 476.071577 354.556875 
L 476.071577 275.774266 
L 472.264312 275.774266 
z
" style="fill:#55638a;"/>
   </g>
   <g id="patch_37">
    <path clip-path="url(#p11235335b3)" d="M 483.142212 354.556875 
L 486.949477 354.556875 
L 486.949477 273.523335 
L 483.142212 273.523335 
z
" style="fill:#55638a;"/>
   </g>
   <g id="patch_38">
    <path clip-path="url(#p11235335b3)" d="M 494.020112 354.556875 
L 497.827377 354.556875 
L 497.827377 278.025198 
L 494.020112 278.025198 
z
" style="fill:#55638a;"/>
   </g>
   <g id="patch_39">
    <path clip-path="url(#p11235335b3)" d="M 504.898012 354.556875 
L 508.705277 354.556875 
L 508.705277 280.27613 
L 504.898012 280.27613 
z
" style="fill:#55638a;"/>
   </g>
   <g id="patch_40">
    <path clip-path="url(#p11235335b3)" d="M 515.775912 354.556875 
L 519.583176 354.556875 
L 519.583176 233.006564 
L 515.775912 233.006564 
z
" style="fill:#55638a;"/>
   </g>
   <g id="patch_41">
    <path clip-path="url(#p11235335b3)" d="M 526.653811 354.556875 
L 530.461076 354.556875 
L 530.461076 199.242589 
L 526.653811 199.242589 
z
" style="fill:#55638a;"/>
   </g>
   <g id="patch_42">
    <path clip-path="url(#p11235335b3)" d="M 537.531711 354.556875 
L 541.338976 354.556875 
L 541.338976 201.493521 
L 537.531711 201.493521 
z
" style="fill:#55638a;"/>
   </g>
   <g id="patch_43">
    <path clip-path="url(#p11235335b3)" d="M 548.409611 354.556875 
L 552.216876 354.556875 
L 552.216876 183.486068 
L 548.409611 183.486068 
z
" style="fill:#55638a;"/>
   </g>
   <g id="patch_44">
    <path clip-path="url(#p11235335b3)" d="M 559.287511 354.556875 
L 563.094776 354.556875 
L 563.094776 160.976751 
L 559.287511 160.976751 
z
" style="fill:#55638a;"/>
   </g>
   <g id="patch_45">
    <path clip-path="url(#p11235335b3)" d="M 570.165411 354.556875 
L 573.972675 354.556875 
L 573.972675 124.961844 
L 570.165411 124.961844 
z
" style="fill:#55638a;"/>
   </g>
   <g id="patch_46">
    <path clip-path="url(#p11235335b3)" d="M 581.04331 354.556875 
L 584.850575 354.556875 
L 584.850575 140.718366 
L 581.04331 140.718366 
z
" style="fill:#55638a;"/>
   </g>
   <g id="patch_47">
    <path clip-path="url(#p11235335b3)" d="M 591.92121 354.556875 
L 595.728475 354.556875 
L 595.728475 88.946937 
L 591.92121 88.946937 
z
" style="fill:#55638a;"/>
   </g>
   <g id="patch_48">
    <path clip-path="url(#p11235335b3)" d="M 602.79911 354.556875 
L 606.606375 354.556875 
L 606.606375 115.958117 
L 602.79911 115.958117 
z
" style="fill:#55638a;"/>
   </g>
   <g id="patch_49">
    <path clip-path="url(#p11235335b3)" d="M 613.67701 354.556875 
L 617.484275 354.556875 
L 617.484275 97.950664 
L 613.67701 97.950664 
z
" style="fill:#55638a;"/>
   </g>
   <g id="patch_50">
    <path clip-path="url(#p11235335b3)" d="M 624.55491 354.556875 
L 628.362174 354.556875 
L 628.362174 127.212776 
L 624.55491 127.212776 
z
" style="fill:#55638a;"/>
   </g>
   <g id="patch_51">
    <path clip-path="url(#p11235335b3)" d="M 635.432809 354.556875 
L 639.240074 354.556875 
L 639.240074 154.223956 
L 635.432809 154.223956 
z
" style="fill:#55638a;"/>
   </g>
   <g id="patch_52">
    <path clip-path="url(#p11235335b3)" d="M 646.310709 354.556875 
L 650.117974 354.556875 
L 650.117974 163.227682 
L 646.310709 163.227682 
z
" style="fill:#55638a;"/>
   </g>
   <g id="patch_53">
    <path clip-path="url(#p11235335b3)" d="M 657.188609 354.556875 
L 660.995874 354.556875 
L 660.995874 100.201595 
L 657.188609 100.201595 
z
" style="fill:#55638a;"/>
   </g>
   <g id="patch_54">
    <path clip-path="url(#p11235335b3)" d="M 668.066509 354.556875 
L 671.873774 354.556875 
L 671.873774 230.755633 
L 668.066509 230.755633 
z
" style="fill:#55638a;"/>
   </g>
   <g id="patch_55">
    <path clip-path="url(#p11235335b3)" d="M 678.944409 354.556875 
L 682.751673 354.556875 
L 682.751673 251.014018 
L 678.944409 251.014018 
z
" style="fill:#55638a;"/>
   </g>
   <g id="patch_56">
    <path clip-path="url(#p11235335b3)" d="M 689.822308 354.556875 
L 693.629573 354.556875 
L 693.629573 271.272403 
L 689.822308 271.272403 
z
" style="fill:#55638a;"/>
   </g>
   <g id="patch_57">
    <path clip-path="url(#p11235335b3)" d="M 700.700208 354.556875 
L 704.507473 354.556875 
L 704.507473 287.028925 
L 700.700208 287.028925 
z
" style="fill:#55638a;"/>
   </g>
   <g id="patch_58">
    <path clip-path="url(#p11235335b3)" d="M 711.578108 354.556875 
L 715.385373 354.556875 
L 715.385373 278.025198 
L 711.578108 278.025198 
z
" style="fill:#55638a;"/>
   </g>
   <g id="patch_59">
    <path clip-path="url(#p11235335b3)" d="M 722.456008 354.556875 
L 726.263273 354.556875 
L 726.263273 316.291036 
L 722.456008 316.291036 
z
" style="fill:#55638a;"/>
   </g>
   <g id="patch_60">
    <path clip-path="url(#p11235335b3)" d="M 733.333908 354.556875 
L 737.141172 354.556875 
L 737.141172 327.545695 
L 733.333908 327.545695 
z
" style="fill:#55638a;"/>
   </g>
   <g id="patch_61">
    <path clip-path="url(#p11235335b3)" d="M 744.211807 354.556875 
L 748.019072 354.556875 
L 748.019072 338.800353 
L 744.211807 338.800353 
z
" style="fill:#55638a;"/>
   </g>
   <g id="patch_62">
    <path clip-path="url(#p11235335b3)" d="M 755.089707 354.556875 
L 758.896972 354.556875 
L 758.896972 336.549422 
L 755.089707 336.549422 
z
" style="fill:#55638a;"/>
   </g>
   <g id="patch_63">
    <path clip-path="url(#p11235335b3)" d="M 765.967607 354.556875 
L 769.774872 354.556875 
L 769.774872 334.29849 
L 765.967607 334.29849 
z
" style="fill:#55638a;"/>
   </g>
   <g id="patch_64">
    <path clip-path="url(#p11235335b3)" d="M 776.845507 354.556875 
L 780.652772 354.556875 
L 780.652772 336.549422 
L 776.845507 336.549422 
z
" style="fill:#55638a;"/>
   </g>
   <g id="patch_65">
    <path clip-path="url(#p11235335b3)" d="M 787.723407 354.556875 
L 791.530671 354.556875 
L 791.530671 347.80408 
L 787.723407 347.80408 
z
" style="fill:#55638a;"/>
   </g>
   <g id="patch_66">
    <path clip-path="url(#p11235335b3)" d="M 798.601306 354.556875 
L 802.408571 354.556875 
L 802.408571 354.556875 
L 798.601306 354.556875 
z
" style="fill:#55638a;"/>
   </g>
   <g id="patch_67">
    <path clip-path="url(#p11235335b3)" d="M 809.479206 354.556875 
L 813.286471 354.556875 
L 813.286471 352.305943 
L 809.479206 352.305943 
z
" style="fill:#55638a;"/>
   </g>
   <g id="patch_68">
    <path clip-path="url(#p11235335b3)" d="M 820.357106 354.556875 
L 824.164371 354.556875 
L 824.164371 354.556875 
L 820.357106 354.556875 
z
" style="fill:#55638a;"/>
   </g>
   <g id="patch_69">
    <path clip-path="url(#p11235335b3)" d="M 831.235006 354.556875 
L 835.042271 354.556875 
L 835.042271 354.556875 
L 831.235006 354.556875 
z
" style="fill:#55638a;"/>
   </g>
   <g id="patch_70">
    <path clip-path="url(#p11235335b3)" d="M 842.112906 354.556875 
L 845.92017 354.556875 
L 845.92017 352.305943 
L 842.112906 352.305943 
z
" style="fill:#55638a;"/>
   </g>
   <g id="patch_71">
    <path clip-path="url(#p11235335b3)" d="M 85.01108 354.556875 
L 88.818344 354.556875 
L 88.818344 352.305943 
L 85.01108 352.305943 
z
" style="fill:#9e1030;"/>
   </g>
   <g id="patch_72">
    <path clip-path="url(#p11235335b3)" d="M 95.888979 354.556875 
L 99.696244 354.556875 
L 99.696244 352.305943 
L 95.888979 352.305943 
z
" style="fill:#9e1030;"/>
   </g>
   <g id="patch_73">
    <path clip-path="url(#p11235335b3)" d="M 106.766879 354.556875 
L 110.574144 354.556875 
L 110.574144 354.556875 
L 106.766879 354.556875 
z
" style="fill:#9e1030;"/>
   </g>
   <g id="patch_74">
    <path clip-path="url(#p11235335b3)" d="M 117.644779 354.556875 
L 121.452044 354.556875 
L 121.452044 352.305943 
L 117.644779 352.305943 
z
" style="fill:#9e1030;"/>
   </g>
   <g id="patch_75">
    <path clip-path="url(#p11235335b3)" d="M 128.522679 354.556875 
L 132.329944 354.556875 
L 132.329944 354.556875 
L 128.522679 354.556875 
z
" style="fill:#9e1030;"/>
   </g>
   <g id="patch_76">
    <path clip-path="url(#p11235335b3)" d="M 139.400579 354.556875 
L 143.207843 354.556875 
L 143.207843 352.305943 
L 139.400579 352.305943 
z
" style="fill:#9e1030;"/>
   </g>
   <g id="patch_77">
    <path clip-path="url(#p11235335b3)" d="M 150.278478 354.556875 
L 154.085743 354.556875 
L 154.085743 350.055012 
L 150.278478 350.055012 
z
" style="fill:#9e1030;"/>
   </g>
   <g id="patch_78">
    <path clip-path="url(#p11235335b3)" d="M 161.156378 354.556875 
L 164.963643 354.556875 
L 164.963643 354.556875 
L 161.156378 354.556875 
z
" style="fill:#9e1030;"/>
   </g>
   <g id="patch_79">
    <path clip-path="url(#p11235335b3)" d="M 172.034278 354.556875 
L 175.841543 354.556875 
L 175.841543 352.305943 
L 172.034278 352.305943 
z
" style="fill:#9e1030;"/>
   </g>
   <g id="patch_80">
    <path clip-path="url(#p11235335b3)" d="M 182.912178 354.556875 
L 186.719443 354.556875 
L 186.719443 352.305943 
L 182.912178 352.305943 
z
" style="fill:#9e1030;"/>
   </g>
   <g id="patch_81">
    <path clip-path="url(#p11235335b3)" d="M 193.790078 354.556875 
L 197.597342 354.556875 
L 197.597342 352.305943 
L 193.790078 352.305943 
z
" style="fill:#9e1030;"/>
   </g>
   <g id="patch_82">
    <path clip-path="url(#p11235335b3)" d="M 204.667977 354.556875 
L 208.475242 354.556875 
L 208.475242 354.556875 
L 204.667977 354.556875 
z
" style="fill:#9e1030;"/>
   </g>
   <g id="patch_83">
    <path clip-path="url(#p11235335b3)" d="M 215.545877 354.556875 
L 219.353142 354.556875 
L 219.353142 352.305943 
L 215.545877 352.305943 
z
" style="fill:#9e1030;"/>
   </g>
   <g id="patch_84">
    <path clip-path="url(#p11235335b3)" d="M 226.423777 354.556875 
L 230.231042 354.556875 
L 230.231042 350.055012 
L 226.423777 350.055012 
z
" style="fill:#9e1030;"/>
   </g>
   <g id="patch_85">
    <path clip-path="url(#p11235335b3)" d="M 237.301677 354.556875 
L 241.108942 354.556875 
L 241.108942 347.80408 
L 237.301677 347.80408 
z
" style="fill:#9e1030;"/>
   </g>
   <g id="patch_86">
    <path clip-path="url(#p11235335b3)" d="M 248.179577 354.556875 
L 251.986841 354.556875 
L 251.986841 350.055012 
L 248.179577 350.055012 
z
" style="fill:#9e1030;"/>
   </g>
   <g id="patch_87">
    <path clip-path="url(#p11235335b3)" d="M 259.057476 354.556875 
L 262.864741 354.556875 
L 262.864741 350.055012 
L 259.057476 350.055012 
z
" style="fill:#9e1030;"/>
   </g>
   <g id="patch_88">
    <path clip-path="url(#p11235335b3)" d="M 269.935376 354.556875 
L 273.742641 354.556875 
L 273.742641 354.556875 
L 269.935376 354.556875 
z
" style="fill:#9e1030;"/>
   </g>
   <g id="patch_89">
    <path clip-path="url(#p11235335b3)" d="M 280.813276 354.556875 
L 284.620541 354.556875 
L 284.620541 345.553148 
L 280.813276 345.553148 
z
" style="fill:#9e1030;"/>
   </g>
   <g id="patch_90">
    <path clip-path="url(#p11235335b3)" d="M 291.691176 354.556875 
L 295.498441 354.556875 
L 295.498441 345.553148 
L 291.691176 345.553148 
z
" style="fill:#9e1030;"/>
   </g>
   <g id="patch_91">
    <path clip-path="url(#p11235335b3)" d="M 302.569076 354.556875 
L 306.37634 354.556875 
L 306.37634 354.556875 
L 302.569076 354.556875 
z
" style="fill:#9e1030;"/>
   </g>
   <g id="patch_92">
    <path clip-path="url(#p11235335b3)" d="M 313.446975 354.556875 
L 317.25424 354.556875 
L 317.25424 347.80408 
L 313.446975 347.80408 
z
" style="fill:#9e1030;"/>
   </g>
   <g id="patch_93">
    <path clip-path="url(#p11235335b3)" d="M 324.324875 354.556875 
L 328.13214 354.556875 
L 328.13214 354.556875 
L 324.324875 354.556875 
z
" style="fill:#9e1030;"/>
   </g>
   <g id="patch_94">
    <path clip-path="url(#p11235335b3)" d="M 335.202775 354.556875 
L 339.01004 354.556875 
L 339.01004 347.80408 
L 335.202775 347.80408 
z
" style="fill:#9e1030;"/>
   </g>
   <g id="patch_95">
    <path clip-path="url(#p11235335b3)" d="M 346.080675 354.556875 
L 349.88794 354.556875 
L 349.88794 343.302217 
L 346.080675 343.302217 
z
" style="fill:#9e1030;"/>
   </g>
   <g id="patch_96">
    <path clip-path="url(#p11235335b3)" d="M 356.958575 354.556875 
L 360.765839 354.556875 
L 360.765839 345.553148 
L 356.958575 345.553148 
z
" style="fill:#9e1030;"/>
   </g>
   <g id="patch_97">
    <path clip-path="url(#p11235335b3)" d="M 367.836474 354.556875 
L 371.643739 354.556875 
L 371.643739 325.294763 
L 367.836474 325.294763 
z
" style="fill:#9e1030;"/>
   </g>
   <g id="patch_98">
    <path clip-path="url(#p11235335b3)" d="M 378.714374 354.556875 
L 382.521639 354.556875 
L 382.521639 338.800353 
L 378.714374 338.800353 
z
" style="fill:#9e1030;"/>
   </g>
   <g id="patch_99">
    <path clip-path="url(#p11235335b3)" d="M 389.592274 354.556875 
L 393.399539 354.556875 
L 393.399539 334.29849 
L 389.592274 334.29849 
z
" style="fill:#9e1030;"/>
   </g>
   <g id="patch_100">
    <path clip-path="url(#p11235335b3)" d="M 400.470174 354.556875 
L 404.277439 354.556875 
L 404.277439 345.553148 
L 400.470174 345.553148 
z
" style="fill:#9e1030;"/>
   </g>
   <g id="patch_101">
    <path clip-path="url(#p11235335b3)" d="M 411.348074 354.556875 
L 415.155338 354.556875 
L 415.155338 343.302217 
L 411.348074 343.302217 
z
" style="fill:#9e1030;"/>
   </g>
   <g id="patch_102">
    <path clip-path="url(#p11235335b3)" d="M 422.225973 354.556875 
L 426.033238 354.556875 
L 426.033238 316.291036 
L 422.225973 316.291036 
z
" style="fill:#9e1030;"/>
   </g>
   <g id="patch_103">
    <path clip-path="url(#p11235335b3)" d="M 433.103873 354.556875 
L 436.911138 354.556875 
L 436.911138 329.796627 
L 433.103873 329.796627 
z
" style="fill:#9e1030;"/>
   </g>
   <g id="patch_104">
    <path clip-path="url(#p11235335b3)" d="M 443.981773 354.556875 
L 447.789038 354.556875 
L 447.789038 327.545695 
L 443.981773 327.545695 
z
" style="fill:#9e1030;"/>
   </g>
   <g id="patch_105">
    <path clip-path="url(#p11235335b3)" d="M 454.859673 354.556875 
L 458.666938 354.556875 
L 458.666938 327.545695 
L 454.859673 327.545695 
z
" style="fill:#9e1030;"/>
   </g>
   <g id="patch_106">
    <path clip-path="url(#p11235335b3)" d="M 465.737572 354.556875 
L 469.544837 354.556875 
L 469.544837 287.028925 
L 465.737572 287.028925 
z
" style="fill:#9e1030;"/>
   </g>
   <g id="patch_107">
    <path clip-path="url(#p11235335b3)" d="M 476.615472 354.556875 
L 480.422737 354.556875 
L 480.422737 300.534515 
L 476.615472 300.534515 
z
" style="fill:#9e1030;"/>
   </g>
   <g id="patch_108">
    <path clip-path="url(#p11235335b3)" d="M 487.493372 354.556875 
L 491.300637 354.556875 
L 491.300637 316.291036 
L 487.493372 316.291036 
z
" style="fill:#9e1030;"/>
   </g>
   <g id="patch_109">
    <path clip-path="url(#p11235335b3)" d="M 498.371272 354.556875 
L 502.178537 354.556875 
L 502.178537 316.291036 
L 498.371272 316.291036 
z
" style="fill:#9e1030;"/>
   </g>
   <g id="patch_110">
    <path clip-path="url(#p11235335b3)" d="M 509.249172 354.556875 
L 513.056437 354.556875 
L 513.056437 311.789173 
L 509.249172 311.789173 
z
" style="fill:#9e1030;"/>
   </g>
   <g id="patch_111">
    <path clip-path="url(#p11235335b3)" d="M 520.127071 354.556875 
L 523.934336 354.556875 
L 523.934336 262.268676 
L 520.127071 262.268676 
z
" style="fill:#9e1030;"/>
   </g>
   <g id="patch_112">
    <path clip-path="url(#p11235335b3)" d="M 531.004971 354.556875 
L 534.812236 354.556875 
L 534.812236 293.78172 
L 531.004971 293.78172 
z
" style="fill:#9e1030;"/>
   </g>
   <g id="patch_113">
    <path clip-path="url(#p11235335b3)" d="M 541.882871 354.556875 
L 545.690136 354.556875 
L 545.690136 257.766813 
L 541.882871 257.766813 
z
" style="fill:#9e1030;"/>
   </g>
   <g id="patch_114">
    <path clip-path="url(#p11235335b3)" d="M 552.760771 354.556875 
L 556.568036 354.556875 
L 556.568036 251.014018 
L 552.760771 251.014018 
z
" style="fill:#9e1030;"/>
   </g>
   <g id="patch_115">
    <path clip-path="url(#p11235335b3)" d="M 563.638671 354.556875 
L 567.445936 354.556875 
L 567.445936 230.755633 
L 563.638671 230.755633 
z
" style="fill:#9e1030;"/>
   </g>
   <g id="patch_116">
    <path clip-path="url(#p11235335b3)" d="M 574.51657 354.556875 
L 578.323835 354.556875 
L 578.323835 176.733273 
L 574.51657 176.733273 
z
" style="fill:#9e1030;"/>
   </g>
   <g id="patch_117">
    <path clip-path="url(#p11235335b3)" d="M 585.39447 354.556875 
L 589.201735 354.556875 
L 589.201735 181.235136 
L 585.39447 181.235136 
z
" style="fill:#9e1030;"/>
   </g>
   <g id="patch_118">
    <path clip-path="url(#p11235335b3)" d="M 596.27237 354.556875 
L 600.079635 354.556875 
L 600.079635 199.242589 
L 596.27237 199.242589 
z
" style="fill:#9e1030;"/>
   </g>
   <g id="patch_119">
    <path clip-path="url(#p11235335b3)" d="M 607.15027 354.556875 
L 610.957535 354.556875 
L 610.957535 151.973024 
L 607.15027 151.973024 
z
" style="fill:#9e1030;"/>
   </g>
   <g id="patch_120">
    <path clip-path="url(#p11235335b3)" d="M 618.02817 354.556875 
L 621.835435 354.556875 
L 621.835435 210.497248 
L 618.02817 210.497248 
z
" style="fill:#9e1030;"/>
   </g>
   <g id="patch_121">
    <path clip-path="url(#p11235335b3)" d="M 628.906069 354.556875 
L 632.713334 354.556875 
L 632.713334 210.497248 
L 628.906069 210.497248 
z
" style="fill:#9e1030;"/>
   </g>
   <g id="patch_122">
    <path clip-path="url(#p11235335b3)" d="M 639.783969 354.556875 
L 643.591234 354.556875 
L 643.591234 214.999111 
L 639.783969 214.999111 
z
" style="fill:#9e1030;"/>
   </g>
   <g id="patch_123">
    <path clip-path="url(#p11235335b3)" d="M 650.661869 354.556875 
L 654.469134 354.556875 
L 654.469134 233.006564 
L 650.661869 233.006564 
z
" style="fill:#9e1030;"/>
   </g>
   <g id="patch_124">
    <path clip-path="url(#p11235335b3)" d="M 661.539769 354.556875 
L 665.347034 354.556875 
L 665.347034 230.755633 
L 661.539769 230.755633 
z
" style="fill:#9e1030;"/>
   </g>
   <g id="patch_125">
    <path clip-path="url(#p11235335b3)" d="M 672.417669 354.556875 
L 676.224934 354.556875 
L 676.224934 278.025198 
L 672.417669 278.025198 
z
" style="fill:#9e1030;"/>
   </g>
   <g id="patch_126">
    <path clip-path="url(#p11235335b3)" d="M 683.295568 354.556875 
L 687.102833 354.556875 
L 687.102833 275.774266 
L 683.295568 275.774266 
z
" style="fill:#9e1030;"/>
   </g>
   <g id="patch_127">
    <path clip-path="url(#p11235335b3)" d="M 694.173468 354.556875 
L 697.980733 354.556875 
L 697.980733 314.040105 
L 694.173468 314.040105 
z
" style="fill:#9e1030;"/>
   </g>
   <g id="patch_128">
    <path clip-path="url(#p11235335b3)" d="M 705.051368 354.556875 
L 708.858633 354.556875 
L 708.858633 311.789173 
L 705.051368 311.789173 
z
" style="fill:#9e1030;"/>
   </g>
   <g id="patch_129">
    <path clip-path="url(#p11235335b3)" d="M 715.929268 354.556875 
L 719.736533 354.556875 
L 719.736533 323.043832 
L 715.929268 323.043832 
z
" style="fill:#9e1030;"/>
   </g>
   <g id="patch_130">
    <path clip-path="url(#p11235335b3)" d="M 726.807168 354.556875 
L 730.614433 354.556875 
L 730.614433 325.294763 
L 726.807168 325.294763 
z
" style="fill:#9e1030;"/>
   </g>
   <g id="patch_131">
    <path clip-path="url(#p11235335b3)" d="M 737.685067 354.556875 
L 741.492332 354.556875 
L 741.492332 336.549422 
L 737.685067 336.549422 
z
" style="fill:#9e1030;"/>
   </g>
   <g id="patch_132">
    <path clip-path="url(#p11235335b3)" d="M 748.562967 354.556875 
L 752.370232 354.556875 
L 752.370232 336.549422 
L 748.562967 336.549422 
z
" style="fill:#9e1030;"/>
   </g>
   <g id="patch_133">
    <path clip-path="url(#p11235335b3)" d="M 759.440867 354.556875 
L 763.248132 354.556875 
L 763.248132 334.29849 
L 759.440867 334.29849 
z
" style="fill:#9e1030;"/>
   </g>
   <g id="patch_134">
    <path clip-path="url(#p11235335b3)" d="M 770.318767 354.556875 
L 774.126032 354.556875 
L 774.126032 343.302217 
L 770.318767 343.302217 
z
" style="fill:#9e1030;"/>
   </g>
   <g id="patch_135">
    <path clip-path="url(#p11235335b3)" d="M 781.196667 354.556875 
L 785.003932 354.556875 
L 785.003932 345.553148 
L 781.196667 345.553148 
z
" style="fill:#9e1030;"/>
   </g>
   <g id="patch_136">
    <path clip-path="url(#p11235335b3)" d="M 792.074566 354.556875 
L 795.881831 354.556875 
L 795.881831 354.556875 
L 792.074566 354.556875 
z
" style="fill:#9e1030;"/>
   </g>
   <g id="patch_137">
    <path clip-path="url(#p11235335b3)" d="M 802.952466 354.556875 
L 806.759731 354.556875 
L 806.759731 354.556875 
L 802.952466 354.556875 
z
" style="fill:#9e1030;"/>
   </g>
   <g id="patch_138">
    <path clip-path="url(#p11235335b3)" d="M 813.830366 354.556875 
L 817.637631 354.556875 
L 817.637631 347.80408 
L 813.830366 347.80408 
z
" style="fill:#9e1030;"/>
   </g>
   <g id="matplotlib.axis_1">
    <g id="xtick_1">
     <g id="line2d_1">
      <defs>
       <path d="M 0 0 
L 0 3.5 
" id="ma774f957dd" style="stroke:#000000;stroke-width:0.8;"/>
      </defs>
      <g>
       <use style="stroke:#000000;stroke-width:0.8;" x="104.319352" xlink:href="#ma774f957dd" y="354.556875"/>
      </g>
     </g>
     <g id="text_1">
      <!-- 2 -->
      <defs>
       <path d="M 19.1875 8.296875 
L 53.609375 8.296875 
L 53.609375 0 
L 7.328125 0 
L 7.328125 8.296875 
Q 12.9375 14.109375 22.625 23.890625 
Q 32.328125 33.6875 34.8125 36.53125 
Q 39.546875 41.84375 41.421875 45.53125 
Q 43.3125 49.21875 43.3125 52.78125 
Q 43.3125 58.59375 39.234375 62.25 
Q 35.15625 65.921875 28.609375 65.921875 
Q 23.96875 65.921875 18.8125 64.3125 
Q 13.671875 62.703125 7.8125 59.421875 
L 7.8125 69.390625 
Q 13.765625 71.78125 18.9375 73 
Q 24.125 74.21875 28.421875 74.21875 
Q 39.75 74.21875 46.484375 68.546875 
Q 53.21875 62.890625 53.21875 53.421875 
Q 53.21875 48.921875 51.53125 44.890625 
Q 49.859375 40.875 45.40625 35.40625 
Q 44.1875 33.984375 37.640625 27.21875 
Q 31.109375 20.453125 19.1875 8.296875 
z
" id="DejaVuSans-32"/>
      </defs>
      <g transform="translate(101.138102 369.155312)scale(0.1 -0.1)">
       <use xlink:href="#DejaVuSans-32"/>
      </g>
     </g>
    </g>
    <g id="xtick_2">
     <g id="line2d_2">
      <g>
       <use style="stroke:#000000;stroke-width:0.8;" x="213.09835" xlink:href="#ma774f957dd" y="354.556875"/>
      </g>
     </g>
     <g id="text_2">
      <!-- 3 -->
      <defs>
       <path d="M 40.578125 39.3125 
Q 47.65625 37.796875 51.625 33 
Q 55.609375 28.21875 55.609375 21.1875 
Q 55.609375 10.40625 48.1875 4.484375 
Q 40.765625 -1.421875 27.09375 -1.421875 
Q 22.515625 -1.421875 17.65625 -0.515625 
Q 12.796875 0.390625 7.625 2.203125 
L 7.625 11.71875 
Q 11.71875 9.328125 16.59375 8.109375 
Q 21.484375 6.890625 26.8125 6.890625 
Q 36.078125 6.890625 40.9375 10.546875 
Q 45.796875 14.203125 45.796875 21.1875 
Q 45.796875 27.640625 41.28125 31.265625 
Q 36.765625 34.90625 28.71875 34.90625 
L 20.21875 34.90625 
L 20.21875 43.015625 
L 29.109375 43.015625 
Q 36.375 43.015625 40.234375 45.921875 
Q 44.09375 48.828125 44.09375 54.296875 
Q 44.09375 59.90625 40.109375 62.90625 
Q 36.140625 65.921875 28.71875 65.921875 
Q 24.65625 65.921875 20.015625 65.03125 
Q 15.375 64.15625 9.8125 62.3125 
L 9.8125 71.09375 
Q 15.4375 72.65625 20.34375 73.4375 
Q 25.25 74.21875 29.59375 74.21875 
Q 40.828125 74.21875 47.359375 69.109375 
Q 53.90625 64.015625 53.90625 55.328125 
Q 53.90625 49.265625 50.4375 45.09375 
Q 46.96875 40.921875 40.578125 39.3125 
z
" id="DejaVuSans-33"/>
      </defs>
      <g transform="translate(209.9171 369.155312)scale(0.1 -0.1)">
       <use xlink:href="#DejaVuSans-33"/>
      </g>
     </g>
    </g>
    <g id="xtick_3">
     <g id="line2d_3">
      <g>
       <use style="stroke:#000000;stroke-width:0.8;" x="321.877348" xlink:href="#ma774f957dd" y="354.556875"/>
      </g>
     </g>
     <g id="text_3">
      <!-- 4 -->
      <defs>
       <path d="M 37.796875 64.3125 
L 12.890625 25.390625 
L 37.796875 25.390625 
z
M 35.203125 72.90625 
L 47.609375 72.90625 
L 47.609375 25.390625 
L 58.015625 25.390625 
L 58.015625 17.1875 
L 47.609375 17.1875 
L 47.609375 0 
L 37.796875 0 
L 37.796875 17.1875 
L 4.890625 17.1875 
L 4.890625 26.703125 
z
" id="DejaVuSans-34"/>
      </defs>
      <g transform="translate(318.696098 369.155312)scale(0.1 -0.1)">
       <use xlink:href="#DejaVuSans-34"/>
      </g>
     </g>
    </g>
    <g id="xtick_4">
     <g id="line2d_4">
      <g>
       <use style="stroke:#000000;stroke-width:0.8;" x="430.656346" xlink:href="#ma774f957dd" y="354.556875"/>
      </g>
     </g>
     <g id="text_4">
      <!-- 5 -->
      <defs>
       <path d="M 10.796875 72.90625 
L 49.515625 72.90625 
L 49.515625 64.59375 
L 19.828125 64.59375 
L 19.828125 46.734375 
Q 21.96875 47.46875 24.109375 47.828125 
Q 26.265625 48.1875 28.421875 48.1875 
Q 40.625 48.1875 47.75 41.5 
Q 54.890625 34.8125 54.890625 23.390625 
Q 54.890625 11.625 47.5625 5.09375 
Q 40.234375 -1.421875 26.90625 -1.421875 
Q 22.3125 -1.421875 17.546875 -0.640625 
Q 12.796875 0.140625 7.71875 1.703125 
L 7.71875 11.625 
Q 12.109375 9.234375 16.796875 8.0625 
Q 21.484375 6.890625 26.703125 6.890625 
Q 35.15625 6.890625 40.078125 11.328125 
Q 45.015625 15.765625 45.015625 23.390625 
Q 45.015625 31 40.078125 35.4375 
Q 35.15625 39.890625 26.703125 39.890625 
Q 22.75 39.890625 18.8125 39.015625 
Q 14.890625 38.140625 10.796875 36.28125 
z
" id="DejaVuSans-35"/>
      </defs>
      <g transform="translate(427.475096 369.155312)scale(0.1 -0.1)">
       <use xlink:href="#DejaVuSans-35"/>
      </g>
     </g>
    </g>
    <g id="xtick_5">
     <g id="line2d_5">
      <g>
       <use style="stroke:#000000;stroke-width:0.8;" x="539.435344" xlink:href="#ma774f957dd" y="354.556875"/>
      </g>
     </g>
     <g id="text_5">
      <!-- 6 -->
      <defs>
       <path d="M 33.015625 40.375 
Q 26.375 40.375 22.484375 35.828125 
Q 18.609375 31.296875 18.609375 23.390625 
Q 18.609375 15.53125 22.484375 10.953125 
Q 26.375 6.390625 33.015625 6.390625 
Q 39.65625 6.390625 43.53125 10.953125 
Q 47.40625 15.53125 47.40625 23.390625 
Q 47.40625 31.296875 43.53125 35.828125 
Q 39.65625 40.375 33.015625 40.375 
z
M 52.59375 71.296875 
L 52.59375 62.3125 
Q 48.875 64.0625 45.09375 64.984375 
Q 41.3125 65.921875 37.59375 65.921875 
Q 27.828125 65.921875 22.671875 59.328125 
Q 17.53125 52.734375 16.796875 39.40625 
Q 19.671875 43.65625 24.015625 45.921875 
Q 28.375 48.1875 33.59375 48.1875 
Q 44.578125 48.1875 50.953125 41.515625 
Q 57.328125 34.859375 57.328125 23.390625 
Q 57.328125 12.15625 50.6875 5.359375 
Q 44.046875 -1.421875 33.015625 -1.421875 
Q 20.359375 -1.421875 13.671875 8.265625 
Q 6.984375 17.96875 6.984375 36.375 
Q 6.984375 53.65625 15.1875 63.9375 
Q 23.390625 74.21875 37.203125 74.21875 
Q 40.921875 74.21875 44.703125 73.484375 
Q 48.484375 72.75 52.59375 71.296875 
z
" id="DejaVuSans-36"/>
      </defs>
      <g transform="translate(536.254094 369.155312)scale(0.1 -0.1)">
       <use xlink:href="#DejaVuSans-36"/>
      </g>
     </g>
    </g>
    <g id="xtick_6">
     <g id="line2d_6">
      <g>
       <use style="stroke:#000000;stroke-width:0.8;" x="648.214342" xlink:href="#ma774f957dd" y="354.556875"/>
      </g>
     </g>
     <g id="text_6">
      <!-- 7 -->
      <defs>
       <path d="M 8.203125 72.90625 
L 55.078125 72.90625 
L 55.078125 68.703125 
L 28.609375 0 
L 18.3125 0 
L 43.21875 64.59375 
L 8.203125 64.59375 
z
" id="DejaVuSans-37"/>
      </defs>
      <g transform="translate(645.033092 369.155312)scale(0.1 -0.1)">
       <use xlink:href="#DejaVuSans-37"/>
      </g>
     </g>
    </g>
    <g id="xtick_7">
     <g id="line2d_7">
      <g>
       <use style="stroke:#000000;stroke-width:0.8;" x="756.99334" xlink:href="#ma774f957dd" y="354.556875"/>
      </g>
     </g>
     <g id="text_7">
      <!-- 8 -->
      <defs>
       <path d="M 31.78125 34.625 
Q 24.75 34.625 20.71875 30.859375 
Q 16.703125 27.09375 16.703125 20.515625 
Q 16.703125 13.921875 20.71875 10.15625 
Q 24.75 6.390625 31.78125 6.390625 
Q 38.8125 6.390625 42.859375 10.171875 
Q 46.921875 13.96875 46.921875 20.515625 
Q 46.921875 27.09375 42.890625 30.859375 
Q 38.875 34.625 31.78125 34.625 
z
M 21.921875 38.8125 
Q 15.578125 40.375 12.03125 44.71875 
Q 8.5 49.078125 8.5 55.328125 
Q 8.5 64.0625 14.71875 69.140625 
Q 20.953125 74.21875 31.78125 74.21875 
Q 42.671875 74.21875 48.875 69.140625 
Q 55.078125 64.0625 55.078125 55.328125 
Q 55.078125 49.078125 51.53125 44.71875 
Q 48 40.375 41.703125 38.8125 
Q 48.828125 37.15625 52.796875 32.3125 
Q 56.78125 27.484375 56.78125 20.515625 
Q 56.78125 9.90625 50.3125 4.234375 
Q 43.84375 -1.421875 31.78125 -1.421875 
Q 19.734375 -1.421875 13.25 4.234375 
Q 6.78125 9.90625 6.78125 20.515625 
Q 6.78125 27.484375 10.78125 32.3125 
Q 14.796875 37.15625 21.921875 38.8125 
z
M 18.3125 54.390625 
Q 18.3125 48.734375 21.84375 45.5625 
Q 25.390625 42.390625 31.78125 42.390625 
Q 38.140625 42.390625 41.71875 45.5625 
Q 45.3125 48.734375 45.3125 54.390625 
Q 45.3125 60.0625 41.71875 63.234375 
Q 38.140625 66.40625 31.78125 66.40625 
Q 25.390625 66.40625 21.84375 63.234375 
Q 18.3125 60.0625 18.3125 54.390625 
z
" id="DejaVuSans-38"/>
      </defs>
      <g transform="translate(753.81209 369.155312)scale(0.1 -0.1)">
       <use xlink:href="#DejaVuSans-38"/>
      </g>
     </g>
    </g>
    <g id="xtick_8">
     <g id="line2d_8">
      <g>
       <use style="stroke:#000000;stroke-width:0.8;" x="865.772338" xlink:href="#ma774f957dd" y="354.556875"/>
      </g>
     </g>
     <g id="text_8">
      <!-- 9 -->
      <defs>
       <path d="M 10.984375 1.515625 
L 10.984375 10.5 
Q 14.703125 8.734375 18.5 7.8125 
Q 22.3125 6.890625 25.984375 6.890625 
Q 35.75 6.890625 40.890625 13.453125 
Q 46.046875 20.015625 46.78125 33.40625 
Q 43.953125 29.203125 39.59375 26.953125 
Q 35.25 24.703125 29.984375 24.703125 
Q 19.046875 24.703125 12.671875 31.3125 
Q 6.296875 37.9375 6.296875 49.421875 
Q 6.296875 60.640625 12.9375 67.421875 
Q 19.578125 74.21875 30.609375 74.21875 
Q 43.265625 74.21875 49.921875 64.515625 
Q 56.59375 54.828125 56.59375 36.375 
Q 56.59375 19.140625 48.40625 8.859375 
Q 40.234375 -1.421875 26.421875 -1.421875 
Q 22.703125 -1.421875 18.890625 -0.6875 
Q 15.09375 0.046875 10.984375 1.515625 
z
M 30.609375 32.421875 
Q 37.25 32.421875 41.125 36.953125 
Q 45.015625 41.5 45.015625 49.421875 
Q 45.015625 57.28125 41.125 61.84375 
Q 37.25 66.40625 30.609375 66.40625 
Q 23.96875 66.40625 20.09375 61.84375 
Q 16.21875 57.28125 16.21875 49.421875 
Q 16.21875 41.5 20.09375 36.953125 
Q 23.96875 32.421875 30.609375 32.421875 
z
" id="DejaVuSans-39"/>
      </defs>
      <g transform="translate(862.591088 369.155312)scale(0.1 -0.1)">
       <use xlink:href="#DejaVuSans-39"/>
      </g>
     </g>
    </g>
    <g id="text_9">
     <!-- Degrees -->
     <defs>
      <path d="M 19.671875 64.796875 
L 19.671875 8.109375 
L 31.59375 8.109375 
Q 46.6875 8.109375 53.6875 14.9375 
Q 60.6875 21.78125 60.6875 36.53125 
Q 60.6875 51.171875 53.6875 57.984375 
Q 46.6875 64.796875 31.59375 64.796875 
z
M 9.8125 72.90625 
L 30.078125 72.90625 
Q 51.265625 72.90625 61.171875 64.09375 
Q 71.09375 55.28125 71.09375 36.53125 
Q 71.09375 17.671875 61.125 8.828125 
Q 51.171875 0 30.078125 0 
L 9.8125 0 
z
" id="DejaVuSans-44"/>
      <path d="M 56.203125 29.59375 
L 56.203125 25.203125 
L 14.890625 25.203125 
Q 15.484375 15.921875 20.484375 11.0625 
Q 25.484375 6.203125 34.421875 6.203125 
Q 39.59375 6.203125 44.453125 7.46875 
Q 49.3125 8.734375 54.109375 11.28125 
L 54.109375 2.78125 
Q 49.265625 0.734375 44.1875 -0.34375 
Q 39.109375 -1.421875 33.890625 -1.421875 
Q 20.796875 -1.421875 13.15625 6.1875 
Q 5.515625 13.8125 5.515625 26.8125 
Q 5.515625 40.234375 12.765625 48.109375 
Q 20.015625 56 32.328125 56 
Q 43.359375 56 49.78125 48.890625 
Q 56.203125 41.796875 56.203125 29.59375 
z
M 47.21875 32.234375 
Q 47.125 39.59375 43.09375 43.984375 
Q 39.0625 48.390625 32.421875 48.390625 
Q 24.90625 48.390625 20.390625 44.140625 
Q 15.875 39.890625 15.1875 32.171875 
z
" id="DejaVuSans-65"/>
      <path d="M 45.40625 27.984375 
Q 45.40625 37.75 41.375 43.109375 
Q 37.359375 48.484375 30.078125 48.484375 
Q 22.859375 48.484375 18.828125 43.109375 
Q 14.796875 37.75 14.796875 27.984375 
Q 14.796875 18.265625 18.828125 12.890625 
Q 22.859375 7.515625 30.078125 7.515625 
Q 37.359375 7.515625 41.375 12.890625 
Q 45.40625 18.265625 45.40625 27.984375 
z
M 54.390625 6.78125 
Q 54.390625 -7.171875 48.1875 -13.984375 
Q 42 -20.796875 29.203125 -20.796875 
Q 24.46875 -20.796875 20.265625 -20.09375 
Q 16.0625 -19.390625 12.109375 -17.921875 
L 12.109375 -9.1875 
Q 16.0625 -11.328125 19.921875 -12.34375 
Q 23.78125 -13.375 27.78125 -13.375 
Q 36.625 -13.375 41.015625 -8.765625 
Q 45.40625 -4.15625 45.40625 5.171875 
L 45.40625 9.625 
Q 42.625 4.78125 38.28125 2.390625 
Q 33.9375 0 27.875 0 
Q 17.828125 0 11.671875 7.65625 
Q 5.515625 15.328125 5.515625 27.984375 
Q 5.515625 40.671875 11.671875 48.328125 
Q 17.828125 56 27.875 56 
Q 33.9375 56 38.28125 53.609375 
Q 42.625 51.21875 45.40625 46.390625 
L 45.40625 54.6875 
L 54.390625 54.6875 
z
" id="DejaVuSans-67"/>
      <path d="M 41.109375 46.296875 
Q 39.59375 47.171875 37.8125 47.578125 
Q 36.03125 48 33.890625 48 
Q 26.265625 48 22.1875 43.046875 
Q 18.109375 38.09375 18.109375 28.8125 
L 18.109375 0 
L 9.078125 0 
L 9.078125 54.6875 
L 18.109375 54.6875 
L 18.109375 46.1875 
Q 20.953125 51.171875 25.484375 53.578125 
Q 30.03125 56 36.53125 56 
Q 37.453125 56 38.578125 55.875 
Q 39.703125 55.765625 41.0625 55.515625 
z
" id="DejaVuSans-72"/>
      <path d="M 44.28125 53.078125 
L 44.28125 44.578125 
Q 40.484375 46.53125 36.375 47.5 
Q 32.28125 48.484375 27.875 48.484375 
Q 21.1875 48.484375 17.84375 46.4375 
Q 14.5 44.390625 14.5 40.28125 
Q 14.5 37.15625 16.890625 35.375 
Q 19.28125 33.59375 26.515625 31.984375 
L 29.59375 31.296875 
Q 39.15625 29.25 43.1875 25.515625 
Q 47.21875 21.78125 47.21875 15.09375 
Q 47.21875 7.46875 41.1875 3.015625 
Q 35.15625 -1.421875 24.609375 -1.421875 
Q 20.21875 -1.421875 15.453125 -0.5625 
Q 10.6875 0.296875 5.421875 2 
L 5.421875 11.28125 
Q 10.40625 8.6875 15.234375 7.390625 
Q 20.0625 6.109375 24.8125 6.109375 
Q 31.15625 6.109375 34.5625 8.28125 
Q 37.984375 10.453125 37.984375 14.40625 
Q 37.984375 18.0625 35.515625 20.015625 
Q 33.0625 21.96875 24.703125 23.78125 
L 21.578125 24.515625 
Q 13.234375 26.265625 9.515625 29.90625 
Q 5.8125 33.546875 5.8125 39.890625 
Q 5.8125 47.609375 11.28125 51.796875 
Q 16.75 56 26.8125 56 
Q 31.78125 56 36.171875 55.265625 
Q 40.578125 54.546875 44.28125 53.078125 
z
" id="DejaVuSans-73"/>
     </defs>
     <g transform="translate(444.553125 382.833437)scale(0.1 -0.1)">
      <use xlink:href="#DejaVuSans-44"/>
      <use x="77.001953" xlink:href="#DejaVuSans-65"/>
      <use x="138.525391" xlink:href="#DejaVuSans-67"/>
      <use x="202.001953" xlink:href="#DejaVuSans-72"/>
      <use x="243.083984" xlink:href="#DejaVuSans-65"/>
      <use x="304.607422" xlink:href="#DejaVuSans-65"/>
      <use x="366.130859" xlink:href="#DejaVuSans-73"/>
     </g>
    </g>
   </g>
   <g id="matplotlib.axis_2">
    <g id="ytick_1">
     <g id="line2d_9">
      <defs>
       <path d="M 0 0 
L -3.5 0 
" id="m5a0634b6d3" style="stroke:#000000;stroke-width:0.8;"/>
      </defs>
      <g>
       <use style="stroke:#000000;stroke-width:0.8;" x="46.965625" xlink:href="#m5a0634b6d3" y="354.556875"/>
      </g>
     </g>
     <g id="text_10">
      <!-- 0 -->
      <defs>
       <path d="M 31.78125 66.40625 
Q 24.171875 66.40625 20.328125 58.90625 
Q 16.5 51.421875 16.5 36.375 
Q 16.5 21.390625 20.328125 13.890625 
Q 24.171875 6.390625 31.78125 6.390625 
Q 39.453125 6.390625 43.28125 13.890625 
Q 47.125 21.390625 47.125 36.375 
Q 47.125 51.421875 43.28125 58.90625 
Q 39.453125 66.40625 31.78125 66.40625 
z
M 31.78125 74.21875 
Q 44.046875 74.21875 50.515625 64.515625 
Q 56.984375 54.828125 56.984375 36.375 
Q 56.984375 17.96875 50.515625 8.265625 
Q 44.046875 -1.421875 31.78125 -1.421875 
Q 19.53125 -1.421875 13.0625 8.265625 
Q 6.59375 17.96875 6.59375 36.375 
Q 6.59375 54.828125 13.0625 64.515625 
Q 19.53125 74.21875 31.78125 74.21875 
z
" id="DejaVuSans-30"/>
      </defs>
      <g transform="translate(33.603125 358.356094)scale(0.1 -0.1)">
       <use xlink:href="#DejaVuSans-30"/>
      </g>
     </g>
    </g>
    <g id="ytick_2">
     <g id="line2d_10">
      <g>
       <use style="stroke:#000000;stroke-width:0.8;" x="46.965625" xlink:href="#m5a0634b6d3" y="309.538241"/>
      </g>
     </g>
     <g id="text_11">
      <!-- 20 -->
      <g transform="translate(27.240625 313.33746)scale(0.1 -0.1)">
       <use xlink:href="#DejaVuSans-32"/>
       <use x="63.623047" xlink:href="#DejaVuSans-30"/>
      </g>
     </g>
    </g>
    <g id="ytick_3">
     <g id="line2d_11">
      <g>
       <use style="stroke:#000000;stroke-width:0.8;" x="46.965625" xlink:href="#m5a0634b6d3" y="264.519608"/>
      </g>
     </g>
     <g id="text_12">
      <!-- 40 -->
      <g transform="translate(27.240625 268.318827)scale(0.1 -0.1)">
       <use xlink:href="#DejaVuSans-34"/>
       <use x="63.623047" xlink:href="#DejaVuSans-30"/>
      </g>
     </g>
    </g>
    <g id="ytick_4">
     <g id="line2d_12">
      <g>
       <use style="stroke:#000000;stroke-width:0.8;" x="46.965625" xlink:href="#m5a0634b6d3" y="219.500974"/>
      </g>
     </g>
     <g id="text_13">
      <!-- 60 -->
      <g transform="translate(27.240625 223.300193)scale(0.1 -0.1)">
       <use xlink:href="#DejaVuSans-36"/>
       <use x="63.623047" xlink:href="#DejaVuSans-30"/>
      </g>
     </g>
    </g>
    <g id="ytick_5">
     <g id="line2d_13">
      <g>
       <use style="stroke:#000000;stroke-width:0.8;" x="46.965625" xlink:href="#m5a0634b6d3" y="174.482341"/>
      </g>
     </g>
     <g id="text_14">
      <!-- 80 -->
      <g transform="translate(27.240625 178.28156)scale(0.1 -0.1)">
       <use xlink:href="#DejaVuSans-38"/>
       <use x="63.623047" xlink:href="#DejaVuSans-30"/>
      </g>
     </g>
    </g>
    <g id="ytick_6">
     <g id="line2d_14">
      <g>
       <use style="stroke:#000000;stroke-width:0.8;" x="46.965625" xlink:href="#m5a0634b6d3" y="129.463707"/>
      </g>
     </g>
     <g id="text_15">
      <!-- 100 -->
      <defs>
       <path d="M 12.40625 8.296875 
L 28.515625 8.296875 
L 28.515625 63.921875 
L 10.984375 60.40625 
L 10.984375 69.390625 
L 28.421875 72.90625 
L 38.28125 72.90625 
L 38.28125 8.296875 
L 54.390625 8.296875 
L 54.390625 0 
L 12.40625 0 
z
" id="DejaVuSans-31"/>
      </defs>
      <g transform="translate(20.878125 133.262926)scale(0.1 -0.1)">
       <use xlink:href="#DejaVuSans-31"/>
       <use x="63.623047" xlink:href="#DejaVuSans-30"/>
       <use x="127.246094" xlink:href="#DejaVuSans-30"/>
      </g>
     </g>
    </g>
    <g id="ytick_7">
     <g id="line2d_15">
      <g>
       <use style="stroke:#000000;stroke-width:0.8;" x="46.965625" xlink:href="#m5a0634b6d3" y="84.445074"/>
      </g>
     </g>
     <g id="text_16">
      <!-- 120 -->
      <g transform="translate(20.878125 88.244293)scale(0.1 -0.1)">
       <use xlink:href="#DejaVuSans-31"/>
       <use x="63.623047" xlink:href="#DejaVuSans-32"/>
       <use x="127.246094" xlink:href="#DejaVuSans-30"/>
      </g>
     </g>
    </g>
    <g id="ytick_8">
     <g id="line2d_16">
      <g>
       <use style="stroke:#000000;stroke-width:0.8;" x="46.965625" xlink:href="#m5a0634b6d3" y="39.42644"/>
      </g>
     </g>
     <g id="text_17">
      <!-- 140 -->
      <g transform="translate(20.878125 43.225659)scale(0.1 -0.1)">
       <use xlink:href="#DejaVuSans-31"/>
       <use x="63.623047" xlink:href="#DejaVuSans-34"/>
       <use x="127.246094" xlink:href="#DejaVuSans-30"/>
      </g>
     </g>
    </g>
    <g id="text_18">
     <!-- Number of occurences -->
     <defs>
      <path d="M 9.8125 72.90625 
L 23.09375 72.90625 
L 55.421875 11.921875 
L 55.421875 72.90625 
L 64.984375 72.90625 
L 64.984375 0 
L 51.703125 0 
L 19.390625 60.984375 
L 19.390625 0 
L 9.8125 0 
z
" id="DejaVuSans-4e"/>
      <path d="M 8.5 21.578125 
L 8.5 54.6875 
L 17.484375 54.6875 
L 17.484375 21.921875 
Q 17.484375 14.15625 20.5 10.265625 
Q 23.53125 6.390625 29.59375 6.390625 
Q 36.859375 6.390625 41.078125 11.03125 
Q 45.3125 15.671875 45.3125 23.6875 
L 45.3125 54.6875 
L 54.296875 54.6875 
L 54.296875 0 
L 45.3125 0 
L 45.3125 8.40625 
Q 42.046875 3.421875 37.71875 1 
Q 33.40625 -1.421875 27.6875 -1.421875 
Q 18.265625 -1.421875 13.375 4.4375 
Q 8.5 10.296875 8.5 21.578125 
z
M 31.109375 56 
z
" id="DejaVuSans-75"/>
      <path d="M 52 44.1875 
Q 55.375 50.25 60.0625 53.125 
Q 64.75 56 71.09375 56 
Q 79.640625 56 84.28125 50.015625 
Q 88.921875 44.046875 88.921875 33.015625 
L 88.921875 0 
L 79.890625 0 
L 79.890625 32.71875 
Q 79.890625 40.578125 77.09375 44.375 
Q 74.3125 48.1875 68.609375 48.1875 
Q 61.625 48.1875 57.5625 43.546875 
Q 53.515625 38.921875 53.515625 30.90625 
L 53.515625 0 
L 44.484375 0 
L 44.484375 32.71875 
Q 44.484375 40.625 41.703125 44.40625 
Q 38.921875 48.1875 33.109375 48.1875 
Q 26.21875 48.1875 22.15625 43.53125 
Q 18.109375 38.875 18.109375 30.90625 
L 18.109375 0 
L 9.078125 0 
L 9.078125 54.6875 
L 18.109375 54.6875 
L 18.109375 46.1875 
Q 21.1875 51.21875 25.484375 53.609375 
Q 29.78125 56 35.6875 56 
Q 41.65625 56 45.828125 52.96875 
Q 50 49.953125 52 44.1875 
z
" id="DejaVuSans-6d"/>
      <path d="M 48.6875 27.296875 
Q 48.6875 37.203125 44.609375 42.84375 
Q 40.53125 48.484375 33.40625 48.484375 
Q 26.265625 48.484375 22.1875 42.84375 
Q 18.109375 37.203125 18.109375 27.296875 
Q 18.109375 17.390625 22.1875 11.75 
Q 26.265625 6.109375 33.40625 6.109375 
Q 40.53125 6.109375 44.609375 11.75 
Q 48.6875 17.390625 48.6875 27.296875 
z
M 18.109375 46.390625 
Q 20.953125 51.265625 25.265625 53.625 
Q 29.59375 56 35.59375 56 
Q 45.5625 56 51.78125 48.09375 
Q 58.015625 40.1875 58.015625 27.296875 
Q 58.015625 14.40625 51.78125 6.484375 
Q 45.5625 -1.421875 35.59375 -1.421875 
Q 29.59375 -1.421875 25.265625 0.953125 
Q 20.953125 3.328125 18.109375 8.203125 
L 18.109375 0 
L 9.078125 0 
L 9.078125 75.984375 
L 18.109375 75.984375 
z
" id="DejaVuSans-62"/>
      <path id="DejaVuSans-20"/>
      <path d="M 30.609375 48.390625 
Q 23.390625 48.390625 19.1875 42.75 
Q 14.984375 37.109375 14.984375 27.296875 
Q 14.984375 17.484375 19.15625 11.84375 
Q 23.34375 6.203125 30.609375 6.203125 
Q 37.796875 6.203125 41.984375 11.859375 
Q 46.1875 17.53125 46.1875 27.296875 
Q 46.1875 37.015625 41.984375 42.703125 
Q 37.796875 48.390625 30.609375 48.390625 
z
M 30.609375 56 
Q 42.328125 56 49.015625 48.375 
Q 55.71875 40.765625 55.71875 27.296875 
Q 55.71875 13.875 49.015625 6.21875 
Q 42.328125 -1.421875 30.609375 -1.421875 
Q 18.84375 -1.421875 12.171875 6.21875 
Q 5.515625 13.875 5.515625 27.296875 
Q 5.515625 40.765625 12.171875 48.375 
Q 18.84375 56 30.609375 56 
z
" id="DejaVuSans-6f"/>
      <path d="M 37.109375 75.984375 
L 37.109375 68.5 
L 28.515625 68.5 
Q 23.6875 68.5 21.796875 66.546875 
Q 19.921875 64.59375 19.921875 59.515625 
L 19.921875 54.6875 
L 34.71875 54.6875 
L 34.71875 47.703125 
L 19.921875 47.703125 
L 19.921875 0 
L 10.890625 0 
L 10.890625 47.703125 
L 2.296875 47.703125 
L 2.296875 54.6875 
L 10.890625 54.6875 
L 10.890625 58.5 
Q 10.890625 67.625 15.140625 71.796875 
Q 19.390625 75.984375 28.609375 75.984375 
z
" id="DejaVuSans-66"/>
      <path d="M 48.78125 52.59375 
L 48.78125 44.1875 
Q 44.96875 46.296875 41.140625 47.34375 
Q 37.3125 48.390625 33.40625 48.390625 
Q 24.65625 48.390625 19.8125 42.84375 
Q 14.984375 37.3125 14.984375 27.296875 
Q 14.984375 17.28125 19.8125 11.734375 
Q 24.65625 6.203125 33.40625 6.203125 
Q 37.3125 6.203125 41.140625 7.25 
Q 44.96875 8.296875 48.78125 10.40625 
L 48.78125 2.09375 
Q 45.015625 0.34375 40.984375 -0.53125 
Q 36.96875 -1.421875 32.421875 -1.421875 
Q 20.0625 -1.421875 12.78125 6.34375 
Q 5.515625 14.109375 5.515625 27.296875 
Q 5.515625 40.671875 12.859375 48.328125 
Q 20.21875 56 33.015625 56 
Q 37.15625 56 41.109375 55.140625 
Q 45.0625 54.296875 48.78125 52.59375 
z
" id="DejaVuSans-63"/>
      <path d="M 54.890625 33.015625 
L 54.890625 0 
L 45.90625 0 
L 45.90625 32.71875 
Q 45.90625 40.484375 42.875 44.328125 
Q 39.84375 48.1875 33.796875 48.1875 
Q 26.515625 48.1875 22.3125 43.546875 
Q 18.109375 38.921875 18.109375 30.90625 
L 18.109375 0 
L 9.078125 0 
L 9.078125 54.6875 
L 18.109375 54.6875 
L 18.109375 46.1875 
Q 21.34375 51.125 25.703125 53.5625 
Q 30.078125 56 35.796875 56 
Q 45.21875 56 50.046875 50.171875 
Q 54.890625 44.34375 54.890625 33.015625 
z
" id="DejaVuSans-6e"/>
     </defs>
     <g transform="translate(14.798438 248.016719)rotate(-90)scale(0.1 -0.1)">
      <use xlink:href="#DejaVuSans-4e"/>
      <use x="74.804688" xlink:href="#DejaVuSans-75"/>
      <use x="138.183594" xlink:href="#DejaVuSans-6d"/>
      <use x="235.595703" xlink:href="#DejaVuSans-62"/>
      <use x="299.072266" xlink:href="#DejaVuSans-65"/>
      <use x="360.595703" xlink:href="#DejaVuSans-72"/>
      <use x="401.708984" xlink:href="#DejaVuSans-20"/>
      <use x="433.496094" xlink:href="#DejaVuSans-6f"/>
      <use x="494.677734" xlink:href="#DejaVuSans-66"/>
      <use x="529.882812" xlink:href="#DejaVuSans-20"/>
      <use x="561.669922" xlink:href="#DejaVuSans-6f"/>
      <use x="622.851562" xlink:href="#DejaVuSans-63"/>
      <use x="677.832031" xlink:href="#DejaVuSans-63"/>
      <use x="732.8125" xlink:href="#DejaVuSans-75"/>
      <use x="796.191406" xlink:href="#DejaVuSans-72"/>
      <use x="837.273438" xlink:href="#DejaVuSans-65"/>
      <use x="898.796875" xlink:href="#DejaVuSans-6e"/>
      <use x="962.175781" xlink:href="#DejaVuSans-63"/>
      <use x="1017.15625" xlink:href="#DejaVuSans-65"/>
      <use x="1078.679688" xlink:href="#DejaVuSans-73"/>
     </g>
    </g>
   </g>
   <g id="line2d_17">
    <path clip-path="url(#p11235335b3)" d="M 573.179262 354.556875 
L 573.179262 43.928304 
" style="fill:none;stroke:#1dcaff;stroke-linecap:square;"/>
   </g>
   <g id="line2d_18">
    <path clip-path="url(#p11235335b3)" d="M 575.028536 354.556875 
L 575.028536 43.928304 
" style="fill:none;stroke:#ffc0cb;stroke-linecap:square;"/>
   </g>
   <g id="patch_139">
    <path d="M 46.965625 354.556875 
L 46.965625 28.396875 
" style="fill:none;stroke:#000000;stroke-linecap:square;stroke-linejoin:miter;stroke-width:0.8;"/>
   </g>
   <g id="patch_140">
    <path d="M 883.965625 354.556875 
L 883.965625 28.396875 
" style="fill:none;stroke:#000000;stroke-linecap:square;stroke-linejoin:miter;stroke-width:0.8;"/>
   </g>
   <g id="patch_141">
    <path d="M 46.965625 354.556875 
L 883.965625 354.556875 
" style="fill:none;stroke:#000000;stroke-linecap:square;stroke-linejoin:miter;stroke-width:0.8;"/>
   </g>
   <g id="patch_142">
    <path d="M 46.965625 28.396875 
L 883.965625 28.396875 
" style="fill:none;stroke:#000000;stroke-linecap:square;stroke-linejoin:miter;stroke-width:0.8;"/>
   </g>
   <g id="text_19">
    <!-- Actors Average Ratings Period 1900-1970 -->
    <defs>
     <path d="M 53.421875 13.28125 
L 24.03125 13.28125 
L 19.390625 0 
L 0.484375 0 
L 27.484375 72.90625 
L 49.90625 72.90625 
L 76.90625 0 
L 58.015625 0 
z
M 28.71875 26.8125 
L 48.6875 26.8125 
L 38.71875 55.8125 
z
" id="DejaVuSans-Bold-41"/>
     <path d="M 52.59375 52.984375 
L 52.59375 38.71875 
Q 49.03125 41.15625 45.4375 42.328125 
Q 41.84375 43.5 37.984375 43.5 
Q 30.671875 43.5 26.59375 39.234375 
Q 22.515625 34.96875 22.515625 27.296875 
Q 22.515625 19.625 26.59375 15.34375 
Q 30.671875 11.078125 37.984375 11.078125 
Q 42.09375 11.078125 45.78125 12.296875 
Q 49.46875 13.53125 52.59375 15.921875 
L 52.59375 1.609375 
Q 48.484375 0.09375 44.265625 -0.65625 
Q 40.046875 -1.421875 35.796875 -1.421875 
Q 21 -1.421875 12.640625 6.171875 
Q 4.296875 13.765625 4.296875 27.296875 
Q 4.296875 40.828125 12.640625 48.40625 
Q 21 56 35.796875 56 
Q 40.09375 56 44.265625 55.25 
Q 48.4375 54.5 52.59375 52.984375 
z
" id="DejaVuSans-Bold-63"/>
     <path d="M 27.484375 70.21875 
L 27.484375 54.6875 
L 45.515625 54.6875 
L 45.515625 42.1875 
L 27.484375 42.1875 
L 27.484375 19 
Q 27.484375 15.1875 29 13.84375 
Q 30.515625 12.5 35.015625 12.5 
L 44 12.5 
L 44 0 
L 29 0 
Q 18.65625 0 14.328125 4.3125 
Q 10.015625 8.640625 10.015625 19 
L 10.015625 42.1875 
L 1.3125 42.1875 
L 1.3125 54.6875 
L 10.015625 54.6875 
L 10.015625 70.21875 
z
" id="DejaVuSans-Bold-74"/>
     <path d="M 34.421875 43.5 
Q 28.609375 43.5 25.5625 39.328125 
Q 22.515625 35.15625 22.515625 27.296875 
Q 22.515625 19.4375 25.5625 15.25 
Q 28.609375 11.078125 34.421875 11.078125 
Q 40.140625 11.078125 43.15625 15.25 
Q 46.1875 19.4375 46.1875 27.296875 
Q 46.1875 35.15625 43.15625 39.328125 
Q 40.140625 43.5 34.421875 43.5 
z
M 34.421875 56 
Q 48.53125 56 56.46875 48.375 
Q 64.40625 40.765625 64.40625 27.296875 
Q 64.40625 13.8125 56.46875 6.1875 
Q 48.53125 -1.421875 34.421875 -1.421875 
Q 20.265625 -1.421875 12.28125 6.1875 
Q 4.296875 13.8125 4.296875 27.296875 
Q 4.296875 40.765625 12.28125 48.375 
Q 20.265625 56 34.421875 56 
z
" id="DejaVuSans-Bold-6f"/>
     <path d="M 49.03125 39.796875 
Q 46.734375 40.875 44.453125 41.375 
Q 42.1875 41.890625 39.890625 41.890625 
Q 33.15625 41.890625 29.515625 37.5625 
Q 25.875 33.25 25.875 25.203125 
L 25.875 0 
L 8.40625 0 
L 8.40625 54.6875 
L 25.875 54.6875 
L 25.875 45.703125 
Q 29.25 51.078125 33.609375 53.53125 
Q 37.984375 56 44.09375 56 
Q 44.96875 56 45.984375 55.921875 
Q 47.015625 55.859375 48.96875 55.609375 
z
" id="DejaVuSans-Bold-72"/>
     <path d="M 51.125 52.984375 
L 51.125 39.703125 
Q 45.515625 42.046875 40.28125 43.21875 
Q 35.0625 44.390625 30.421875 44.390625 
Q 25.4375 44.390625 23.015625 43.140625 
Q 20.609375 41.890625 20.609375 39.3125 
Q 20.609375 37.203125 22.4375 36.078125 
Q 24.265625 34.96875 29 34.421875 
L 32.078125 33.984375 
Q 45.515625 32.28125 50.140625 28.375 
Q 54.78125 24.46875 54.78125 16.109375 
Q 54.78125 7.375 48.328125 2.96875 
Q 41.890625 -1.421875 29.109375 -1.421875 
Q 23.6875 -1.421875 17.890625 -0.5625 
Q 12.109375 0.296875 6 2 
L 6 15.28125 
Q 11.234375 12.75 16.71875 11.46875 
Q 22.21875 10.203125 27.875 10.203125 
Q 33.015625 10.203125 35.59375 11.609375 
Q 38.1875 13.03125 38.1875 15.828125 
Q 38.1875 18.171875 36.40625 19.3125 
Q 34.625 20.453125 29.296875 21.09375 
L 26.21875 21.484375 
Q 14.546875 22.953125 9.859375 26.90625 
Q 5.171875 30.859375 5.171875 38.921875 
Q 5.171875 47.609375 11.125 51.796875 
Q 17.09375 56 29.390625 56 
Q 34.234375 56 39.546875 55.265625 
Q 44.875 54.546875 51.125 52.984375 
z
" id="DejaVuSans-Bold-73"/>
     <path id="DejaVuSans-Bold-20"/>
     <path d="M 1.515625 54.6875 
L 19 54.6875 
L 32.625 16.890625 
L 46.1875 54.6875 
L 63.71875 54.6875 
L 42.1875 0 
L 23 0 
z
" id="DejaVuSans-Bold-76"/>
     <path d="M 62.984375 27.484375 
L 62.984375 22.515625 
L 22.125 22.515625 
Q 22.75 16.359375 26.5625 13.28125 
Q 30.375 10.203125 37.203125 10.203125 
Q 42.71875 10.203125 48.5 11.84375 
Q 54.296875 13.484375 60.40625 16.796875 
L 60.40625 3.328125 
Q 54.203125 0.984375 48 -0.21875 
Q 41.796875 -1.421875 35.59375 -1.421875 
Q 20.75 -1.421875 12.515625 6.125 
Q 4.296875 13.671875 4.296875 27.296875 
Q 4.296875 40.671875 12.375 48.328125 
Q 20.453125 56 34.625 56 
Q 47.515625 56 55.25 48.234375 
Q 62.984375 40.484375 62.984375 27.484375 
z
M 45.015625 33.296875 
Q 45.015625 38.28125 42.109375 41.328125 
Q 39.203125 44.390625 34.515625 44.390625 
Q 29.4375 44.390625 26.265625 41.53125 
Q 23.09375 38.671875 22.3125 33.296875 
z
" id="DejaVuSans-Bold-65"/>
     <path d="M 32.90625 24.609375 
Q 27.4375 24.609375 24.671875 22.75 
Q 21.921875 20.90625 21.921875 17.28125 
Q 21.921875 13.96875 24.140625 12.078125 
Q 26.375 10.203125 30.328125 10.203125 
Q 35.25 10.203125 38.625 13.734375 
Q 42 17.28125 42 22.609375 
L 42 24.609375 
z
M 59.625 31.203125 
L 59.625 0 
L 42 0 
L 42 8.109375 
Q 38.484375 3.125 34.078125 0.84375 
Q 29.6875 -1.421875 23.390625 -1.421875 
Q 14.890625 -1.421875 9.59375 3.53125 
Q 4.296875 8.5 4.296875 16.40625 
Q 4.296875 26.03125 10.90625 30.515625 
Q 17.53125 35.015625 31.6875 35.015625 
L 42 35.015625 
L 42 36.375 
Q 42 40.53125 38.71875 42.453125 
Q 35.453125 44.390625 28.515625 44.390625 
Q 22.90625 44.390625 18.0625 43.265625 
Q 13.234375 42.140625 9.078125 39.890625 
L 9.078125 53.21875 
Q 14.703125 54.59375 20.359375 55.296875 
Q 26.03125 56 31.6875 56 
Q 46.484375 56 53.046875 50.171875 
Q 59.625 44.34375 59.625 31.203125 
z
" id="DejaVuSans-Bold-61"/>
     <path d="M 45.609375 9.28125 
Q 42 4.5 37.640625 2.25 
Q 33.296875 0 27.59375 0 
Q 17.578125 0 11.03125 7.875 
Q 4.5 15.765625 4.5 27.984375 
Q 4.5 40.234375 11.03125 48.0625 
Q 17.578125 55.90625 27.59375 55.90625 
Q 33.296875 55.90625 37.640625 53.65625 
Q 42 51.421875 45.609375 46.578125 
L 45.609375 54.6875 
L 63.1875 54.6875 
L 63.1875 5.515625 
Q 63.1875 -7.671875 54.859375 -14.625 
Q 46.53125 -21.578125 30.71875 -21.578125 
Q 25.59375 -21.578125 20.796875 -20.796875 
Q 16.015625 -20.015625 11.1875 -18.40625 
L 11.1875 -4.78125 
Q 15.765625 -7.421875 20.15625 -8.71875 
Q 24.5625 -10.015625 29 -10.015625 
Q 37.59375 -10.015625 41.59375 -6.25 
Q 45.609375 -2.484375 45.609375 5.515625 
z
M 34.078125 43.3125 
Q 28.65625 43.3125 25.625 39.296875 
Q 22.609375 35.296875 22.609375 27.984375 
Q 22.609375 20.453125 25.53125 16.578125 
Q 28.46875 12.703125 34.078125 12.703125 
Q 39.546875 12.703125 42.578125 16.703125 
Q 45.609375 20.703125 45.609375 27.984375 
Q 45.609375 35.296875 42.578125 39.296875 
Q 39.546875 43.3125 34.078125 43.3125 
z
" id="DejaVuSans-Bold-67"/>
     <path d="M 35.890625 40.578125 
Q 41.796875 40.578125 44.359375 42.765625 
Q 46.921875 44.96875 46.921875 50 
Q 46.921875 54.984375 44.359375 57.125 
Q 41.796875 59.28125 35.890625 59.28125 
L 27.984375 59.28125 
L 27.984375 40.578125 
z
M 27.984375 27.59375 
L 27.984375 0 
L 9.1875 0 
L 9.1875 72.90625 
L 37.890625 72.90625 
Q 52.296875 72.90625 59 68.0625 
Q 65.71875 63.234375 65.71875 52.78125 
Q 65.71875 45.5625 62.21875 40.921875 
Q 58.734375 36.28125 51.703125 34.078125 
Q 55.5625 33.203125 58.609375 30.09375 
Q 61.671875 27 64.796875 20.703125 
L 75 0 
L 54.984375 0 
L 46.09375 18.109375 
Q 43.40625 23.578125 40.640625 25.578125 
Q 37.890625 27.59375 33.296875 27.59375 
z
" id="DejaVuSans-Bold-52"/>
     <path d="M 8.40625 54.6875 
L 25.875 54.6875 
L 25.875 0 
L 8.40625 0 
z
M 8.40625 75.984375 
L 25.875 75.984375 
L 25.875 61.71875 
L 8.40625 61.71875 
z
" id="DejaVuSans-Bold-69"/>
     <path d="M 63.375 33.296875 
L 63.375 0 
L 45.796875 0 
L 45.796875 5.421875 
L 45.796875 25.484375 
Q 45.796875 32.5625 45.484375 35.25 
Q 45.171875 37.9375 44.390625 39.203125 
Q 43.359375 40.921875 41.59375 41.875 
Q 39.84375 42.828125 37.59375 42.828125 
Q 32.125 42.828125 29 38.59375 
Q 25.875 34.375 25.875 26.90625 
L 25.875 0 
L 8.40625 0 
L 8.40625 54.6875 
L 25.875 54.6875 
L 25.875 46.6875 
Q 29.828125 51.46875 34.265625 53.734375 
Q 38.71875 56 44.09375 56 
Q 53.5625 56 58.46875 50.1875 
Q 63.375 44.390625 63.375 33.296875 
z
" id="DejaVuSans-Bold-6e"/>
     <path d="M 9.1875 72.90625 
L 40.375 72.90625 
Q 54.296875 72.90625 61.734375 66.71875 
Q 69.1875 60.546875 69.1875 49.125 
Q 69.1875 37.640625 61.734375 31.46875 
Q 54.296875 25.296875 40.375 25.296875 
L 27.984375 25.296875 
L 27.984375 0 
L 9.1875 0 
z
M 27.984375 59.28125 
L 27.984375 38.921875 
L 38.375 38.921875 
Q 43.84375 38.921875 46.828125 41.578125 
Q 49.8125 44.234375 49.8125 49.125 
Q 49.8125 54 46.828125 56.640625 
Q 43.84375 59.28125 38.375 59.28125 
z
" id="DejaVuSans-Bold-50"/>
     <path d="M 45.609375 46.6875 
L 45.609375 75.984375 
L 63.1875 75.984375 
L 63.1875 0 
L 45.609375 0 
L 45.609375 7.90625 
Q 42 3.078125 37.640625 0.828125 
Q 33.296875 -1.421875 27.59375 -1.421875 
Q 17.484375 -1.421875 10.984375 6.609375 
Q 4.5 14.65625 4.5 27.296875 
Q 4.5 39.9375 10.984375 47.96875 
Q 17.484375 56 27.59375 56 
Q 33.25 56 37.625 53.734375 
Q 42 51.46875 45.609375 46.6875 
z
M 34.078125 11.28125 
Q 39.703125 11.28125 42.65625 15.375 
Q 45.609375 19.484375 45.609375 27.296875 
Q 45.609375 35.109375 42.65625 39.203125 
Q 39.703125 43.3125 34.078125 43.3125 
Q 28.515625 43.3125 25.5625 39.203125 
Q 22.609375 35.109375 22.609375 27.296875 
Q 22.609375 19.484375 25.5625 15.375 
Q 28.515625 11.28125 34.078125 11.28125 
z
" id="DejaVuSans-Bold-64"/>
     <path d="M 11.71875 12.984375 
L 28.328125 12.984375 
L 28.328125 60.109375 
L 11.28125 56.59375 
L 11.28125 69.390625 
L 28.21875 72.90625 
L 46.09375 72.90625 
L 46.09375 12.984375 
L 62.703125 12.984375 
L 62.703125 0 
L 11.71875 0 
z
" id="DejaVuSans-Bold-31"/>
     <path d="M 10.015625 1.609375 
L 10.015625 15.09375 
Q 14.5 12.984375 18.59375 11.9375 
Q 22.703125 10.890625 26.703125 10.890625 
Q 35.109375 10.890625 39.796875 15.546875 
Q 44.484375 20.21875 45.3125 29.390625 
Q 42 26.953125 38.234375 25.734375 
Q 34.46875 24.515625 30.078125 24.515625 
Q 18.890625 24.515625 12.03125 31.03125 
Q 5.171875 37.546875 5.171875 48.1875 
Q 5.171875 59.96875 12.8125 67.046875 
Q 20.453125 74.125 33.296875 74.125 
Q 47.5625 74.125 55.375 64.5 
Q 63.1875 54.890625 63.1875 37.3125 
Q 63.1875 19.234375 54.046875 8.90625 
Q 44.921875 -1.421875 29 -1.421875 
Q 23.875 -1.421875 19.1875 -0.65625 
Q 14.5 0.09375 10.015625 1.609375 
z
M 33.203125 36.71875 
Q 38.140625 36.71875 40.625 39.90625 
Q 43.109375 43.109375 43.109375 49.515625 
Q 43.109375 55.859375 40.625 59.078125 
Q 38.140625 62.3125 33.203125 62.3125 
Q 28.265625 62.3125 25.78125 59.078125 
Q 23.296875 55.859375 23.296875 49.515625 
Q 23.296875 43.109375 25.78125 39.90625 
Q 28.265625 36.71875 33.203125 36.71875 
z
" id="DejaVuSans-Bold-39"/>
     <path d="M 46 36.53125 
Q 46 50.203125 43.4375 55.78125 
Q 40.875 61.375 34.8125 61.375 
Q 28.765625 61.375 26.171875 55.78125 
Q 23.578125 50.203125 23.578125 36.53125 
Q 23.578125 22.703125 26.171875 17.03125 
Q 28.765625 11.375 34.8125 11.375 
Q 40.828125 11.375 43.40625 17.03125 
Q 46 22.703125 46 36.53125 
z
M 64.796875 36.375 
Q 64.796875 18.265625 56.984375 8.421875 
Q 49.171875 -1.421875 34.8125 -1.421875 
Q 20.40625 -1.421875 12.59375 8.421875 
Q 4.78125 18.265625 4.78125 36.375 
Q 4.78125 54.546875 12.59375 64.375 
Q 20.40625 74.21875 34.8125 74.21875 
Q 49.171875 74.21875 56.984375 64.375 
Q 64.796875 54.546875 64.796875 36.375 
z
" id="DejaVuSans-Bold-30"/>
     <path d="M 5.421875 35.890625 
L 36.078125 35.890625 
L 36.078125 21.6875 
L 5.421875 21.6875 
z
" id="DejaVuSans-Bold-2d"/>
     <path d="M 6.6875 72.90625 
L 61.625 72.90625 
L 61.625 62.3125 
L 33.203125 0 
L 14.890625 0 
L 41.796875 59.078125 
L 6.6875 59.078125 
z
" id="DejaVuSans-Bold-37"/>
    </defs>
    <g transform="translate(229.4875 22.396875)scale(0.2 -0.2)">
     <use xlink:href="#DejaVuSans-Bold-41"/>
     <use x="77.392578" xlink:href="#DejaVuSans-Bold-63"/>
     <use x="136.669922" xlink:href="#DejaVuSans-Bold-74"/>
     <use x="184.472656" xlink:href="#DejaVuSans-Bold-6f"/>
     <use x="253.173828" xlink:href="#DejaVuSans-Bold-72"/>
     <use x="302.490234" xlink:href="#DejaVuSans-Bold-73"/>
     <use x="362.011719" xlink:href="#DejaVuSans-Bold-20"/>
     <use x="396.826172" xlink:href="#DejaVuSans-Bold-41"/>
     <use x="474.171875" xlink:href="#DejaVuSans-Bold-76"/>
     <use x="539.357422" xlink:href="#DejaVuSans-Bold-65"/>
     <use x="607.179688" xlink:href="#DejaVuSans-Bold-72"/>
     <use x="656.496094" xlink:href="#DejaVuSans-Bold-61"/>
     <use x="723.976562" xlink:href="#DejaVuSans-Bold-67"/>
     <use x="795.558594" xlink:href="#DejaVuSans-Bold-65"/>
     <use x="863.380859" xlink:href="#DejaVuSans-Bold-20"/>
     <use x="898.195312" xlink:href="#DejaVuSans-Bold-52"/>
     <use x="975.197266" xlink:href="#DejaVuSans-Bold-61"/>
     <use x="1042.677734" xlink:href="#DejaVuSans-Bold-74"/>
     <use x="1090.480469" xlink:href="#DejaVuSans-Bold-69"/>
     <use x="1124.757812" xlink:href="#DejaVuSans-Bold-6e"/>
     <use x="1195.949219" xlink:href="#DejaVuSans-Bold-67"/>
     <use x="1267.53125" xlink:href="#DejaVuSans-Bold-73"/>
     <use x="1327.052734" xlink:href="#DejaVuSans-Bold-20"/>
     <use x="1361.867188" xlink:href="#DejaVuSans-Bold-50"/>
     <use x="1435.158203" xlink:href="#DejaVuSans-Bold-65"/>
     <use x="1502.980469" xlink:href="#DejaVuSans-Bold-72"/>
     <use x="1552.296875" xlink:href="#DejaVuSans-Bold-69"/>
     <use x="1586.574219" xlink:href="#DejaVuSans-Bold-6f"/>
     <use x="1655.275391" xlink:href="#DejaVuSans-Bold-64"/>
     <use x="1726.857422" xlink:href="#DejaVuSans-Bold-20"/>
     <use x="1761.671875" xlink:href="#DejaVuSans-Bold-31"/>
     <use x="1831.251953" xlink:href="#DejaVuSans-Bold-39"/>
     <use x="1900.832031" xlink:href="#DejaVuSans-Bold-30"/>
     <use x="1970.412109" xlink:href="#DejaVuSans-Bold-30"/>
     <use x="2039.992188" xlink:href="#DejaVuSans-Bold-2d"/>
     <use x="2081.496094" xlink:href="#DejaVuSans-Bold-31"/>
     <use x="2151.076172" xlink:href="#DejaVuSans-Bold-39"/>
     <use x="2220.65625" xlink:href="#DejaVuSans-Bold-37"/>
     <use x="2290.236328" xlink:href="#DejaVuSans-Bold-30"/>
    </g>
   </g>
   <g id="legend_1">
    <g id="patch_143">
     <path d="M 709.542188 95.109375 
L 876.965625 95.109375 
Q 878.965625 95.109375 878.965625 93.109375 
L 878.965625 35.396875 
Q 878.965625 33.396875 876.965625 33.396875 
L 709.542188 33.396875 
Q 707.542188 33.396875 707.542188 35.396875 
L 707.542188 93.109375 
Q 707.542188 95.109375 709.542188 95.109375 
z
" style="fill:#ffffff;opacity:0.8;stroke:#cccccc;stroke-linejoin:miter;"/>
    </g>
    <g id="line2d_19">
     <path d="M 711.542188 41.495312 
L 731.542188 41.495312 
" style="fill:none;stroke:#1dcaff;stroke-linecap:square;"/>
    </g>
    <g id="line2d_20"/>
    <g id="text_20">
     <!-- Men Mean 6.31 -->
     <defs>
      <path d="M 9.8125 72.90625 
L 24.515625 72.90625 
L 43.109375 23.296875 
L 61.8125 72.90625 
L 76.515625 72.90625 
L 76.515625 0 
L 66.890625 0 
L 66.890625 64.015625 
L 48.09375 14.015625 
L 38.1875 14.015625 
L 19.390625 64.015625 
L 19.390625 0 
L 9.8125 0 
z
" id="DejaVuSans-4d"/>
      <path d="M 34.28125 27.484375 
Q 23.390625 27.484375 19.1875 25 
Q 14.984375 22.515625 14.984375 16.5 
Q 14.984375 11.71875 18.140625 8.90625 
Q 21.296875 6.109375 26.703125 6.109375 
Q 34.1875 6.109375 38.703125 11.40625 
Q 43.21875 16.703125 43.21875 25.484375 
L 43.21875 27.484375 
z
M 52.203125 31.203125 
L 52.203125 0 
L 43.21875 0 
L 43.21875 8.296875 
Q 40.140625 3.328125 35.546875 0.953125 
Q 30.953125 -1.421875 24.3125 -1.421875 
Q 15.921875 -1.421875 10.953125 3.296875 
Q 6 8.015625 6 15.921875 
Q 6 25.140625 12.171875 29.828125 
Q 18.359375 34.515625 30.609375 34.515625 
L 43.21875 34.515625 
L 43.21875 35.40625 
Q 43.21875 41.609375 39.140625 45 
Q 35.0625 48.390625 27.6875 48.390625 
Q 23 48.390625 18.546875 47.265625 
Q 14.109375 46.140625 10.015625 43.890625 
L 10.015625 52.203125 
Q 14.9375 54.109375 19.578125 55.046875 
Q 24.21875 56 28.609375 56 
Q 40.484375 56 46.34375 49.84375 
Q 52.203125 43.703125 52.203125 31.203125 
z
" id="DejaVuSans-61"/>
      <path d="M 10.6875 12.40625 
L 21 12.40625 
L 21 0 
L 10.6875 0 
z
" id="DejaVuSans-2e"/>
     </defs>
     <g transform="translate(739.542188 44.995312)scale(0.1 -0.1)">
      <use xlink:href="#DejaVuSans-4d"/>
      <use x="86.279297" xlink:href="#DejaVuSans-65"/>
      <use x="147.802734" xlink:href="#DejaVuSans-6e"/>
      <use x="211.181641" xlink:href="#DejaVuSans-20"/>
      <use x="242.96875" xlink:href="#DejaVuSans-4d"/>
      <use x="329.248047" xlink:href="#DejaVuSans-65"/>
      <use x="390.771484" xlink:href="#DejaVuSans-61"/>
      <use x="452.050781" xlink:href="#DejaVuSans-6e"/>
      <use x="515.429688" xlink:href="#DejaVuSans-20"/>
      <use x="547.216797" xlink:href="#DejaVuSans-36"/>
      <use x="610.839844" xlink:href="#DejaVuSans-2e"/>
      <use x="642.626953" xlink:href="#DejaVuSans-33"/>
      <use x="706.25" xlink:href="#DejaVuSans-31"/>
     </g>
    </g>
    <g id="line2d_21">
     <path d="M 711.542188 56.173437 
L 731.542188 56.173437 
" style="fill:none;stroke:#ffc0cb;stroke-linecap:square;"/>
    </g>
    <g id="line2d_22"/>
    <g id="text_21">
     <!-- Women Mean 6.33 -->
     <defs>
      <path d="M 3.328125 72.90625 
L 13.28125 72.90625 
L 28.609375 11.28125 
L 43.890625 72.90625 
L 54.984375 72.90625 
L 70.3125 11.28125 
L 85.59375 72.90625 
L 95.609375 72.90625 
L 77.296875 0 
L 64.890625 0 
L 49.515625 63.28125 
L 33.984375 0 
L 21.578125 0 
z
" id="DejaVuSans-57"/>
     </defs>
     <g transform="translate(739.542188 59.673437)scale(0.1 -0.1)">
      <use xlink:href="#DejaVuSans-57"/>
      <use x="98.798828" xlink:href="#DejaVuSans-6f"/>
      <use x="159.980469" xlink:href="#DejaVuSans-6d"/>
      <use x="257.392578" xlink:href="#DejaVuSans-65"/>
      <use x="318.916016" xlink:href="#DejaVuSans-6e"/>
      <use x="382.294922" xlink:href="#DejaVuSans-20"/>
      <use x="414.082031" xlink:href="#DejaVuSans-4d"/>
      <use x="500.361328" xlink:href="#DejaVuSans-65"/>
      <use x="561.884766" xlink:href="#DejaVuSans-61"/>
      <use x="623.164062" xlink:href="#DejaVuSans-6e"/>
      <use x="686.542969" xlink:href="#DejaVuSans-20"/>
      <use x="718.330078" xlink:href="#DejaVuSans-36"/>
      <use x="781.953125" xlink:href="#DejaVuSans-2e"/>
      <use x="813.740234" xlink:href="#DejaVuSans-33"/>
      <use x="877.363281" xlink:href="#DejaVuSans-33"/>
     </g>
    </g>
    <g id="patch_144">
     <path d="M 711.542188 74.351562 
L 731.542188 74.351562 
L 731.542188 67.351562 
L 711.542188 67.351562 
z
" style="fill:#55638a;"/>
    </g>
    <g id="text_22">
     <!-- Average Ratings of Actors -->
     <defs>
      <path d="M 34.1875 63.1875 
L 20.796875 26.90625 
L 47.609375 26.90625 
z
M 28.609375 72.90625 
L 39.796875 72.90625 
L 67.578125 0 
L 57.328125 0 
L 50.6875 18.703125 
L 17.828125 18.703125 
L 11.1875 0 
L 0.78125 0 
z
" id="DejaVuSans-41"/>
      <path d="M 2.984375 54.6875 
L 12.5 54.6875 
L 29.59375 8.796875 
L 46.6875 54.6875 
L 56.203125 54.6875 
L 35.6875 0 
L 23.484375 0 
z
" id="DejaVuSans-76"/>
      <path d="M 44.390625 34.1875 
Q 47.5625 33.109375 50.5625 29.59375 
Q 53.5625 26.078125 56.59375 19.921875 
L 66.609375 0 
L 56 0 
L 46.6875 18.703125 
Q 43.0625 26.03125 39.671875 28.421875 
Q 36.28125 30.8125 30.421875 30.8125 
L 19.671875 30.8125 
L 19.671875 0 
L 9.8125 0 
L 9.8125 72.90625 
L 32.078125 72.90625 
Q 44.578125 72.90625 50.734375 67.671875 
Q 56.890625 62.453125 56.890625 51.90625 
Q 56.890625 45.015625 53.6875 40.46875 
Q 50.484375 35.9375 44.390625 34.1875 
z
M 19.671875 64.796875 
L 19.671875 38.921875 
L 32.078125 38.921875 
Q 39.203125 38.921875 42.84375 42.21875 
Q 46.484375 45.515625 46.484375 51.90625 
Q 46.484375 58.296875 42.84375 61.546875 
Q 39.203125 64.796875 32.078125 64.796875 
z
" id="DejaVuSans-52"/>
      <path d="M 18.3125 70.21875 
L 18.3125 54.6875 
L 36.8125 54.6875 
L 36.8125 47.703125 
L 18.3125 47.703125 
L 18.3125 18.015625 
Q 18.3125 11.328125 20.140625 9.421875 
Q 21.96875 7.515625 27.59375 7.515625 
L 36.8125 7.515625 
L 36.8125 0 
L 27.59375 0 
Q 17.1875 0 13.234375 3.875 
Q 9.28125 7.765625 9.28125 18.015625 
L 9.28125 47.703125 
L 2.6875 47.703125 
L 2.6875 54.6875 
L 9.28125 54.6875 
L 9.28125 70.21875 
z
" id="DejaVuSans-74"/>
      <path d="M 9.421875 54.6875 
L 18.40625 54.6875 
L 18.40625 0 
L 9.421875 0 
z
M 9.421875 75.984375 
L 18.40625 75.984375 
L 18.40625 64.59375 
L 9.421875 64.59375 
z
" id="DejaVuSans-69"/>
     </defs>
     <g transform="translate(739.542188 74.351562)scale(0.1 -0.1)">
      <use xlink:href="#DejaVuSans-41"/>
      <use x="68.330078" xlink:href="#DejaVuSans-76"/>
      <use x="127.509766" xlink:href="#DejaVuSans-65"/>
      <use x="189.033203" xlink:href="#DejaVuSans-72"/>
      <use x="230.146484" xlink:href="#DejaVuSans-61"/>
      <use x="291.425781" xlink:href="#DejaVuSans-67"/>
      <use x="354.902344" xlink:href="#DejaVuSans-65"/>
      <use x="416.425781" xlink:href="#DejaVuSans-20"/>
      <use x="448.212891" xlink:href="#DejaVuSans-52"/>
      <use x="517.664062" xlink:href="#DejaVuSans-61"/>
      <use x="578.943359" xlink:href="#DejaVuSans-74"/>
      <use x="618.152344" xlink:href="#DejaVuSans-69"/>
      <use x="645.935547" xlink:href="#DejaVuSans-6e"/>
      <use x="709.314453" xlink:href="#DejaVuSans-67"/>
      <use x="772.791016" xlink:href="#DejaVuSans-73"/>
      <use x="824.890625" xlink:href="#DejaVuSans-20"/>
      <use x="856.677734" xlink:href="#DejaVuSans-6f"/>
      <use x="917.859375" xlink:href="#DejaVuSans-66"/>
      <use x="953.064453" xlink:href="#DejaVuSans-20"/>
      <use x="984.851562" xlink:href="#DejaVuSans-41"/>
      <use x="1053.244141" xlink:href="#DejaVuSans-63"/>
      <use x="1108.224609" xlink:href="#DejaVuSans-74"/>
      <use x="1147.433594" xlink:href="#DejaVuSans-6f"/>
      <use x="1208.615234" xlink:href="#DejaVuSans-72"/>
      <use x="1249.728516" xlink:href="#DejaVuSans-73"/>
     </g>
    </g>
    <g id="patch_145">
     <path d="M 711.542188 89.029687 
L 731.542188 89.029687 
L 731.542188 82.029687 
L 711.542188 82.029687 
z
" style="fill:#9e1030;"/>
    </g>
    <g id="text_23">
     <!-- Average Ratings of Actress -->
     <g transform="translate(739.542188 89.029687)scale(0.1 -0.1)">
      <use xlink:href="#DejaVuSans-41"/>
      <use x="68.330078" xlink:href="#DejaVuSans-76"/>
      <use x="127.509766" xlink:href="#DejaVuSans-65"/>
      <use x="189.033203" xlink:href="#DejaVuSans-72"/>
      <use x="230.146484" xlink:href="#DejaVuSans-61"/>
      <use x="291.425781" xlink:href="#DejaVuSans-67"/>
      <use x="354.902344" xlink:href="#DejaVuSans-65"/>
      <use x="416.425781" xlink:href="#DejaVuSans-20"/>
      <use x="448.212891" xlink:href="#DejaVuSans-52"/>
      <use x="517.664062" xlink:href="#DejaVuSans-61"/>
      <use x="578.943359" xlink:href="#DejaVuSans-74"/>
      <use x="618.152344" xlink:href="#DejaVuSans-69"/>
      <use x="645.935547" xlink:href="#DejaVuSans-6e"/>
      <use x="709.314453" xlink:href="#DejaVuSans-67"/>
      <use x="772.791016" xlink:href="#DejaVuSans-73"/>
      <use x="824.890625" xlink:href="#DejaVuSans-20"/>
      <use x="856.677734" xlink:href="#DejaVuSans-6f"/>
      <use x="917.859375" xlink:href="#DejaVuSans-66"/>
      <use x="953.064453" xlink:href="#DejaVuSans-20"/>
      <use x="984.851562" xlink:href="#DejaVuSans-41"/>
      <use x="1053.244141" xlink:href="#DejaVuSans-63"/>
      <use x="1108.224609" xlink:href="#DejaVuSans-74"/>
      <use x="1147.433594" xlink:href="#DejaVuSans-72"/>
      <use x="1188.515625" xlink:href="#DejaVuSans-65"/>
      <use x="1250.039062" xlink:href="#DejaVuSans-73"/>
      <use x="1302.138672" xlink:href="#DejaVuSans-73"/>
     </g>
    </g>
   </g>
  </g>
 </g>
 <defs>
  <clipPath id="p11235335b3">
   <rect height="326.16" width="837" x="46.965625" y="28.396875"/>
  </clipPath>
 </defs>
</svg>
