<?xml version="1.0" encoding="utf-8" standalone="no"?>
<!DOCTYPE svg PUBLIC "-//W3C//DTD SVG 1.1//EN"
  "http://www.w3.org/Graphics/SVG/1.1/DTD/svg11.dtd">
<!-- Created with matplotlib (http://matplotlib.org/) -->
<svg height="392.113125pt" version="1.1" viewBox="0 0 894.665625 392.113125" width="894.665625pt" xmlns="http://www.w3.org/2000/svg" xmlns:xlink="http://www.w3.org/1999/xlink">
 <defs>
  <style type="text/css">
*{stroke-linecap:butt;stroke-linejoin:round;}
  </style>
 </defs>
 <g id="figure_1">
  <g id="patch_1">
   <path d="M 0 392.113125 
L 894.665625 392.113125 
L 894.665625 0 
L 0 0 
z
" style="fill:#ffffff;"/>
  </g>
  <g id="axes_1">
   <g id="patch_2">
    <path d="M 46.965625 354.556875 
L 883.965625 354.556875 
L 883.965625 28.396875 
L 46.965625 28.396875 
z
" style="fill:#ffffff;"/>
   </g>
   <g id="patch_3">
    <path clip-path="url(#pce653fe5d4)" d="M 85.01108 354.556875 
L 88.545495 354.556875 
L 88.545495 353.128698 
L 85.01108 353.128698 
z
" style="fill:#55638a;"/>
   </g>
   <g id="patch_4">
    <path clip-path="url(#pce653fe5d4)" d="M 95.109409 354.556875 
L 98.643824 354.556875 
L 98.643824 353.128698 
L 95.109409 353.128698 
z
" style="fill:#55638a;"/>
   </g>
   <g id="patch_5">
    <path clip-path="url(#pce653fe5d4)" d="M 105.207738 354.556875 
L 108.742153 354.556875 
L 108.742153 353.128698 
L 105.207738 353.128698 
z
" style="fill:#55638a;"/>
   </g>
   <g id="patch_6">
    <path clip-path="url(#pce653fe5d4)" d="M 115.306067 354.556875 
L 118.840482 354.556875 
L 118.840482 353.842786 
L 115.306067 353.842786 
z
" style="fill:#55638a;"/>
   </g>
   <g id="patch_7">
    <path clip-path="url(#pce653fe5d4)" d="M 125.404396 354.556875 
L 128.938811 354.556875 
L 128.938811 353.842786 
L 125.404396 353.842786 
z
" style="fill:#55638a;"/>
   </g>
   <g id="patch_8">
    <path clip-path="url(#pce653fe5d4)" d="M 135.502725 354.556875 
L 139.03714 354.556875 
L 139.03714 350.986432 
L 135.502725 350.986432 
z
" style="fill:#55638a;"/>
   </g>
   <g id="patch_9">
    <path clip-path="url(#pce653fe5d4)" d="M 145.601054 354.556875 
L 149.135469 354.556875 
L 149.135469 353.128698 
L 145.601054 353.128698 
z
" style="fill:#55638a;"/>
   </g>
   <g id="patch_10">
    <path clip-path="url(#pce653fe5d4)" d="M 155.699383 354.556875 
L 159.233798 354.556875 
L 159.233798 349.558254 
L 155.699383 349.558254 
z
" style="fill:#55638a;"/>
   </g>
   <g id="patch_11">
    <path clip-path="url(#pce653fe5d4)" d="M 165.797712 354.556875 
L 169.332127 354.556875 
L 169.332127 344.559634 
L 165.797712 344.559634 
z
" style="fill:#55638a;"/>
   </g>
   <g id="patch_12">
    <path clip-path="url(#pce653fe5d4)" d="M 175.896041 354.556875 
L 179.430456 354.556875 
L 179.430456 347.415988 
L 175.896041 347.415988 
z
" style="fill:#55638a;"/>
   </g>
   <g id="patch_13">
    <path clip-path="url(#pce653fe5d4)" d="M 185.99437 354.556875 
L 189.528785 354.556875 
L 189.528785 345.273722 
L 185.99437 345.273722 
z
" style="fill:#55638a;"/>
   </g>
   <g id="patch_14">
    <path clip-path="url(#pce653fe5d4)" d="M 196.092699 354.556875 
L 199.627114 354.556875 
L 199.627114 340.275102 
L 196.092699 340.275102 
z
" style="fill:#55638a;"/>
   </g>
   <g id="patch_15">
    <path clip-path="url(#pce653fe5d4)" d="M 206.191028 354.556875 
L 209.725443 354.556875 
L 209.725443 338.132836 
L 206.191028 338.132836 
z
" style="fill:#55638a;"/>
   </g>
   <g id="patch_16">
    <path clip-path="url(#pce653fe5d4)" d="M 216.289357 354.556875 
L 219.823772 354.556875 
L 219.823772 335.99057 
L 216.289357 335.99057 
z
" style="fill:#55638a;"/>
   </g>
   <g id="patch_17">
    <path clip-path="url(#pce653fe5d4)" d="M 226.387686 354.556875 
L 229.922101 354.556875 
L 229.922101 335.99057 
L 226.387686 335.99057 
z
" style="fill:#55638a;"/>
   </g>
   <g id="patch_18">
    <path clip-path="url(#pce653fe5d4)" d="M 236.486015 354.556875 
L 240.02043 354.556875 
L 240.02043 333.848304 
L 236.486015 333.848304 
z
" style="fill:#55638a;"/>
   </g>
   <g id="patch_19">
    <path clip-path="url(#pce653fe5d4)" d="M 246.584344 354.556875 
L 250.118759 354.556875 
L 250.118759 332.420126 
L 246.584344 332.420126 
z
" style="fill:#55638a;"/>
   </g>
   <g id="patch_20">
    <path clip-path="url(#pce653fe5d4)" d="M 256.682673 354.556875 
L 260.217088 354.556875 
L 260.217088 335.276481 
L 256.682673 335.276481 
z
" style="fill:#55638a;"/>
   </g>
   <g id="patch_21">
    <path clip-path="url(#pce653fe5d4)" d="M 266.781002 354.556875 
L 270.315417 354.556875 
L 270.315417 330.991949 
L 266.781002 330.991949 
z
" style="fill:#55638a;"/>
   </g>
   <g id="patch_22">
    <path clip-path="url(#pce653fe5d4)" d="M 276.879331 354.556875 
L 280.413746 354.556875 
L 280.413746 323.136974 
L 276.879331 323.136974 
z
" style="fill:#55638a;"/>
   </g>
   <g id="patch_23">
    <path clip-path="url(#pce653fe5d4)" d="M 286.97766 354.556875 
L 290.512075 354.556875 
L 290.512075 329.563772 
L 286.97766 329.563772 
z
" style="fill:#55638a;"/>
   </g>
   <g id="patch_24">
    <path clip-path="url(#pce653fe5d4)" d="M 297.075989 354.556875 
L 300.610404 354.556875 
L 300.610404 305.284757 
L 297.075989 305.284757 
z
" style="fill:#55638a;"/>
   </g>
   <g id="patch_25">
    <path clip-path="url(#pce653fe5d4)" d="M 307.174318 354.556875 
L 310.708733 354.556875 
L 310.708733 316.710175 
L 307.174318 316.710175 
z
" style="fill:#55638a;"/>
   </g>
   <g id="patch_26">
    <path clip-path="url(#pce653fe5d4)" d="M 317.272647 354.556875 
L 320.807062 354.556875 
L 320.807062 318.852442 
L 317.272647 318.852442 
z
" style="fill:#55638a;"/>
   </g>
   <g id="patch_27">
    <path clip-path="url(#pce653fe5d4)" d="M 327.370976 354.556875 
L 330.905391 354.556875 
L 330.905391 299.572047 
L 327.370976 299.572047 
z
" style="fill:#55638a;"/>
   </g>
   <g id="patch_28">
    <path clip-path="url(#pce653fe5d4)" d="M 337.469305 354.556875 
L 341.00372 354.556875 
L 341.00372 297.429781 
L 337.469305 297.429781 
z
" style="fill:#55638a;"/>
   </g>
   <g id="patch_29">
    <path clip-path="url(#pce653fe5d4)" d="M 347.567634 354.556875 
L 351.102049 354.556875 
L 351.102049 294.573427 
L 347.567634 294.573427 
z
" style="fill:#55638a;"/>
   </g>
   <g id="patch_30">
    <path clip-path="url(#pce653fe5d4)" d="M 357.665963 354.556875 
L 361.200378 354.556875 
L 361.200378 280.291653 
L 357.665963 280.291653 
z
" style="fill:#55638a;"/>
   </g>
   <g id="patch_31">
    <path clip-path="url(#pce653fe5d4)" d="M 367.764292 354.556875 
L 371.298707 354.556875 
L 371.298707 288.860717 
L 367.764292 288.860717 
z
" style="fill:#55638a;"/>
   </g>
   <g id="patch_32">
    <path clip-path="url(#pce653fe5d4)" d="M 377.862621 354.556875 
L 381.397036 354.556875 
L 381.397036 290.288895 
L 377.862621 290.288895 
z
" style="fill:#55638a;"/>
   </g>
   <g id="patch_33">
    <path clip-path="url(#pce653fe5d4)" d="M 387.96095 354.556875 
L 391.495365 354.556875 
L 391.495365 271.722589 
L 387.96095 271.722589 
z
" style="fill:#55638a;"/>
   </g>
   <g id="patch_34">
    <path clip-path="url(#pce653fe5d4)" d="M 398.059279 354.556875 
L 401.593694 354.556875 
L 401.593694 248.157663 
L 398.059279 248.157663 
z
" style="fill:#55638a;"/>
   </g>
   <g id="patch_35">
    <path clip-path="url(#pce653fe5d4)" d="M 408.157608 354.556875 
L 411.692023 354.556875 
L 411.692023 254.584461 
L 408.157608 254.584461 
z
" style="fill:#55638a;"/>
   </g>
   <g id="patch_36">
    <path clip-path="url(#pce653fe5d4)" d="M 418.255937 354.556875 
L 421.790352 354.556875 
L 421.790352 251.014018 
L 418.255937 251.014018 
z
" style="fill:#55638a;"/>
   </g>
   <g id="patch_37">
    <path clip-path="url(#pce653fe5d4)" d="M 428.354266 354.556875 
L 431.888681 354.556875 
L 431.888681 247.443575 
L 428.354266 247.443575 
z
" style="fill:#55638a;"/>
   </g>
   <g id="patch_38">
    <path clip-path="url(#pce653fe5d4)" d="M 438.452595 354.556875 
L 441.98701 354.556875 
L 441.98701 231.733624 
L 438.452595 231.733624 
z
" style="fill:#55638a;"/>
   </g>
   <g id="patch_39">
    <path clip-path="url(#pce653fe5d4)" d="M 448.550924 354.556875 
L 452.085339 354.556875 
L 452.085339 222.450471 
L 448.550924 222.450471 
z
" style="fill:#55638a;"/>
   </g>
   <g id="patch_40">
    <path clip-path="url(#pce653fe5d4)" d="M 458.649253 354.556875 
L 462.183668 354.556875 
L 462.183668 188.174215 
L 458.649253 188.174215 
z
" style="fill:#55638a;"/>
   </g>
   <g id="patch_41">
    <path clip-path="url(#pce653fe5d4)" d="M 468.747582 354.556875 
L 472.281997 354.556875 
L 472.281997 186.746038 
L 468.747582 186.746038 
z
" style="fill:#55638a;"/>
   </g>
   <g id="patch_42">
    <path clip-path="url(#pce653fe5d4)" d="M 478.845911 354.556875 
L 482.380326 354.556875 
L 482.380326 189.602392 
L 478.845911 189.602392 
z
" style="fill:#55638a;"/>
   </g>
   <g id="patch_43">
    <path clip-path="url(#pce653fe5d4)" d="M 488.94424 354.556875 
L 492.478655 354.556875 
L 492.478655 174.60653 
L 488.94424 174.60653 
z
" style="fill:#55638a;"/>
   </g>
   <g id="patch_44">
    <path clip-path="url(#pce653fe5d4)" d="M 499.042569 354.556875 
L 502.576984 354.556875 
L 502.576984 138.902097 
L 499.042569 138.902097 
z
" style="fill:#55638a;"/>
   </g>
   <g id="patch_45">
    <path clip-path="url(#pce653fe5d4)" d="M 509.140898 354.556875 
L 512.675313 354.556875 
L 512.675313 154.612047 
L 509.140898 154.612047 
z
" style="fill:#55638a;"/>
   </g>
   <g id="patch_46">
    <path clip-path="url(#pce653fe5d4)" d="M 519.239227 354.556875 
L 522.773642 354.556875 
L 522.773642 123.906235 
L 519.239227 123.906235 
z
" style="fill:#55638a;"/>
   </g>
   <g id="patch_47">
    <path clip-path="url(#pce653fe5d4)" d="M 529.337556 354.556875 
L 532.871971 354.556875 
L 532.871971 123.192146 
L 529.337556 123.192146 
z
" style="fill:#55638a;"/>
   </g>
   <g id="patch_48">
    <path clip-path="url(#pce653fe5d4)" d="M 539.435885 354.556875 
L 542.9703 354.556875 
L 542.9703 131.76121 
L 539.435885 131.76121 
z
" style="fill:#55638a;"/>
   </g>
   <g id="patch_49">
    <path clip-path="url(#pce653fe5d4)" d="M 549.534214 354.556875 
L 553.068629 354.556875 
L 553.068629 85.345446 
L 549.534214 85.345446 
z
" style="fill:#55638a;"/>
   </g>
   <g id="patch_50">
    <path clip-path="url(#pce653fe5d4)" d="M 559.632543 354.556875 
L 563.166958 354.556875 
L 563.166958 86.059535 
L 559.632543 86.059535 
z
" style="fill:#55638a;"/>
   </g>
   <g id="patch_51">
    <path clip-path="url(#pce653fe5d4)" d="M 569.730872 354.556875 
L 573.265287 354.556875 
L 573.265287 76.776382 
L 569.730872 76.776382 
z
" style="fill:#55638a;"/>
   </g>
   <g id="patch_52">
    <path clip-path="url(#pce653fe5d4)" d="M 579.829201 354.556875 
L 583.363616 354.556875 
L 583.363616 68.921407 
L 579.829201 68.921407 
z
" style="fill:#55638a;"/>
   </g>
   <g id="patch_53">
    <path clip-path="url(#pce653fe5d4)" d="M 589.92753 354.556875 
L 593.461945 354.556875 
L 593.461945 58.210077 
L 589.92753 58.210077 
z
" style="fill:#55638a;"/>
   </g>
   <g id="patch_54">
    <path clip-path="url(#pce653fe5d4)" d="M 600.025859 354.556875 
L 603.560274 354.556875 
L 603.560274 73.205939 
L 600.025859 73.205939 
z
" style="fill:#55638a;"/>
   </g>
   <g id="patch_55">
    <path clip-path="url(#pce653fe5d4)" d="M 610.124188 354.556875 
L 613.658603 354.556875 
L 613.658603 103.911752 
L 610.124188 103.911752 
z
" style="fill:#55638a;"/>
   </g>
   <g id="patch_56">
    <path clip-path="url(#pce653fe5d4)" d="M 620.222517 354.556875 
L 623.756932 354.556875 
L 623.756932 132.475299 
L 620.222517 132.475299 
z
" style="fill:#55638a;"/>
   </g>
   <g id="patch_57">
    <path clip-path="url(#pce653fe5d4)" d="M 630.320846 354.556875 
L 633.855261 354.556875 
L 633.855261 161.038845 
L 630.320846 161.038845 
z
" style="fill:#55638a;"/>
   </g>
   <g id="patch_58">
    <path clip-path="url(#pce653fe5d4)" d="M 640.419175 354.556875 
L 643.95359 354.556875 
L 643.95359 147.471161 
L 640.419175 147.471161 
z
" style="fill:#55638a;"/>
   </g>
   <g id="patch_59">
    <path clip-path="url(#pce653fe5d4)" d="M 650.517504 354.556875 
L 654.051919 354.556875 
L 654.051919 131.76121 
L 650.517504 131.76121 
z
" style="fill:#55638a;"/>
   </g>
   <g id="patch_60">
    <path clip-path="url(#pce653fe5d4)" d="M 660.615833 354.556875 
L 664.150248 354.556875 
L 664.150248 208.168698 
L 660.615833 208.168698 
z
" style="fill:#55638a;"/>
   </g>
   <g id="patch_61">
    <path clip-path="url(#pce653fe5d4)" d="M 670.714162 354.556875 
L 674.248577 354.556875 
L 674.248577 223.16456 
L 670.714162 223.16456 
z
" style="fill:#55638a;"/>
   </g>
   <g id="patch_62">
    <path clip-path="url(#pce653fe5d4)" d="M 680.812491 354.556875 
L 684.346906 354.556875 
L 684.346906 273.864855 
L 680.812491 273.864855 
z
" style="fill:#55638a;"/>
   </g>
   <g id="patch_63">
    <path clip-path="url(#pce653fe5d4)" d="M 690.91082 354.556875 
L 694.445235 354.556875 
L 694.445235 271.722589 
L 690.91082 271.722589 
z
" style="fill:#55638a;"/>
   </g>
   <g id="patch_64">
    <path clip-path="url(#pce653fe5d4)" d="M 701.009149 354.556875 
L 704.543564 354.556875 
L 704.543564 270.294412 
L 701.009149 270.294412 
z
" style="fill:#55638a;"/>
   </g>
   <g id="patch_65">
    <path clip-path="url(#pce653fe5d4)" d="M 711.107478 354.556875 
L 714.641893 354.556875 
L 714.641893 287.43254 
L 711.107478 287.43254 
z
" style="fill:#55638a;"/>
   </g>
   <g id="patch_66">
    <path clip-path="url(#pce653fe5d4)" d="M 721.205807 354.556875 
L 724.740222 354.556875 
L 724.740222 303.142491 
L 721.205807 303.142491 
z
" style="fill:#55638a;"/>
   </g>
   <g id="patch_67">
    <path clip-path="url(#pce653fe5d4)" d="M 731.304136 354.556875 
L 734.838551 354.556875 
L 734.838551 321.708796 
L 731.304136 321.708796 
z
" style="fill:#55638a;"/>
   </g>
   <g id="patch_68">
    <path clip-path="url(#pce653fe5d4)" d="M 741.402465 354.556875 
L 744.93688 354.556875 
L 744.93688 318.852442 
L 741.402465 318.852442 
z
" style="fill:#55638a;"/>
   </g>
   <g id="patch_69">
    <path clip-path="url(#pce653fe5d4)" d="M 751.500794 354.556875 
L 755.035209 354.556875 
L 755.035209 333.134215 
L 751.500794 333.134215 
z
" style="fill:#55638a;"/>
   </g>
   <g id="patch_70">
    <path clip-path="url(#pce653fe5d4)" d="M 761.599123 354.556875 
L 765.133538 354.556875 
L 765.133538 337.418747 
L 761.599123 337.418747 
z
" style="fill:#55638a;"/>
   </g>
   <g id="patch_71">
    <path clip-path="url(#pce653fe5d4)" d="M 771.697452 354.556875 
L 775.231867 354.556875 
L 775.231867 349.558254 
L 771.697452 349.558254 
z
" style="fill:#55638a;"/>
   </g>
   <g id="patch_72">
    <path clip-path="url(#pce653fe5d4)" d="M 781.795781 354.556875 
L 785.330196 354.556875 
L 785.330196 348.844166 
L 781.795781 348.844166 
z
" style="fill:#55638a;"/>
   </g>
   <g id="patch_73">
    <path clip-path="url(#pce653fe5d4)" d="M 791.89411 354.556875 
L 795.428525 354.556875 
L 795.428525 353.128698 
L 791.89411 353.128698 
z
" style="fill:#55638a;"/>
   </g>
   <g id="patch_74">
    <path clip-path="url(#pce653fe5d4)" d="M 801.992439 354.556875 
L 805.526854 354.556875 
L 805.526854 351.70052 
L 801.992439 351.70052 
z
" style="fill:#55638a;"/>
   </g>
   <g id="patch_75">
    <path clip-path="url(#pce653fe5d4)" d="M 812.090768 354.556875 
L 815.625183 354.556875 
L 815.625183 353.842786 
L 812.090768 353.842786 
z
" style="fill:#55638a;"/>
   </g>
   <g id="patch_76">
    <path clip-path="url(#pce653fe5d4)" d="M 822.189097 354.556875 
L 825.723512 354.556875 
L 825.723512 353.128698 
L 822.189097 353.128698 
z
" style="fill:#55638a;"/>
   </g>
   <g id="patch_77">
    <path clip-path="url(#pce653fe5d4)" d="M 832.287426 354.556875 
L 835.821841 354.556875 
L 835.821841 352.414609 
L 832.287426 352.414609 
z
" style="fill:#55638a;"/>
   </g>
   <g id="patch_78">
    <path clip-path="url(#pce653fe5d4)" d="M 842.385755 354.556875 
L 845.92017 354.556875 
L 845.92017 350.272343 
L 842.385755 350.272343 
z
" style="fill:#55638a;"/>
   </g>
   <g id="patch_79">
    <path clip-path="url(#pce653fe5d4)" d="M 99.14874 354.556875 
L 102.683155 354.556875 
L 102.683155 353.842786 
L 99.14874 353.842786 
z
" style="fill:#9e1030;"/>
   </g>
   <g id="patch_80">
    <path clip-path="url(#pce653fe5d4)" d="M 109.247069 354.556875 
L 112.781484 354.556875 
L 112.781484 354.556875 
L 109.247069 354.556875 
z
" style="fill:#9e1030;"/>
   </g>
   <g id="patch_81">
    <path clip-path="url(#pce653fe5d4)" d="M 119.345398 354.556875 
L 122.879813 354.556875 
L 122.879813 353.842786 
L 119.345398 353.842786 
z
" style="fill:#9e1030;"/>
   </g>
   <g id="patch_82">
    <path clip-path="url(#pce653fe5d4)" d="M 129.443727 354.556875 
L 132.978142 354.556875 
L 132.978142 352.414609 
L 129.443727 352.414609 
z
" style="fill:#9e1030;"/>
   </g>
   <g id="patch_83">
    <path clip-path="url(#pce653fe5d4)" d="M 139.542056 354.556875 
L 143.076471 354.556875 
L 143.076471 350.272343 
L 139.542056 350.272343 
z
" style="fill:#9e1030;"/>
   </g>
   <g id="patch_84">
    <path clip-path="url(#pce653fe5d4)" d="M 149.640385 354.556875 
L 153.1748 354.556875 
L 153.1748 353.128698 
L 149.640385 353.128698 
z
" style="fill:#9e1030;"/>
   </g>
   <g id="patch_85">
    <path clip-path="url(#pce653fe5d4)" d="M 159.738714 354.556875 
L 163.273129 354.556875 
L 163.273129 350.986432 
L 159.738714 350.986432 
z
" style="fill:#9e1030;"/>
   </g>
   <g id="patch_86">
    <path clip-path="url(#pce653fe5d4)" d="M 169.837043 354.556875 
L 173.371458 354.556875 
L 173.371458 348.844166 
L 169.837043 348.844166 
z
" style="fill:#9e1030;"/>
   </g>
   <g id="patch_87">
    <path clip-path="url(#pce653fe5d4)" d="M 179.935372 354.556875 
L 183.469787 354.556875 
L 183.469787 348.844166 
L 179.935372 348.844166 
z
" style="fill:#9e1030;"/>
   </g>
   <g id="patch_88">
    <path clip-path="url(#pce653fe5d4)" d="M 190.033701 354.556875 
L 193.568116 354.556875 
L 193.568116 353.128698 
L 190.033701 353.128698 
z
" style="fill:#9e1030;"/>
   </g>
   <g id="patch_89">
    <path clip-path="url(#pce653fe5d4)" d="M 200.13203 354.556875 
L 203.666445 354.556875 
L 203.666445 345.987811 
L 200.13203 345.987811 
z
" style="fill:#9e1030;"/>
   </g>
   <g id="patch_90">
    <path clip-path="url(#pce653fe5d4)" d="M 210.230359 354.556875 
L 213.764774 354.556875 
L 213.764774 345.273722 
L 210.230359 345.273722 
z
" style="fill:#9e1030;"/>
   </g>
   <g id="patch_91">
    <path clip-path="url(#pce653fe5d4)" d="M 220.328688 354.556875 
L 223.863103 354.556875 
L 223.863103 340.275102 
L 220.328688 340.275102 
z
" style="fill:#9e1030;"/>
   </g>
   <g id="patch_92">
    <path clip-path="url(#pce653fe5d4)" d="M 230.427017 354.556875 
L 233.961432 354.556875 
L 233.961432 342.417368 
L 230.427017 342.417368 
z
" style="fill:#9e1030;"/>
   </g>
   <g id="patch_93">
    <path clip-path="url(#pce653fe5d4)" d="M 240.525346 354.556875 
L 244.059761 354.556875 
L 244.059761 340.98919 
L 240.525346 340.98919 
z
" style="fill:#9e1030;"/>
   </g>
   <g id="patch_94">
    <path clip-path="url(#pce653fe5d4)" d="M 250.623675 354.556875 
L 254.15809 354.556875 
L 254.15809 337.418747 
L 250.623675 337.418747 
z
" style="fill:#9e1030;"/>
   </g>
   <g id="patch_95">
    <path clip-path="url(#pce653fe5d4)" d="M 260.722004 354.556875 
L 264.256419 354.556875 
L 264.256419 338.846924 
L 260.722004 338.846924 
z
" style="fill:#9e1030;"/>
   </g>
   <g id="patch_96">
    <path clip-path="url(#pce653fe5d4)" d="M 270.820333 354.556875 
L 274.354748 354.556875 
L 274.354748 335.276481 
L 270.820333 335.276481 
z
" style="fill:#9e1030;"/>
   </g>
   <g id="patch_97">
    <path clip-path="url(#pce653fe5d4)" d="M 280.918662 354.556875 
L 284.453077 354.556875 
L 284.453077 337.418747 
L 280.918662 337.418747 
z
" style="fill:#9e1030;"/>
   </g>
   <g id="patch_98">
    <path clip-path="url(#pce653fe5d4)" d="M 291.016991 354.556875 
L 294.551407 354.556875 
L 294.551407 337.418747 
L 291.016991 337.418747 
z
" style="fill:#9e1030;"/>
   </g>
   <g id="patch_99">
    <path clip-path="url(#pce653fe5d4)" d="M 301.11532 354.556875 
L 304.649736 354.556875 
L 304.649736 331.706038 
L 301.11532 331.706038 
z
" style="fill:#9e1030;"/>
   </g>
   <g id="patch_100">
    <path clip-path="url(#pce653fe5d4)" d="M 311.213649 354.556875 
L 314.748065 354.556875 
L 314.748065 333.848304 
L 311.213649 333.848304 
z
" style="fill:#9e1030;"/>
   </g>
   <g id="patch_101">
    <path clip-path="url(#pce653fe5d4)" d="M 321.311978 354.556875 
L 324.846394 354.556875 
L 324.846394 337.418747 
L 321.311978 337.418747 
z
" style="fill:#9e1030;"/>
   </g>
   <g id="patch_102">
    <path clip-path="url(#pce653fe5d4)" d="M 331.410307 354.556875 
L 334.944723 354.556875 
L 334.944723 317.424264 
L 331.410307 317.424264 
z
" style="fill:#9e1030;"/>
   </g>
   <g id="patch_103">
    <path clip-path="url(#pce653fe5d4)" d="M 341.508636 354.556875 
L 345.043052 354.556875 
L 345.043052 325.993328 
L 341.508636 325.993328 
z
" style="fill:#9e1030;"/>
   </g>
   <g id="patch_104">
    <path clip-path="url(#pce653fe5d4)" d="M 351.606965 354.556875 
L 355.141381 354.556875 
L 355.141381 310.997466 
L 351.606965 310.997466 
z
" style="fill:#9e1030;"/>
   </g>
   <g id="patch_105">
    <path clip-path="url(#pce653fe5d4)" d="M 361.705294 354.556875 
L 365.23971 354.556875 
L 365.23971 320.280619 
L 361.705294 320.280619 
z
" style="fill:#9e1030;"/>
   </g>
   <g id="patch_106">
    <path clip-path="url(#pce653fe5d4)" d="M 371.803623 354.556875 
L 375.338039 354.556875 
L 375.338039 306.712934 
L 371.803623 306.712934 
z
" style="fill:#9e1030;"/>
   </g>
   <g id="patch_107">
    <path clip-path="url(#pce653fe5d4)" d="M 381.901952 354.556875 
L 385.436368 354.556875 
L 385.436368 300.286136 
L 381.901952 300.286136 
z
" style="fill:#9e1030;"/>
   </g>
   <g id="patch_108">
    <path clip-path="url(#pce653fe5d4)" d="M 392.000281 354.556875 
L 395.534697 354.556875 
L 395.534697 294.573427 
L 392.000281 294.573427 
z
" style="fill:#9e1030;"/>
   </g>
   <g id="patch_109">
    <path clip-path="url(#pce653fe5d4)" d="M 402.09861 354.556875 
L 405.633026 354.556875 
L 405.633026 289.574806 
L 402.09861 289.574806 
z
" style="fill:#9e1030;"/>
   </g>
   <g id="patch_110">
    <path clip-path="url(#pce653fe5d4)" d="M 412.196939 354.556875 
L 415.731355 354.556875 
L 415.731355 296.001604 
L 412.196939 296.001604 
z
" style="fill:#9e1030;"/>
   </g>
   <g id="patch_111">
    <path clip-path="url(#pce653fe5d4)" d="M 422.295268 354.556875 
L 425.829684 354.556875 
L 425.829684 279.577565 
L 422.295268 279.577565 
z
" style="fill:#9e1030;"/>
   </g>
   <g id="patch_112">
    <path clip-path="url(#pce653fe5d4)" d="M 432.393597 354.556875 
L 435.928013 354.556875 
L 435.928013 278.149387 
L 432.393597 278.149387 
z
" style="fill:#9e1030;"/>
   </g>
   <g id="patch_113">
    <path clip-path="url(#pce653fe5d4)" d="M 442.491927 354.556875 
L 446.026342 354.556875 
L 446.026342 283.862097 
L 442.491927 283.862097 
z
" style="fill:#9e1030;"/>
   </g>
   <g id="patch_114">
    <path clip-path="url(#pce653fe5d4)" d="M 452.590256 354.556875 
L 456.124671 354.556875 
L 456.124671 257.440816 
L 452.590256 257.440816 
z
" style="fill:#9e1030;"/>
   </g>
   <g id="patch_115">
    <path clip-path="url(#pce653fe5d4)" d="M 462.688585 354.556875 
L 466.223 354.556875 
L 466.223 261.725348 
L 462.688585 261.725348 
z
" style="fill:#9e1030;"/>
   </g>
   <g id="patch_116">
    <path clip-path="url(#pce653fe5d4)" d="M 472.786914 354.556875 
L 476.321329 354.556875 
L 476.321329 226.735003 
L 472.786914 226.735003 
z
" style="fill:#9e1030;"/>
   </g>
   <g id="patch_117">
    <path clip-path="url(#pce653fe5d4)" d="M 482.885243 354.556875 
L 486.419658 354.556875 
L 486.419658 236.732244 
L 482.885243 236.732244 
z
" style="fill:#9e1030;"/>
   </g>
   <g id="patch_118">
    <path clip-path="url(#pce653fe5d4)" d="M 492.983572 354.556875 
L 496.517987 354.556875 
L 496.517987 253.870373 
L 492.983572 253.870373 
z
" style="fill:#9e1030;"/>
   </g>
   <g id="patch_119">
    <path clip-path="url(#pce653fe5d4)" d="M 503.081901 354.556875 
L 506.616316 354.556875 
L 506.616316 218.165939 
L 503.081901 218.165939 
z
" style="fill:#9e1030;"/>
   </g>
   <g id="patch_120">
    <path clip-path="url(#pce653fe5d4)" d="M 513.18023 354.556875 
L 516.714645 354.556875 
L 516.714645 201.7419 
L 513.18023 201.7419 
z
" style="fill:#9e1030;"/>
   </g>
   <g id="patch_121">
    <path clip-path="url(#pce653fe5d4)" d="M 523.278559 354.556875 
L 526.812974 354.556875 
L 526.812974 196.743279 
L 523.278559 196.743279 
z
" style="fill:#9e1030;"/>
   </g>
   <g id="patch_122">
    <path clip-path="url(#pce653fe5d4)" d="M 533.376888 354.556875 
L 536.911303 354.556875 
L 536.911303 209.596875 
L 533.376888 209.596875 
z
" style="fill:#9e1030;"/>
   </g>
   <g id="patch_123">
    <path clip-path="url(#pce653fe5d4)" d="M 543.475217 354.556875 
L 547.009632 354.556875 
L 547.009632 216.737762 
L 543.475217 216.737762 
z
" style="fill:#9e1030;"/>
   </g>
   <g id="patch_124">
    <path clip-path="url(#pce653fe5d4)" d="M 553.573546 354.556875 
L 557.107961 354.556875 
L 557.107961 170.321998 
L 553.573546 170.321998 
z
" style="fill:#9e1030;"/>
   </g>
   <g id="patch_125">
    <path clip-path="url(#pce653fe5d4)" d="M 563.671875 354.556875 
L 567.20629 354.556875 
L 567.20629 183.175594 
L 563.671875 183.175594 
z
" style="fill:#9e1030;"/>
   </g>
   <g id="patch_126">
    <path clip-path="url(#pce653fe5d4)" d="M 573.770204 354.556875 
L 577.304619 354.556875 
L 577.304619 174.60653 
L 573.770204 174.60653 
z
" style="fill:#9e1030;"/>
   </g>
   <g id="patch_127">
    <path clip-path="url(#pce653fe5d4)" d="M 583.868533 354.556875 
L 587.402948 354.556875 
L 587.402948 143.900717 
L 583.868533 143.900717 
z
" style="fill:#9e1030;"/>
   </g>
   <g id="patch_128">
    <path clip-path="url(#pce653fe5d4)" d="M 593.966862 354.556875 
L 597.501277 354.556875 
L 597.501277 173.892442 
L 593.966862 173.892442 
z
" style="fill:#9e1030;"/>
   </g>
   <g id="patch_129">
    <path clip-path="url(#pce653fe5d4)" d="M 604.065191 354.556875 
L 607.599606 354.556875 
L 607.599606 153.897959 
L 604.065191 153.897959 
z
" style="fill:#9e1030;"/>
   </g>
   <g id="patch_130">
    <path clip-path="url(#pce653fe5d4)" d="M 614.16352 354.556875 
L 617.697935 354.556875 
L 617.697935 182.461506 
L 614.16352 182.461506 
z
" style="fill:#9e1030;"/>
   </g>
   <g id="patch_131">
    <path clip-path="url(#pce653fe5d4)" d="M 624.261849 354.556875 
L 627.796264 354.556875 
L 627.796264 196.743279 
L 624.261849 196.743279 
z
" style="fill:#9e1030;"/>
   </g>
   <g id="patch_132">
    <path clip-path="url(#pce653fe5d4)" d="M 634.360178 354.556875 
L 637.894593 354.556875 
L 637.894593 221.736382 
L 634.360178 221.736382 
z
" style="fill:#9e1030;"/>
   </g>
   <g id="patch_133">
    <path clip-path="url(#pce653fe5d4)" d="M 644.458507 354.556875 
L 647.992922 354.556875 
L 647.992922 225.306826 
L 644.458507 225.306826 
z
" style="fill:#9e1030;"/>
   </g>
   <g id="patch_134">
    <path clip-path="url(#pce653fe5d4)" d="M 654.556836 354.556875 
L 658.091251 354.556875 
L 658.091251 207.454609 
L 654.556836 207.454609 
z
" style="fill:#9e1030;"/>
   </g>
   <g id="patch_135">
    <path clip-path="url(#pce653fe5d4)" d="M 664.655165 354.556875 
L 668.18958 354.556875 
L 668.18958 258.868993 
L 664.655165 258.868993 
z
" style="fill:#9e1030;"/>
   </g>
   <g id="patch_136">
    <path clip-path="url(#pce653fe5d4)" d="M 674.753494 354.556875 
L 678.287909 354.556875 
L 678.287909 261.011259 
L 674.753494 261.011259 
z
" style="fill:#9e1030;"/>
   </g>
   <g id="patch_137">
    <path clip-path="url(#pce653fe5d4)" d="M 684.851823 354.556875 
L 688.386238 354.556875 
L 688.386238 300.286136 
L 684.851823 300.286136 
z
" style="fill:#9e1030;"/>
   </g>
   <g id="patch_138">
    <path clip-path="url(#pce653fe5d4)" d="M 694.950152 354.556875 
L 698.484567 354.556875 
L 698.484567 299.572047 
L 694.950152 299.572047 
z
" style="fill:#9e1030;"/>
   </g>
   <g id="patch_139">
    <path clip-path="url(#pce653fe5d4)" d="M 705.048481 354.556875 
L 708.582896 354.556875 
L 708.582896 297.429781 
L 705.048481 297.429781 
z
" style="fill:#9e1030;"/>
   </g>
   <g id="patch_140">
    <path clip-path="url(#pce653fe5d4)" d="M 715.14681 354.556875 
L 718.681225 354.556875 
L 718.681225 307.427023 
L 715.14681 307.427023 
z
" style="fill:#9e1030;"/>
   </g>
   <g id="patch_141">
    <path clip-path="url(#pce653fe5d4)" d="M 725.245139 354.556875 
L 728.779554 354.556875 
L 728.779554 311.711555 
L 725.245139 311.711555 
z
" style="fill:#9e1030;"/>
   </g>
   <g id="patch_142">
    <path clip-path="url(#pce653fe5d4)" d="M 735.343468 354.556875 
L 738.877883 354.556875 
L 738.877883 326.707417 
L 735.343468 326.707417 
z
" style="fill:#9e1030;"/>
   </g>
   <g id="patch_143">
    <path clip-path="url(#pce653fe5d4)" d="M 745.441797 354.556875 
L 748.976212 354.556875 
L 748.976212 337.418747 
L 745.441797 337.418747 
z
" style="fill:#9e1030;"/>
   </g>
   <g id="patch_144">
    <path clip-path="url(#pce653fe5d4)" d="M 755.540126 354.556875 
L 759.074541 354.556875 
L 759.074541 337.418747 
L 755.540126 337.418747 
z
" style="fill:#9e1030;"/>
   </g>
   <g id="patch_145">
    <path clip-path="url(#pce653fe5d4)" d="M 765.638455 354.556875 
L 769.17287 354.556875 
L 769.17287 341.703279 
L 765.638455 341.703279 
z
" style="fill:#9e1030;"/>
   </g>
   <g id="patch_146">
    <path clip-path="url(#pce653fe5d4)" d="M 775.736784 354.556875 
L 779.271199 354.556875 
L 779.271199 350.986432 
L 775.736784 350.986432 
z
" style="fill:#9e1030;"/>
   </g>
   <g id="patch_147">
    <path clip-path="url(#pce653fe5d4)" d="M 785.835113 354.556875 
L 789.369528 354.556875 
L 789.369528 350.986432 
L 785.835113 350.986432 
z
" style="fill:#9e1030;"/>
   </g>
   <g id="patch_148">
    <path clip-path="url(#pce653fe5d4)" d="M 795.933442 354.556875 
L 799.467857 354.556875 
L 799.467857 349.558254 
L 795.933442 349.558254 
z
" style="fill:#9e1030;"/>
   </g>
   <g id="patch_149">
    <path clip-path="url(#pce653fe5d4)" d="M 806.031771 354.556875 
L 809.566186 354.556875 
L 809.566186 349.558254 
L 806.031771 349.558254 
z
" style="fill:#9e1030;"/>
   </g>
   <g id="patch_150">
    <path clip-path="url(#pce653fe5d4)" d="M 816.1301 354.556875 
L 819.664515 354.556875 
L 819.664515 353.842786 
L 816.1301 353.842786 
z
" style="fill:#9e1030;"/>
   </g>
   <g id="patch_151">
    <path clip-path="url(#pce653fe5d4)" d="M 826.228429 354.556875 
L 829.762844 354.556875 
L 829.762844 353.842786 
L 826.228429 353.842786 
z
" style="fill:#9e1030;"/>
   </g>
   <g id="patch_152">
    <path clip-path="url(#pce653fe5d4)" d="M 836.326758 354.556875 
L 839.861173 354.556875 
L 839.861173 353.842786 
L 836.326758 353.842786 
z
" style="fill:#9e1030;"/>
   </g>
   <g id="matplotlib.axis_1">
    <g id="xtick_1">
     <g id="line2d_1">
      <defs>
       <path d="M 0 0 
L 0 3.5 
" id="mbae1f03b4f" style="stroke:#000000;stroke-width:0.8;"/>
      </defs>
      <g>
       <use style="stroke:#000000;stroke-width:0.8;" x="137.269932" xlink:href="#mbae1f03b4f" y="354.556875"/>
      </g>
     </g>
     <g id="text_1">
      <!-- 2 -->
      <defs>
       <path d="M 19.1875 8.296875 
L 53.609375 8.296875 
L 53.609375 0 
L 7.328125 0 
L 7.328125 8.296875 
Q 12.9375 14.109375 22.625 23.890625 
Q 32.328125 33.6875 34.8125 36.53125 
Q 39.546875 41.84375 41.421875 45.53125 
Q 43.3125 49.21875 43.3125 52.78125 
Q 43.3125 58.59375 39.234375 62.25 
Q 35.15625 65.921875 28.609375 65.921875 
Q 23.96875 65.921875 18.8125 64.3125 
Q 13.671875 62.703125 7.8125 59.421875 
L 7.8125 69.390625 
Q 13.765625 71.78125 18.9375 73 
Q 24.125 74.21875 28.421875 74.21875 
Q 39.75 74.21875 46.484375 68.546875 
Q 53.21875 62.890625 53.21875 53.421875 
Q 53.21875 48.921875 51.53125 44.890625 
Q 49.859375 40.875 45.40625 35.40625 
Q 44.1875 33.984375 37.640625 27.21875 
Q 31.109375 20.453125 19.1875 8.296875 
z
" id="DejaVuSans-32"/>
      </defs>
      <g transform="translate(134.088682 369.155312)scale(0.1 -0.1)">
       <use xlink:href="#DejaVuSans-32"/>
      </g>
     </g>
    </g>
    <g id="xtick_2">
     <g id="line2d_2">
      <g>
       <use style="stroke:#000000;stroke-width:0.8;" x="238.253222" xlink:href="#mbae1f03b4f" y="354.556875"/>
      </g>
     </g>
     <g id="text_2">
      <!-- 3 -->
      <defs>
       <path d="M 40.578125 39.3125 
Q 47.65625 37.796875 51.625 33 
Q 55.609375 28.21875 55.609375 21.1875 
Q 55.609375 10.40625 48.1875 4.484375 
Q 40.765625 -1.421875 27.09375 -1.421875 
Q 22.515625 -1.421875 17.65625 -0.515625 
Q 12.796875 0.390625 7.625 2.203125 
L 7.625 11.71875 
Q 11.71875 9.328125 16.59375 8.109375 
Q 21.484375 6.890625 26.8125 6.890625 
Q 36.078125 6.890625 40.9375 10.546875 
Q 45.796875 14.203125 45.796875 21.1875 
Q 45.796875 27.640625 41.28125 31.265625 
Q 36.765625 34.90625 28.71875 34.90625 
L 20.21875 34.90625 
L 20.21875 43.015625 
L 29.109375 43.015625 
Q 36.375 43.015625 40.234375 45.921875 
Q 44.09375 48.828125 44.09375 54.296875 
Q 44.09375 59.90625 40.109375 62.90625 
Q 36.140625 65.921875 28.71875 65.921875 
Q 24.65625 65.921875 20.015625 65.03125 
Q 15.375 64.15625 9.8125 62.3125 
L 9.8125 71.09375 
Q 15.4375 72.65625 20.34375 73.4375 
Q 25.25 74.21875 29.59375 74.21875 
Q 40.828125 74.21875 47.359375 69.109375 
Q 53.90625 64.015625 53.90625 55.328125 
Q 53.90625 49.265625 50.4375 45.09375 
Q 46.96875 40.921875 40.578125 39.3125 
z
" id="DejaVuSans-33"/>
      </defs>
      <g transform="translate(235.071972 369.155312)scale(0.1 -0.1)">
       <use xlink:href="#DejaVuSans-33"/>
      </g>
     </g>
    </g>
    <g id="xtick_3">
     <g id="line2d_3">
      <g>
       <use style="stroke:#000000;stroke-width:0.8;" x="339.236512" xlink:href="#mbae1f03b4f" y="354.556875"/>
      </g>
     </g>
     <g id="text_3">
      <!-- 4 -->
      <defs>
       <path d="M 37.796875 64.3125 
L 12.890625 25.390625 
L 37.796875 25.390625 
z
M 35.203125 72.90625 
L 47.609375 72.90625 
L 47.609375 25.390625 
L 58.015625 25.390625 
L 58.015625 17.1875 
L 47.609375 17.1875 
L 47.609375 0 
L 37.796875 0 
L 37.796875 17.1875 
L 4.890625 17.1875 
L 4.890625 26.703125 
z
" id="DejaVuSans-34"/>
      </defs>
      <g transform="translate(336.055262 369.155312)scale(0.1 -0.1)">
       <use xlink:href="#DejaVuSans-34"/>
      </g>
     </g>
    </g>
    <g id="xtick_4">
     <g id="line2d_4">
      <g>
       <use style="stroke:#000000;stroke-width:0.8;" x="440.219802" xlink:href="#mbae1f03b4f" y="354.556875"/>
      </g>
     </g>
     <g id="text_4">
      <!-- 5 -->
      <defs>
       <path d="M 10.796875 72.90625 
L 49.515625 72.90625 
L 49.515625 64.59375 
L 19.828125 64.59375 
L 19.828125 46.734375 
Q 21.96875 47.46875 24.109375 47.828125 
Q 26.265625 48.1875 28.421875 48.1875 
Q 40.625 48.1875 47.75 41.5 
Q 54.890625 34.8125 54.890625 23.390625 
Q 54.890625 11.625 47.5625 5.09375 
Q 40.234375 -1.421875 26.90625 -1.421875 
Q 22.3125 -1.421875 17.546875 -0.640625 
Q 12.796875 0.140625 7.71875 1.703125 
L 7.71875 11.625 
Q 12.109375 9.234375 16.796875 8.0625 
Q 21.484375 6.890625 26.703125 6.890625 
Q 35.15625 6.890625 40.078125 11.328125 
Q 45.015625 15.765625 45.015625 23.390625 
Q 45.015625 31 40.078125 35.4375 
Q 35.15625 39.890625 26.703125 39.890625 
Q 22.75 39.890625 18.8125 39.015625 
Q 14.890625 38.140625 10.796875 36.28125 
z
" id="DejaVuSans-35"/>
      </defs>
      <g transform="translate(437.038552 369.155312)scale(0.1 -0.1)">
       <use xlink:href="#DejaVuSans-35"/>
      </g>
     </g>
    </g>
    <g id="xtick_5">
     <g id="line2d_5">
      <g>
       <use style="stroke:#000000;stroke-width:0.8;" x="541.203093" xlink:href="#mbae1f03b4f" y="354.556875"/>
      </g>
     </g>
     <g id="text_5">
      <!-- 6 -->
      <defs>
       <path d="M 33.015625 40.375 
Q 26.375 40.375 22.484375 35.828125 
Q 18.609375 31.296875 18.609375 23.390625 
Q 18.609375 15.53125 22.484375 10.953125 
Q 26.375 6.390625 33.015625 6.390625 
Q 39.65625 6.390625 43.53125 10.953125 
Q 47.40625 15.53125 47.40625 23.390625 
Q 47.40625 31.296875 43.53125 35.828125 
Q 39.65625 40.375 33.015625 40.375 
z
M 52.59375 71.296875 
L 52.59375 62.3125 
Q 48.875 64.0625 45.09375 64.984375 
Q 41.3125 65.921875 37.59375 65.921875 
Q 27.828125 65.921875 22.671875 59.328125 
Q 17.53125 52.734375 16.796875 39.40625 
Q 19.671875 43.65625 24.015625 45.921875 
Q 28.375 48.1875 33.59375 48.1875 
Q 44.578125 48.1875 50.953125 41.515625 
Q 57.328125 34.859375 57.328125 23.390625 
Q 57.328125 12.15625 50.6875 5.359375 
Q 44.046875 -1.421875 33.015625 -1.421875 
Q 20.359375 -1.421875 13.671875 8.265625 
Q 6.984375 17.96875 6.984375 36.375 
Q 6.984375 53.65625 15.1875 63.9375 
Q 23.390625 74.21875 37.203125 74.21875 
Q 40.921875 74.21875 44.703125 73.484375 
Q 48.484375 72.75 52.59375 71.296875 
z
" id="DejaVuSans-36"/>
      </defs>
      <g transform="translate(538.021843 369.155312)scale(0.1 -0.1)">
       <use xlink:href="#DejaVuSans-36"/>
      </g>
     </g>
    </g>
    <g id="xtick_6">
     <g id="line2d_6">
      <g>
       <use style="stroke:#000000;stroke-width:0.8;" x="642.186383" xlink:href="#mbae1f03b4f" y="354.556875"/>
      </g>
     </g>
     <g id="text_6">
      <!-- 7 -->
      <defs>
       <path d="M 8.203125 72.90625 
L 55.078125 72.90625 
L 55.078125 68.703125 
L 28.609375 0 
L 18.3125 0 
L 43.21875 64.59375 
L 8.203125 64.59375 
z
" id="DejaVuSans-37"/>
      </defs>
      <g transform="translate(639.005133 369.155312)scale(0.1 -0.1)">
       <use xlink:href="#DejaVuSans-37"/>
      </g>
     </g>
    </g>
    <g id="xtick_7">
     <g id="line2d_7">
      <g>
       <use style="stroke:#000000;stroke-width:0.8;" x="743.169673" xlink:href="#mbae1f03b4f" y="354.556875"/>
      </g>
     </g>
     <g id="text_7">
      <!-- 8 -->
      <defs>
       <path d="M 31.78125 34.625 
Q 24.75 34.625 20.71875 30.859375 
Q 16.703125 27.09375 16.703125 20.515625 
Q 16.703125 13.921875 20.71875 10.15625 
Q 24.75 6.390625 31.78125 6.390625 
Q 38.8125 6.390625 42.859375 10.171875 
Q 46.921875 13.96875 46.921875 20.515625 
Q 46.921875 27.09375 42.890625 30.859375 
Q 38.875 34.625 31.78125 34.625 
z
M 21.921875 38.8125 
Q 15.578125 40.375 12.03125 44.71875 
Q 8.5 49.078125 8.5 55.328125 
Q 8.5 64.0625 14.71875 69.140625 
Q 20.953125 74.21875 31.78125 74.21875 
Q 42.671875 74.21875 48.875 69.140625 
Q 55.078125 64.0625 55.078125 55.328125 
Q 55.078125 49.078125 51.53125 44.71875 
Q 48 40.375 41.703125 38.8125 
Q 48.828125 37.15625 52.796875 32.3125 
Q 56.78125 27.484375 56.78125 20.515625 
Q 56.78125 9.90625 50.3125 4.234375 
Q 43.84375 -1.421875 31.78125 -1.421875 
Q 19.734375 -1.421875 13.25 4.234375 
Q 6.78125 9.90625 6.78125 20.515625 
Q 6.78125 27.484375 10.78125 32.3125 
Q 14.796875 37.15625 21.921875 38.8125 
z
M 18.3125 54.390625 
Q 18.3125 48.734375 21.84375 45.5625 
Q 25.390625 42.390625 31.78125 42.390625 
Q 38.140625 42.390625 41.71875 45.5625 
Q 45.3125 48.734375 45.3125 54.390625 
Q 45.3125 60.0625 41.71875 63.234375 
Q 38.140625 66.40625 31.78125 66.40625 
Q 25.390625 66.40625 21.84375 63.234375 
Q 18.3125 60.0625 18.3125 54.390625 
z
" id="DejaVuSans-38"/>
      </defs>
      <g transform="translate(739.988423 369.155312)scale(0.1 -0.1)">
       <use xlink:href="#DejaVuSans-38"/>
      </g>
     </g>
    </g>
    <g id="xtick_8">
     <g id="line2d_8">
      <g>
       <use style="stroke:#000000;stroke-width:0.8;" x="844.152963" xlink:href="#mbae1f03b4f" y="354.556875"/>
      </g>
     </g>
     <g id="text_8">
      <!-- 9 -->
      <defs>
       <path d="M 10.984375 1.515625 
L 10.984375 10.5 
Q 14.703125 8.734375 18.5 7.8125 
Q 22.3125 6.890625 25.984375 6.890625 
Q 35.75 6.890625 40.890625 13.453125 
Q 46.046875 20.015625 46.78125 33.40625 
Q 43.953125 29.203125 39.59375 26.953125 
Q 35.25 24.703125 29.984375 24.703125 
Q 19.046875 24.703125 12.671875 31.3125 
Q 6.296875 37.9375 6.296875 49.421875 
Q 6.296875 60.640625 12.9375 67.421875 
Q 19.578125 74.21875 30.609375 74.21875 
Q 43.265625 74.21875 49.921875 64.515625 
Q 56.59375 54.828125 56.59375 36.375 
Q 56.59375 19.140625 48.40625 8.859375 
Q 40.234375 -1.421875 26.421875 -1.421875 
Q 22.703125 -1.421875 18.890625 -0.6875 
Q 15.09375 0.046875 10.984375 1.515625 
z
M 30.609375 32.421875 
Q 37.25 32.421875 41.125 36.953125 
Q 45.015625 41.5 45.015625 49.421875 
Q 45.015625 57.28125 41.125 61.84375 
Q 37.25 66.40625 30.609375 66.40625 
Q 23.96875 66.40625 20.09375 61.84375 
Q 16.21875 57.28125 16.21875 49.421875 
Q 16.21875 41.5 20.09375 36.953125 
Q 23.96875 32.421875 30.609375 32.421875 
z
" id="DejaVuSans-39"/>
      </defs>
      <g transform="translate(840.971713 369.155312)scale(0.1 -0.1)">
       <use xlink:href="#DejaVuSans-39"/>
      </g>
     </g>
    </g>
    <g id="text_9">
     <!-- Degrees -->
     <defs>
      <path d="M 19.671875 64.796875 
L 19.671875 8.109375 
L 31.59375 8.109375 
Q 46.6875 8.109375 53.6875 14.9375 
Q 60.6875 21.78125 60.6875 36.53125 
Q 60.6875 51.171875 53.6875 57.984375 
Q 46.6875 64.796875 31.59375 64.796875 
z
M 9.8125 72.90625 
L 30.078125 72.90625 
Q 51.265625 72.90625 61.171875 64.09375 
Q 71.09375 55.28125 71.09375 36.53125 
Q 71.09375 17.671875 61.125 8.828125 
Q 51.171875 0 30.078125 0 
L 9.8125 0 
z
" id="DejaVuSans-44"/>
      <path d="M 56.203125 29.59375 
L 56.203125 25.203125 
L 14.890625 25.203125 
Q 15.484375 15.921875 20.484375 11.0625 
Q 25.484375 6.203125 34.421875 6.203125 
Q 39.59375 6.203125 44.453125 7.46875 
Q 49.3125 8.734375 54.109375 11.28125 
L 54.109375 2.78125 
Q 49.265625 0.734375 44.1875 -0.34375 
Q 39.109375 -1.421875 33.890625 -1.421875 
Q 20.796875 -1.421875 13.15625 6.1875 
Q 5.515625 13.8125 5.515625 26.8125 
Q 5.515625 40.234375 12.765625 48.109375 
Q 20.015625 56 32.328125 56 
Q 43.359375 56 49.78125 48.890625 
Q 56.203125 41.796875 56.203125 29.59375 
z
M 47.21875 32.234375 
Q 47.125 39.59375 43.09375 43.984375 
Q 39.0625 48.390625 32.421875 48.390625 
Q 24.90625 48.390625 20.390625 44.140625 
Q 15.875 39.890625 15.1875 32.171875 
z
" id="DejaVuSans-65"/>
      <path d="M 45.40625 27.984375 
Q 45.40625 37.75 41.375 43.109375 
Q 37.359375 48.484375 30.078125 48.484375 
Q 22.859375 48.484375 18.828125 43.109375 
Q 14.796875 37.75 14.796875 27.984375 
Q 14.796875 18.265625 18.828125 12.890625 
Q 22.859375 7.515625 30.078125 7.515625 
Q 37.359375 7.515625 41.375 12.890625 
Q 45.40625 18.265625 45.40625 27.984375 
z
M 54.390625 6.78125 
Q 54.390625 -7.171875 48.1875 -13.984375 
Q 42 -20.796875 29.203125 -20.796875 
Q 24.46875 -20.796875 20.265625 -20.09375 
Q 16.0625 -19.390625 12.109375 -17.921875 
L 12.109375 -9.1875 
Q 16.0625 -11.328125 19.921875 -12.34375 
Q 23.78125 -13.375 27.78125 -13.375 
Q 36.625 -13.375 41.015625 -8.765625 
Q 45.40625 -4.15625 45.40625 5.171875 
L 45.40625 9.625 
Q 42.625 4.78125 38.28125 2.390625 
Q 33.9375 0 27.875 0 
Q 17.828125 0 11.671875 7.65625 
Q 5.515625 15.328125 5.515625 27.984375 
Q 5.515625 40.671875 11.671875 48.328125 
Q 17.828125 56 27.875 56 
Q 33.9375 56 38.28125 53.609375 
Q 42.625 51.21875 45.40625 46.390625 
L 45.40625 54.6875 
L 54.390625 54.6875 
z
" id="DejaVuSans-67"/>
      <path d="M 41.109375 46.296875 
Q 39.59375 47.171875 37.8125 47.578125 
Q 36.03125 48 33.890625 48 
Q 26.265625 48 22.1875 43.046875 
Q 18.109375 38.09375 18.109375 28.8125 
L 18.109375 0 
L 9.078125 0 
L 9.078125 54.6875 
L 18.109375 54.6875 
L 18.109375 46.1875 
Q 20.953125 51.171875 25.484375 53.578125 
Q 30.03125 56 36.53125 56 
Q 37.453125 56 38.578125 55.875 
Q 39.703125 55.765625 41.0625 55.515625 
z
" id="DejaVuSans-72"/>
      <path d="M 44.28125 53.078125 
L 44.28125 44.578125 
Q 40.484375 46.53125 36.375 47.5 
Q 32.28125 48.484375 27.875 48.484375 
Q 21.1875 48.484375 17.84375 46.4375 
Q 14.5 44.390625 14.5 40.28125 
Q 14.5 37.15625 16.890625 35.375 
Q 19.28125 33.59375 26.515625 31.984375 
L 29.59375 31.296875 
Q 39.15625 29.25 43.1875 25.515625 
Q 47.21875 21.78125 47.21875 15.09375 
Q 47.21875 7.46875 41.1875 3.015625 
Q 35.15625 -1.421875 24.609375 -1.421875 
Q 20.21875 -1.421875 15.453125 -0.5625 
Q 10.6875 0.296875 5.421875 2 
L 5.421875 11.28125 
Q 10.40625 8.6875 15.234375 7.390625 
Q 20.0625 6.109375 24.8125 6.109375 
Q 31.15625 6.109375 34.5625 8.28125 
Q 37.984375 10.453125 37.984375 14.40625 
Q 37.984375 18.0625 35.515625 20.015625 
Q 33.0625 21.96875 24.703125 23.78125 
L 21.578125 24.515625 
Q 13.234375 26.265625 9.515625 29.90625 
Q 5.8125 33.546875 5.8125 39.890625 
Q 5.8125 47.609375 11.28125 51.796875 
Q 16.75 56 26.8125 56 
Q 31.78125 56 36.171875 55.265625 
Q 40.578125 54.546875 44.28125 53.078125 
z
" id="DejaVuSans-73"/>
     </defs>
     <g transform="translate(444.553125 382.833437)scale(0.1 -0.1)">
      <use xlink:href="#DejaVuSans-44"/>
      <use x="77.001953" xlink:href="#DejaVuSans-65"/>
      <use x="138.525391" xlink:href="#DejaVuSans-67"/>
      <use x="202.001953" xlink:href="#DejaVuSans-72"/>
      <use x="243.083984" xlink:href="#DejaVuSans-65"/>
      <use x="304.607422" xlink:href="#DejaVuSans-65"/>
      <use x="366.130859" xlink:href="#DejaVuSans-73"/>
     </g>
    </g>
   </g>
   <g id="matplotlib.axis_2">
    <g id="ytick_1">
     <g id="line2d_9">
      <defs>
       <path d="M 0 0 
L -3.5 0 
" id="m93b4bef490" style="stroke:#000000;stroke-width:0.8;"/>
      </defs>
      <g>
       <use style="stroke:#000000;stroke-width:0.8;" x="46.965625" xlink:href="#m93b4bef490" y="354.556875"/>
      </g>
     </g>
     <g id="text_10">
      <!-- 0 -->
      <defs>
       <path d="M 31.78125 66.40625 
Q 24.171875 66.40625 20.328125 58.90625 
Q 16.5 51.421875 16.5 36.375 
Q 16.5 21.390625 20.328125 13.890625 
Q 24.171875 6.390625 31.78125 6.390625 
Q 39.453125 6.390625 43.28125 13.890625 
Q 47.125 21.390625 47.125 36.375 
Q 47.125 51.421875 43.28125 58.90625 
Q 39.453125 66.40625 31.78125 66.40625 
z
M 31.78125 74.21875 
Q 44.046875 74.21875 50.515625 64.515625 
Q 56.984375 54.828125 56.984375 36.375 
Q 56.984375 17.96875 50.515625 8.265625 
Q 44.046875 -1.421875 31.78125 -1.421875 
Q 19.53125 -1.421875 13.0625 8.265625 
Q 6.59375 17.96875 6.59375 36.375 
Q 6.59375 54.828125 13.0625 64.515625 
Q 19.53125 74.21875 31.78125 74.21875 
z
" id="DejaVuSans-30"/>
      </defs>
      <g transform="translate(33.603125 358.356094)scale(0.1 -0.1)">
       <use xlink:href="#DejaVuSans-30"/>
      </g>
     </g>
    </g>
    <g id="ytick_2">
     <g id="line2d_10">
      <g>
       <use style="stroke:#000000;stroke-width:0.8;" x="46.965625" xlink:href="#m93b4bef490" y="283.148008"/>
      </g>
     </g>
     <g id="text_11">
      <!-- 100 -->
      <defs>
       <path d="M 12.40625 8.296875 
L 28.515625 8.296875 
L 28.515625 63.921875 
L 10.984375 60.40625 
L 10.984375 69.390625 
L 28.421875 72.90625 
L 38.28125 72.90625 
L 38.28125 8.296875 
L 54.390625 8.296875 
L 54.390625 0 
L 12.40625 0 
z
" id="DejaVuSans-31"/>
      </defs>
      <g transform="translate(20.878125 286.947227)scale(0.1 -0.1)">
       <use xlink:href="#DejaVuSans-31"/>
       <use x="63.623047" xlink:href="#DejaVuSans-30"/>
       <use x="127.246094" xlink:href="#DejaVuSans-30"/>
      </g>
     </g>
    </g>
    <g id="ytick_3">
     <g id="line2d_11">
      <g>
       <use style="stroke:#000000;stroke-width:0.8;" x="46.965625" xlink:href="#m93b4bef490" y="211.739141"/>
      </g>
     </g>
     <g id="text_12">
      <!-- 200 -->
      <g transform="translate(20.878125 215.53836)scale(0.1 -0.1)">
       <use xlink:href="#DejaVuSans-32"/>
       <use x="63.623047" xlink:href="#DejaVuSans-30"/>
       <use x="127.246094" xlink:href="#DejaVuSans-30"/>
      </g>
     </g>
    </g>
    <g id="ytick_4">
     <g id="line2d_12">
      <g>
       <use style="stroke:#000000;stroke-width:0.8;" x="46.965625" xlink:href="#m93b4bef490" y="140.330274"/>
      </g>
     </g>
     <g id="text_13">
      <!-- 300 -->
      <g transform="translate(20.878125 144.129493)scale(0.1 -0.1)">
       <use xlink:href="#DejaVuSans-33"/>
       <use x="63.623047" xlink:href="#DejaVuSans-30"/>
       <use x="127.246094" xlink:href="#DejaVuSans-30"/>
      </g>
     </g>
    </g>
    <g id="ytick_5">
     <g id="line2d_13">
      <g>
       <use style="stroke:#000000;stroke-width:0.8;" x="46.965625" xlink:href="#m93b4bef490" y="68.921407"/>
      </g>
     </g>
     <g id="text_14">
      <!-- 400 -->
      <g transform="translate(20.878125 72.720626)scale(0.1 -0.1)">
       <use xlink:href="#DejaVuSans-34"/>
       <use x="63.623047" xlink:href="#DejaVuSans-30"/>
       <use x="127.246094" xlink:href="#DejaVuSans-30"/>
      </g>
     </g>
    </g>
    <g id="text_15">
     <!-- Number of occurences -->
     <defs>
      <path d="M 9.8125 72.90625 
L 23.09375 72.90625 
L 55.421875 11.921875 
L 55.421875 72.90625 
L 64.984375 72.90625 
L 64.984375 0 
L 51.703125 0 
L 19.390625 60.984375 
L 19.390625 0 
L 9.8125 0 
z
" id="DejaVuSans-4e"/>
      <path d="M 8.5 21.578125 
L 8.5 54.6875 
L 17.484375 54.6875 
L 17.484375 21.921875 
Q 17.484375 14.15625 20.5 10.265625 
Q 23.53125 6.390625 29.59375 6.390625 
Q 36.859375 6.390625 41.078125 11.03125 
Q 45.3125 15.671875 45.3125 23.6875 
L 45.3125 54.6875 
L 54.296875 54.6875 
L 54.296875 0 
L 45.3125 0 
L 45.3125 8.40625 
Q 42.046875 3.421875 37.71875 1 
Q 33.40625 -1.421875 27.6875 -1.421875 
Q 18.265625 -1.421875 13.375 4.4375 
Q 8.5 10.296875 8.5 21.578125 
z
M 31.109375 56 
z
" id="DejaVuSans-75"/>
      <path d="M 52 44.1875 
Q 55.375 50.25 60.0625 53.125 
Q 64.75 56 71.09375 56 
Q 79.640625 56 84.28125 50.015625 
Q 88.921875 44.046875 88.921875 33.015625 
L 88.921875 0 
L 79.890625 0 
L 79.890625 32.71875 
Q 79.890625 40.578125 77.09375 44.375 
Q 74.3125 48.1875 68.609375 48.1875 
Q 61.625 48.1875 57.5625 43.546875 
Q 53.515625 38.921875 53.515625 30.90625 
L 53.515625 0 
L 44.484375 0 
L 44.484375 32.71875 
Q 44.484375 40.625 41.703125 44.40625 
Q 38.921875 48.1875 33.109375 48.1875 
Q 26.21875 48.1875 22.15625 43.53125 
Q 18.109375 38.875 18.109375 30.90625 
L 18.109375 0 
L 9.078125 0 
L 9.078125 54.6875 
L 18.109375 54.6875 
L 18.109375 46.1875 
Q 21.1875 51.21875 25.484375 53.609375 
Q 29.78125 56 35.6875 56 
Q 41.65625 56 45.828125 52.96875 
Q 50 49.953125 52 44.1875 
z
" id="DejaVuSans-6d"/>
      <path d="M 48.6875 27.296875 
Q 48.6875 37.203125 44.609375 42.84375 
Q 40.53125 48.484375 33.40625 48.484375 
Q 26.265625 48.484375 22.1875 42.84375 
Q 18.109375 37.203125 18.109375 27.296875 
Q 18.109375 17.390625 22.1875 11.75 
Q 26.265625 6.109375 33.40625 6.109375 
Q 40.53125 6.109375 44.609375 11.75 
Q 48.6875 17.390625 48.6875 27.296875 
z
M 18.109375 46.390625 
Q 20.953125 51.265625 25.265625 53.625 
Q 29.59375 56 35.59375 56 
Q 45.5625 56 51.78125 48.09375 
Q 58.015625 40.1875 58.015625 27.296875 
Q 58.015625 14.40625 51.78125 6.484375 
Q 45.5625 -1.421875 35.59375 -1.421875 
Q 29.59375 -1.421875 25.265625 0.953125 
Q 20.953125 3.328125 18.109375 8.203125 
L 18.109375 0 
L 9.078125 0 
L 9.078125 75.984375 
L 18.109375 75.984375 
z
" id="DejaVuSans-62"/>
      <path id="DejaVuSans-20"/>
      <path d="M 30.609375 48.390625 
Q 23.390625 48.390625 19.1875 42.75 
Q 14.984375 37.109375 14.984375 27.296875 
Q 14.984375 17.484375 19.15625 11.84375 
Q 23.34375 6.203125 30.609375 6.203125 
Q 37.796875 6.203125 41.984375 11.859375 
Q 46.1875 17.53125 46.1875 27.296875 
Q 46.1875 37.015625 41.984375 42.703125 
Q 37.796875 48.390625 30.609375 48.390625 
z
M 30.609375 56 
Q 42.328125 56 49.015625 48.375 
Q 55.71875 40.765625 55.71875 27.296875 
Q 55.71875 13.875 49.015625 6.21875 
Q 42.328125 -1.421875 30.609375 -1.421875 
Q 18.84375 -1.421875 12.171875 6.21875 
Q 5.515625 13.875 5.515625 27.296875 
Q 5.515625 40.765625 12.171875 48.375 
Q 18.84375 56 30.609375 56 
z
" id="DejaVuSans-6f"/>
      <path d="M 37.109375 75.984375 
L 37.109375 68.5 
L 28.515625 68.5 
Q 23.6875 68.5 21.796875 66.546875 
Q 19.921875 64.59375 19.921875 59.515625 
L 19.921875 54.6875 
L 34.71875 54.6875 
L 34.71875 47.703125 
L 19.921875 47.703125 
L 19.921875 0 
L 10.890625 0 
L 10.890625 47.703125 
L 2.296875 47.703125 
L 2.296875 54.6875 
L 10.890625 54.6875 
L 10.890625 58.5 
Q 10.890625 67.625 15.140625 71.796875 
Q 19.390625 75.984375 28.609375 75.984375 
z
" id="DejaVuSans-66"/>
      <path d="M 48.78125 52.59375 
L 48.78125 44.1875 
Q 44.96875 46.296875 41.140625 47.34375 
Q 37.3125 48.390625 33.40625 48.390625 
Q 24.65625 48.390625 19.8125 42.84375 
Q 14.984375 37.3125 14.984375 27.296875 
Q 14.984375 17.28125 19.8125 11.734375 
Q 24.65625 6.203125 33.40625 6.203125 
Q 37.3125 6.203125 41.140625 7.25 
Q 44.96875 8.296875 48.78125 10.40625 
L 48.78125 2.09375 
Q 45.015625 0.34375 40.984375 -0.53125 
Q 36.96875 -1.421875 32.421875 -1.421875 
Q 20.0625 -1.421875 12.78125 6.34375 
Q 5.515625 14.109375 5.515625 27.296875 
Q 5.515625 40.671875 12.859375 48.328125 
Q 20.21875 56 33.015625 56 
Q 37.15625 56 41.109375 55.140625 
Q 45.0625 54.296875 48.78125 52.59375 
z
" id="DejaVuSans-63"/>
      <path d="M 54.890625 33.015625 
L 54.890625 0 
L 45.90625 0 
L 45.90625 32.71875 
Q 45.90625 40.484375 42.875 44.328125 
Q 39.84375 48.1875 33.796875 48.1875 
Q 26.515625 48.1875 22.3125 43.546875 
Q 18.109375 38.921875 18.109375 30.90625 
L 18.109375 0 
L 9.078125 0 
L 9.078125 54.6875 
L 18.109375 54.6875 
L 18.109375 46.1875 
Q 21.34375 51.125 25.703125 53.5625 
Q 30.078125 56 35.796875 56 
Q 45.21875 56 50.046875 50.171875 
Q 54.890625 44.34375 54.890625 33.015625 
z
" id="DejaVuSans-6e"/>
     </defs>
     <g transform="translate(14.798438 248.016719)rotate(-90)scale(0.1 -0.1)">
      <use xlink:href="#DejaVuSans-4e"/>
      <use x="74.804688" xlink:href="#DejaVuSans-75"/>
      <use x="138.183594" xlink:href="#DejaVuSans-6d"/>
      <use x="235.595703" xlink:href="#DejaVuSans-62"/>
      <use x="299.072266" xlink:href="#DejaVuSans-65"/>
      <use x="360.595703" xlink:href="#DejaVuSans-72"/>
      <use x="401.708984" xlink:href="#DejaVuSans-20"/>
      <use x="433.496094" xlink:href="#DejaVuSans-6f"/>
      <use x="494.677734" xlink:href="#DejaVuSans-66"/>
      <use x="529.882812" xlink:href="#DejaVuSans-20"/>
      <use x="561.669922" xlink:href="#DejaVuSans-6f"/>
      <use x="622.851562" xlink:href="#DejaVuSans-63"/>
      <use x="677.832031" xlink:href="#DejaVuSans-63"/>
      <use x="732.8125" xlink:href="#DejaVuSans-75"/>
      <use x="796.191406" xlink:href="#DejaVuSans-72"/>
      <use x="837.273438" xlink:href="#DejaVuSans-65"/>
      <use x="898.796875" xlink:href="#DejaVuSans-6e"/>
      <use x="962.175781" xlink:href="#DejaVuSans-63"/>
      <use x="1017.15625" xlink:href="#DejaVuSans-65"/>
      <use x="1078.679688" xlink:href="#DejaVuSans-73"/>
     </g>
    </g>
   </g>
   <g id="line2d_14">
    <path clip-path="url(#pce653fe5d4)" d="M 533.71691 354.556875 
L 533.71691 43.928304 
" style="fill:none;stroke:#1dcaff;stroke-linecap:square;"/>
   </g>
   <g id="line2d_15">
    <path clip-path="url(#pce653fe5d4)" d="M 536.305925 354.556875 
L 536.305925 43.928304 
" style="fill:none;stroke:#ffc0cb;stroke-linecap:square;"/>
   </g>
   <g id="patch_153">
    <path d="M 46.965625 354.556875 
L 46.965625 28.396875 
" style="fill:none;stroke:#000000;stroke-linecap:square;stroke-linejoin:miter;stroke-width:0.8;"/>
   </g>
   <g id="patch_154">
    <path d="M 883.965625 354.556875 
L 883.965625 28.396875 
" style="fill:none;stroke:#000000;stroke-linecap:square;stroke-linejoin:miter;stroke-width:0.8;"/>
   </g>
   <g id="patch_155">
    <path d="M 46.965625 354.556875 
L 883.965625 354.556875 
" style="fill:none;stroke:#000000;stroke-linecap:square;stroke-linejoin:miter;stroke-width:0.8;"/>
   </g>
   <g id="patch_156">
    <path d="M 46.965625 28.396875 
L 883.965625 28.396875 
" style="fill:none;stroke:#000000;stroke-linecap:square;stroke-linejoin:miter;stroke-width:0.8;"/>
   </g>
   <g id="text_16">
    <!-- Actors Average Ratings -->
    <defs>
     <path d="M 53.421875 13.28125 
L 24.03125 13.28125 
L 19.390625 0 
L 0.484375 0 
L 27.484375 72.90625 
L 49.90625 72.90625 
L 76.90625 0 
L 58.015625 0 
z
M 28.71875 26.8125 
L 48.6875 26.8125 
L 38.71875 55.8125 
z
" id="DejaVuSans-Bold-41"/>
     <path d="M 52.59375 52.984375 
L 52.59375 38.71875 
Q 49.03125 41.15625 45.4375 42.328125 
Q 41.84375 43.5 37.984375 43.5 
Q 30.671875 43.5 26.59375 39.234375 
Q 22.515625 34.96875 22.515625 27.296875 
Q 22.515625 19.625 26.59375 15.34375 
Q 30.671875 11.078125 37.984375 11.078125 
Q 42.09375 11.078125 45.78125 12.296875 
Q 49.46875 13.53125 52.59375 15.921875 
L 52.59375 1.609375 
Q 48.484375 0.09375 44.265625 -0.65625 
Q 40.046875 -1.421875 35.796875 -1.421875 
Q 21 -1.421875 12.640625 6.171875 
Q 4.296875 13.765625 4.296875 27.296875 
Q 4.296875 40.828125 12.640625 48.40625 
Q 21 56 35.796875 56 
Q 40.09375 56 44.265625 55.25 
Q 48.4375 54.5 52.59375 52.984375 
z
" id="DejaVuSans-Bold-63"/>
     <path d="M 27.484375 70.21875 
L 27.484375 54.6875 
L 45.515625 54.6875 
L 45.515625 42.1875 
L 27.484375 42.1875 
L 27.484375 19 
Q 27.484375 15.1875 29 13.84375 
Q 30.515625 12.5 35.015625 12.5 
L 44 12.5 
L 44 0 
L 29 0 
Q 18.65625 0 14.328125 4.3125 
Q 10.015625 8.640625 10.015625 19 
L 10.015625 42.1875 
L 1.3125 42.1875 
L 1.3125 54.6875 
L 10.015625 54.6875 
L 10.015625 70.21875 
z
" id="DejaVuSans-Bold-74"/>
     <path d="M 34.421875 43.5 
Q 28.609375 43.5 25.5625 39.328125 
Q 22.515625 35.15625 22.515625 27.296875 
Q 22.515625 19.4375 25.5625 15.25 
Q 28.609375 11.078125 34.421875 11.078125 
Q 40.140625 11.078125 43.15625 15.25 
Q 46.1875 19.4375 46.1875 27.296875 
Q 46.1875 35.15625 43.15625 39.328125 
Q 40.140625 43.5 34.421875 43.5 
z
M 34.421875 56 
Q 48.53125 56 56.46875 48.375 
Q 64.40625 40.765625 64.40625 27.296875 
Q 64.40625 13.8125 56.46875 6.1875 
Q 48.53125 -1.421875 34.421875 -1.421875 
Q 20.265625 -1.421875 12.28125 6.1875 
Q 4.296875 13.8125 4.296875 27.296875 
Q 4.296875 40.765625 12.28125 48.375 
Q 20.265625 56 34.421875 56 
z
" id="DejaVuSans-Bold-6f"/>
     <path d="M 49.03125 39.796875 
Q 46.734375 40.875 44.453125 41.375 
Q 42.1875 41.890625 39.890625 41.890625 
Q 33.15625 41.890625 29.515625 37.5625 
Q 25.875 33.25 25.875 25.203125 
L 25.875 0 
L 8.40625 0 
L 8.40625 54.6875 
L 25.875 54.6875 
L 25.875 45.703125 
Q 29.25 51.078125 33.609375 53.53125 
Q 37.984375 56 44.09375 56 
Q 44.96875 56 45.984375 55.921875 
Q 47.015625 55.859375 48.96875 55.609375 
z
" id="DejaVuSans-Bold-72"/>
     <path d="M 51.125 52.984375 
L 51.125 39.703125 
Q 45.515625 42.046875 40.28125 43.21875 
Q 35.0625 44.390625 30.421875 44.390625 
Q 25.4375 44.390625 23.015625 43.140625 
Q 20.609375 41.890625 20.609375 39.3125 
Q 20.609375 37.203125 22.4375 36.078125 
Q 24.265625 34.96875 29 34.421875 
L 32.078125 33.984375 
Q 45.515625 32.28125 50.140625 28.375 
Q 54.78125 24.46875 54.78125 16.109375 
Q 54.78125 7.375 48.328125 2.96875 
Q 41.890625 -1.421875 29.109375 -1.421875 
Q 23.6875 -1.421875 17.890625 -0.5625 
Q 12.109375 0.296875 6 2 
L 6 15.28125 
Q 11.234375 12.75 16.71875 11.46875 
Q 22.21875 10.203125 27.875 10.203125 
Q 33.015625 10.203125 35.59375 11.609375 
Q 38.1875 13.03125 38.1875 15.828125 
Q 38.1875 18.171875 36.40625 19.3125 
Q 34.625 20.453125 29.296875 21.09375 
L 26.21875 21.484375 
Q 14.546875 22.953125 9.859375 26.90625 
Q 5.171875 30.859375 5.171875 38.921875 
Q 5.171875 47.609375 11.125 51.796875 
Q 17.09375 56 29.390625 56 
Q 34.234375 56 39.546875 55.265625 
Q 44.875 54.546875 51.125 52.984375 
z
" id="DejaVuSans-Bold-73"/>
     <path id="DejaVuSans-Bold-20"/>
     <path d="M 1.515625 54.6875 
L 19 54.6875 
L 32.625 16.890625 
L 46.1875 54.6875 
L 63.71875 54.6875 
L 42.1875 0 
L 23 0 
z
" id="DejaVuSans-Bold-76"/>
     <path d="M 62.984375 27.484375 
L 62.984375 22.515625 
L 22.125 22.515625 
Q 22.75 16.359375 26.5625 13.28125 
Q 30.375 10.203125 37.203125 10.203125 
Q 42.71875 10.203125 48.5 11.84375 
Q 54.296875 13.484375 60.40625 16.796875 
L 60.40625 3.328125 
Q 54.203125 0.984375 48 -0.21875 
Q 41.796875 -1.421875 35.59375 -1.421875 
Q 20.75 -1.421875 12.515625 6.125 
Q 4.296875 13.671875 4.296875 27.296875 
Q 4.296875 40.671875 12.375 48.328125 
Q 20.453125 56 34.625 56 
Q 47.515625 56 55.25 48.234375 
Q 62.984375 40.484375 62.984375 27.484375 
z
M 45.015625 33.296875 
Q 45.015625 38.28125 42.109375 41.328125 
Q 39.203125 44.390625 34.515625 44.390625 
Q 29.4375 44.390625 26.265625 41.53125 
Q 23.09375 38.671875 22.3125 33.296875 
z
" id="DejaVuSans-Bold-65"/>
     <path d="M 32.90625 24.609375 
Q 27.4375 24.609375 24.671875 22.75 
Q 21.921875 20.90625 21.921875 17.28125 
Q 21.921875 13.96875 24.140625 12.078125 
Q 26.375 10.203125 30.328125 10.203125 
Q 35.25 10.203125 38.625 13.734375 
Q 42 17.28125 42 22.609375 
L 42 24.609375 
z
M 59.625 31.203125 
L 59.625 0 
L 42 0 
L 42 8.109375 
Q 38.484375 3.125 34.078125 0.84375 
Q 29.6875 -1.421875 23.390625 -1.421875 
Q 14.890625 -1.421875 9.59375 3.53125 
Q 4.296875 8.5 4.296875 16.40625 
Q 4.296875 26.03125 10.90625 30.515625 
Q 17.53125 35.015625 31.6875 35.015625 
L 42 35.015625 
L 42 36.375 
Q 42 40.53125 38.71875 42.453125 
Q 35.453125 44.390625 28.515625 44.390625 
Q 22.90625 44.390625 18.0625 43.265625 
Q 13.234375 42.140625 9.078125 39.890625 
L 9.078125 53.21875 
Q 14.703125 54.59375 20.359375 55.296875 
Q 26.03125 56 31.6875 56 
Q 46.484375 56 53.046875 50.171875 
Q 59.625 44.34375 59.625 31.203125 
z
" id="DejaVuSans-Bold-61"/>
     <path d="M 45.609375 9.28125 
Q 42 4.5 37.640625 2.25 
Q 33.296875 0 27.59375 0 
Q 17.578125 0 11.03125 7.875 
Q 4.5 15.765625 4.5 27.984375 
Q 4.5 40.234375 11.03125 48.0625 
Q 17.578125 55.90625 27.59375 55.90625 
Q 33.296875 55.90625 37.640625 53.65625 
Q 42 51.421875 45.609375 46.578125 
L 45.609375 54.6875 
L 63.1875 54.6875 
L 63.1875 5.515625 
Q 63.1875 -7.671875 54.859375 -14.625 
Q 46.53125 -21.578125 30.71875 -21.578125 
Q 25.59375 -21.578125 20.796875 -20.796875 
Q 16.015625 -20.015625 11.1875 -18.40625 
L 11.1875 -4.78125 
Q 15.765625 -7.421875 20.15625 -8.71875 
Q 24.5625 -10.015625 29 -10.015625 
Q 37.59375 -10.015625 41.59375 -6.25 
Q 45.609375 -2.484375 45.609375 5.515625 
z
M 34.078125 43.3125 
Q 28.65625 43.3125 25.625 39.296875 
Q 22.609375 35.296875 22.609375 27.984375 
Q 22.609375 20.453125 25.53125 16.578125 
Q 28.46875 12.703125 34.078125 12.703125 
Q 39.546875 12.703125 42.578125 16.703125 
Q 45.609375 20.703125 45.609375 27.984375 
Q 45.609375 35.296875 42.578125 39.296875 
Q 39.546875 43.3125 34.078125 43.3125 
z
" id="DejaVuSans-Bold-67"/>
     <path d="M 35.890625 40.578125 
Q 41.796875 40.578125 44.359375 42.765625 
Q 46.921875 44.96875 46.921875 50 
Q 46.921875 54.984375 44.359375 57.125 
Q 41.796875 59.28125 35.890625 59.28125 
L 27.984375 59.28125 
L 27.984375 40.578125 
z
M 27.984375 27.59375 
L 27.984375 0 
L 9.1875 0 
L 9.1875 72.90625 
L 37.890625 72.90625 
Q 52.296875 72.90625 59 68.0625 
Q 65.71875 63.234375 65.71875 52.78125 
Q 65.71875 45.5625 62.21875 40.921875 
Q 58.734375 36.28125 51.703125 34.078125 
Q 55.5625 33.203125 58.609375 30.09375 
Q 61.671875 27 64.796875 20.703125 
L 75 0 
L 54.984375 0 
L 46.09375 18.109375 
Q 43.40625 23.578125 40.640625 25.578125 
Q 37.890625 27.59375 33.296875 27.59375 
z
" id="DejaVuSans-Bold-52"/>
     <path d="M 8.40625 54.6875 
L 25.875 54.6875 
L 25.875 0 
L 8.40625 0 
z
M 8.40625 75.984375 
L 25.875 75.984375 
L 25.875 61.71875 
L 8.40625 61.71875 
z
" id="DejaVuSans-Bold-69"/>
     <path d="M 63.375 33.296875 
L 63.375 0 
L 45.796875 0 
L 45.796875 5.421875 
L 45.796875 25.484375 
Q 45.796875 32.5625 45.484375 35.25 
Q 45.171875 37.9375 44.390625 39.203125 
Q 43.359375 40.921875 41.59375 41.875 
Q 39.84375 42.828125 37.59375 42.828125 
Q 32.125 42.828125 29 38.59375 
Q 25.875 34.375 25.875 26.90625 
L 25.875 0 
L 8.40625 0 
L 8.40625 54.6875 
L 25.875 54.6875 
L 25.875 46.6875 
Q 29.828125 51.46875 34.265625 53.734375 
Q 38.71875 56 44.09375 56 
Q 53.5625 56 58.46875 50.1875 
Q 63.375 44.390625 63.375 33.296875 
z
" id="DejaVuSans-Bold-6e"/>
    </defs>
    <g transform="translate(332.7625 22.396875)scale(0.2 -0.2)">
     <use xlink:href="#DejaVuSans-Bold-41"/>
     <use x="77.392578" xlink:href="#DejaVuSans-Bold-63"/>
     <use x="136.669922" xlink:href="#DejaVuSans-Bold-74"/>
     <use x="184.472656" xlink:href="#DejaVuSans-Bold-6f"/>
     <use x="253.173828" xlink:href="#DejaVuSans-Bold-72"/>
     <use x="302.490234" xlink:href="#DejaVuSans-Bold-73"/>
     <use x="362.011719" xlink:href="#DejaVuSans-Bold-20"/>
     <use x="396.826172" xlink:href="#DejaVuSans-Bold-41"/>
     <use x="474.171875" xlink:href="#DejaVuSans-Bold-76"/>
     <use x="539.357422" xlink:href="#DejaVuSans-Bold-65"/>
     <use x="607.179688" xlink:href="#DejaVuSans-Bold-72"/>
     <use x="656.496094" xlink:href="#DejaVuSans-Bold-61"/>
     <use x="723.976562" xlink:href="#DejaVuSans-Bold-67"/>
     <use x="795.558594" xlink:href="#DejaVuSans-Bold-65"/>
     <use x="863.380859" xlink:href="#DejaVuSans-Bold-20"/>
     <use x="898.195312" xlink:href="#DejaVuSans-Bold-52"/>
     <use x="975.197266" xlink:href="#DejaVuSans-Bold-61"/>
     <use x="1042.677734" xlink:href="#DejaVuSans-Bold-74"/>
     <use x="1090.480469" xlink:href="#DejaVuSans-Bold-69"/>
     <use x="1124.757812" xlink:href="#DejaVuSans-Bold-6e"/>
     <use x="1195.949219" xlink:href="#DejaVuSans-Bold-67"/>
     <use x="1267.53125" xlink:href="#DejaVuSans-Bold-73"/>
    </g>
   </g>
   <g id="legend_1">
    <g id="patch_157">
     <path d="M 709.542188 95.109375 
L 876.965625 95.109375 
Q 878.965625 95.109375 878.965625 93.109375 
L 878.965625 35.396875 
Q 878.965625 33.396875 876.965625 33.396875 
L 709.542188 33.396875 
Q 707.542188 33.396875 707.542188 35.396875 
L 707.542188 93.109375 
Q 707.542188 95.109375 709.542188 95.109375 
z
" style="fill:#ffffff;opacity:0.8;stroke:#cccccc;stroke-linejoin:miter;"/>
    </g>
    <g id="line2d_16">
     <path d="M 711.542188 41.495312 
L 731.542188 41.495312 
" style="fill:none;stroke:#1dcaff;stroke-linecap:square;"/>
    </g>
    <g id="line2d_17"/>
    <g id="text_17">
     <!-- Men Mean 5.93 -->
     <defs>
      <path d="M 9.8125 72.90625 
L 24.515625 72.90625 
L 43.109375 23.296875 
L 61.8125 72.90625 
L 76.515625 72.90625 
L 76.515625 0 
L 66.890625 0 
L 66.890625 64.015625 
L 48.09375 14.015625 
L 38.1875 14.015625 
L 19.390625 64.015625 
L 19.390625 0 
L 9.8125 0 
z
" id="DejaVuSans-4d"/>
      <path d="M 34.28125 27.484375 
Q 23.390625 27.484375 19.1875 25 
Q 14.984375 22.515625 14.984375 16.5 
Q 14.984375 11.71875 18.140625 8.90625 
Q 21.296875 6.109375 26.703125 6.109375 
Q 34.1875 6.109375 38.703125 11.40625 
Q 43.21875 16.703125 43.21875 25.484375 
L 43.21875 27.484375 
z
M 52.203125 31.203125 
L 52.203125 0 
L 43.21875 0 
L 43.21875 8.296875 
Q 40.140625 3.328125 35.546875 0.953125 
Q 30.953125 -1.421875 24.3125 -1.421875 
Q 15.921875 -1.421875 10.953125 3.296875 
Q 6 8.015625 6 15.921875 
Q 6 25.140625 12.171875 29.828125 
Q 18.359375 34.515625 30.609375 34.515625 
L 43.21875 34.515625 
L 43.21875 35.40625 
Q 43.21875 41.609375 39.140625 45 
Q 35.0625 48.390625 27.6875 48.390625 
Q 23 48.390625 18.546875 47.265625 
Q 14.109375 46.140625 10.015625 43.890625 
L 10.015625 52.203125 
Q 14.9375 54.109375 19.578125 55.046875 
Q 24.21875 56 28.609375 56 
Q 40.484375 56 46.34375 49.84375 
Q 52.203125 43.703125 52.203125 31.203125 
z
" id="DejaVuSans-61"/>
      <path d="M 10.6875 12.40625 
L 21 12.40625 
L 21 0 
L 10.6875 0 
z
" id="DejaVuSans-2e"/>
     </defs>
     <g transform="translate(739.542188 44.995312)scale(0.1 -0.1)">
      <use xlink:href="#DejaVuSans-4d"/>
      <use x="86.279297" xlink:href="#DejaVuSans-65"/>
      <use x="147.802734" xlink:href="#DejaVuSans-6e"/>
      <use x="211.181641" xlink:href="#DejaVuSans-20"/>
      <use x="242.96875" xlink:href="#DejaVuSans-4d"/>
      <use x="329.248047" xlink:href="#DejaVuSans-65"/>
      <use x="390.771484" xlink:href="#DejaVuSans-61"/>
      <use x="452.050781" xlink:href="#DejaVuSans-6e"/>
      <use x="515.429688" xlink:href="#DejaVuSans-20"/>
      <use x="547.216797" xlink:href="#DejaVuSans-35"/>
      <use x="610.839844" xlink:href="#DejaVuSans-2e"/>
      <use x="642.626953" xlink:href="#DejaVuSans-39"/>
      <use x="706.25" xlink:href="#DejaVuSans-33"/>
     </g>
    </g>
    <g id="line2d_18">
     <path d="M 711.542188 56.173437 
L 731.542188 56.173437 
" style="fill:none;stroke:#ffc0cb;stroke-linecap:square;"/>
    </g>
    <g id="line2d_19"/>
    <g id="text_18">
     <!-- Women Mean 5.95 -->
     <defs>
      <path d="M 3.328125 72.90625 
L 13.28125 72.90625 
L 28.609375 11.28125 
L 43.890625 72.90625 
L 54.984375 72.90625 
L 70.3125 11.28125 
L 85.59375 72.90625 
L 95.609375 72.90625 
L 77.296875 0 
L 64.890625 0 
L 49.515625 63.28125 
L 33.984375 0 
L 21.578125 0 
z
" id="DejaVuSans-57"/>
     </defs>
     <g transform="translate(739.542188 59.673437)scale(0.1 -0.1)">
      <use xlink:href="#DejaVuSans-57"/>
      <use x="98.798828" xlink:href="#DejaVuSans-6f"/>
      <use x="159.980469" xlink:href="#DejaVuSans-6d"/>
      <use x="257.392578" xlink:href="#DejaVuSans-65"/>
      <use x="318.916016" xlink:href="#DejaVuSans-6e"/>
      <use x="382.294922" xlink:href="#DejaVuSans-20"/>
      <use x="414.082031" xlink:href="#DejaVuSans-4d"/>
      <use x="500.361328" xlink:href="#DejaVuSans-65"/>
      <use x="561.884766" xlink:href="#DejaVuSans-61"/>
      <use x="623.164062" xlink:href="#DejaVuSans-6e"/>
      <use x="686.542969" xlink:href="#DejaVuSans-20"/>
      <use x="718.330078" xlink:href="#DejaVuSans-35"/>
      <use x="781.953125" xlink:href="#DejaVuSans-2e"/>
      <use x="813.740234" xlink:href="#DejaVuSans-39"/>
      <use x="877.363281" xlink:href="#DejaVuSans-35"/>
     </g>
    </g>
    <g id="patch_158">
     <path d="M 711.542188 74.351562 
L 731.542188 74.351562 
L 731.542188 67.351562 
L 711.542188 67.351562 
z
" style="fill:#55638a;"/>
    </g>
    <g id="text_19">
     <!-- Average Ratings of Actors -->
     <defs>
      <path d="M 34.1875 63.1875 
L 20.796875 26.90625 
L 47.609375 26.90625 
z
M 28.609375 72.90625 
L 39.796875 72.90625 
L 67.578125 0 
L 57.328125 0 
L 50.6875 18.703125 
L 17.828125 18.703125 
L 11.1875 0 
L 0.78125 0 
z
" id="DejaVuSans-41"/>
      <path d="M 2.984375 54.6875 
L 12.5 54.6875 
L 29.59375 8.796875 
L 46.6875 54.6875 
L 56.203125 54.6875 
L 35.6875 0 
L 23.484375 0 
z
" id="DejaVuSans-76"/>
      <path d="M 44.390625 34.1875 
Q 47.5625 33.109375 50.5625 29.59375 
Q 53.5625 26.078125 56.59375 19.921875 
L 66.609375 0 
L 56 0 
L 46.6875 18.703125 
Q 43.0625 26.03125 39.671875 28.421875 
Q 36.28125 30.8125 30.421875 30.8125 
L 19.671875 30.8125 
L 19.671875 0 
L 9.8125 0 
L 9.8125 72.90625 
L 32.078125 72.90625 
Q 44.578125 72.90625 50.734375 67.671875 
Q 56.890625 62.453125 56.890625 51.90625 
Q 56.890625 45.015625 53.6875 40.46875 
Q 50.484375 35.9375 44.390625 34.1875 
z
M 19.671875 64.796875 
L 19.671875 38.921875 
L 32.078125 38.921875 
Q 39.203125 38.921875 42.84375 42.21875 
Q 46.484375 45.515625 46.484375 51.90625 
Q 46.484375 58.296875 42.84375 61.546875 
Q 39.203125 64.796875 32.078125 64.796875 
z
" id="DejaVuSans-52"/>
      <path d="M 18.3125 70.21875 
L 18.3125 54.6875 
L 36.8125 54.6875 
L 36.8125 47.703125 
L 18.3125 47.703125 
L 18.3125 18.015625 
Q 18.3125 11.328125 20.140625 9.421875 
Q 21.96875 7.515625 27.59375 7.515625 
L 36.8125 7.515625 
L 36.8125 0 
L 27.59375 0 
Q 17.1875 0 13.234375 3.875 
Q 9.28125 7.765625 9.28125 18.015625 
L 9.28125 47.703125 
L 2.6875 47.703125 
L 2.6875 54.6875 
L 9.28125 54.6875 
L 9.28125 70.21875 
z
" id="DejaVuSans-74"/>
      <path d="M 9.421875 54.6875 
L 18.40625 54.6875 
L 18.40625 0 
L 9.421875 0 
z
M 9.421875 75.984375 
L 18.40625 75.984375 
L 18.40625 64.59375 
L 9.421875 64.59375 
z
" id="DejaVuSans-69"/>
     </defs>
     <g transform="translate(739.542188 74.351562)scale(0.1 -0.1)">
      <use xlink:href="#DejaVuSans-41"/>
      <use x="68.330078" xlink:href="#DejaVuSans-76"/>
      <use x="127.509766" xlink:href="#DejaVuSans-65"/>
      <use x="189.033203" xlink:href="#DejaVuSans-72"/>
      <use x="230.146484" xlink:href="#DejaVuSans-61"/>
      <use x="291.425781" xlink:href="#DejaVuSans-67"/>
      <use x="354.902344" xlink:href="#DejaVuSans-65"/>
      <use x="416.425781" xlink:href="#DejaVuSans-20"/>
      <use x="448.212891" xlink:href="#DejaVuSans-52"/>
      <use x="517.664062" xlink:href="#DejaVuSans-61"/>
      <use x="578.943359" xlink:href="#DejaVuSans-74"/>
      <use x="618.152344" xlink:href="#DejaVuSans-69"/>
      <use x="645.935547" xlink:href="#DejaVuSans-6e"/>
      <use x="709.314453" xlink:href="#DejaVuSans-67"/>
      <use x="772.791016" xlink:href="#DejaVuSans-73"/>
      <use x="824.890625" xlink:href="#DejaVuSans-20"/>
      <use x="856.677734" xlink:href="#DejaVuSans-6f"/>
      <use x="917.859375" xlink:href="#DejaVuSans-66"/>
      <use x="953.064453" xlink:href="#DejaVuSans-20"/>
      <use x="984.851562" xlink:href="#DejaVuSans-41"/>
      <use x="1053.244141" xlink:href="#DejaVuSans-63"/>
      <use x="1108.224609" xlink:href="#DejaVuSans-74"/>
      <use x="1147.433594" xlink:href="#DejaVuSans-6f"/>
      <use x="1208.615234" xlink:href="#DejaVuSans-72"/>
      <use x="1249.728516" xlink:href="#DejaVuSans-73"/>
     </g>
    </g>
    <g id="patch_159">
     <path d="M 711.542188 89.029687 
L 731.542188 89.029687 
L 731.542188 82.029687 
L 711.542188 82.029687 
z
" style="fill:#9e1030;"/>
    </g>
    <g id="text_20">
     <!-- Average Ratings of Actress -->
     <g transform="translate(739.542188 89.029687)scale(0.1 -0.1)">
      <use xlink:href="#DejaVuSans-41"/>
      <use x="68.330078" xlink:href="#DejaVuSans-76"/>
      <use x="127.509766" xlink:href="#DejaVuSans-65"/>
      <use x="189.033203" xlink:href="#DejaVuSans-72"/>
      <use x="230.146484" xlink:href="#DejaVuSans-61"/>
      <use x="291.425781" xlink:href="#DejaVuSans-67"/>
      <use x="354.902344" xlink:href="#DejaVuSans-65"/>
      <use x="416.425781" xlink:href="#DejaVuSans-20"/>
      <use x="448.212891" xlink:href="#DejaVuSans-52"/>
      <use x="517.664062" xlink:href="#DejaVuSans-61"/>
      <use x="578.943359" xlink:href="#DejaVuSans-74"/>
      <use x="618.152344" xlink:href="#DejaVuSans-69"/>
      <use x="645.935547" xlink:href="#DejaVuSans-6e"/>
      <use x="709.314453" xlink:href="#DejaVuSans-67"/>
      <use x="772.791016" xlink:href="#DejaVuSans-73"/>
      <use x="824.890625" xlink:href="#DejaVuSans-20"/>
      <use x="856.677734" xlink:href="#DejaVuSans-6f"/>
      <use x="917.859375" xlink:href="#DejaVuSans-66"/>
      <use x="953.064453" xlink:href="#DejaVuSans-20"/>
      <use x="984.851562" xlink:href="#DejaVuSans-41"/>
      <use x="1053.244141" xlink:href="#DejaVuSans-63"/>
      <use x="1108.224609" xlink:href="#DejaVuSans-74"/>
      <use x="1147.433594" xlink:href="#DejaVuSans-72"/>
      <use x="1188.515625" xlink:href="#DejaVuSans-65"/>
      <use x="1250.039062" xlink:href="#DejaVuSans-73"/>
      <use x="1302.138672" xlink:href="#DejaVuSans-73"/>
     </g>
    </g>
   </g>
  </g>
 </g>
 <defs>
  <clipPath id="pce653fe5d4">
   <rect height="326.16" width="837" x="46.965625" y="28.396875"/>
  </clipPath>
 </defs>
</svg>
