<?xml version="1.0" encoding="utf-8" standalone="no"?>
<!DOCTYPE svg PUBLIC "-//W3C//DTD SVG 1.1//EN"
  "http://www.w3.org/Graphics/SVG/1.1/DTD/svg11.dtd">
<!-- Created with matplotlib (http://matplotlib.org/) -->
<svg height="414.11625pt" version="1.1" viewBox="0 0 901.028125 414.11625" width="901.028125pt" xmlns="http://www.w3.org/2000/svg" xmlns:xlink="http://www.w3.org/1999/xlink">
 <defs>
  <style type="text/css">
*{stroke-linecap:butt;stroke-linejoin:round;}
  </style>
 </defs>
 <g id="figure_1">
  <g id="patch_1">
   <path d="M 0 414.11625 
L 901.028125 414.11625 
L 901.028125 0 
L 0 0 
z
" style="fill:#ffffff;"/>
  </g>
  <g id="axes_1">
   <g id="patch_2">
    <path d="M 53.328125 376.56 
L 890.328125 376.56 
L 890.328125 50.4 
L 53.328125 50.4 
z
" style="fill:#ffffff;"/>
   </g>
   <g id="patch_3">
    <path clip-path="url(#p1298a077f0)" d="M 91.37358 376.56 
L 98.386567 376.56 
L 98.386567 376.367898 
L 91.37358 376.367898 
z
" style="fill:#55638a;"/>
   </g>
   <g id="patch_4">
    <path clip-path="url(#p1298a077f0)" d="M 100.139813 376.56 
L 107.1528 376.56 
L 107.1528 376.175796 
L 100.139813 376.175796 
z
" style="fill:#55638a;"/>
   </g>
   <g id="patch_5">
    <path clip-path="url(#p1298a077f0)" d="M 108.906047 376.56 
L 115.919034 376.56 
L 115.919034 65.931429 
L 108.906047 65.931429 
z
" style="fill:#55638a;"/>
   </g>
   <g id="patch_6">
    <path clip-path="url(#p1298a077f0)" d="M 117.672281 376.56 
L 124.685268 376.56 
L 124.685268 354.660398 
L 117.672281 354.660398 
z
" style="fill:#55638a;"/>
   </g>
   <g id="patch_7">
    <path clip-path="url(#p1298a077f0)" d="M 126.438515 376.56 
L 133.451502 376.56 
L 133.451502 354.660398 
L 126.438515 354.660398 
z
" style="fill:#55638a;"/>
   </g>
   <g id="patch_8">
    <path clip-path="url(#p1298a077f0)" d="M 135.204748 376.56 
L 142.217735 376.56 
L 142.217735 276.859178 
L 135.204748 276.859178 
z
" style="fill:#55638a;"/>
   </g>
   <g id="patch_9">
    <path clip-path="url(#p1298a077f0)" d="M 143.970982 376.56 
L 150.983969 376.56 
L 150.983969 365.418097 
L 143.970982 365.418097 
z
" style="fill:#55638a;"/>
   </g>
   <g id="patch_10">
    <path clip-path="url(#p1298a077f0)" d="M 152.737216 376.56 
L 159.750203 376.56 
L 159.750203 365.033893 
L 152.737216 365.033893 
z
" style="fill:#55638a;"/>
   </g>
   <g id="patch_11">
    <path clip-path="url(#p1298a077f0)" d="M 161.50345 376.56 
L 168.516437 376.56 
L 168.516437 338.331747 
L 161.50345 338.331747 
z
" style="fill:#55638a;"/>
   </g>
   <g id="patch_12">
    <path clip-path="url(#p1298a077f0)" d="M 170.269683 376.56 
L 177.28267 376.56 
L 177.28267 370.989049 
L 170.269683 370.989049 
z
" style="fill:#55638a;"/>
   </g>
   <g id="patch_13">
    <path clip-path="url(#p1298a077f0)" d="M 179.035917 376.56 
L 186.048904 376.56 
L 186.048904 370.02854 
L 179.035917 370.02854 
z
" style="fill:#55638a;"/>
   </g>
   <g id="patch_14">
    <path clip-path="url(#p1298a077f0)" d="M 187.802151 376.56 
L 194.815138 376.56 
L 194.815138 354.852499 
L 187.802151 354.852499 
z
" style="fill:#55638a;"/>
   </g>
   <g id="patch_15">
    <path clip-path="url(#p1298a077f0)" d="M 196.568385 376.56 
L 203.581372 376.56 
L 203.581372 371.565354 
L 196.568385 371.565354 
z
" style="fill:#55638a;"/>
   </g>
   <g id="patch_16">
    <path clip-path="url(#p1298a077f0)" d="M 205.334619 376.56 
L 212.347606 376.56 
L 212.347606 370.796947 
L 205.334619 370.796947 
z
" style="fill:#55638a;"/>
   </g>
   <g id="patch_17">
    <path clip-path="url(#p1298a077f0)" d="M 214.100852 376.56 
L 221.113839 376.56 
L 221.113839 366.378606 
L 214.100852 366.378606 
z
" style="fill:#55638a;"/>
   </g>
   <g id="patch_18">
    <path clip-path="url(#p1298a077f0)" d="M 222.867086 376.56 
L 229.880073 376.56 
L 229.880073 372.525863 
L 222.867086 372.525863 
z
" style="fill:#55638a;"/>
   </g>
   <g id="patch_19">
    <path clip-path="url(#p1298a077f0)" d="M 231.63332 376.56 
L 238.646307 376.56 
L 238.646307 372.333761 
L 231.63332 372.333761 
z
" style="fill:#55638a;"/>
   </g>
   <g id="patch_20">
    <path clip-path="url(#p1298a077f0)" d="M 240.399554 376.56 
L 247.412541 376.56 
L 247.412541 370.796947 
L 240.399554 370.796947 
z
" style="fill:#55638a;"/>
   </g>
   <g id="patch_21">
    <path clip-path="url(#p1298a077f0)" d="M 249.165787 376.56 
L 256.178774 376.56 
L 256.178774 374.831084 
L 249.165787 374.831084 
z
" style="fill:#55638a;"/>
   </g>
   <g id="patch_22">
    <path clip-path="url(#p1298a077f0)" d="M 257.932021 376.56 
L 264.945008 376.56 
L 264.945008 373.102168 
L 257.932021 373.102168 
z
" style="fill:#55638a;"/>
   </g>
   <g id="patch_23">
    <path clip-path="url(#p1298a077f0)" d="M 266.698255 376.56 
L 273.711242 376.56 
L 273.711242 372.717964 
L 266.698255 372.717964 
z
" style="fill:#55638a;"/>
   </g>
   <g id="patch_24">
    <path clip-path="url(#p1298a077f0)" d="M 275.464489 376.56 
L 282.477476 376.56 
L 282.477476 374.062677 
L 275.464489 374.062677 
z
" style="fill:#55638a;"/>
   </g>
   <g id="patch_25">
    <path clip-path="url(#p1298a077f0)" d="M 284.230722 376.56 
L 291.243709 376.56 
L 291.243709 374.254779 
L 284.230722 374.254779 
z
" style="fill:#55638a;"/>
   </g>
   <g id="patch_26">
    <path clip-path="url(#p1298a077f0)" d="M 292.996956 376.56 
L 300.009943 376.56 
L 300.009943 372.910066 
L 292.996956 372.910066 
z
" style="fill:#55638a;"/>
   </g>
   <g id="patch_27">
    <path clip-path="url(#p1298a077f0)" d="M 301.76319 376.56 
L 308.776177 376.56 
L 308.776177 374.638982 
L 301.76319 374.638982 
z
" style="fill:#55638a;"/>
   </g>
   <g id="patch_28">
    <path clip-path="url(#p1298a077f0)" d="M 310.529424 376.56 
L 317.542411 376.56 
L 317.542411 374.062677 
L 310.529424 374.062677 
z
" style="fill:#55638a;"/>
   </g>
   <g id="patch_29">
    <path clip-path="url(#p1298a077f0)" d="M 319.295657 376.56 
L 326.308644 376.56 
L 326.308644 375.407389 
L 319.295657 375.407389 
z
" style="fill:#55638a;"/>
   </g>
   <g id="patch_30">
    <path clip-path="url(#p1298a077f0)" d="M 328.061891 376.56 
L 335.074878 376.56 
L 335.074878 375.983695 
L 328.061891 375.983695 
z
" style="fill:#55638a;"/>
   </g>
   <g id="patch_31">
    <path clip-path="url(#p1298a077f0)" d="M 336.828125 376.56 
L 343.841112 376.56 
L 343.841112 373.870575 
L 336.828125 373.870575 
z
" style="fill:#55638a;"/>
   </g>
   <g id="patch_32">
    <path clip-path="url(#p1298a077f0)" d="M 345.594359 376.56 
L 352.607346 376.56 
L 352.607346 375.407389 
L 345.594359 375.407389 
z
" style="fill:#55638a;"/>
   </g>
   <g id="patch_33">
    <path clip-path="url(#p1298a077f0)" d="M 354.360593 376.56 
L 361.37358 376.56 
L 361.37358 375.983695 
L 354.360593 375.983695 
z
" style="fill:#55638a;"/>
   </g>
   <g id="patch_34">
    <path clip-path="url(#p1298a077f0)" d="M 363.126826 376.56 
L 370.139813 376.56 
L 370.139813 375.215288 
L 363.126826 375.215288 
z
" style="fill:#55638a;"/>
   </g>
   <g id="patch_35">
    <path clip-path="url(#p1298a077f0)" d="M 371.89306 376.56 
L 378.906047 376.56 
L 378.906047 375.407389 
L 371.89306 375.407389 
z
" style="fill:#55638a;"/>
   </g>
   <g id="patch_36">
    <path clip-path="url(#p1298a077f0)" d="M 380.659294 376.56 
L 387.672281 376.56 
L 387.672281 375.791593 
L 380.659294 375.791593 
z
" style="fill:#55638a;"/>
   </g>
   <g id="patch_37">
    <path clip-path="url(#p1298a077f0)" d="M 389.425528 376.56 
L 396.438515 376.56 
L 396.438515 375.791593 
L 389.425528 375.791593 
z
" style="fill:#55638a;"/>
   </g>
   <g id="patch_38">
    <path clip-path="url(#p1298a077f0)" d="M 398.191761 376.56 
L 405.204748 376.56 
L 405.204748 375.407389 
L 398.191761 375.407389 
z
" style="fill:#55638a;"/>
   </g>
   <g id="patch_39">
    <path clip-path="url(#p1298a077f0)" d="M 406.957995 376.56 
L 413.970982 376.56 
L 413.970982 375.407389 
L 406.957995 375.407389 
z
" style="fill:#55638a;"/>
   </g>
   <g id="patch_40">
    <path clip-path="url(#p1298a077f0)" d="M 415.724229 376.56 
L 422.737216 376.56 
L 422.737216 375.983695 
L 415.724229 375.983695 
z
" style="fill:#55638a;"/>
   </g>
   <g id="patch_41">
    <path clip-path="url(#p1298a077f0)" d="M 424.490463 376.56 
L 431.50345 376.56 
L 431.50345 376.367898 
L 424.490463 376.367898 
z
" style="fill:#55638a;"/>
   </g>
   <g id="patch_42">
    <path clip-path="url(#p1298a077f0)" d="M 433.256696 376.56 
L 440.269683 376.56 
L 440.269683 376.175796 
L 433.256696 376.175796 
z
" style="fill:#55638a;"/>
   </g>
   <g id="patch_43">
    <path clip-path="url(#p1298a077f0)" d="M 442.02293 376.56 
L 449.035917 376.56 
L 449.035917 376.56 
L 442.02293 376.56 
z
" style="fill:#55638a;"/>
   </g>
   <g id="patch_44">
    <path clip-path="url(#p1298a077f0)" d="M 450.789164 376.56 
L 457.802151 376.56 
L 457.802151 375.983695 
L 450.789164 375.983695 
z
" style="fill:#55638a;"/>
   </g>
   <g id="patch_45">
    <path clip-path="url(#p1298a077f0)" d="M 459.555398 376.56 
L 466.568385 376.56 
L 466.568385 376.175796 
L 459.555398 376.175796 
z
" style="fill:#55638a;"/>
   </g>
   <g id="patch_46">
    <path clip-path="url(#p1298a077f0)" d="M 468.321631 376.56 
L 475.334619 376.56 
L 475.334619 376.175796 
L 468.321631 376.175796 
z
" style="fill:#55638a;"/>
   </g>
   <g id="patch_47">
    <path clip-path="url(#p1298a077f0)" d="M 477.087865 376.56 
L 484.100852 376.56 
L 484.100852 376.56 
L 477.087865 376.56 
z
" style="fill:#55638a;"/>
   </g>
   <g id="patch_48">
    <path clip-path="url(#p1298a077f0)" d="M 485.854099 376.56 
L 492.867086 376.56 
L 492.867086 376.175796 
L 485.854099 376.175796 
z
" style="fill:#55638a;"/>
   </g>
   <g id="patch_49">
    <path clip-path="url(#p1298a077f0)" d="M 494.620333 376.56 
L 501.63332 376.56 
L 501.63332 376.56 
L 494.620333 376.56 
z
" style="fill:#55638a;"/>
   </g>
   <g id="patch_50">
    <path clip-path="url(#p1298a077f0)" d="M 503.386567 376.56 
L 510.399554 376.56 
L 510.399554 376.56 
L 503.386567 376.56 
z
" style="fill:#55638a;"/>
   </g>
   <g id="patch_51">
    <path clip-path="url(#p1298a077f0)" d="M 512.1528 376.56 
L 519.165787 376.56 
L 519.165787 376.56 
L 512.1528 376.56 
z
" style="fill:#55638a;"/>
   </g>
   <g id="patch_52">
    <path clip-path="url(#p1298a077f0)" d="M 520.919034 376.56 
L 527.932021 376.56 
L 527.932021 376.56 
L 520.919034 376.56 
z
" style="fill:#55638a;"/>
   </g>
   <g id="patch_53">
    <path clip-path="url(#p1298a077f0)" d="M 529.685268 376.56 
L 536.698255 376.56 
L 536.698255 376.56 
L 529.685268 376.56 
z
" style="fill:#55638a;"/>
   </g>
   <g id="patch_54">
    <path clip-path="url(#p1298a077f0)" d="M 538.451502 376.56 
L 545.464489 376.56 
L 545.464489 376.56 
L 538.451502 376.56 
z
" style="fill:#55638a;"/>
   </g>
   <g id="patch_55">
    <path clip-path="url(#p1298a077f0)" d="M 547.217735 376.56 
L 554.230722 376.56 
L 554.230722 376.367898 
L 547.217735 376.367898 
z
" style="fill:#55638a;"/>
   </g>
   <g id="patch_56">
    <path clip-path="url(#p1298a077f0)" d="M 555.983969 376.56 
L 562.996956 376.56 
L 562.996956 376.367898 
L 555.983969 376.367898 
z
" style="fill:#55638a;"/>
   </g>
   <g id="patch_57">
    <path clip-path="url(#p1298a077f0)" d="M 564.750203 376.56 
L 571.76319 376.56 
L 571.76319 376.367898 
L 564.750203 376.367898 
z
" style="fill:#55638a;"/>
   </g>
   <g id="patch_58">
    <path clip-path="url(#p1298a077f0)" d="M 573.516437 376.56 
L 580.529424 376.56 
L 580.529424 376.367898 
L 573.516437 376.367898 
z
" style="fill:#55638a;"/>
   </g>
   <g id="patch_59">
    <path clip-path="url(#p1298a077f0)" d="M 582.28267 376.56 
L 589.295657 376.56 
L 589.295657 376.175796 
L 582.28267 376.175796 
z
" style="fill:#55638a;"/>
   </g>
   <g id="patch_60">
    <path clip-path="url(#p1298a077f0)" d="M 591.048904 376.56 
L 598.061891 376.56 
L 598.061891 376.367898 
L 591.048904 376.367898 
z
" style="fill:#55638a;"/>
   </g>
   <g id="patch_61">
    <path clip-path="url(#p1298a077f0)" d="M 599.815138 376.56 
L 606.828125 376.56 
L 606.828125 376.56 
L 599.815138 376.56 
z
" style="fill:#55638a;"/>
   </g>
   <g id="patch_62">
    <path clip-path="url(#p1298a077f0)" d="M 608.581372 376.56 
L 615.594359 376.56 
L 615.594359 376.56 
L 608.581372 376.56 
z
" style="fill:#55638a;"/>
   </g>
   <g id="patch_63">
    <path clip-path="url(#p1298a077f0)" d="M 617.347606 376.56 
L 624.360593 376.56 
L 624.360593 376.367898 
L 617.347606 376.367898 
z
" style="fill:#55638a;"/>
   </g>
   <g id="patch_64">
    <path clip-path="url(#p1298a077f0)" d="M 626.113839 376.56 
L 633.126826 376.56 
L 633.126826 376.367898 
L 626.113839 376.367898 
z
" style="fill:#55638a;"/>
   </g>
   <g id="patch_65">
    <path clip-path="url(#p1298a077f0)" d="M 634.880073 376.56 
L 641.89306 376.56 
L 641.89306 376.367898 
L 634.880073 376.367898 
z
" style="fill:#55638a;"/>
   </g>
   <g id="patch_66">
    <path clip-path="url(#p1298a077f0)" d="M 643.646307 376.56 
L 650.659294 376.56 
L 650.659294 376.56 
L 643.646307 376.56 
z
" style="fill:#55638a;"/>
   </g>
   <g id="patch_67">
    <path clip-path="url(#p1298a077f0)" d="M 652.412541 376.56 
L 659.425528 376.56 
L 659.425528 376.56 
L 652.412541 376.56 
z
" style="fill:#55638a;"/>
   </g>
   <g id="patch_68">
    <path clip-path="url(#p1298a077f0)" d="M 661.178774 376.56 
L 668.191761 376.56 
L 668.191761 376.56 
L 661.178774 376.56 
z
" style="fill:#55638a;"/>
   </g>
   <g id="patch_69">
    <path clip-path="url(#p1298a077f0)" d="M 669.945008 376.56 
L 676.957995 376.56 
L 676.957995 376.56 
L 669.945008 376.56 
z
" style="fill:#55638a;"/>
   </g>
   <g id="patch_70">
    <path clip-path="url(#p1298a077f0)" d="M 678.711242 376.56 
L 685.724229 376.56 
L 685.724229 376.56 
L 678.711242 376.56 
z
" style="fill:#55638a;"/>
   </g>
   <g id="patch_71">
    <path clip-path="url(#p1298a077f0)" d="M 687.477476 376.56 
L 694.490463 376.56 
L 694.490463 376.56 
L 687.477476 376.56 
z
" style="fill:#55638a;"/>
   </g>
   <g id="patch_72">
    <path clip-path="url(#p1298a077f0)" d="M 696.243709 376.56 
L 703.256696 376.56 
L 703.256696 376.56 
L 696.243709 376.56 
z
" style="fill:#55638a;"/>
   </g>
   <g id="patch_73">
    <path clip-path="url(#p1298a077f0)" d="M 705.009943 376.56 
L 712.02293 376.56 
L 712.02293 376.56 
L 705.009943 376.56 
z
" style="fill:#55638a;"/>
   </g>
   <g id="patch_74">
    <path clip-path="url(#p1298a077f0)" d="M 713.776177 376.56 
L 720.789164 376.56 
L 720.789164 376.56 
L 713.776177 376.56 
z
" style="fill:#55638a;"/>
   </g>
   <g id="patch_75">
    <path clip-path="url(#p1298a077f0)" d="M 722.542411 376.56 
L 729.555398 376.56 
L 729.555398 376.367898 
L 722.542411 376.367898 
z
" style="fill:#55638a;"/>
   </g>
   <g id="patch_76">
    <path clip-path="url(#p1298a077f0)" d="M 731.308644 376.56 
L 738.321631 376.56 
L 738.321631 376.367898 
L 731.308644 376.367898 
z
" style="fill:#55638a;"/>
   </g>
   <g id="patch_77">
    <path clip-path="url(#p1298a077f0)" d="M 740.074878 376.56 
L 747.087865 376.56 
L 747.087865 376.56 
L 740.074878 376.56 
z
" style="fill:#55638a;"/>
   </g>
   <g id="patch_78">
    <path clip-path="url(#p1298a077f0)" d="M 748.841112 376.56 
L 755.854099 376.56 
L 755.854099 376.56 
L 748.841112 376.56 
z
" style="fill:#55638a;"/>
   </g>
   <g id="patch_79">
    <path clip-path="url(#p1298a077f0)" d="M 757.607346 376.56 
L 764.620333 376.56 
L 764.620333 376.56 
L 757.607346 376.56 
z
" style="fill:#55638a;"/>
   </g>
   <g id="patch_80">
    <path clip-path="url(#p1298a077f0)" d="M 766.37358 376.56 
L 773.386567 376.56 
L 773.386567 376.56 
L 766.37358 376.56 
z
" style="fill:#55638a;"/>
   </g>
   <g id="patch_81">
    <path clip-path="url(#p1298a077f0)" d="M 775.139813 376.56 
L 782.1528 376.56 
L 782.1528 376.56 
L 775.139813 376.56 
z
" style="fill:#55638a;"/>
   </g>
   <g id="patch_82">
    <path clip-path="url(#p1298a077f0)" d="M 783.906047 376.56 
L 790.919034 376.56 
L 790.919034 376.56 
L 783.906047 376.56 
z
" style="fill:#55638a;"/>
   </g>
   <g id="patch_83">
    <path clip-path="url(#p1298a077f0)" d="M 792.672281 376.56 
L 799.685268 376.56 
L 799.685268 376.56 
L 792.672281 376.56 
z
" style="fill:#55638a;"/>
   </g>
   <g id="patch_84">
    <path clip-path="url(#p1298a077f0)" d="M 801.438515 376.56 
L 808.451502 376.56 
L 808.451502 376.56 
L 801.438515 376.56 
z
" style="fill:#55638a;"/>
   </g>
   <g id="patch_85">
    <path clip-path="url(#p1298a077f0)" d="M 810.204748 376.56 
L 817.217735 376.56 
L 817.217735 376.56 
L 810.204748 376.56 
z
" style="fill:#55638a;"/>
   </g>
   <g id="patch_86">
    <path clip-path="url(#p1298a077f0)" d="M 818.970982 376.56 
L 825.983969 376.56 
L 825.983969 376.56 
L 818.970982 376.56 
z
" style="fill:#55638a;"/>
   </g>
   <g id="patch_87">
    <path clip-path="url(#p1298a077f0)" d="M 827.737216 376.56 
L 834.750203 376.56 
L 834.750203 376.56 
L 827.737216 376.56 
z
" style="fill:#55638a;"/>
   </g>
   <g id="patch_88">
    <path clip-path="url(#p1298a077f0)" d="M 836.50345 376.56 
L 843.516437 376.56 
L 843.516437 376.56 
L 836.50345 376.56 
z
" style="fill:#55638a;"/>
   </g>
   <g id="patch_89">
    <path clip-path="url(#p1298a077f0)" d="M 845.269683 376.56 
L 852.28267 376.56 
L 852.28267 376.367898 
L 845.269683 376.367898 
z
" style="fill:#55638a;"/>
   </g>
   <g id="matplotlib.axis_1">
    <g id="xtick_1">
     <g id="line2d_1">
      <defs>
       <path d="M 0 0 
L 0 3.5 
" id="m2a9b9d17dc" style="stroke:#000000;stroke-width:0.8;"/>
      </defs>
      <g>
       <use style="stroke:#000000;stroke-width:0.8;" x="86.113839" xlink:href="#m2a9b9d17dc" y="376.56"/>
      </g>
     </g>
     <g id="text_1">
      <!-- 0 -->
      <defs>
       <path d="M 31.78125 66.40625 
Q 24.171875 66.40625 20.328125 58.90625 
Q 16.5 51.421875 16.5 36.375 
Q 16.5 21.390625 20.328125 13.890625 
Q 24.171875 6.390625 31.78125 6.390625 
Q 39.453125 6.390625 43.28125 13.890625 
Q 47.125 21.390625 47.125 36.375 
Q 47.125 51.421875 43.28125 58.90625 
Q 39.453125 66.40625 31.78125 66.40625 
z
M 31.78125 74.21875 
Q 44.046875 74.21875 50.515625 64.515625 
Q 56.984375 54.828125 56.984375 36.375 
Q 56.984375 17.96875 50.515625 8.265625 
Q 44.046875 -1.421875 31.78125 -1.421875 
Q 19.53125 -1.421875 13.0625 8.265625 
Q 6.59375 17.96875 6.59375 36.375 
Q 6.59375 54.828125 13.0625 64.515625 
Q 19.53125 74.21875 31.78125 74.21875 
z
" id="DejaVuSans-30"/>
      </defs>
      <g transform="translate(82.932589 391.158437)scale(0.1 -0.1)">
       <use xlink:href="#DejaVuSans-30"/>
      </g>
     </g>
    </g>
    <g id="xtick_2">
     <g id="line2d_2">
      <g>
       <use style="stroke:#000000;stroke-width:0.8;" x="261.438515" xlink:href="#m2a9b9d17dc" y="376.56"/>
      </g>
     </g>
     <g id="text_2">
      <!-- 20 -->
      <defs>
       <path d="M 19.1875 8.296875 
L 53.609375 8.296875 
L 53.609375 0 
L 7.328125 0 
L 7.328125 8.296875 
Q 12.9375 14.109375 22.625 23.890625 
Q 32.328125 33.6875 34.8125 36.53125 
Q 39.546875 41.84375 41.421875 45.53125 
Q 43.3125 49.21875 43.3125 52.78125 
Q 43.3125 58.59375 39.234375 62.25 
Q 35.15625 65.921875 28.609375 65.921875 
Q 23.96875 65.921875 18.8125 64.3125 
Q 13.671875 62.703125 7.8125 59.421875 
L 7.8125 69.390625 
Q 13.765625 71.78125 18.9375 73 
Q 24.125 74.21875 28.421875 74.21875 
Q 39.75 74.21875 46.484375 68.546875 
Q 53.21875 62.890625 53.21875 53.421875 
Q 53.21875 48.921875 51.53125 44.890625 
Q 49.859375 40.875 45.40625 35.40625 
Q 44.1875 33.984375 37.640625 27.21875 
Q 31.109375 20.453125 19.1875 8.296875 
z
" id="DejaVuSans-32"/>
      </defs>
      <g transform="translate(255.076015 391.158437)scale(0.1 -0.1)">
       <use xlink:href="#DejaVuSans-32"/>
       <use x="63.623047" xlink:href="#DejaVuSans-30"/>
      </g>
     </g>
    </g>
    <g id="xtick_3">
     <g id="line2d_3">
      <g>
       <use style="stroke:#000000;stroke-width:0.8;" x="436.76319" xlink:href="#m2a9b9d17dc" y="376.56"/>
      </g>
     </g>
     <g id="text_3">
      <!-- 40 -->
      <defs>
       <path d="M 37.796875 64.3125 
L 12.890625 25.390625 
L 37.796875 25.390625 
z
M 35.203125 72.90625 
L 47.609375 72.90625 
L 47.609375 25.390625 
L 58.015625 25.390625 
L 58.015625 17.1875 
L 47.609375 17.1875 
L 47.609375 0 
L 37.796875 0 
L 37.796875 17.1875 
L 4.890625 17.1875 
L 4.890625 26.703125 
z
" id="DejaVuSans-34"/>
      </defs>
      <g transform="translate(430.40069 391.158437)scale(0.1 -0.1)">
       <use xlink:href="#DejaVuSans-34"/>
       <use x="63.623047" xlink:href="#DejaVuSans-30"/>
      </g>
     </g>
    </g>
    <g id="xtick_4">
     <g id="line2d_4">
      <g>
       <use style="stroke:#000000;stroke-width:0.8;" x="612.087865" xlink:href="#m2a9b9d17dc" y="376.56"/>
      </g>
     </g>
     <g id="text_4">
      <!-- 60 -->
      <defs>
       <path d="M 33.015625 40.375 
Q 26.375 40.375 22.484375 35.828125 
Q 18.609375 31.296875 18.609375 23.390625 
Q 18.609375 15.53125 22.484375 10.953125 
Q 26.375 6.390625 33.015625 6.390625 
Q 39.65625 6.390625 43.53125 10.953125 
Q 47.40625 15.53125 47.40625 23.390625 
Q 47.40625 31.296875 43.53125 35.828125 
Q 39.65625 40.375 33.015625 40.375 
z
M 52.59375 71.296875 
L 52.59375 62.3125 
Q 48.875 64.0625 45.09375 64.984375 
Q 41.3125 65.921875 37.59375 65.921875 
Q 27.828125 65.921875 22.671875 59.328125 
Q 17.53125 52.734375 16.796875 39.40625 
Q 19.671875 43.65625 24.015625 45.921875 
Q 28.375 48.1875 33.59375 48.1875 
Q 44.578125 48.1875 50.953125 41.515625 
Q 57.328125 34.859375 57.328125 23.390625 
Q 57.328125 12.15625 50.6875 5.359375 
Q 44.046875 -1.421875 33.015625 -1.421875 
Q 20.359375 -1.421875 13.671875 8.265625 
Q 6.984375 17.96875 6.984375 36.375 
Q 6.984375 53.65625 15.1875 63.9375 
Q 23.390625 74.21875 37.203125 74.21875 
Q 40.921875 74.21875 44.703125 73.484375 
Q 48.484375 72.75 52.59375 71.296875 
z
" id="DejaVuSans-36"/>
      </defs>
      <g transform="translate(605.725365 391.158437)scale(0.1 -0.1)">
       <use xlink:href="#DejaVuSans-36"/>
       <use x="63.623047" xlink:href="#DejaVuSans-30"/>
      </g>
     </g>
    </g>
    <g id="xtick_5">
     <g id="line2d_5">
      <g>
       <use style="stroke:#000000;stroke-width:0.8;" x="787.412541" xlink:href="#m2a9b9d17dc" y="376.56"/>
      </g>
     </g>
     <g id="text_5">
      <!-- 80 -->
      <defs>
       <path d="M 31.78125 34.625 
Q 24.75 34.625 20.71875 30.859375 
Q 16.703125 27.09375 16.703125 20.515625 
Q 16.703125 13.921875 20.71875 10.15625 
Q 24.75 6.390625 31.78125 6.390625 
Q 38.8125 6.390625 42.859375 10.171875 
Q 46.921875 13.96875 46.921875 20.515625 
Q 46.921875 27.09375 42.890625 30.859375 
Q 38.875 34.625 31.78125 34.625 
z
M 21.921875 38.8125 
Q 15.578125 40.375 12.03125 44.71875 
Q 8.5 49.078125 8.5 55.328125 
Q 8.5 64.0625 14.71875 69.140625 
Q 20.953125 74.21875 31.78125 74.21875 
Q 42.671875 74.21875 48.875 69.140625 
Q 55.078125 64.0625 55.078125 55.328125 
Q 55.078125 49.078125 51.53125 44.71875 
Q 48 40.375 41.703125 38.8125 
Q 48.828125 37.15625 52.796875 32.3125 
Q 56.78125 27.484375 56.78125 20.515625 
Q 56.78125 9.90625 50.3125 4.234375 
Q 43.84375 -1.421875 31.78125 -1.421875 
Q 19.734375 -1.421875 13.25 4.234375 
Q 6.78125 9.90625 6.78125 20.515625 
Q 6.78125 27.484375 10.78125 32.3125 
Q 14.796875 37.15625 21.921875 38.8125 
z
M 18.3125 54.390625 
Q 18.3125 48.734375 21.84375 45.5625 
Q 25.390625 42.390625 31.78125 42.390625 
Q 38.140625 42.390625 41.71875 45.5625 
Q 45.3125 48.734375 45.3125 54.390625 
Q 45.3125 60.0625 41.71875 63.234375 
Q 38.140625 66.40625 31.78125 66.40625 
Q 25.390625 66.40625 21.84375 63.234375 
Q 18.3125 60.0625 18.3125 54.390625 
z
" id="DejaVuSans-38"/>
      </defs>
      <g transform="translate(781.050041 391.158437)scale(0.1 -0.1)">
       <use xlink:href="#DejaVuSans-38"/>
       <use x="63.623047" xlink:href="#DejaVuSans-30"/>
      </g>
     </g>
    </g>
    <g id="text_6">
     <!-- Degrees -->
     <defs>
      <path d="M 19.671875 64.796875 
L 19.671875 8.109375 
L 31.59375 8.109375 
Q 46.6875 8.109375 53.6875 14.9375 
Q 60.6875 21.78125 60.6875 36.53125 
Q 60.6875 51.171875 53.6875 57.984375 
Q 46.6875 64.796875 31.59375 64.796875 
z
M 9.8125 72.90625 
L 30.078125 72.90625 
Q 51.265625 72.90625 61.171875 64.09375 
Q 71.09375 55.28125 71.09375 36.53125 
Q 71.09375 17.671875 61.125 8.828125 
Q 51.171875 0 30.078125 0 
L 9.8125 0 
z
" id="DejaVuSans-44"/>
      <path d="M 56.203125 29.59375 
L 56.203125 25.203125 
L 14.890625 25.203125 
Q 15.484375 15.921875 20.484375 11.0625 
Q 25.484375 6.203125 34.421875 6.203125 
Q 39.59375 6.203125 44.453125 7.46875 
Q 49.3125 8.734375 54.109375 11.28125 
L 54.109375 2.78125 
Q 49.265625 0.734375 44.1875 -0.34375 
Q 39.109375 -1.421875 33.890625 -1.421875 
Q 20.796875 -1.421875 13.15625 6.1875 
Q 5.515625 13.8125 5.515625 26.8125 
Q 5.515625 40.234375 12.765625 48.109375 
Q 20.015625 56 32.328125 56 
Q 43.359375 56 49.78125 48.890625 
Q 56.203125 41.796875 56.203125 29.59375 
z
M 47.21875 32.234375 
Q 47.125 39.59375 43.09375 43.984375 
Q 39.0625 48.390625 32.421875 48.390625 
Q 24.90625 48.390625 20.390625 44.140625 
Q 15.875 39.890625 15.1875 32.171875 
z
" id="DejaVuSans-65"/>
      <path d="M 45.40625 27.984375 
Q 45.40625 37.75 41.375 43.109375 
Q 37.359375 48.484375 30.078125 48.484375 
Q 22.859375 48.484375 18.828125 43.109375 
Q 14.796875 37.75 14.796875 27.984375 
Q 14.796875 18.265625 18.828125 12.890625 
Q 22.859375 7.515625 30.078125 7.515625 
Q 37.359375 7.515625 41.375 12.890625 
Q 45.40625 18.265625 45.40625 27.984375 
z
M 54.390625 6.78125 
Q 54.390625 -7.171875 48.1875 -13.984375 
Q 42 -20.796875 29.203125 -20.796875 
Q 24.46875 -20.796875 20.265625 -20.09375 
Q 16.0625 -19.390625 12.109375 -17.921875 
L 12.109375 -9.1875 
Q 16.0625 -11.328125 19.921875 -12.34375 
Q 23.78125 -13.375 27.78125 -13.375 
Q 36.625 -13.375 41.015625 -8.765625 
Q 45.40625 -4.15625 45.40625 5.171875 
L 45.40625 9.625 
Q 42.625 4.78125 38.28125 2.390625 
Q 33.9375 0 27.875 0 
Q 17.828125 0 11.671875 7.65625 
Q 5.515625 15.328125 5.515625 27.984375 
Q 5.515625 40.671875 11.671875 48.328125 
Q 17.828125 56 27.875 56 
Q 33.9375 56 38.28125 53.609375 
Q 42.625 51.21875 45.40625 46.390625 
L 45.40625 54.6875 
L 54.390625 54.6875 
z
" id="DejaVuSans-67"/>
      <path d="M 41.109375 46.296875 
Q 39.59375 47.171875 37.8125 47.578125 
Q 36.03125 48 33.890625 48 
Q 26.265625 48 22.1875 43.046875 
Q 18.109375 38.09375 18.109375 28.8125 
L 18.109375 0 
L 9.078125 0 
L 9.078125 54.6875 
L 18.109375 54.6875 
L 18.109375 46.1875 
Q 20.953125 51.171875 25.484375 53.578125 
Q 30.03125 56 36.53125 56 
Q 37.453125 56 38.578125 55.875 
Q 39.703125 55.765625 41.0625 55.515625 
z
" id="DejaVuSans-72"/>
      <path d="M 44.28125 53.078125 
L 44.28125 44.578125 
Q 40.484375 46.53125 36.375 47.5 
Q 32.28125 48.484375 27.875 48.484375 
Q 21.1875 48.484375 17.84375 46.4375 
Q 14.5 44.390625 14.5 40.28125 
Q 14.5 37.15625 16.890625 35.375 
Q 19.28125 33.59375 26.515625 31.984375 
L 29.59375 31.296875 
Q 39.15625 29.25 43.1875 25.515625 
Q 47.21875 21.78125 47.21875 15.09375 
Q 47.21875 7.46875 41.1875 3.015625 
Q 35.15625 -1.421875 24.609375 -1.421875 
Q 20.21875 -1.421875 15.453125 -0.5625 
Q 10.6875 0.296875 5.421875 2 
L 5.421875 11.28125 
Q 10.40625 8.6875 15.234375 7.390625 
Q 20.0625 6.109375 24.8125 6.109375 
Q 31.15625 6.109375 34.5625 8.28125 
Q 37.984375 10.453125 37.984375 14.40625 
Q 37.984375 18.0625 35.515625 20.015625 
Q 33.0625 21.96875 24.703125 23.78125 
L 21.578125 24.515625 
Q 13.234375 26.265625 9.515625 29.90625 
Q 5.8125 33.546875 5.8125 39.890625 
Q 5.8125 47.609375 11.28125 51.796875 
Q 16.75 56 26.8125 56 
Q 31.78125 56 36.171875 55.265625 
Q 40.578125 54.546875 44.28125 53.078125 
z
" id="DejaVuSans-73"/>
     </defs>
     <g transform="translate(450.915625 404.836562)scale(0.1 -0.1)">
      <use xlink:href="#DejaVuSans-44"/>
      <use x="77.001953" xlink:href="#DejaVuSans-65"/>
      <use x="138.525391" xlink:href="#DejaVuSans-67"/>
      <use x="202.001953" xlink:href="#DejaVuSans-72"/>
      <use x="243.083984" xlink:href="#DejaVuSans-65"/>
      <use x="304.607422" xlink:href="#DejaVuSans-65"/>
      <use x="366.130859" xlink:href="#DejaVuSans-73"/>
     </g>
    </g>
   </g>
   <g id="matplotlib.axis_2">
    <g id="ytick_1">
     <g id="line2d_6">
      <defs>
       <path d="M 0 0 
L -3.5 0 
" id="mef9afc3ddd" style="stroke:#000000;stroke-width:0.8;"/>
      </defs>
      <g>
       <use style="stroke:#000000;stroke-width:0.8;" x="53.328125" xlink:href="#mef9afc3ddd" y="376.56"/>
      </g>
     </g>
     <g id="text_7">
      <!-- 0 -->
      <g transform="translate(39.965625 380.359219)scale(0.1 -0.1)">
       <use xlink:href="#DejaVuSans-30"/>
      </g>
     </g>
    </g>
    <g id="ytick_2">
     <g id="line2d_7">
      <g>
       <use style="stroke:#000000;stroke-width:0.8;" x="53.328125" xlink:href="#mef9afc3ddd" y="338.139645"/>
      </g>
     </g>
     <g id="text_8">
      <!-- 200 -->
      <g transform="translate(27.240625 341.938864)scale(0.1 -0.1)">
       <use xlink:href="#DejaVuSans-32"/>
       <use x="63.623047" xlink:href="#DejaVuSans-30"/>
       <use x="127.246094" xlink:href="#DejaVuSans-30"/>
      </g>
     </g>
    </g>
    <g id="ytick_3">
     <g id="line2d_8">
      <g>
       <use style="stroke:#000000;stroke-width:0.8;" x="53.328125" xlink:href="#mef9afc3ddd" y="299.71929"/>
      </g>
     </g>
     <g id="text_9">
      <!-- 400 -->
      <g transform="translate(27.240625 303.518508)scale(0.1 -0.1)">
       <use xlink:href="#DejaVuSans-34"/>
       <use x="63.623047" xlink:href="#DejaVuSans-30"/>
       <use x="127.246094" xlink:href="#DejaVuSans-30"/>
      </g>
     </g>
    </g>
    <g id="ytick_4">
     <g id="line2d_9">
      <g>
       <use style="stroke:#000000;stroke-width:0.8;" x="53.328125" xlink:href="#mef9afc3ddd" y="261.298935"/>
      </g>
     </g>
     <g id="text_10">
      <!-- 600 -->
      <g transform="translate(27.240625 265.098153)scale(0.1 -0.1)">
       <use xlink:href="#DejaVuSans-36"/>
       <use x="63.623047" xlink:href="#DejaVuSans-30"/>
       <use x="127.246094" xlink:href="#DejaVuSans-30"/>
      </g>
     </g>
    </g>
    <g id="ytick_5">
     <g id="line2d_10">
      <g>
       <use style="stroke:#000000;stroke-width:0.8;" x="53.328125" xlink:href="#mef9afc3ddd" y="222.878579"/>
      </g>
     </g>
     <g id="text_11">
      <!-- 800 -->
      <g transform="translate(27.240625 226.677798)scale(0.1 -0.1)">
       <use xlink:href="#DejaVuSans-38"/>
       <use x="63.623047" xlink:href="#DejaVuSans-30"/>
       <use x="127.246094" xlink:href="#DejaVuSans-30"/>
      </g>
     </g>
    </g>
    <g id="ytick_6">
     <g id="line2d_11">
      <g>
       <use style="stroke:#000000;stroke-width:0.8;" x="53.328125" xlink:href="#mef9afc3ddd" y="184.458224"/>
      </g>
     </g>
     <g id="text_12">
      <!-- 1000 -->
      <defs>
       <path d="M 12.40625 8.296875 
L 28.515625 8.296875 
L 28.515625 63.921875 
L 10.984375 60.40625 
L 10.984375 69.390625 
L 28.421875 72.90625 
L 38.28125 72.90625 
L 38.28125 8.296875 
L 54.390625 8.296875 
L 54.390625 0 
L 12.40625 0 
z
" id="DejaVuSans-31"/>
      </defs>
      <g transform="translate(20.878125 188.257443)scale(0.1 -0.1)">
       <use xlink:href="#DejaVuSans-31"/>
       <use x="63.623047" xlink:href="#DejaVuSans-30"/>
       <use x="127.246094" xlink:href="#DejaVuSans-30"/>
       <use x="190.869141" xlink:href="#DejaVuSans-30"/>
      </g>
     </g>
    </g>
    <g id="ytick_7">
     <g id="line2d_12">
      <g>
       <use style="stroke:#000000;stroke-width:0.8;" x="53.328125" xlink:href="#mef9afc3ddd" y="146.037869"/>
      </g>
     </g>
     <g id="text_13">
      <!-- 1200 -->
      <g transform="translate(20.878125 149.837088)scale(0.1 -0.1)">
       <use xlink:href="#DejaVuSans-31"/>
       <use x="63.623047" xlink:href="#DejaVuSans-32"/>
       <use x="127.246094" xlink:href="#DejaVuSans-30"/>
       <use x="190.869141" xlink:href="#DejaVuSans-30"/>
      </g>
     </g>
    </g>
    <g id="ytick_8">
     <g id="line2d_13">
      <g>
       <use style="stroke:#000000;stroke-width:0.8;" x="53.328125" xlink:href="#mef9afc3ddd" y="107.617514"/>
      </g>
     </g>
     <g id="text_14">
      <!-- 1400 -->
      <g transform="translate(20.878125 111.416733)scale(0.1 -0.1)">
       <use xlink:href="#DejaVuSans-31"/>
       <use x="63.623047" xlink:href="#DejaVuSans-34"/>
       <use x="127.246094" xlink:href="#DejaVuSans-30"/>
       <use x="190.869141" xlink:href="#DejaVuSans-30"/>
      </g>
     </g>
    </g>
    <g id="ytick_9">
     <g id="line2d_14">
      <g>
       <use style="stroke:#000000;stroke-width:0.8;" x="53.328125" xlink:href="#mef9afc3ddd" y="69.197159"/>
      </g>
     </g>
     <g id="text_15">
      <!-- 1600 -->
      <g transform="translate(20.878125 72.996378)scale(0.1 -0.1)">
       <use xlink:href="#DejaVuSans-31"/>
       <use x="63.623047" xlink:href="#DejaVuSans-36"/>
       <use x="127.246094" xlink:href="#DejaVuSans-30"/>
       <use x="190.869141" xlink:href="#DejaVuSans-30"/>
      </g>
     </g>
    </g>
    <g id="text_16">
     <!-- Number of occurences -->
     <defs>
      <path d="M 9.8125 72.90625 
L 23.09375 72.90625 
L 55.421875 11.921875 
L 55.421875 72.90625 
L 64.984375 72.90625 
L 64.984375 0 
L 51.703125 0 
L 19.390625 60.984375 
L 19.390625 0 
L 9.8125 0 
z
" id="DejaVuSans-4e"/>
      <path d="M 8.5 21.578125 
L 8.5 54.6875 
L 17.484375 54.6875 
L 17.484375 21.921875 
Q 17.484375 14.15625 20.5 10.265625 
Q 23.53125 6.390625 29.59375 6.390625 
Q 36.859375 6.390625 41.078125 11.03125 
Q 45.3125 15.671875 45.3125 23.6875 
L 45.3125 54.6875 
L 54.296875 54.6875 
L 54.296875 0 
L 45.3125 0 
L 45.3125 8.40625 
Q 42.046875 3.421875 37.71875 1 
Q 33.40625 -1.421875 27.6875 -1.421875 
Q 18.265625 -1.421875 13.375 4.4375 
Q 8.5 10.296875 8.5 21.578125 
z
M 31.109375 56 
z
" id="DejaVuSans-75"/>
      <path d="M 52 44.1875 
Q 55.375 50.25 60.0625 53.125 
Q 64.75 56 71.09375 56 
Q 79.640625 56 84.28125 50.015625 
Q 88.921875 44.046875 88.921875 33.015625 
L 88.921875 0 
L 79.890625 0 
L 79.890625 32.71875 
Q 79.890625 40.578125 77.09375 44.375 
Q 74.3125 48.1875 68.609375 48.1875 
Q 61.625 48.1875 57.5625 43.546875 
Q 53.515625 38.921875 53.515625 30.90625 
L 53.515625 0 
L 44.484375 0 
L 44.484375 32.71875 
Q 44.484375 40.625 41.703125 44.40625 
Q 38.921875 48.1875 33.109375 48.1875 
Q 26.21875 48.1875 22.15625 43.53125 
Q 18.109375 38.875 18.109375 30.90625 
L 18.109375 0 
L 9.078125 0 
L 9.078125 54.6875 
L 18.109375 54.6875 
L 18.109375 46.1875 
Q 21.1875 51.21875 25.484375 53.609375 
Q 29.78125 56 35.6875 56 
Q 41.65625 56 45.828125 52.96875 
Q 50 49.953125 52 44.1875 
z
" id="DejaVuSans-6d"/>
      <path d="M 48.6875 27.296875 
Q 48.6875 37.203125 44.609375 42.84375 
Q 40.53125 48.484375 33.40625 48.484375 
Q 26.265625 48.484375 22.1875 42.84375 
Q 18.109375 37.203125 18.109375 27.296875 
Q 18.109375 17.390625 22.1875 11.75 
Q 26.265625 6.109375 33.40625 6.109375 
Q 40.53125 6.109375 44.609375 11.75 
Q 48.6875 17.390625 48.6875 27.296875 
z
M 18.109375 46.390625 
Q 20.953125 51.265625 25.265625 53.625 
Q 29.59375 56 35.59375 56 
Q 45.5625 56 51.78125 48.09375 
Q 58.015625 40.1875 58.015625 27.296875 
Q 58.015625 14.40625 51.78125 6.484375 
Q 45.5625 -1.421875 35.59375 -1.421875 
Q 29.59375 -1.421875 25.265625 0.953125 
Q 20.953125 3.328125 18.109375 8.203125 
L 18.109375 0 
L 9.078125 0 
L 9.078125 75.984375 
L 18.109375 75.984375 
z
" id="DejaVuSans-62"/>
      <path id="DejaVuSans-20"/>
      <path d="M 30.609375 48.390625 
Q 23.390625 48.390625 19.1875 42.75 
Q 14.984375 37.109375 14.984375 27.296875 
Q 14.984375 17.484375 19.15625 11.84375 
Q 23.34375 6.203125 30.609375 6.203125 
Q 37.796875 6.203125 41.984375 11.859375 
Q 46.1875 17.53125 46.1875 27.296875 
Q 46.1875 37.015625 41.984375 42.703125 
Q 37.796875 48.390625 30.609375 48.390625 
z
M 30.609375 56 
Q 42.328125 56 49.015625 48.375 
Q 55.71875 40.765625 55.71875 27.296875 
Q 55.71875 13.875 49.015625 6.21875 
Q 42.328125 -1.421875 30.609375 -1.421875 
Q 18.84375 -1.421875 12.171875 6.21875 
Q 5.515625 13.875 5.515625 27.296875 
Q 5.515625 40.765625 12.171875 48.375 
Q 18.84375 56 30.609375 56 
z
" id="DejaVuSans-6f"/>
      <path d="M 37.109375 75.984375 
L 37.109375 68.5 
L 28.515625 68.5 
Q 23.6875 68.5 21.796875 66.546875 
Q 19.921875 64.59375 19.921875 59.515625 
L 19.921875 54.6875 
L 34.71875 54.6875 
L 34.71875 47.703125 
L 19.921875 47.703125 
L 19.921875 0 
L 10.890625 0 
L 10.890625 47.703125 
L 2.296875 47.703125 
L 2.296875 54.6875 
L 10.890625 54.6875 
L 10.890625 58.5 
Q 10.890625 67.625 15.140625 71.796875 
Q 19.390625 75.984375 28.609375 75.984375 
z
" id="DejaVuSans-66"/>
      <path d="M 48.78125 52.59375 
L 48.78125 44.1875 
Q 44.96875 46.296875 41.140625 47.34375 
Q 37.3125 48.390625 33.40625 48.390625 
Q 24.65625 48.390625 19.8125 42.84375 
Q 14.984375 37.3125 14.984375 27.296875 
Q 14.984375 17.28125 19.8125 11.734375 
Q 24.65625 6.203125 33.40625 6.203125 
Q 37.3125 6.203125 41.140625 7.25 
Q 44.96875 8.296875 48.78125 10.40625 
L 48.78125 2.09375 
Q 45.015625 0.34375 40.984375 -0.53125 
Q 36.96875 -1.421875 32.421875 -1.421875 
Q 20.0625 -1.421875 12.78125 6.34375 
Q 5.515625 14.109375 5.515625 27.296875 
Q 5.515625 40.671875 12.859375 48.328125 
Q 20.21875 56 33.015625 56 
Q 37.15625 56 41.109375 55.140625 
Q 45.0625 54.296875 48.78125 52.59375 
z
" id="DejaVuSans-63"/>
      <path d="M 54.890625 33.015625 
L 54.890625 0 
L 45.90625 0 
L 45.90625 32.71875 
Q 45.90625 40.484375 42.875 44.328125 
Q 39.84375 48.1875 33.796875 48.1875 
Q 26.515625 48.1875 22.3125 43.546875 
Q 18.109375 38.921875 18.109375 30.90625 
L 18.109375 0 
L 9.078125 0 
L 9.078125 54.6875 
L 18.109375 54.6875 
L 18.109375 46.1875 
Q 21.34375 51.125 25.703125 53.5625 
Q 30.078125 56 35.796875 56 
Q 45.21875 56 50.046875 50.171875 
Q 54.890625 44.34375 54.890625 33.015625 
z
" id="DejaVuSans-6e"/>
     </defs>
     <g transform="translate(14.798438 270.019844)rotate(-90)scale(0.1 -0.1)">
      <use xlink:href="#DejaVuSans-4e"/>
      <use x="74.804688" xlink:href="#DejaVuSans-75"/>
      <use x="138.183594" xlink:href="#DejaVuSans-6d"/>
      <use x="235.595703" xlink:href="#DejaVuSans-62"/>
      <use x="299.072266" xlink:href="#DejaVuSans-65"/>
      <use x="360.595703" xlink:href="#DejaVuSans-72"/>
      <use x="401.708984" xlink:href="#DejaVuSans-20"/>
      <use x="433.496094" xlink:href="#DejaVuSans-6f"/>
      <use x="494.677734" xlink:href="#DejaVuSans-66"/>
      <use x="529.882812" xlink:href="#DejaVuSans-20"/>
      <use x="561.669922" xlink:href="#DejaVuSans-6f"/>
      <use x="622.851562" xlink:href="#DejaVuSans-63"/>
      <use x="677.832031" xlink:href="#DejaVuSans-63"/>
      <use x="732.8125" xlink:href="#DejaVuSans-75"/>
      <use x="796.191406" xlink:href="#DejaVuSans-72"/>
      <use x="837.273438" xlink:href="#DejaVuSans-65"/>
      <use x="898.796875" xlink:href="#DejaVuSans-6e"/>
      <use x="962.175781" xlink:href="#DejaVuSans-63"/>
      <use x="1017.15625" xlink:href="#DejaVuSans-65"/>
      <use x="1078.679688" xlink:href="#DejaVuSans-73"/>
     </g>
    </g>
   </g>
   <g id="patch_90">
    <path d="M 53.328125 376.56 
L 53.328125 50.4 
" style="fill:none;stroke:#000000;stroke-linecap:square;stroke-linejoin:miter;stroke-width:0.8;"/>
   </g>
   <g id="patch_91">
    <path d="M 890.328125 376.56 
L 890.328125 50.4 
" style="fill:none;stroke:#000000;stroke-linecap:square;stroke-linejoin:miter;stroke-width:0.8;"/>
   </g>
   <g id="patch_92">
    <path d="M 53.328125 376.56 
L 890.328125 376.56 
" style="fill:none;stroke:#000000;stroke-linecap:square;stroke-linejoin:miter;stroke-width:0.8;"/>
   </g>
   <g id="patch_93">
    <path d="M 53.328125 50.4 
L 890.328125 50.4 
" style="fill:none;stroke:#000000;stroke-linecap:square;stroke-linejoin:miter;stroke-width:0.8;"/>
   </g>
   <g id="legend_1">
    <g id="patch_94">
     <path d="M 809.503125 73.078125 
L 883.328125 73.078125 
Q 885.328125 73.078125 885.328125 71.078125 
L 885.328125 57.4 
Q 885.328125 55.4 883.328125 55.4 
L 809.503125 55.4 
Q 807.503125 55.4 807.503125 57.4 
L 807.503125 71.078125 
Q 807.503125 73.078125 809.503125 73.078125 
z
" style="fill:#ffffff;opacity:0.8;stroke:#cccccc;stroke-linejoin:miter;"/>
    </g>
    <g id="patch_95">
     <path d="M 811.503125 66.998437 
L 831.503125 66.998437 
L 831.503125 59.998437 
L 811.503125 59.998437 
z
" style="fill:#55638a;"/>
    </g>
    <g id="text_17">
     <!-- Degrees -->
     <g transform="translate(839.503125 66.998437)scale(0.1 -0.1)">
      <use xlink:href="#DejaVuSans-44"/>
      <use x="77.001953" xlink:href="#DejaVuSans-65"/>
      <use x="138.525391" xlink:href="#DejaVuSans-67"/>
      <use x="202.001953" xlink:href="#DejaVuSans-72"/>
      <use x="243.083984" xlink:href="#DejaVuSans-65"/>
      <use x="304.607422" xlink:href="#DejaVuSans-65"/>
      <use x="366.130859" xlink:href="#DejaVuSans-73"/>
     </g>
    </g>
   </g>
  </g>
  <g id="text_18">
   <!-- Degree distribution of period 1900-1970 -->
   <defs>
    <path d="M 45.40625 46.390625 
L 45.40625 75.984375 
L 54.390625 75.984375 
L 54.390625 0 
L 45.40625 0 
L 45.40625 8.203125 
Q 42.578125 3.328125 38.25 0.953125 
Q 33.9375 -1.421875 27.875 -1.421875 
Q 17.96875 -1.421875 11.734375 6.484375 
Q 5.515625 14.40625 5.515625 27.296875 
Q 5.515625 40.1875 11.734375 48.09375 
Q 17.96875 56 27.875 56 
Q 33.9375 56 38.25 53.625 
Q 42.578125 51.265625 45.40625 46.390625 
z
M 14.796875 27.296875 
Q 14.796875 17.390625 18.875 11.75 
Q 22.953125 6.109375 30.078125 6.109375 
Q 37.203125 6.109375 41.296875 11.75 
Q 45.40625 17.390625 45.40625 27.296875 
Q 45.40625 37.203125 41.296875 42.84375 
Q 37.203125 48.484375 30.078125 48.484375 
Q 22.953125 48.484375 18.875 42.84375 
Q 14.796875 37.203125 14.796875 27.296875 
z
" id="DejaVuSans-64"/>
    <path d="M 9.421875 54.6875 
L 18.40625 54.6875 
L 18.40625 0 
L 9.421875 0 
z
M 9.421875 75.984375 
L 18.40625 75.984375 
L 18.40625 64.59375 
L 9.421875 64.59375 
z
" id="DejaVuSans-69"/>
    <path d="M 18.3125 70.21875 
L 18.3125 54.6875 
L 36.8125 54.6875 
L 36.8125 47.703125 
L 18.3125 47.703125 
L 18.3125 18.015625 
Q 18.3125 11.328125 20.140625 9.421875 
Q 21.96875 7.515625 27.59375 7.515625 
L 36.8125 7.515625 
L 36.8125 0 
L 27.59375 0 
Q 17.1875 0 13.234375 3.875 
Q 9.28125 7.765625 9.28125 18.015625 
L 9.28125 47.703125 
L 2.6875 47.703125 
L 2.6875 54.6875 
L 9.28125 54.6875 
L 9.28125 70.21875 
z
" id="DejaVuSans-74"/>
    <path d="M 18.109375 8.203125 
L 18.109375 -20.796875 
L 9.078125 -20.796875 
L 9.078125 54.6875 
L 18.109375 54.6875 
L 18.109375 46.390625 
Q 20.953125 51.265625 25.265625 53.625 
Q 29.59375 56 35.59375 56 
Q 45.5625 56 51.78125 48.09375 
Q 58.015625 40.1875 58.015625 27.296875 
Q 58.015625 14.40625 51.78125 6.484375 
Q 45.5625 -1.421875 35.59375 -1.421875 
Q 29.59375 -1.421875 25.265625 0.953125 
Q 20.953125 3.328125 18.109375 8.203125 
z
M 48.6875 27.296875 
Q 48.6875 37.203125 44.609375 42.84375 
Q 40.53125 48.484375 33.40625 48.484375 
Q 26.265625 48.484375 22.1875 42.84375 
Q 18.109375 37.203125 18.109375 27.296875 
Q 18.109375 17.390625 22.1875 11.75 
Q 26.265625 6.109375 33.40625 6.109375 
Q 40.53125 6.109375 44.609375 11.75 
Q 48.6875 17.390625 48.6875 27.296875 
z
" id="DejaVuSans-70"/>
    <path d="M 10.984375 1.515625 
L 10.984375 10.5 
Q 14.703125 8.734375 18.5 7.8125 
Q 22.3125 6.890625 25.984375 6.890625 
Q 35.75 6.890625 40.890625 13.453125 
Q 46.046875 20.015625 46.78125 33.40625 
Q 43.953125 29.203125 39.59375 26.953125 
Q 35.25 24.703125 29.984375 24.703125 
Q 19.046875 24.703125 12.671875 31.3125 
Q 6.296875 37.9375 6.296875 49.421875 
Q 6.296875 60.640625 12.9375 67.421875 
Q 19.578125 74.21875 30.609375 74.21875 
Q 43.265625 74.21875 49.921875 64.515625 
Q 56.59375 54.828125 56.59375 36.375 
Q 56.59375 19.140625 48.40625 8.859375 
Q 40.234375 -1.421875 26.421875 -1.421875 
Q 22.703125 -1.421875 18.890625 -0.6875 
Q 15.09375 0.046875 10.984375 1.515625 
z
M 30.609375 32.421875 
Q 37.25 32.421875 41.125 36.953125 
Q 45.015625 41.5 45.015625 49.421875 
Q 45.015625 57.28125 41.125 61.84375 
Q 37.25 66.40625 30.609375 66.40625 
Q 23.96875 66.40625 20.09375 61.84375 
Q 16.21875 57.28125 16.21875 49.421875 
Q 16.21875 41.5 20.09375 36.953125 
Q 23.96875 32.421875 30.609375 32.421875 
z
" id="DejaVuSans-39"/>
    <path d="M 4.890625 31.390625 
L 31.203125 31.390625 
L 31.203125 23.390625 
L 4.890625 23.390625 
z
" id="DejaVuSans-2d"/>
    <path d="M 8.203125 72.90625 
L 55.078125 72.90625 
L 55.078125 68.703125 
L 28.609375 0 
L 18.3125 0 
L 43.21875 64.59375 
L 8.203125 64.59375 
z
" id="DejaVuSans-37"/>
   </defs>
   <g transform="translate(296.473125 19.3575)scale(0.16 -0.16)">
    <use xlink:href="#DejaVuSans-44"/>
    <use x="77.001953" xlink:href="#DejaVuSans-65"/>
    <use x="138.525391" xlink:href="#DejaVuSans-67"/>
    <use x="202.001953" xlink:href="#DejaVuSans-72"/>
    <use x="243.083984" xlink:href="#DejaVuSans-65"/>
    <use x="304.607422" xlink:href="#DejaVuSans-65"/>
    <use x="366.130859" xlink:href="#DejaVuSans-20"/>
    <use x="397.917969" xlink:href="#DejaVuSans-64"/>
    <use x="461.394531" xlink:href="#DejaVuSans-69"/>
    <use x="489.177734" xlink:href="#DejaVuSans-73"/>
    <use x="541.277344" xlink:href="#DejaVuSans-74"/>
    <use x="580.486328" xlink:href="#DejaVuSans-72"/>
    <use x="621.599609" xlink:href="#DejaVuSans-69"/>
    <use x="649.382812" xlink:href="#DejaVuSans-62"/>
    <use x="712.859375" xlink:href="#DejaVuSans-75"/>
    <use x="776.238281" xlink:href="#DejaVuSans-74"/>
    <use x="815.447266" xlink:href="#DejaVuSans-69"/>
    <use x="843.230469" xlink:href="#DejaVuSans-6f"/>
    <use x="904.412109" xlink:href="#DejaVuSans-6e"/>
    <use x="967.791016" xlink:href="#DejaVuSans-20"/>
    <use x="999.578125" xlink:href="#DejaVuSans-6f"/>
    <use x="1060.759766" xlink:href="#DejaVuSans-66"/>
    <use x="1095.964844" xlink:href="#DejaVuSans-20"/>
    <use x="1127.751953" xlink:href="#DejaVuSans-70"/>
    <use x="1191.228516" xlink:href="#DejaVuSans-65"/>
    <use x="1252.751953" xlink:href="#DejaVuSans-72"/>
    <use x="1293.865234" xlink:href="#DejaVuSans-69"/>
    <use x="1321.648438" xlink:href="#DejaVuSans-6f"/>
    <use x="1382.830078" xlink:href="#DejaVuSans-64"/>
    <use x="1446.306641" xlink:href="#DejaVuSans-20"/>
    <use x="1478.09375" xlink:href="#DejaVuSans-31"/>
    <use x="1541.716797" xlink:href="#DejaVuSans-39"/>
    <use x="1605.339844" xlink:href="#DejaVuSans-30"/>
    <use x="1668.962891" xlink:href="#DejaVuSans-30"/>
    <use x="1732.585938" xlink:href="#DejaVuSans-2d"/>
    <use x="1768.669922" xlink:href="#DejaVuSans-31"/>
    <use x="1832.292969" xlink:href="#DejaVuSans-39"/>
    <use x="1895.916016" xlink:href="#DejaVuSans-37"/>
    <use x="1959.539062" xlink:href="#DejaVuSans-30"/>
   </g>
  </g>
 </g>
 <defs>
  <clipPath id="p1298a077f0">
   <rect height="326.16" width="837" x="53.328125" y="50.4"/>
  </clipPath>
 </defs>
</svg>
