<?xml version="1.0" encoding="utf-8" standalone="no"?>
<!DOCTYPE svg PUBLIC "-//W3C//DTD SVG 1.1//EN"
  "http://www.w3.org/Graphics/SVG/1.1/DTD/svg11.dtd">
<!-- Created with matplotlib (http://matplotlib.org/) -->
<svg height="414.11625pt" version="1.1" viewBox="0 0 901.028125 414.11625" width="901.028125pt" xmlns="http://www.w3.org/2000/svg" xmlns:xlink="http://www.w3.org/1999/xlink">
 <defs>
  <style type="text/css">
*{stroke-linecap:butt;stroke-linejoin:round;}
  </style>
 </defs>
 <g id="figure_1">
  <g id="patch_1">
   <path d="M 0 414.11625 
L 901.028125 414.11625 
L 901.028125 0 
L 0 0 
z
" style="fill:#ffffff;"/>
  </g>
  <g id="axes_1">
   <g id="patch_2">
    <path d="M 53.328125 376.56 
L 890.328125 376.56 
L 890.328125 50.4 
L 53.328125 50.4 
z
" style="fill:#ffffff;"/>
   </g>
   <g id="patch_3">
    <path clip-path="url(#pb1ab15caf4)" d="M 91.37358 376.56 
L 94.196242 376.56 
L 94.196242 376.330288 
L 91.37358 376.330288 
z
" style="fill:#55638a;"/>
   </g>
   <g id="patch_4">
    <path clip-path="url(#pb1ab15caf4)" d="M 99.438329 376.56 
L 102.260991 376.56 
L 102.260991 375.870863 
L 99.438329 375.870863 
z
" style="fill:#55638a;"/>
   </g>
   <g id="patch_5">
    <path clip-path="url(#pb1ab15caf4)" d="M 107.503078 376.56 
L 110.32574 376.56 
L 110.32574 65.931429 
L 107.503078 65.931429 
z
" style="fill:#55638a;"/>
   </g>
   <g id="patch_6">
    <path clip-path="url(#pb1ab15caf4)" d="M 115.567827 376.56 
L 118.39049 376.56 
L 118.39049 369.668628 
L 115.567827 369.668628 
z
" style="fill:#55638a;"/>
   </g>
   <g id="patch_7">
    <path clip-path="url(#pb1ab15caf4)" d="M 123.632577 376.56 
L 126.455239 376.56 
L 126.455239 364.270387 
L 123.632577 364.270387 
z
" style="fill:#55638a;"/>
   </g>
   <g id="patch_8">
    <path clip-path="url(#pb1ab15caf4)" d="M 131.697326 376.56 
L 134.519988 376.56 
L 134.519988 295.471528 
L 131.697326 295.471528 
z
" style="fill:#55638a;"/>
   </g>
   <g id="patch_9">
    <path clip-path="url(#pb1ab15caf4)" d="M 139.762075 376.56 
L 142.584737 376.56 
L 142.584737 370.53005 
L 139.762075 370.53005 
z
" style="fill:#55638a;"/>
   </g>
   <g id="patch_10">
    <path clip-path="url(#pb1ab15caf4)" d="M 147.826824 376.56 
L 150.649486 376.56 
L 150.649486 368.979491 
L 147.826824 368.979491 
z
" style="fill:#55638a;"/>
   </g>
   <g id="patch_11">
    <path clip-path="url(#pb1ab15caf4)" d="M 155.891573 376.56 
L 158.714236 376.56 
L 158.714236 343.768557 
L 155.891573 343.768557 
z
" style="fill:#55638a;"/>
   </g>
   <g id="patch_12">
    <path clip-path="url(#pb1ab15caf4)" d="M 163.956323 376.56 
L 166.778985 376.56 
L 166.778985 373.975736 
L 163.956323 373.975736 
z
" style="fill:#55638a;"/>
   </g>
   <g id="patch_13">
    <path clip-path="url(#pb1ab15caf4)" d="M 172.021072 376.56 
L 174.843734 376.56 
L 174.843734 373.114314 
L 172.021072 373.114314 
z
" style="fill:#55638a;"/>
   </g>
   <g id="patch_14">
    <path clip-path="url(#pb1ab15caf4)" d="M 180.085821 376.56 
L 182.908483 376.56 
L 182.908483 357.206732 
L 180.085821 357.206732 
z
" style="fill:#55638a;"/>
   </g>
   <g id="patch_15">
    <path clip-path="url(#pb1ab15caf4)" d="M 188.15057 376.56 
L 190.973233 376.56 
L 190.973233 375.181726 
L 188.15057 375.181726 
z
" style="fill:#55638a;"/>
   </g>
   <g id="patch_16">
    <path clip-path="url(#pb1ab15caf4)" d="M 196.21532 376.56 
L 199.037982 376.56 
L 199.037982 373.516311 
L 196.21532 373.516311 
z
" style="fill:#55638a;"/>
   </g>
   <g id="patch_17">
    <path clip-path="url(#pb1ab15caf4)" d="M 204.280069 376.56 
L 207.102731 376.56 
L 207.102731 365.70609 
L 204.280069 365.70609 
z
" style="fill:#55638a;"/>
   </g>
   <g id="patch_18">
    <path clip-path="url(#pb1ab15caf4)" d="M 212.344818 376.56 
L 215.16748 376.56 
L 215.16748 374.43516 
L 212.344818 374.43516 
z
" style="fill:#55638a;"/>
   </g>
   <g id="patch_19">
    <path clip-path="url(#pb1ab15caf4)" d="M 220.409567 376.56 
L 223.23223 376.56 
L 223.23223 374.837157 
L 220.409567 374.837157 
z
" style="fill:#55638a;"/>
   </g>
   <g id="patch_20">
    <path clip-path="url(#pb1ab15caf4)" d="M 228.474317 376.56 
L 231.296979 376.56 
L 231.296979 368.060642 
L 228.474317 368.060642 
z
" style="fill:#55638a;"/>
   </g>
   <g id="patch_21">
    <path clip-path="url(#pb1ab15caf4)" d="M 236.539066 376.56 
L 239.361728 376.56 
L 239.361728 375.870863 
L 236.539066 375.870863 
z
" style="fill:#55638a;"/>
   </g>
   <g id="patch_22">
    <path clip-path="url(#pb1ab15caf4)" d="M 244.603815 376.56 
L 247.426477 376.56 
L 247.426477 374.607445 
L 244.603815 374.607445 
z
" style="fill:#55638a;"/>
   </g>
   <g id="patch_23">
    <path clip-path="url(#pb1ab15caf4)" d="M 252.668564 376.56 
L 255.491227 376.56 
L 255.491227 371.73604 
L 252.668564 371.73604 
z
" style="fill:#55638a;"/>
   </g>
   <g id="patch_24">
    <path clip-path="url(#pb1ab15caf4)" d="M 260.733314 376.56 
L 263.555976 376.56 
L 263.555976 375.411438 
L 260.733314 375.411438 
z
" style="fill:#55638a;"/>
   </g>
   <g id="patch_25">
    <path clip-path="url(#pb1ab15caf4)" d="M 268.798063 376.56 
L 271.620725 376.56 
L 271.620725 374.952013 
L 268.798063 374.952013 
z
" style="fill:#55638a;"/>
   </g>
   <g id="patch_26">
    <path clip-path="url(#pb1ab15caf4)" d="M 276.862812 376.56 
L 279.685474 376.56 
L 279.685474 372.482605 
L 276.862812 372.482605 
z
" style="fill:#55638a;"/>
   </g>
   <g id="patch_27">
    <path clip-path="url(#pb1ab15caf4)" d="M 284.927561 376.56 
L 287.750224 376.56 
L 287.750224 375.756007 
L 284.927561 375.756007 
z
" style="fill:#55638a;"/>
   </g>
   <g id="patch_28">
    <path clip-path="url(#pb1ab15caf4)" d="M 292.992311 376.56 
L 295.814973 376.56 
L 295.814973 375.239154 
L 292.992311 375.239154 
z
" style="fill:#55638a;"/>
   </g>
   <g id="patch_29">
    <path clip-path="url(#pb1ab15caf4)" d="M 301.05706 376.56 
L 303.879722 376.56 
L 303.879722 373.286599 
L 301.05706 373.286599 
z
" style="fill:#55638a;"/>
   </g>
   <g id="patch_30">
    <path clip-path="url(#pb1ab15caf4)" d="M 309.121809 376.56 
L 311.944471 376.56 
L 311.944471 375.985719 
L 309.121809 375.985719 
z
" style="fill:#55638a;"/>
   </g>
   <g id="patch_31">
    <path clip-path="url(#pb1ab15caf4)" d="M 317.186558 376.56 
L 320.009221 376.56 
L 320.009221 375.35401 
L 317.186558 375.35401 
z
" style="fill:#55638a;"/>
   </g>
   <g id="patch_32">
    <path clip-path="url(#pb1ab15caf4)" d="M 325.251308 376.56 
L 328.07397 376.56 
L 328.07397 374.320304 
L 325.251308 374.320304 
z
" style="fill:#55638a;"/>
   </g>
   <g id="patch_33">
    <path clip-path="url(#pb1ab15caf4)" d="M 333.316057 376.56 
L 336.138719 376.56 
L 336.138719 376.158003 
L 333.316057 376.158003 
z
" style="fill:#55638a;"/>
   </g>
   <g id="patch_34">
    <path clip-path="url(#pb1ab15caf4)" d="M 341.380806 376.56 
L 344.203468 376.56 
L 344.203468 375.64115 
L 341.380806 375.64115 
z
" style="fill:#55638a;"/>
   </g>
   <g id="patch_35">
    <path clip-path="url(#pb1ab15caf4)" d="M 349.445555 376.56 
L 352.268217 376.56 
L 352.268217 374.607445 
L 349.445555 374.607445 
z
" style="fill:#55638a;"/>
   </g>
   <g id="patch_36">
    <path clip-path="url(#pb1ab15caf4)" d="M 357.510305 376.56 
L 360.332967 376.56 
L 360.332967 376.158003 
L 357.510305 376.158003 
z
" style="fill:#55638a;"/>
   </g>
   <g id="patch_37">
    <path clip-path="url(#pb1ab15caf4)" d="M 365.575054 376.56 
L 368.397716 376.56 
L 368.397716 375.698579 
L 365.575054 375.698579 
z
" style="fill:#55638a;"/>
   </g>
   <g id="patch_38">
    <path clip-path="url(#pb1ab15caf4)" d="M 373.639803 376.56 
L 376.462465 376.56 
L 376.462465 375.181726 
L 373.639803 375.181726 
z
" style="fill:#55638a;"/>
   </g>
   <g id="patch_39">
    <path clip-path="url(#pb1ab15caf4)" d="M 381.704552 376.56 
L 384.527214 376.56 
L 384.527214 375.583722 
L 381.704552 375.583722 
z
" style="fill:#55638a;"/>
   </g>
   <g id="patch_40">
    <path clip-path="url(#pb1ab15caf4)" d="M 389.769301 376.56 
L 392.591964 376.56 
L 392.591964 376.043147 
L 389.769301 376.043147 
z
" style="fill:#55638a;"/>
   </g>
   <g id="patch_41">
    <path clip-path="url(#pb1ab15caf4)" d="M 397.834051 376.56 
L 400.656713 376.56 
L 400.656713 375.928291 
L 397.834051 375.928291 
z
" style="fill:#55638a;"/>
   </g>
   <g id="patch_42">
    <path clip-path="url(#pb1ab15caf4)" d="M 405.8988 376.56 
L 408.721462 376.56 
L 408.721462 376.215431 
L 405.8988 376.215431 
z
" style="fill:#55638a;"/>
   </g>
   <g id="patch_43">
    <path clip-path="url(#pb1ab15caf4)" d="M 413.963549 376.56 
L 416.786211 376.56 
L 416.786211 376.330288 
L 413.963549 376.330288 
z
" style="fill:#55638a;"/>
   </g>
   <g id="patch_44">
    <path clip-path="url(#pb1ab15caf4)" d="M 422.028298 376.56 
L 424.850961 376.56 
L 424.850961 375.64115 
L 422.028298 375.64115 
z
" style="fill:#55638a;"/>
   </g>
   <g id="patch_45">
    <path clip-path="url(#pb1ab15caf4)" d="M 430.093048 376.56 
L 432.91571 376.56 
L 432.91571 375.928291 
L 430.093048 375.928291 
z
" style="fill:#55638a;"/>
   </g>
   <g id="patch_46">
    <path clip-path="url(#pb1ab15caf4)" d="M 438.157797 376.56 
L 440.980459 376.56 
L 440.980459 376.27286 
L 438.157797 376.27286 
z
" style="fill:#55638a;"/>
   </g>
   <g id="patch_47">
    <path clip-path="url(#pb1ab15caf4)" d="M 446.222546 376.56 
L 449.045208 376.56 
L 449.045208 375.928291 
L 446.222546 375.928291 
z
" style="fill:#55638a;"/>
   </g>
   <g id="patch_48">
    <path clip-path="url(#pb1ab15caf4)" d="M 454.287295 376.56 
L 457.109958 376.56 
L 457.109958 376.387716 
L 454.287295 376.387716 
z
" style="fill:#55638a;"/>
   </g>
   <g id="patch_49">
    <path clip-path="url(#pb1ab15caf4)" d="M 462.352045 376.56 
L 465.174707 376.56 
L 465.174707 376.330288 
L 462.352045 376.330288 
z
" style="fill:#55638a;"/>
   </g>
   <g id="patch_50">
    <path clip-path="url(#pb1ab15caf4)" d="M 470.416794 376.56 
L 473.239456 376.56 
L 473.239456 376.215431 
L 470.416794 376.215431 
z
" style="fill:#55638a;"/>
   </g>
   <g id="patch_51">
    <path clip-path="url(#pb1ab15caf4)" d="M 478.481543 376.56 
L 481.304205 376.56 
L 481.304205 376.387716 
L 478.481543 376.387716 
z
" style="fill:#55638a;"/>
   </g>
   <g id="patch_52">
    <path clip-path="url(#pb1ab15caf4)" d="M 486.546292 376.56 
L 489.368955 376.56 
L 489.368955 376.330288 
L 486.546292 376.330288 
z
" style="fill:#55638a;"/>
   </g>
   <g id="patch_53">
    <path clip-path="url(#pb1ab15caf4)" d="M 494.611042 376.56 
L 497.433704 376.56 
L 497.433704 376.387716 
L 494.611042 376.387716 
z
" style="fill:#55638a;"/>
   </g>
   <g id="patch_54">
    <path clip-path="url(#pb1ab15caf4)" d="M 502.675791 376.56 
L 505.498453 376.56 
L 505.498453 376.387716 
L 502.675791 376.387716 
z
" style="fill:#55638a;"/>
   </g>
   <g id="patch_55">
    <path clip-path="url(#pb1ab15caf4)" d="M 510.74054 376.56 
L 513.563202 376.56 
L 513.563202 376.387716 
L 510.74054 376.387716 
z
" style="fill:#55638a;"/>
   </g>
   <g id="patch_56">
    <path clip-path="url(#pb1ab15caf4)" d="M 518.805289 376.56 
L 521.627952 376.56 
L 521.627952 376.387716 
L 518.805289 376.387716 
z
" style="fill:#55638a;"/>
   </g>
   <g id="patch_57">
    <path clip-path="url(#pb1ab15caf4)" d="M 526.870039 376.56 
L 529.692701 376.56 
L 529.692701 376.330288 
L 526.870039 376.330288 
z
" style="fill:#55638a;"/>
   </g>
   <g id="patch_58">
    <path clip-path="url(#pb1ab15caf4)" d="M 534.934788 376.56 
L 537.75745 376.56 
L 537.75745 376.445144 
L 534.934788 376.445144 
z
" style="fill:#55638a;"/>
   </g>
   <g id="patch_59">
    <path clip-path="url(#pb1ab15caf4)" d="M 542.999537 376.56 
L 545.822199 376.56 
L 545.822199 376.445144 
L 542.999537 376.445144 
z
" style="fill:#55638a;"/>
   </g>
   <g id="patch_60">
    <path clip-path="url(#pb1ab15caf4)" d="M 551.064286 376.56 
L 553.886949 376.56 
L 553.886949 376.445144 
L 551.064286 376.445144 
z
" style="fill:#55638a;"/>
   </g>
   <g id="patch_61">
    <path clip-path="url(#pb1ab15caf4)" d="M 559.129036 376.56 
L 561.951698 376.56 
L 561.951698 376.445144 
L 559.129036 376.445144 
z
" style="fill:#55638a;"/>
   </g>
   <g id="patch_62">
    <path clip-path="url(#pb1ab15caf4)" d="M 567.193785 376.56 
L 570.016447 376.56 
L 570.016447 376.445144 
L 567.193785 376.445144 
z
" style="fill:#55638a;"/>
   </g>
   <g id="patch_63">
    <path clip-path="url(#pb1ab15caf4)" d="M 575.258534 376.56 
L 578.081196 376.56 
L 578.081196 376.387716 
L 575.258534 376.387716 
z
" style="fill:#55638a;"/>
   </g>
   <g id="patch_64">
    <path clip-path="url(#pb1ab15caf4)" d="M 583.323283 376.56 
L 586.145945 376.56 
L 586.145945 376.330288 
L 583.323283 376.330288 
z
" style="fill:#55638a;"/>
   </g>
   <g id="patch_65">
    <path clip-path="url(#pb1ab15caf4)" d="M 591.388033 376.56 
L 594.210695 376.56 
L 594.210695 376.445144 
L 591.388033 376.445144 
z
" style="fill:#55638a;"/>
   </g>
   <g id="patch_66">
    <path clip-path="url(#pb1ab15caf4)" d="M 599.452782 376.56 
L 602.275444 376.56 
L 602.275444 376.502572 
L 599.452782 376.502572 
z
" style="fill:#55638a;"/>
   </g>
   <g id="patch_67">
    <path clip-path="url(#pb1ab15caf4)" d="M 607.517531 376.56 
L 610.340193 376.56 
L 610.340193 376.445144 
L 607.517531 376.445144 
z
" style="fill:#55638a;"/>
   </g>
   <g id="patch_68">
    <path clip-path="url(#pb1ab15caf4)" d="M 615.58228 376.56 
L 618.404942 376.56 
L 618.404942 376.502572 
L 615.58228 376.502572 
z
" style="fill:#55638a;"/>
   </g>
   <g id="patch_69">
    <path clip-path="url(#pb1ab15caf4)" d="M 623.647029 376.56 
L 626.469692 376.56 
L 626.469692 376.56 
L 623.647029 376.56 
z
" style="fill:#55638a;"/>
   </g>
   <g id="patch_70">
    <path clip-path="url(#pb1ab15caf4)" d="M 631.711779 376.56 
L 634.534441 376.56 
L 634.534441 376.56 
L 631.711779 376.56 
z
" style="fill:#55638a;"/>
   </g>
   <g id="patch_71">
    <path clip-path="url(#pb1ab15caf4)" d="M 639.776528 376.56 
L 642.59919 376.56 
L 642.59919 376.56 
L 639.776528 376.56 
z
" style="fill:#55638a;"/>
   </g>
   <g id="patch_72">
    <path clip-path="url(#pb1ab15caf4)" d="M 647.841277 376.56 
L 650.663939 376.56 
L 650.663939 376.502572 
L 647.841277 376.502572 
z
" style="fill:#55638a;"/>
   </g>
   <g id="patch_73">
    <path clip-path="url(#pb1ab15caf4)" d="M 655.906026 376.56 
L 658.728689 376.56 
L 658.728689 376.56 
L 655.906026 376.56 
z
" style="fill:#55638a;"/>
   </g>
   <g id="patch_74">
    <path clip-path="url(#pb1ab15caf4)" d="M 663.970776 376.56 
L 666.793438 376.56 
L 666.793438 376.56 
L 663.970776 376.56 
z
" style="fill:#55638a;"/>
   </g>
   <g id="patch_75">
    <path clip-path="url(#pb1ab15caf4)" d="M 672.035525 376.56 
L 674.858187 376.56 
L 674.858187 376.502572 
L 672.035525 376.502572 
z
" style="fill:#55638a;"/>
   </g>
   <g id="patch_76">
    <path clip-path="url(#pb1ab15caf4)" d="M 680.100274 376.56 
L 682.922936 376.56 
L 682.922936 376.502572 
L 680.100274 376.502572 
z
" style="fill:#55638a;"/>
   </g>
   <g id="patch_77">
    <path clip-path="url(#pb1ab15caf4)" d="M 688.165023 376.56 
L 690.987686 376.56 
L 690.987686 376.56 
L 688.165023 376.56 
z
" style="fill:#55638a;"/>
   </g>
   <g id="patch_78">
    <path clip-path="url(#pb1ab15caf4)" d="M 696.229773 376.56 
L 699.052435 376.56 
L 699.052435 376.56 
L 696.229773 376.56 
z
" style="fill:#55638a;"/>
   </g>
   <g id="patch_79">
    <path clip-path="url(#pb1ab15caf4)" d="M 704.294522 376.56 
L 707.117184 376.56 
L 707.117184 376.56 
L 704.294522 376.56 
z
" style="fill:#55638a;"/>
   </g>
   <g id="patch_80">
    <path clip-path="url(#pb1ab15caf4)" d="M 712.359271 376.56 
L 715.181933 376.56 
L 715.181933 376.56 
L 712.359271 376.56 
z
" style="fill:#55638a;"/>
   </g>
   <g id="patch_81">
    <path clip-path="url(#pb1ab15caf4)" d="M 720.42402 376.56 
L 723.246683 376.56 
L 723.246683 376.56 
L 720.42402 376.56 
z
" style="fill:#55638a;"/>
   </g>
   <g id="patch_82">
    <path clip-path="url(#pb1ab15caf4)" d="M 728.48877 376.56 
L 731.311432 376.56 
L 731.311432 376.56 
L 728.48877 376.56 
z
" style="fill:#55638a;"/>
   </g>
   <g id="patch_83">
    <path clip-path="url(#pb1ab15caf4)" d="M 736.553519 376.56 
L 739.376181 376.56 
L 739.376181 376.56 
L 736.553519 376.56 
z
" style="fill:#55638a;"/>
   </g>
   <g id="patch_84">
    <path clip-path="url(#pb1ab15caf4)" d="M 744.618268 376.56 
L 747.44093 376.56 
L 747.44093 376.56 
L 744.618268 376.56 
z
" style="fill:#55638a;"/>
   </g>
   <g id="patch_85">
    <path clip-path="url(#pb1ab15caf4)" d="M 752.683017 376.56 
L 755.50568 376.56 
L 755.50568 376.56 
L 752.683017 376.56 
z
" style="fill:#55638a;"/>
   </g>
   <g id="patch_86">
    <path clip-path="url(#pb1ab15caf4)" d="M 760.747767 376.56 
L 763.570429 376.56 
L 763.570429 376.56 
L 760.747767 376.56 
z
" style="fill:#55638a;"/>
   </g>
   <g id="patch_87">
    <path clip-path="url(#pb1ab15caf4)" d="M 768.812516 376.56 
L 771.635178 376.56 
L 771.635178 376.56 
L 768.812516 376.56 
z
" style="fill:#55638a;"/>
   </g>
   <g id="patch_88">
    <path clip-path="url(#pb1ab15caf4)" d="M 776.877265 376.56 
L 779.699927 376.56 
L 779.699927 376.56 
L 776.877265 376.56 
z
" style="fill:#55638a;"/>
   </g>
   <g id="patch_89">
    <path clip-path="url(#pb1ab15caf4)" d="M 784.942014 376.56 
L 787.764677 376.56 
L 787.764677 376.56 
L 784.942014 376.56 
z
" style="fill:#55638a;"/>
   </g>
   <g id="patch_90">
    <path clip-path="url(#pb1ab15caf4)" d="M 793.006764 376.56 
L 795.829426 376.56 
L 795.829426 376.56 
L 793.006764 376.56 
z
" style="fill:#55638a;"/>
   </g>
   <g id="patch_91">
    <path clip-path="url(#pb1ab15caf4)" d="M 801.071513 376.56 
L 803.894175 376.56 
L 803.894175 376.56 
L 801.071513 376.56 
z
" style="fill:#55638a;"/>
   </g>
   <g id="patch_92">
    <path clip-path="url(#pb1ab15caf4)" d="M 809.136262 376.56 
L 811.958924 376.56 
L 811.958924 376.56 
L 809.136262 376.56 
z
" style="fill:#55638a;"/>
   </g>
   <g id="patch_93">
    <path clip-path="url(#pb1ab15caf4)" d="M 817.201011 376.56 
L 820.023673 376.56 
L 820.023673 376.56 
L 817.201011 376.56 
z
" style="fill:#55638a;"/>
   </g>
   <g id="patch_94">
    <path clip-path="url(#pb1ab15caf4)" d="M 825.26576 376.56 
L 828.088423 376.56 
L 828.088423 376.502572 
L 825.26576 376.502572 
z
" style="fill:#55638a;"/>
   </g>
   <g id="patch_95">
    <path clip-path="url(#pb1ab15caf4)" d="M 833.33051 376.56 
L 836.153172 376.56 
L 836.153172 376.56 
L 833.33051 376.56 
z
" style="fill:#55638a;"/>
   </g>
   <g id="patch_96">
    <path clip-path="url(#pb1ab15caf4)" d="M 841.395259 376.56 
L 844.217921 376.56 
L 844.217921 376.56 
L 841.395259 376.56 
z
" style="fill:#55638a;"/>
   </g>
   <g id="patch_97">
    <path clip-path="url(#pb1ab15caf4)" d="M 849.460008 376.56 
L 852.28267 376.56 
L 852.28267 376.502572 
L 849.460008 376.502572 
z
" style="fill:#55638a;"/>
   </g>
   <g id="patch_98">
    <path clip-path="url(#pb1ab15caf4)" d="M 94.599479 376.56 
L 97.422141 376.56 
L 97.422141 376.445144 
L 94.599479 376.445144 
z
" style="fill:#9e1030;"/>
   </g>
   <g id="patch_99">
    <path clip-path="url(#pb1ab15caf4)" d="M 102.664228 376.56 
L 105.486891 376.56 
L 105.486891 375.813435 
L 102.664228 375.813435 
z
" style="fill:#9e1030;"/>
   </g>
   <g id="patch_100">
    <path clip-path="url(#pb1ab15caf4)" d="M 110.728978 376.56 
L 113.55164 376.56 
L 113.55164 158.850088 
L 110.728978 158.850088 
z
" style="fill:#9e1030;"/>
   </g>
   <g id="patch_101">
    <path clip-path="url(#pb1ab15caf4)" d="M 118.793727 376.56 
L 121.616389 376.56 
L 121.616389 372.195465 
L 118.793727 372.195465 
z
" style="fill:#9e1030;"/>
   </g>
   <g id="patch_102">
    <path clip-path="url(#pb1ab15caf4)" d="M 126.858476 376.56 
L 129.681138 376.56 
L 129.681138 367.026936 
L 126.858476 367.026936 
z
" style="fill:#9e1030;"/>
   </g>
   <g id="patch_103">
    <path clip-path="url(#pb1ab15caf4)" d="M 134.923225 376.56 
L 137.745888 376.56 
L 137.745888 322.635018 
L 134.923225 322.635018 
z
" style="fill:#9e1030;"/>
   </g>
   <g id="patch_104">
    <path clip-path="url(#pb1ab15caf4)" d="M 142.987975 376.56 
L 145.810637 376.56 
L 145.810637 371.908324 
L 142.987975 371.908324 
z
" style="fill:#9e1030;"/>
   </g>
   <g id="patch_105">
    <path clip-path="url(#pb1ab15caf4)" d="M 151.052724 376.56 
L 153.875386 376.56 
L 153.875386 371.219187 
L 151.052724 371.219187 
z
" style="fill:#9e1030;"/>
   </g>
   <g id="patch_106">
    <path clip-path="url(#pb1ab15caf4)" d="M 159.117473 376.56 
L 161.940135 376.56 
L 161.940135 356.862163 
L 159.117473 356.862163 
z
" style="fill:#9e1030;"/>
   </g>
   <g id="patch_107">
    <path clip-path="url(#pb1ab15caf4)" d="M 167.182222 376.56 
L 170.004885 376.56 
L 170.004885 375.296582 
L 167.182222 375.296582 
z
" style="fill:#9e1030;"/>
   </g>
   <g id="patch_108">
    <path clip-path="url(#pb1ab15caf4)" d="M 175.246972 376.56 
L 178.069634 376.56 
L 178.069634 374.550017 
L 175.246972 374.550017 
z
" style="fill:#9e1030;"/>
   </g>
   <g id="patch_109">
    <path clip-path="url(#pb1ab15caf4)" d="M 183.311721 376.56 
L 186.134383 376.56 
L 186.134383 363.523822 
L 183.311721 363.523822 
z
" style="fill:#9e1030;"/>
   </g>
   <g id="patch_110">
    <path clip-path="url(#pb1ab15caf4)" d="M 191.37647 376.56 
L 194.199132 376.56 
L 194.199132 375.756007 
L 191.37647 375.756007 
z
" style="fill:#9e1030;"/>
   </g>
   <g id="patch_111">
    <path clip-path="url(#pb1ab15caf4)" d="M 199.441219 376.56 
L 202.263882 376.56 
L 202.263882 374.952013 
L 199.441219 374.952013 
z
" style="fill:#9e1030;"/>
   </g>
   <g id="patch_112">
    <path clip-path="url(#pb1ab15caf4)" d="M 207.505969 376.56 
L 210.328631 376.56 
L 210.328631 369.32406 
L 207.505969 369.32406 
z
" style="fill:#9e1030;"/>
   </g>
   <g id="patch_113">
    <path clip-path="url(#pb1ab15caf4)" d="M 215.570718 376.56 
L 218.39338 376.56 
L 218.39338 375.64115 
L 215.570718 375.64115 
z
" style="fill:#9e1030;"/>
   </g>
   <g id="patch_114">
    <path clip-path="url(#pb1ab15caf4)" d="M 223.635467 376.56 
L 226.458129 376.56 
L 226.458129 375.124298 
L 223.635467 375.124298 
z
" style="fill:#9e1030;"/>
   </g>
   <g id="patch_115">
    <path clip-path="url(#pb1ab15caf4)" d="M 231.700216 376.56 
L 234.522879 376.56 
L 234.522879 371.506328 
L 231.700216 371.506328 
z
" style="fill:#9e1030;"/>
   </g>
   <g id="patch_116">
    <path clip-path="url(#pb1ab15caf4)" d="M 239.764966 376.56 
L 242.587628 376.56 
L 242.587628 376.27286 
L 239.764966 376.27286 
z
" style="fill:#9e1030;"/>
   </g>
   <g id="patch_117">
    <path clip-path="url(#pb1ab15caf4)" d="M 247.829715 376.56 
L 250.652377 376.56 
L 250.652377 375.64115 
L 247.829715 375.64115 
z
" style="fill:#9e1030;"/>
   </g>
   <g id="patch_118">
    <path clip-path="url(#pb1ab15caf4)" d="M 255.894464 376.56 
L 258.717126 376.56 
L 258.717126 373.573739 
L 255.894464 373.573739 
z
" style="fill:#9e1030;"/>
   </g>
   <g id="patch_119">
    <path clip-path="url(#pb1ab15caf4)" d="M 263.959213 376.56 
L 266.781876 376.56 
L 266.781876 376.215431 
L 263.959213 376.215431 
z
" style="fill:#9e1030;"/>
   </g>
   <g id="patch_120">
    <path clip-path="url(#pb1ab15caf4)" d="M 272.023963 376.56 
L 274.846625 376.56 
L 274.846625 375.296582 
L 272.023963 375.296582 
z
" style="fill:#9e1030;"/>
   </g>
   <g id="patch_121">
    <path clip-path="url(#pb1ab15caf4)" d="M 280.088712 376.56 
L 282.911374 376.56 
L 282.911374 374.320304 
L 280.088712 374.320304 
z
" style="fill:#9e1030;"/>
   </g>
   <g id="patch_122">
    <path clip-path="url(#pb1ab15caf4)" d="M 288.153461 376.56 
L 290.976123 376.56 
L 290.976123 376.158003 
L 288.153461 376.158003 
z
" style="fill:#9e1030;"/>
   </g>
   <g id="patch_123">
    <path clip-path="url(#pb1ab15caf4)" d="M 296.21821 376.56 
L 299.040873 376.56 
L 299.040873 375.526294 
L 296.21821 375.526294 
z
" style="fill:#9e1030;"/>
   </g>
   <g id="patch_124">
    <path clip-path="url(#pb1ab15caf4)" d="M 304.28296 376.56 
L 307.105622 376.56 
L 307.105622 375.296582 
L 304.28296 375.296582 
z
" style="fill:#9e1030;"/>
   </g>
   <g id="patch_125">
    <path clip-path="url(#pb1ab15caf4)" d="M 312.347709 376.56 
L 315.170371 376.56 
L 315.170371 376.043147 
L 312.347709 376.043147 
z
" style="fill:#9e1030;"/>
   </g>
   <g id="patch_126">
    <path clip-path="url(#pb1ab15caf4)" d="M 320.412458 376.56 
L 323.23512 376.56 
L 323.23512 376.043147 
L 320.412458 376.043147 
z
" style="fill:#9e1030;"/>
   </g>
   <g id="patch_127">
    <path clip-path="url(#pb1ab15caf4)" d="M 328.477207 376.56 
L 331.299869 376.56 
L 331.299869 375.468866 
L 328.477207 375.468866 
z
" style="fill:#9e1030;"/>
   </g>
   <g id="patch_128">
    <path clip-path="url(#pb1ab15caf4)" d="M 336.541956 376.56 
L 339.364619 376.56 
L 339.364619 376.330288 
L 336.541956 376.330288 
z
" style="fill:#9e1030;"/>
   </g>
   <g id="patch_129">
    <path clip-path="url(#pb1ab15caf4)" d="M 344.606706 376.56 
L 347.429368 376.56 
L 347.429368 375.870863 
L 344.606706 375.870863 
z
" style="fill:#9e1030;"/>
   </g>
   <g id="patch_130">
    <path clip-path="url(#pb1ab15caf4)" d="M 352.671455 376.56 
L 355.494117 376.56 
L 355.494117 376.100575 
L 352.671455 376.100575 
z
" style="fill:#9e1030;"/>
   </g>
   <g id="patch_131">
    <path clip-path="url(#pb1ab15caf4)" d="M 360.736204 376.56 
L 363.558866 376.56 
L 363.558866 376.27286 
L 360.736204 376.27286 
z
" style="fill:#9e1030;"/>
   </g>
   <g id="patch_132">
    <path clip-path="url(#pb1ab15caf4)" d="M 368.800953 376.56 
L 371.623616 376.56 
L 371.623616 376.330288 
L 368.800953 376.330288 
z
" style="fill:#9e1030;"/>
   </g>
   <g id="patch_133">
    <path clip-path="url(#pb1ab15caf4)" d="M 376.865703 376.56 
L 379.688365 376.56 
L 379.688365 376.27286 
L 376.865703 376.27286 
z
" style="fill:#9e1030;"/>
   </g>
   <g id="patch_134">
    <path clip-path="url(#pb1ab15caf4)" d="M 384.930452 376.56 
L 387.753114 376.56 
L 387.753114 376.387716 
L 384.930452 376.387716 
z
" style="fill:#9e1030;"/>
   </g>
   <g id="patch_135">
    <path clip-path="url(#pb1ab15caf4)" d="M 392.995201 376.56 
L 395.817863 376.56 
L 395.817863 376.330288 
L 392.995201 376.330288 
z
" style="fill:#9e1030;"/>
   </g>
   <g id="patch_136">
    <path clip-path="url(#pb1ab15caf4)" d="M 401.05995 376.56 
L 403.882613 376.56 
L 403.882613 376.330288 
L 401.05995 376.330288 
z
" style="fill:#9e1030;"/>
   </g>
   <g id="patch_137">
    <path clip-path="url(#pb1ab15caf4)" d="M 409.1247 376.56 
L 411.947362 376.56 
L 411.947362 376.445144 
L 409.1247 376.445144 
z
" style="fill:#9e1030;"/>
   </g>
   <g id="patch_138">
    <path clip-path="url(#pb1ab15caf4)" d="M 417.189449 376.56 
L 420.012111 376.56 
L 420.012111 376.387716 
L 417.189449 376.387716 
z
" style="fill:#9e1030;"/>
   </g>
   <g id="patch_139">
    <path clip-path="url(#pb1ab15caf4)" d="M 425.254198 376.56 
L 428.07686 376.56 
L 428.07686 376.445144 
L 425.254198 376.445144 
z
" style="fill:#9e1030;"/>
   </g>
   <g id="patch_140">
    <path clip-path="url(#pb1ab15caf4)" d="M 433.318947 376.56 
L 436.14161 376.56 
L 436.14161 376.56 
L 433.318947 376.56 
z
" style="fill:#9e1030;"/>
   </g>
   <g id="patch_141">
    <path clip-path="url(#pb1ab15caf4)" d="M 441.383697 376.56 
L 444.206359 376.56 
L 444.206359 376.387716 
L 441.383697 376.387716 
z
" style="fill:#9e1030;"/>
   </g>
   <g id="patch_142">
    <path clip-path="url(#pb1ab15caf4)" d="M 449.448446 376.56 
L 452.271108 376.56 
L 452.271108 376.502572 
L 449.448446 376.502572 
z
" style="fill:#9e1030;"/>
   </g>
   <g id="patch_143">
    <path clip-path="url(#pb1ab15caf4)" d="M 457.513195 376.56 
L 460.335857 376.56 
L 460.335857 376.56 
L 457.513195 376.56 
z
" style="fill:#9e1030;"/>
   </g>
   <g id="patch_144">
    <path clip-path="url(#pb1ab15caf4)" d="M 465.577944 376.56 
L 468.400607 376.56 
L 468.400607 376.502572 
L 465.577944 376.502572 
z
" style="fill:#9e1030;"/>
   </g>
   <g id="patch_145">
    <path clip-path="url(#pb1ab15caf4)" d="M 473.642694 376.56 
L 476.465356 376.56 
L 476.465356 376.502572 
L 473.642694 376.502572 
z
" style="fill:#9e1030;"/>
   </g>
   <g id="patch_146">
    <path clip-path="url(#pb1ab15caf4)" d="M 481.707443 376.56 
L 484.530105 376.56 
L 484.530105 376.502572 
L 481.707443 376.502572 
z
" style="fill:#9e1030;"/>
   </g>
   <g id="patch_147">
    <path clip-path="url(#pb1ab15caf4)" d="M 489.772192 376.56 
L 492.594854 376.56 
L 492.594854 376.56 
L 489.772192 376.56 
z
" style="fill:#9e1030;"/>
   </g>
   <g id="patch_148">
    <path clip-path="url(#pb1ab15caf4)" d="M 497.836941 376.56 
L 500.659604 376.56 
L 500.659604 376.56 
L 497.836941 376.56 
z
" style="fill:#9e1030;"/>
   </g>
   <g id="patch_149">
    <path clip-path="url(#pb1ab15caf4)" d="M 505.901691 376.56 
L 508.724353 376.56 
L 508.724353 376.56 
L 505.901691 376.56 
z
" style="fill:#9e1030;"/>
   </g>
   <g id="patch_150">
    <path clip-path="url(#pb1ab15caf4)" d="M 513.96644 376.56 
L 516.789102 376.56 
L 516.789102 376.56 
L 513.96644 376.56 
z
" style="fill:#9e1030;"/>
   </g>
   <g id="patch_151">
    <path clip-path="url(#pb1ab15caf4)" d="M 522.031189 376.56 
L 524.853851 376.56 
L 524.853851 376.445144 
L 522.031189 376.445144 
z
" style="fill:#9e1030;"/>
   </g>
   <g id="patch_152">
    <path clip-path="url(#pb1ab15caf4)" d="M 530.095938 376.56 
L 532.918601 376.56 
L 532.918601 376.502572 
L 530.095938 376.502572 
z
" style="fill:#9e1030;"/>
   </g>
   <g id="patch_153">
    <path clip-path="url(#pb1ab15caf4)" d="M 538.160688 376.56 
L 540.98335 376.56 
L 540.98335 376.56 
L 538.160688 376.56 
z
" style="fill:#9e1030;"/>
   </g>
   <g id="patch_154">
    <path clip-path="url(#pb1ab15caf4)" d="M 546.225437 376.56 
L 549.048099 376.56 
L 549.048099 376.56 
L 546.225437 376.56 
z
" style="fill:#9e1030;"/>
   </g>
   <g id="patch_155">
    <path clip-path="url(#pb1ab15caf4)" d="M 554.290186 376.56 
L 557.112848 376.56 
L 557.112848 376.56 
L 554.290186 376.56 
z
" style="fill:#9e1030;"/>
   </g>
   <g id="patch_156">
    <path clip-path="url(#pb1ab15caf4)" d="M 562.354935 376.56 
L 565.177597 376.56 
L 565.177597 376.56 
L 562.354935 376.56 
z
" style="fill:#9e1030;"/>
   </g>
   <g id="patch_157">
    <path clip-path="url(#pb1ab15caf4)" d="M 570.419684 376.56 
L 573.242347 376.56 
L 573.242347 376.502572 
L 570.419684 376.502572 
z
" style="fill:#9e1030;"/>
   </g>
   <g id="patch_158">
    <path clip-path="url(#pb1ab15caf4)" d="M 578.484434 376.56 
L 581.307096 376.56 
L 581.307096 376.56 
L 578.484434 376.56 
z
" style="fill:#9e1030;"/>
   </g>
   <g id="patch_159">
    <path clip-path="url(#pb1ab15caf4)" d="M 586.549183 376.56 
L 589.371845 376.56 
L 589.371845 376.56 
L 586.549183 376.56 
z
" style="fill:#9e1030;"/>
   </g>
   <g id="patch_160">
    <path clip-path="url(#pb1ab15caf4)" d="M 594.613932 376.56 
L 597.436594 376.56 
L 597.436594 376.502572 
L 594.613932 376.502572 
z
" style="fill:#9e1030;"/>
   </g>
   <g id="patch_161">
    <path clip-path="url(#pb1ab15caf4)" d="M 602.678681 376.56 
L 605.501344 376.56 
L 605.501344 376.56 
L 602.678681 376.56 
z
" style="fill:#9e1030;"/>
   </g>
   <g id="patch_162">
    <path clip-path="url(#pb1ab15caf4)" d="M 610.743431 376.56 
L 613.566093 376.56 
L 613.566093 376.56 
L 610.743431 376.56 
z
" style="fill:#9e1030;"/>
   </g>
   <g id="patch_163">
    <path clip-path="url(#pb1ab15caf4)" d="M 618.80818 376.56 
L 621.630842 376.56 
L 621.630842 376.56 
L 618.80818 376.56 
z
" style="fill:#9e1030;"/>
   </g>
   <g id="patch_164">
    <path clip-path="url(#pb1ab15caf4)" d="M 626.872929 376.56 
L 629.695591 376.56 
L 629.695591 376.56 
L 626.872929 376.56 
z
" style="fill:#9e1030;"/>
   </g>
   <g id="patch_165">
    <path clip-path="url(#pb1ab15caf4)" d="M 634.937678 376.56 
L 637.760341 376.56 
L 637.760341 376.56 
L 634.937678 376.56 
z
" style="fill:#9e1030;"/>
   </g>
   <g id="patch_166">
    <path clip-path="url(#pb1ab15caf4)" d="M 643.002428 376.56 
L 645.82509 376.56 
L 645.82509 376.56 
L 643.002428 376.56 
z
" style="fill:#9e1030;"/>
   </g>
   <g id="patch_167">
    <path clip-path="url(#pb1ab15caf4)" d="M 651.067177 376.56 
L 653.889839 376.56 
L 653.889839 376.56 
L 651.067177 376.56 
z
" style="fill:#9e1030;"/>
   </g>
   <g id="patch_168">
    <path clip-path="url(#pb1ab15caf4)" d="M 659.131926 376.56 
L 661.954588 376.56 
L 661.954588 376.56 
L 659.131926 376.56 
z
" style="fill:#9e1030;"/>
   </g>
   <g id="patch_169">
    <path clip-path="url(#pb1ab15caf4)" d="M 667.196675 376.56 
L 670.019338 376.56 
L 670.019338 376.56 
L 667.196675 376.56 
z
" style="fill:#9e1030;"/>
   </g>
   <g id="patch_170">
    <path clip-path="url(#pb1ab15caf4)" d="M 675.261425 376.56 
L 678.084087 376.56 
L 678.084087 376.56 
L 675.261425 376.56 
z
" style="fill:#9e1030;"/>
   </g>
   <g id="patch_171">
    <path clip-path="url(#pb1ab15caf4)" d="M 683.326174 376.56 
L 686.148836 376.56 
L 686.148836 376.56 
L 683.326174 376.56 
z
" style="fill:#9e1030;"/>
   </g>
   <g id="patch_172">
    <path clip-path="url(#pb1ab15caf4)" d="M 691.390923 376.56 
L 694.213585 376.56 
L 694.213585 376.502572 
L 691.390923 376.502572 
z
" style="fill:#9e1030;"/>
   </g>
   <g id="matplotlib.axis_1">
    <g id="xtick_1">
     <g id="line2d_1">
      <defs>
       <path d="M 0 0 
L 0 3.5 
" id="mccc6f396fa" style="stroke:#000000;stroke-width:0.8;"/>
      </defs>
      <g>
       <use style="stroke:#000000;stroke-width:0.8;" x="84.720161" xlink:href="#mccc6f396fa" y="376.56"/>
      </g>
     </g>
     <g id="text_1">
      <!-- 0 -->
      <defs>
       <path d="M 31.78125 66.40625 
Q 24.171875 66.40625 20.328125 58.90625 
Q 16.5 51.421875 16.5 36.375 
Q 16.5 21.390625 20.328125 13.890625 
Q 24.171875 6.390625 31.78125 6.390625 
Q 39.453125 6.390625 43.28125 13.890625 
Q 47.125 21.390625 47.125 36.375 
Q 47.125 51.421875 43.28125 58.90625 
Q 39.453125 66.40625 31.78125 66.40625 
z
M 31.78125 74.21875 
Q 44.046875 74.21875 50.515625 64.515625 
Q 56.984375 54.828125 56.984375 36.375 
Q 56.984375 17.96875 50.515625 8.265625 
Q 44.046875 -1.421875 31.78125 -1.421875 
Q 19.53125 -1.421875 13.0625 8.265625 
Q 6.59375 17.96875 6.59375 36.375 
Q 6.59375 54.828125 13.0625 64.515625 
Q 19.53125 74.21875 31.78125 74.21875 
z
" id="DejaVuSans-30"/>
      </defs>
      <g transform="translate(81.538911 391.158437)scale(0.1 -0.1)">
       <use xlink:href="#DejaVuSans-30"/>
      </g>
     </g>
    </g>
    <g id="xtick_2">
     <g id="line2d_2">
      <g>
       <use style="stroke:#000000;stroke-width:0.8;" x="246.015146" xlink:href="#mccc6f396fa" y="376.56"/>
      </g>
     </g>
     <g id="text_2">
      <!-- 20 -->
      <defs>
       <path d="M 19.1875 8.296875 
L 53.609375 8.296875 
L 53.609375 0 
L 7.328125 0 
L 7.328125 8.296875 
Q 12.9375 14.109375 22.625 23.890625 
Q 32.328125 33.6875 34.8125 36.53125 
Q 39.546875 41.84375 41.421875 45.53125 
Q 43.3125 49.21875 43.3125 52.78125 
Q 43.3125 58.59375 39.234375 62.25 
Q 35.15625 65.921875 28.609375 65.921875 
Q 23.96875 65.921875 18.8125 64.3125 
Q 13.671875 62.703125 7.8125 59.421875 
L 7.8125 69.390625 
Q 13.765625 71.78125 18.9375 73 
Q 24.125 74.21875 28.421875 74.21875 
Q 39.75 74.21875 46.484375 68.546875 
Q 53.21875 62.890625 53.21875 53.421875 
Q 53.21875 48.921875 51.53125 44.890625 
Q 49.859375 40.875 45.40625 35.40625 
Q 44.1875 33.984375 37.640625 27.21875 
Q 31.109375 20.453125 19.1875 8.296875 
z
" id="DejaVuSans-32"/>
      </defs>
      <g transform="translate(239.652646 391.158437)scale(0.1 -0.1)">
       <use xlink:href="#DejaVuSans-32"/>
       <use x="63.623047" xlink:href="#DejaVuSans-30"/>
      </g>
     </g>
    </g>
    <g id="xtick_3">
     <g id="line2d_3">
      <g>
       <use style="stroke:#000000;stroke-width:0.8;" x="407.310131" xlink:href="#mccc6f396fa" y="376.56"/>
      </g>
     </g>
     <g id="text_3">
      <!-- 40 -->
      <defs>
       <path d="M 37.796875 64.3125 
L 12.890625 25.390625 
L 37.796875 25.390625 
z
M 35.203125 72.90625 
L 47.609375 72.90625 
L 47.609375 25.390625 
L 58.015625 25.390625 
L 58.015625 17.1875 
L 47.609375 17.1875 
L 47.609375 0 
L 37.796875 0 
L 37.796875 17.1875 
L 4.890625 17.1875 
L 4.890625 26.703125 
z
" id="DejaVuSans-34"/>
      </defs>
      <g transform="translate(400.947631 391.158437)scale(0.1 -0.1)">
       <use xlink:href="#DejaVuSans-34"/>
       <use x="63.623047" xlink:href="#DejaVuSans-30"/>
      </g>
     </g>
    </g>
    <g id="xtick_4">
     <g id="line2d_4">
      <g>
       <use style="stroke:#000000;stroke-width:0.8;" x="568.605116" xlink:href="#mccc6f396fa" y="376.56"/>
      </g>
     </g>
     <g id="text_4">
      <!-- 60 -->
      <defs>
       <path d="M 33.015625 40.375 
Q 26.375 40.375 22.484375 35.828125 
Q 18.609375 31.296875 18.609375 23.390625 
Q 18.609375 15.53125 22.484375 10.953125 
Q 26.375 6.390625 33.015625 6.390625 
Q 39.65625 6.390625 43.53125 10.953125 
Q 47.40625 15.53125 47.40625 23.390625 
Q 47.40625 31.296875 43.53125 35.828125 
Q 39.65625 40.375 33.015625 40.375 
z
M 52.59375 71.296875 
L 52.59375 62.3125 
Q 48.875 64.0625 45.09375 64.984375 
Q 41.3125 65.921875 37.59375 65.921875 
Q 27.828125 65.921875 22.671875 59.328125 
Q 17.53125 52.734375 16.796875 39.40625 
Q 19.671875 43.65625 24.015625 45.921875 
Q 28.375 48.1875 33.59375 48.1875 
Q 44.578125 48.1875 50.953125 41.515625 
Q 57.328125 34.859375 57.328125 23.390625 
Q 57.328125 12.15625 50.6875 5.359375 
Q 44.046875 -1.421875 33.015625 -1.421875 
Q 20.359375 -1.421875 13.671875 8.265625 
Q 6.984375 17.96875 6.984375 36.375 
Q 6.984375 53.65625 15.1875 63.9375 
Q 23.390625 74.21875 37.203125 74.21875 
Q 40.921875 74.21875 44.703125 73.484375 
Q 48.484375 72.75 52.59375 71.296875 
z
" id="DejaVuSans-36"/>
      </defs>
      <g transform="translate(562.242616 391.158437)scale(0.1 -0.1)">
       <use xlink:href="#DejaVuSans-36"/>
       <use x="63.623047" xlink:href="#DejaVuSans-30"/>
      </g>
     </g>
    </g>
    <g id="xtick_5">
     <g id="line2d_5">
      <g>
       <use style="stroke:#000000;stroke-width:0.8;" x="729.900101" xlink:href="#mccc6f396fa" y="376.56"/>
      </g>
     </g>
     <g id="text_5">
      <!-- 80 -->
      <defs>
       <path d="M 31.78125 34.625 
Q 24.75 34.625 20.71875 30.859375 
Q 16.703125 27.09375 16.703125 20.515625 
Q 16.703125 13.921875 20.71875 10.15625 
Q 24.75 6.390625 31.78125 6.390625 
Q 38.8125 6.390625 42.859375 10.171875 
Q 46.921875 13.96875 46.921875 20.515625 
Q 46.921875 27.09375 42.890625 30.859375 
Q 38.875 34.625 31.78125 34.625 
z
M 21.921875 38.8125 
Q 15.578125 40.375 12.03125 44.71875 
Q 8.5 49.078125 8.5 55.328125 
Q 8.5 64.0625 14.71875 69.140625 
Q 20.953125 74.21875 31.78125 74.21875 
Q 42.671875 74.21875 48.875 69.140625 
Q 55.078125 64.0625 55.078125 55.328125 
Q 55.078125 49.078125 51.53125 44.71875 
Q 48 40.375 41.703125 38.8125 
Q 48.828125 37.15625 52.796875 32.3125 
Q 56.78125 27.484375 56.78125 20.515625 
Q 56.78125 9.90625 50.3125 4.234375 
Q 43.84375 -1.421875 31.78125 -1.421875 
Q 19.734375 -1.421875 13.25 4.234375 
Q 6.78125 9.90625 6.78125 20.515625 
Q 6.78125 27.484375 10.78125 32.3125 
Q 14.796875 37.15625 21.921875 38.8125 
z
M 18.3125 54.390625 
Q 18.3125 48.734375 21.84375 45.5625 
Q 25.390625 42.390625 31.78125 42.390625 
Q 38.140625 42.390625 41.71875 45.5625 
Q 45.3125 48.734375 45.3125 54.390625 
Q 45.3125 60.0625 41.71875 63.234375 
Q 38.140625 66.40625 31.78125 66.40625 
Q 25.390625 66.40625 21.84375 63.234375 
Q 18.3125 60.0625 18.3125 54.390625 
z
" id="DejaVuSans-38"/>
      </defs>
      <g transform="translate(723.537601 391.158437)scale(0.1 -0.1)">
       <use xlink:href="#DejaVuSans-38"/>
       <use x="63.623047" xlink:href="#DejaVuSans-30"/>
      </g>
     </g>
    </g>
    <g id="text_6">
     <!-- Degrees -->
     <defs>
      <path d="M 19.671875 64.796875 
L 19.671875 8.109375 
L 31.59375 8.109375 
Q 46.6875 8.109375 53.6875 14.9375 
Q 60.6875 21.78125 60.6875 36.53125 
Q 60.6875 51.171875 53.6875 57.984375 
Q 46.6875 64.796875 31.59375 64.796875 
z
M 9.8125 72.90625 
L 30.078125 72.90625 
Q 51.265625 72.90625 61.171875 64.09375 
Q 71.09375 55.28125 71.09375 36.53125 
Q 71.09375 17.671875 61.125 8.828125 
Q 51.171875 0 30.078125 0 
L 9.8125 0 
z
" id="DejaVuSans-44"/>
      <path d="M 56.203125 29.59375 
L 56.203125 25.203125 
L 14.890625 25.203125 
Q 15.484375 15.921875 20.484375 11.0625 
Q 25.484375 6.203125 34.421875 6.203125 
Q 39.59375 6.203125 44.453125 7.46875 
Q 49.3125 8.734375 54.109375 11.28125 
L 54.109375 2.78125 
Q 49.265625 0.734375 44.1875 -0.34375 
Q 39.109375 -1.421875 33.890625 -1.421875 
Q 20.796875 -1.421875 13.15625 6.1875 
Q 5.515625 13.8125 5.515625 26.8125 
Q 5.515625 40.234375 12.765625 48.109375 
Q 20.015625 56 32.328125 56 
Q 43.359375 56 49.78125 48.890625 
Q 56.203125 41.796875 56.203125 29.59375 
z
M 47.21875 32.234375 
Q 47.125 39.59375 43.09375 43.984375 
Q 39.0625 48.390625 32.421875 48.390625 
Q 24.90625 48.390625 20.390625 44.140625 
Q 15.875 39.890625 15.1875 32.171875 
z
" id="DejaVuSans-65"/>
      <path d="M 45.40625 27.984375 
Q 45.40625 37.75 41.375 43.109375 
Q 37.359375 48.484375 30.078125 48.484375 
Q 22.859375 48.484375 18.828125 43.109375 
Q 14.796875 37.75 14.796875 27.984375 
Q 14.796875 18.265625 18.828125 12.890625 
Q 22.859375 7.515625 30.078125 7.515625 
Q 37.359375 7.515625 41.375 12.890625 
Q 45.40625 18.265625 45.40625 27.984375 
z
M 54.390625 6.78125 
Q 54.390625 -7.171875 48.1875 -13.984375 
Q 42 -20.796875 29.203125 -20.796875 
Q 24.46875 -20.796875 20.265625 -20.09375 
Q 16.0625 -19.390625 12.109375 -17.921875 
L 12.109375 -9.1875 
Q 16.0625 -11.328125 19.921875 -12.34375 
Q 23.78125 -13.375 27.78125 -13.375 
Q 36.625 -13.375 41.015625 -8.765625 
Q 45.40625 -4.15625 45.40625 5.171875 
L 45.40625 9.625 
Q 42.625 4.78125 38.28125 2.390625 
Q 33.9375 0 27.875 0 
Q 17.828125 0 11.671875 7.65625 
Q 5.515625 15.328125 5.515625 27.984375 
Q 5.515625 40.671875 11.671875 48.328125 
Q 17.828125 56 27.875 56 
Q 33.9375 56 38.28125 53.609375 
Q 42.625 51.21875 45.40625 46.390625 
L 45.40625 54.6875 
L 54.390625 54.6875 
z
" id="DejaVuSans-67"/>
      <path d="M 41.109375 46.296875 
Q 39.59375 47.171875 37.8125 47.578125 
Q 36.03125 48 33.890625 48 
Q 26.265625 48 22.1875 43.046875 
Q 18.109375 38.09375 18.109375 28.8125 
L 18.109375 0 
L 9.078125 0 
L 9.078125 54.6875 
L 18.109375 54.6875 
L 18.109375 46.1875 
Q 20.953125 51.171875 25.484375 53.578125 
Q 30.03125 56 36.53125 56 
Q 37.453125 56 38.578125 55.875 
Q 39.703125 55.765625 41.0625 55.515625 
z
" id="DejaVuSans-72"/>
      <path d="M 44.28125 53.078125 
L 44.28125 44.578125 
Q 40.484375 46.53125 36.375 47.5 
Q 32.28125 48.484375 27.875 48.484375 
Q 21.1875 48.484375 17.84375 46.4375 
Q 14.5 44.390625 14.5 40.28125 
Q 14.5 37.15625 16.890625 35.375 
Q 19.28125 33.59375 26.515625 31.984375 
L 29.59375 31.296875 
Q 39.15625 29.25 43.1875 25.515625 
Q 47.21875 21.78125 47.21875 15.09375 
Q 47.21875 7.46875 41.1875 3.015625 
Q 35.15625 -1.421875 24.609375 -1.421875 
Q 20.21875 -1.421875 15.453125 -0.5625 
Q 10.6875 0.296875 5.421875 2 
L 5.421875 11.28125 
Q 10.40625 8.6875 15.234375 7.390625 
Q 20.0625 6.109375 24.8125 6.109375 
Q 31.15625 6.109375 34.5625 8.28125 
Q 37.984375 10.453125 37.984375 14.40625 
Q 37.984375 18.0625 35.515625 20.015625 
Q 33.0625 21.96875 24.703125 23.78125 
L 21.578125 24.515625 
Q 13.234375 26.265625 9.515625 29.90625 
Q 5.8125 33.546875 5.8125 39.890625 
Q 5.8125 47.609375 11.28125 51.796875 
Q 16.75 56 26.8125 56 
Q 31.78125 56 36.171875 55.265625 
Q 40.578125 54.546875 44.28125 53.078125 
z
" id="DejaVuSans-73"/>
     </defs>
     <g transform="translate(450.915625 404.836562)scale(0.1 -0.1)">
      <use xlink:href="#DejaVuSans-44"/>
      <use x="77.001953" xlink:href="#DejaVuSans-65"/>
      <use x="138.525391" xlink:href="#DejaVuSans-67"/>
      <use x="202.001953" xlink:href="#DejaVuSans-72"/>
      <use x="243.083984" xlink:href="#DejaVuSans-65"/>
      <use x="304.607422" xlink:href="#DejaVuSans-65"/>
      <use x="366.130859" xlink:href="#DejaVuSans-73"/>
     </g>
    </g>
   </g>
   <g id="matplotlib.axis_2">
    <g id="ytick_1">
     <g id="line2d_6">
      <defs>
       <path d="M 0 0 
L -3.5 0 
" id="m785c753f82" style="stroke:#000000;stroke-width:0.8;"/>
      </defs>
      <g>
       <use style="stroke:#000000;stroke-width:0.8;" x="53.328125" xlink:href="#m785c753f82" y="376.56"/>
      </g>
     </g>
     <g id="text_7">
      <!-- 0 -->
      <g transform="translate(39.965625 380.359219)scale(0.1 -0.1)">
       <use xlink:href="#DejaVuSans-30"/>
      </g>
     </g>
    </g>
    <g id="ytick_2">
     <g id="line2d_7">
      <g>
       <use style="stroke:#000000;stroke-width:0.8;" x="53.328125" xlink:href="#m785c753f82" y="319.131904"/>
      </g>
     </g>
     <g id="text_8">
      <!-- 1000 -->
      <defs>
       <path d="M 12.40625 8.296875 
L 28.515625 8.296875 
L 28.515625 63.921875 
L 10.984375 60.40625 
L 10.984375 69.390625 
L 28.421875 72.90625 
L 38.28125 72.90625 
L 38.28125 8.296875 
L 54.390625 8.296875 
L 54.390625 0 
L 12.40625 0 
z
" id="DejaVuSans-31"/>
      </defs>
      <g transform="translate(20.878125 322.931123)scale(0.1 -0.1)">
       <use xlink:href="#DejaVuSans-31"/>
       <use x="63.623047" xlink:href="#DejaVuSans-30"/>
       <use x="127.246094" xlink:href="#DejaVuSans-30"/>
       <use x="190.869141" xlink:href="#DejaVuSans-30"/>
      </g>
     </g>
    </g>
    <g id="ytick_3">
     <g id="line2d_8">
      <g>
       <use style="stroke:#000000;stroke-width:0.8;" x="53.328125" xlink:href="#m785c753f82" y="261.703808"/>
      </g>
     </g>
     <g id="text_9">
      <!-- 2000 -->
      <g transform="translate(20.878125 265.503027)scale(0.1 -0.1)">
       <use xlink:href="#DejaVuSans-32"/>
       <use x="63.623047" xlink:href="#DejaVuSans-30"/>
       <use x="127.246094" xlink:href="#DejaVuSans-30"/>
       <use x="190.869141" xlink:href="#DejaVuSans-30"/>
      </g>
     </g>
    </g>
    <g id="ytick_4">
     <g id="line2d_9">
      <g>
       <use style="stroke:#000000;stroke-width:0.8;" x="53.328125" xlink:href="#m785c753f82" y="204.275712"/>
      </g>
     </g>
     <g id="text_10">
      <!-- 3000 -->
      <defs>
       <path d="M 40.578125 39.3125 
Q 47.65625 37.796875 51.625 33 
Q 55.609375 28.21875 55.609375 21.1875 
Q 55.609375 10.40625 48.1875 4.484375 
Q 40.765625 -1.421875 27.09375 -1.421875 
Q 22.515625 -1.421875 17.65625 -0.515625 
Q 12.796875 0.390625 7.625 2.203125 
L 7.625 11.71875 
Q 11.71875 9.328125 16.59375 8.109375 
Q 21.484375 6.890625 26.8125 6.890625 
Q 36.078125 6.890625 40.9375 10.546875 
Q 45.796875 14.203125 45.796875 21.1875 
Q 45.796875 27.640625 41.28125 31.265625 
Q 36.765625 34.90625 28.71875 34.90625 
L 20.21875 34.90625 
L 20.21875 43.015625 
L 29.109375 43.015625 
Q 36.375 43.015625 40.234375 45.921875 
Q 44.09375 48.828125 44.09375 54.296875 
Q 44.09375 59.90625 40.109375 62.90625 
Q 36.140625 65.921875 28.71875 65.921875 
Q 24.65625 65.921875 20.015625 65.03125 
Q 15.375 64.15625 9.8125 62.3125 
L 9.8125 71.09375 
Q 15.4375 72.65625 20.34375 73.4375 
Q 25.25 74.21875 29.59375 74.21875 
Q 40.828125 74.21875 47.359375 69.109375 
Q 53.90625 64.015625 53.90625 55.328125 
Q 53.90625 49.265625 50.4375 45.09375 
Q 46.96875 40.921875 40.578125 39.3125 
z
" id="DejaVuSans-33"/>
      </defs>
      <g transform="translate(20.878125 208.074931)scale(0.1 -0.1)">
       <use xlink:href="#DejaVuSans-33"/>
       <use x="63.623047" xlink:href="#DejaVuSans-30"/>
       <use x="127.246094" xlink:href="#DejaVuSans-30"/>
       <use x="190.869141" xlink:href="#DejaVuSans-30"/>
      </g>
     </g>
    </g>
    <g id="ytick_5">
     <g id="line2d_10">
      <g>
       <use style="stroke:#000000;stroke-width:0.8;" x="53.328125" xlink:href="#m785c753f82" y="146.847616"/>
      </g>
     </g>
     <g id="text_11">
      <!-- 4000 -->
      <g transform="translate(20.878125 150.646835)scale(0.1 -0.1)">
       <use xlink:href="#DejaVuSans-34"/>
       <use x="63.623047" xlink:href="#DejaVuSans-30"/>
       <use x="127.246094" xlink:href="#DejaVuSans-30"/>
       <use x="190.869141" xlink:href="#DejaVuSans-30"/>
      </g>
     </g>
    </g>
    <g id="ytick_6">
     <g id="line2d_11">
      <g>
       <use style="stroke:#000000;stroke-width:0.8;" x="53.328125" xlink:href="#m785c753f82" y="89.41952"/>
      </g>
     </g>
     <g id="text_12">
      <!-- 5000 -->
      <defs>
       <path d="M 10.796875 72.90625 
L 49.515625 72.90625 
L 49.515625 64.59375 
L 19.828125 64.59375 
L 19.828125 46.734375 
Q 21.96875 47.46875 24.109375 47.828125 
Q 26.265625 48.1875 28.421875 48.1875 
Q 40.625 48.1875 47.75 41.5 
Q 54.890625 34.8125 54.890625 23.390625 
Q 54.890625 11.625 47.5625 5.09375 
Q 40.234375 -1.421875 26.90625 -1.421875 
Q 22.3125 -1.421875 17.546875 -0.640625 
Q 12.796875 0.140625 7.71875 1.703125 
L 7.71875 11.625 
Q 12.109375 9.234375 16.796875 8.0625 
Q 21.484375 6.890625 26.703125 6.890625 
Q 35.15625 6.890625 40.078125 11.328125 
Q 45.015625 15.765625 45.015625 23.390625 
Q 45.015625 31 40.078125 35.4375 
Q 35.15625 39.890625 26.703125 39.890625 
Q 22.75 39.890625 18.8125 39.015625 
Q 14.890625 38.140625 10.796875 36.28125 
z
" id="DejaVuSans-35"/>
      </defs>
      <g transform="translate(20.878125 93.218739)scale(0.1 -0.1)">
       <use xlink:href="#DejaVuSans-35"/>
       <use x="63.623047" xlink:href="#DejaVuSans-30"/>
       <use x="127.246094" xlink:href="#DejaVuSans-30"/>
       <use x="190.869141" xlink:href="#DejaVuSans-30"/>
      </g>
     </g>
    </g>
    <g id="text_13">
     <!-- Number of occurences -->
     <defs>
      <path d="M 9.8125 72.90625 
L 23.09375 72.90625 
L 55.421875 11.921875 
L 55.421875 72.90625 
L 64.984375 72.90625 
L 64.984375 0 
L 51.703125 0 
L 19.390625 60.984375 
L 19.390625 0 
L 9.8125 0 
z
" id="DejaVuSans-4e"/>
      <path d="M 8.5 21.578125 
L 8.5 54.6875 
L 17.484375 54.6875 
L 17.484375 21.921875 
Q 17.484375 14.15625 20.5 10.265625 
Q 23.53125 6.390625 29.59375 6.390625 
Q 36.859375 6.390625 41.078125 11.03125 
Q 45.3125 15.671875 45.3125 23.6875 
L 45.3125 54.6875 
L 54.296875 54.6875 
L 54.296875 0 
L 45.3125 0 
L 45.3125 8.40625 
Q 42.046875 3.421875 37.71875 1 
Q 33.40625 -1.421875 27.6875 -1.421875 
Q 18.265625 -1.421875 13.375 4.4375 
Q 8.5 10.296875 8.5 21.578125 
z
M 31.109375 56 
z
" id="DejaVuSans-75"/>
      <path d="M 52 44.1875 
Q 55.375 50.25 60.0625 53.125 
Q 64.75 56 71.09375 56 
Q 79.640625 56 84.28125 50.015625 
Q 88.921875 44.046875 88.921875 33.015625 
L 88.921875 0 
L 79.890625 0 
L 79.890625 32.71875 
Q 79.890625 40.578125 77.09375 44.375 
Q 74.3125 48.1875 68.609375 48.1875 
Q 61.625 48.1875 57.5625 43.546875 
Q 53.515625 38.921875 53.515625 30.90625 
L 53.515625 0 
L 44.484375 0 
L 44.484375 32.71875 
Q 44.484375 40.625 41.703125 44.40625 
Q 38.921875 48.1875 33.109375 48.1875 
Q 26.21875 48.1875 22.15625 43.53125 
Q 18.109375 38.875 18.109375 30.90625 
L 18.109375 0 
L 9.078125 0 
L 9.078125 54.6875 
L 18.109375 54.6875 
L 18.109375 46.1875 
Q 21.1875 51.21875 25.484375 53.609375 
Q 29.78125 56 35.6875 56 
Q 41.65625 56 45.828125 52.96875 
Q 50 49.953125 52 44.1875 
z
" id="DejaVuSans-6d"/>
      <path d="M 48.6875 27.296875 
Q 48.6875 37.203125 44.609375 42.84375 
Q 40.53125 48.484375 33.40625 48.484375 
Q 26.265625 48.484375 22.1875 42.84375 
Q 18.109375 37.203125 18.109375 27.296875 
Q 18.109375 17.390625 22.1875 11.75 
Q 26.265625 6.109375 33.40625 6.109375 
Q 40.53125 6.109375 44.609375 11.75 
Q 48.6875 17.390625 48.6875 27.296875 
z
M 18.109375 46.390625 
Q 20.953125 51.265625 25.265625 53.625 
Q 29.59375 56 35.59375 56 
Q 45.5625 56 51.78125 48.09375 
Q 58.015625 40.1875 58.015625 27.296875 
Q 58.015625 14.40625 51.78125 6.484375 
Q 45.5625 -1.421875 35.59375 -1.421875 
Q 29.59375 -1.421875 25.265625 0.953125 
Q 20.953125 3.328125 18.109375 8.203125 
L 18.109375 0 
L 9.078125 0 
L 9.078125 75.984375 
L 18.109375 75.984375 
z
" id="DejaVuSans-62"/>
      <path id="DejaVuSans-20"/>
      <path d="M 30.609375 48.390625 
Q 23.390625 48.390625 19.1875 42.75 
Q 14.984375 37.109375 14.984375 27.296875 
Q 14.984375 17.484375 19.15625 11.84375 
Q 23.34375 6.203125 30.609375 6.203125 
Q 37.796875 6.203125 41.984375 11.859375 
Q 46.1875 17.53125 46.1875 27.296875 
Q 46.1875 37.015625 41.984375 42.703125 
Q 37.796875 48.390625 30.609375 48.390625 
z
M 30.609375 56 
Q 42.328125 56 49.015625 48.375 
Q 55.71875 40.765625 55.71875 27.296875 
Q 55.71875 13.875 49.015625 6.21875 
Q 42.328125 -1.421875 30.609375 -1.421875 
Q 18.84375 -1.421875 12.171875 6.21875 
Q 5.515625 13.875 5.515625 27.296875 
Q 5.515625 40.765625 12.171875 48.375 
Q 18.84375 56 30.609375 56 
z
" id="DejaVuSans-6f"/>
      <path d="M 37.109375 75.984375 
L 37.109375 68.5 
L 28.515625 68.5 
Q 23.6875 68.5 21.796875 66.546875 
Q 19.921875 64.59375 19.921875 59.515625 
L 19.921875 54.6875 
L 34.71875 54.6875 
L 34.71875 47.703125 
L 19.921875 47.703125 
L 19.921875 0 
L 10.890625 0 
L 10.890625 47.703125 
L 2.296875 47.703125 
L 2.296875 54.6875 
L 10.890625 54.6875 
L 10.890625 58.5 
Q 10.890625 67.625 15.140625 71.796875 
Q 19.390625 75.984375 28.609375 75.984375 
z
" id="DejaVuSans-66"/>
      <path d="M 48.78125 52.59375 
L 48.78125 44.1875 
Q 44.96875 46.296875 41.140625 47.34375 
Q 37.3125 48.390625 33.40625 48.390625 
Q 24.65625 48.390625 19.8125 42.84375 
Q 14.984375 37.3125 14.984375 27.296875 
Q 14.984375 17.28125 19.8125 11.734375 
Q 24.65625 6.203125 33.40625 6.203125 
Q 37.3125 6.203125 41.140625 7.25 
Q 44.96875 8.296875 48.78125 10.40625 
L 48.78125 2.09375 
Q 45.015625 0.34375 40.984375 -0.53125 
Q 36.96875 -1.421875 32.421875 -1.421875 
Q 20.0625 -1.421875 12.78125 6.34375 
Q 5.515625 14.109375 5.515625 27.296875 
Q 5.515625 40.671875 12.859375 48.328125 
Q 20.21875 56 33.015625 56 
Q 37.15625 56 41.109375 55.140625 
Q 45.0625 54.296875 48.78125 52.59375 
z
" id="DejaVuSans-63"/>
      <path d="M 54.890625 33.015625 
L 54.890625 0 
L 45.90625 0 
L 45.90625 32.71875 
Q 45.90625 40.484375 42.875 44.328125 
Q 39.84375 48.1875 33.796875 48.1875 
Q 26.515625 48.1875 22.3125 43.546875 
Q 18.109375 38.921875 18.109375 30.90625 
L 18.109375 0 
L 9.078125 0 
L 9.078125 54.6875 
L 18.109375 54.6875 
L 18.109375 46.1875 
Q 21.34375 51.125 25.703125 53.5625 
Q 30.078125 56 35.796875 56 
Q 45.21875 56 50.046875 50.171875 
Q 54.890625 44.34375 54.890625 33.015625 
z
" id="DejaVuSans-6e"/>
     </defs>
     <g transform="translate(14.798438 270.019844)rotate(-90)scale(0.1 -0.1)">
      <use xlink:href="#DejaVuSans-4e"/>
      <use x="74.804688" xlink:href="#DejaVuSans-75"/>
      <use x="138.183594" xlink:href="#DejaVuSans-6d"/>
      <use x="235.595703" xlink:href="#DejaVuSans-62"/>
      <use x="299.072266" xlink:href="#DejaVuSans-65"/>
      <use x="360.595703" xlink:href="#DejaVuSans-72"/>
      <use x="401.708984" xlink:href="#DejaVuSans-20"/>
      <use x="433.496094" xlink:href="#DejaVuSans-6f"/>
      <use x="494.677734" xlink:href="#DejaVuSans-66"/>
      <use x="529.882812" xlink:href="#DejaVuSans-20"/>
      <use x="561.669922" xlink:href="#DejaVuSans-6f"/>
      <use x="622.851562" xlink:href="#DejaVuSans-63"/>
      <use x="677.832031" xlink:href="#DejaVuSans-63"/>
      <use x="732.8125" xlink:href="#DejaVuSans-75"/>
      <use x="796.191406" xlink:href="#DejaVuSans-72"/>
      <use x="837.273438" xlink:href="#DejaVuSans-65"/>
      <use x="898.796875" xlink:href="#DejaVuSans-6e"/>
      <use x="962.175781" xlink:href="#DejaVuSans-63"/>
      <use x="1017.15625" xlink:href="#DejaVuSans-65"/>
      <use x="1078.679688" xlink:href="#DejaVuSans-73"/>
     </g>
    </g>
   </g>
   <g id="patch_173">
    <path d="M 53.328125 376.56 
L 53.328125 50.4 
" style="fill:none;stroke:#000000;stroke-linecap:square;stroke-linejoin:miter;stroke-width:0.8;"/>
   </g>
   <g id="patch_174">
    <path d="M 890.328125 376.56 
L 890.328125 50.4 
" style="fill:none;stroke:#000000;stroke-linecap:square;stroke-linejoin:miter;stroke-width:0.8;"/>
   </g>
   <g id="patch_175">
    <path d="M 53.328125 376.56 
L 890.328125 376.56 
" style="fill:none;stroke:#000000;stroke-linecap:square;stroke-linejoin:miter;stroke-width:0.8;"/>
   </g>
   <g id="patch_176">
    <path d="M 53.328125 50.4 
L 890.328125 50.4 
" style="fill:none;stroke:#000000;stroke-linecap:square;stroke-linejoin:miter;stroke-width:0.8;"/>
   </g>
   <g id="legend_1">
    <g id="patch_177">
     <path d="M 756.570312 87.75625 
L 883.328125 87.75625 
Q 885.328125 87.75625 885.328125 85.75625 
L 885.328125 57.4 
Q 885.328125 55.4 883.328125 55.4 
L 756.570312 55.4 
Q 754.570312 55.4 754.570312 57.4 
L 754.570312 85.75625 
Q 754.570312 87.75625 756.570312 87.75625 
z
" style="fill:#ffffff;opacity:0.8;stroke:#cccccc;stroke-linejoin:miter;"/>
    </g>
    <g id="patch_178">
     <path d="M 758.570312 66.998437 
L 778.570312 66.998437 
L 778.570312 59.998437 
L 758.570312 59.998437 
z
" style="fill:#55638a;"/>
    </g>
    <g id="text_14">
     <!-- Degrees of Actors -->
     <defs>
      <path d="M 34.1875 63.1875 
L 20.796875 26.90625 
L 47.609375 26.90625 
z
M 28.609375 72.90625 
L 39.796875 72.90625 
L 67.578125 0 
L 57.328125 0 
L 50.6875 18.703125 
L 17.828125 18.703125 
L 11.1875 0 
L 0.78125 0 
z
" id="DejaVuSans-41"/>
      <path d="M 18.3125 70.21875 
L 18.3125 54.6875 
L 36.8125 54.6875 
L 36.8125 47.703125 
L 18.3125 47.703125 
L 18.3125 18.015625 
Q 18.3125 11.328125 20.140625 9.421875 
Q 21.96875 7.515625 27.59375 7.515625 
L 36.8125 7.515625 
L 36.8125 0 
L 27.59375 0 
Q 17.1875 0 13.234375 3.875 
Q 9.28125 7.765625 9.28125 18.015625 
L 9.28125 47.703125 
L 2.6875 47.703125 
L 2.6875 54.6875 
L 9.28125 54.6875 
L 9.28125 70.21875 
z
" id="DejaVuSans-74"/>
     </defs>
     <g transform="translate(786.570312 66.998437)scale(0.1 -0.1)">
      <use xlink:href="#DejaVuSans-44"/>
      <use x="77.001953" xlink:href="#DejaVuSans-65"/>
      <use x="138.525391" xlink:href="#DejaVuSans-67"/>
      <use x="202.001953" xlink:href="#DejaVuSans-72"/>
      <use x="243.083984" xlink:href="#DejaVuSans-65"/>
      <use x="304.607422" xlink:href="#DejaVuSans-65"/>
      <use x="366.130859" xlink:href="#DejaVuSans-73"/>
      <use x="418.230469" xlink:href="#DejaVuSans-20"/>
      <use x="450.017578" xlink:href="#DejaVuSans-6f"/>
      <use x="511.199219" xlink:href="#DejaVuSans-66"/>
      <use x="546.404297" xlink:href="#DejaVuSans-20"/>
      <use x="578.191406" xlink:href="#DejaVuSans-41"/>
      <use x="646.583984" xlink:href="#DejaVuSans-63"/>
      <use x="701.564453" xlink:href="#DejaVuSans-74"/>
      <use x="740.773438" xlink:href="#DejaVuSans-6f"/>
      <use x="801.955078" xlink:href="#DejaVuSans-72"/>
      <use x="843.068359" xlink:href="#DejaVuSans-73"/>
     </g>
    </g>
    <g id="patch_179">
     <path d="M 758.570312 81.676562 
L 778.570312 81.676562 
L 778.570312 74.676562 
L 758.570312 74.676562 
z
" style="fill:#9e1030;"/>
    </g>
    <g id="text_15">
     <!-- Degrees of Actress -->
     <g transform="translate(786.570312 81.676562)scale(0.1 -0.1)">
      <use xlink:href="#DejaVuSans-44"/>
      <use x="77.001953" xlink:href="#DejaVuSans-65"/>
      <use x="138.525391" xlink:href="#DejaVuSans-67"/>
      <use x="202.001953" xlink:href="#DejaVuSans-72"/>
      <use x="243.083984" xlink:href="#DejaVuSans-65"/>
      <use x="304.607422" xlink:href="#DejaVuSans-65"/>
      <use x="366.130859" xlink:href="#DejaVuSans-73"/>
      <use x="418.230469" xlink:href="#DejaVuSans-20"/>
      <use x="450.017578" xlink:href="#DejaVuSans-6f"/>
      <use x="511.199219" xlink:href="#DejaVuSans-66"/>
      <use x="546.404297" xlink:href="#DejaVuSans-20"/>
      <use x="578.191406" xlink:href="#DejaVuSans-41"/>
      <use x="646.583984" xlink:href="#DejaVuSans-63"/>
      <use x="701.564453" xlink:href="#DejaVuSans-74"/>
      <use x="740.773438" xlink:href="#DejaVuSans-72"/>
      <use x="781.855469" xlink:href="#DejaVuSans-65"/>
      <use x="843.378906" xlink:href="#DejaVuSans-73"/>
      <use x="895.478516" xlink:href="#DejaVuSans-73"/>
     </g>
    </g>
   </g>
  </g>
  <g id="text_16">
   <!-- Degree distribution -->
   <defs>
    <path d="M 45.40625 46.390625 
L 45.40625 75.984375 
L 54.390625 75.984375 
L 54.390625 0 
L 45.40625 0 
L 45.40625 8.203125 
Q 42.578125 3.328125 38.25 0.953125 
Q 33.9375 -1.421875 27.875 -1.421875 
Q 17.96875 -1.421875 11.734375 6.484375 
Q 5.515625 14.40625 5.515625 27.296875 
Q 5.515625 40.1875 11.734375 48.09375 
Q 17.96875 56 27.875 56 
Q 33.9375 56 38.25 53.625 
Q 42.578125 51.265625 45.40625 46.390625 
z
M 14.796875 27.296875 
Q 14.796875 17.390625 18.875 11.75 
Q 22.953125 6.109375 30.078125 6.109375 
Q 37.203125 6.109375 41.296875 11.75 
Q 45.40625 17.390625 45.40625 27.296875 
Q 45.40625 37.203125 41.296875 42.84375 
Q 37.203125 48.484375 30.078125 48.484375 
Q 22.953125 48.484375 18.875 42.84375 
Q 14.796875 37.203125 14.796875 27.296875 
z
" id="DejaVuSans-64"/>
    <path d="M 9.421875 54.6875 
L 18.40625 54.6875 
L 18.40625 0 
L 9.421875 0 
z
M 9.421875 75.984375 
L 18.40625 75.984375 
L 18.40625 64.59375 
L 9.421875 64.59375 
z
" id="DejaVuSans-69"/>
   </defs>
   <g transform="translate(380.904375 19.3575)scale(0.16 -0.16)">
    <use xlink:href="#DejaVuSans-44"/>
    <use x="77.001953" xlink:href="#DejaVuSans-65"/>
    <use x="138.525391" xlink:href="#DejaVuSans-67"/>
    <use x="202.001953" xlink:href="#DejaVuSans-72"/>
    <use x="243.083984" xlink:href="#DejaVuSans-65"/>
    <use x="304.607422" xlink:href="#DejaVuSans-65"/>
    <use x="366.130859" xlink:href="#DejaVuSans-20"/>
    <use x="397.917969" xlink:href="#DejaVuSans-64"/>
    <use x="461.394531" xlink:href="#DejaVuSans-69"/>
    <use x="489.177734" xlink:href="#DejaVuSans-73"/>
    <use x="541.277344" xlink:href="#DejaVuSans-74"/>
    <use x="580.486328" xlink:href="#DejaVuSans-72"/>
    <use x="621.599609" xlink:href="#DejaVuSans-69"/>
    <use x="649.382812" xlink:href="#DejaVuSans-62"/>
    <use x="712.859375" xlink:href="#DejaVuSans-75"/>
    <use x="776.238281" xlink:href="#DejaVuSans-74"/>
    <use x="815.447266" xlink:href="#DejaVuSans-69"/>
    <use x="843.230469" xlink:href="#DejaVuSans-6f"/>
    <use x="904.412109" xlink:href="#DejaVuSans-6e"/>
   </g>
  </g>
 </g>
 <defs>
  <clipPath id="pb1ab15caf4">
   <rect height="326.16" width="837" x="53.328125" y="50.4"/>
  </clipPath>
 </defs>
</svg>
