<?xml version="1.0" encoding="utf-8" standalone="no"?>
<!DOCTYPE svg PUBLIC "-//W3C//DTD SVG 1.1//EN"
  "http://www.w3.org/Graphics/SVG/1.1/DTD/svg11.dtd">
<!-- Created with matplotlib (http://matplotlib.org/) -->
<svg height="283.393125pt" version="1.1" viewBox="0 0 620.078125 283.393125" width="620.078125pt" xmlns="http://www.w3.org/2000/svg" xmlns:xlink="http://www.w3.org/1999/xlink">
 <defs>
  <style type="text/css">
*{stroke-linecap:butt;stroke-linejoin:round;}
  </style>
 </defs>
 <g id="figure_1">
  <g id="patch_1">
   <path d="M 0 283.393125 
L 620.078125 283.393125 
L 620.078125 0 
L 0 0 
z
" style="fill:#ffffff;"/>
  </g>
  <g id="axes_1">
   <g id="patch_2">
    <path d="M 51.378125 245.836875 
L 609.378125 245.836875 
L 609.378125 28.396875 
L 51.378125 28.396875 
z
" style="fill:#ffffff;"/>
   </g>
   <g id="matplotlib.axis_1">
    <g id="xtick_1">
     <g id="line2d_1">
      <defs>
       <path d="M 0 0 
L 0 3.5 
" id="m2f20b19107" style="stroke:#000000;stroke-width:0.8;"/>
      </defs>
      <g>
       <use style="stroke:#000000;stroke-width:0.8;" x="76.741761" xlink:href="#m2f20b19107" y="245.836875"/>
      </g>
     </g>
     <g id="text_1">
      <!-- $\mathdefault{10^{0}}$ -->
      <defs>
       <path d="M 12.40625 8.296875 
L 28.515625 8.296875 
L 28.515625 63.921875 
L 10.984375 60.40625 
L 10.984375 69.390625 
L 28.421875 72.90625 
L 38.28125 72.90625 
L 38.28125 8.296875 
L 54.390625 8.296875 
L 54.390625 0 
L 12.40625 0 
z
" id="DejaVuSans-31"/>
       <path d="M 31.78125 66.40625 
Q 24.171875 66.40625 20.328125 58.90625 
Q 16.5 51.421875 16.5 36.375 
Q 16.5 21.390625 20.328125 13.890625 
Q 24.171875 6.390625 31.78125 6.390625 
Q 39.453125 6.390625 43.28125 13.890625 
Q 47.125 21.390625 47.125 36.375 
Q 47.125 51.421875 43.28125 58.90625 
Q 39.453125 66.40625 31.78125 66.40625 
z
M 31.78125 74.21875 
Q 44.046875 74.21875 50.515625 64.515625 
Q 56.984375 54.828125 56.984375 36.375 
Q 56.984375 17.96875 50.515625 8.265625 
Q 44.046875 -1.421875 31.78125 -1.421875 
Q 19.53125 -1.421875 13.0625 8.265625 
Q 6.59375 17.96875 6.59375 36.375 
Q 6.59375 54.828125 13.0625 64.515625 
Q 19.53125 74.21875 31.78125 74.21875 
z
" id="DejaVuSans-30"/>
      </defs>
      <g transform="translate(67.941761 260.435312)scale(0.1 -0.1)">
       <use transform="translate(0 0.765625)" xlink:href="#DejaVuSans-31"/>
       <use transform="translate(63.623047 0.765625)" xlink:href="#DejaVuSans-30"/>
       <use transform="translate(128.203125 39.046875)scale(0.7)" xlink:href="#DejaVuSans-30"/>
      </g>
     </g>
    </g>
    <g id="xtick_2">
     <g id="line2d_2">
      <g>
       <use style="stroke:#000000;stroke-width:0.8;" x="332.646563" xlink:href="#m2f20b19107" y="245.836875"/>
      </g>
     </g>
     <g id="text_2">
      <!-- $\mathdefault{10^{1}}$ -->
      <g transform="translate(323.846563 260.435312)scale(0.1 -0.1)">
       <use transform="translate(0 0.684375)" xlink:href="#DejaVuSans-31"/>
       <use transform="translate(63.623047 0.684375)" xlink:href="#DejaVuSans-30"/>
       <use transform="translate(128.203125 38.965625)scale(0.7)" xlink:href="#DejaVuSans-31"/>
      </g>
     </g>
    </g>
    <g id="xtick_3">
     <g id="line2d_3">
      <g>
       <use style="stroke:#000000;stroke-width:0.8;" x="588.551365" xlink:href="#m2f20b19107" y="245.836875"/>
      </g>
     </g>
     <g id="text_3">
      <!-- $\mathdefault{10^{2}}$ -->
      <defs>
       <path d="M 19.1875 8.296875 
L 53.609375 8.296875 
L 53.609375 0 
L 7.328125 0 
L 7.328125 8.296875 
Q 12.9375 14.109375 22.625 23.890625 
Q 32.328125 33.6875 34.8125 36.53125 
Q 39.546875 41.84375 41.421875 45.53125 
Q 43.3125 49.21875 43.3125 52.78125 
Q 43.3125 58.59375 39.234375 62.25 
Q 35.15625 65.921875 28.609375 65.921875 
Q 23.96875 65.921875 18.8125 64.3125 
Q 13.671875 62.703125 7.8125 59.421875 
L 7.8125 69.390625 
Q 13.765625 71.78125 18.9375 73 
Q 24.125 74.21875 28.421875 74.21875 
Q 39.75 74.21875 46.484375 68.546875 
Q 53.21875 62.890625 53.21875 53.421875 
Q 53.21875 48.921875 51.53125 44.890625 
Q 49.859375 40.875 45.40625 35.40625 
Q 44.1875 33.984375 37.640625 27.21875 
Q 31.109375 20.453125 19.1875 8.296875 
z
" id="DejaVuSans-32"/>
      </defs>
      <g transform="translate(579.751365 260.435312)scale(0.1 -0.1)">
       <use transform="translate(0 0.765625)" xlink:href="#DejaVuSans-31"/>
       <use transform="translate(63.623047 0.765625)" xlink:href="#DejaVuSans-30"/>
       <use transform="translate(128.203125 39.046875)scale(0.7)" xlink:href="#DejaVuSans-32"/>
      </g>
     </g>
    </g>
    <g id="xtick_4">
     <g id="line2d_4">
      <defs>
       <path d="M 0 0 
L 0 2 
" id="m429d402b23" style="stroke:#000000;stroke-width:0.6;"/>
      </defs>
      <g>
       <use style="stroke:#000000;stroke-width:0.6;" x="51.942024" xlink:href="#m429d402b23" y="245.836875"/>
      </g>
     </g>
    </g>
    <g id="xtick_5">
     <g id="line2d_5">
      <g>
       <use style="stroke:#000000;stroke-width:0.6;" x="65.0322" xlink:href="#m429d402b23" y="245.836875"/>
      </g>
     </g>
    </g>
    <g id="xtick_6">
     <g id="line2d_6">
      <g>
       <use style="stroke:#000000;stroke-width:0.6;" x="153.776783" xlink:href="#m429d402b23" y="245.836875"/>
      </g>
     </g>
    </g>
    <g id="xtick_7">
     <g id="line2d_7">
      <g>
       <use style="stroke:#000000;stroke-width:0.6;" x="198.839382" xlink:href="#m429d402b23" y="245.836875"/>
      </g>
     </g>
    </g>
    <g id="xtick_8">
     <g id="line2d_8">
      <g>
       <use style="stroke:#000000;stroke-width:0.6;" x="230.811804" xlink:href="#m429d402b23" y="245.836875"/>
      </g>
     </g>
    </g>
    <g id="xtick_9">
     <g id="line2d_9">
      <g>
       <use style="stroke:#000000;stroke-width:0.6;" x="255.611542" xlink:href="#m429d402b23" y="245.836875"/>
      </g>
     </g>
    </g>
    <g id="xtick_10">
     <g id="line2d_10">
      <g>
       <use style="stroke:#000000;stroke-width:0.6;" x="275.874403" xlink:href="#m429d402b23" y="245.836875"/>
      </g>
     </g>
    </g>
    <g id="xtick_11">
     <g id="line2d_11">
      <g>
       <use style="stroke:#000000;stroke-width:0.6;" x="293.006408" xlink:href="#m429d402b23" y="245.836875"/>
      </g>
     </g>
    </g>
    <g id="xtick_12">
     <g id="line2d_12">
      <g>
       <use style="stroke:#000000;stroke-width:0.6;" x="307.846826" xlink:href="#m429d402b23" y="245.836875"/>
      </g>
     </g>
    </g>
    <g id="xtick_13">
     <g id="line2d_13">
      <g>
       <use style="stroke:#000000;stroke-width:0.6;" x="320.937002" xlink:href="#m429d402b23" y="245.836875"/>
      </g>
     </g>
    </g>
    <g id="xtick_14">
     <g id="line2d_14">
      <g>
       <use style="stroke:#000000;stroke-width:0.6;" x="409.681585" xlink:href="#m429d402b23" y="245.836875"/>
      </g>
     </g>
    </g>
    <g id="xtick_15">
     <g id="line2d_15">
      <g>
       <use style="stroke:#000000;stroke-width:0.6;" x="454.744183" xlink:href="#m429d402b23" y="245.836875"/>
      </g>
     </g>
    </g>
    <g id="xtick_16">
     <g id="line2d_16">
      <g>
       <use style="stroke:#000000;stroke-width:0.6;" x="486.716606" xlink:href="#m429d402b23" y="245.836875"/>
      </g>
     </g>
    </g>
    <g id="xtick_17">
     <g id="line2d_17">
      <g>
       <use style="stroke:#000000;stroke-width:0.6;" x="511.516344" xlink:href="#m429d402b23" y="245.836875"/>
      </g>
     </g>
    </g>
    <g id="xtick_18">
     <g id="line2d_18">
      <g>
       <use style="stroke:#000000;stroke-width:0.6;" x="531.779205" xlink:href="#m429d402b23" y="245.836875"/>
      </g>
     </g>
    </g>
    <g id="xtick_19">
     <g id="line2d_19">
      <g>
       <use style="stroke:#000000;stroke-width:0.6;" x="548.91121" xlink:href="#m429d402b23" y="245.836875"/>
      </g>
     </g>
    </g>
    <g id="xtick_20">
     <g id="line2d_20">
      <g>
       <use style="stroke:#000000;stroke-width:0.6;" x="563.751628" xlink:href="#m429d402b23" y="245.836875"/>
      </g>
     </g>
    </g>
    <g id="xtick_21">
     <g id="line2d_21">
      <g>
       <use style="stroke:#000000;stroke-width:0.6;" x="576.841804" xlink:href="#m429d402b23" y="245.836875"/>
      </g>
     </g>
    </g>
    <g id="text_4">
     <!-- Log(Degree) -->
     <defs>
      <path d="M 9.8125 72.90625 
L 19.671875 72.90625 
L 19.671875 8.296875 
L 55.171875 8.296875 
L 55.171875 0 
L 9.8125 0 
z
" id="DejaVuSans-4c"/>
      <path d="M 30.609375 48.390625 
Q 23.390625 48.390625 19.1875 42.75 
Q 14.984375 37.109375 14.984375 27.296875 
Q 14.984375 17.484375 19.15625 11.84375 
Q 23.34375 6.203125 30.609375 6.203125 
Q 37.796875 6.203125 41.984375 11.859375 
Q 46.1875 17.53125 46.1875 27.296875 
Q 46.1875 37.015625 41.984375 42.703125 
Q 37.796875 48.390625 30.609375 48.390625 
z
M 30.609375 56 
Q 42.328125 56 49.015625 48.375 
Q 55.71875 40.765625 55.71875 27.296875 
Q 55.71875 13.875 49.015625 6.21875 
Q 42.328125 -1.421875 30.609375 -1.421875 
Q 18.84375 -1.421875 12.171875 6.21875 
Q 5.515625 13.875 5.515625 27.296875 
Q 5.515625 40.765625 12.171875 48.375 
Q 18.84375 56 30.609375 56 
z
" id="DejaVuSans-6f"/>
      <path d="M 45.40625 27.984375 
Q 45.40625 37.75 41.375 43.109375 
Q 37.359375 48.484375 30.078125 48.484375 
Q 22.859375 48.484375 18.828125 43.109375 
Q 14.796875 37.75 14.796875 27.984375 
Q 14.796875 18.265625 18.828125 12.890625 
Q 22.859375 7.515625 30.078125 7.515625 
Q 37.359375 7.515625 41.375 12.890625 
Q 45.40625 18.265625 45.40625 27.984375 
z
M 54.390625 6.78125 
Q 54.390625 -7.171875 48.1875 -13.984375 
Q 42 -20.796875 29.203125 -20.796875 
Q 24.46875 -20.796875 20.265625 -20.09375 
Q 16.0625 -19.390625 12.109375 -17.921875 
L 12.109375 -9.1875 
Q 16.0625 -11.328125 19.921875 -12.34375 
Q 23.78125 -13.375 27.78125 -13.375 
Q 36.625 -13.375 41.015625 -8.765625 
Q 45.40625 -4.15625 45.40625 5.171875 
L 45.40625 9.625 
Q 42.625 4.78125 38.28125 2.390625 
Q 33.9375 0 27.875 0 
Q 17.828125 0 11.671875 7.65625 
Q 5.515625 15.328125 5.515625 27.984375 
Q 5.515625 40.671875 11.671875 48.328125 
Q 17.828125 56 27.875 56 
Q 33.9375 56 38.28125 53.609375 
Q 42.625 51.21875 45.40625 46.390625 
L 45.40625 54.6875 
L 54.390625 54.6875 
z
" id="DejaVuSans-67"/>
      <path d="M 31 75.875 
Q 24.46875 64.65625 21.28125 53.65625 
Q 18.109375 42.671875 18.109375 31.390625 
Q 18.109375 20.125 21.3125 9.0625 
Q 24.515625 -2 31 -13.1875 
L 23.1875 -13.1875 
Q 15.875 -1.703125 12.234375 9.375 
Q 8.59375 20.453125 8.59375 31.390625 
Q 8.59375 42.28125 12.203125 53.3125 
Q 15.828125 64.359375 23.1875 75.875 
z
" id="DejaVuSans-28"/>
      <path d="M 19.671875 64.796875 
L 19.671875 8.109375 
L 31.59375 8.109375 
Q 46.6875 8.109375 53.6875 14.9375 
Q 60.6875 21.78125 60.6875 36.53125 
Q 60.6875 51.171875 53.6875 57.984375 
Q 46.6875 64.796875 31.59375 64.796875 
z
M 9.8125 72.90625 
L 30.078125 72.90625 
Q 51.265625 72.90625 61.171875 64.09375 
Q 71.09375 55.28125 71.09375 36.53125 
Q 71.09375 17.671875 61.125 8.828125 
Q 51.171875 0 30.078125 0 
L 9.8125 0 
z
" id="DejaVuSans-44"/>
      <path d="M 56.203125 29.59375 
L 56.203125 25.203125 
L 14.890625 25.203125 
Q 15.484375 15.921875 20.484375 11.0625 
Q 25.484375 6.203125 34.421875 6.203125 
Q 39.59375 6.203125 44.453125 7.46875 
Q 49.3125 8.734375 54.109375 11.28125 
L 54.109375 2.78125 
Q 49.265625 0.734375 44.1875 -0.34375 
Q 39.109375 -1.421875 33.890625 -1.421875 
Q 20.796875 -1.421875 13.15625 6.1875 
Q 5.515625 13.8125 5.515625 26.8125 
Q 5.515625 40.234375 12.765625 48.109375 
Q 20.015625 56 32.328125 56 
Q 43.359375 56 49.78125 48.890625 
Q 56.203125 41.796875 56.203125 29.59375 
z
M 47.21875 32.234375 
Q 47.125 39.59375 43.09375 43.984375 
Q 39.0625 48.390625 32.421875 48.390625 
Q 24.90625 48.390625 20.390625 44.140625 
Q 15.875 39.890625 15.1875 32.171875 
z
" id="DejaVuSans-65"/>
      <path d="M 41.109375 46.296875 
Q 39.59375 47.171875 37.8125 47.578125 
Q 36.03125 48 33.890625 48 
Q 26.265625 48 22.1875 43.046875 
Q 18.109375 38.09375 18.109375 28.8125 
L 18.109375 0 
L 9.078125 0 
L 9.078125 54.6875 
L 18.109375 54.6875 
L 18.109375 46.1875 
Q 20.953125 51.171875 25.484375 53.578125 
Q 30.03125 56 36.53125 56 
Q 37.453125 56 38.578125 55.875 
Q 39.703125 55.765625 41.0625 55.515625 
z
" id="DejaVuSans-72"/>
      <path d="M 8.015625 75.875 
L 15.828125 75.875 
Q 23.140625 64.359375 26.78125 53.3125 
Q 30.421875 42.28125 30.421875 31.390625 
Q 30.421875 20.453125 26.78125 9.375 
Q 23.140625 -1.703125 15.828125 -13.1875 
L 8.015625 -13.1875 
Q 14.5 -2 17.703125 9.0625 
Q 20.90625 20.125 20.90625 31.390625 
Q 20.90625 42.671875 17.703125 53.65625 
Q 14.5 64.65625 8.015625 75.875 
z
" id="DejaVuSans-29"/>
     </defs>
     <g transform="translate(299.15 274.113437)scale(0.1 -0.1)">
      <use xlink:href="#DejaVuSans-4c"/>
      <use x="55.697266" xlink:href="#DejaVuSans-6f"/>
      <use x="116.878906" xlink:href="#DejaVuSans-67"/>
      <use x="180.355469" xlink:href="#DejaVuSans-28"/>
      <use x="219.369141" xlink:href="#DejaVuSans-44"/>
      <use x="296.371094" xlink:href="#DejaVuSans-65"/>
      <use x="357.894531" xlink:href="#DejaVuSans-67"/>
      <use x="421.371094" xlink:href="#DejaVuSans-72"/>
      <use x="462.453125" xlink:href="#DejaVuSans-65"/>
      <use x="523.976562" xlink:href="#DejaVuSans-65"/>
      <use x="585.5" xlink:href="#DejaVuSans-29"/>
     </g>
    </g>
   </g>
   <g id="matplotlib.axis_2">
    <g id="ytick_1">
     <g id="line2d_22">
      <defs>
       <path d="M 0 0 
L -3.5 0 
" id="me0411d616d" style="stroke:#000000;stroke-width:0.8;"/>
      </defs>
      <g>
       <use style="stroke:#000000;stroke-width:0.8;" x="51.378125" xlink:href="#me0411d616d" y="245.836875"/>
      </g>
     </g>
     <g id="text_5">
      <!-- $\mathdefault{10^{-5}}$ -->
      <defs>
       <path d="M 10.59375 35.5 
L 73.1875 35.5 
L 73.1875 27.203125 
L 10.59375 27.203125 
z
" id="DejaVuSans-2212"/>
       <path d="M 10.796875 72.90625 
L 49.515625 72.90625 
L 49.515625 64.59375 
L 19.828125 64.59375 
L 19.828125 46.734375 
Q 21.96875 47.46875 24.109375 47.828125 
Q 26.265625 48.1875 28.421875 48.1875 
Q 40.625 48.1875 47.75 41.5 
Q 54.890625 34.8125 54.890625 23.390625 
Q 54.890625 11.625 47.5625 5.09375 
Q 40.234375 -1.421875 26.90625 -1.421875 
Q 22.3125 -1.421875 17.546875 -0.640625 
Q 12.796875 0.140625 7.71875 1.703125 
L 7.71875 11.625 
Q 12.109375 9.234375 16.796875 8.0625 
Q 21.484375 6.890625 26.703125 6.890625 
Q 35.15625 6.890625 40.078125 11.328125 
Q 45.015625 15.765625 45.015625 23.390625 
Q 45.015625 31 40.078125 35.4375 
Q 35.15625 39.890625 26.703125 39.890625 
Q 22.75 39.890625 18.8125 39.015625 
Q 14.890625 38.140625 10.796875 36.28125 
z
" id="DejaVuSans-35"/>
      </defs>
      <g transform="translate(20.878125 249.636094)scale(0.1 -0.1)">
       <use transform="translate(0 0.684375)" xlink:href="#DejaVuSans-31"/>
       <use transform="translate(63.623047 0.684375)" xlink:href="#DejaVuSans-30"/>
       <use transform="translate(128.203125 38.965625)scale(0.7)" xlink:href="#DejaVuSans-2212"/>
       <use transform="translate(186.855469 38.965625)scale(0.7)" xlink:href="#DejaVuSans-35"/>
      </g>
     </g>
    </g>
    <g id="ytick_2">
     <g id="line2d_23">
      <g>
       <use style="stroke:#000000;stroke-width:0.8;" x="51.378125" xlink:href="#me0411d616d" y="202.348875"/>
      </g>
     </g>
     <g id="text_6">
      <!-- $\mathdefault{10^{-4}}$ -->
      <defs>
       <path d="M 37.796875 64.3125 
L 12.890625 25.390625 
L 37.796875 25.390625 
z
M 35.203125 72.90625 
L 47.609375 72.90625 
L 47.609375 25.390625 
L 58.015625 25.390625 
L 58.015625 17.1875 
L 47.609375 17.1875 
L 47.609375 0 
L 37.796875 0 
L 37.796875 17.1875 
L 4.890625 17.1875 
L 4.890625 26.703125 
z
" id="DejaVuSans-34"/>
      </defs>
      <g transform="translate(20.878125 206.148094)scale(0.1 -0.1)">
       <use transform="translate(0 0.684375)" xlink:href="#DejaVuSans-31"/>
       <use transform="translate(63.623047 0.684375)" xlink:href="#DejaVuSans-30"/>
       <use transform="translate(128.203125 38.965625)scale(0.7)" xlink:href="#DejaVuSans-2212"/>
       <use transform="translate(186.855469 38.965625)scale(0.7)" xlink:href="#DejaVuSans-34"/>
      </g>
     </g>
    </g>
    <g id="ytick_3">
     <g id="line2d_24">
      <g>
       <use style="stroke:#000000;stroke-width:0.8;" x="51.378125" xlink:href="#me0411d616d" y="158.860875"/>
      </g>
     </g>
     <g id="text_7">
      <!-- $\mathdefault{10^{-3}}$ -->
      <defs>
       <path d="M 40.578125 39.3125 
Q 47.65625 37.796875 51.625 33 
Q 55.609375 28.21875 55.609375 21.1875 
Q 55.609375 10.40625 48.1875 4.484375 
Q 40.765625 -1.421875 27.09375 -1.421875 
Q 22.515625 -1.421875 17.65625 -0.515625 
Q 12.796875 0.390625 7.625 2.203125 
L 7.625 11.71875 
Q 11.71875 9.328125 16.59375 8.109375 
Q 21.484375 6.890625 26.8125 6.890625 
Q 36.078125 6.890625 40.9375 10.546875 
Q 45.796875 14.203125 45.796875 21.1875 
Q 45.796875 27.640625 41.28125 31.265625 
Q 36.765625 34.90625 28.71875 34.90625 
L 20.21875 34.90625 
L 20.21875 43.015625 
L 29.109375 43.015625 
Q 36.375 43.015625 40.234375 45.921875 
Q 44.09375 48.828125 44.09375 54.296875 
Q 44.09375 59.90625 40.109375 62.90625 
Q 36.140625 65.921875 28.71875 65.921875 
Q 24.65625 65.921875 20.015625 65.03125 
Q 15.375 64.15625 9.8125 62.3125 
L 9.8125 71.09375 
Q 15.4375 72.65625 20.34375 73.4375 
Q 25.25 74.21875 29.59375 74.21875 
Q 40.828125 74.21875 47.359375 69.109375 
Q 53.90625 64.015625 53.90625 55.328125 
Q 53.90625 49.265625 50.4375 45.09375 
Q 46.96875 40.921875 40.578125 39.3125 
z
" id="DejaVuSans-33"/>
      </defs>
      <g transform="translate(20.878125 162.660094)scale(0.1 -0.1)">
       <use transform="translate(0 0.765625)" xlink:href="#DejaVuSans-31"/>
       <use transform="translate(63.623047 0.765625)" xlink:href="#DejaVuSans-30"/>
       <use transform="translate(128.203125 39.046875)scale(0.7)" xlink:href="#DejaVuSans-2212"/>
       <use transform="translate(186.855469 39.046875)scale(0.7)" xlink:href="#DejaVuSans-33"/>
      </g>
     </g>
    </g>
    <g id="ytick_4">
     <g id="line2d_25">
      <g>
       <use style="stroke:#000000;stroke-width:0.8;" x="51.378125" xlink:href="#me0411d616d" y="115.372875"/>
      </g>
     </g>
     <g id="text_8">
      <!-- $\mathdefault{10^{-2}}$ -->
      <g transform="translate(20.878125 119.172094)scale(0.1 -0.1)">
       <use transform="translate(0 0.765625)" xlink:href="#DejaVuSans-31"/>
       <use transform="translate(63.623047 0.765625)" xlink:href="#DejaVuSans-30"/>
       <use transform="translate(128.203125 39.046875)scale(0.7)" xlink:href="#DejaVuSans-2212"/>
       <use transform="translate(186.855469 39.046875)scale(0.7)" xlink:href="#DejaVuSans-32"/>
      </g>
     </g>
    </g>
    <g id="ytick_5">
     <g id="line2d_26">
      <g>
       <use style="stroke:#000000;stroke-width:0.8;" x="51.378125" xlink:href="#me0411d616d" y="71.884875"/>
      </g>
     </g>
     <g id="text_9">
      <!-- $\mathdefault{10^{-1}}$ -->
      <g transform="translate(20.878125 75.684094)scale(0.1 -0.1)">
       <use transform="translate(0 0.684375)" xlink:href="#DejaVuSans-31"/>
       <use transform="translate(63.623047 0.684375)" xlink:href="#DejaVuSans-30"/>
       <use transform="translate(128.203125 38.965625)scale(0.7)" xlink:href="#DejaVuSans-2212"/>
       <use transform="translate(186.855469 38.965625)scale(0.7)" xlink:href="#DejaVuSans-31"/>
      </g>
     </g>
    </g>
    <g id="ytick_6">
     <g id="line2d_27">
      <g>
       <use style="stroke:#000000;stroke-width:0.8;" x="51.378125" xlink:href="#me0411d616d" y="28.396875"/>
      </g>
     </g>
     <g id="text_10">
      <!-- $\mathdefault{10^{0}}$ -->
      <g transform="translate(26.778125 32.196094)scale(0.1 -0.1)">
       <use transform="translate(0 0.765625)" xlink:href="#DejaVuSans-31"/>
       <use transform="translate(63.623047 0.765625)" xlink:href="#DejaVuSans-30"/>
       <use transform="translate(128.203125 39.046875)scale(0.7)" xlink:href="#DejaVuSans-30"/>
      </g>
     </g>
    </g>
    <g id="ytick_7">
     <g id="line2d_28">
      <defs>
       <path d="M 0 0 
L -2 0 
" id="m73447ed9cc" style="stroke:#000000;stroke-width:0.6;"/>
      </defs>
      <g>
       <use style="stroke:#000000;stroke-width:0.6;" x="51.378125" xlink:href="#m73447ed9cc" y="232.745683"/>
      </g>
     </g>
    </g>
    <g id="ytick_8">
     <g id="line2d_29">
      <g>
       <use style="stroke:#000000;stroke-width:0.6;" x="51.378125" xlink:href="#m73447ed9cc" y="225.087826"/>
      </g>
     </g>
    </g>
    <g id="ytick_9">
     <g id="line2d_30">
      <g>
       <use style="stroke:#000000;stroke-width:0.6;" x="51.378125" xlink:href="#m73447ed9cc" y="219.65449"/>
      </g>
     </g>
    </g>
    <g id="ytick_10">
     <g id="line2d_31">
      <g>
       <use style="stroke:#000000;stroke-width:0.6;" x="51.378125" xlink:href="#m73447ed9cc" y="215.440067"/>
      </g>
     </g>
    </g>
    <g id="ytick_11">
     <g id="line2d_32">
      <g>
       <use style="stroke:#000000;stroke-width:0.6;" x="51.378125" xlink:href="#m73447ed9cc" y="211.996633"/>
      </g>
     </g>
    </g>
    <g id="ytick_12">
     <g id="line2d_33">
      <g>
       <use style="stroke:#000000;stroke-width:0.6;" x="51.378125" xlink:href="#m73447ed9cc" y="209.085251"/>
      </g>
     </g>
    </g>
    <g id="ytick_13">
     <g id="line2d_34">
      <g>
       <use style="stroke:#000000;stroke-width:0.6;" x="51.378125" xlink:href="#m73447ed9cc" y="206.563298"/>
      </g>
     </g>
    </g>
    <g id="ytick_14">
     <g id="line2d_35">
      <g>
       <use style="stroke:#000000;stroke-width:0.6;" x="51.378125" xlink:href="#m73447ed9cc" y="204.338777"/>
      </g>
     </g>
    </g>
    <g id="ytick_15">
     <g id="line2d_36">
      <g>
       <use style="stroke:#000000;stroke-width:0.6;" x="51.378125" xlink:href="#m73447ed9cc" y="189.257683"/>
      </g>
     </g>
    </g>
    <g id="ytick_16">
     <g id="line2d_37">
      <g>
       <use style="stroke:#000000;stroke-width:0.6;" x="51.378125" xlink:href="#m73447ed9cc" y="181.599826"/>
      </g>
     </g>
    </g>
    <g id="ytick_17">
     <g id="line2d_38">
      <g>
       <use style="stroke:#000000;stroke-width:0.6;" x="51.378125" xlink:href="#m73447ed9cc" y="176.16649"/>
      </g>
     </g>
    </g>
    <g id="ytick_18">
     <g id="line2d_39">
      <g>
       <use style="stroke:#000000;stroke-width:0.6;" x="51.378125" xlink:href="#m73447ed9cc" y="171.952067"/>
      </g>
     </g>
    </g>
    <g id="ytick_19">
     <g id="line2d_40">
      <g>
       <use style="stroke:#000000;stroke-width:0.6;" x="51.378125" xlink:href="#m73447ed9cc" y="168.508633"/>
      </g>
     </g>
    </g>
    <g id="ytick_20">
     <g id="line2d_41">
      <g>
       <use style="stroke:#000000;stroke-width:0.6;" x="51.378125" xlink:href="#m73447ed9cc" y="165.597251"/>
      </g>
     </g>
    </g>
    <g id="ytick_21">
     <g id="line2d_42">
      <g>
       <use style="stroke:#000000;stroke-width:0.6;" x="51.378125" xlink:href="#m73447ed9cc" y="163.075298"/>
      </g>
     </g>
    </g>
    <g id="ytick_22">
     <g id="line2d_43">
      <g>
       <use style="stroke:#000000;stroke-width:0.6;" x="51.378125" xlink:href="#m73447ed9cc" y="160.850777"/>
      </g>
     </g>
    </g>
    <g id="ytick_23">
     <g id="line2d_44">
      <g>
       <use style="stroke:#000000;stroke-width:0.6;" x="51.378125" xlink:href="#m73447ed9cc" y="145.769683"/>
      </g>
     </g>
    </g>
    <g id="ytick_24">
     <g id="line2d_45">
      <g>
       <use style="stroke:#000000;stroke-width:0.6;" x="51.378125" xlink:href="#m73447ed9cc" y="138.111826"/>
      </g>
     </g>
    </g>
    <g id="ytick_25">
     <g id="line2d_46">
      <g>
       <use style="stroke:#000000;stroke-width:0.6;" x="51.378125" xlink:href="#m73447ed9cc" y="132.67849"/>
      </g>
     </g>
    </g>
    <g id="ytick_26">
     <g id="line2d_47">
      <g>
       <use style="stroke:#000000;stroke-width:0.6;" x="51.378125" xlink:href="#m73447ed9cc" y="128.464067"/>
      </g>
     </g>
    </g>
    <g id="ytick_27">
     <g id="line2d_48">
      <g>
       <use style="stroke:#000000;stroke-width:0.6;" x="51.378125" xlink:href="#m73447ed9cc" y="125.020633"/>
      </g>
     </g>
    </g>
    <g id="ytick_28">
     <g id="line2d_49">
      <g>
       <use style="stroke:#000000;stroke-width:0.6;" x="51.378125" xlink:href="#m73447ed9cc" y="122.109251"/>
      </g>
     </g>
    </g>
    <g id="ytick_29">
     <g id="line2d_50">
      <g>
       <use style="stroke:#000000;stroke-width:0.6;" x="51.378125" xlink:href="#m73447ed9cc" y="119.587298"/>
      </g>
     </g>
    </g>
    <g id="ytick_30">
     <g id="line2d_51">
      <g>
       <use style="stroke:#000000;stroke-width:0.6;" x="51.378125" xlink:href="#m73447ed9cc" y="117.362777"/>
      </g>
     </g>
    </g>
    <g id="ytick_31">
     <g id="line2d_52">
      <g>
       <use style="stroke:#000000;stroke-width:0.6;" x="51.378125" xlink:href="#m73447ed9cc" y="102.281683"/>
      </g>
     </g>
    </g>
    <g id="ytick_32">
     <g id="line2d_53">
      <g>
       <use style="stroke:#000000;stroke-width:0.6;" x="51.378125" xlink:href="#m73447ed9cc" y="94.623826"/>
      </g>
     </g>
    </g>
    <g id="ytick_33">
     <g id="line2d_54">
      <g>
       <use style="stroke:#000000;stroke-width:0.6;" x="51.378125" xlink:href="#m73447ed9cc" y="89.19049"/>
      </g>
     </g>
    </g>
    <g id="ytick_34">
     <g id="line2d_55">
      <g>
       <use style="stroke:#000000;stroke-width:0.6;" x="51.378125" xlink:href="#m73447ed9cc" y="84.976067"/>
      </g>
     </g>
    </g>
    <g id="ytick_35">
     <g id="line2d_56">
      <g>
       <use style="stroke:#000000;stroke-width:0.6;" x="51.378125" xlink:href="#m73447ed9cc" y="81.532633"/>
      </g>
     </g>
    </g>
    <g id="ytick_36">
     <g id="line2d_57">
      <g>
       <use style="stroke:#000000;stroke-width:0.6;" x="51.378125" xlink:href="#m73447ed9cc" y="78.621251"/>
      </g>
     </g>
    </g>
    <g id="ytick_37">
     <g id="line2d_58">
      <g>
       <use style="stroke:#000000;stroke-width:0.6;" x="51.378125" xlink:href="#m73447ed9cc" y="76.099298"/>
      </g>
     </g>
    </g>
    <g id="ytick_38">
     <g id="line2d_59">
      <g>
       <use style="stroke:#000000;stroke-width:0.6;" x="51.378125" xlink:href="#m73447ed9cc" y="73.874777"/>
      </g>
     </g>
    </g>
    <g id="ytick_39">
     <g id="line2d_60">
      <g>
       <use style="stroke:#000000;stroke-width:0.6;" x="51.378125" xlink:href="#m73447ed9cc" y="58.793683"/>
      </g>
     </g>
    </g>
    <g id="ytick_40">
     <g id="line2d_61">
      <g>
       <use style="stroke:#000000;stroke-width:0.6;" x="51.378125" xlink:href="#m73447ed9cc" y="51.135826"/>
      </g>
     </g>
    </g>
    <g id="ytick_41">
     <g id="line2d_62">
      <g>
       <use style="stroke:#000000;stroke-width:0.6;" x="51.378125" xlink:href="#m73447ed9cc" y="45.70249"/>
      </g>
     </g>
    </g>
    <g id="ytick_42">
     <g id="line2d_63">
      <g>
       <use style="stroke:#000000;stroke-width:0.6;" x="51.378125" xlink:href="#m73447ed9cc" y="41.488067"/>
      </g>
     </g>
    </g>
    <g id="ytick_43">
     <g id="line2d_64">
      <g>
       <use style="stroke:#000000;stroke-width:0.6;" x="51.378125" xlink:href="#m73447ed9cc" y="38.044633"/>
      </g>
     </g>
    </g>
    <g id="ytick_44">
     <g id="line2d_65">
      <g>
       <use style="stroke:#000000;stroke-width:0.6;" x="51.378125" xlink:href="#m73447ed9cc" y="35.133251"/>
      </g>
     </g>
    </g>
    <g id="ytick_45">
     <g id="line2d_66">
      <g>
       <use style="stroke:#000000;stroke-width:0.6;" x="51.378125" xlink:href="#m73447ed9cc" y="32.611298"/>
      </g>
     </g>
    </g>
    <g id="ytick_46">
     <g id="line2d_67">
      <g>
       <use style="stroke:#000000;stroke-width:0.6;" x="51.378125" xlink:href="#m73447ed9cc" y="30.386777"/>
      </g>
     </g>
    </g>
    <g id="text_11">
     <!-- Log(Number of occurences) -->
     <defs>
      <path d="M 9.8125 72.90625 
L 23.09375 72.90625 
L 55.421875 11.921875 
L 55.421875 72.90625 
L 64.984375 72.90625 
L 64.984375 0 
L 51.703125 0 
L 19.390625 60.984375 
L 19.390625 0 
L 9.8125 0 
z
" id="DejaVuSans-4e"/>
      <path d="M 8.5 21.578125 
L 8.5 54.6875 
L 17.484375 54.6875 
L 17.484375 21.921875 
Q 17.484375 14.15625 20.5 10.265625 
Q 23.53125 6.390625 29.59375 6.390625 
Q 36.859375 6.390625 41.078125 11.03125 
Q 45.3125 15.671875 45.3125 23.6875 
L 45.3125 54.6875 
L 54.296875 54.6875 
L 54.296875 0 
L 45.3125 0 
L 45.3125 8.40625 
Q 42.046875 3.421875 37.71875 1 
Q 33.40625 -1.421875 27.6875 -1.421875 
Q 18.265625 -1.421875 13.375 4.4375 
Q 8.5 10.296875 8.5 21.578125 
z
M 31.109375 56 
z
" id="DejaVuSans-75"/>
      <path d="M 52 44.1875 
Q 55.375 50.25 60.0625 53.125 
Q 64.75 56 71.09375 56 
Q 79.640625 56 84.28125 50.015625 
Q 88.921875 44.046875 88.921875 33.015625 
L 88.921875 0 
L 79.890625 0 
L 79.890625 32.71875 
Q 79.890625 40.578125 77.09375 44.375 
Q 74.3125 48.1875 68.609375 48.1875 
Q 61.625 48.1875 57.5625 43.546875 
Q 53.515625 38.921875 53.515625 30.90625 
L 53.515625 0 
L 44.484375 0 
L 44.484375 32.71875 
Q 44.484375 40.625 41.703125 44.40625 
Q 38.921875 48.1875 33.109375 48.1875 
Q 26.21875 48.1875 22.15625 43.53125 
Q 18.109375 38.875 18.109375 30.90625 
L 18.109375 0 
L 9.078125 0 
L 9.078125 54.6875 
L 18.109375 54.6875 
L 18.109375 46.1875 
Q 21.1875 51.21875 25.484375 53.609375 
Q 29.78125 56 35.6875 56 
Q 41.65625 56 45.828125 52.96875 
Q 50 49.953125 52 44.1875 
z
" id="DejaVuSans-6d"/>
      <path d="M 48.6875 27.296875 
Q 48.6875 37.203125 44.609375 42.84375 
Q 40.53125 48.484375 33.40625 48.484375 
Q 26.265625 48.484375 22.1875 42.84375 
Q 18.109375 37.203125 18.109375 27.296875 
Q 18.109375 17.390625 22.1875 11.75 
Q 26.265625 6.109375 33.40625 6.109375 
Q 40.53125 6.109375 44.609375 11.75 
Q 48.6875 17.390625 48.6875 27.296875 
z
M 18.109375 46.390625 
Q 20.953125 51.265625 25.265625 53.625 
Q 29.59375 56 35.59375 56 
Q 45.5625 56 51.78125 48.09375 
Q 58.015625 40.1875 58.015625 27.296875 
Q 58.015625 14.40625 51.78125 6.484375 
Q 45.5625 -1.421875 35.59375 -1.421875 
Q 29.59375 -1.421875 25.265625 0.953125 
Q 20.953125 3.328125 18.109375 8.203125 
L 18.109375 0 
L 9.078125 0 
L 9.078125 75.984375 
L 18.109375 75.984375 
z
" id="DejaVuSans-62"/>
      <path id="DejaVuSans-20"/>
      <path d="M 37.109375 75.984375 
L 37.109375 68.5 
L 28.515625 68.5 
Q 23.6875 68.5 21.796875 66.546875 
Q 19.921875 64.59375 19.921875 59.515625 
L 19.921875 54.6875 
L 34.71875 54.6875 
L 34.71875 47.703125 
L 19.921875 47.703125 
L 19.921875 0 
L 10.890625 0 
L 10.890625 47.703125 
L 2.296875 47.703125 
L 2.296875 54.6875 
L 10.890625 54.6875 
L 10.890625 58.5 
Q 10.890625 67.625 15.140625 71.796875 
Q 19.390625 75.984375 28.609375 75.984375 
z
" id="DejaVuSans-66"/>
      <path d="M 48.78125 52.59375 
L 48.78125 44.1875 
Q 44.96875 46.296875 41.140625 47.34375 
Q 37.3125 48.390625 33.40625 48.390625 
Q 24.65625 48.390625 19.8125 42.84375 
Q 14.984375 37.3125 14.984375 27.296875 
Q 14.984375 17.28125 19.8125 11.734375 
Q 24.65625 6.203125 33.40625 6.203125 
Q 37.3125 6.203125 41.140625 7.25 
Q 44.96875 8.296875 48.78125 10.40625 
L 48.78125 2.09375 
Q 45.015625 0.34375 40.984375 -0.53125 
Q 36.96875 -1.421875 32.421875 -1.421875 
Q 20.0625 -1.421875 12.78125 6.34375 
Q 5.515625 14.109375 5.515625 27.296875 
Q 5.515625 40.671875 12.859375 48.328125 
Q 20.21875 56 33.015625 56 
Q 37.15625 56 41.109375 55.140625 
Q 45.0625 54.296875 48.78125 52.59375 
z
" id="DejaVuSans-63"/>
      <path d="M 54.890625 33.015625 
L 54.890625 0 
L 45.90625 0 
L 45.90625 32.71875 
Q 45.90625 40.484375 42.875 44.328125 
Q 39.84375 48.1875 33.796875 48.1875 
Q 26.515625 48.1875 22.3125 43.546875 
Q 18.109375 38.921875 18.109375 30.90625 
L 18.109375 0 
L 9.078125 0 
L 9.078125 54.6875 
L 18.109375 54.6875 
L 18.109375 46.1875 
Q 21.34375 51.125 25.703125 53.5625 
Q 30.078125 56 35.796875 56 
Q 45.21875 56 50.046875 50.171875 
Q 54.890625 44.34375 54.890625 33.015625 
z
" id="DejaVuSans-6e"/>
      <path d="M 44.28125 53.078125 
L 44.28125 44.578125 
Q 40.484375 46.53125 36.375 47.5 
Q 32.28125 48.484375 27.875 48.484375 
Q 21.1875 48.484375 17.84375 46.4375 
Q 14.5 44.390625 14.5 40.28125 
Q 14.5 37.15625 16.890625 35.375 
Q 19.28125 33.59375 26.515625 31.984375 
L 29.59375 31.296875 
Q 39.15625 29.25 43.1875 25.515625 
Q 47.21875 21.78125 47.21875 15.09375 
Q 47.21875 7.46875 41.1875 3.015625 
Q 35.15625 -1.421875 24.609375 -1.421875 
Q 20.21875 -1.421875 15.453125 -0.5625 
Q 10.6875 0.296875 5.421875 2 
L 5.421875 11.28125 
Q 10.40625 8.6875 15.234375 7.390625 
Q 20.0625 6.109375 24.8125 6.109375 
Q 31.15625 6.109375 34.5625 8.28125 
Q 37.984375 10.453125 37.984375 14.40625 
Q 37.984375 18.0625 35.515625 20.015625 
Q 33.0625 21.96875 24.703125 23.78125 
L 21.578125 24.515625 
Q 13.234375 26.265625 9.515625 29.90625 
Q 5.8125 33.546875 5.8125 39.890625 
Q 5.8125 47.609375 11.28125 51.796875 
Q 16.75 56 26.8125 56 
Q 31.78125 56 36.171875 55.265625 
Q 40.578125 54.546875 44.28125 53.078125 
z
" id="DejaVuSans-73"/>
     </defs>
     <g transform="translate(14.798438 206.577031)rotate(-90)scale(0.1 -0.1)">
      <use xlink:href="#DejaVuSans-4c"/>
      <use x="55.697266" xlink:href="#DejaVuSans-6f"/>
      <use x="116.878906" xlink:href="#DejaVuSans-67"/>
      <use x="180.355469" xlink:href="#DejaVuSans-28"/>
      <use x="219.369141" xlink:href="#DejaVuSans-4e"/>
      <use x="294.173828" xlink:href="#DejaVuSans-75"/>
      <use x="357.552734" xlink:href="#DejaVuSans-6d"/>
      <use x="454.964844" xlink:href="#DejaVuSans-62"/>
      <use x="518.441406" xlink:href="#DejaVuSans-65"/>
      <use x="579.964844" xlink:href="#DejaVuSans-72"/>
      <use x="621.078125" xlink:href="#DejaVuSans-20"/>
      <use x="652.865234" xlink:href="#DejaVuSans-6f"/>
      <use x="714.046875" xlink:href="#DejaVuSans-66"/>
      <use x="749.251953" xlink:href="#DejaVuSans-20"/>
      <use x="781.039062" xlink:href="#DejaVuSans-6f"/>
      <use x="842.220703" xlink:href="#DejaVuSans-63"/>
      <use x="897.201172" xlink:href="#DejaVuSans-63"/>
      <use x="952.181641" xlink:href="#DejaVuSans-75"/>
      <use x="1015.560547" xlink:href="#DejaVuSans-72"/>
      <use x="1056.642578" xlink:href="#DejaVuSans-65"/>
      <use x="1118.166016" xlink:href="#DejaVuSans-6e"/>
      <use x="1181.544922" xlink:href="#DejaVuSans-63"/>
      <use x="1236.525391" xlink:href="#DejaVuSans-65"/>
      <use x="1298.048828" xlink:href="#DejaVuSans-73"/>
      <use x="1350.148438" xlink:href="#DejaVuSans-29"/>
     </g>
    </g>
   </g>
   <g id="line2d_68">
    <defs>
     <path d="M 0 1.5 
C 0.397805 1.5 0.77937 1.341951 1.06066 1.06066 
C 1.341951 0.77937 1.5 0.397805 1.5 0 
C 1.5 -0.397805 1.341951 -0.77937 1.06066 -1.06066 
C 0.77937 -1.341951 0.397805 -1.5 0 -1.5 
C -0.397805 -1.5 -0.77937 -1.341951 -1.06066 -1.06066 
C -1.341951 -0.77937 -1.5 -0.397805 -1.5 0 
C -1.5 0.397805 -1.341951 0.77937 -1.06066 1.06066 
C -0.77937 1.341951 -0.397805 1.5 0 1.5 
z
" id="m69b870b50a" style="stroke:#55638a;"/>
    </defs>
    <g clip-path="url(#p66660dcc01)">
     <use style="fill:#55638a;stroke:#55638a;" x="76.741761" xlink:href="#m69b870b50a" y="177.32629"/>
     <use style="fill:#55638a;stroke:#55638a;" x="153.776783" xlink:href="#m69b870b50a" y="150.372917"/>
     <use style="fill:#55638a;stroke:#55638a;" x="198.839382" xlink:href="#m69b870b50a" y="38.789327"/>
     <use style="fill:#55638a;stroke:#55638a;" x="230.811804" xlink:href="#m69b870b50a" y="111.4809"/>
     <use style="fill:#55638a;stroke:#55638a;" x="255.611542" xlink:href="#m69b870b50a" y="98.976903"/>
     <use style="fill:#55638a;stroke:#55638a;" x="275.874403" xlink:href="#m69b870b50a" y="64.557497"/>
     <use style="fill:#55638a;stroke:#55638a;" x="293.006408" xlink:href="#m69b870b50a" y="112.469953"/>
     <use style="fill:#55638a;stroke:#55638a;" x="307.846826" xlink:href="#m69b870b50a" y="108.874818"/>
     <use style="fill:#55638a;stroke:#55638a;" x="320.937002" xlink:href="#m69b870b50a" y="82.400904"/>
     <use style="fill:#55638a;stroke:#55638a;" x="332.646563" xlink:href="#m69b870b50a" y="131.754191"/>
     <use style="fill:#55638a;stroke:#55638a;" x="343.23915" xlink:href="#m69b870b50a" y="125.159288"/>
     <use style="fill:#55638a;stroke:#55638a;" x="352.909424" xlink:href="#m69b870b50a" y="91.518906"/>
     <use style="fill:#55638a;stroke:#55638a;" x="361.805214" xlink:href="#m69b870b50a" y="142.464903"/>
     <use style="fill:#55638a;stroke:#55638a;" x="370.041429" xlink:href="#m69b870b50a" y="128.170335"/>
     <use style="fill:#55638a;stroke:#55638a;" x="377.709162" xlink:href="#m69b870b50a" y="102.520002"/>
     <use style="fill:#55638a;stroke:#55638a;" x="384.881847" xlink:href="#m69b870b50a" y="136.181223"/>
     <use style="fill:#55638a;stroke:#55638a;" x="391.619549" xlink:href="#m69b870b50a" y="135.481639"/>
     <use style="fill:#55638a;stroke:#55638a;" x="397.972023" xlink:href="#m69b870b50a" y="107.973335"/>
     <use style="fill:#55638a;stroke:#55638a;" x="403.980948" xlink:href="#m69b870b50a" y="157.656769"/>
     <use style="fill:#55638a;stroke:#55638a;" x="409.681585" xlink:href="#m69b870b50a" y="137.281724"/>
     <use style="fill:#55638a;stroke:#55638a;" x="415.104028" xlink:href="#m69b870b50a" y="118.383192"/>
     <use style="fill:#55638a;stroke:#55638a;" x="420.274172" xlink:href="#m69b870b50a" y="149.632171"/>
     <use style="fill:#55638a;stroke:#55638a;" x="425.214454" xlink:href="#m69b870b50a" y="137.281724"/>
     <use style="fill:#55638a;stroke:#55638a;" x="429.944446" xlink:href="#m69b870b50a" y="122.390447"/>
     <use style="fill:#55638a;stroke:#55638a;" x="434.481322" xlink:href="#m69b870b50a" y="153.665859"/>
     <use style="fill:#55638a;stroke:#55638a;" x="438.840236" xlink:href="#m69b870b50a" y="141.029787"/>
     <use style="fill:#55638a;stroke:#55638a;" x="443.034622" xlink:href="#m69b870b50a" y="128.642525"/>
     <use style="fill:#55638a;stroke:#55638a;" x="447.076451" xlink:href="#m69b870b50a" y="155.556095"/>
     <use style="fill:#55638a;stroke:#55638a;" x="450.976431" xlink:href="#m69b870b50a" y="146.929483"/>
     <use style="fill:#55638a;stroke:#55638a;" x="454.744183" xlink:href="#m69b870b50a" y="134.478575"/>
     <use style="fill:#55638a;stroke:#55638a;" x="458.38838" xlink:href="#m69b870b50a" y="165.878447"/>
     <use style="fill:#55638a;stroke:#55638a;" x="461.916868" xlink:href="#m69b870b50a" y="148.232523"/>
     <use style="fill:#55638a;stroke:#55638a;" x="465.33677" xlink:href="#m69b870b50a" y="140.574667"/>
     <use style="fill:#55638a;stroke:#55638a;" x="468.65457" xlink:href="#m69b870b50a" y="164.235098"/>
     <use style="fill:#55638a;stroke:#55638a;" x="471.876188" xlink:href="#m69b870b50a" y="155.556095"/>
     <use style="fill:#55638a;stroke:#55638a;" x="475.007045" xlink:href="#m69b870b50a" y="147.569768"/>
     <use style="fill:#55638a;stroke:#55638a;" x="478.052113" xlink:href="#m69b870b50a" y="154.587339"/>
     <use style="fill:#55638a;stroke:#55638a;" x="481.01597" xlink:href="#m69b870b50a" y="162.723363"/>
     <use style="fill:#55638a;stroke:#55638a;" x="483.902834" xlink:href="#m69b870b50a" y="160.020675"/>
     <use style="fill:#55638a;stroke:#55638a;" x="486.716606" xlink:href="#m69b870b50a" y="171.892954"/>
     <use style="fill:#55638a;stroke:#55638a;" x="489.460895" xlink:href="#m69b870b50a" y="174.414908"/>
     <use style="fill:#55638a;stroke:#55638a;" x="492.13905" xlink:href="#m69b870b50a" y="156.577241"/>
     <use style="fill:#55638a;stroke:#55638a;" x="494.754183" xlink:href="#m69b870b50a" y="165.878447"/>
     <use style="fill:#55638a;stroke:#55638a;" x="497.309193" xlink:href="#m69b870b50a" y="171.892954"/>
     <use style="fill:#55638a;stroke:#55638a;" x="499.806782" xlink:href="#m69b870b50a" y="164.235098"/>
     <use style="fill:#55638a;stroke:#55638a;" x="502.249475" xlink:href="#m69b870b50a" y="190.417483"/>
     <use style="fill:#55638a;stroke:#55638a;" x="504.639633" xlink:href="#m69b870b50a" y="180.769724"/>
     <use style="fill:#55638a;stroke:#55638a;" x="506.979467" xlink:href="#m69b870b50a" y="174.414908"/>
     <use style="fill:#55638a;stroke:#55638a;" x="509.271054" xlink:href="#m69b870b50a" y="184.984147"/>
     <use style="fill:#55638a;stroke:#55638a;" x="511.516344" xlink:href="#m69b870b50a" y="184.984147"/>
     <use style="fill:#55638a;stroke:#55638a;" x="513.717169" xlink:href="#m69b870b50a" y="190.417483"/>
     <use style="fill:#55638a;stroke:#55638a;" x="515.875257" xlink:href="#m69b870b50a" y="190.417483"/>
     <use style="fill:#55638a;stroke:#55638a;" x="517.992236" xlink:href="#m69b870b50a" y="190.417483"/>
     <use style="fill:#55638a;stroke:#55638a;" x="520.069643" xlink:href="#m69b870b50a" y="180.769724"/>
     <use style="fill:#55638a;stroke:#55638a;" x="522.108931" xlink:href="#m69b870b50a" y="180.769724"/>
     <use style="fill:#55638a;stroke:#55638a;" x="524.111472" xlink:href="#m69b870b50a" y="198.075339"/>
     <use style="fill:#55638a;stroke:#55638a;" x="526.078569" xlink:href="#m69b870b50a" y="198.075339"/>
     <use style="fill:#55638a;stroke:#55638a;" x="528.011453" xlink:href="#m69b870b50a" y="198.075339"/>
     <use style="fill:#55638a;stroke:#55638a;" x="529.911295" xlink:href="#m69b870b50a" y="198.075339"/>
     <use style="fill:#55638a;stroke:#55638a;" x="531.779205" xlink:href="#m69b870b50a" y="190.417483"/>
     <use style="fill:#55638a;stroke:#55638a;" x="533.616239" xlink:href="#m69b870b50a" y="190.417483"/>
     <use style="fill:#55638a;stroke:#55638a;" x="535.423402" xlink:href="#m69b870b50a" y="184.984147"/>
     <use style="fill:#55638a;stroke:#55638a;" x="537.201648" xlink:href="#m69b870b50a" y="190.417483"/>
     <use style="fill:#55638a;stroke:#55638a;" x="538.95189" xlink:href="#m69b870b50a" y="211.166532"/>
     <use style="fill:#55638a;stroke:#55638a;" x="540.674995" xlink:href="#m69b870b50a" y="198.075339"/>
     <use style="fill:#55638a;stroke:#55638a;" x="542.371792" xlink:href="#m69b870b50a" y="211.166532"/>
     <use style="fill:#55638a;stroke:#55638a;" x="543.151145" xlink:href="#m69b870b50a" y="20405.305"/>
     <use style="fill:#55638a;stroke:#55638a;" x="548.165499" xlink:href="#m69b870b50a" y="20405.305"/>
     <use style="fill:#55638a;stroke:#55638a;" x="548.91121" xlink:href="#m69b870b50a" y="211.166532"/>
     <use style="fill:#55638a;stroke:#55638a;" x="549.646343" xlink:href="#m69b870b50a" y="20405.305"/>
     <use style="fill:#55638a;stroke:#55638a;" x="552.860176" xlink:href="#m69b870b50a" y="20405.305"/>
     <use style="fill:#55638a;stroke:#55638a;" x="553.575029" xlink:href="#m69b870b50a" y="211.166532"/>
     <use style="fill:#55638a;stroke:#55638a;" x="555.087134" xlink:href="#m69b870b50a" y="211.166532"/>
     <use style="fill:#55638a;stroke:#55638a;" x="555.782796" xlink:href="#m69b870b50a" y="20405.305"/>
     <use style="fill:#55638a;stroke:#55638a;" x="557.364544" xlink:href="#m69b870b50a" y="20405.305"/>
     <use style="fill:#55638a;stroke:#55638a;" x="558.050991" xlink:href="#m69b870b50a" y="211.166532"/>
     <use style="fill:#55638a;stroke:#55638a;" x="558.728465" xlink:href="#m69b870b50a" y="20405.305"/>
     <use style="fill:#55638a;stroke:#55638a;" x="578.718086" xlink:href="#m69b870b50a" y="20405.305"/>
     <use style="fill:#55638a;stroke:#55638a;" x="579.284496" xlink:href="#m69b870b50a" y="211.166532"/>
     <use style="fill:#55638a;stroke:#55638a;" x="579.844783" xlink:href="#m69b870b50a" y="20405.305"/>
     <use style="fill:#55638a;stroke:#55638a;" x="582.3023" xlink:href="#m69b870b50a" y="20405.305"/>
     <use style="fill:#55638a;stroke:#55638a;" x="582.850729" xlink:href="#m69b870b50a" y="211.166532"/>
    </g>
   </g>
   <g id="line2d_69">
    <path clip-path="url(#p66660dcc01)" d="M 76.741761 117.592992 
L 153.776783 95.010875 
L 198.839382 80.086615 
L 230.811804 70.59569 
L 255.611542 65.319188 
L 275.874403 63.48612 
L 293.006408 64.564434 
L 307.846826 68.164702 
L 320.937002 73.989491 
L 332.646563 81.804181 
L 343.23915 91.418957 
L 352.909424 102.677082 
L 361.805214 115.446941 
L 370.041429 129.616447 
L 377.709162 145.088994 
L 384.881847 161.780455 
L 391.619549 179.616908 
L 397.972023 198.532889 
L 403.980948 218.470016 
L 409.681585 239.375899 
L 415.104028 261.203262 
L 420.274172 283.90923 
L 420.375702 284.393125 
" style="fill:none;stroke:#000000;stroke-linecap:square;stroke-width:1.5;"/>
   </g>
   <g id="line2d_70">
    <path clip-path="url(#p66660dcc01)" d="M 76.741761 37.796741 
L 153.776783 63.979126 
L 198.839382 79.294839 
L 230.811804 90.161511 
L 255.611542 98.590356 
L 275.874403 105.477224 
L 293.006408 111.299988 
L 307.846826 116.343895 
L 320.937002 120.792937 
L 332.646563 124.772741 
L 343.23915 128.372911 
L 352.909424 131.659609 
L 361.805214 134.683078 
L 370.041429 137.482373 
L 377.709162 140.088454 
L 384.881847 142.52628 
L 391.619549 144.816266 
L 397.972023 146.975322 
L 403.980948 149.017614 
L 409.681585 150.955126 
L 415.104028 152.798086 
L 420.274172 154.555296 
L 425.214454 156.234381 
L 429.944446 157.841994 
L 434.481322 159.383971 
L 438.840236 160.865463 
L 443.034622 162.291036 
L 447.076451 163.664758 
L 450.976431 164.990269 
L 454.744183 166.270839 
L 458.38838 167.509415 
L 461.916868 168.708665 
L 465.33677 169.871009 
L 468.65457 170.998651 
L 471.876188 172.093603 
L 475.007045 173.157707 
L 478.052113 174.192654 
L 481.01597 175.199999 
L 483.902834 176.181176 
L 486.716606 177.137511 
L 489.460895 178.070229 
L 492.13905 178.980471 
L 494.754183 179.869293 
L 497.309193 180.737681 
L 499.806782 181.586552 
L 502.249475 182.416766 
L 504.639633 183.229124 
L 506.979467 184.024379 
L 509.271054 184.803235 
L 511.516344 185.566356 
L 513.717169 186.314364 
L 515.875257 187.047848 
L 517.992236 187.767359 
L 520.069643 188.47342 
L 522.108931 189.166526 
L 524.111472 189.847143 
L 526.078569 190.515712 
L 528.011453 191.172654 
L 529.911295 191.818365 
L 531.779205 192.453224 
L 533.616239 193.077588 
L 535.423402 193.6918 
L 537.201648 194.296184 
L 538.95189 194.89105 
L 540.674995 195.476693 
L 542.371792 196.053394 
L 544.043072 196.621423 
L 545.689592 197.181036 
L 547.312074 197.732479 
L 548.91121 198.275988 
L 550.487662 198.811787 
L 552.042066 199.340092 
L 553.575029 199.86111 
L 555.087134 200.375039 
L 556.578943 200.882069 
L 558.050991 201.382384 
L 559.503797 201.876158 
L 560.937856 202.363561 
L 562.353646 202.844755 
L 563.751628 203.319895 
L 565.132242 203.789134 
L 566.495916 204.252614 
L 567.84306 204.710477 
L 569.174071 205.162856 
L 570.489329 205.609881 
L 571.789204 206.051678 
L 573.074052 206.488367 
L 574.344214 206.920066 
L 575.600025 207.346886 
L 576.841804 207.768937 
L 578.069861 208.186325 
L 579.284496 208.599151 
L 580.486 209.007514 
L 581.674654 209.411509 
L 582.850729 209.811229 
L 584.014489 210.206764 
" style="fill:none;stroke:#ff0000;stroke-linecap:square;stroke-width:1.5;"/>
   </g>
   <g id="patch_3">
    <path d="M 51.378125 245.836875 
L 51.378125 28.396875 
" style="fill:none;stroke:#000000;stroke-linecap:square;stroke-linejoin:miter;stroke-width:0.8;"/>
   </g>
   <g id="patch_4">
    <path d="M 609.378125 245.836875 
L 609.378125 28.396875 
" style="fill:none;stroke:#000000;stroke-linecap:square;stroke-linejoin:miter;stroke-width:0.8;"/>
   </g>
   <g id="patch_5">
    <path d="M 51.378125 245.836875 
L 609.378125 245.836875 
" style="fill:none;stroke:#000000;stroke-linecap:square;stroke-linejoin:miter;stroke-width:0.8;"/>
   </g>
   <g id="patch_6">
    <path d="M 51.378125 28.396875 
L 609.378125 28.396875 
" style="fill:none;stroke:#000000;stroke-linecap:square;stroke-linejoin:miter;stroke-width:0.8;"/>
   </g>
   <g id="text_12">
    <!-- Log-Log Degree Distribution -->
    <defs>
     <path d="M 9.1875 72.90625 
L 27.984375 72.90625 
L 27.984375 14.203125 
L 60.984375 14.203125 
L 60.984375 0 
L 9.1875 0 
z
" id="DejaVuSans-Bold-4c"/>
     <path d="M 34.421875 43.5 
Q 28.609375 43.5 25.5625 39.328125 
Q 22.515625 35.15625 22.515625 27.296875 
Q 22.515625 19.4375 25.5625 15.25 
Q 28.609375 11.078125 34.421875 11.078125 
Q 40.140625 11.078125 43.15625 15.25 
Q 46.1875 19.4375 46.1875 27.296875 
Q 46.1875 35.15625 43.15625 39.328125 
Q 40.140625 43.5 34.421875 43.5 
z
M 34.421875 56 
Q 48.53125 56 56.46875 48.375 
Q 64.40625 40.765625 64.40625 27.296875 
Q 64.40625 13.8125 56.46875 6.1875 
Q 48.53125 -1.421875 34.421875 -1.421875 
Q 20.265625 -1.421875 12.28125 6.1875 
Q 4.296875 13.8125 4.296875 27.296875 
Q 4.296875 40.765625 12.28125 48.375 
Q 20.265625 56 34.421875 56 
z
" id="DejaVuSans-Bold-6f"/>
     <path d="M 45.609375 9.28125 
Q 42 4.5 37.640625 2.25 
Q 33.296875 0 27.59375 0 
Q 17.578125 0 11.03125 7.875 
Q 4.5 15.765625 4.5 27.984375 
Q 4.5 40.234375 11.03125 48.0625 
Q 17.578125 55.90625 27.59375 55.90625 
Q 33.296875 55.90625 37.640625 53.65625 
Q 42 51.421875 45.609375 46.578125 
L 45.609375 54.6875 
L 63.1875 54.6875 
L 63.1875 5.515625 
Q 63.1875 -7.671875 54.859375 -14.625 
Q 46.53125 -21.578125 30.71875 -21.578125 
Q 25.59375 -21.578125 20.796875 -20.796875 
Q 16.015625 -20.015625 11.1875 -18.40625 
L 11.1875 -4.78125 
Q 15.765625 -7.421875 20.15625 -8.71875 
Q 24.5625 -10.015625 29 -10.015625 
Q 37.59375 -10.015625 41.59375 -6.25 
Q 45.609375 -2.484375 45.609375 5.515625 
z
M 34.078125 43.3125 
Q 28.65625 43.3125 25.625 39.296875 
Q 22.609375 35.296875 22.609375 27.984375 
Q 22.609375 20.453125 25.53125 16.578125 
Q 28.46875 12.703125 34.078125 12.703125 
Q 39.546875 12.703125 42.578125 16.703125 
Q 45.609375 20.703125 45.609375 27.984375 
Q 45.609375 35.296875 42.578125 39.296875 
Q 39.546875 43.3125 34.078125 43.3125 
z
" id="DejaVuSans-Bold-67"/>
     <path d="M 5.421875 35.890625 
L 36.078125 35.890625 
L 36.078125 21.6875 
L 5.421875 21.6875 
z
" id="DejaVuSans-Bold-2d"/>
     <path id="DejaVuSans-Bold-20"/>
     <path d="M 27.984375 58.6875 
L 27.984375 14.203125 
L 34.71875 14.203125 
Q 46.234375 14.203125 52.3125 19.921875 
Q 58.40625 25.640625 58.40625 36.53125 
Q 58.40625 47.359375 52.34375 53.015625 
Q 46.296875 58.6875 34.71875 58.6875 
z
M 9.1875 72.90625 
L 29 72.90625 
Q 45.609375 72.90625 53.734375 70.53125 
Q 61.859375 68.171875 67.671875 62.5 
Q 72.796875 57.5625 75.28125 51.109375 
Q 77.78125 44.671875 77.78125 36.53125 
Q 77.78125 28.265625 75.28125 21.796875 
Q 72.796875 15.328125 67.671875 10.40625 
Q 61.8125 4.734375 53.609375 2.359375 
Q 45.40625 0 29 0 
L 9.1875 0 
z
" id="DejaVuSans-Bold-44"/>
     <path d="M 62.984375 27.484375 
L 62.984375 22.515625 
L 22.125 22.515625 
Q 22.75 16.359375 26.5625 13.28125 
Q 30.375 10.203125 37.203125 10.203125 
Q 42.71875 10.203125 48.5 11.84375 
Q 54.296875 13.484375 60.40625 16.796875 
L 60.40625 3.328125 
Q 54.203125 0.984375 48 -0.21875 
Q 41.796875 -1.421875 35.59375 -1.421875 
Q 20.75 -1.421875 12.515625 6.125 
Q 4.296875 13.671875 4.296875 27.296875 
Q 4.296875 40.671875 12.375 48.328125 
Q 20.453125 56 34.625 56 
Q 47.515625 56 55.25 48.234375 
Q 62.984375 40.484375 62.984375 27.484375 
z
M 45.015625 33.296875 
Q 45.015625 38.28125 42.109375 41.328125 
Q 39.203125 44.390625 34.515625 44.390625 
Q 29.4375 44.390625 26.265625 41.53125 
Q 23.09375 38.671875 22.3125 33.296875 
z
" id="DejaVuSans-Bold-65"/>
     <path d="M 49.03125 39.796875 
Q 46.734375 40.875 44.453125 41.375 
Q 42.1875 41.890625 39.890625 41.890625 
Q 33.15625 41.890625 29.515625 37.5625 
Q 25.875 33.25 25.875 25.203125 
L 25.875 0 
L 8.40625 0 
L 8.40625 54.6875 
L 25.875 54.6875 
L 25.875 45.703125 
Q 29.25 51.078125 33.609375 53.53125 
Q 37.984375 56 44.09375 56 
Q 44.96875 56 45.984375 55.921875 
Q 47.015625 55.859375 48.96875 55.609375 
z
" id="DejaVuSans-Bold-72"/>
     <path d="M 8.40625 54.6875 
L 25.875 54.6875 
L 25.875 0 
L 8.40625 0 
z
M 8.40625 75.984375 
L 25.875 75.984375 
L 25.875 61.71875 
L 8.40625 61.71875 
z
" id="DejaVuSans-Bold-69"/>
     <path d="M 51.125 52.984375 
L 51.125 39.703125 
Q 45.515625 42.046875 40.28125 43.21875 
Q 35.0625 44.390625 30.421875 44.390625 
Q 25.4375 44.390625 23.015625 43.140625 
Q 20.609375 41.890625 20.609375 39.3125 
Q 20.609375 37.203125 22.4375 36.078125 
Q 24.265625 34.96875 29 34.421875 
L 32.078125 33.984375 
Q 45.515625 32.28125 50.140625 28.375 
Q 54.78125 24.46875 54.78125 16.109375 
Q 54.78125 7.375 48.328125 2.96875 
Q 41.890625 -1.421875 29.109375 -1.421875 
Q 23.6875 -1.421875 17.890625 -0.5625 
Q 12.109375 0.296875 6 2 
L 6 15.28125 
Q 11.234375 12.75 16.71875 11.46875 
Q 22.21875 10.203125 27.875 10.203125 
Q 33.015625 10.203125 35.59375 11.609375 
Q 38.1875 13.03125 38.1875 15.828125 
Q 38.1875 18.171875 36.40625 19.3125 
Q 34.625 20.453125 29.296875 21.09375 
L 26.21875 21.484375 
Q 14.546875 22.953125 9.859375 26.90625 
Q 5.171875 30.859375 5.171875 38.921875 
Q 5.171875 47.609375 11.125 51.796875 
Q 17.09375 56 29.390625 56 
Q 34.234375 56 39.546875 55.265625 
Q 44.875 54.546875 51.125 52.984375 
z
" id="DejaVuSans-Bold-73"/>
     <path d="M 27.484375 70.21875 
L 27.484375 54.6875 
L 45.515625 54.6875 
L 45.515625 42.1875 
L 27.484375 42.1875 
L 27.484375 19 
Q 27.484375 15.1875 29 13.84375 
Q 30.515625 12.5 35.015625 12.5 
L 44 12.5 
L 44 0 
L 29 0 
Q 18.65625 0 14.328125 4.3125 
Q 10.015625 8.640625 10.015625 19 
L 10.015625 42.1875 
L 1.3125 42.1875 
L 1.3125 54.6875 
L 10.015625 54.6875 
L 10.015625 70.21875 
z
" id="DejaVuSans-Bold-74"/>
     <path d="M 37.5 11.28125 
Q 43.109375 11.28125 46.0625 15.375 
Q 49.03125 19.484375 49.03125 27.296875 
Q 49.03125 35.109375 46.0625 39.203125 
Q 43.109375 43.3125 37.5 43.3125 
Q 31.890625 43.3125 28.875 39.1875 
Q 25.875 35.0625 25.875 27.296875 
Q 25.875 19.53125 28.875 15.40625 
Q 31.890625 11.28125 37.5 11.28125 
z
M 25.875 46.6875 
Q 29.5 51.46875 33.890625 53.734375 
Q 38.28125 56 44 56 
Q 54.109375 56 60.59375 47.96875 
Q 67.09375 39.9375 67.09375 27.296875 
Q 67.09375 14.65625 60.59375 6.609375 
Q 54.109375 -1.421875 44 -1.421875 
Q 38.28125 -1.421875 33.890625 0.84375 
Q 29.5 3.125 25.875 7.90625 
L 25.875 0 
L 8.40625 0 
L 8.40625 75.984375 
L 25.875 75.984375 
z
" id="DejaVuSans-Bold-62"/>
     <path d="M 7.8125 21.296875 
L 7.8125 54.6875 
L 25.390625 54.6875 
L 25.390625 49.21875 
Q 25.390625 44.78125 25.34375 38.0625 
Q 25.296875 31.34375 25.296875 29.109375 
Q 25.296875 22.515625 25.640625 19.609375 
Q 25.984375 16.703125 26.8125 15.375 
Q 27.875 13.671875 29.609375 12.734375 
Q 31.34375 11.8125 33.59375 11.8125 
Q 39.0625 11.8125 42.1875 16.015625 
Q 45.3125 20.21875 45.3125 27.6875 
L 45.3125 54.6875 
L 62.796875 54.6875 
L 62.796875 0 
L 45.3125 0 
L 45.3125 7.90625 
Q 41.359375 3.125 36.9375 0.84375 
Q 32.515625 -1.421875 27.203125 -1.421875 
Q 17.71875 -1.421875 12.765625 4.390625 
Q 7.8125 10.203125 7.8125 21.296875 
z
" id="DejaVuSans-Bold-75"/>
     <path d="M 63.375 33.296875 
L 63.375 0 
L 45.796875 0 
L 45.796875 5.421875 
L 45.796875 25.484375 
Q 45.796875 32.5625 45.484375 35.25 
Q 45.171875 37.9375 44.390625 39.203125 
Q 43.359375 40.921875 41.59375 41.875 
Q 39.84375 42.828125 37.59375 42.828125 
Q 32.125 42.828125 29 38.59375 
Q 25.875 34.375 25.875 26.90625 
L 25.875 0 
L 8.40625 0 
L 8.40625 54.6875 
L 25.875 54.6875 
L 25.875 46.6875 
Q 29.828125 51.46875 34.265625 53.734375 
Q 38.71875 56 44.09375 56 
Q 53.5625 56 58.46875 50.1875 
Q 63.375 44.390625 63.375 33.296875 
z
" id="DejaVuSans-Bold-6e"/>
    </defs>
    <g transform="translate(170.432813 22.396875)scale(0.2 -0.2)">
     <use xlink:href="#DejaVuSans-Bold-4c"/>
     <use x="63.720703" xlink:href="#DejaVuSans-Bold-6f"/>
     <use x="132.421875" xlink:href="#DejaVuSans-Bold-67"/>
     <use x="204.003906" xlink:href="#DejaVuSans-Bold-2d"/>
     <use x="245.507812" xlink:href="#DejaVuSans-Bold-4c"/>
     <use x="309.228516" xlink:href="#DejaVuSans-Bold-6f"/>
     <use x="377.929688" xlink:href="#DejaVuSans-Bold-67"/>
     <use x="449.511719" xlink:href="#DejaVuSans-Bold-20"/>
     <use x="484.326172" xlink:href="#DejaVuSans-Bold-44"/>
     <use x="567.333984" xlink:href="#DejaVuSans-Bold-65"/>
     <use x="635.15625" xlink:href="#DejaVuSans-Bold-67"/>
     <use x="706.738281" xlink:href="#DejaVuSans-Bold-72"/>
     <use x="756.054688" xlink:href="#DejaVuSans-Bold-65"/>
     <use x="823.876953" xlink:href="#DejaVuSans-Bold-65"/>
     <use x="891.699219" xlink:href="#DejaVuSans-Bold-20"/>
     <use x="926.513672" xlink:href="#DejaVuSans-Bold-44"/>
     <use x="1009.521484" xlink:href="#DejaVuSans-Bold-69"/>
     <use x="1043.798828" xlink:href="#DejaVuSans-Bold-73"/>
     <use x="1103.320312" xlink:href="#DejaVuSans-Bold-74"/>
     <use x="1151.123047" xlink:href="#DejaVuSans-Bold-72"/>
     <use x="1200.439453" xlink:href="#DejaVuSans-Bold-69"/>
     <use x="1234.716797" xlink:href="#DejaVuSans-Bold-62"/>
     <use x="1306.298828" xlink:href="#DejaVuSans-Bold-75"/>
     <use x="1377.490234" xlink:href="#DejaVuSans-Bold-74"/>
     <use x="1425.292969" xlink:href="#DejaVuSans-Bold-69"/>
     <use x="1459.570312" xlink:href="#DejaVuSans-Bold-6f"/>
     <use x="1528.271484" xlink:href="#DejaVuSans-Bold-6e"/>
    </g>
   </g>
   <g id="legend_1">
    <g id="patch_7">
     <path d="M 341.978125 80.453125 
L 602.378125 80.453125 
Q 604.378125 80.453125 604.378125 78.453125 
L 604.378125 35.396875 
Q 604.378125 33.396875 602.378125 33.396875 
L 341.978125 33.396875 
Q 339.978125 33.396875 339.978125 35.396875 
L 339.978125 78.453125 
Q 339.978125 80.453125 341.978125 80.453125 
z
" style="fill:#ffffff;opacity:0.8;stroke:#cccccc;stroke-linejoin:miter;"/>
    </g>
    <g id="line2d_71"/>
    <g id="line2d_72">
     <g>
      <use style="fill:#55638a;stroke:#55638a;" x="353.978125" xlink:href="#m69b870b50a" y="41.495312"/>
     </g>
    </g>
    <g id="text_13">
     <!-- Observations -->
     <defs>
      <path d="M 39.40625 66.21875 
Q 28.65625 66.21875 22.328125 58.203125 
Q 16.015625 50.203125 16.015625 36.375 
Q 16.015625 22.609375 22.328125 14.59375 
Q 28.65625 6.59375 39.40625 6.59375 
Q 50.140625 6.59375 56.421875 14.59375 
Q 62.703125 22.609375 62.703125 36.375 
Q 62.703125 50.203125 56.421875 58.203125 
Q 50.140625 66.21875 39.40625 66.21875 
z
M 39.40625 74.21875 
Q 54.734375 74.21875 63.90625 63.9375 
Q 73.09375 53.65625 73.09375 36.375 
Q 73.09375 19.140625 63.90625 8.859375 
Q 54.734375 -1.421875 39.40625 -1.421875 
Q 24.03125 -1.421875 14.8125 8.828125 
Q 5.609375 19.09375 5.609375 36.375 
Q 5.609375 53.65625 14.8125 63.9375 
Q 24.03125 74.21875 39.40625 74.21875 
z
" id="DejaVuSans-4f"/>
      <path d="M 2.984375 54.6875 
L 12.5 54.6875 
L 29.59375 8.796875 
L 46.6875 54.6875 
L 56.203125 54.6875 
L 35.6875 0 
L 23.484375 0 
z
" id="DejaVuSans-76"/>
      <path d="M 34.28125 27.484375 
Q 23.390625 27.484375 19.1875 25 
Q 14.984375 22.515625 14.984375 16.5 
Q 14.984375 11.71875 18.140625 8.90625 
Q 21.296875 6.109375 26.703125 6.109375 
Q 34.1875 6.109375 38.703125 11.40625 
Q 43.21875 16.703125 43.21875 25.484375 
L 43.21875 27.484375 
z
M 52.203125 31.203125 
L 52.203125 0 
L 43.21875 0 
L 43.21875 8.296875 
Q 40.140625 3.328125 35.546875 0.953125 
Q 30.953125 -1.421875 24.3125 -1.421875 
Q 15.921875 -1.421875 10.953125 3.296875 
Q 6 8.015625 6 15.921875 
Q 6 25.140625 12.171875 29.828125 
Q 18.359375 34.515625 30.609375 34.515625 
L 43.21875 34.515625 
L 43.21875 35.40625 
Q 43.21875 41.609375 39.140625 45 
Q 35.0625 48.390625 27.6875 48.390625 
Q 23 48.390625 18.546875 47.265625 
Q 14.109375 46.140625 10.015625 43.890625 
L 10.015625 52.203125 
Q 14.9375 54.109375 19.578125 55.046875 
Q 24.21875 56 28.609375 56 
Q 40.484375 56 46.34375 49.84375 
Q 52.203125 43.703125 52.203125 31.203125 
z
" id="DejaVuSans-61"/>
      <path d="M 18.3125 70.21875 
L 18.3125 54.6875 
L 36.8125 54.6875 
L 36.8125 47.703125 
L 18.3125 47.703125 
L 18.3125 18.015625 
Q 18.3125 11.328125 20.140625 9.421875 
Q 21.96875 7.515625 27.59375 7.515625 
L 36.8125 7.515625 
L 36.8125 0 
L 27.59375 0 
Q 17.1875 0 13.234375 3.875 
Q 9.28125 7.765625 9.28125 18.015625 
L 9.28125 47.703125 
L 2.6875 47.703125 
L 2.6875 54.6875 
L 9.28125 54.6875 
L 9.28125 70.21875 
z
" id="DejaVuSans-74"/>
      <path d="M 9.421875 54.6875 
L 18.40625 54.6875 
L 18.40625 0 
L 9.421875 0 
z
M 9.421875 75.984375 
L 18.40625 75.984375 
L 18.40625 64.59375 
L 9.421875 64.59375 
z
" id="DejaVuSans-69"/>
     </defs>
     <g transform="translate(371.978125 44.995312)scale(0.1 -0.1)">
      <use xlink:href="#DejaVuSans-4f"/>
      <use x="78.710938" xlink:href="#DejaVuSans-62"/>
      <use x="142.1875" xlink:href="#DejaVuSans-73"/>
      <use x="194.287109" xlink:href="#DejaVuSans-65"/>
      <use x="255.810547" xlink:href="#DejaVuSans-72"/>
      <use x="296.923828" xlink:href="#DejaVuSans-76"/>
      <use x="356.103516" xlink:href="#DejaVuSans-61"/>
      <use x="417.382812" xlink:href="#DejaVuSans-74"/>
      <use x="456.591797" xlink:href="#DejaVuSans-69"/>
      <use x="484.375" xlink:href="#DejaVuSans-6f"/>
      <use x="545.556641" xlink:href="#DejaVuSans-6e"/>
      <use x="608.935547" xlink:href="#DejaVuSans-73"/>
     </g>
    </g>
    <g id="line2d_73">
     <path d="M 343.978125 56.173437 
L 363.978125 56.173437 
" style="fill:none;stroke:#000000;stroke-linecap:square;stroke-width:1.5;"/>
    </g>
    <g id="line2d_74"/>
    <g id="text_14">
     <!-- Random network degree distribution -->
     <defs>
      <path d="M 44.390625 34.1875 
Q 47.5625 33.109375 50.5625 29.59375 
Q 53.5625 26.078125 56.59375 19.921875 
L 66.609375 0 
L 56 0 
L 46.6875 18.703125 
Q 43.0625 26.03125 39.671875 28.421875 
Q 36.28125 30.8125 30.421875 30.8125 
L 19.671875 30.8125 
L 19.671875 0 
L 9.8125 0 
L 9.8125 72.90625 
L 32.078125 72.90625 
Q 44.578125 72.90625 50.734375 67.671875 
Q 56.890625 62.453125 56.890625 51.90625 
Q 56.890625 45.015625 53.6875 40.46875 
Q 50.484375 35.9375 44.390625 34.1875 
z
M 19.671875 64.796875 
L 19.671875 38.921875 
L 32.078125 38.921875 
Q 39.203125 38.921875 42.84375 42.21875 
Q 46.484375 45.515625 46.484375 51.90625 
Q 46.484375 58.296875 42.84375 61.546875 
Q 39.203125 64.796875 32.078125 64.796875 
z
" id="DejaVuSans-52"/>
      <path d="M 45.40625 46.390625 
L 45.40625 75.984375 
L 54.390625 75.984375 
L 54.390625 0 
L 45.40625 0 
L 45.40625 8.203125 
Q 42.578125 3.328125 38.25 0.953125 
Q 33.9375 -1.421875 27.875 -1.421875 
Q 17.96875 -1.421875 11.734375 6.484375 
Q 5.515625 14.40625 5.515625 27.296875 
Q 5.515625 40.1875 11.734375 48.09375 
Q 17.96875 56 27.875 56 
Q 33.9375 56 38.25 53.625 
Q 42.578125 51.265625 45.40625 46.390625 
z
M 14.796875 27.296875 
Q 14.796875 17.390625 18.875 11.75 
Q 22.953125 6.109375 30.078125 6.109375 
Q 37.203125 6.109375 41.296875 11.75 
Q 45.40625 17.390625 45.40625 27.296875 
Q 45.40625 37.203125 41.296875 42.84375 
Q 37.203125 48.484375 30.078125 48.484375 
Q 22.953125 48.484375 18.875 42.84375 
Q 14.796875 37.203125 14.796875 27.296875 
z
" id="DejaVuSans-64"/>
      <path d="M 4.203125 54.6875 
L 13.1875 54.6875 
L 24.421875 12.015625 
L 35.59375 54.6875 
L 46.1875 54.6875 
L 57.421875 12.015625 
L 68.609375 54.6875 
L 77.59375 54.6875 
L 63.28125 0 
L 52.6875 0 
L 40.921875 44.828125 
L 29.109375 0 
L 18.5 0 
z
" id="DejaVuSans-77"/>
      <path d="M 9.078125 75.984375 
L 18.109375 75.984375 
L 18.109375 31.109375 
L 44.921875 54.6875 
L 56.390625 54.6875 
L 27.390625 29.109375 
L 57.625 0 
L 45.90625 0 
L 18.109375 26.703125 
L 18.109375 0 
L 9.078125 0 
z
" id="DejaVuSans-6b"/>
     </defs>
     <g transform="translate(371.978125 59.673437)scale(0.1 -0.1)">
      <use xlink:href="#DejaVuSans-52"/>
      <use x="69.451172" xlink:href="#DejaVuSans-61"/>
      <use x="130.730469" xlink:href="#DejaVuSans-6e"/>
      <use x="194.109375" xlink:href="#DejaVuSans-64"/>
      <use x="257.585938" xlink:href="#DejaVuSans-6f"/>
      <use x="318.767578" xlink:href="#DejaVuSans-6d"/>
      <use x="416.179688" xlink:href="#DejaVuSans-20"/>
      <use x="447.966797" xlink:href="#DejaVuSans-6e"/>
      <use x="511.345703" xlink:href="#DejaVuSans-65"/>
      <use x="572.869141" xlink:href="#DejaVuSans-74"/>
      <use x="612.078125" xlink:href="#DejaVuSans-77"/>
      <use x="693.865234" xlink:href="#DejaVuSans-6f"/>
      <use x="755.046875" xlink:href="#DejaVuSans-72"/>
      <use x="796.160156" xlink:href="#DejaVuSans-6b"/>
      <use x="854.070312" xlink:href="#DejaVuSans-20"/>
      <use x="885.857422" xlink:href="#DejaVuSans-64"/>
      <use x="949.333984" xlink:href="#DejaVuSans-65"/>
      <use x="1010.857422" xlink:href="#DejaVuSans-67"/>
      <use x="1074.333984" xlink:href="#DejaVuSans-72"/>
      <use x="1115.416016" xlink:href="#DejaVuSans-65"/>
      <use x="1176.939453" xlink:href="#DejaVuSans-65"/>
      <use x="1238.462891" xlink:href="#DejaVuSans-20"/>
      <use x="1270.25" xlink:href="#DejaVuSans-64"/>
      <use x="1333.726562" xlink:href="#DejaVuSans-69"/>
      <use x="1361.509766" xlink:href="#DejaVuSans-73"/>
      <use x="1413.609375" xlink:href="#DejaVuSans-74"/>
      <use x="1452.818359" xlink:href="#DejaVuSans-72"/>
      <use x="1493.931641" xlink:href="#DejaVuSans-69"/>
      <use x="1521.714844" xlink:href="#DejaVuSans-62"/>
      <use x="1585.191406" xlink:href="#DejaVuSans-75"/>
      <use x="1648.570312" xlink:href="#DejaVuSans-74"/>
      <use x="1687.779297" xlink:href="#DejaVuSans-69"/>
      <use x="1715.5625" xlink:href="#DejaVuSans-6f"/>
      <use x="1776.744141" xlink:href="#DejaVuSans-6e"/>
     </g>
    </g>
    <g id="line2d_75">
     <path d="M 343.978125 70.853125 
L 363.978125 70.853125 
" style="fill:none;stroke:#ff0000;stroke-linecap:square;stroke-width:1.5;"/>
    </g>
    <g id="line2d_76"/>
    <g id="text_15">
     <!-- Scale-free network degree distribution ($\gamma = 2$) -->
     <defs>
      <path d="M 53.515625 70.515625 
L 53.515625 60.890625 
Q 47.90625 63.578125 42.921875 64.890625 
Q 37.9375 66.21875 33.296875 66.21875 
Q 25.25 66.21875 20.875 63.09375 
Q 16.5 59.96875 16.5 54.203125 
Q 16.5 49.359375 19.40625 46.890625 
Q 22.3125 44.4375 30.421875 42.921875 
L 36.375 41.703125 
Q 47.40625 39.59375 52.65625 34.296875 
Q 57.90625 29 57.90625 20.125 
Q 57.90625 9.515625 50.796875 4.046875 
Q 43.703125 -1.421875 29.984375 -1.421875 
Q 24.8125 -1.421875 18.96875 -0.25 
Q 13.140625 0.921875 6.890625 3.21875 
L 6.890625 13.375 
Q 12.890625 10.015625 18.65625 8.296875 
Q 24.421875 6.59375 29.984375 6.59375 
Q 38.421875 6.59375 43.015625 9.90625 
Q 47.609375 13.234375 47.609375 19.390625 
Q 47.609375 24.75 44.3125 27.78125 
Q 41.015625 30.8125 33.5 32.328125 
L 27.484375 33.5 
Q 16.453125 35.6875 11.515625 40.375 
Q 6.59375 45.0625 6.59375 53.421875 
Q 6.59375 63.09375 13.40625 68.65625 
Q 20.21875 74.21875 32.171875 74.21875 
Q 37.3125 74.21875 42.625 73.28125 
Q 47.953125 72.359375 53.515625 70.515625 
z
" id="DejaVuSans-53"/>
      <path d="M 9.421875 75.984375 
L 18.40625 75.984375 
L 18.40625 0 
L 9.421875 0 
z
" id="DejaVuSans-6c"/>
      <path d="M 4.890625 31.390625 
L 31.203125 31.390625 
L 31.203125 23.390625 
L 4.890625 23.390625 
z
" id="DejaVuSans-2d"/>
      <path d="M 23.296875 46.09375 
L 28.71875 12.3125 
L 54 54.6875 
L 63.53125 54.6875 
L 30.8125 0 
L 26.765625 -20.796875 
L 17.78125 -20.796875 
L 21.828125 0 
L 15.4375 40.828125 
Q 14.453125 46.96875 9.8125 46.96875 
L 7.421875 46.96875 
L 8.890625 54.6875 
L 12.3125 54.6875 
Q 21.921875 54.6875 23.296875 46.09375 
z
" id="DejaVuSans-Oblique-3b3"/>
      <path d="M 10.59375 45.40625 
L 73.1875 45.40625 
L 73.1875 37.203125 
L 10.59375 37.203125 
z
M 10.59375 25.484375 
L 73.1875 25.484375 
L 73.1875 17.1875 
L 10.59375 17.1875 
z
" id="DejaVuSans-3d"/>
     </defs>
     <g transform="translate(371.978125 74.353125)scale(0.1 -0.1)">
      <use transform="translate(0 0.015625)" xlink:href="#DejaVuSans-53"/>
      <use transform="translate(63.476562 0.015625)" xlink:href="#DejaVuSans-63"/>
      <use transform="translate(118.457031 0.015625)" xlink:href="#DejaVuSans-61"/>
      <use transform="translate(179.736328 0.015625)" xlink:href="#DejaVuSans-6c"/>
      <use transform="translate(207.519531 0.015625)" xlink:href="#DejaVuSans-65"/>
      <use transform="translate(269.042969 0.015625)" xlink:href="#DejaVuSans-2d"/>
      <use transform="translate(305.126953 0.015625)" xlink:href="#DejaVuSans-66"/>
      <use transform="translate(340.332031 0.015625)" xlink:href="#DejaVuSans-72"/>
      <use transform="translate(381.445312 0.015625)" xlink:href="#DejaVuSans-65"/>
      <use transform="translate(442.96875 0.015625)" xlink:href="#DejaVuSans-65"/>
      <use transform="translate(504.492188 0.015625)" xlink:href="#DejaVuSans-20"/>
      <use transform="translate(536.279297 0.015625)" xlink:href="#DejaVuSans-6e"/>
      <use transform="translate(599.658203 0.015625)" xlink:href="#DejaVuSans-65"/>
      <use transform="translate(661.181641 0.015625)" xlink:href="#DejaVuSans-74"/>
      <use transform="translate(700.390625 0.015625)" xlink:href="#DejaVuSans-77"/>
      <use transform="translate(782.177734 0.015625)" xlink:href="#DejaVuSans-6f"/>
      <use transform="translate(843.359375 0.015625)" xlink:href="#DejaVuSans-72"/>
      <use transform="translate(884.472656 0.015625)" xlink:href="#DejaVuSans-6b"/>
      <use transform="translate(942.382812 0.015625)" xlink:href="#DejaVuSans-20"/>
      <use transform="translate(974.169922 0.015625)" xlink:href="#DejaVuSans-64"/>
      <use transform="translate(1037.646484 0.015625)" xlink:href="#DejaVuSans-65"/>
      <use transform="translate(1099.169922 0.015625)" xlink:href="#DejaVuSans-67"/>
      <use transform="translate(1162.646484 0.015625)" xlink:href="#DejaVuSans-72"/>
      <use transform="translate(1203.759766 0.015625)" xlink:href="#DejaVuSans-65"/>
      <use transform="translate(1265.283203 0.015625)" xlink:href="#DejaVuSans-65"/>
      <use transform="translate(1326.806641 0.015625)" xlink:href="#DejaVuSans-20"/>
      <use transform="translate(1358.59375 0.015625)" xlink:href="#DejaVuSans-64"/>
      <use transform="translate(1422.070312 0.015625)" xlink:href="#DejaVuSans-69"/>
      <use transform="translate(1449.853516 0.015625)" xlink:href="#DejaVuSans-73"/>
      <use transform="translate(1501.953125 0.015625)" xlink:href="#DejaVuSans-74"/>
      <use transform="translate(1541.162109 0.015625)" xlink:href="#DejaVuSans-72"/>
      <use transform="translate(1582.275391 0.015625)" xlink:href="#DejaVuSans-69"/>
      <use transform="translate(1610.058594 0.015625)" xlink:href="#DejaVuSans-62"/>
      <use transform="translate(1673.535156 0.015625)" xlink:href="#DejaVuSans-75"/>
      <use transform="translate(1736.914062 0.015625)" xlink:href="#DejaVuSans-74"/>
      <use transform="translate(1776.123047 0.015625)" xlink:href="#DejaVuSans-69"/>
      <use transform="translate(1803.90625 0.015625)" xlink:href="#DejaVuSans-6f"/>
      <use transform="translate(1865.087891 0.015625)" xlink:href="#DejaVuSans-6e"/>
      <use transform="translate(1928.466797 0.015625)" xlink:href="#DejaVuSans-20"/>
      <use transform="translate(1960.253906 0.015625)" xlink:href="#DejaVuSans-28"/>
      <use transform="translate(1999.267578 0.015625)" xlink:href="#DejaVuSans-Oblique-3b3"/>
      <use transform="translate(2077.929688 0.015625)" xlink:href="#DejaVuSans-3d"/>
      <use transform="translate(2181.201172 0.015625)" xlink:href="#DejaVuSans-32"/>
      <use transform="translate(2244.824219 0.015625)" xlink:href="#DejaVuSans-29"/>
     </g>
    </g>
   </g>
  </g>
 </g>
 <defs>
  <clipPath id="p66660dcc01">
   <rect height="217.44" width="558" x="51.378125" y="28.396875"/>
  </clipPath>
 </defs>
</svg>
