<?xml version="1.0" encoding="utf-8" standalone="no"?>
<!DOCTYPE svg PUBLIC "-//W3C//DTD SVG 1.1//EN"
  "http://www.w3.org/Graphics/SVG/1.1/DTD/svg11.dtd">
<!-- Created with matplotlib (http://matplotlib.org/) -->
<svg height="277.314375pt" version="1.1" viewBox="0 0 624.478125 277.314375" width="624.478125pt" xmlns="http://www.w3.org/2000/svg" xmlns:xlink="http://www.w3.org/1999/xlink">
 <defs>
  <style type="text/css">
*{stroke-linecap:butt;stroke-linejoin:round;}
  </style>
 </defs>
 <g id="figure_1">
  <g id="patch_1">
   <path d="M 0 277.314375 
L 624.478125 277.314375 
L 624.478125 0 
L 0 0 
z
" style="fill:#ffffff;"/>
  </g>
  <g id="axes_1">
   <g id="patch_2">
    <path d="M 55.778125 239.758125 
L 613.778125 239.758125 
L 613.778125 22.318125 
L 55.778125 22.318125 
z
" style="fill:#ffffff;"/>
   </g>
   <g id="matplotlib.axis_1">
    <g id="xtick_1">
     <g id="line2d_1">
      <defs>
       <path d="M 0 0 
L 0 3.5 
" id="m41dd412e52" style="stroke:#000000;stroke-width:0.8;"/>
      </defs>
      <g>
       <use style="stroke:#000000;stroke-width:0.8;" x="81.141761" xlink:href="#m41dd412e52" y="239.758125"/>
      </g>
     </g>
     <g id="text_1">
      <!-- $\mathdefault{10^{0}}$ -->
      <defs>
       <path d="M 12.40625 8.296875 
L 28.515625 8.296875 
L 28.515625 63.921875 
L 10.984375 60.40625 
L 10.984375 69.390625 
L 28.421875 72.90625 
L 38.28125 72.90625 
L 38.28125 8.296875 
L 54.390625 8.296875 
L 54.390625 0 
L 12.40625 0 
z
" id="DejaVuSans-31"/>
       <path d="M 31.78125 66.40625 
Q 24.171875 66.40625 20.328125 58.90625 
Q 16.5 51.421875 16.5 36.375 
Q 16.5 21.390625 20.328125 13.890625 
Q 24.171875 6.390625 31.78125 6.390625 
Q 39.453125 6.390625 43.28125 13.890625 
Q 47.125 21.390625 47.125 36.375 
Q 47.125 51.421875 43.28125 58.90625 
Q 39.453125 66.40625 31.78125 66.40625 
z
M 31.78125 74.21875 
Q 44.046875 74.21875 50.515625 64.515625 
Q 56.984375 54.828125 56.984375 36.375 
Q 56.984375 17.96875 50.515625 8.265625 
Q 44.046875 -1.421875 31.78125 -1.421875 
Q 19.53125 -1.421875 13.0625 8.265625 
Q 6.59375 17.96875 6.59375 36.375 
Q 6.59375 54.828125 13.0625 64.515625 
Q 19.53125 74.21875 31.78125 74.21875 
z
" id="DejaVuSans-30"/>
      </defs>
      <g transform="translate(72.341761 254.356562)scale(0.1 -0.1)">
       <use transform="translate(0 0.765625)" xlink:href="#DejaVuSans-31"/>
       <use transform="translate(63.623047 0.765625)" xlink:href="#DejaVuSans-30"/>
       <use transform="translate(128.203125 39.046875)scale(0.7)" xlink:href="#DejaVuSans-30"/>
      </g>
     </g>
    </g>
    <g id="xtick_2">
     <g id="line2d_2">
      <g>
       <use style="stroke:#000000;stroke-width:0.8;" x="342.019749" xlink:href="#m41dd412e52" y="239.758125"/>
      </g>
     </g>
     <g id="text_2">
      <!-- $\mathdefault{10^{1}}$ -->
      <g transform="translate(333.219749 254.356562)scale(0.1 -0.1)">
       <use transform="translate(0 0.684375)" xlink:href="#DejaVuSans-31"/>
       <use transform="translate(63.623047 0.684375)" xlink:href="#DejaVuSans-30"/>
       <use transform="translate(128.203125 38.965625)scale(0.7)" xlink:href="#DejaVuSans-31"/>
      </g>
     </g>
    </g>
    <g id="xtick_3">
     <g id="line2d_3">
      <g>
       <use style="stroke:#000000;stroke-width:0.8;" x="602.897737" xlink:href="#m41dd412e52" y="239.758125"/>
      </g>
     </g>
     <g id="text_3">
      <!-- $\mathdefault{10^{2}}$ -->
      <defs>
       <path d="M 19.1875 8.296875 
L 53.609375 8.296875 
L 53.609375 0 
L 7.328125 0 
L 7.328125 8.296875 
Q 12.9375 14.109375 22.625 23.890625 
Q 32.328125 33.6875 34.8125 36.53125 
Q 39.546875 41.84375 41.421875 45.53125 
Q 43.3125 49.21875 43.3125 52.78125 
Q 43.3125 58.59375 39.234375 62.25 
Q 35.15625 65.921875 28.609375 65.921875 
Q 23.96875 65.921875 18.8125 64.3125 
Q 13.671875 62.703125 7.8125 59.421875 
L 7.8125 69.390625 
Q 13.765625 71.78125 18.9375 73 
Q 24.125 74.21875 28.421875 74.21875 
Q 39.75 74.21875 46.484375 68.546875 
Q 53.21875 62.890625 53.21875 53.421875 
Q 53.21875 48.921875 51.53125 44.890625 
Q 49.859375 40.875 45.40625 35.40625 
Q 44.1875 33.984375 37.640625 27.21875 
Q 31.109375 20.453125 19.1875 8.296875 
z
" id="DejaVuSans-32"/>
      </defs>
      <g transform="translate(594.097737 254.356562)scale(0.1 -0.1)">
       <use transform="translate(0 0.765625)" xlink:href="#DejaVuSans-31"/>
       <use transform="translate(63.623047 0.765625)" xlink:href="#DejaVuSans-30"/>
       <use transform="translate(128.203125 39.046875)scale(0.7)" xlink:href="#DejaVuSans-32"/>
      </g>
     </g>
    </g>
    <g id="xtick_4">
     <g id="line2d_4">
      <defs>
       <path d="M 0 0 
L 0 2 
" id="m8cda43e53f" style="stroke:#000000;stroke-width:0.6;"/>
      </defs>
      <g>
       <use style="stroke:#000000;stroke-width:0.6;" x="55.860072" xlink:href="#m8cda43e53f" y="239.758125"/>
      </g>
     </g>
    </g>
    <g id="xtick_5">
     <g id="line2d_5">
      <g>
       <use style="stroke:#000000;stroke-width:0.6;" x="69.204639" xlink:href="#m8cda43e53f" y="239.758125"/>
      </g>
     </g>
    </g>
    <g id="xtick_6">
     <g id="line2d_6">
      <g>
       <use style="stroke:#000000;stroke-width:0.6;" x="159.673861" xlink:href="#m8cda43e53f" y="239.758125"/>
      </g>
     </g>
    </g>
    <g id="xtick_7">
     <g id="line2d_7">
      <g>
       <use style="stroke:#000000;stroke-width:0.6;" x="205.612194" xlink:href="#m8cda43e53f" y="239.758125"/>
      </g>
     </g>
    </g>
    <g id="xtick_8">
     <g id="line2d_8">
      <g>
       <use style="stroke:#000000;stroke-width:0.6;" x="238.205961" xlink:href="#m8cda43e53f" y="239.758125"/>
      </g>
     </g>
    </g>
    <g id="xtick_9">
     <g id="line2d_9">
      <g>
       <use style="stroke:#000000;stroke-width:0.6;" x="263.48765" xlink:href="#m8cda43e53f" y="239.758125"/>
      </g>
     </g>
    </g>
    <g id="xtick_10">
     <g id="line2d_10">
      <g>
       <use style="stroke:#000000;stroke-width:0.6;" x="284.144294" xlink:href="#m8cda43e53f" y="239.758125"/>
      </g>
     </g>
    </g>
    <g id="xtick_11">
     <g id="line2d_11">
      <g>
       <use style="stroke:#000000;stroke-width:0.6;" x="301.609238" xlink:href="#m8cda43e53f" y="239.758125"/>
      </g>
     </g>
    </g>
    <g id="xtick_12">
     <g id="line2d_12">
      <g>
       <use style="stroke:#000000;stroke-width:0.6;" x="316.73806" xlink:href="#m8cda43e53f" y="239.758125"/>
      </g>
     </g>
    </g>
    <g id="xtick_13">
     <g id="line2d_13">
      <g>
       <use style="stroke:#000000;stroke-width:0.6;" x="330.082627" xlink:href="#m8cda43e53f" y="239.758125"/>
      </g>
     </g>
    </g>
    <g id="xtick_14">
     <g id="line2d_14">
      <g>
       <use style="stroke:#000000;stroke-width:0.6;" x="420.551849" xlink:href="#m8cda43e53f" y="239.758125"/>
      </g>
     </g>
    </g>
    <g id="xtick_15">
     <g id="line2d_15">
      <g>
       <use style="stroke:#000000;stroke-width:0.6;" x="466.490182" xlink:href="#m8cda43e53f" y="239.758125"/>
      </g>
     </g>
    </g>
    <g id="xtick_16">
     <g id="line2d_16">
      <g>
       <use style="stroke:#000000;stroke-width:0.6;" x="499.083949" xlink:href="#m8cda43e53f" y="239.758125"/>
      </g>
     </g>
    </g>
    <g id="xtick_17">
     <g id="line2d_17">
      <g>
       <use style="stroke:#000000;stroke-width:0.6;" x="524.365638" xlink:href="#m8cda43e53f" y="239.758125"/>
      </g>
     </g>
    </g>
    <g id="xtick_18">
     <g id="line2d_18">
      <g>
       <use style="stroke:#000000;stroke-width:0.6;" x="545.022282" xlink:href="#m8cda43e53f" y="239.758125"/>
      </g>
     </g>
    </g>
    <g id="xtick_19">
     <g id="line2d_19">
      <g>
       <use style="stroke:#000000;stroke-width:0.6;" x="562.487226" xlink:href="#m8cda43e53f" y="239.758125"/>
      </g>
     </g>
    </g>
    <g id="xtick_20">
     <g id="line2d_20">
      <g>
       <use style="stroke:#000000;stroke-width:0.6;" x="577.616048" xlink:href="#m8cda43e53f" y="239.758125"/>
      </g>
     </g>
    </g>
    <g id="xtick_21">
     <g id="line2d_21">
      <g>
       <use style="stroke:#000000;stroke-width:0.6;" x="590.960615" xlink:href="#m8cda43e53f" y="239.758125"/>
      </g>
     </g>
    </g>
    <g id="text_4">
     <!-- Log(Degree) -->
     <defs>
      <path d="M 9.8125 72.90625 
L 19.671875 72.90625 
L 19.671875 8.296875 
L 55.171875 8.296875 
L 55.171875 0 
L 9.8125 0 
z
" id="DejaVuSans-4c"/>
      <path d="M 30.609375 48.390625 
Q 23.390625 48.390625 19.1875 42.75 
Q 14.984375 37.109375 14.984375 27.296875 
Q 14.984375 17.484375 19.15625 11.84375 
Q 23.34375 6.203125 30.609375 6.203125 
Q 37.796875 6.203125 41.984375 11.859375 
Q 46.1875 17.53125 46.1875 27.296875 
Q 46.1875 37.015625 41.984375 42.703125 
Q 37.796875 48.390625 30.609375 48.390625 
z
M 30.609375 56 
Q 42.328125 56 49.015625 48.375 
Q 55.71875 40.765625 55.71875 27.296875 
Q 55.71875 13.875 49.015625 6.21875 
Q 42.328125 -1.421875 30.609375 -1.421875 
Q 18.84375 -1.421875 12.171875 6.21875 
Q 5.515625 13.875 5.515625 27.296875 
Q 5.515625 40.765625 12.171875 48.375 
Q 18.84375 56 30.609375 56 
z
" id="DejaVuSans-6f"/>
      <path d="M 45.40625 27.984375 
Q 45.40625 37.75 41.375 43.109375 
Q 37.359375 48.484375 30.078125 48.484375 
Q 22.859375 48.484375 18.828125 43.109375 
Q 14.796875 37.75 14.796875 27.984375 
Q 14.796875 18.265625 18.828125 12.890625 
Q 22.859375 7.515625 30.078125 7.515625 
Q 37.359375 7.515625 41.375 12.890625 
Q 45.40625 18.265625 45.40625 27.984375 
z
M 54.390625 6.78125 
Q 54.390625 -7.171875 48.1875 -13.984375 
Q 42 -20.796875 29.203125 -20.796875 
Q 24.46875 -20.796875 20.265625 -20.09375 
Q 16.0625 -19.390625 12.109375 -17.921875 
L 12.109375 -9.1875 
Q 16.0625 -11.328125 19.921875 -12.34375 
Q 23.78125 -13.375 27.78125 -13.375 
Q 36.625 -13.375 41.015625 -8.765625 
Q 45.40625 -4.15625 45.40625 5.171875 
L 45.40625 9.625 
Q 42.625 4.78125 38.28125 2.390625 
Q 33.9375 0 27.875 0 
Q 17.828125 0 11.671875 7.65625 
Q 5.515625 15.328125 5.515625 27.984375 
Q 5.515625 40.671875 11.671875 48.328125 
Q 17.828125 56 27.875 56 
Q 33.9375 56 38.28125 53.609375 
Q 42.625 51.21875 45.40625 46.390625 
L 45.40625 54.6875 
L 54.390625 54.6875 
z
" id="DejaVuSans-67"/>
      <path d="M 31 75.875 
Q 24.46875 64.65625 21.28125 53.65625 
Q 18.109375 42.671875 18.109375 31.390625 
Q 18.109375 20.125 21.3125 9.0625 
Q 24.515625 -2 31 -13.1875 
L 23.1875 -13.1875 
Q 15.875 -1.703125 12.234375 9.375 
Q 8.59375 20.453125 8.59375 31.390625 
Q 8.59375 42.28125 12.203125 53.3125 
Q 15.828125 64.359375 23.1875 75.875 
z
" id="DejaVuSans-28"/>
      <path d="M 19.671875 64.796875 
L 19.671875 8.109375 
L 31.59375 8.109375 
Q 46.6875 8.109375 53.6875 14.9375 
Q 60.6875 21.78125 60.6875 36.53125 
Q 60.6875 51.171875 53.6875 57.984375 
Q 46.6875 64.796875 31.59375 64.796875 
z
M 9.8125 72.90625 
L 30.078125 72.90625 
Q 51.265625 72.90625 61.171875 64.09375 
Q 71.09375 55.28125 71.09375 36.53125 
Q 71.09375 17.671875 61.125 8.828125 
Q 51.171875 0 30.078125 0 
L 9.8125 0 
z
" id="DejaVuSans-44"/>
      <path d="M 56.203125 29.59375 
L 56.203125 25.203125 
L 14.890625 25.203125 
Q 15.484375 15.921875 20.484375 11.0625 
Q 25.484375 6.203125 34.421875 6.203125 
Q 39.59375 6.203125 44.453125 7.46875 
Q 49.3125 8.734375 54.109375 11.28125 
L 54.109375 2.78125 
Q 49.265625 0.734375 44.1875 -0.34375 
Q 39.109375 -1.421875 33.890625 -1.421875 
Q 20.796875 -1.421875 13.15625 6.1875 
Q 5.515625 13.8125 5.515625 26.8125 
Q 5.515625 40.234375 12.765625 48.109375 
Q 20.015625 56 32.328125 56 
Q 43.359375 56 49.78125 48.890625 
Q 56.203125 41.796875 56.203125 29.59375 
z
M 47.21875 32.234375 
Q 47.125 39.59375 43.09375 43.984375 
Q 39.0625 48.390625 32.421875 48.390625 
Q 24.90625 48.390625 20.390625 44.140625 
Q 15.875 39.890625 15.1875 32.171875 
z
" id="DejaVuSans-65"/>
      <path d="M 41.109375 46.296875 
Q 39.59375 47.171875 37.8125 47.578125 
Q 36.03125 48 33.890625 48 
Q 26.265625 48 22.1875 43.046875 
Q 18.109375 38.09375 18.109375 28.8125 
L 18.109375 0 
L 9.078125 0 
L 9.078125 54.6875 
L 18.109375 54.6875 
L 18.109375 46.1875 
Q 20.953125 51.171875 25.484375 53.578125 
Q 30.03125 56 36.53125 56 
Q 37.453125 56 38.578125 55.875 
Q 39.703125 55.765625 41.0625 55.515625 
z
" id="DejaVuSans-72"/>
      <path d="M 8.015625 75.875 
L 15.828125 75.875 
Q 23.140625 64.359375 26.78125 53.3125 
Q 30.421875 42.28125 30.421875 31.390625 
Q 30.421875 20.453125 26.78125 9.375 
Q 23.140625 -1.703125 15.828125 -13.1875 
L 8.015625 -13.1875 
Q 14.5 -2 17.703125 9.0625 
Q 20.90625 20.125 20.90625 31.390625 
Q 20.90625 42.671875 17.703125 53.65625 
Q 14.5 64.65625 8.015625 75.875 
z
" id="DejaVuSans-29"/>
     </defs>
     <g transform="translate(303.55 268.034687)scale(0.1 -0.1)">
      <use xlink:href="#DejaVuSans-4c"/>
      <use x="55.697266" xlink:href="#DejaVuSans-6f"/>
      <use x="116.878906" xlink:href="#DejaVuSans-67"/>
      <use x="180.355469" xlink:href="#DejaVuSans-28"/>
      <use x="219.369141" xlink:href="#DejaVuSans-44"/>
      <use x="296.371094" xlink:href="#DejaVuSans-65"/>
      <use x="357.894531" xlink:href="#DejaVuSans-67"/>
      <use x="421.371094" xlink:href="#DejaVuSans-72"/>
      <use x="462.453125" xlink:href="#DejaVuSans-65"/>
      <use x="523.976562" xlink:href="#DejaVuSans-65"/>
      <use x="585.5" xlink:href="#DejaVuSans-29"/>
     </g>
    </g>
   </g>
   <g id="matplotlib.axis_2">
    <g id="ytick_1">
     <g id="line2d_22">
      <defs>
       <path d="M 0 0 
L -3.5 0 
" id="mc5f0c384c3" style="stroke:#000000;stroke-width:0.8;"/>
      </defs>
      <g>
       <use style="stroke:#000000;stroke-width:0.8;" x="55.778125" xlink:href="#mc5f0c384c3" y="216.576874"/>
      </g>
     </g>
     <g id="text_5">
      <!-- $\mathdefault{10^{-59}}$ -->
      <defs>
       <path d="M 10.59375 35.5 
L 73.1875 35.5 
L 73.1875 27.203125 
L 10.59375 27.203125 
z
" id="DejaVuSans-2212"/>
       <path d="M 10.796875 72.90625 
L 49.515625 72.90625 
L 49.515625 64.59375 
L 19.828125 64.59375 
L 19.828125 46.734375 
Q 21.96875 47.46875 24.109375 47.828125 
Q 26.265625 48.1875 28.421875 48.1875 
Q 40.625 48.1875 47.75 41.5 
Q 54.890625 34.8125 54.890625 23.390625 
Q 54.890625 11.625 47.5625 5.09375 
Q 40.234375 -1.421875 26.90625 -1.421875 
Q 22.3125 -1.421875 17.546875 -0.640625 
Q 12.796875 0.140625 7.71875 1.703125 
L 7.71875 11.625 
Q 12.109375 9.234375 16.796875 8.0625 
Q 21.484375 6.890625 26.703125 6.890625 
Q 35.15625 6.890625 40.078125 11.328125 
Q 45.015625 15.765625 45.015625 23.390625 
Q 45.015625 31 40.078125 35.4375 
Q 35.15625 39.890625 26.703125 39.890625 
Q 22.75 39.890625 18.8125 39.015625 
Q 14.890625 38.140625 10.796875 36.28125 
z
" id="DejaVuSans-35"/>
       <path d="M 10.984375 1.515625 
L 10.984375 10.5 
Q 14.703125 8.734375 18.5 7.8125 
Q 22.3125 6.890625 25.984375 6.890625 
Q 35.75 6.890625 40.890625 13.453125 
Q 46.046875 20.015625 46.78125 33.40625 
Q 43.953125 29.203125 39.59375 26.953125 
Q 35.25 24.703125 29.984375 24.703125 
Q 19.046875 24.703125 12.671875 31.3125 
Q 6.296875 37.9375 6.296875 49.421875 
Q 6.296875 60.640625 12.9375 67.421875 
Q 19.578125 74.21875 30.609375 74.21875 
Q 43.265625 74.21875 49.921875 64.515625 
Q 56.59375 54.828125 56.59375 36.375 
Q 56.59375 19.140625 48.40625 8.859375 
Q 40.234375 -1.421875 26.421875 -1.421875 
Q 22.703125 -1.421875 18.890625 -0.6875 
Q 15.09375 0.046875 10.984375 1.515625 
z
M 30.609375 32.421875 
Q 37.25 32.421875 41.125 36.953125 
Q 45.015625 41.5 45.015625 49.421875 
Q 45.015625 57.28125 41.125 61.84375 
Q 37.25 66.40625 30.609375 66.40625 
Q 23.96875 66.40625 20.09375 61.84375 
Q 16.21875 57.28125 16.21875 49.421875 
Q 16.21875 41.5 20.09375 36.953125 
Q 23.96875 32.421875 30.609375 32.421875 
z
" id="DejaVuSans-39"/>
      </defs>
      <g transform="translate(20.878125 220.376093)scale(0.1 -0.1)">
       <use transform="translate(0 0.765625)" xlink:href="#DejaVuSans-31"/>
       <use transform="translate(63.623047 0.765625)" xlink:href="#DejaVuSans-30"/>
       <use transform="translate(128.203125 39.046875)scale(0.7)" xlink:href="#DejaVuSans-2212"/>
       <use transform="translate(186.855469 39.046875)scale(0.7)" xlink:href="#DejaVuSans-35"/>
       <use transform="translate(231.336914 39.046875)scale(0.7)" xlink:href="#DejaVuSans-39"/>
      </g>
     </g>
    </g>
    <g id="ytick_2">
     <g id="line2d_23">
      <g>
       <use style="stroke:#000000;stroke-width:0.8;" x="55.778125" xlink:href="#mc5f0c384c3" y="191.484934"/>
      </g>
     </g>
     <g id="text_6">
      <!-- $\mathdefault{10^{-51}}$ -->
      <g transform="translate(20.878125 195.284152)scale(0.1 -0.1)">
       <use transform="translate(0 0.684375)" xlink:href="#DejaVuSans-31"/>
       <use transform="translate(63.623047 0.684375)" xlink:href="#DejaVuSans-30"/>
       <use transform="translate(128.203125 38.965625)scale(0.7)" xlink:href="#DejaVuSans-2212"/>
       <use transform="translate(186.855469 38.965625)scale(0.7)" xlink:href="#DejaVuSans-35"/>
       <use transform="translate(231.391602 38.965625)scale(0.7)" xlink:href="#DejaVuSans-31"/>
      </g>
     </g>
    </g>
    <g id="ytick_3">
     <g id="line2d_24">
      <g>
       <use style="stroke:#000000;stroke-width:0.8;" x="55.778125" xlink:href="#mc5f0c384c3" y="166.392993"/>
      </g>
     </g>
     <g id="text_7">
      <!-- $\mathdefault{10^{-43}}$ -->
      <defs>
       <path d="M 37.796875 64.3125 
L 12.890625 25.390625 
L 37.796875 25.390625 
z
M 35.203125 72.90625 
L 47.609375 72.90625 
L 47.609375 25.390625 
L 58.015625 25.390625 
L 58.015625 17.1875 
L 47.609375 17.1875 
L 47.609375 0 
L 37.796875 0 
L 37.796875 17.1875 
L 4.890625 17.1875 
L 4.890625 26.703125 
z
" id="DejaVuSans-34"/>
       <path d="M 40.578125 39.3125 
Q 47.65625 37.796875 51.625 33 
Q 55.609375 28.21875 55.609375 21.1875 
Q 55.609375 10.40625 48.1875 4.484375 
Q 40.765625 -1.421875 27.09375 -1.421875 
Q 22.515625 -1.421875 17.65625 -0.515625 
Q 12.796875 0.390625 7.625 2.203125 
L 7.625 11.71875 
Q 11.71875 9.328125 16.59375 8.109375 
Q 21.484375 6.890625 26.8125 6.890625 
Q 36.078125 6.890625 40.9375 10.546875 
Q 45.796875 14.203125 45.796875 21.1875 
Q 45.796875 27.640625 41.28125 31.265625 
Q 36.765625 34.90625 28.71875 34.90625 
L 20.21875 34.90625 
L 20.21875 43.015625 
L 29.109375 43.015625 
Q 36.375 43.015625 40.234375 45.921875 
Q 44.09375 48.828125 44.09375 54.296875 
Q 44.09375 59.90625 40.109375 62.90625 
Q 36.140625 65.921875 28.71875 65.921875 
Q 24.65625 65.921875 20.015625 65.03125 
Q 15.375 64.15625 9.8125 62.3125 
L 9.8125 71.09375 
Q 15.4375 72.65625 20.34375 73.4375 
Q 25.25 74.21875 29.59375 74.21875 
Q 40.828125 74.21875 47.359375 69.109375 
Q 53.90625 64.015625 53.90625 55.328125 
Q 53.90625 49.265625 50.4375 45.09375 
Q 46.96875 40.921875 40.578125 39.3125 
z
" id="DejaVuSans-33"/>
      </defs>
      <g transform="translate(20.878125 170.192212)scale(0.1 -0.1)">
       <use transform="translate(0 0.765625)" xlink:href="#DejaVuSans-31"/>
       <use transform="translate(63.623047 0.765625)" xlink:href="#DejaVuSans-30"/>
       <use transform="translate(128.203125 39.046875)scale(0.7)" xlink:href="#DejaVuSans-2212"/>
       <use transform="translate(186.855469 39.046875)scale(0.7)" xlink:href="#DejaVuSans-34"/>
       <use transform="translate(231.391602 39.046875)scale(0.7)" xlink:href="#DejaVuSans-33"/>
      </g>
     </g>
    </g>
    <g id="ytick_4">
     <g id="line2d_25">
      <g>
       <use style="stroke:#000000;stroke-width:0.8;" x="55.778125" xlink:href="#mc5f0c384c3" y="141.301053"/>
      </g>
     </g>
     <g id="text_8">
      <!-- $\mathdefault{10^{-35}}$ -->
      <g transform="translate(20.878125 145.100272)scale(0.1 -0.1)">
       <use transform="translate(0 0.765625)" xlink:href="#DejaVuSans-31"/>
       <use transform="translate(63.623047 0.765625)" xlink:href="#DejaVuSans-30"/>
       <use transform="translate(128.203125 39.046875)scale(0.7)" xlink:href="#DejaVuSans-2212"/>
       <use transform="translate(186.855469 39.046875)scale(0.7)" xlink:href="#DejaVuSans-33"/>
       <use transform="translate(231.391602 39.046875)scale(0.7)" xlink:href="#DejaVuSans-35"/>
      </g>
     </g>
    </g>
    <g id="ytick_5">
     <g id="line2d_26">
      <g>
       <use style="stroke:#000000;stroke-width:0.8;" x="55.778125" xlink:href="#mc5f0c384c3" y="116.209112"/>
      </g>
     </g>
     <g id="text_9">
      <!-- $\mathdefault{10^{-27}}$ -->
      <defs>
       <path d="M 8.203125 72.90625 
L 55.078125 72.90625 
L 55.078125 68.703125 
L 28.609375 0 
L 18.3125 0 
L 43.21875 64.59375 
L 8.203125 64.59375 
z
" id="DejaVuSans-37"/>
      </defs>
      <g transform="translate(20.878125 120.008331)scale(0.1 -0.1)">
       <use transform="translate(0 0.765625)" xlink:href="#DejaVuSans-31"/>
       <use transform="translate(63.623047 0.765625)" xlink:href="#DejaVuSans-30"/>
       <use transform="translate(128.203125 39.046875)scale(0.7)" xlink:href="#DejaVuSans-2212"/>
       <use transform="translate(186.855469 39.046875)scale(0.7)" xlink:href="#DejaVuSans-32"/>
       <use transform="translate(231.391602 39.046875)scale(0.7)" xlink:href="#DejaVuSans-37"/>
      </g>
     </g>
    </g>
    <g id="ytick_6">
     <g id="line2d_27">
      <g>
       <use style="stroke:#000000;stroke-width:0.8;" x="55.778125" xlink:href="#mc5f0c384c3" y="91.117172"/>
      </g>
     </g>
     <g id="text_10">
      <!-- $\mathdefault{10^{-19}}$ -->
      <g transform="translate(20.878125 94.916391)scale(0.1 -0.1)">
       <use transform="translate(0 0.765625)" xlink:href="#DejaVuSans-31"/>
       <use transform="translate(63.623047 0.765625)" xlink:href="#DejaVuSans-30"/>
       <use transform="translate(128.203125 39.046875)scale(0.7)" xlink:href="#DejaVuSans-2212"/>
       <use transform="translate(186.855469 39.046875)scale(0.7)" xlink:href="#DejaVuSans-31"/>
       <use transform="translate(231.391602 39.046875)scale(0.7)" xlink:href="#DejaVuSans-39"/>
      </g>
     </g>
    </g>
    <g id="ytick_7">
     <g id="line2d_28">
      <g>
       <use style="stroke:#000000;stroke-width:0.8;" x="55.778125" xlink:href="#mc5f0c384c3" y="66.025231"/>
      </g>
     </g>
     <g id="text_11">
      <!-- $\mathdefault{10^{-11}}$ -->
      <g transform="translate(20.878125 69.82445)scale(0.1 -0.1)">
       <use transform="translate(0 0.684375)" xlink:href="#DejaVuSans-31"/>
       <use transform="translate(63.623047 0.684375)" xlink:href="#DejaVuSans-30"/>
       <use transform="translate(128.203125 38.965625)scale(0.7)" xlink:href="#DejaVuSans-2212"/>
       <use transform="translate(186.855469 38.965625)scale(0.7)" xlink:href="#DejaVuSans-31"/>
       <use transform="translate(231.391602 38.965625)scale(0.7)" xlink:href="#DejaVuSans-31"/>
      </g>
     </g>
    </g>
    <g id="ytick_8">
     <g id="line2d_29">
      <g>
       <use style="stroke:#000000;stroke-width:0.8;" x="55.778125" xlink:href="#mc5f0c384c3" y="40.933291"/>
      </g>
     </g>
     <g id="text_12">
      <!-- $\mathdefault{10^{-3}}$ -->
      <g transform="translate(25.278125 44.73251)scale(0.1 -0.1)">
       <use transform="translate(0 0.765625)" xlink:href="#DejaVuSans-31"/>
       <use transform="translate(63.623047 0.765625)" xlink:href="#DejaVuSans-30"/>
       <use transform="translate(128.203125 39.046875)scale(0.7)" xlink:href="#DejaVuSans-2212"/>
       <use transform="translate(186.855469 39.046875)scale(0.7)" xlink:href="#DejaVuSans-33"/>
      </g>
     </g>
    </g>
    <g id="text_13">
     <!-- Log(Number of occurences) -->
     <defs>
      <path d="M 9.8125 72.90625 
L 23.09375 72.90625 
L 55.421875 11.921875 
L 55.421875 72.90625 
L 64.984375 72.90625 
L 64.984375 0 
L 51.703125 0 
L 19.390625 60.984375 
L 19.390625 0 
L 9.8125 0 
z
" id="DejaVuSans-4e"/>
      <path d="M 8.5 21.578125 
L 8.5 54.6875 
L 17.484375 54.6875 
L 17.484375 21.921875 
Q 17.484375 14.15625 20.5 10.265625 
Q 23.53125 6.390625 29.59375 6.390625 
Q 36.859375 6.390625 41.078125 11.03125 
Q 45.3125 15.671875 45.3125 23.6875 
L 45.3125 54.6875 
L 54.296875 54.6875 
L 54.296875 0 
L 45.3125 0 
L 45.3125 8.40625 
Q 42.046875 3.421875 37.71875 1 
Q 33.40625 -1.421875 27.6875 -1.421875 
Q 18.265625 -1.421875 13.375 4.4375 
Q 8.5 10.296875 8.5 21.578125 
z
M 31.109375 56 
z
" id="DejaVuSans-75"/>
      <path d="M 52 44.1875 
Q 55.375 50.25 60.0625 53.125 
Q 64.75 56 71.09375 56 
Q 79.640625 56 84.28125 50.015625 
Q 88.921875 44.046875 88.921875 33.015625 
L 88.921875 0 
L 79.890625 0 
L 79.890625 32.71875 
Q 79.890625 40.578125 77.09375 44.375 
Q 74.3125 48.1875 68.609375 48.1875 
Q 61.625 48.1875 57.5625 43.546875 
Q 53.515625 38.921875 53.515625 30.90625 
L 53.515625 0 
L 44.484375 0 
L 44.484375 32.71875 
Q 44.484375 40.625 41.703125 44.40625 
Q 38.921875 48.1875 33.109375 48.1875 
Q 26.21875 48.1875 22.15625 43.53125 
Q 18.109375 38.875 18.109375 30.90625 
L 18.109375 0 
L 9.078125 0 
L 9.078125 54.6875 
L 18.109375 54.6875 
L 18.109375 46.1875 
Q 21.1875 51.21875 25.484375 53.609375 
Q 29.78125 56 35.6875 56 
Q 41.65625 56 45.828125 52.96875 
Q 50 49.953125 52 44.1875 
z
" id="DejaVuSans-6d"/>
      <path d="M 48.6875 27.296875 
Q 48.6875 37.203125 44.609375 42.84375 
Q 40.53125 48.484375 33.40625 48.484375 
Q 26.265625 48.484375 22.1875 42.84375 
Q 18.109375 37.203125 18.109375 27.296875 
Q 18.109375 17.390625 22.1875 11.75 
Q 26.265625 6.109375 33.40625 6.109375 
Q 40.53125 6.109375 44.609375 11.75 
Q 48.6875 17.390625 48.6875 27.296875 
z
M 18.109375 46.390625 
Q 20.953125 51.265625 25.265625 53.625 
Q 29.59375 56 35.59375 56 
Q 45.5625 56 51.78125 48.09375 
Q 58.015625 40.1875 58.015625 27.296875 
Q 58.015625 14.40625 51.78125 6.484375 
Q 45.5625 -1.421875 35.59375 -1.421875 
Q 29.59375 -1.421875 25.265625 0.953125 
Q 20.953125 3.328125 18.109375 8.203125 
L 18.109375 0 
L 9.078125 0 
L 9.078125 75.984375 
L 18.109375 75.984375 
z
" id="DejaVuSans-62"/>
      <path id="DejaVuSans-20"/>
      <path d="M 37.109375 75.984375 
L 37.109375 68.5 
L 28.515625 68.5 
Q 23.6875 68.5 21.796875 66.546875 
Q 19.921875 64.59375 19.921875 59.515625 
L 19.921875 54.6875 
L 34.71875 54.6875 
L 34.71875 47.703125 
L 19.921875 47.703125 
L 19.921875 0 
L 10.890625 0 
L 10.890625 47.703125 
L 2.296875 47.703125 
L 2.296875 54.6875 
L 10.890625 54.6875 
L 10.890625 58.5 
Q 10.890625 67.625 15.140625 71.796875 
Q 19.390625 75.984375 28.609375 75.984375 
z
" id="DejaVuSans-66"/>
      <path d="M 48.78125 52.59375 
L 48.78125 44.1875 
Q 44.96875 46.296875 41.140625 47.34375 
Q 37.3125 48.390625 33.40625 48.390625 
Q 24.65625 48.390625 19.8125 42.84375 
Q 14.984375 37.3125 14.984375 27.296875 
Q 14.984375 17.28125 19.8125 11.734375 
Q 24.65625 6.203125 33.40625 6.203125 
Q 37.3125 6.203125 41.140625 7.25 
Q 44.96875 8.296875 48.78125 10.40625 
L 48.78125 2.09375 
Q 45.015625 0.34375 40.984375 -0.53125 
Q 36.96875 -1.421875 32.421875 -1.421875 
Q 20.0625 -1.421875 12.78125 6.34375 
Q 5.515625 14.109375 5.515625 27.296875 
Q 5.515625 40.671875 12.859375 48.328125 
Q 20.21875 56 33.015625 56 
Q 37.15625 56 41.109375 55.140625 
Q 45.0625 54.296875 48.78125 52.59375 
z
" id="DejaVuSans-63"/>
      <path d="M 54.890625 33.015625 
L 54.890625 0 
L 45.90625 0 
L 45.90625 32.71875 
Q 45.90625 40.484375 42.875 44.328125 
Q 39.84375 48.1875 33.796875 48.1875 
Q 26.515625 48.1875 22.3125 43.546875 
Q 18.109375 38.921875 18.109375 30.90625 
L 18.109375 0 
L 9.078125 0 
L 9.078125 54.6875 
L 18.109375 54.6875 
L 18.109375 46.1875 
Q 21.34375 51.125 25.703125 53.5625 
Q 30.078125 56 35.796875 56 
Q 45.21875 56 50.046875 50.171875 
Q 54.890625 44.34375 54.890625 33.015625 
z
" id="DejaVuSans-6e"/>
      <path d="M 44.28125 53.078125 
L 44.28125 44.578125 
Q 40.484375 46.53125 36.375 47.5 
Q 32.28125 48.484375 27.875 48.484375 
Q 21.1875 48.484375 17.84375 46.4375 
Q 14.5 44.390625 14.5 40.28125 
Q 14.5 37.15625 16.890625 35.375 
Q 19.28125 33.59375 26.515625 31.984375 
L 29.59375 31.296875 
Q 39.15625 29.25 43.1875 25.515625 
Q 47.21875 21.78125 47.21875 15.09375 
Q 47.21875 7.46875 41.1875 3.015625 
Q 35.15625 -1.421875 24.609375 -1.421875 
Q 20.21875 -1.421875 15.453125 -0.5625 
Q 10.6875 0.296875 5.421875 2 
L 5.421875 11.28125 
Q 10.40625 8.6875 15.234375 7.390625 
Q 20.0625 6.109375 24.8125 6.109375 
Q 31.15625 6.109375 34.5625 8.28125 
Q 37.984375 10.453125 37.984375 14.40625 
Q 37.984375 18.0625 35.515625 20.015625 
Q 33.0625 21.96875 24.703125 23.78125 
L 21.578125 24.515625 
Q 13.234375 26.265625 9.515625 29.90625 
Q 5.8125 33.546875 5.8125 39.890625 
Q 5.8125 47.609375 11.28125 51.796875 
Q 16.75 56 26.8125 56 
Q 31.78125 56 36.171875 55.265625 
Q 40.578125 54.546875 44.28125 53.078125 
z
" id="DejaVuSans-73"/>
     </defs>
     <g transform="translate(14.798438 200.498281)rotate(-90)scale(0.1 -0.1)">
      <use xlink:href="#DejaVuSans-4c"/>
      <use x="55.697266" xlink:href="#DejaVuSans-6f"/>
      <use x="116.878906" xlink:href="#DejaVuSans-67"/>
      <use x="180.355469" xlink:href="#DejaVuSans-28"/>
      <use x="219.369141" xlink:href="#DejaVuSans-4e"/>
      <use x="294.173828" xlink:href="#DejaVuSans-75"/>
      <use x="357.552734" xlink:href="#DejaVuSans-6d"/>
      <use x="454.964844" xlink:href="#DejaVuSans-62"/>
      <use x="518.441406" xlink:href="#DejaVuSans-65"/>
      <use x="579.964844" xlink:href="#DejaVuSans-72"/>
      <use x="621.078125" xlink:href="#DejaVuSans-20"/>
      <use x="652.865234" xlink:href="#DejaVuSans-6f"/>
      <use x="714.046875" xlink:href="#DejaVuSans-66"/>
      <use x="749.251953" xlink:href="#DejaVuSans-20"/>
      <use x="781.039062" xlink:href="#DejaVuSans-6f"/>
      <use x="842.220703" xlink:href="#DejaVuSans-63"/>
      <use x="897.201172" xlink:href="#DejaVuSans-63"/>
      <use x="952.181641" xlink:href="#DejaVuSans-75"/>
      <use x="1015.560547" xlink:href="#DejaVuSans-72"/>
      <use x="1056.642578" xlink:href="#DejaVuSans-65"/>
      <use x="1118.166016" xlink:href="#DejaVuSans-6e"/>
      <use x="1181.544922" xlink:href="#DejaVuSans-63"/>
      <use x="1236.525391" xlink:href="#DejaVuSans-65"/>
      <use x="1298.048828" xlink:href="#DejaVuSans-73"/>
      <use x="1350.148438" xlink:href="#DejaVuSans-29"/>
     </g>
    </g>
   </g>
   <g id="line2d_30">
    <defs>
     <path d="M 0 1.5 
C 0.397805 1.5 0.77937 1.341951 1.06066 1.06066 
C 1.341951 0.77937 1.5 0.397805 1.5 0 
C 1.5 -0.397805 1.341951 -0.77937 1.06066 -1.06066 
C 0.77937 -1.341951 0.397805 -1.5 0 -1.5 
C -0.397805 -1.5 -0.77937 -1.341951 -1.06066 -1.06066 
C -1.341951 -0.77937 -1.5 -0.397805 -1.5 0 
C -1.5 0.397805 -1.341951 0.77937 -1.06066 1.06066 
C -0.77937 1.341951 -0.397805 1.5 0 1.5 
z
" id="md6626c570c" style="stroke:#55638a;"/>
    </defs>
    <g clip-path="url(#p21e41af9eb)">
     <use style="fill:#55638a;stroke:#55638a;" x="81.141761" xlink:href="#md6626c570c" y="42.53839"/>
     <use style="fill:#55638a;stroke:#55638a;" x="159.673861" xlink:href="#md6626c570c" y="41.594212"/>
     <use style="fill:#55638a;stroke:#55638a;" x="205.612194" xlink:href="#md6626c570c" y="32.474295"/>
     <use style="fill:#55638a;stroke:#55638a;" x="238.205961" xlink:href="#md6626c570c" y="36.086923"/>
     <use style="fill:#55638a;stroke:#55638a;" x="263.48765" xlink:href="#md6626c570c" y="36.086923"/>
     <use style="fill:#55638a;stroke:#55638a;" x="284.144294" xlink:href="#md6626c570c" y="34.022288"/>
     <use style="fill:#55638a;stroke:#55638a;" x="301.609238" xlink:href="#md6626c570c" y="37.007411"/>
     <use style="fill:#55638a;stroke:#55638a;" x="316.73806" xlink:href="#md6626c570c" y="36.961232"/>
     <use style="fill:#55638a;stroke:#55638a;" x="330.082627" xlink:href="#md6626c570c" y="35.328054"/>
     <use style="fill:#55638a;stroke:#55638a;" x="342.019749" xlink:href="#md6626c570c" y="37.95159"/>
     <use style="fill:#55638a;stroke:#55638a;" x="352.81819" xlink:href="#md6626c570c" y="37.734918"/>
     <use style="fill:#55638a;stroke:#55638a;" x="362.676394" xlink:href="#md6626c570c" y="36.098925"/>
     <use style="fill:#55638a;stroke:#55638a;" x="371.745062" xlink:href="#md6626c570c" y="38.100337"/>
     <use style="fill:#55638a;stroke:#55638a;" x="380.141337" xlink:href="#md6626c570c" y="37.90541"/>
     <use style="fill:#55638a;stroke:#55638a;" x="387.958083" xlink:href="#md6626c570c" y="37.130212"/>
     <use style="fill:#55638a;stroke:#55638a;" x="395.27016" xlink:href="#md6626c570c" y="38.391259"/>
     <use style="fill:#55638a;stroke:#55638a;" x="402.1388" xlink:href="#md6626c570c" y="38.327891"/>
     <use style="fill:#55638a;stroke:#55638a;" x="408.614727" xlink:href="#md6626c570c" y="37.90541"/>
     <use style="fill:#55638a;stroke:#55638a;" x="414.740428" xlink:href="#md6626c570c" y="39.545416"/>
     <use style="fill:#55638a;stroke:#55638a;" x="420.551849" xlink:href="#md6626c570c" y="38.601237"/>
     <use style="fill:#55638a;stroke:#55638a;" x="426.079671" xlink:href="#md6626c570c" y="38.457719"/>
     <use style="fill:#55638a;stroke:#55638a;" x="431.350289" xlink:href="#md6626c570c" y="39.044515"/>
     <use style="fill:#55638a;stroke:#55638a;" x="436.386579" xlink:href="#md6626c570c" y="39.153546"/>
     <use style="fill:#55638a;stroke:#55638a;" x="441.208493" xlink:href="#md6626c570c" y="38.527589"/>
     <use style="fill:#55638a;stroke:#55638a;" x="445.833538" xlink:href="#md6626c570c" y="39.401897"/>
     <use style="fill:#55638a;stroke:#55638a;" x="450.277162" xlink:href="#md6626c570c" y="39.044515"/>
     <use style="fill:#55638a;stroke:#55638a;" x="454.55306" xlink:href="#md6626c570c" y="40.097724"/>
     <use style="fill:#55638a;stroke:#55638a;" x="458.673437" xlink:href="#md6626c570c" y="41.041903"/>
     <use style="fill:#55638a;stroke:#55638a;" x="462.649209" xlink:href="#md6626c570c" y="38.943568"/>
     <use style="fill:#55638a;stroke:#55638a;" x="466.490182" xlink:href="#md6626c570c" y="40.097724"/>
     <use style="fill:#55638a;stroke:#55638a;" x="470.205199" xlink:href="#md6626c570c" y="41.041903"/>
     <use style="fill:#55638a;stroke:#55638a;" x="473.802259" xlink:href="#md6626c570c" y="39.887746"/>
     <use style="fill:#55638a;stroke:#55638a;" x="477.288623" xlink:href="#md6626c570c" y="40.097724"/>
     <use style="fill:#55638a;stroke:#55638a;" x="480.6709" xlink:href="#md6626c570c" y="40.650033"/>
     <use style="fill:#55638a;stroke:#55638a;" x="483.955126" xlink:href="#md6626c570c" y="40.650033"/>
     <use style="fill:#55638a;stroke:#55638a;" x="487.146827" xlink:href="#md6626c570c" y="40.097724"/>
     <use style="fill:#55638a;stroke:#55638a;" x="490.251072" xlink:href="#md6626c570c" y="40.097724"/>
     <use style="fill:#55638a;stroke:#55638a;" x="493.272528" xlink:href="#md6626c570c" y="41.041903"/>
     <use style="fill:#55638a;stroke:#55638a;" x="496.215495" xlink:href="#md6626c570c" y="42.53839"/>
     <use style="fill:#55638a;stroke:#55638a;" x="499.083949" xlink:href="#md6626c570c" y="41.594212"/>
     <use style="fill:#55638a;stroke:#55638a;" x="501.881569" xlink:href="#md6626c570c" y="3168.016372"/>
     <use style="fill:#55638a;stroke:#55638a;" x="504.61177" xlink:href="#md6626c570c" y="41.041903"/>
     <use style="fill:#55638a;stroke:#55638a;" x="507.277726" xlink:href="#md6626c570c" y="41.594212"/>
     <use style="fill:#55638a;stroke:#55638a;" x="509.882389" xlink:href="#md6626c570c" y="41.594212"/>
     <use style="fill:#55638a;stroke:#55638a;" x="512.428516" xlink:href="#md6626c570c" y="3168.016372"/>
     <use style="fill:#55638a;stroke:#55638a;" x="514.918679" xlink:href="#md6626c570c" y="41.594212"/>
     <use style="fill:#55638a;stroke:#55638a;" x="517.355286" xlink:href="#md6626c570c" y="3168.016372"/>
     <use style="fill:#55638a;stroke:#55638a;" x="519.740593" xlink:href="#md6626c570c" y="3168.016372"/>
     <use style="fill:#55638a;stroke:#55638a;" x="522.076714" xlink:href="#md6626c570c" y="3168.016372"/>
     <use style="fill:#55638a;stroke:#55638a;" x="524.365638" xlink:href="#md6626c570c" y="3168.016372"/>
     <use style="fill:#55638a;stroke:#55638a;" x="526.609233" xlink:href="#md6626c570c" y="3168.016372"/>
     <use style="fill:#55638a;stroke:#55638a;" x="528.809261" xlink:href="#md6626c570c" y="3168.016372"/>
     <use style="fill:#55638a;stroke:#55638a;" x="530.967381" xlink:href="#md6626c570c" y="42.53839"/>
     <use style="fill:#55638a;stroke:#55638a;" x="533.08516" xlink:href="#md6626c570c" y="42.53839"/>
     <use style="fill:#55638a;stroke:#55638a;" x="535.164078" xlink:href="#md6626c570c" y="42.53839"/>
     <use style="fill:#55638a;stroke:#55638a;" x="537.205537" xlink:href="#md6626c570c" y="42.53839"/>
     <use style="fill:#55638a;stroke:#55638a;" x="539.210861" xlink:href="#md6626c570c" y="41.594212"/>
     <use style="fill:#55638a;stroke:#55638a;" x="541.181308" xlink:href="#md6626c570c" y="42.53839"/>
     <use style="fill:#55638a;stroke:#55638a;" x="543.118071" xlink:href="#md6626c570c" y="3168.016372"/>
     <use style="fill:#55638a;stroke:#55638a;" x="545.022282" xlink:href="#md6626c570c" y="3168.016372"/>
     <use style="fill:#55638a;stroke:#55638a;" x="546.895017" xlink:href="#md6626c570c" y="42.53839"/>
     <use style="fill:#55638a;stroke:#55638a;" x="548.737299" xlink:href="#md6626c570c" y="42.53839"/>
     <use style="fill:#55638a;stroke:#55638a;" x="550.550104" xlink:href="#md6626c570c" y="42.53839"/>
     <use style="fill:#55638a;stroke:#55638a;" x="552.334359" xlink:href="#md6626c570c" y="3168.016372"/>
     <use style="fill:#55638a;stroke:#55638a;" x="554.09095" xlink:href="#md6626c570c" y="3168.016372"/>
     <use style="fill:#55638a;stroke:#55638a;" x="555.820722" xlink:href="#md6626c570c" y="3168.016372"/>
     <use style="fill:#55638a;stroke:#55638a;" x="557.524482" xlink:href="#md6626c570c" y="3168.016372"/>
     <use style="fill:#55638a;stroke:#55638a;" x="559.203" xlink:href="#md6626c570c" y="3168.016372"/>
     <use style="fill:#55638a;stroke:#55638a;" x="560.857012" xlink:href="#md6626c570c" y="3168.016372"/>
     <use style="fill:#55638a;stroke:#55638a;" x="562.487226" xlink:href="#md6626c570c" y="3168.016372"/>
     <use style="fill:#55638a;stroke:#55638a;" x="564.094315" xlink:href="#md6626c570c" y="3168.016372"/>
     <use style="fill:#55638a;stroke:#55638a;" x="565.678926" xlink:href="#md6626c570c" y="3168.016372"/>
     <use style="fill:#55638a;stroke:#55638a;" x="567.24168" xlink:href="#md6626c570c" y="42.53839"/>
     <use style="fill:#55638a;stroke:#55638a;" x="568.783172" xlink:href="#md6626c570c" y="42.53839"/>
     <use style="fill:#55638a;stroke:#55638a;" x="570.303971" xlink:href="#md6626c570c" y="3168.016372"/>
     <use style="fill:#55638a;stroke:#55638a;" x="571.804627" xlink:href="#md6626c570c" y="3168.016372"/>
     <use style="fill:#55638a;stroke:#55638a;" x="573.285666" xlink:href="#md6626c570c" y="3168.016372"/>
     <use style="fill:#55638a;stroke:#55638a;" x="574.747594" xlink:href="#md6626c570c" y="3168.016372"/>
     <use style="fill:#55638a;stroke:#55638a;" x="576.190899" xlink:href="#md6626c570c" y="3168.016372"/>
     <use style="fill:#55638a;stroke:#55638a;" x="577.616048" xlink:href="#md6626c570c" y="3168.016372"/>
     <use style="fill:#55638a;stroke:#55638a;" x="579.023493" xlink:href="#md6626c570c" y="3168.016372"/>
     <use style="fill:#55638a;stroke:#55638a;" x="580.413669" xlink:href="#md6626c570c" y="3168.016372"/>
     <use style="fill:#55638a;stroke:#55638a;" x="581.786993" xlink:href="#md6626c570c" y="3168.016372"/>
     <use style="fill:#55638a;stroke:#55638a;" x="583.14387" xlink:href="#md6626c570c" y="3168.016372"/>
     <use style="fill:#55638a;stroke:#55638a;" x="584.484689" xlink:href="#md6626c570c" y="3168.016372"/>
     <use style="fill:#55638a;stroke:#55638a;" x="585.809825" xlink:href="#md6626c570c" y="3168.016372"/>
     <use style="fill:#55638a;stroke:#55638a;" x="587.119642" xlink:href="#md6626c570c" y="42.53839"/>
    </g>
   </g>
   <g id="line2d_31">
    <path clip-path="url(#p21e41af9eb)" d="M 81.141761 38.338992 
L 159.673861 36.644135 
L 205.612194 35.501588 
L 238.205961 34.750909 
L 263.48765 34.304189 
L 284.144294 34.105819 
L 301.609238 34.117428 
L 316.73806 34.310928 
L 330.082627 34.664868 
L 342.019749 35.162326 
L 352.81819 35.789611 
L 362.676394 36.53542 
L 371.745062 37.39026 
L 380.141337 38.346047 
L 387.958083 39.395814 
L 395.27016 40.533492 
L 402.1388 41.753751 
L 408.614727 43.051869 
L 414.740428 44.423636 
L 420.551849 45.865272 
L 426.079671 47.373368 
L 431.350289 48.944831 
L 436.386579 50.576846 
L 441.208493 52.266833 
L 445.833538 54.012427 
L 450.277162 55.811445 
L 454.55306 57.661872 
L 458.673437 59.561838 
L 462.649209 61.509603 
L 466.490182 63.503548 
L 470.205199 65.542158 
L 473.802259 67.624015 
L 477.288623 69.747787 
L 480.6709 71.912225 
L 483.955126 74.116148 
L 487.146827 76.358444 
L 490.251072 78.638062 
L 493.272528 80.954007 
L 496.215495 83.305334 
L 499.083949 85.691149 
L 501.881569 88.110598 
L 504.61177 90.562873 
L 507.277726 93.047199 
L 509.882389 95.562842 
L 512.428516 98.109095 
L 514.918679 100.685288 
L 517.355286 103.290776 
L 519.740593 105.924941 
L 522.076714 108.587194 
L 524.365638 111.276966 
L 526.609233 113.993712 
L 528.809261 116.736909 
L 530.967381 119.506052 
L 533.08516 122.300657 
L 535.164078 125.120257 
L 537.205537 127.964401 
L 539.210861 130.832655 
L 541.181308 133.724598 
L 543.118071 136.639828 
L 545.022282 139.577951 
L 546.895017 142.53859 
L 548.737299 145.521378 
L 550.550104 148.525961 
L 552.334359 151.551996 
L 554.09095 154.599151 
L 555.820722 157.667102 
L 557.524482 160.755537 
L 559.203 163.864153 
L 560.857012 166.992654 
L 562.487226 170.140756 
L 564.094315 173.308179 
L 565.678926 176.494653 
L 567.24168 179.699917 
L 568.783172 182.923713 
L 570.303971 186.165794 
L 571.804627 189.425917 
L 573.285666 192.703846 
L 574.747594 195.999352 
L 576.190899 199.31221 
L 577.616048 202.642203 
L 579.023493 205.989117 
L 580.413669 209.352745 
L 581.786993 212.732884 
L 583.14387 216.129337 
L 584.484689 219.54191 
L 585.809825 222.970415 
L 587.119642 226.414668 
L 588.414489 229.874489 
" style="fill:none;stroke:#000000;stroke-linecap:square;stroke-width:1.5;"/>
   </g>
   <g id="line2d_32">
    <path clip-path="url(#p21e41af9eb)" d="M 81.141761 32.201761 
L 159.673861 34.090118 
L 205.612194 35.194736 
L 238.205961 35.978475 
L 263.48765 36.58639 
L 284.144294 37.083093 
L 301.609238 37.503049 
L 316.73806 37.866831 
L 330.082627 38.18771 
L 342.019749 38.474746 
L 352.81819 38.734402 
L 362.676394 38.971449 
L 371.745062 39.189511 
L 380.141337 39.391405 
L 387.958083 39.579364 
L 395.27016 39.755188 
L 402.1388 39.920349 
L 408.614727 40.076067 
L 414.740428 40.223364 
L 420.551849 40.363103 
L 426.079671 40.496023 
L 431.350289 40.622759 
L 436.386579 40.74386 
L 441.208493 40.859806 
L 445.833538 40.971018 
L 450.277162 41.077868 
L 454.55306 41.180685 
L 458.673437 41.279762 
L 462.649209 41.375362 
L 466.490182 41.467721 
L 470.205199 41.557051 
L 473.802259 41.643545 
L 477.288623 41.727377 
L 480.6709 41.808706 
L 483.955126 41.887677 
L 487.146827 41.964424 
L 490.251072 42.039067 
L 493.272528 42.11172 
L 496.215495 42.182486 
L 499.083949 42.25146 
L 501.881569 42.31873 
L 504.61177 42.38438 
L 507.277726 42.448485 
L 509.882389 42.511116 
L 512.428516 42.572339 
L 514.918679 42.632216 
L 517.355286 42.690806 
L 519.740593 42.748163 
L 522.076714 42.804336 
L 524.365638 42.859375 
L 526.609233 42.913324 
L 528.809261 42.966225 
L 530.967381 43.018118 
L 533.08516 43.069042 
L 535.164078 43.119031 
L 537.205537 43.168119 
L 539.210861 43.216338 
L 541.181308 43.263719 
L 543.118071 43.31029 
L 545.022282 43.356078 
L 546.895017 43.401109 
L 548.737299 43.445408 
L 550.550104 43.488998 
L 552.334359 43.531901 
L 554.09095 43.57414 
L 555.820722 43.615733 
L 557.524482 43.656701 
L 559.203 43.697063 
L 560.857012 43.736834 
L 562.487226 43.776034 
L 564.094315 43.814677 
L 565.678926 43.85278 
L 567.24168 43.890358 
L 568.783172 43.927424 
L 570.303971 43.963993 
L 571.804627 44.000077 
L 573.285666 44.03569 
L 574.747594 44.070843 
L 576.190899 44.105548 
L 577.616048 44.139817 
L 579.023493 44.173659 
L 580.413669 44.207087 
L 581.786993 44.24011 
L 583.14387 44.272737 
L 584.484689 44.304978 
L 585.809825 44.336841 
L 587.119642 44.368337 
L 588.414489 44.399472 
" style="fill:none;stroke:#ff0000;stroke-linecap:square;stroke-width:1.5;"/>
   </g>
   <g id="patch_3">
    <path d="M 55.778125 239.758125 
L 55.778125 22.318125 
" style="fill:none;stroke:#000000;stroke-linecap:square;stroke-linejoin:miter;stroke-width:0.8;"/>
   </g>
   <g id="patch_4">
    <path d="M 613.778125 239.758125 
L 613.778125 22.318125 
" style="fill:none;stroke:#000000;stroke-linecap:square;stroke-linejoin:miter;stroke-width:0.8;"/>
   </g>
   <g id="patch_5">
    <path d="M 55.778125 239.758125 
L 613.778125 239.758125 
" style="fill:none;stroke:#000000;stroke-linecap:square;stroke-linejoin:miter;stroke-width:0.8;"/>
   </g>
   <g id="patch_6">
    <path d="M 55.778125 22.318125 
L 613.778125 22.318125 
" style="fill:none;stroke:#000000;stroke-linecap:square;stroke-linejoin:miter;stroke-width:0.8;"/>
   </g>
   <g id="text_14">
    <!-- Log-Log Degree Distribution of period 1900-1970 -->
    <defs>
     <path d="M 4.890625 31.390625 
L 31.203125 31.390625 
L 31.203125 23.390625 
L 4.890625 23.390625 
z
" id="DejaVuSans-2d"/>
     <path d="M 9.421875 54.6875 
L 18.40625 54.6875 
L 18.40625 0 
L 9.421875 0 
z
M 9.421875 75.984375 
L 18.40625 75.984375 
L 18.40625 64.59375 
L 9.421875 64.59375 
z
" id="DejaVuSans-69"/>
     <path d="M 18.3125 70.21875 
L 18.3125 54.6875 
L 36.8125 54.6875 
L 36.8125 47.703125 
L 18.3125 47.703125 
L 18.3125 18.015625 
Q 18.3125 11.328125 20.140625 9.421875 
Q 21.96875 7.515625 27.59375 7.515625 
L 36.8125 7.515625 
L 36.8125 0 
L 27.59375 0 
Q 17.1875 0 13.234375 3.875 
Q 9.28125 7.765625 9.28125 18.015625 
L 9.28125 47.703125 
L 2.6875 47.703125 
L 2.6875 54.6875 
L 9.28125 54.6875 
L 9.28125 70.21875 
z
" id="DejaVuSans-74"/>
     <path d="M 18.109375 8.203125 
L 18.109375 -20.796875 
L 9.078125 -20.796875 
L 9.078125 54.6875 
L 18.109375 54.6875 
L 18.109375 46.390625 
Q 20.953125 51.265625 25.265625 53.625 
Q 29.59375 56 35.59375 56 
Q 45.5625 56 51.78125 48.09375 
Q 58.015625 40.1875 58.015625 27.296875 
Q 58.015625 14.40625 51.78125 6.484375 
Q 45.5625 -1.421875 35.59375 -1.421875 
Q 29.59375 -1.421875 25.265625 0.953125 
Q 20.953125 3.328125 18.109375 8.203125 
z
M 48.6875 27.296875 
Q 48.6875 37.203125 44.609375 42.84375 
Q 40.53125 48.484375 33.40625 48.484375 
Q 26.265625 48.484375 22.1875 42.84375 
Q 18.109375 37.203125 18.109375 27.296875 
Q 18.109375 17.390625 22.1875 11.75 
Q 26.265625 6.109375 33.40625 6.109375 
Q 40.53125 6.109375 44.609375 11.75 
Q 48.6875 17.390625 48.6875 27.296875 
z
" id="DejaVuSans-70"/>
     <path d="M 45.40625 46.390625 
L 45.40625 75.984375 
L 54.390625 75.984375 
L 54.390625 0 
L 45.40625 0 
L 45.40625 8.203125 
Q 42.578125 3.328125 38.25 0.953125 
Q 33.9375 -1.421875 27.875 -1.421875 
Q 17.96875 -1.421875 11.734375 6.484375 
Q 5.515625 14.40625 5.515625 27.296875 
Q 5.515625 40.1875 11.734375 48.09375 
Q 17.96875 56 27.875 56 
Q 33.9375 56 38.25 53.625 
Q 42.578125 51.265625 45.40625 46.390625 
z
M 14.796875 27.296875 
Q 14.796875 17.390625 18.875 11.75 
Q 22.953125 6.109375 30.078125 6.109375 
Q 37.203125 6.109375 41.296875 11.75 
Q 45.40625 17.390625 45.40625 27.296875 
Q 45.40625 37.203125 41.296875 42.84375 
Q 37.203125 48.484375 30.078125 48.484375 
Q 22.953125 48.484375 18.875 42.84375 
Q 14.796875 37.203125 14.796875 27.296875 
z
" id="DejaVuSans-64"/>
    </defs>
    <g transform="translate(186.859375 16.318125)scale(0.12 -0.12)">
     <use xlink:href="#DejaVuSans-4c"/>
     <use x="55.697266" xlink:href="#DejaVuSans-6f"/>
     <use x="116.878906" xlink:href="#DejaVuSans-67"/>
     <use x="180.355469" xlink:href="#DejaVuSans-2d"/>
     <use x="216.439453" xlink:href="#DejaVuSans-4c"/>
     <use x="272.136719" xlink:href="#DejaVuSans-6f"/>
     <use x="333.318359" xlink:href="#DejaVuSans-67"/>
     <use x="396.794922" xlink:href="#DejaVuSans-20"/>
     <use x="428.582031" xlink:href="#DejaVuSans-44"/>
     <use x="505.583984" xlink:href="#DejaVuSans-65"/>
     <use x="567.107422" xlink:href="#DejaVuSans-67"/>
     <use x="630.583984" xlink:href="#DejaVuSans-72"/>
     <use x="671.666016" xlink:href="#DejaVuSans-65"/>
     <use x="733.189453" xlink:href="#DejaVuSans-65"/>
     <use x="794.712891" xlink:href="#DejaVuSans-20"/>
     <use x="826.5" xlink:href="#DejaVuSans-44"/>
     <use x="903.501953" xlink:href="#DejaVuSans-69"/>
     <use x="931.285156" xlink:href="#DejaVuSans-73"/>
     <use x="983.384766" xlink:href="#DejaVuSans-74"/>
     <use x="1022.59375" xlink:href="#DejaVuSans-72"/>
     <use x="1063.707031" xlink:href="#DejaVuSans-69"/>
     <use x="1091.490234" xlink:href="#DejaVuSans-62"/>
     <use x="1154.966797" xlink:href="#DejaVuSans-75"/>
     <use x="1218.345703" xlink:href="#DejaVuSans-74"/>
     <use x="1257.554688" xlink:href="#DejaVuSans-69"/>
     <use x="1285.337891" xlink:href="#DejaVuSans-6f"/>
     <use x="1346.519531" xlink:href="#DejaVuSans-6e"/>
     <use x="1409.898438" xlink:href="#DejaVuSans-20"/>
     <use x="1441.685547" xlink:href="#DejaVuSans-6f"/>
     <use x="1502.867188" xlink:href="#DejaVuSans-66"/>
     <use x="1538.072266" xlink:href="#DejaVuSans-20"/>
     <use x="1569.859375" xlink:href="#DejaVuSans-70"/>
     <use x="1633.335938" xlink:href="#DejaVuSans-65"/>
     <use x="1694.859375" xlink:href="#DejaVuSans-72"/>
     <use x="1735.972656" xlink:href="#DejaVuSans-69"/>
     <use x="1763.755859" xlink:href="#DejaVuSans-6f"/>
     <use x="1824.9375" xlink:href="#DejaVuSans-64"/>
     <use x="1888.414062" xlink:href="#DejaVuSans-20"/>
     <use x="1920.201172" xlink:href="#DejaVuSans-31"/>
     <use x="1983.824219" xlink:href="#DejaVuSans-39"/>
     <use x="2047.447266" xlink:href="#DejaVuSans-30"/>
     <use x="2111.070312" xlink:href="#DejaVuSans-30"/>
     <use x="2174.693359" xlink:href="#DejaVuSans-2d"/>
     <use x="2210.777344" xlink:href="#DejaVuSans-31"/>
     <use x="2274.400391" xlink:href="#DejaVuSans-39"/>
     <use x="2338.023438" xlink:href="#DejaVuSans-37"/>
     <use x="2401.646484" xlink:href="#DejaVuSans-30"/>
    </g>
   </g>
   <g id="legend_1">
    <g id="patch_7">
     <path d="M 62.778125 234.758125 
L 323.178125 234.758125 
Q 325.178125 234.758125 325.178125 232.758125 
L 325.178125 189.701875 
Q 325.178125 187.701875 323.178125 187.701875 
L 62.778125 187.701875 
Q 60.778125 187.701875 60.778125 189.701875 
L 60.778125 232.758125 
Q 60.778125 234.758125 62.778125 234.758125 
z
" style="fill:#ffffff;opacity:0.8;stroke:#cccccc;stroke-linejoin:miter;"/>
    </g>
    <g id="line2d_33"/>
    <g id="line2d_34">
     <g>
      <use style="fill:#55638a;stroke:#55638a;" x="74.778125" xlink:href="#md6626c570c" y="195.800312"/>
     </g>
    </g>
    <g id="text_15">
     <!-- Observations -->
     <defs>
      <path d="M 39.40625 66.21875 
Q 28.65625 66.21875 22.328125 58.203125 
Q 16.015625 50.203125 16.015625 36.375 
Q 16.015625 22.609375 22.328125 14.59375 
Q 28.65625 6.59375 39.40625 6.59375 
Q 50.140625 6.59375 56.421875 14.59375 
Q 62.703125 22.609375 62.703125 36.375 
Q 62.703125 50.203125 56.421875 58.203125 
Q 50.140625 66.21875 39.40625 66.21875 
z
M 39.40625 74.21875 
Q 54.734375 74.21875 63.90625 63.9375 
Q 73.09375 53.65625 73.09375 36.375 
Q 73.09375 19.140625 63.90625 8.859375 
Q 54.734375 -1.421875 39.40625 -1.421875 
Q 24.03125 -1.421875 14.8125 8.828125 
Q 5.609375 19.09375 5.609375 36.375 
Q 5.609375 53.65625 14.8125 63.9375 
Q 24.03125 74.21875 39.40625 74.21875 
z
" id="DejaVuSans-4f"/>
      <path d="M 2.984375 54.6875 
L 12.5 54.6875 
L 29.59375 8.796875 
L 46.6875 54.6875 
L 56.203125 54.6875 
L 35.6875 0 
L 23.484375 0 
z
" id="DejaVuSans-76"/>
      <path d="M 34.28125 27.484375 
Q 23.390625 27.484375 19.1875 25 
Q 14.984375 22.515625 14.984375 16.5 
Q 14.984375 11.71875 18.140625 8.90625 
Q 21.296875 6.109375 26.703125 6.109375 
Q 34.1875 6.109375 38.703125 11.40625 
Q 43.21875 16.703125 43.21875 25.484375 
L 43.21875 27.484375 
z
M 52.203125 31.203125 
L 52.203125 0 
L 43.21875 0 
L 43.21875 8.296875 
Q 40.140625 3.328125 35.546875 0.953125 
Q 30.953125 -1.421875 24.3125 -1.421875 
Q 15.921875 -1.421875 10.953125 3.296875 
Q 6 8.015625 6 15.921875 
Q 6 25.140625 12.171875 29.828125 
Q 18.359375 34.515625 30.609375 34.515625 
L 43.21875 34.515625 
L 43.21875 35.40625 
Q 43.21875 41.609375 39.140625 45 
Q 35.0625 48.390625 27.6875 48.390625 
Q 23 48.390625 18.546875 47.265625 
Q 14.109375 46.140625 10.015625 43.890625 
L 10.015625 52.203125 
Q 14.9375 54.109375 19.578125 55.046875 
Q 24.21875 56 28.609375 56 
Q 40.484375 56 46.34375 49.84375 
Q 52.203125 43.703125 52.203125 31.203125 
z
" id="DejaVuSans-61"/>
     </defs>
     <g transform="translate(92.778125 199.300312)scale(0.1 -0.1)">
      <use xlink:href="#DejaVuSans-4f"/>
      <use x="78.710938" xlink:href="#DejaVuSans-62"/>
      <use x="142.1875" xlink:href="#DejaVuSans-73"/>
      <use x="194.287109" xlink:href="#DejaVuSans-65"/>
      <use x="255.810547" xlink:href="#DejaVuSans-72"/>
      <use x="296.923828" xlink:href="#DejaVuSans-76"/>
      <use x="356.103516" xlink:href="#DejaVuSans-61"/>
      <use x="417.382812" xlink:href="#DejaVuSans-74"/>
      <use x="456.591797" xlink:href="#DejaVuSans-69"/>
      <use x="484.375" xlink:href="#DejaVuSans-6f"/>
      <use x="545.556641" xlink:href="#DejaVuSans-6e"/>
      <use x="608.935547" xlink:href="#DejaVuSans-73"/>
     </g>
    </g>
    <g id="line2d_35">
     <path d="M 64.778125 210.478437 
L 84.778125 210.478437 
" style="fill:none;stroke:#000000;stroke-linecap:square;stroke-width:1.5;"/>
    </g>
    <g id="line2d_36"/>
    <g id="text_16">
     <!-- Random network degree distributon -->
     <defs>
      <path d="M 44.390625 34.1875 
Q 47.5625 33.109375 50.5625 29.59375 
Q 53.5625 26.078125 56.59375 19.921875 
L 66.609375 0 
L 56 0 
L 46.6875 18.703125 
Q 43.0625 26.03125 39.671875 28.421875 
Q 36.28125 30.8125 30.421875 30.8125 
L 19.671875 30.8125 
L 19.671875 0 
L 9.8125 0 
L 9.8125 72.90625 
L 32.078125 72.90625 
Q 44.578125 72.90625 50.734375 67.671875 
Q 56.890625 62.453125 56.890625 51.90625 
Q 56.890625 45.015625 53.6875 40.46875 
Q 50.484375 35.9375 44.390625 34.1875 
z
M 19.671875 64.796875 
L 19.671875 38.921875 
L 32.078125 38.921875 
Q 39.203125 38.921875 42.84375 42.21875 
Q 46.484375 45.515625 46.484375 51.90625 
Q 46.484375 58.296875 42.84375 61.546875 
Q 39.203125 64.796875 32.078125 64.796875 
z
" id="DejaVuSans-52"/>
      <path d="M 4.203125 54.6875 
L 13.1875 54.6875 
L 24.421875 12.015625 
L 35.59375 54.6875 
L 46.1875 54.6875 
L 57.421875 12.015625 
L 68.609375 54.6875 
L 77.59375 54.6875 
L 63.28125 0 
L 52.6875 0 
L 40.921875 44.828125 
L 29.109375 0 
L 18.5 0 
z
" id="DejaVuSans-77"/>
      <path d="M 9.078125 75.984375 
L 18.109375 75.984375 
L 18.109375 31.109375 
L 44.921875 54.6875 
L 56.390625 54.6875 
L 27.390625 29.109375 
L 57.625 0 
L 45.90625 0 
L 18.109375 26.703125 
L 18.109375 0 
L 9.078125 0 
z
" id="DejaVuSans-6b"/>
     </defs>
     <g transform="translate(92.778125 213.978437)scale(0.1 -0.1)">
      <use xlink:href="#DejaVuSans-52"/>
      <use x="69.451172" xlink:href="#DejaVuSans-61"/>
      <use x="130.730469" xlink:href="#DejaVuSans-6e"/>
      <use x="194.109375" xlink:href="#DejaVuSans-64"/>
      <use x="257.585938" xlink:href="#DejaVuSans-6f"/>
      <use x="318.767578" xlink:href="#DejaVuSans-6d"/>
      <use x="416.179688" xlink:href="#DejaVuSans-20"/>
      <use x="447.966797" xlink:href="#DejaVuSans-6e"/>
      <use x="511.345703" xlink:href="#DejaVuSans-65"/>
      <use x="572.869141" xlink:href="#DejaVuSans-74"/>
      <use x="612.078125" xlink:href="#DejaVuSans-77"/>
      <use x="693.865234" xlink:href="#DejaVuSans-6f"/>
      <use x="755.046875" xlink:href="#DejaVuSans-72"/>
      <use x="796.160156" xlink:href="#DejaVuSans-6b"/>
      <use x="854.070312" xlink:href="#DejaVuSans-20"/>
      <use x="885.857422" xlink:href="#DejaVuSans-64"/>
      <use x="949.333984" xlink:href="#DejaVuSans-65"/>
      <use x="1010.857422" xlink:href="#DejaVuSans-67"/>
      <use x="1074.333984" xlink:href="#DejaVuSans-72"/>
      <use x="1115.416016" xlink:href="#DejaVuSans-65"/>
      <use x="1176.939453" xlink:href="#DejaVuSans-65"/>
      <use x="1238.462891" xlink:href="#DejaVuSans-20"/>
      <use x="1270.25" xlink:href="#DejaVuSans-64"/>
      <use x="1333.726562" xlink:href="#DejaVuSans-69"/>
      <use x="1361.509766" xlink:href="#DejaVuSans-73"/>
      <use x="1413.609375" xlink:href="#DejaVuSans-74"/>
      <use x="1452.818359" xlink:href="#DejaVuSans-72"/>
      <use x="1493.931641" xlink:href="#DejaVuSans-69"/>
      <use x="1521.714844" xlink:href="#DejaVuSans-62"/>
      <use x="1585.191406" xlink:href="#DejaVuSans-75"/>
      <use x="1648.570312" xlink:href="#DejaVuSans-74"/>
      <use x="1687.779297" xlink:href="#DejaVuSans-6f"/>
      <use x="1748.960938" xlink:href="#DejaVuSans-6e"/>
     </g>
    </g>
    <g id="line2d_37">
     <path d="M 64.778125 225.158125 
L 84.778125 225.158125 
" style="fill:none;stroke:#ff0000;stroke-linecap:square;stroke-width:1.5;"/>
    </g>
    <g id="line2d_38"/>
    <g id="text_17">
     <!-- Scale-free network degree distribution ($\gamma = 2$) -->
     <defs>
      <path d="M 53.515625 70.515625 
L 53.515625 60.890625 
Q 47.90625 63.578125 42.921875 64.890625 
Q 37.9375 66.21875 33.296875 66.21875 
Q 25.25 66.21875 20.875 63.09375 
Q 16.5 59.96875 16.5 54.203125 
Q 16.5 49.359375 19.40625 46.890625 
Q 22.3125 44.4375 30.421875 42.921875 
L 36.375 41.703125 
Q 47.40625 39.59375 52.65625 34.296875 
Q 57.90625 29 57.90625 20.125 
Q 57.90625 9.515625 50.796875 4.046875 
Q 43.703125 -1.421875 29.984375 -1.421875 
Q 24.8125 -1.421875 18.96875 -0.25 
Q 13.140625 0.921875 6.890625 3.21875 
L 6.890625 13.375 
Q 12.890625 10.015625 18.65625 8.296875 
Q 24.421875 6.59375 29.984375 6.59375 
Q 38.421875 6.59375 43.015625 9.90625 
Q 47.609375 13.234375 47.609375 19.390625 
Q 47.609375 24.75 44.3125 27.78125 
Q 41.015625 30.8125 33.5 32.328125 
L 27.484375 33.5 
Q 16.453125 35.6875 11.515625 40.375 
Q 6.59375 45.0625 6.59375 53.421875 
Q 6.59375 63.09375 13.40625 68.65625 
Q 20.21875 74.21875 32.171875 74.21875 
Q 37.3125 74.21875 42.625 73.28125 
Q 47.953125 72.359375 53.515625 70.515625 
z
" id="DejaVuSans-53"/>
      <path d="M 9.421875 75.984375 
L 18.40625 75.984375 
L 18.40625 0 
L 9.421875 0 
z
" id="DejaVuSans-6c"/>
      <path d="M 23.296875 46.09375 
L 28.71875 12.3125 
L 54 54.6875 
L 63.53125 54.6875 
L 30.8125 0 
L 26.765625 -20.796875 
L 17.78125 -20.796875 
L 21.828125 0 
L 15.4375 40.828125 
Q 14.453125 46.96875 9.8125 46.96875 
L 7.421875 46.96875 
L 8.890625 54.6875 
L 12.3125 54.6875 
Q 21.921875 54.6875 23.296875 46.09375 
z
" id="DejaVuSans-Oblique-3b3"/>
      <path d="M 10.59375 45.40625 
L 73.1875 45.40625 
L 73.1875 37.203125 
L 10.59375 37.203125 
z
M 10.59375 25.484375 
L 73.1875 25.484375 
L 73.1875 17.1875 
L 10.59375 17.1875 
z
" id="DejaVuSans-3d"/>
     </defs>
     <g transform="translate(92.778125 228.658125)scale(0.1 -0.1)">
      <use transform="translate(0 0.015625)" xlink:href="#DejaVuSans-53"/>
      <use transform="translate(63.476562 0.015625)" xlink:href="#DejaVuSans-63"/>
      <use transform="translate(118.457031 0.015625)" xlink:href="#DejaVuSans-61"/>
      <use transform="translate(179.736328 0.015625)" xlink:href="#DejaVuSans-6c"/>
      <use transform="translate(207.519531 0.015625)" xlink:href="#DejaVuSans-65"/>
      <use transform="translate(269.042969 0.015625)" xlink:href="#DejaVuSans-2d"/>
      <use transform="translate(305.126953 0.015625)" xlink:href="#DejaVuSans-66"/>
      <use transform="translate(340.332031 0.015625)" xlink:href="#DejaVuSans-72"/>
      <use transform="translate(381.445312 0.015625)" xlink:href="#DejaVuSans-65"/>
      <use transform="translate(442.96875 0.015625)" xlink:href="#DejaVuSans-65"/>
      <use transform="translate(504.492188 0.015625)" xlink:href="#DejaVuSans-20"/>
      <use transform="translate(536.279297 0.015625)" xlink:href="#DejaVuSans-6e"/>
      <use transform="translate(599.658203 0.015625)" xlink:href="#DejaVuSans-65"/>
      <use transform="translate(661.181641 0.015625)" xlink:href="#DejaVuSans-74"/>
      <use transform="translate(700.390625 0.015625)" xlink:href="#DejaVuSans-77"/>
      <use transform="translate(782.177734 0.015625)" xlink:href="#DejaVuSans-6f"/>
      <use transform="translate(843.359375 0.015625)" xlink:href="#DejaVuSans-72"/>
      <use transform="translate(884.472656 0.015625)" xlink:href="#DejaVuSans-6b"/>
      <use transform="translate(942.382812 0.015625)" xlink:href="#DejaVuSans-20"/>
      <use transform="translate(974.169922 0.015625)" xlink:href="#DejaVuSans-64"/>
      <use transform="translate(1037.646484 0.015625)" xlink:href="#DejaVuSans-65"/>
      <use transform="translate(1099.169922 0.015625)" xlink:href="#DejaVuSans-67"/>
      <use transform="translate(1162.646484 0.015625)" xlink:href="#DejaVuSans-72"/>
      <use transform="translate(1203.759766 0.015625)" xlink:href="#DejaVuSans-65"/>
      <use transform="translate(1265.283203 0.015625)" xlink:href="#DejaVuSans-65"/>
      <use transform="translate(1326.806641 0.015625)" xlink:href="#DejaVuSans-20"/>
      <use transform="translate(1358.59375 0.015625)" xlink:href="#DejaVuSans-64"/>
      <use transform="translate(1422.070312 0.015625)" xlink:href="#DejaVuSans-69"/>
      <use transform="translate(1449.853516 0.015625)" xlink:href="#DejaVuSans-73"/>
      <use transform="translate(1501.953125 0.015625)" xlink:href="#DejaVuSans-74"/>
      <use transform="translate(1541.162109 0.015625)" xlink:href="#DejaVuSans-72"/>
      <use transform="translate(1582.275391 0.015625)" xlink:href="#DejaVuSans-69"/>
      <use transform="translate(1610.058594 0.015625)" xlink:href="#DejaVuSans-62"/>
      <use transform="translate(1673.535156 0.015625)" xlink:href="#DejaVuSans-75"/>
      <use transform="translate(1736.914062 0.015625)" xlink:href="#DejaVuSans-74"/>
      <use transform="translate(1776.123047 0.015625)" xlink:href="#DejaVuSans-69"/>
      <use transform="translate(1803.90625 0.015625)" xlink:href="#DejaVuSans-6f"/>
      <use transform="translate(1865.087891 0.015625)" xlink:href="#DejaVuSans-6e"/>
      <use transform="translate(1928.466797 0.015625)" xlink:href="#DejaVuSans-20"/>
      <use transform="translate(1960.253906 0.015625)" xlink:href="#DejaVuSans-28"/>
      <use transform="translate(1999.267578 0.015625)" xlink:href="#DejaVuSans-Oblique-3b3"/>
      <use transform="translate(2077.929688 0.015625)" xlink:href="#DejaVuSans-3d"/>
      <use transform="translate(2181.201172 0.015625)" xlink:href="#DejaVuSans-32"/>
      <use transform="translate(2244.824219 0.015625)" xlink:href="#DejaVuSans-29"/>
     </g>
    </g>
   </g>
  </g>
 </g>
 <defs>
  <clipPath id="p21e41af9eb">
   <rect height="217.44" width="558" x="55.778125" y="22.318125"/>
  </clipPath>
 </defs>
</svg>
