<?xml version="1.0" encoding="utf-8" standalone="no"?>
<!DOCTYPE svg PUBLIC "-//W3C//DTD SVG 1.1//EN"
  "http://www.w3.org/Graphics/SVG/1.1/DTD/svg11.dtd">
<!-- Created with matplotlib (http://matplotlib.org/) -->
<svg height="414.11625pt" version="1.1" viewBox="0 0 901.028125 414.11625" width="901.028125pt" xmlns="http://www.w3.org/2000/svg" xmlns:xlink="http://www.w3.org/1999/xlink">
 <defs>
  <style type="text/css">
*{stroke-linecap:butt;stroke-linejoin:round;}
  </style>
 </defs>
 <g id="figure_1">
  <g id="patch_1">
   <path d="M 0 414.11625 
L 901.028125 414.11625 
L 901.028125 0 
L 0 0 
z
" style="fill:#ffffff;"/>
  </g>
  <g id="axes_1">
   <g id="patch_2">
    <path d="M 53.328125 376.56 
L 890.328125 376.56 
L 890.328125 50.4 
L 53.328125 50.4 
z
" style="fill:#ffffff;"/>
   </g>
   <g id="patch_3">
    <path clip-path="url(#pce2eb95190)" d="M 91.37358 376.56 
L 93.940502 376.56 
L 93.940502 376.475013 
L 91.37358 376.475013 
z
" style="fill:#55638a;"/>
   </g>
   <g id="patch_4">
    <path clip-path="url(#pce2eb95190)" d="M 98.707643 376.56 
L 101.274565 376.56 
L 101.274565 376.56 
L 98.707643 376.56 
z
" style="fill:#55638a;"/>
   </g>
   <g id="patch_5">
    <path clip-path="url(#pce2eb95190)" d="M 106.041707 376.56 
L 108.608629 376.56 
L 108.608629 376.56 
L 106.041707 376.56 
z
" style="fill:#55638a;"/>
   </g>
   <g id="patch_6">
    <path clip-path="url(#pce2eb95190)" d="M 113.37577 376.56 
L 115.942692 376.56 
L 115.942692 376.56 
L 113.37577 376.56 
z
" style="fill:#55638a;"/>
   </g>
   <g id="patch_7">
    <path clip-path="url(#pce2eb95190)" d="M 120.709834 376.56 
L 123.276756 376.56 
L 123.276756 376.56 
L 120.709834 376.56 
z
" style="fill:#55638a;"/>
   </g>
   <g id="patch_8">
    <path clip-path="url(#pce2eb95190)" d="M 128.043897 376.56 
L 130.610819 376.56 
L 130.610819 376.56 
L 128.043897 376.56 
z
" style="fill:#55638a;"/>
   </g>
   <g id="patch_9">
    <path clip-path="url(#pce2eb95190)" d="M 135.377961 376.56 
L 137.944883 376.56 
L 137.944883 376.475013 
L 135.377961 376.475013 
z
" style="fill:#55638a;"/>
   </g>
   <g id="patch_10">
    <path clip-path="url(#pce2eb95190)" d="M 142.712024 376.56 
L 145.278946 376.56 
L 145.278946 376.390025 
L 142.712024 376.390025 
z
" style="fill:#55638a;"/>
   </g>
   <g id="patch_11">
    <path clip-path="url(#pce2eb95190)" d="M 150.046088 376.56 
L 152.61301 376.56 
L 152.61301 376.390025 
L 150.046088 376.390025 
z
" style="fill:#55638a;"/>
   </g>
   <g id="patch_12">
    <path clip-path="url(#pce2eb95190)" d="M 157.380151 376.56 
L 159.947074 376.56 
L 159.947074 376.220051 
L 157.380151 376.220051 
z
" style="fill:#55638a;"/>
   </g>
   <g id="patch_13">
    <path clip-path="url(#pce2eb95190)" d="M 164.714215 376.56 
L 167.281137 376.56 
L 167.281137 376.475013 
L 164.714215 376.475013 
z
" style="fill:#55638a;"/>
   </g>
   <g id="patch_14">
    <path clip-path="url(#pce2eb95190)" d="M 172.048278 376.56 
L 174.615201 376.56 
L 174.615201 376.305038 
L 172.048278 376.305038 
z
" style="fill:#55638a;"/>
   </g>
   <g id="patch_15">
    <path clip-path="url(#pce2eb95190)" d="M 179.382342 376.56 
L 181.949264 376.56 
L 181.949264 376.135064 
L 179.382342 376.135064 
z
" style="fill:#55638a;"/>
   </g>
   <g id="patch_16">
    <path clip-path="url(#pce2eb95190)" d="M 186.716405 376.56 
L 189.283328 376.56 
L 189.283328 376.220051 
L 186.716405 376.220051 
z
" style="fill:#55638a;"/>
   </g>
   <g id="patch_17">
    <path clip-path="url(#pce2eb95190)" d="M 194.050469 376.56 
L 196.617391 376.56 
L 196.617391 376.135064 
L 194.050469 376.135064 
z
" style="fill:#55638a;"/>
   </g>
   <g id="patch_18">
    <path clip-path="url(#pce2eb95190)" d="M 201.384532 376.56 
L 203.951455 376.56 
L 203.951455 375.965089 
L 201.384532 375.965089 
z
" style="fill:#55638a;"/>
   </g>
   <g id="patch_19">
    <path clip-path="url(#pce2eb95190)" d="M 208.718596 376.56 
L 211.285518 376.56 
L 211.285518 375.965089 
L 208.718596 375.965089 
z
" style="fill:#55638a;"/>
   </g>
   <g id="patch_20">
    <path clip-path="url(#pce2eb95190)" d="M 216.05266 376.56 
L 218.619582 376.56 
L 218.619582 376.390025 
L 216.05266 376.390025 
z
" style="fill:#55638a;"/>
   </g>
   <g id="patch_21">
    <path clip-path="url(#pce2eb95190)" d="M 223.386723 376.56 
L 225.953645 376.56 
L 225.953645 375.965089 
L 223.386723 375.965089 
z
" style="fill:#55638a;"/>
   </g>
   <g id="patch_22">
    <path clip-path="url(#pce2eb95190)" d="M 230.720787 376.56 
L 233.287709 376.56 
L 233.287709 375.795114 
L 230.720787 375.795114 
z
" style="fill:#55638a;"/>
   </g>
   <g id="patch_23">
    <path clip-path="url(#pce2eb95190)" d="M 238.05485 376.56 
L 240.621772 376.56 
L 240.621772 375.710127 
L 238.05485 375.710127 
z
" style="fill:#55638a;"/>
   </g>
   <g id="patch_24">
    <path clip-path="url(#pce2eb95190)" d="M 245.388914 376.56 
L 247.955836 376.56 
L 247.955836 375.455165 
L 245.388914 375.455165 
z
" style="fill:#55638a;"/>
   </g>
   <g id="patch_25">
    <path clip-path="url(#pce2eb95190)" d="M 252.722977 376.56 
L 255.289899 376.56 
L 255.289899 375.285191 
L 252.722977 375.285191 
z
" style="fill:#55638a;"/>
   </g>
   <g id="patch_26">
    <path clip-path="url(#pce2eb95190)" d="M 260.057041 376.56 
L 262.623963 376.56 
L 262.623963 374.945241 
L 260.057041 374.945241 
z
" style="fill:#55638a;"/>
   </g>
   <g id="patch_27">
    <path clip-path="url(#pce2eb95190)" d="M 267.391104 376.56 
L 269.958026 376.56 
L 269.958026 373.925394 
L 267.391104 373.925394 
z
" style="fill:#55638a;"/>
   </g>
   <g id="patch_28">
    <path clip-path="url(#pce2eb95190)" d="M 274.725168 376.56 
L 277.29209 376.56 
L 277.29209 372.990534 
L 274.725168 372.990534 
z
" style="fill:#55638a;"/>
   </g>
   <g id="patch_29">
    <path clip-path="url(#pce2eb95190)" d="M 282.059231 376.56 
L 284.626153 376.56 
L 284.626153 373.160508 
L 282.059231 373.160508 
z
" style="fill:#55638a;"/>
   </g>
   <g id="patch_30">
    <path clip-path="url(#pce2eb95190)" d="M 289.393295 376.56 
L 291.960217 376.56 
L 291.960217 372.48061 
L 289.393295 372.48061 
z
" style="fill:#55638a;"/>
   </g>
   <g id="patch_31">
    <path clip-path="url(#pce2eb95190)" d="M 296.727358 376.56 
L 299.294281 376.56 
L 299.294281 371.885699 
L 296.727358 371.885699 
z
" style="fill:#55638a;"/>
   </g>
   <g id="patch_32">
    <path clip-path="url(#pce2eb95190)" d="M 304.061422 376.56 
L 306.628344 376.56 
L 306.628344 373.245495 
L 304.061422 373.245495 
z
" style="fill:#55638a;"/>
   </g>
   <g id="patch_33">
    <path clip-path="url(#pce2eb95190)" d="M 311.395485 376.56 
L 313.962408 376.56 
L 313.962408 371.885699 
L 311.395485 371.885699 
z
" style="fill:#55638a;"/>
   </g>
   <g id="patch_34">
    <path clip-path="url(#pce2eb95190)" d="M 318.729549 376.56 
L 321.296471 376.56 
L 321.296471 372.820559 
L 318.729549 372.820559 
z
" style="fill:#55638a;"/>
   </g>
   <g id="patch_35">
    <path clip-path="url(#pce2eb95190)" d="M 326.063612 376.56 
L 328.630535 376.56 
L 328.630535 372.820559 
L 326.063612 372.820559 
z
" style="fill:#55638a;"/>
   </g>
   <g id="patch_36">
    <path clip-path="url(#pce2eb95190)" d="M 333.397676 376.56 
L 335.964598 376.56 
L 335.964598 372.225648 
L 333.397676 372.225648 
z
" style="fill:#55638a;"/>
   </g>
   <g id="patch_37">
    <path clip-path="url(#pce2eb95190)" d="M 340.731739 376.56 
L 343.298662 376.56 
L 343.298662 371.800711 
L 340.731739 371.800711 
z
" style="fill:#55638a;"/>
   </g>
   <g id="patch_38">
    <path clip-path="url(#pce2eb95190)" d="M 348.065803 376.56 
L 350.632725 376.56 
L 350.632725 371.715724 
L 348.065803 371.715724 
z
" style="fill:#55638a;"/>
   </g>
   <g id="patch_39">
    <path clip-path="url(#pce2eb95190)" d="M 355.399867 376.56 
L 357.966789 376.56 
L 357.966789 372.225648 
L 355.399867 372.225648 
z
" style="fill:#55638a;"/>
   </g>
   <g id="patch_40">
    <path clip-path="url(#pce2eb95190)" d="M 362.73393 376.56 
L 365.300852 376.56 
L 365.300852 372.48061 
L 362.73393 372.48061 
z
" style="fill:#55638a;"/>
   </g>
   <g id="patch_41">
    <path clip-path="url(#pce2eb95190)" d="M 370.067994 376.56 
L 372.634916 376.56 
L 372.634916 372.650584 
L 370.067994 372.650584 
z
" style="fill:#55638a;"/>
   </g>
   <g id="patch_42">
    <path clip-path="url(#pce2eb95190)" d="M 377.402057 376.56 
L 379.968979 376.56 
L 379.968979 372.905546 
L 377.402057 372.905546 
z
" style="fill:#55638a;"/>
   </g>
   <g id="patch_43">
    <path clip-path="url(#pce2eb95190)" d="M 384.736121 376.56 
L 387.303043 376.56 
L 387.303043 373.245495 
L 384.736121 373.245495 
z
" style="fill:#55638a;"/>
   </g>
   <g id="patch_44">
    <path clip-path="url(#pce2eb95190)" d="M 392.070184 376.56 
L 394.637106 376.56 
L 394.637106 372.310635 
L 392.070184 372.310635 
z
" style="fill:#55638a;"/>
   </g>
   <g id="patch_45">
    <path clip-path="url(#pce2eb95190)" d="M 399.404248 376.56 
L 401.97117 376.56 
L 401.97117 372.48061 
L 399.404248 372.48061 
z
" style="fill:#55638a;"/>
   </g>
   <g id="patch_46">
    <path clip-path="url(#pce2eb95190)" d="M 406.738311 376.56 
L 409.305233 376.56 
L 409.305233 372.310635 
L 406.738311 372.310635 
z
" style="fill:#55638a;"/>
   </g>
   <g id="patch_47">
    <path clip-path="url(#pce2eb95190)" d="M 414.072375 376.56 
L 416.639297 376.56 
L 416.639297 371.630737 
L 414.072375 371.630737 
z
" style="fill:#55638a;"/>
   </g>
   <g id="patch_48">
    <path clip-path="url(#pce2eb95190)" d="M 421.406438 376.56 
L 423.97336 376.56 
L 423.97336 371.630737 
L 421.406438 371.630737 
z
" style="fill:#55638a;"/>
   </g>
   <g id="patch_49">
    <path clip-path="url(#pce2eb95190)" d="M 428.740502 376.56 
L 431.307424 376.56 
L 431.307424 371.630737 
L 428.740502 371.630737 
z
" style="fill:#55638a;"/>
   </g>
   <g id="patch_50">
    <path clip-path="url(#pce2eb95190)" d="M 436.074565 376.56 
L 438.641488 376.56 
L 438.641488 372.310635 
L 436.074565 372.310635 
z
" style="fill:#55638a;"/>
   </g>
   <g id="patch_51">
    <path clip-path="url(#pce2eb95190)" d="M 443.408629 376.56 
L 445.975551 376.56 
L 445.975551 372.140661 
L 443.408629 372.140661 
z
" style="fill:#55638a;"/>
   </g>
   <g id="patch_52">
    <path clip-path="url(#pce2eb95190)" d="M 450.742692 376.56 
L 453.309615 376.56 
L 453.309615 371.2058 
L 450.742692 371.2058 
z
" style="fill:#55638a;"/>
   </g>
   <g id="patch_53">
    <path clip-path="url(#pce2eb95190)" d="M 458.076756 376.56 
L 460.643678 376.56 
L 460.643678 371.970686 
L 458.076756 371.970686 
z
" style="fill:#55638a;"/>
   </g>
   <g id="patch_54">
    <path clip-path="url(#pce2eb95190)" d="M 465.410819 376.56 
L 467.977742 376.56 
L 467.977742 370.610889 
L 465.410819 370.610889 
z
" style="fill:#55638a;"/>
   </g>
   <g id="patch_55">
    <path clip-path="url(#pce2eb95190)" d="M 472.744883 376.56 
L 475.311805 376.56 
L 475.311805 370.780864 
L 472.744883 370.780864 
z
" style="fill:#55638a;"/>
   </g>
   <g id="patch_56">
    <path clip-path="url(#pce2eb95190)" d="M 480.078946 376.56 
L 482.645869 376.56 
L 482.645869 371.375775 
L 480.078946 371.375775 
z
" style="fill:#55638a;"/>
   </g>
   <g id="patch_57">
    <path clip-path="url(#pce2eb95190)" d="M 487.41301 376.56 
L 489.979932 376.56 
L 489.979932 376.050076 
L 487.41301 376.050076 
z
" style="fill:#55638a;"/>
   </g>
   <g id="patch_58">
    <path clip-path="url(#pce2eb95190)" d="M 494.747074 376.56 
L 497.313996 376.56 
L 497.313996 376.390025 
L 494.747074 376.390025 
z
" style="fill:#55638a;"/>
   </g>
   <g id="patch_59">
    <path clip-path="url(#pce2eb95190)" d="M 502.081137 376.56 
L 504.648059 376.56 
L 504.648059 376.305038 
L 502.081137 376.305038 
z
" style="fill:#55638a;"/>
   </g>
   <g id="patch_60">
    <path clip-path="url(#pce2eb95190)" d="M 509.415201 376.56 
L 511.982123 376.56 
L 511.982123 376.390025 
L 509.415201 376.390025 
z
" style="fill:#55638a;"/>
   </g>
   <g id="patch_61">
    <path clip-path="url(#pce2eb95190)" d="M 516.749264 376.56 
L 519.316186 376.56 
L 519.316186 376.305038 
L 516.749264 376.305038 
z
" style="fill:#55638a;"/>
   </g>
   <g id="patch_62">
    <path clip-path="url(#pce2eb95190)" d="M 524.083328 376.56 
L 526.65025 376.56 
L 526.65025 376.220051 
L 524.083328 376.220051 
z
" style="fill:#55638a;"/>
   </g>
   <g id="patch_63">
    <path clip-path="url(#pce2eb95190)" d="M 531.417391 376.56 
L 533.984313 376.56 
L 533.984313 375.965089 
L 531.417391 375.965089 
z
" style="fill:#55638a;"/>
   </g>
   <g id="patch_64">
    <path clip-path="url(#pce2eb95190)" d="M 538.751455 376.56 
L 541.318377 376.56 
L 541.318377 371.375775 
L 538.751455 371.375775 
z
" style="fill:#55638a;"/>
   </g>
   <g id="patch_65">
    <path clip-path="url(#pce2eb95190)" d="M 546.085518 376.56 
L 548.65244 376.56 
L 548.65244 368.486207 
L 546.085518 368.486207 
z
" style="fill:#55638a;"/>
   </g>
   <g id="patch_66">
    <path clip-path="url(#pce2eb95190)" d="M 553.419582 376.56 
L 555.986504 376.56 
L 555.986504 368.826156 
L 553.419582 368.826156 
z
" style="fill:#55638a;"/>
   </g>
   <g id="patch_67">
    <path clip-path="url(#pce2eb95190)" d="M 560.753645 376.56 
L 563.320567 376.56 
L 563.320567 367.211397 
L 560.753645 367.211397 
z
" style="fill:#55638a;"/>
   </g>
   <g id="patch_68">
    <path clip-path="url(#pce2eb95190)" d="M 568.087709 376.56 
L 570.654631 376.56 
L 570.654631 366.956435 
L 568.087709 366.956435 
z
" style="fill:#55638a;"/>
   </g>
   <g id="patch_69">
    <path clip-path="url(#pce2eb95190)" d="M 575.421772 376.56 
L 577.988695 376.56 
L 577.988695 366.531499 
L 575.421772 366.531499 
z
" style="fill:#55638a;"/>
   </g>
   <g id="patch_70">
    <path clip-path="url(#pce2eb95190)" d="M 582.755836 376.56 
L 585.322758 376.56 
L 585.322758 367.636334 
L 582.755836 367.636334 
z
" style="fill:#55638a;"/>
   </g>
   <g id="patch_71">
    <path clip-path="url(#pce2eb95190)" d="M 590.089899 376.56 
L 592.656822 376.56 
L 592.656822 366.956435 
L 590.089899 366.956435 
z
" style="fill:#55638a;"/>
   </g>
   <g id="patch_72">
    <path clip-path="url(#pce2eb95190)" d="M 597.423963 376.56 
L 599.990885 376.56 
L 599.990885 369.33608 
L 597.423963 369.33608 
z
" style="fill:#55638a;"/>
   </g>
   <g id="patch_73">
    <path clip-path="url(#pce2eb95190)" d="M 604.758026 376.56 
L 607.324949 376.56 
L 607.324949 366.446512 
L 604.758026 366.446512 
z
" style="fill:#55638a;"/>
   </g>
   <g id="patch_74">
    <path clip-path="url(#pce2eb95190)" d="M 612.09209 376.56 
L 614.659012 376.56 
L 614.659012 365.681626 
L 612.09209 365.681626 
z
" style="fill:#55638a;"/>
   </g>
   <g id="patch_75">
    <path clip-path="url(#pce2eb95190)" d="M 619.426153 376.56 
L 621.993076 376.56 
L 621.993076 367.12641 
L 619.426153 367.12641 
z
" style="fill:#55638a;"/>
   </g>
   <g id="patch_76">
    <path clip-path="url(#pce2eb95190)" d="M 626.760217 376.56 
L 629.327139 376.56 
L 629.327139 366.616486 
L 626.760217 366.616486 
z
" style="fill:#55638a;"/>
   </g>
   <g id="patch_77">
    <path clip-path="url(#pce2eb95190)" d="M 634.094281 376.56 
L 636.661203 376.56 
L 636.661203 365.341677 
L 634.094281 365.341677 
z
" style="fill:#55638a;"/>
   </g>
   <g id="patch_78">
    <path clip-path="url(#pce2eb95190)" d="M 641.428344 376.56 
L 643.995266 376.56 
L 643.995266 367.041423 
L 641.428344 367.041423 
z
" style="fill:#55638a;"/>
   </g>
   <g id="patch_79">
    <path clip-path="url(#pce2eb95190)" d="M 648.762408 376.56 
L 651.32933 376.56 
L 651.32933 366.956435 
L 648.762408 366.956435 
z
" style="fill:#55638a;"/>
   </g>
   <g id="patch_80">
    <path clip-path="url(#pce2eb95190)" d="M 656.096471 376.56 
L 658.663393 376.56 
L 658.663393 367.041423 
L 656.096471 367.041423 
z
" style="fill:#55638a;"/>
   </g>
   <g id="patch_81">
    <path clip-path="url(#pce2eb95190)" d="M 663.430535 376.56 
L 665.997457 376.56 
L 665.997457 364.91674 
L 663.430535 364.91674 
z
" style="fill:#55638a;"/>
   </g>
   <g id="patch_82">
    <path clip-path="url(#pce2eb95190)" d="M 670.764598 376.56 
L 673.33152 376.56 
L 673.33152 363.98188 
L 670.764598 363.98188 
z
" style="fill:#55638a;"/>
   </g>
   <g id="patch_83">
    <path clip-path="url(#pce2eb95190)" d="M 678.098662 376.56 
L 680.665584 376.56 
L 680.665584 363.98188 
L 678.098662 363.98188 
z
" style="fill:#55638a;"/>
   </g>
   <g id="patch_84">
    <path clip-path="url(#pce2eb95190)" d="M 685.432725 376.56 
L 687.999647 376.56 
L 687.999647 362.112159 
L 685.432725 362.112159 
z
" style="fill:#55638a;"/>
   </g>
   <g id="patch_85">
    <path clip-path="url(#pce2eb95190)" d="M 692.766789 376.56 
L 695.333711 376.56 
L 695.333711 361.77221 
L 692.766789 361.77221 
z
" style="fill:#55638a;"/>
   </g>
   <g id="patch_86">
    <path clip-path="url(#pce2eb95190)" d="M 700.100852 376.56 
L 702.667775 376.56 
L 702.667775 362.367121 
L 700.100852 362.367121 
z
" style="fill:#55638a;"/>
   </g>
   <g id="patch_87">
    <path clip-path="url(#pce2eb95190)" d="M 707.434916 376.56 
L 710.001838 376.56 
L 710.001838 362.452109 
L 707.434916 362.452109 
z
" style="fill:#55638a;"/>
   </g>
   <g id="patch_88">
    <path clip-path="url(#pce2eb95190)" d="M 714.768979 376.56 
L 717.335902 376.56 
L 717.335902 361.432261 
L 714.768979 361.432261 
z
" style="fill:#55638a;"/>
   </g>
   <g id="patch_89">
    <path clip-path="url(#pce2eb95190)" d="M 722.103043 376.56 
L 724.669965 376.56 
L 724.669965 363.301982 
L 722.103043 363.301982 
z
" style="fill:#55638a;"/>
   </g>
   <g id="patch_90">
    <path clip-path="url(#pce2eb95190)" d="M 729.437106 376.56 
L 732.004029 376.56 
L 732.004029 361.857198 
L 729.437106 361.857198 
z
" style="fill:#55638a;"/>
   </g>
   <g id="patch_91">
    <path clip-path="url(#pce2eb95190)" d="M 736.77117 376.56 
L 739.338092 376.56 
L 739.338092 359.987477 
L 736.77117 359.987477 
z
" style="fill:#55638a;"/>
   </g>
   <g id="patch_92">
    <path clip-path="url(#pce2eb95190)" d="M 744.105233 376.56 
L 746.672156 376.56 
L 746.672156 356.75796 
L 744.105233 356.75796 
z
" style="fill:#55638a;"/>
   </g>
   <g id="patch_93">
    <path clip-path="url(#pce2eb95190)" d="M 751.439297 376.56 
L 754.006219 376.56 
L 754.006219 356.502998 
L 751.439297 356.502998 
z
" style="fill:#55638a;"/>
   </g>
   <g id="patch_94">
    <path clip-path="url(#pce2eb95190)" d="M 758.77336 376.56 
L 761.340283 376.56 
L 761.340283 354.038366 
L 758.77336 354.038366 
z
" style="fill:#55638a;"/>
   </g>
   <g id="patch_95">
    <path clip-path="url(#pce2eb95190)" d="M 766.107424 376.56 
L 768.674346 376.56 
L 768.674346 350.808849 
L 766.107424 350.808849 
z
" style="fill:#55638a;"/>
   </g>
   <g id="patch_96">
    <path clip-path="url(#pce2eb95190)" d="M 773.441488 376.56 
L 776.00841 376.56 
L 776.00841 347.154395 
L 773.441488 347.154395 
z
" style="fill:#55638a;"/>
   </g>
   <g id="patch_97">
    <path clip-path="url(#pce2eb95190)" d="M 780.775551 376.56 
L 783.342473 376.56 
L 783.342473 345.964573 
L 780.775551 345.964573 
z
" style="fill:#55638a;"/>
   </g>
   <g id="patch_98">
    <path clip-path="url(#pce2eb95190)" d="M 788.109615 376.56 
L 790.676537 376.56 
L 790.676537 346.814446 
L 788.109615 346.814446 
z
" style="fill:#55638a;"/>
   </g>
   <g id="patch_99">
    <path clip-path="url(#pce2eb95190)" d="M 795.443678 376.56 
L 798.0106 376.56 
L 798.0106 348.004268 
L 795.443678 348.004268 
z
" style="fill:#55638a;"/>
   </g>
   <g id="patch_100">
    <path clip-path="url(#pce2eb95190)" d="M 802.777742 376.56 
L 805.344664 376.56 
L 805.344664 341.375259 
L 802.777742 341.375259 
z
" style="fill:#55638a;"/>
   </g>
   <g id="patch_101">
    <path clip-path="url(#pce2eb95190)" d="M 810.111805 376.56 
L 812.678727 376.56 
L 812.678727 341.630221 
L 810.111805 341.630221 
z
" style="fill:#55638a;"/>
   </g>
   <g id="patch_102">
    <path clip-path="url(#pce2eb95190)" d="M 817.445869 376.56 
L 820.012791 376.56 
L 820.012791 336.530983 
L 817.445869 336.530983 
z
" style="fill:#55638a;"/>
   </g>
   <g id="patch_103">
    <path clip-path="url(#pce2eb95190)" d="M 824.779932 376.56 
L 827.346854 376.56 
L 827.346854 334.491288 
L 824.779932 334.491288 
z
" style="fill:#55638a;"/>
   </g>
   <g id="patch_104">
    <path clip-path="url(#pce2eb95190)" d="M 832.113996 376.56 
L 834.680918 376.56 
L 834.680918 346.814446 
L 832.113996 346.814446 
z
" style="fill:#55638a;"/>
   </g>
   <g id="patch_105">
    <path clip-path="url(#pce2eb95190)" d="M 839.448059 376.56 
L 842.014982 376.56 
L 842.014982 362.027172 
L 839.448059 362.027172 
z
" style="fill:#55638a;"/>
   </g>
   <g id="patch_106">
    <path clip-path="url(#pce2eb95190)" d="M 846.782123 376.56 
L 849.349045 376.56 
L 849.349045 371.2058 
L 846.782123 371.2058 
z
" style="fill:#55638a;"/>
   </g>
   <g id="patch_107">
    <path clip-path="url(#pce2eb95190)" d="M 94.307205 376.56 
L 96.874127 376.56 
L 96.874127 376.050076 
L 94.307205 376.050076 
z
" style="fill:#9e1030;"/>
   </g>
   <g id="patch_108">
    <path clip-path="url(#pce2eb95190)" d="M 101.641268 376.56 
L 104.208191 376.56 
L 104.208191 376.56 
L 101.641268 376.56 
z
" style="fill:#9e1030;"/>
   </g>
   <g id="patch_109">
    <path clip-path="url(#pce2eb95190)" d="M 108.975332 376.56 
L 111.542254 376.56 
L 111.542254 376.56 
L 108.975332 376.56 
z
" style="fill:#9e1030;"/>
   </g>
   <g id="patch_110">
    <path clip-path="url(#pce2eb95190)" d="M 116.309396 376.56 
L 118.876318 376.56 
L 118.876318 376.56 
L 116.309396 376.56 
z
" style="fill:#9e1030;"/>
   </g>
   <g id="patch_111">
    <path clip-path="url(#pce2eb95190)" d="M 123.643459 376.56 
L 126.210381 376.56 
L 126.210381 376.56 
L 123.643459 376.56 
z
" style="fill:#9e1030;"/>
   </g>
   <g id="patch_112">
    <path clip-path="url(#pce2eb95190)" d="M 130.977523 376.56 
L 133.544445 376.56 
L 133.544445 376.56 
L 130.977523 376.56 
z
" style="fill:#9e1030;"/>
   </g>
   <g id="patch_113">
    <path clip-path="url(#pce2eb95190)" d="M 138.311586 376.56 
L 140.878508 376.56 
L 140.878508 376.050076 
L 138.311586 376.050076 
z
" style="fill:#9e1030;"/>
   </g>
   <g id="patch_114">
    <path clip-path="url(#pce2eb95190)" d="M 145.64565 376.56 
L 148.212572 376.56 
L 148.212572 375.540152 
L 145.64565 375.540152 
z
" style="fill:#9e1030;"/>
   </g>
   <g id="patch_115">
    <path clip-path="url(#pce2eb95190)" d="M 152.979713 376.56 
L 155.546635 376.56 
L 155.546635 375.540152 
L 152.979713 375.540152 
z
" style="fill:#9e1030;"/>
   </g>
   <g id="patch_116">
    <path clip-path="url(#pce2eb95190)" d="M 160.313777 376.56 
L 162.880699 376.56 
L 162.880699 372.140661 
L 160.313777 372.140661 
z
" style="fill:#9e1030;"/>
   </g>
   <g id="patch_117">
    <path clip-path="url(#pce2eb95190)" d="M 167.64784 376.56 
L 170.214762 376.56 
L 170.214762 376.050076 
L 167.64784 376.050076 
z
" style="fill:#9e1030;"/>
   </g>
   <g id="patch_118">
    <path clip-path="url(#pce2eb95190)" d="M 174.981904 376.56 
L 177.548826 376.56 
L 177.548826 373.925394 
L 174.981904 373.925394 
z
" style="fill:#9e1030;"/>
   </g>
   <g id="patch_119">
    <path clip-path="url(#pce2eb95190)" d="M 182.315967 376.56 
L 184.88289 376.56 
L 184.88289 369.591042 
L 182.315967 369.591042 
z
" style="fill:#9e1030;"/>
   </g>
   <g id="patch_120">
    <path clip-path="url(#pce2eb95190)" d="M 189.650031 376.56 
L 192.216953 376.56 
L 192.216953 372.990534 
L 189.650031 372.990534 
z
" style="fill:#9e1030;"/>
   </g>
   <g id="patch_121">
    <path clip-path="url(#pce2eb95190)" d="M 196.984094 376.56 
L 199.551017 376.56 
L 199.551017 371.375775 
L 196.984094 371.375775 
z
" style="fill:#9e1030;"/>
   </g>
   <g id="patch_122">
    <path clip-path="url(#pce2eb95190)" d="M 204.318158 376.56 
L 206.88508 376.56 
L 206.88508 370.440915 
L 204.318158 370.440915 
z
" style="fill:#9e1030;"/>
   </g>
   <g id="patch_123">
    <path clip-path="url(#pce2eb95190)" d="M 211.652221 376.56 
L 214.219144 376.56 
L 214.219144 372.990534 
L 211.652221 372.990534 
z
" style="fill:#9e1030;"/>
   </g>
   <g id="patch_124">
    <path clip-path="url(#pce2eb95190)" d="M 218.986285 376.56 
L 221.553207 376.56 
L 221.553207 375.540152 
L 218.986285 375.540152 
z
" style="fill:#9e1030;"/>
   </g>
   <g id="patch_125">
    <path clip-path="url(#pce2eb95190)" d="M 226.320348 376.56 
L 228.887271 376.56 
L 228.887271 372.650584 
L 226.320348 372.650584 
z
" style="fill:#9e1030;"/>
   </g>
   <g id="patch_126">
    <path clip-path="url(#pce2eb95190)" d="M 233.654412 376.56 
L 236.221334 376.56 
L 236.221334 371.2058 
L 233.654412 371.2058 
z
" style="fill:#9e1030;"/>
   </g>
   <g id="patch_127">
    <path clip-path="url(#pce2eb95190)" d="M 240.988475 376.56 
L 243.555398 376.56 
L 243.555398 371.460762 
L 240.988475 371.460762 
z
" style="fill:#9e1030;"/>
   </g>
   <g id="patch_128">
    <path clip-path="url(#pce2eb95190)" d="M 248.322539 376.56 
L 250.889461 376.56 
L 250.889461 369.166105 
L 248.322539 369.166105 
z
" style="fill:#9e1030;"/>
   </g>
   <g id="patch_129">
    <path clip-path="url(#pce2eb95190)" d="M 255.656603 376.56 
L 258.223525 376.56 
L 258.223525 365.256689 
L 255.656603 365.256689 
z
" style="fill:#9e1030;"/>
   </g>
   <g id="patch_130">
    <path clip-path="url(#pce2eb95190)" d="M 262.990666 376.56 
L 265.557588 376.56 
L 265.557588 366.531499 
L 262.990666 366.531499 
z
" style="fill:#9e1030;"/>
   </g>
   <g id="patch_131">
    <path clip-path="url(#pce2eb95190)" d="M 270.32473 376.56 
L 272.891652 376.56 
L 272.891652 357.267884 
L 270.32473 357.267884 
z
" style="fill:#9e1030;"/>
   </g>
   <g id="patch_132">
    <path clip-path="url(#pce2eb95190)" d="M 277.658793 376.56 
L 280.225715 376.56 
L 280.225715 351.063811 
L 277.658793 351.063811 
z
" style="fill:#9e1030;"/>
   </g>
   <g id="patch_133">
    <path clip-path="url(#pce2eb95190)" d="M 284.992857 376.56 
L 287.559779 376.56 
L 287.559779 354.378315 
L 284.992857 354.378315 
z
" style="fill:#9e1030;"/>
   </g>
   <g id="patch_134">
    <path clip-path="url(#pce2eb95190)" d="M 292.32692 376.56 
L 294.893842 376.56 
L 294.893842 342.735056 
L 292.32692 342.735056 
z
" style="fill:#9e1030;"/>
   </g>
   <g id="patch_135">
    <path clip-path="url(#pce2eb95190)" d="M 299.660984 376.56 
L 302.227906 376.56 
L 302.227906 341.545234 
L 299.660984 341.545234 
z
" style="fill:#9e1030;"/>
   </g>
   <g id="patch_136">
    <path clip-path="url(#pce2eb95190)" d="M 306.995047 376.56 
L 309.561969 376.56 
L 309.561969 354.718265 
L 306.995047 354.718265 
z
" style="fill:#9e1030;"/>
   </g>
   <g id="patch_137">
    <path clip-path="url(#pce2eb95190)" d="M 314.329111 376.56 
L 316.896033 376.56 
L 316.896033 344.689764 
L 314.329111 344.689764 
z
" style="fill:#9e1030;"/>
   </g>
   <g id="patch_138">
    <path clip-path="url(#pce2eb95190)" d="M 321.663174 376.56 
L 324.230097 376.56 
L 324.230097 351.573735 
L 321.663174 351.573735 
z
" style="fill:#9e1030;"/>
   </g>
   <g id="patch_139">
    <path clip-path="url(#pce2eb95190)" d="M 328.997238 376.56 
L 331.56416 376.56 
L 331.56416 350.213938 
L 328.997238 350.213938 
z
" style="fill:#9e1030;"/>
   </g>
   <g id="patch_140">
    <path clip-path="url(#pce2eb95190)" d="M 336.331301 376.56 
L 338.898224 376.56 
L 338.898224 345.964573 
L 336.331301 345.964573 
z
" style="fill:#9e1030;"/>
   </g>
   <g id="patch_141">
    <path clip-path="url(#pce2eb95190)" d="M 343.665365 376.56 
L 346.232287 376.56 
L 346.232287 344.264827 
L 343.665365 344.264827 
z
" style="fill:#9e1030;"/>
   </g>
   <g id="patch_142">
    <path clip-path="url(#pce2eb95190)" d="M 350.999428 376.56 
L 353.566351 376.56 
L 353.566351 344.17984 
L 350.999428 344.17984 
z
" style="fill:#9e1030;"/>
   </g>
   <g id="patch_143">
    <path clip-path="url(#pce2eb95190)" d="M 358.333492 376.56 
L 360.900414 376.56 
L 360.900414 348.344217 
L 358.333492 348.344217 
z
" style="fill:#9e1030;"/>
   </g>
   <g id="patch_144">
    <path clip-path="url(#pce2eb95190)" d="M 365.667555 376.56 
L 368.234478 376.56 
L 368.234478 351.913684 
L 365.667555 351.913684 
z
" style="fill:#9e1030;"/>
   </g>
   <g id="patch_145">
    <path clip-path="url(#pce2eb95190)" d="M 373.001619 376.56 
L 375.568541 376.56 
L 375.568541 351.488747 
L 373.001619 351.488747 
z
" style="fill:#9e1030;"/>
   </g>
   <g id="patch_146">
    <path clip-path="url(#pce2eb95190)" d="M 380.335683 376.56 
L 382.902605 376.56 
L 382.902605 353.018519 
L 380.335683 353.018519 
z
" style="fill:#9e1030;"/>
   </g>
   <g id="patch_147">
    <path clip-path="url(#pce2eb95190)" d="M 387.669746 376.56 
L 390.236668 376.56 
L 390.236668 356.842947 
L 387.669746 356.842947 
z
" style="fill:#9e1030;"/>
   </g>
   <g id="patch_148">
    <path clip-path="url(#pce2eb95190)" d="M 395.00381 376.56 
L 397.570732 376.56 
L 397.570732 349.449052 
L 395.00381 349.449052 
z
" style="fill:#9e1030;"/>
   </g>
   <g id="patch_149">
    <path clip-path="url(#pce2eb95190)" d="M 402.337873 376.56 
L 404.904795 376.56 
L 404.904795 350.638874 
L 402.337873 350.638874 
z
" style="fill:#9e1030;"/>
   </g>
   <g id="patch_150">
    <path clip-path="url(#pce2eb95190)" d="M 409.671937 376.56 
L 412.238859 376.56 
L 412.238859 350.723862 
L 409.671937 350.723862 
z
" style="fill:#9e1030;"/>
   </g>
   <g id="patch_151">
    <path clip-path="url(#pce2eb95190)" d="M 417.006 376.56 
L 419.572922 376.56 
L 419.572922 346.984421 
L 417.006 346.984421 
z
" style="fill:#9e1030;"/>
   </g>
   <g id="patch_152">
    <path clip-path="url(#pce2eb95190)" d="M 424.340064 376.56 
L 426.906986 376.56 
L 426.906986 344.604776 
L 424.340064 344.604776 
z
" style="fill:#9e1030;"/>
   </g>
   <g id="patch_153">
    <path clip-path="url(#pce2eb95190)" d="M 431.674127 376.56 
L 434.241049 376.56 
L 434.241049 344.859738 
L 431.674127 344.859738 
z
" style="fill:#9e1030;"/>
   </g>
   <g id="patch_154">
    <path clip-path="url(#pce2eb95190)" d="M 439.008191 376.56 
L 441.575113 376.56 
L 441.575113 348.25923 
L 439.008191 348.25923 
z
" style="fill:#9e1030;"/>
   </g>
   <g id="patch_155">
    <path clip-path="url(#pce2eb95190)" d="M 446.342254 376.56 
L 448.909176 376.56 
L 448.909176 348.939128 
L 446.342254 348.939128 
z
" style="fill:#9e1030;"/>
   </g>
   <g id="patch_156">
    <path clip-path="url(#pce2eb95190)" d="M 453.676318 376.56 
L 456.24324 376.56 
L 456.24324 341.800195 
L 453.676318 341.800195 
z
" style="fill:#9e1030;"/>
   </g>
   <g id="patch_157">
    <path clip-path="url(#pce2eb95190)" d="M 461.010381 376.56 
L 463.577304 376.56 
L 463.577304 346.814446 
L 461.010381 346.814446 
z
" style="fill:#9e1030;"/>
   </g>
   <g id="patch_158">
    <path clip-path="url(#pce2eb95190)" d="M 468.344445 376.56 
L 470.911367 376.56 
L 470.911367 338.485691 
L 468.344445 338.485691 
z
" style="fill:#9e1030;"/>
   </g>
   <g id="patch_159">
    <path clip-path="url(#pce2eb95190)" d="M 475.678508 376.56 
L 478.245431 376.56 
L 478.245431 340.865335 
L 475.678508 340.865335 
z
" style="fill:#9e1030;"/>
   </g>
   <g id="patch_160">
    <path clip-path="url(#pce2eb95190)" d="M 483.012572 376.56 
L 485.579494 376.56 
L 485.579494 343.754903 
L 483.012572 343.754903 
z
" style="fill:#9e1030;"/>
   </g>
   <g id="patch_161">
    <path clip-path="url(#pce2eb95190)" d="M 490.346635 376.56 
L 492.913558 376.56 
L 492.913558 373.500457 
L 490.346635 373.500457 
z
" style="fill:#9e1030;"/>
   </g>
   <g id="patch_162">
    <path clip-path="url(#pce2eb95190)" d="M 497.680699 376.56 
L 500.247621 376.56 
L 500.247621 375.540152 
L 497.680699 375.540152 
z
" style="fill:#9e1030;"/>
   </g>
   <g id="patch_163">
    <path clip-path="url(#pce2eb95190)" d="M 505.014762 376.56 
L 507.581685 376.56 
L 507.581685 375.030229 
L 505.014762 375.030229 
z
" style="fill:#9e1030;"/>
   </g>
   <g id="patch_164">
    <path clip-path="url(#pce2eb95190)" d="M 512.348826 376.56 
L 514.915748 376.56 
L 514.915748 374.775267 
L 512.348826 374.775267 
z
" style="fill:#9e1030;"/>
   </g>
   <g id="patch_165">
    <path clip-path="url(#pce2eb95190)" d="M 519.68289 376.56 
L 522.249812 376.56 
L 522.249812 373.755419 
L 519.68289 373.755419 
z
" style="fill:#9e1030;"/>
   </g>
   <g id="patch_166">
    <path clip-path="url(#pce2eb95190)" d="M 527.016953 376.56 
L 529.583875 376.56 
L 529.583875 370.610889 
L 527.016953 370.610889 
z
" style="fill:#9e1030;"/>
   </g>
   <g id="patch_167">
    <path clip-path="url(#pce2eb95190)" d="M 534.351017 376.56 
L 536.917939 376.56 
L 536.917939 370.695876 
L 534.351017 370.695876 
z
" style="fill:#9e1030;"/>
   </g>
   <g id="patch_168">
    <path clip-path="url(#pce2eb95190)" d="M 541.68508 376.56 
L 544.252002 376.56 
L 544.252002 342.735056 
L 541.68508 342.735056 
z
" style="fill:#9e1030;"/>
   </g>
   <g id="patch_169">
    <path clip-path="url(#pce2eb95190)" d="M 549.019144 376.56 
L 551.586066 376.56 
L 551.586066 325.142685 
L 549.019144 325.142685 
z
" style="fill:#9e1030;"/>
   </g>
   <g id="patch_170">
    <path clip-path="url(#pce2eb95190)" d="M 556.353207 376.56 
L 558.920129 376.56 
L 558.920129 320.723346 
L 556.353207 320.723346 
z
" style="fill:#9e1030;"/>
   </g>
   <g id="patch_171">
    <path clip-path="url(#pce2eb95190)" d="M 563.687271 376.56 
L 566.254193 376.56 
L 566.254193 307.635302 
L 563.687271 307.635302 
z
" style="fill:#9e1030;"/>
   </g>
   <g id="patch_172">
    <path clip-path="url(#pce2eb95190)" d="M 571.021334 376.56 
L 573.588256 376.56 
L 573.588256 312.394591 
L 571.021334 312.394591 
z
" style="fill:#9e1030;"/>
   </g>
   <g id="patch_173">
    <path clip-path="url(#pce2eb95190)" d="M 578.355398 376.56 
L 580.92232 376.56 
L 580.92232 304.320797 
L 578.355398 304.320797 
z
" style="fill:#9e1030;"/>
   </g>
   <g id="patch_174">
    <path clip-path="url(#pce2eb95190)" d="M 585.689461 376.56 
L 588.256383 376.56 
L 588.256383 313.499425 
L 585.689461 313.499425 
z
" style="fill:#9e1030;"/>
   </g>
   <g id="patch_175">
    <path clip-path="url(#pce2eb95190)" d="M 593.023525 376.56 
L 595.590447 376.56 
L 595.590447 309.420035 
L 593.023525 309.420035 
z
" style="fill:#9e1030;"/>
   </g>
   <g id="patch_176">
    <path clip-path="url(#pce2eb95190)" d="M 600.357588 376.56 
L 602.924511 376.56 
L 602.924511 326.24752 
L 600.357588 326.24752 
z
" style="fill:#9e1030;"/>
   </g>
   <g id="patch_177">
    <path clip-path="url(#pce2eb95190)" d="M 607.691652 376.56 
L 610.258574 376.56 
L 610.258574 305.425632 
L 607.691652 305.425632 
z
" style="fill:#9e1030;"/>
   </g>
   <g id="patch_178">
    <path clip-path="url(#pce2eb95190)" d="M 615.025715 376.56 
L 617.592638 376.56 
L 617.592638 300.666344 
L 615.025715 300.666344 
z
" style="fill:#9e1030;"/>
   </g>
   <g id="patch_179">
    <path clip-path="url(#pce2eb95190)" d="M 622.359779 376.56 
L 624.926701 376.56 
L 624.926701 315.87907 
L 622.359779 315.87907 
z
" style="fill:#9e1030;"/>
   </g>
   <g id="patch_180">
    <path clip-path="url(#pce2eb95190)" d="M 629.693842 376.56 
L 632.260765 376.56 
L 632.260765 311.629705 
L 629.693842 311.629705 
z
" style="fill:#9e1030;"/>
   </g>
   <g id="patch_181">
    <path clip-path="url(#pce2eb95190)" d="M 637.027906 376.56 
L 639.594828 376.56 
L 639.594828 304.745734 
L 637.027906 304.745734 
z
" style="fill:#9e1030;"/>
   </g>
   <g id="patch_182">
    <path clip-path="url(#pce2eb95190)" d="M 644.361969 376.56 
L 646.928892 376.56 
L 646.928892 311.799679 
L 644.361969 311.799679 
z
" style="fill:#9e1030;"/>
   </g>
   <g id="patch_183">
    <path clip-path="url(#pce2eb95190)" d="M 651.696033 376.56 
L 654.262955 376.56 
L 654.262955 307.975251 
L 651.696033 307.975251 
z
" style="fill:#9e1030;"/>
   </g>
   <g id="patch_184">
    <path clip-path="url(#pce2eb95190)" d="M 659.030097 376.56 
L 661.597019 376.56 
L 661.597019 315.029197 
L 659.030097 315.029197 
z
" style="fill:#9e1030;"/>
   </g>
   <g id="patch_185">
    <path clip-path="url(#pce2eb95190)" d="M 666.36416 376.56 
L 668.931082 376.56 
L 668.931082 300.666344 
L 666.36416 300.666344 
z
" style="fill:#9e1030;"/>
   </g>
   <g id="patch_186">
    <path clip-path="url(#pce2eb95190)" d="M 673.698224 376.56 
L 676.265146 376.56 
L 676.265146 294.122322 
L 673.698224 294.122322 
z
" style="fill:#9e1030;"/>
   </g>
   <g id="patch_187">
    <path clip-path="url(#pce2eb95190)" d="M 681.032287 376.56 
L 683.599209 376.56 
L 683.599209 295.482118 
L 681.032287 295.482118 
z
" style="fill:#9e1030;"/>
   </g>
   <g id="patch_188">
    <path clip-path="url(#pce2eb95190)" d="M 688.366351 376.56 
L 690.933273 376.56 
L 690.933273 278.654634 
L 688.366351 278.654634 
z
" style="fill:#9e1030;"/>
   </g>
   <g id="patch_189">
    <path clip-path="url(#pce2eb95190)" d="M 695.700414 376.56 
L 698.267336 376.56 
L 698.267336 281.374227 
L 695.700414 281.374227 
z
" style="fill:#9e1030;"/>
   </g>
   <g id="patch_190">
    <path clip-path="url(#pce2eb95190)" d="M 703.034478 376.56 
L 705.6014 376.56 
L 705.6014 285.36863 
L 703.034478 285.36863 
z
" style="fill:#9e1030;"/>
   </g>
   <g id="patch_191">
    <path clip-path="url(#pce2eb95190)" d="M 710.368541 376.56 
L 712.935463 376.56 
L 712.935463 286.388478 
L 710.368541 286.388478 
z
" style="fill:#9e1030;"/>
   </g>
   <g id="patch_192">
    <path clip-path="url(#pce2eb95190)" d="M 717.702605 376.56 
L 720.269527 376.56 
L 720.269527 279.334532 
L 717.702605 279.334532 
z
" style="fill:#9e1030;"/>
   </g>
   <g id="patch_193">
    <path clip-path="url(#pce2eb95190)" d="M 725.036668 376.56 
L 727.60359 376.56 
L 727.60359 286.048528 
L 725.036668 286.048528 
z
" style="fill:#9e1030;"/>
   </g>
   <g id="patch_194">
    <path clip-path="url(#pce2eb95190)" d="M 732.370732 376.56 
L 734.937654 376.56 
L 734.937654 283.328935 
L 732.370732 283.328935 
z
" style="fill:#9e1030;"/>
   </g>
   <g id="patch_195">
    <path clip-path="url(#pce2eb95190)" d="M 739.704795 376.56 
L 742.271718 376.56 
L 742.271718 273.810358 
L 739.704795 273.810358 
z
" style="fill:#9e1030;"/>
   </g>
   <g id="patch_196">
    <path clip-path="url(#pce2eb95190)" d="M 747.038859 376.56 
L 749.605781 376.56 
L 749.605781 249.334016 
L 747.038859 249.334016 
z
" style="fill:#9e1030;"/>
   </g>
   <g id="patch_197">
    <path clip-path="url(#pce2eb95190)" d="M 754.372922 376.56 
L 756.939845 376.56 
L 756.939845 246.784397 
L 754.372922 246.784397 
z
" style="fill:#9e1030;"/>
   </g>
   <g id="patch_198">
    <path clip-path="url(#pce2eb95190)" d="M 761.706986 376.56 
L 764.273908 376.56 
L 764.273908 228.087192 
L 761.706986 228.087192 
z
" style="fill:#9e1030;"/>
   </g>
   <g id="patch_199">
    <path clip-path="url(#pce2eb95190)" d="M 769.041049 376.56 
L 771.607972 376.56 
L 771.607972 213.9793 
L 769.041049 213.9793 
z
" style="fill:#9e1030;"/>
   </g>
   <g id="patch_200">
    <path clip-path="url(#pce2eb95190)" d="M 776.375113 376.56 
L 778.942035 376.56 
L 778.942035 174.120258 
L 776.375113 174.120258 
z
" style="fill:#9e1030;"/>
   </g>
   <g id="patch_201">
    <path clip-path="url(#pce2eb95190)" d="M 783.709176 376.56 
L 786.276099 376.56 
L 786.276099 165.961477 
L 783.709176 165.961477 
z
" style="fill:#9e1030;"/>
   </g>
   <g id="patch_202">
    <path clip-path="url(#pce2eb95190)" d="M 791.04324 376.56 
L 793.610162 376.56 
L 793.610162 167.1513 
L 791.04324 167.1513 
z
" style="fill:#9e1030;"/>
   </g>
   <g id="patch_203">
    <path clip-path="url(#pce2eb95190)" d="M 798.377304 376.56 
L 800.944226 376.56 
L 800.944226 180.834254 
L 798.377304 180.834254 
z
" style="fill:#9e1030;"/>
   </g>
   <g id="patch_204">
    <path clip-path="url(#pce2eb95190)" d="M 805.711367 376.56 
L 808.278289 376.56 
L 808.278289 131.456635 
L 805.711367 131.456635 
z
" style="fill:#9e1030;"/>
   </g>
   <g id="patch_205">
    <path clip-path="url(#pce2eb95190)" d="M 813.045431 376.56 
L 815.612353 376.56 
L 815.612353 122.278007 
L 813.045431 122.278007 
z
" style="fill:#9e1030;"/>
   </g>
   <g id="patch_206">
    <path clip-path="url(#pce2eb95190)" d="M 820.379494 376.56 
L 822.946416 376.56 
L 822.946416 99.926347 
L 820.379494 99.926347 
z
" style="fill:#9e1030;"/>
   </g>
   <g id="patch_207">
    <path clip-path="url(#pce2eb95190)" d="M 827.713558 376.56 
L 830.28048 376.56 
L 830.28048 65.931429 
L 827.713558 65.931429 
z
" style="fill:#9e1030;"/>
   </g>
   <g id="patch_208">
    <path clip-path="url(#pce2eb95190)" d="M 835.047621 376.56 
L 837.614543 376.56 
L 837.614543 166.556389 
L 835.047621 166.556389 
z
" style="fill:#9e1030;"/>
   </g>
   <g id="patch_209">
    <path clip-path="url(#pce2eb95190)" d="M 842.381685 376.56 
L 844.948607 376.56 
L 844.948607 280.949291 
L 842.381685 280.949291 
z
" style="fill:#9e1030;"/>
   </g>
   <g id="patch_210">
    <path clip-path="url(#pce2eb95190)" d="M 849.715748 376.56 
L 852.28267 376.56 
L 852.28267 344.434802 
L 849.715748 344.434802 
z
" style="fill:#9e1030;"/>
   </g>
   <g id="matplotlib.axis_1">
    <g id="xtick_1">
     <g id="line2d_1">
      <defs>
       <path d="M 0 0 
L 0 3.5 
" id="m47fca2d349" style="stroke:#000000;stroke-width:0.8;"/>
      </defs>
      <g>
       <use style="stroke:#000000;stroke-width:0.8;" x="195.33393" xlink:href="#m47fca2d349" y="376.56"/>
      </g>
     </g>
     <g id="text_1">
      <!-- 1920 -->
      <defs>
       <path d="M 12.40625 8.296875 
L 28.515625 8.296875 
L 28.515625 63.921875 
L 10.984375 60.40625 
L 10.984375 69.390625 
L 28.421875 72.90625 
L 38.28125 72.90625 
L 38.28125 8.296875 
L 54.390625 8.296875 
L 54.390625 0 
L 12.40625 0 
z
" id="DejaVuSans-31"/>
       <path d="M 10.984375 1.515625 
L 10.984375 10.5 
Q 14.703125 8.734375 18.5 7.8125 
Q 22.3125 6.890625 25.984375 6.890625 
Q 35.75 6.890625 40.890625 13.453125 
Q 46.046875 20.015625 46.78125 33.40625 
Q 43.953125 29.203125 39.59375 26.953125 
Q 35.25 24.703125 29.984375 24.703125 
Q 19.046875 24.703125 12.671875 31.3125 
Q 6.296875 37.9375 6.296875 49.421875 
Q 6.296875 60.640625 12.9375 67.421875 
Q 19.578125 74.21875 30.609375 74.21875 
Q 43.265625 74.21875 49.921875 64.515625 
Q 56.59375 54.828125 56.59375 36.375 
Q 56.59375 19.140625 48.40625 8.859375 
Q 40.234375 -1.421875 26.421875 -1.421875 
Q 22.703125 -1.421875 18.890625 -0.6875 
Q 15.09375 0.046875 10.984375 1.515625 
z
M 30.609375 32.421875 
Q 37.25 32.421875 41.125 36.953125 
Q 45.015625 41.5 45.015625 49.421875 
Q 45.015625 57.28125 41.125 61.84375 
Q 37.25 66.40625 30.609375 66.40625 
Q 23.96875 66.40625 20.09375 61.84375 
Q 16.21875 57.28125 16.21875 49.421875 
Q 16.21875 41.5 20.09375 36.953125 
Q 23.96875 32.421875 30.609375 32.421875 
z
" id="DejaVuSans-39"/>
       <path d="M 19.1875 8.296875 
L 53.609375 8.296875 
L 53.609375 0 
L 7.328125 0 
L 7.328125 8.296875 
Q 12.9375 14.109375 22.625 23.890625 
Q 32.328125 33.6875 34.8125 36.53125 
Q 39.546875 41.84375 41.421875 45.53125 
Q 43.3125 49.21875 43.3125 52.78125 
Q 43.3125 58.59375 39.234375 62.25 
Q 35.15625 65.921875 28.609375 65.921875 
Q 23.96875 65.921875 18.8125 64.3125 
Q 13.671875 62.703125 7.8125 59.421875 
L 7.8125 69.390625 
Q 13.765625 71.78125 18.9375 73 
Q 24.125 74.21875 28.421875 74.21875 
Q 39.75 74.21875 46.484375 68.546875 
Q 53.21875 62.890625 53.21875 53.421875 
Q 53.21875 48.921875 51.53125 44.890625 
Q 49.859375 40.875 45.40625 35.40625 
Q 44.1875 33.984375 37.640625 27.21875 
Q 31.109375 20.453125 19.1875 8.296875 
z
" id="DejaVuSans-32"/>
       <path d="M 31.78125 66.40625 
Q 24.171875 66.40625 20.328125 58.90625 
Q 16.5 51.421875 16.5 36.375 
Q 16.5 21.390625 20.328125 13.890625 
Q 24.171875 6.390625 31.78125 6.390625 
Q 39.453125 6.390625 43.28125 13.890625 
Q 47.125 21.390625 47.125 36.375 
Q 47.125 51.421875 43.28125 58.90625 
Q 39.453125 66.40625 31.78125 66.40625 
z
M 31.78125 74.21875 
Q 44.046875 74.21875 50.515625 64.515625 
Q 56.984375 54.828125 56.984375 36.375 
Q 56.984375 17.96875 50.515625 8.265625 
Q 44.046875 -1.421875 31.78125 -1.421875 
Q 19.53125 -1.421875 13.0625 8.265625 
Q 6.59375 17.96875 6.59375 36.375 
Q 6.59375 54.828125 13.0625 64.515625 
Q 19.53125 74.21875 31.78125 74.21875 
z
" id="DejaVuSans-30"/>
      </defs>
      <g transform="translate(182.60893 391.158437)scale(0.1 -0.1)">
       <use xlink:href="#DejaVuSans-31"/>
       <use x="63.623047" xlink:href="#DejaVuSans-39"/>
       <use x="127.246094" xlink:href="#DejaVuSans-32"/>
       <use x="190.869141" xlink:href="#DejaVuSans-30"/>
      </g>
     </g>
    </g>
    <g id="xtick_2">
     <g id="line2d_2">
      <g>
       <use style="stroke:#000000;stroke-width:0.8;" x="342.015201" xlink:href="#m47fca2d349" y="376.56"/>
      </g>
     </g>
     <g id="text_2">
      <!-- 1940 -->
      <defs>
       <path d="M 37.796875 64.3125 
L 12.890625 25.390625 
L 37.796875 25.390625 
z
M 35.203125 72.90625 
L 47.609375 72.90625 
L 47.609375 25.390625 
L 58.015625 25.390625 
L 58.015625 17.1875 
L 47.609375 17.1875 
L 47.609375 0 
L 37.796875 0 
L 37.796875 17.1875 
L 4.890625 17.1875 
L 4.890625 26.703125 
z
" id="DejaVuSans-34"/>
      </defs>
      <g transform="translate(329.290201 391.158437)scale(0.1 -0.1)">
       <use xlink:href="#DejaVuSans-31"/>
       <use x="63.623047" xlink:href="#DejaVuSans-39"/>
       <use x="127.246094" xlink:href="#DejaVuSans-34"/>
       <use x="190.869141" xlink:href="#DejaVuSans-30"/>
      </g>
     </g>
    </g>
    <g id="xtick_3">
     <g id="line2d_3">
      <g>
       <use style="stroke:#000000;stroke-width:0.8;" x="488.696471" xlink:href="#m47fca2d349" y="376.56"/>
      </g>
     </g>
     <g id="text_3">
      <!-- 1960 -->
      <defs>
       <path d="M 33.015625 40.375 
Q 26.375 40.375 22.484375 35.828125 
Q 18.609375 31.296875 18.609375 23.390625 
Q 18.609375 15.53125 22.484375 10.953125 
Q 26.375 6.390625 33.015625 6.390625 
Q 39.65625 6.390625 43.53125 10.953125 
Q 47.40625 15.53125 47.40625 23.390625 
Q 47.40625 31.296875 43.53125 35.828125 
Q 39.65625 40.375 33.015625 40.375 
z
M 52.59375 71.296875 
L 52.59375 62.3125 
Q 48.875 64.0625 45.09375 64.984375 
Q 41.3125 65.921875 37.59375 65.921875 
Q 27.828125 65.921875 22.671875 59.328125 
Q 17.53125 52.734375 16.796875 39.40625 
Q 19.671875 43.65625 24.015625 45.921875 
Q 28.375 48.1875 33.59375 48.1875 
Q 44.578125 48.1875 50.953125 41.515625 
Q 57.328125 34.859375 57.328125 23.390625 
Q 57.328125 12.15625 50.6875 5.359375 
Q 44.046875 -1.421875 33.015625 -1.421875 
Q 20.359375 -1.421875 13.671875 8.265625 
Q 6.984375 17.96875 6.984375 36.375 
Q 6.984375 53.65625 15.1875 63.9375 
Q 23.390625 74.21875 37.203125 74.21875 
Q 40.921875 74.21875 44.703125 73.484375 
Q 48.484375 72.75 52.59375 71.296875 
z
" id="DejaVuSans-36"/>
      </defs>
      <g transform="translate(475.971471 391.158437)scale(0.1 -0.1)">
       <use xlink:href="#DejaVuSans-31"/>
       <use x="63.623047" xlink:href="#DejaVuSans-39"/>
       <use x="127.246094" xlink:href="#DejaVuSans-36"/>
       <use x="190.869141" xlink:href="#DejaVuSans-30"/>
      </g>
     </g>
    </g>
    <g id="xtick_4">
     <g id="line2d_4">
      <g>
       <use style="stroke:#000000;stroke-width:0.8;" x="635.377742" xlink:href="#m47fca2d349" y="376.56"/>
      </g>
     </g>
     <g id="text_4">
      <!-- 1980 -->
      <defs>
       <path d="M 31.78125 34.625 
Q 24.75 34.625 20.71875 30.859375 
Q 16.703125 27.09375 16.703125 20.515625 
Q 16.703125 13.921875 20.71875 10.15625 
Q 24.75 6.390625 31.78125 6.390625 
Q 38.8125 6.390625 42.859375 10.171875 
Q 46.921875 13.96875 46.921875 20.515625 
Q 46.921875 27.09375 42.890625 30.859375 
Q 38.875 34.625 31.78125 34.625 
z
M 21.921875 38.8125 
Q 15.578125 40.375 12.03125 44.71875 
Q 8.5 49.078125 8.5 55.328125 
Q 8.5 64.0625 14.71875 69.140625 
Q 20.953125 74.21875 31.78125 74.21875 
Q 42.671875 74.21875 48.875 69.140625 
Q 55.078125 64.0625 55.078125 55.328125 
Q 55.078125 49.078125 51.53125 44.71875 
Q 48 40.375 41.703125 38.8125 
Q 48.828125 37.15625 52.796875 32.3125 
Q 56.78125 27.484375 56.78125 20.515625 
Q 56.78125 9.90625 50.3125 4.234375 
Q 43.84375 -1.421875 31.78125 -1.421875 
Q 19.734375 -1.421875 13.25 4.234375 
Q 6.78125 9.90625 6.78125 20.515625 
Q 6.78125 27.484375 10.78125 32.3125 
Q 14.796875 37.15625 21.921875 38.8125 
z
M 18.3125 54.390625 
Q 18.3125 48.734375 21.84375 45.5625 
Q 25.390625 42.390625 31.78125 42.390625 
Q 38.140625 42.390625 41.71875 45.5625 
Q 45.3125 48.734375 45.3125 54.390625 
Q 45.3125 60.0625 41.71875 63.234375 
Q 38.140625 66.40625 31.78125 66.40625 
Q 25.390625 66.40625 21.84375 63.234375 
Q 18.3125 60.0625 18.3125 54.390625 
z
" id="DejaVuSans-38"/>
      </defs>
      <g transform="translate(622.652742 391.158437)scale(0.1 -0.1)">
       <use xlink:href="#DejaVuSans-31"/>
       <use x="63.623047" xlink:href="#DejaVuSans-39"/>
       <use x="127.246094" xlink:href="#DejaVuSans-38"/>
       <use x="190.869141" xlink:href="#DejaVuSans-30"/>
      </g>
     </g>
    </g>
    <g id="xtick_5">
     <g id="line2d_5">
      <g>
       <use style="stroke:#000000;stroke-width:0.8;" x="782.059012" xlink:href="#m47fca2d349" y="376.56"/>
      </g>
     </g>
     <g id="text_5">
      <!-- 2000 -->
      <g transform="translate(769.334012 391.158437)scale(0.1 -0.1)">
       <use xlink:href="#DejaVuSans-32"/>
       <use x="63.623047" xlink:href="#DejaVuSans-30"/>
       <use x="127.246094" xlink:href="#DejaVuSans-30"/>
       <use x="190.869141" xlink:href="#DejaVuSans-30"/>
      </g>
     </g>
    </g>
    <g id="text_6">
     <!-- Year -->
     <defs>
      <path d="M -0.203125 72.90625 
L 10.40625 72.90625 
L 30.609375 42.921875 
L 50.6875 72.90625 
L 61.28125 72.90625 
L 35.5 34.71875 
L 35.5 0 
L 25.59375 0 
L 25.59375 34.71875 
z
" id="DejaVuSans-59"/>
      <path d="M 56.203125 29.59375 
L 56.203125 25.203125 
L 14.890625 25.203125 
Q 15.484375 15.921875 20.484375 11.0625 
Q 25.484375 6.203125 34.421875 6.203125 
Q 39.59375 6.203125 44.453125 7.46875 
Q 49.3125 8.734375 54.109375 11.28125 
L 54.109375 2.78125 
Q 49.265625 0.734375 44.1875 -0.34375 
Q 39.109375 -1.421875 33.890625 -1.421875 
Q 20.796875 -1.421875 13.15625 6.1875 
Q 5.515625 13.8125 5.515625 26.8125 
Q 5.515625 40.234375 12.765625 48.109375 
Q 20.015625 56 32.328125 56 
Q 43.359375 56 49.78125 48.890625 
Q 56.203125 41.796875 56.203125 29.59375 
z
M 47.21875 32.234375 
Q 47.125 39.59375 43.09375 43.984375 
Q 39.0625 48.390625 32.421875 48.390625 
Q 24.90625 48.390625 20.390625 44.140625 
Q 15.875 39.890625 15.1875 32.171875 
z
" id="DejaVuSans-65"/>
      <path d="M 34.28125 27.484375 
Q 23.390625 27.484375 19.1875 25 
Q 14.984375 22.515625 14.984375 16.5 
Q 14.984375 11.71875 18.140625 8.90625 
Q 21.296875 6.109375 26.703125 6.109375 
Q 34.1875 6.109375 38.703125 11.40625 
Q 43.21875 16.703125 43.21875 25.484375 
L 43.21875 27.484375 
z
M 52.203125 31.203125 
L 52.203125 0 
L 43.21875 0 
L 43.21875 8.296875 
Q 40.140625 3.328125 35.546875 0.953125 
Q 30.953125 -1.421875 24.3125 -1.421875 
Q 15.921875 -1.421875 10.953125 3.296875 
Q 6 8.015625 6 15.921875 
Q 6 25.140625 12.171875 29.828125 
Q 18.359375 34.515625 30.609375 34.515625 
L 43.21875 34.515625 
L 43.21875 35.40625 
Q 43.21875 41.609375 39.140625 45 
Q 35.0625 48.390625 27.6875 48.390625 
Q 23 48.390625 18.546875 47.265625 
Q 14.109375 46.140625 10.015625 43.890625 
L 10.015625 52.203125 
Q 14.9375 54.109375 19.578125 55.046875 
Q 24.21875 56 28.609375 56 
Q 40.484375 56 46.34375 49.84375 
Q 52.203125 43.703125 52.203125 31.203125 
z
" id="DejaVuSans-61"/>
      <path d="M 41.109375 46.296875 
Q 39.59375 47.171875 37.8125 47.578125 
Q 36.03125 48 33.890625 48 
Q 26.265625 48 22.1875 43.046875 
Q 18.109375 38.09375 18.109375 28.8125 
L 18.109375 0 
L 9.078125 0 
L 9.078125 54.6875 
L 18.109375 54.6875 
L 18.109375 46.1875 
Q 20.953125 51.171875 25.484375 53.578125 
Q 30.03125 56 36.53125 56 
Q 37.453125 56 38.578125 55.875 
Q 39.703125 55.765625 41.0625 55.515625 
z
" id="DejaVuSans-72"/>
     </defs>
     <g transform="translate(460.588281 404.836562)scale(0.1 -0.1)">
      <use xlink:href="#DejaVuSans-59"/>
      <use x="60.880859" xlink:href="#DejaVuSans-65"/>
      <use x="122.404297" xlink:href="#DejaVuSans-61"/>
      <use x="183.683594" xlink:href="#DejaVuSans-72"/>
     </g>
    </g>
   </g>
   <g id="matplotlib.axis_2">
    <g id="ytick_1">
     <g id="line2d_6">
      <defs>
       <path d="M 0 0 
L -3.5 0 
" id="m1fb1625f58" style="stroke:#000000;stroke-width:0.8;"/>
      </defs>
      <g>
       <use style="stroke:#000000;stroke-width:0.8;" x="53.328125" xlink:href="#m1fb1625f58" y="376.56"/>
      </g>
     </g>
     <g id="text_7">
      <!-- 0 -->
      <g transform="translate(39.965625 380.359219)scale(0.1 -0.1)">
       <use xlink:href="#DejaVuSans-30"/>
      </g>
     </g>
    </g>
    <g id="ytick_2">
     <g id="line2d_7">
      <g>
       <use style="stroke:#000000;stroke-width:0.8;" x="53.328125" xlink:href="#m1fb1625f58" y="334.066351"/>
      </g>
     </g>
     <g id="text_8">
      <!-- 500 -->
      <defs>
       <path d="M 10.796875 72.90625 
L 49.515625 72.90625 
L 49.515625 64.59375 
L 19.828125 64.59375 
L 19.828125 46.734375 
Q 21.96875 47.46875 24.109375 47.828125 
Q 26.265625 48.1875 28.421875 48.1875 
Q 40.625 48.1875 47.75 41.5 
Q 54.890625 34.8125 54.890625 23.390625 
Q 54.890625 11.625 47.5625 5.09375 
Q 40.234375 -1.421875 26.90625 -1.421875 
Q 22.3125 -1.421875 17.546875 -0.640625 
Q 12.796875 0.140625 7.71875 1.703125 
L 7.71875 11.625 
Q 12.109375 9.234375 16.796875 8.0625 
Q 21.484375 6.890625 26.703125 6.890625 
Q 35.15625 6.890625 40.078125 11.328125 
Q 45.015625 15.765625 45.015625 23.390625 
Q 45.015625 31 40.078125 35.4375 
Q 35.15625 39.890625 26.703125 39.890625 
Q 22.75 39.890625 18.8125 39.015625 
Q 14.890625 38.140625 10.796875 36.28125 
z
" id="DejaVuSans-35"/>
      </defs>
      <g transform="translate(27.240625 337.86557)scale(0.1 -0.1)">
       <use xlink:href="#DejaVuSans-35"/>
       <use x="63.623047" xlink:href="#DejaVuSans-30"/>
       <use x="127.246094" xlink:href="#DejaVuSans-30"/>
      </g>
     </g>
    </g>
    <g id="ytick_3">
     <g id="line2d_8">
      <g>
       <use style="stroke:#000000;stroke-width:0.8;" x="53.328125" xlink:href="#m1fb1625f58" y="291.572703"/>
      </g>
     </g>
     <g id="text_9">
      <!-- 1000 -->
      <g transform="translate(20.878125 295.371922)scale(0.1 -0.1)">
       <use xlink:href="#DejaVuSans-31"/>
       <use x="63.623047" xlink:href="#DejaVuSans-30"/>
       <use x="127.246094" xlink:href="#DejaVuSans-30"/>
       <use x="190.869141" xlink:href="#DejaVuSans-30"/>
      </g>
     </g>
    </g>
    <g id="ytick_4">
     <g id="line2d_9">
      <g>
       <use style="stroke:#000000;stroke-width:0.8;" x="53.328125" xlink:href="#m1fb1625f58" y="249.079054"/>
      </g>
     </g>
     <g id="text_10">
      <!-- 1500 -->
      <g transform="translate(20.878125 252.878273)scale(0.1 -0.1)">
       <use xlink:href="#DejaVuSans-31"/>
       <use x="63.623047" xlink:href="#DejaVuSans-35"/>
       <use x="127.246094" xlink:href="#DejaVuSans-30"/>
       <use x="190.869141" xlink:href="#DejaVuSans-30"/>
      </g>
     </g>
    </g>
    <g id="ytick_5">
     <g id="line2d_10">
      <g>
       <use style="stroke:#000000;stroke-width:0.8;" x="53.328125" xlink:href="#m1fb1625f58" y="206.585406"/>
      </g>
     </g>
     <g id="text_11">
      <!-- 2000 -->
      <g transform="translate(20.878125 210.384624)scale(0.1 -0.1)">
       <use xlink:href="#DejaVuSans-32"/>
       <use x="63.623047" xlink:href="#DejaVuSans-30"/>
       <use x="127.246094" xlink:href="#DejaVuSans-30"/>
       <use x="190.869141" xlink:href="#DejaVuSans-30"/>
      </g>
     </g>
    </g>
    <g id="ytick_6">
     <g id="line2d_11">
      <g>
       <use style="stroke:#000000;stroke-width:0.8;" x="53.328125" xlink:href="#m1fb1625f58" y="164.091757"/>
      </g>
     </g>
     <g id="text_12">
      <!-- 2500 -->
      <g transform="translate(20.878125 167.890976)scale(0.1 -0.1)">
       <use xlink:href="#DejaVuSans-32"/>
       <use x="63.623047" xlink:href="#DejaVuSans-35"/>
       <use x="127.246094" xlink:href="#DejaVuSans-30"/>
       <use x="190.869141" xlink:href="#DejaVuSans-30"/>
      </g>
     </g>
    </g>
    <g id="ytick_7">
     <g id="line2d_12">
      <g>
       <use style="stroke:#000000;stroke-width:0.8;" x="53.328125" xlink:href="#m1fb1625f58" y="121.598108"/>
      </g>
     </g>
     <g id="text_13">
      <!-- 3000 -->
      <defs>
       <path d="M 40.578125 39.3125 
Q 47.65625 37.796875 51.625 33 
Q 55.609375 28.21875 55.609375 21.1875 
Q 55.609375 10.40625 48.1875 4.484375 
Q 40.765625 -1.421875 27.09375 -1.421875 
Q 22.515625 -1.421875 17.65625 -0.515625 
Q 12.796875 0.390625 7.625 2.203125 
L 7.625 11.71875 
Q 11.71875 9.328125 16.59375 8.109375 
Q 21.484375 6.890625 26.8125 6.890625 
Q 36.078125 6.890625 40.9375 10.546875 
Q 45.796875 14.203125 45.796875 21.1875 
Q 45.796875 27.640625 41.28125 31.265625 
Q 36.765625 34.90625 28.71875 34.90625 
L 20.21875 34.90625 
L 20.21875 43.015625 
L 29.109375 43.015625 
Q 36.375 43.015625 40.234375 45.921875 
Q 44.09375 48.828125 44.09375 54.296875 
Q 44.09375 59.90625 40.109375 62.90625 
Q 36.140625 65.921875 28.71875 65.921875 
Q 24.65625 65.921875 20.015625 65.03125 
Q 15.375 64.15625 9.8125 62.3125 
L 9.8125 71.09375 
Q 15.4375 72.65625 20.34375 73.4375 
Q 25.25 74.21875 29.59375 74.21875 
Q 40.828125 74.21875 47.359375 69.109375 
Q 53.90625 64.015625 53.90625 55.328125 
Q 53.90625 49.265625 50.4375 45.09375 
Q 46.96875 40.921875 40.578125 39.3125 
z
" id="DejaVuSans-33"/>
      </defs>
      <g transform="translate(20.878125 125.397327)scale(0.1 -0.1)">
       <use xlink:href="#DejaVuSans-33"/>
       <use x="63.623047" xlink:href="#DejaVuSans-30"/>
       <use x="127.246094" xlink:href="#DejaVuSans-30"/>
       <use x="190.869141" xlink:href="#DejaVuSans-30"/>
      </g>
     </g>
    </g>
    <g id="ytick_8">
     <g id="line2d_13">
      <g>
       <use style="stroke:#000000;stroke-width:0.8;" x="53.328125" xlink:href="#m1fb1625f58" y="79.10446"/>
      </g>
     </g>
     <g id="text_14">
      <!-- 3500 -->
      <g transform="translate(20.878125 82.903678)scale(0.1 -0.1)">
       <use xlink:href="#DejaVuSans-33"/>
       <use x="63.623047" xlink:href="#DejaVuSans-35"/>
       <use x="127.246094" xlink:href="#DejaVuSans-30"/>
       <use x="190.869141" xlink:href="#DejaVuSans-30"/>
      </g>
     </g>
    </g>
    <g id="text_15">
     <!-- Occurences -->
     <defs>
      <path d="M 39.40625 66.21875 
Q 28.65625 66.21875 22.328125 58.203125 
Q 16.015625 50.203125 16.015625 36.375 
Q 16.015625 22.609375 22.328125 14.59375 
Q 28.65625 6.59375 39.40625 6.59375 
Q 50.140625 6.59375 56.421875 14.59375 
Q 62.703125 22.609375 62.703125 36.375 
Q 62.703125 50.203125 56.421875 58.203125 
Q 50.140625 66.21875 39.40625 66.21875 
z
M 39.40625 74.21875 
Q 54.734375 74.21875 63.90625 63.9375 
Q 73.09375 53.65625 73.09375 36.375 
Q 73.09375 19.140625 63.90625 8.859375 
Q 54.734375 -1.421875 39.40625 -1.421875 
Q 24.03125 -1.421875 14.8125 8.828125 
Q 5.609375 19.09375 5.609375 36.375 
Q 5.609375 53.65625 14.8125 63.9375 
Q 24.03125 74.21875 39.40625 74.21875 
z
" id="DejaVuSans-4f"/>
      <path d="M 48.78125 52.59375 
L 48.78125 44.1875 
Q 44.96875 46.296875 41.140625 47.34375 
Q 37.3125 48.390625 33.40625 48.390625 
Q 24.65625 48.390625 19.8125 42.84375 
Q 14.984375 37.3125 14.984375 27.296875 
Q 14.984375 17.28125 19.8125 11.734375 
Q 24.65625 6.203125 33.40625 6.203125 
Q 37.3125 6.203125 41.140625 7.25 
Q 44.96875 8.296875 48.78125 10.40625 
L 48.78125 2.09375 
Q 45.015625 0.34375 40.984375 -0.53125 
Q 36.96875 -1.421875 32.421875 -1.421875 
Q 20.0625 -1.421875 12.78125 6.34375 
Q 5.515625 14.109375 5.515625 27.296875 
Q 5.515625 40.671875 12.859375 48.328125 
Q 20.21875 56 33.015625 56 
Q 37.15625 56 41.109375 55.140625 
Q 45.0625 54.296875 48.78125 52.59375 
z
" id="DejaVuSans-63"/>
      <path d="M 8.5 21.578125 
L 8.5 54.6875 
L 17.484375 54.6875 
L 17.484375 21.921875 
Q 17.484375 14.15625 20.5 10.265625 
Q 23.53125 6.390625 29.59375 6.390625 
Q 36.859375 6.390625 41.078125 11.03125 
Q 45.3125 15.671875 45.3125 23.6875 
L 45.3125 54.6875 
L 54.296875 54.6875 
L 54.296875 0 
L 45.3125 0 
L 45.3125 8.40625 
Q 42.046875 3.421875 37.71875 1 
Q 33.40625 -1.421875 27.6875 -1.421875 
Q 18.265625 -1.421875 13.375 4.4375 
Q 8.5 10.296875 8.5 21.578125 
z
M 31.109375 56 
z
" id="DejaVuSans-75"/>
      <path d="M 54.890625 33.015625 
L 54.890625 0 
L 45.90625 0 
L 45.90625 32.71875 
Q 45.90625 40.484375 42.875 44.328125 
Q 39.84375 48.1875 33.796875 48.1875 
Q 26.515625 48.1875 22.3125 43.546875 
Q 18.109375 38.921875 18.109375 30.90625 
L 18.109375 0 
L 9.078125 0 
L 9.078125 54.6875 
L 18.109375 54.6875 
L 18.109375 46.1875 
Q 21.34375 51.125 25.703125 53.5625 
Q 30.078125 56 35.796875 56 
Q 45.21875 56 50.046875 50.171875 
Q 54.890625 44.34375 54.890625 33.015625 
z
" id="DejaVuSans-6e"/>
      <path d="M 44.28125 53.078125 
L 44.28125 44.578125 
Q 40.484375 46.53125 36.375 47.5 
Q 32.28125 48.484375 27.875 48.484375 
Q 21.1875 48.484375 17.84375 46.4375 
Q 14.5 44.390625 14.5 40.28125 
Q 14.5 37.15625 16.890625 35.375 
Q 19.28125 33.59375 26.515625 31.984375 
L 29.59375 31.296875 
Q 39.15625 29.25 43.1875 25.515625 
Q 47.21875 21.78125 47.21875 15.09375 
Q 47.21875 7.46875 41.1875 3.015625 
Q 35.15625 -1.421875 24.609375 -1.421875 
Q 20.21875 -1.421875 15.453125 -0.5625 
Q 10.6875 0.296875 5.421875 2 
L 5.421875 11.28125 
Q 10.40625 8.6875 15.234375 7.390625 
Q 20.0625 6.109375 24.8125 6.109375 
Q 31.15625 6.109375 34.5625 8.28125 
Q 37.984375 10.453125 37.984375 14.40625 
Q 37.984375 18.0625 35.515625 20.015625 
Q 33.0625 21.96875 24.703125 23.78125 
L 21.578125 24.515625 
Q 13.234375 26.265625 9.515625 29.90625 
Q 5.8125 33.546875 5.8125 39.890625 
Q 5.8125 47.609375 11.28125 51.796875 
Q 16.75 56 26.8125 56 
Q 31.78125 56 36.171875 55.265625 
Q 40.578125 54.546875 44.28125 53.078125 
z
" id="DejaVuSans-73"/>
     </defs>
     <g transform="translate(14.798438 242.812812)rotate(-90)scale(0.1 -0.1)">
      <use xlink:href="#DejaVuSans-4f"/>
      <use x="78.710938" xlink:href="#DejaVuSans-63"/>
      <use x="133.691406" xlink:href="#DejaVuSans-63"/>
      <use x="188.671875" xlink:href="#DejaVuSans-75"/>
      <use x="252.050781" xlink:href="#DejaVuSans-72"/>
      <use x="293.132812" xlink:href="#DejaVuSans-65"/>
      <use x="354.65625" xlink:href="#DejaVuSans-6e"/>
      <use x="418.035156" xlink:href="#DejaVuSans-63"/>
      <use x="473.015625" xlink:href="#DejaVuSans-65"/>
      <use x="534.539062" xlink:href="#DejaVuSans-73"/>
     </g>
    </g>
   </g>
   <g id="patch_211">
    <path d="M 53.328125 376.56 
L 53.328125 50.4 
" style="fill:none;stroke:#000000;stroke-linecap:square;stroke-linejoin:miter;stroke-width:0.8;"/>
   </g>
   <g id="patch_212">
    <path d="M 890.328125 376.56 
L 890.328125 50.4 
" style="fill:none;stroke:#000000;stroke-linecap:square;stroke-linejoin:miter;stroke-width:0.8;"/>
   </g>
   <g id="patch_213">
    <path d="M 53.328125 376.56 
L 890.328125 376.56 
" style="fill:none;stroke:#000000;stroke-linecap:square;stroke-linejoin:miter;stroke-width:0.8;"/>
   </g>
   <g id="patch_214">
    <path d="M 53.328125 50.4 
L 890.328125 50.4 
" style="fill:none;stroke:#000000;stroke-linecap:square;stroke-linejoin:miter;stroke-width:0.8;"/>
   </g>
   <g id="legend_1">
    <g id="patch_215">
     <path d="M 60.328125 87.75625 
L 127.134375 87.75625 
Q 129.134375 87.75625 129.134375 85.75625 
L 129.134375 57.4 
Q 129.134375 55.4 127.134375 55.4 
L 60.328125 55.4 
Q 58.328125 55.4 58.328125 57.4 
L 58.328125 85.75625 
Q 58.328125 87.75625 60.328125 87.75625 
z
" style="fill:#ffffff;opacity:0.8;stroke:#cccccc;stroke-linejoin:miter;"/>
    </g>
    <g id="patch_216">
     <path d="M 62.328125 66.998437 
L 82.328125 66.998437 
L 82.328125 59.998437 
L 62.328125 59.998437 
z
" style="fill:#55638a;"/>
    </g>
    <g id="text_16">
     <!-- Movies -->
     <defs>
      <path d="M 9.8125 72.90625 
L 24.515625 72.90625 
L 43.109375 23.296875 
L 61.8125 72.90625 
L 76.515625 72.90625 
L 76.515625 0 
L 66.890625 0 
L 66.890625 64.015625 
L 48.09375 14.015625 
L 38.1875 14.015625 
L 19.390625 64.015625 
L 19.390625 0 
L 9.8125 0 
z
" id="DejaVuSans-4d"/>
      <path d="M 30.609375 48.390625 
Q 23.390625 48.390625 19.1875 42.75 
Q 14.984375 37.109375 14.984375 27.296875 
Q 14.984375 17.484375 19.15625 11.84375 
Q 23.34375 6.203125 30.609375 6.203125 
Q 37.796875 6.203125 41.984375 11.859375 
Q 46.1875 17.53125 46.1875 27.296875 
Q 46.1875 37.015625 41.984375 42.703125 
Q 37.796875 48.390625 30.609375 48.390625 
z
M 30.609375 56 
Q 42.328125 56 49.015625 48.375 
Q 55.71875 40.765625 55.71875 27.296875 
Q 55.71875 13.875 49.015625 6.21875 
Q 42.328125 -1.421875 30.609375 -1.421875 
Q 18.84375 -1.421875 12.171875 6.21875 
Q 5.515625 13.875 5.515625 27.296875 
Q 5.515625 40.765625 12.171875 48.375 
Q 18.84375 56 30.609375 56 
z
" id="DejaVuSans-6f"/>
      <path d="M 2.984375 54.6875 
L 12.5 54.6875 
L 29.59375 8.796875 
L 46.6875 54.6875 
L 56.203125 54.6875 
L 35.6875 0 
L 23.484375 0 
z
" id="DejaVuSans-76"/>
      <path d="M 9.421875 54.6875 
L 18.40625 54.6875 
L 18.40625 0 
L 9.421875 0 
z
M 9.421875 75.984375 
L 18.40625 75.984375 
L 18.40625 64.59375 
L 9.421875 64.59375 
z
" id="DejaVuSans-69"/>
     </defs>
     <g transform="translate(90.328125 66.998437)scale(0.1 -0.1)">
      <use xlink:href="#DejaVuSans-4d"/>
      <use x="86.279297" xlink:href="#DejaVuSans-6f"/>
      <use x="147.460938" xlink:href="#DejaVuSans-76"/>
      <use x="206.640625" xlink:href="#DejaVuSans-69"/>
      <use x="234.423828" xlink:href="#DejaVuSans-65"/>
      <use x="295.947266" xlink:href="#DejaVuSans-73"/>
     </g>
    </g>
    <g id="patch_217">
     <path d="M 62.328125 81.676562 
L 82.328125 81.676562 
L 82.328125 74.676562 
L 62.328125 74.676562 
z
" style="fill:#9e1030;"/>
    </g>
    <g id="text_17">
     <!-- Links -->
     <defs>
      <path d="M 9.8125 72.90625 
L 19.671875 72.90625 
L 19.671875 8.296875 
L 55.171875 8.296875 
L 55.171875 0 
L 9.8125 0 
z
" id="DejaVuSans-4c"/>
      <path d="M 9.078125 75.984375 
L 18.109375 75.984375 
L 18.109375 31.109375 
L 44.921875 54.6875 
L 56.390625 54.6875 
L 27.390625 29.109375 
L 57.625 0 
L 45.90625 0 
L 18.109375 26.703125 
L 18.109375 0 
L 9.078125 0 
z
" id="DejaVuSans-6b"/>
     </defs>
     <g transform="translate(90.328125 81.676562)scale(0.1 -0.1)">
      <use xlink:href="#DejaVuSans-4c"/>
      <use x="55.712891" xlink:href="#DejaVuSans-69"/>
      <use x="83.496094" xlink:href="#DejaVuSans-6e"/>
      <use x="146.875" xlink:href="#DejaVuSans-6b"/>
      <use x="204.785156" xlink:href="#DejaVuSans-73"/>
     </g>
    </g>
   </g>
  </g>
  <g id="text_18">
   <!-- Movies and links distribution -->
   <defs>
    <path id="DejaVuSans-20"/>
    <path d="M 45.40625 46.390625 
L 45.40625 75.984375 
L 54.390625 75.984375 
L 54.390625 0 
L 45.40625 0 
L 45.40625 8.203125 
Q 42.578125 3.328125 38.25 0.953125 
Q 33.9375 -1.421875 27.875 -1.421875 
Q 17.96875 -1.421875 11.734375 6.484375 
Q 5.515625 14.40625 5.515625 27.296875 
Q 5.515625 40.1875 11.734375 48.09375 
Q 17.96875 56 27.875 56 
Q 33.9375 56 38.25 53.625 
Q 42.578125 51.265625 45.40625 46.390625 
z
M 14.796875 27.296875 
Q 14.796875 17.390625 18.875 11.75 
Q 22.953125 6.109375 30.078125 6.109375 
Q 37.203125 6.109375 41.296875 11.75 
Q 45.40625 17.390625 45.40625 27.296875 
Q 45.40625 37.203125 41.296875 42.84375 
Q 37.203125 48.484375 30.078125 48.484375 
Q 22.953125 48.484375 18.875 42.84375 
Q 14.796875 37.203125 14.796875 27.296875 
z
" id="DejaVuSans-64"/>
    <path d="M 9.421875 75.984375 
L 18.40625 75.984375 
L 18.40625 0 
L 9.421875 0 
z
" id="DejaVuSans-6c"/>
    <path d="M 18.3125 70.21875 
L 18.3125 54.6875 
L 36.8125 54.6875 
L 36.8125 47.703125 
L 18.3125 47.703125 
L 18.3125 18.015625 
Q 18.3125 11.328125 20.140625 9.421875 
Q 21.96875 7.515625 27.59375 7.515625 
L 36.8125 7.515625 
L 36.8125 0 
L 27.59375 0 
Q 17.1875 0 13.234375 3.875 
Q 9.28125 7.765625 9.28125 18.015625 
L 9.28125 47.703125 
L 2.6875 47.703125 
L 2.6875 54.6875 
L 9.28125 54.6875 
L 9.28125 70.21875 
z
" id="DejaVuSans-74"/>
    <path d="M 48.6875 27.296875 
Q 48.6875 37.203125 44.609375 42.84375 
Q 40.53125 48.484375 33.40625 48.484375 
Q 26.265625 48.484375 22.1875 42.84375 
Q 18.109375 37.203125 18.109375 27.296875 
Q 18.109375 17.390625 22.1875 11.75 
Q 26.265625 6.109375 33.40625 6.109375 
Q 40.53125 6.109375 44.609375 11.75 
Q 48.6875 17.390625 48.6875 27.296875 
z
M 18.109375 46.390625 
Q 20.953125 51.265625 25.265625 53.625 
Q 29.59375 56 35.59375 56 
Q 45.5625 56 51.78125 48.09375 
Q 58.015625 40.1875 58.015625 27.296875 
Q 58.015625 14.40625 51.78125 6.484375 
Q 45.5625 -1.421875 35.59375 -1.421875 
Q 29.59375 -1.421875 25.265625 0.953125 
Q 20.953125 3.328125 18.109375 8.203125 
L 18.109375 0 
L 9.078125 0 
L 9.078125 75.984375 
L 18.109375 75.984375 
z
" id="DejaVuSans-62"/>
   </defs>
   <g transform="translate(343.900625 19.3575)scale(0.16 -0.16)">
    <use xlink:href="#DejaVuSans-4d"/>
    <use x="86.279297" xlink:href="#DejaVuSans-6f"/>
    <use x="147.460938" xlink:href="#DejaVuSans-76"/>
    <use x="206.640625" xlink:href="#DejaVuSans-69"/>
    <use x="234.423828" xlink:href="#DejaVuSans-65"/>
    <use x="295.947266" xlink:href="#DejaVuSans-73"/>
    <use x="348.046875" xlink:href="#DejaVuSans-20"/>
    <use x="379.833984" xlink:href="#DejaVuSans-61"/>
    <use x="441.113281" xlink:href="#DejaVuSans-6e"/>
    <use x="504.492188" xlink:href="#DejaVuSans-64"/>
    <use x="567.96875" xlink:href="#DejaVuSans-20"/>
    <use x="599.755859" xlink:href="#DejaVuSans-6c"/>
    <use x="627.539062" xlink:href="#DejaVuSans-69"/>
    <use x="655.322266" xlink:href="#DejaVuSans-6e"/>
    <use x="718.701172" xlink:href="#DejaVuSans-6b"/>
    <use x="776.611328" xlink:href="#DejaVuSans-73"/>
    <use x="828.710938" xlink:href="#DejaVuSans-20"/>
    <use x="860.498047" xlink:href="#DejaVuSans-64"/>
    <use x="923.974609" xlink:href="#DejaVuSans-69"/>
    <use x="951.757812" xlink:href="#DejaVuSans-73"/>
    <use x="1003.857422" xlink:href="#DejaVuSans-74"/>
    <use x="1043.066406" xlink:href="#DejaVuSans-72"/>
    <use x="1084.179688" xlink:href="#DejaVuSans-69"/>
    <use x="1111.962891" xlink:href="#DejaVuSans-62"/>
    <use x="1175.439453" xlink:href="#DejaVuSans-75"/>
    <use x="1238.818359" xlink:href="#DejaVuSans-74"/>
    <use x="1278.027344" xlink:href="#DejaVuSans-69"/>
    <use x="1305.810547" xlink:href="#DejaVuSans-6f"/>
    <use x="1366.992188" xlink:href="#DejaVuSans-6e"/>
   </g>
  </g>
 </g>
 <defs>
  <clipPath id="pce2eb95190">
   <rect height="326.16" width="837" x="53.328125" y="50.4"/>
  </clipPath>
 </defs>
</svg>
