<?xml version="1.0" encoding="utf-8" standalone="no"?>
<!DOCTYPE svg PUBLIC "-//W3C//DTD SVG 1.1//EN"
  "http://www.w3.org/Graphics/SVG/1.1/DTD/svg11.dtd">
<!-- Created with matplotlib (http://matplotlib.org/) -->
<svg height="398.191875pt" version="1.1" viewBox="0 0 901.028125 398.191875" width="901.028125pt" xmlns="http://www.w3.org/2000/svg" xmlns:xlink="http://www.w3.org/1999/xlink">
 <defs>
  <style type="text/css">
*{stroke-linecap:butt;stroke-linejoin:round;}
  </style>
 </defs>
 <g id="figure_1">
  <g id="patch_1">
   <path d="M 0 398.191875 
L 901.028125 398.191875 
L 901.028125 0 
L 0 0 
z
" style="fill:#ffffff;"/>
  </g>
  <g id="axes_1">
   <g id="patch_2">
    <path d="M 53.328125 360.635625 
L 890.328125 360.635625 
L 890.328125 34.475625 
L 53.328125 34.475625 
z
" style="fill:#ffffff;"/>
   </g>
   <g id="patch_3">
    <path clip-path="url(#pacab7b5d7b)" d="M 91.37358 360.635625 
L 93.940502 360.635625 
L 93.940502 360.536636 
L 91.37358 360.536636 
z
" style="fill:#55638a;"/>
   </g>
   <g id="patch_4">
    <path clip-path="url(#pacab7b5d7b)" d="M 98.707643 360.635625 
L 101.274565 360.635625 
L 101.274565 360.635625 
L 98.707643 360.635625 
z
" style="fill:#55638a;"/>
   </g>
   <g id="patch_5">
    <path clip-path="url(#pacab7b5d7b)" d="M 106.041707 360.635625 
L 108.608629 360.635625 
L 108.608629 360.635625 
L 106.041707 360.635625 
z
" style="fill:#55638a;"/>
   </g>
   <g id="patch_6">
    <path clip-path="url(#pacab7b5d7b)" d="M 113.37577 360.635625 
L 115.942692 360.635625 
L 115.942692 360.635625 
L 113.37577 360.635625 
z
" style="fill:#55638a;"/>
   </g>
   <g id="patch_7">
    <path clip-path="url(#pacab7b5d7b)" d="M 120.709834 360.635625 
L 123.276756 360.635625 
L 123.276756 360.635625 
L 120.709834 360.635625 
z
" style="fill:#55638a;"/>
   </g>
   <g id="patch_8">
    <path clip-path="url(#pacab7b5d7b)" d="M 128.043897 360.635625 
L 130.610819 360.635625 
L 130.610819 360.635625 
L 128.043897 360.635625 
z
" style="fill:#55638a;"/>
   </g>
   <g id="patch_9">
    <path clip-path="url(#pacab7b5d7b)" d="M 135.377961 360.635625 
L 137.944883 360.635625 
L 137.944883 360.536636 
L 135.377961 360.536636 
z
" style="fill:#55638a;"/>
   </g>
   <g id="patch_10">
    <path clip-path="url(#pacab7b5d7b)" d="M 142.712024 360.635625 
L 145.278946 360.635625 
L 145.278946 360.437646 
L 142.712024 360.437646 
z
" style="fill:#55638a;"/>
   </g>
   <g id="patch_11">
    <path clip-path="url(#pacab7b5d7b)" d="M 150.046088 360.635625 
L 152.61301 360.635625 
L 152.61301 360.437646 
L 150.046088 360.437646 
z
" style="fill:#55638a;"/>
   </g>
   <g id="patch_12">
    <path clip-path="url(#pacab7b5d7b)" d="M 157.380151 360.635625 
L 159.947074 360.635625 
L 159.947074 360.239668 
L 157.380151 360.239668 
z
" style="fill:#55638a;"/>
   </g>
   <g id="patch_13">
    <path clip-path="url(#pacab7b5d7b)" d="M 164.714215 360.635625 
L 167.281137 360.635625 
L 167.281137 360.536636 
L 164.714215 360.536636 
z
" style="fill:#55638a;"/>
   </g>
   <g id="patch_14">
    <path clip-path="url(#pacab7b5d7b)" d="M 172.048278 360.635625 
L 174.615201 360.635625 
L 174.615201 360.338657 
L 172.048278 360.338657 
z
" style="fill:#55638a;"/>
   </g>
   <g id="patch_15">
    <path clip-path="url(#pacab7b5d7b)" d="M 179.382342 360.635625 
L 181.949264 360.635625 
L 181.949264 360.140678 
L 179.382342 360.140678 
z
" style="fill:#55638a;"/>
   </g>
   <g id="patch_16">
    <path clip-path="url(#pacab7b5d7b)" d="M 186.716405 360.635625 
L 189.283328 360.635625 
L 189.283328 360.239668 
L 186.716405 360.239668 
z
" style="fill:#55638a;"/>
   </g>
   <g id="patch_17">
    <path clip-path="url(#pacab7b5d7b)" d="M 194.050469 360.635625 
L 196.617391 360.635625 
L 196.617391 360.140678 
L 194.050469 360.140678 
z
" style="fill:#55638a;"/>
   </g>
   <g id="patch_18">
    <path clip-path="url(#pacab7b5d7b)" d="M 201.384532 360.635625 
L 203.951455 360.635625 
L 203.951455 359.9427 
L 201.384532 359.9427 
z
" style="fill:#55638a;"/>
   </g>
   <g id="patch_19">
    <path clip-path="url(#pacab7b5d7b)" d="M 208.718596 360.635625 
L 211.285518 360.635625 
L 211.285518 359.9427 
L 208.718596 359.9427 
z
" style="fill:#55638a;"/>
   </g>
   <g id="patch_20">
    <path clip-path="url(#pacab7b5d7b)" d="M 216.05266 360.635625 
L 218.619582 360.635625 
L 218.619582 360.437646 
L 216.05266 360.437646 
z
" style="fill:#55638a;"/>
   </g>
   <g id="patch_21">
    <path clip-path="url(#pacab7b5d7b)" d="M 223.386723 360.635625 
L 225.953645 360.635625 
L 225.953645 359.9427 
L 223.386723 359.9427 
z
" style="fill:#55638a;"/>
   </g>
   <g id="patch_22">
    <path clip-path="url(#pacab7b5d7b)" d="M 230.720787 360.635625 
L 233.287709 360.635625 
L 233.287709 359.744721 
L 230.720787 359.744721 
z
" style="fill:#55638a;"/>
   </g>
   <g id="patch_23">
    <path clip-path="url(#pacab7b5d7b)" d="M 238.05485 360.635625 
L 240.621772 360.635625 
L 240.621772 359.645732 
L 238.05485 359.645732 
z
" style="fill:#55638a;"/>
   </g>
   <g id="patch_24">
    <path clip-path="url(#pacab7b5d7b)" d="M 245.388914 360.635625 
L 247.955836 360.635625 
L 247.955836 359.348763 
L 245.388914 359.348763 
z
" style="fill:#55638a;"/>
   </g>
   <g id="patch_25">
    <path clip-path="url(#pacab7b5d7b)" d="M 252.722977 360.635625 
L 255.289899 360.635625 
L 255.289899 359.150785 
L 252.722977 359.150785 
z
" style="fill:#55638a;"/>
   </g>
   <g id="patch_26">
    <path clip-path="url(#pacab7b5d7b)" d="M 260.057041 360.635625 
L 262.623963 360.635625 
L 262.623963 358.754827 
L 260.057041 358.754827 
z
" style="fill:#55638a;"/>
   </g>
   <g id="patch_27">
    <path clip-path="url(#pacab7b5d7b)" d="M 267.391104 360.635625 
L 269.958026 360.635625 
L 269.958026 357.566955 
L 267.391104 357.566955 
z
" style="fill:#55638a;"/>
   </g>
   <g id="patch_28">
    <path clip-path="url(#pacab7b5d7b)" d="M 274.725168 360.635625 
L 277.29209 360.635625 
L 277.29209 356.478072 
L 274.725168 356.478072 
z
" style="fill:#55638a;"/>
   </g>
   <g id="patch_29">
    <path clip-path="url(#pacab7b5d7b)" d="M 282.059231 360.635625 
L 284.626153 360.635625 
L 284.626153 356.676051 
L 282.059231 356.676051 
z
" style="fill:#55638a;"/>
   </g>
   <g id="patch_30">
    <path clip-path="url(#pacab7b5d7b)" d="M 289.393295 360.635625 
L 291.960217 360.635625 
L 291.960217 355.884136 
L 289.393295 355.884136 
z
" style="fill:#55638a;"/>
   </g>
   <g id="patch_31">
    <path clip-path="url(#pacab7b5d7b)" d="M 296.727358 360.635625 
L 299.294281 360.635625 
L 299.294281 355.191211 
L 296.727358 355.191211 
z
" style="fill:#55638a;"/>
   </g>
   <g id="patch_32">
    <path clip-path="url(#pacab7b5d7b)" d="M 304.061422 360.635625 
L 306.628344 360.635625 
L 306.628344 356.77504 
L 304.061422 356.77504 
z
" style="fill:#55638a;"/>
   </g>
   <g id="patch_33">
    <path clip-path="url(#pacab7b5d7b)" d="M 311.395485 360.635625 
L 313.962408 360.635625 
L 313.962408 355.191211 
L 311.395485 355.191211 
z
" style="fill:#55638a;"/>
   </g>
   <g id="patch_34">
    <path clip-path="url(#pacab7b5d7b)" d="M 318.729549 360.635625 
L 321.296471 360.635625 
L 321.296471 356.280094 
L 318.729549 356.280094 
z
" style="fill:#55638a;"/>
   </g>
   <g id="patch_35">
    <path clip-path="url(#pacab7b5d7b)" d="M 326.063612 360.635625 
L 328.630535 360.635625 
L 328.630535 356.280094 
L 326.063612 356.280094 
z
" style="fill:#55638a;"/>
   </g>
   <g id="patch_36">
    <path clip-path="url(#pacab7b5d7b)" d="M 333.397676 360.635625 
L 335.964598 360.635625 
L 335.964598 355.587168 
L 333.397676 355.587168 
z
" style="fill:#55638a;"/>
   </g>
   <g id="patch_37">
    <path clip-path="url(#pacab7b5d7b)" d="M 340.731739 360.635625 
L 343.298662 360.635625 
L 343.298662 355.092222 
L 340.731739 355.092222 
z
" style="fill:#55638a;"/>
   </g>
   <g id="patch_38">
    <path clip-path="url(#pacab7b5d7b)" d="M 348.065803 360.635625 
L 350.632725 360.635625 
L 350.632725 354.993232 
L 348.065803 354.993232 
z
" style="fill:#55638a;"/>
   </g>
   <g id="patch_39">
    <path clip-path="url(#pacab7b5d7b)" d="M 355.399867 360.635625 
L 357.966789 360.635625 
L 357.966789 355.587168 
L 355.399867 355.587168 
z
" style="fill:#55638a;"/>
   </g>
   <g id="patch_40">
    <path clip-path="url(#pacab7b5d7b)" d="M 362.73393 360.635625 
L 365.300852 360.635625 
L 365.300852 355.884136 
L 362.73393 355.884136 
z
" style="fill:#55638a;"/>
   </g>
   <g id="patch_41">
    <path clip-path="url(#pacab7b5d7b)" d="M 370.067994 360.635625 
L 372.634916 360.635625 
L 372.634916 356.082115 
L 370.067994 356.082115 
z
" style="fill:#55638a;"/>
   </g>
   <g id="patch_42">
    <path clip-path="url(#pacab7b5d7b)" d="M 377.402057 360.635625 
L 379.968979 360.635625 
L 379.968979 356.379083 
L 377.402057 356.379083 
z
" style="fill:#55638a;"/>
   </g>
   <g id="patch_43">
    <path clip-path="url(#pacab7b5d7b)" d="M 384.736121 360.635625 
L 387.303043 360.635625 
L 387.303043 356.77504 
L 384.736121 356.77504 
z
" style="fill:#55638a;"/>
   </g>
   <g id="patch_44">
    <path clip-path="url(#pacab7b5d7b)" d="M 392.070184 360.635625 
L 394.637106 360.635625 
L 394.637106 355.686158 
L 392.070184 355.686158 
z
" style="fill:#55638a;"/>
   </g>
   <g id="patch_45">
    <path clip-path="url(#pacab7b5d7b)" d="M 399.404248 360.635625 
L 401.97117 360.635625 
L 401.97117 355.884136 
L 399.404248 355.884136 
z
" style="fill:#55638a;"/>
   </g>
   <g id="patch_46">
    <path clip-path="url(#pacab7b5d7b)" d="M 406.738311 360.635625 
L 409.305233 360.635625 
L 409.305233 355.686158 
L 406.738311 355.686158 
z
" style="fill:#55638a;"/>
   </g>
   <g id="patch_47">
    <path clip-path="url(#pacab7b5d7b)" d="M 414.072375 360.635625 
L 416.639297 360.635625 
L 416.639297 354.894243 
L 414.072375 354.894243 
z
" style="fill:#55638a;"/>
   </g>
   <g id="patch_48">
    <path clip-path="url(#pacab7b5d7b)" d="M 421.406438 360.635625 
L 423.97336 360.635625 
L 423.97336 354.894243 
L 421.406438 354.894243 
z
" style="fill:#55638a;"/>
   </g>
   <g id="patch_49">
    <path clip-path="url(#pacab7b5d7b)" d="M 428.740502 360.635625 
L 431.307424 360.635625 
L 431.307424 354.894243 
L 428.740502 354.894243 
z
" style="fill:#55638a;"/>
   </g>
   <g id="patch_50">
    <path clip-path="url(#pacab7b5d7b)" d="M 436.074565 360.635625 
L 438.641488 360.635625 
L 438.641488 355.686158 
L 436.074565 355.686158 
z
" style="fill:#55638a;"/>
   </g>
   <g id="patch_51">
    <path clip-path="url(#pacab7b5d7b)" d="M 443.408629 360.635625 
L 445.975551 360.635625 
L 445.975551 355.488179 
L 443.408629 355.488179 
z
" style="fill:#55638a;"/>
   </g>
   <g id="patch_52">
    <path clip-path="url(#pacab7b5d7b)" d="M 450.742692 360.635625 
L 453.309615 360.635625 
L 453.309615 354.399296 
L 450.742692 354.399296 
z
" style="fill:#55638a;"/>
   </g>
   <g id="patch_53">
    <path clip-path="url(#pacab7b5d7b)" d="M 458.076756 360.635625 
L 460.643678 360.635625 
L 460.643678 355.2902 
L 458.076756 355.2902 
z
" style="fill:#55638a;"/>
   </g>
   <g id="patch_54">
    <path clip-path="url(#pacab7b5d7b)" d="M 465.410819 360.635625 
L 467.977742 360.635625 
L 467.977742 353.706371 
L 465.410819 353.706371 
z
" style="fill:#55638a;"/>
   </g>
   <g id="patch_55">
    <path clip-path="url(#pacab7b5d7b)" d="M 472.744883 360.635625 
L 475.311805 360.635625 
L 475.311805 353.904349 
L 472.744883 353.904349 
z
" style="fill:#55638a;"/>
   </g>
   <g id="patch_56">
    <path clip-path="url(#pacab7b5d7b)" d="M 480.078946 360.635625 
L 482.645869 360.635625 
L 482.645869 354.597275 
L 480.078946 354.597275 
z
" style="fill:#55638a;"/>
   </g>
   <g id="patch_57">
    <path clip-path="url(#pacab7b5d7b)" d="M 487.41301 360.635625 
L 489.979932 360.635625 
L 489.979932 360.041689 
L 487.41301 360.041689 
z
" style="fill:#55638a;"/>
   </g>
   <g id="patch_58">
    <path clip-path="url(#pacab7b5d7b)" d="M 494.747074 360.635625 
L 497.313996 360.635625 
L 497.313996 360.437646 
L 494.747074 360.437646 
z
" style="fill:#55638a;"/>
   </g>
   <g id="patch_59">
    <path clip-path="url(#pacab7b5d7b)" d="M 502.081137 360.635625 
L 504.648059 360.635625 
L 504.648059 360.338657 
L 502.081137 360.338657 
z
" style="fill:#55638a;"/>
   </g>
   <g id="patch_60">
    <path clip-path="url(#pacab7b5d7b)" d="M 509.415201 360.635625 
L 511.982123 360.635625 
L 511.982123 360.437646 
L 509.415201 360.437646 
z
" style="fill:#55638a;"/>
   </g>
   <g id="patch_61">
    <path clip-path="url(#pacab7b5d7b)" d="M 516.749264 360.635625 
L 519.316186 360.635625 
L 519.316186 360.338657 
L 516.749264 360.338657 
z
" style="fill:#55638a;"/>
   </g>
   <g id="patch_62">
    <path clip-path="url(#pacab7b5d7b)" d="M 524.083328 360.635625 
L 526.65025 360.635625 
L 526.65025 360.239668 
L 524.083328 360.239668 
z
" style="fill:#55638a;"/>
   </g>
   <g id="patch_63">
    <path clip-path="url(#pacab7b5d7b)" d="M 531.417391 360.635625 
L 533.984313 360.635625 
L 533.984313 359.9427 
L 531.417391 359.9427 
z
" style="fill:#55638a;"/>
   </g>
   <g id="patch_64">
    <path clip-path="url(#pacab7b5d7b)" d="M 538.751455 360.635625 
L 541.318377 360.635625 
L 541.318377 354.597275 
L 538.751455 354.597275 
z
" style="fill:#55638a;"/>
   </g>
   <g id="patch_65">
    <path clip-path="url(#pacab7b5d7b)" d="M 546.085518 360.635625 
L 548.65244 360.635625 
L 548.65244 351.231637 
L 546.085518 351.231637 
z
" style="fill:#55638a;"/>
   </g>
   <g id="patch_66">
    <path clip-path="url(#pacab7b5d7b)" d="M 553.419582 360.635625 
L 555.986504 360.635625 
L 555.986504 351.627594 
L 553.419582 351.627594 
z
" style="fill:#55638a;"/>
   </g>
   <g id="patch_67">
    <path clip-path="url(#pacab7b5d7b)" d="M 560.753645 360.635625 
L 563.320567 360.635625 
L 563.320567 349.746797 
L 560.753645 349.746797 
z
" style="fill:#55638a;"/>
   </g>
   <g id="patch_68">
    <path clip-path="url(#pacab7b5d7b)" d="M 568.087709 360.635625 
L 570.654631 360.635625 
L 570.654631 349.449829 
L 568.087709 349.449829 
z
" style="fill:#55638a;"/>
   </g>
   <g id="patch_69">
    <path clip-path="url(#pacab7b5d7b)" d="M 575.421772 360.635625 
L 577.988695 360.635625 
L 577.988695 348.954882 
L 575.421772 348.954882 
z
" style="fill:#55638a;"/>
   </g>
   <g id="patch_70">
    <path clip-path="url(#pacab7b5d7b)" d="M 582.755836 360.635625 
L 585.322758 360.635625 
L 585.322758 350.241744 
L 582.755836 350.241744 
z
" style="fill:#55638a;"/>
   </g>
   <g id="patch_71">
    <path clip-path="url(#pacab7b5d7b)" d="M 590.089899 360.635625 
L 592.656822 360.635625 
L 592.656822 349.449829 
L 590.089899 349.449829 
z
" style="fill:#55638a;"/>
   </g>
   <g id="patch_72">
    <path clip-path="url(#pacab7b5d7b)" d="M 597.423963 360.635625 
L 599.990885 360.635625 
L 599.990885 352.22153 
L 597.423963 352.22153 
z
" style="fill:#55638a;"/>
   </g>
   <g id="patch_73">
    <path clip-path="url(#pacab7b5d7b)" d="M 604.758026 360.635625 
L 607.324949 360.635625 
L 607.324949 348.855893 
L 604.758026 348.855893 
z
" style="fill:#55638a;"/>
   </g>
   <g id="patch_74">
    <path clip-path="url(#pacab7b5d7b)" d="M 612.09209 360.635625 
L 614.659012 360.635625 
L 614.659012 347.964989 
L 612.09209 347.964989 
z
" style="fill:#55638a;"/>
   </g>
   <g id="patch_75">
    <path clip-path="url(#pacab7b5d7b)" d="M 619.426153 360.635625 
L 621.993076 360.635625 
L 621.993076 349.647807 
L 619.426153 349.647807 
z
" style="fill:#55638a;"/>
   </g>
   <g id="patch_76">
    <path clip-path="url(#pacab7b5d7b)" d="M 626.760217 360.635625 
L 629.327139 360.635625 
L 629.327139 349.053871 
L 626.760217 349.053871 
z
" style="fill:#55638a;"/>
   </g>
   <g id="patch_77">
    <path clip-path="url(#pacab7b5d7b)" d="M 634.094281 360.635625 
L 636.661203 360.635625 
L 636.661203 347.569031 
L 634.094281 347.569031 
z
" style="fill:#55638a;"/>
   </g>
   <g id="patch_78">
    <path clip-path="url(#pacab7b5d7b)" d="M 641.428344 360.635625 
L 643.995266 360.635625 
L 643.995266 349.548818 
L 641.428344 349.548818 
z
" style="fill:#55638a;"/>
   </g>
   <g id="patch_79">
    <path clip-path="url(#pacab7b5d7b)" d="M 648.762408 360.635625 
L 651.32933 360.635625 
L 651.32933 349.449829 
L 648.762408 349.449829 
z
" style="fill:#55638a;"/>
   </g>
   <g id="patch_80">
    <path clip-path="url(#pacab7b5d7b)" d="M 656.096471 360.635625 
L 658.663393 360.635625 
L 658.663393 349.548818 
L 656.096471 349.548818 
z
" style="fill:#55638a;"/>
   </g>
   <g id="patch_81">
    <path clip-path="url(#pacab7b5d7b)" d="M 663.430535 360.635625 
L 665.997457 360.635625 
L 665.997457 347.074084 
L 663.430535 347.074084 
z
" style="fill:#55638a;"/>
   </g>
   <g id="patch_82">
    <path clip-path="url(#pacab7b5d7b)" d="M 670.764598 360.635625 
L 673.33152 360.635625 
L 673.33152 345.985202 
L 670.764598 345.985202 
z
" style="fill:#55638a;"/>
   </g>
   <g id="patch_83">
    <path clip-path="url(#pacab7b5d7b)" d="M 678.098662 360.635625 
L 680.665584 360.635625 
L 680.665584 345.985202 
L 678.098662 345.985202 
z
" style="fill:#55638a;"/>
   </g>
   <g id="patch_84">
    <path clip-path="url(#pacab7b5d7b)" d="M 685.432725 360.635625 
L 687.999647 360.635625 
L 687.999647 343.807436 
L 685.432725 343.807436 
z
" style="fill:#55638a;"/>
   </g>
   <g id="patch_85">
    <path clip-path="url(#pacab7b5d7b)" d="M 692.766789 360.635625 
L 695.333711 360.635625 
L 695.333711 343.411479 
L 692.766789 343.411479 
z
" style="fill:#55638a;"/>
   </g>
   <g id="patch_86">
    <path clip-path="url(#pacab7b5d7b)" d="M 700.100852 360.635625 
L 702.667775 360.635625 
L 702.667775 344.104404 
L 700.100852 344.104404 
z
" style="fill:#55638a;"/>
   </g>
   <g id="patch_87">
    <path clip-path="url(#pacab7b5d7b)" d="M 707.434916 360.635625 
L 710.001838 360.635625 
L 710.001838 344.203393 
L 707.434916 344.203393 
z
" style="fill:#55638a;"/>
   </g>
   <g id="patch_88">
    <path clip-path="url(#pacab7b5d7b)" d="M 714.768979 360.635625 
L 717.335902 360.635625 
L 717.335902 343.015521 
L 714.768979 343.015521 
z
" style="fill:#55638a;"/>
   </g>
   <g id="patch_89">
    <path clip-path="url(#pacab7b5d7b)" d="M 722.103043 360.635625 
L 724.669965 360.635625 
L 724.669965 345.193287 
L 722.103043 345.193287 
z
" style="fill:#55638a;"/>
   </g>
   <g id="patch_90">
    <path clip-path="url(#pacab7b5d7b)" d="M 729.437106 360.635625 
L 732.004029 360.635625 
L 732.004029 343.510468 
L 729.437106 343.510468 
z
" style="fill:#55638a;"/>
   </g>
   <g id="patch_91">
    <path clip-path="url(#pacab7b5d7b)" d="M 736.77117 360.635625 
L 739.338092 360.635625 
L 739.338092 341.332702 
L 736.77117 341.332702 
z
" style="fill:#55638a;"/>
   </g>
   <g id="patch_92">
    <path clip-path="url(#pacab7b5d7b)" d="M 744.105233 360.635625 
L 746.672156 360.635625 
L 746.672156 337.571107 
L 744.105233 337.571107 
z
" style="fill:#55638a;"/>
   </g>
   <g id="patch_93">
    <path clip-path="url(#pacab7b5d7b)" d="M 751.439297 360.635625 
L 754.006219 360.635625 
L 754.006219 337.274139 
L 751.439297 337.274139 
z
" style="fill:#55638a;"/>
   </g>
   <g id="patch_94">
    <path clip-path="url(#pacab7b5d7b)" d="M 758.77336 360.635625 
L 761.340283 360.635625 
L 761.340283 334.403448 
L 758.77336 334.403448 
z
" style="fill:#55638a;"/>
   </g>
   <g id="patch_95">
    <path clip-path="url(#pacab7b5d7b)" d="M 766.107424 360.635625 
L 768.674346 360.635625 
L 768.674346 330.641853 
L 766.107424 330.641853 
z
" style="fill:#55638a;"/>
   </g>
   <g id="patch_96">
    <path clip-path="url(#pacab7b5d7b)" d="M 773.441488 360.635625 
L 776.00841 360.635625 
L 776.00841 326.385311 
L 773.441488 326.385311 
z
" style="fill:#55638a;"/>
   </g>
   <g id="patch_97">
    <path clip-path="url(#pacab7b5d7b)" d="M 780.775551 360.635625 
L 783.342473 360.635625 
L 783.342473 324.99946 
L 780.775551 324.99946 
z
" style="fill:#55638a;"/>
   </g>
   <g id="patch_98">
    <path clip-path="url(#pacab7b5d7b)" d="M 788.109615 360.635625 
L 790.676537 360.635625 
L 790.676537 325.989353 
L 788.109615 325.989353 
z
" style="fill:#55638a;"/>
   </g>
   <g id="patch_99">
    <path clip-path="url(#pacab7b5d7b)" d="M 795.443678 360.635625 
L 798.0106 360.635625 
L 798.0106 327.375204 
L 795.443678 327.375204 
z
" style="fill:#55638a;"/>
   </g>
   <g id="patch_100">
    <path clip-path="url(#pacab7b5d7b)" d="M 802.777742 360.635625 
L 805.344664 360.635625 
L 805.344664 319.654035 
L 802.777742 319.654035 
z
" style="fill:#55638a;"/>
   </g>
   <g id="patch_101">
    <path clip-path="url(#pacab7b5d7b)" d="M 810.111805 360.635625 
L 812.678727 360.635625 
L 812.678727 319.951003 
L 810.111805 319.951003 
z
" style="fill:#55638a;"/>
   </g>
   <g id="patch_102">
    <path clip-path="url(#pacab7b5d7b)" d="M 817.445869 360.635625 
L 820.012791 360.635625 
L 820.012791 314.011642 
L 817.445869 314.011642 
z
" style="fill:#55638a;"/>
   </g>
   <g id="patch_103">
    <path clip-path="url(#pacab7b5d7b)" d="M 824.779932 360.635625 
L 827.346854 360.635625 
L 827.346854 311.635898 
L 824.779932 311.635898 
z
" style="fill:#55638a;"/>
   </g>
   <g id="patch_104">
    <path clip-path="url(#pacab7b5d7b)" d="M 832.113996 360.635625 
L 834.680918 360.635625 
L 834.680918 325.989353 
L 832.113996 325.989353 
z
" style="fill:#55638a;"/>
   </g>
   <g id="patch_105">
    <path clip-path="url(#pacab7b5d7b)" d="M 839.448059 360.635625 
L 842.014982 360.635625 
L 842.014982 343.708447 
L 839.448059 343.708447 
z
" style="fill:#55638a;"/>
   </g>
   <g id="patch_106">
    <path clip-path="url(#pacab7b5d7b)" d="M 846.782123 360.635625 
L 849.349045 360.635625 
L 849.349045 354.399296 
L 846.782123 354.399296 
z
" style="fill:#55638a;"/>
   </g>
   <g id="patch_107">
    <path clip-path="url(#pacab7b5d7b)" d="M 94.307205 360.635625 
L 96.874127 360.635625 
L 96.874127 360.041689 
L 94.307205 360.041689 
z
" style="fill:#9e1030;"/>
   </g>
   <g id="patch_108">
    <path clip-path="url(#pacab7b5d7b)" d="M 101.641268 360.635625 
L 104.208191 360.635625 
L 104.208191 360.635625 
L 101.641268 360.635625 
z
" style="fill:#9e1030;"/>
   </g>
   <g id="patch_109">
    <path clip-path="url(#pacab7b5d7b)" d="M 108.975332 360.635625 
L 111.542254 360.635625 
L 111.542254 360.635625 
L 108.975332 360.635625 
z
" style="fill:#9e1030;"/>
   </g>
   <g id="patch_110">
    <path clip-path="url(#pacab7b5d7b)" d="M 116.309396 360.635625 
L 118.876318 360.635625 
L 118.876318 360.635625 
L 116.309396 360.635625 
z
" style="fill:#9e1030;"/>
   </g>
   <g id="patch_111">
    <path clip-path="url(#pacab7b5d7b)" d="M 123.643459 360.635625 
L 126.210381 360.635625 
L 126.210381 360.635625 
L 123.643459 360.635625 
z
" style="fill:#9e1030;"/>
   </g>
   <g id="patch_112">
    <path clip-path="url(#pacab7b5d7b)" d="M 130.977523 360.635625 
L 133.544445 360.635625 
L 133.544445 360.635625 
L 130.977523 360.635625 
z
" style="fill:#9e1030;"/>
   </g>
   <g id="patch_113">
    <path clip-path="url(#pacab7b5d7b)" d="M 138.311586 360.635625 
L 140.878508 360.635625 
L 140.878508 360.041689 
L 138.311586 360.041689 
z
" style="fill:#9e1030;"/>
   </g>
   <g id="patch_114">
    <path clip-path="url(#pacab7b5d7b)" d="M 145.64565 360.635625 
L 148.212572 360.635625 
L 148.212572 359.447753 
L 145.64565 359.447753 
z
" style="fill:#9e1030;"/>
   </g>
   <g id="patch_115">
    <path clip-path="url(#pacab7b5d7b)" d="M 152.979713 360.635625 
L 155.546635 360.635625 
L 155.546635 359.447753 
L 152.979713 359.447753 
z
" style="fill:#9e1030;"/>
   </g>
   <g id="patch_116">
    <path clip-path="url(#pacab7b5d7b)" d="M 160.313777 360.635625 
L 162.880699 360.635625 
L 162.880699 356.082115 
L 160.313777 356.082115 
z
" style="fill:#9e1030;"/>
   </g>
   <g id="patch_117">
    <path clip-path="url(#pacab7b5d7b)" d="M 167.64784 360.635625 
L 170.214762 360.635625 
L 170.214762 360.041689 
L 167.64784 360.041689 
z
" style="fill:#9e1030;"/>
   </g>
   <g id="patch_118">
    <path clip-path="url(#pacab7b5d7b)" d="M 174.981904 360.635625 
L 177.548826 360.635625 
L 177.548826 357.566955 
L 174.981904 357.566955 
z
" style="fill:#9e1030;"/>
   </g>
   <g id="patch_119">
    <path clip-path="url(#pacab7b5d7b)" d="M 182.315967 360.635625 
L 184.88289 360.635625 
L 184.88289 352.518499 
L 182.315967 352.518499 
z
" style="fill:#9e1030;"/>
   </g>
   <g id="patch_120">
    <path clip-path="url(#pacab7b5d7b)" d="M 189.650031 360.635625 
L 192.216953 360.635625 
L 192.216953 356.478072 
L 189.650031 356.478072 
z
" style="fill:#9e1030;"/>
   </g>
   <g id="patch_121">
    <path clip-path="url(#pacab7b5d7b)" d="M 196.984094 360.635625 
L 199.551017 360.635625 
L 199.551017 355.785147 
L 196.984094 355.785147 
z
" style="fill:#9e1030;"/>
   </g>
   <g id="patch_122">
    <path clip-path="url(#pacab7b5d7b)" d="M 204.318158 360.635625 
L 206.88508 360.635625 
L 206.88508 353.508392 
L 204.318158 353.508392 
z
" style="fill:#9e1030;"/>
   </g>
   <g id="patch_123">
    <path clip-path="url(#pacab7b5d7b)" d="M 211.652221 360.635625 
L 214.219144 360.635625 
L 214.219144 356.478072 
L 211.652221 356.478072 
z
" style="fill:#9e1030;"/>
   </g>
   <g id="patch_124">
    <path clip-path="url(#pacab7b5d7b)" d="M 218.986285 360.635625 
L 221.553207 360.635625 
L 221.553207 359.447753 
L 218.986285 359.447753 
z
" style="fill:#9e1030;"/>
   </g>
   <g id="patch_125">
    <path clip-path="url(#pacab7b5d7b)" d="M 226.320348 360.635625 
L 228.887271 360.635625 
L 228.887271 356.082115 
L 226.320348 356.082115 
z
" style="fill:#9e1030;"/>
   </g>
   <g id="patch_126">
    <path clip-path="url(#pacab7b5d7b)" d="M 233.654412 360.635625 
L 236.221334 360.635625 
L 236.221334 354.399296 
L 233.654412 354.399296 
z
" style="fill:#9e1030;"/>
   </g>
   <g id="patch_127">
    <path clip-path="url(#pacab7b5d7b)" d="M 240.988475 360.635625 
L 243.555398 360.635625 
L 243.555398 354.696264 
L 240.988475 354.696264 
z
" style="fill:#9e1030;"/>
   </g>
   <g id="patch_128">
    <path clip-path="url(#pacab7b5d7b)" d="M 248.322539 360.635625 
L 250.889461 360.635625 
L 250.889461 352.023552 
L 248.322539 352.023552 
z
" style="fill:#9e1030;"/>
   </g>
   <g id="patch_129">
    <path clip-path="url(#pacab7b5d7b)" d="M 255.656603 360.635625 
L 258.223525 360.635625 
L 258.223525 347.470042 
L 255.656603 347.470042 
z
" style="fill:#9e1030;"/>
   </g>
   <g id="patch_130">
    <path clip-path="url(#pacab7b5d7b)" d="M 262.990666 360.635625 
L 265.557588 360.635625 
L 265.557588 348.954882 
L 262.990666 348.954882 
z
" style="fill:#9e1030;"/>
   </g>
   <g id="patch_131">
    <path clip-path="url(#pacab7b5d7b)" d="M 270.32473 360.635625 
L 272.891652 360.635625 
L 272.891652 338.758979 
L 270.32473 338.758979 
z
" style="fill:#9e1030;"/>
   </g>
   <g id="patch_132">
    <path clip-path="url(#pacab7b5d7b)" d="M 277.658793 360.635625 
L 280.225715 360.635625 
L 280.225715 332.52265 
L 277.658793 332.52265 
z
" style="fill:#9e1030;"/>
   </g>
   <g id="patch_133">
    <path clip-path="url(#pacab7b5d7b)" d="M 284.992857 360.635625 
L 287.559779 360.635625 
L 287.559779 334.799405 
L 284.992857 334.799405 
z
" style="fill:#9e1030;"/>
   </g>
   <g id="patch_134">
    <path clip-path="url(#pacab7b5d7b)" d="M 292.32692 360.635625 
L 294.893842 360.635625 
L 294.893842 324.801481 
L 292.32692 324.801481 
z
" style="fill:#9e1030;"/>
   </g>
   <g id="patch_135">
    <path clip-path="url(#pacab7b5d7b)" d="M 299.660984 360.635625 
L 302.227906 360.635625 
L 302.227906 321.435844 
L 299.660984 321.435844 
z
" style="fill:#9e1030;"/>
   </g>
   <g id="patch_136">
    <path clip-path="url(#pacab7b5d7b)" d="M 306.995047 360.635625 
L 309.561969 360.635625 
L 309.561969 335.789299 
L 306.995047 335.789299 
z
" style="fill:#9e1030;"/>
   </g>
   <g id="patch_137">
    <path clip-path="url(#pacab7b5d7b)" d="M 314.329111 360.635625 
L 316.896033 360.635625 
L 316.896033 326.286322 
L 314.329111 326.286322 
z
" style="fill:#9e1030;"/>
   </g>
   <g id="patch_138">
    <path clip-path="url(#pacab7b5d7b)" d="M 321.663174 360.635625 
L 324.230097 360.635625 
L 324.230097 331.532757 
L 321.663174 331.532757 
z
" style="fill:#9e1030;"/>
   </g>
   <g id="patch_139">
    <path clip-path="url(#pacab7b5d7b)" d="M 328.997238 360.635625 
L 331.56416 360.635625 
L 331.56416 331.730736 
L 328.997238 331.730736 
z
" style="fill:#9e1030;"/>
   </g>
   <g id="patch_140">
    <path clip-path="url(#pacab7b5d7b)" d="M 336.331301 360.635625 
L 338.898224 360.635625 
L 338.898224 326.187332 
L 336.331301 326.187332 
z
" style="fill:#9e1030;"/>
   </g>
   <g id="patch_141">
    <path clip-path="url(#pacab7b5d7b)" d="M 343.665365 360.635625 
L 346.232287 360.635625 
L 346.232287 323.613609 
L 343.665365 323.613609 
z
" style="fill:#9e1030;"/>
   </g>
   <g id="patch_142">
    <path clip-path="url(#pacab7b5d7b)" d="M 350.999428 360.635625 
L 353.566351 360.635625 
L 353.566351 322.920684 
L 350.999428 322.920684 
z
" style="fill:#9e1030;"/>
   </g>
   <g id="patch_143">
    <path clip-path="url(#pacab7b5d7b)" d="M 358.333492 360.635625 
L 360.900414 360.635625 
L 360.900414 327.771162 
L 358.333492 327.771162 
z
" style="fill:#9e1030;"/>
   </g>
   <g id="patch_144">
    <path clip-path="url(#pacab7b5d7b)" d="M 365.667555 360.635625 
L 368.234478 360.635625 
L 368.234478 331.928714 
L 365.667555 331.928714 
z
" style="fill:#9e1030;"/>
   </g>
   <g id="patch_145">
    <path clip-path="url(#pacab7b5d7b)" d="M 373.001619 360.635625 
L 375.568541 360.635625 
L 375.568541 332.027704 
L 373.001619 332.027704 
z
" style="fill:#9e1030;"/>
   </g>
   <g id="patch_146">
    <path clip-path="url(#pacab7b5d7b)" d="M 380.335683 360.635625 
L 382.902605 360.635625 
L 382.902605 334.700416 
L 380.335683 334.700416 
z
" style="fill:#9e1030;"/>
   </g>
   <g id="patch_147">
    <path clip-path="url(#pacab7b5d7b)" d="M 387.669746 360.635625 
L 390.236668 360.635625 
L 390.236668 337.670096 
L 387.669746 337.670096 
z
" style="fill:#9e1030;"/>
   </g>
   <g id="patch_148">
    <path clip-path="url(#pacab7b5d7b)" d="M 395.00381 360.635625 
L 397.570732 360.635625 
L 397.570732 329.651959 
L 395.00381 329.651959 
z
" style="fill:#9e1030;"/>
   </g>
   <g id="patch_149">
    <path clip-path="url(#pacab7b5d7b)" d="M 402.337873 360.635625 
L 404.904795 360.635625 
L 404.904795 331.730736 
L 402.337873 331.730736 
z
" style="fill:#9e1030;"/>
   </g>
   <g id="patch_150">
    <path clip-path="url(#pacab7b5d7b)" d="M 409.671937 360.635625 
L 412.238859 360.635625 
L 412.238859 330.542863 
L 409.671937 330.542863 
z
" style="fill:#9e1030;"/>
   </g>
   <g id="patch_151">
    <path clip-path="url(#pacab7b5d7b)" d="M 417.006 360.635625 
L 419.572922 360.635625 
L 419.572922 326.187332 
L 417.006 326.187332 
z
" style="fill:#9e1030;"/>
   </g>
   <g id="patch_152">
    <path clip-path="url(#pacab7b5d7b)" d="M 424.340064 360.635625 
L 426.906986 360.635625 
L 426.906986 323.41563 
L 424.340064 323.41563 
z
" style="fill:#9e1030;"/>
   </g>
   <g id="patch_153">
    <path clip-path="url(#pacab7b5d7b)" d="M 431.674127 360.635625 
L 434.241049 360.635625 
L 434.241049 324.900471 
L 431.674127 324.900471 
z
" style="fill:#9e1030;"/>
   </g>
   <g id="patch_154">
    <path clip-path="url(#pacab7b5d7b)" d="M 439.008191 360.635625 
L 441.575113 360.635625 
L 441.575113 328.266108 
L 439.008191 328.266108 
z
" style="fill:#9e1030;"/>
   </g>
   <g id="patch_155">
    <path clip-path="url(#pacab7b5d7b)" d="M 446.342254 360.635625 
L 448.909176 360.635625 
L 448.909176 329.058023 
L 446.342254 329.058023 
z
" style="fill:#9e1030;"/>
   </g>
   <g id="patch_156">
    <path clip-path="url(#pacab7b5d7b)" d="M 453.676318 360.635625 
L 456.24324 360.635625 
L 456.24324 320.148982 
L 453.676318 320.148982 
z
" style="fill:#9e1030;"/>
   </g>
   <g id="patch_157">
    <path clip-path="url(#pacab7b5d7b)" d="M 461.010381 360.635625 
L 463.577304 360.635625 
L 463.577304 326.58329 
L 461.010381 326.58329 
z
" style="fill:#9e1030;"/>
   </g>
   <g id="patch_158">
    <path clip-path="url(#pacab7b5d7b)" d="M 468.344445 360.635625 
L 470.911367 360.635625 
L 470.911367 316.288397 
L 468.344445 316.288397 
z
" style="fill:#9e1030;"/>
   </g>
   <g id="patch_159">
    <path clip-path="url(#pacab7b5d7b)" d="M 475.678508 360.635625 
L 478.245431 360.635625 
L 478.245431 319.060099 
L 475.678508 319.060099 
z
" style="fill:#9e1030;"/>
   </g>
   <g id="patch_160">
    <path clip-path="url(#pacab7b5d7b)" d="M 483.012572 360.635625 
L 485.579494 360.635625 
L 485.579494 322.425737 
L 483.012572 322.425737 
z
" style="fill:#9e1030;"/>
   </g>
   <g id="patch_161">
    <path clip-path="url(#pacab7b5d7b)" d="M 490.346635 360.635625 
L 492.913558 360.635625 
L 492.913558 357.072009 
L 490.346635 357.072009 
z
" style="fill:#9e1030;"/>
   </g>
   <g id="patch_162">
    <path clip-path="url(#pacab7b5d7b)" d="M 497.680699 360.635625 
L 500.247621 360.635625 
L 500.247621 359.447753 
L 497.680699 359.447753 
z
" style="fill:#9e1030;"/>
   </g>
   <g id="patch_163">
    <path clip-path="url(#pacab7b5d7b)" d="M 505.014762 360.635625 
L 507.581685 360.635625 
L 507.581685 358.853817 
L 505.014762 358.853817 
z
" style="fill:#9e1030;"/>
   </g>
   <g id="patch_164">
    <path clip-path="url(#pacab7b5d7b)" d="M 512.348826 360.635625 
L 514.915748 360.635625 
L 514.915748 358.556849 
L 512.348826 358.556849 
z
" style="fill:#9e1030;"/>
   </g>
   <g id="patch_165">
    <path clip-path="url(#pacab7b5d7b)" d="M 519.68289 360.635625 
L 522.249812 360.635625 
L 522.249812 357.368977 
L 519.68289 357.368977 
z
" style="fill:#9e1030;"/>
   </g>
   <g id="patch_166">
    <path clip-path="url(#pacab7b5d7b)" d="M 527.016953 360.635625 
L 529.583875 360.635625 
L 529.583875 358.259881 
L 527.016953 358.259881 
z
" style="fill:#9e1030;"/>
   </g>
   <g id="patch_167">
    <path clip-path="url(#pacab7b5d7b)" d="M 534.351017 360.635625 
L 536.917939 360.635625 
L 536.917939 356.478072 
L 534.351017 356.478072 
z
" style="fill:#9e1030;"/>
   </g>
   <g id="patch_168">
    <path clip-path="url(#pacab7b5d7b)" d="M 541.68508 360.635625 
L 544.252002 360.635625 
L 544.252002 321.336854 
L 541.68508 321.336854 
z
" style="fill:#9e1030;"/>
   </g>
   <g id="patch_169">
    <path clip-path="url(#pacab7b5d7b)" d="M 549.019144 360.635625 
L 551.586066 360.635625 
L 551.586066 300.74707 
L 549.019144 300.74707 
z
" style="fill:#9e1030;"/>
   </g>
   <g id="patch_170">
    <path clip-path="url(#pacab7b5d7b)" d="M 556.353207 360.635625 
L 558.920129 360.635625 
L 558.920129 299.559198 
L 556.353207 299.559198 
z
" style="fill:#9e1030;"/>
   </g>
   <g id="patch_171">
    <path clip-path="url(#pacab7b5d7b)" d="M 563.687271 360.635625 
L 566.254193 360.635625 
L 566.254193 288.472391 
L 563.687271 288.472391 
z
" style="fill:#9e1030;"/>
   </g>
   <g id="patch_172">
    <path clip-path="url(#pacab7b5d7b)" d="M 571.021334 360.635625 
L 573.588256 360.635625 
L 573.588256 287.680476 
L 571.021334 287.680476 
z
" style="fill:#9e1030;"/>
   </g>
   <g id="patch_173">
    <path clip-path="url(#pacab7b5d7b)" d="M 578.355398 360.635625 
L 580.92232 360.635625 
L 580.92232 284.215849 
L 578.355398 284.215849 
z
" style="fill:#9e1030;"/>
   </g>
   <g id="patch_174">
    <path clip-path="url(#pacab7b5d7b)" d="M 585.689461 360.635625 
L 588.256383 360.635625 
L 588.256383 290.254199 
L 585.689461 290.254199 
z
" style="fill:#9e1030;"/>
   </g>
   <g id="patch_175">
    <path clip-path="url(#pacab7b5d7b)" d="M 593.023525 360.635625 
L 595.590447 360.635625 
L 595.590447 284.215849 
L 593.023525 284.215849 
z
" style="fill:#9e1030;"/>
   </g>
   <g id="patch_176">
    <path clip-path="url(#pacab7b5d7b)" d="M 600.357588 360.635625 
L 602.924511 360.635625 
L 602.924511 303.221804 
L 600.357588 303.221804 
z
" style="fill:#9e1030;"/>
   </g>
   <g id="patch_177">
    <path clip-path="url(#pacab7b5d7b)" d="M 607.691652 360.635625 
L 610.258574 360.635625 
L 610.258574 279.068403 
L 607.691652 279.068403 
z
" style="fill:#9e1030;"/>
   </g>
   <g id="patch_178">
    <path clip-path="url(#pacab7b5d7b)" d="M 615.025715 360.635625 
L 617.592638 360.635625 
L 617.592638 273.42601 
L 615.025715 273.42601 
z
" style="fill:#9e1030;"/>
   </g>
   <g id="patch_179">
    <path clip-path="url(#pacab7b5d7b)" d="M 622.359779 360.635625 
L 624.926701 360.635625 
L 624.926701 290.551167 
L 622.359779 290.551167 
z
" style="fill:#9e1030;"/>
   </g>
   <g id="patch_180">
    <path clip-path="url(#pacab7b5d7b)" d="M 629.693842 360.635625 
L 632.260765 360.635625 
L 632.260765 286.789572 
L 629.693842 286.789572 
z
" style="fill:#9e1030;"/>
   </g>
   <g id="patch_181">
    <path clip-path="url(#pacab7b5d7b)" d="M 637.027906 360.635625 
L 639.594828 360.635625 
L 639.594828 278.177499 
L 637.027906 278.177499 
z
" style="fill:#9e1030;"/>
   </g>
   <g id="patch_182">
    <path clip-path="url(#pacab7b5d7b)" d="M 644.361969 360.635625 
L 646.928892 360.635625 
L 646.928892 287.977444 
L 644.361969 287.977444 
z
" style="fill:#9e1030;"/>
   </g>
   <g id="patch_183">
    <path clip-path="url(#pacab7b5d7b)" d="M 651.696033 360.635625 
L 654.262955 360.635625 
L 654.262955 288.472391 
L 651.696033 288.472391 
z
" style="fill:#9e1030;"/>
   </g>
   <g id="patch_184">
    <path clip-path="url(#pacab7b5d7b)" d="M 659.030097 360.635625 
L 661.597019 360.635625 
L 661.597019 290.749146 
L 659.030097 290.749146 
z
" style="fill:#9e1030;"/>
   </g>
   <g id="patch_185">
    <path clip-path="url(#pacab7b5d7b)" d="M 666.36416 360.635625 
L 668.931082 360.635625 
L 668.931082 274.019946 
L 666.36416 274.019946 
z
" style="fill:#9e1030;"/>
   </g>
   <g id="patch_186">
    <path clip-path="url(#pacab7b5d7b)" d="M 673.698224 360.635625 
L 676.265146 360.635625 
L 676.265146 266.793724 
L 673.698224 266.793724 
z
" style="fill:#9e1030;"/>
   </g>
   <g id="patch_187">
    <path clip-path="url(#pacab7b5d7b)" d="M 681.032287 360.635625 
L 683.599209 360.635625 
L 683.599209 266.199788 
L 681.032287 266.199788 
z
" style="fill:#9e1030;"/>
   </g>
   <g id="patch_188">
    <path clip-path="url(#pacab7b5d7b)" d="M 688.366351 360.635625 
L 690.933273 360.635625 
L 690.933273 251.153407 
L 688.366351 251.153407 
z
" style="fill:#9e1030;"/>
   </g>
   <g id="patch_189">
    <path clip-path="url(#pacab7b5d7b)" d="M 695.700414 360.635625 
L 698.267336 360.635625 
L 698.267336 255.112981 
L 695.700414 255.112981 
z
" style="fill:#9e1030;"/>
   </g>
   <g id="patch_190">
    <path clip-path="url(#pacab7b5d7b)" d="M 703.034478 360.635625 
L 705.6014 360.635625 
L 705.6014 259.567502 
L 703.034478 259.567502 
z
" style="fill:#9e1030;"/>
   </g>
   <g id="patch_191">
    <path clip-path="url(#pacab7b5d7b)" d="M 710.368541 360.635625 
L 712.935463 360.635625 
L 712.935463 256.201864 
L 710.368541 256.201864 
z
" style="fill:#9e1030;"/>
   </g>
   <g id="patch_192">
    <path clip-path="url(#pacab7b5d7b)" d="M 717.702605 360.635625 
L 720.269527 360.635625 
L 720.269527 253.133194 
L 717.702605 253.133194 
z
" style="fill:#9e1030;"/>
   </g>
   <g id="patch_193">
    <path clip-path="url(#pacab7b5d7b)" d="M 725.036668 360.635625 
L 727.60359 360.635625 
L 727.60359 258.28064 
L 725.036668 258.28064 
z
" style="fill:#9e1030;"/>
   </g>
   <g id="patch_194">
    <path clip-path="url(#pacab7b5d7b)" d="M 732.370732 360.635625 
L 734.937654 360.635625 
L 734.937654 255.607928 
L 732.370732 255.607928 
z
" style="fill:#9e1030;"/>
   </g>
   <g id="patch_195">
    <path clip-path="url(#pacab7b5d7b)" d="M 739.704795 360.635625 
L 742.271718 360.635625 
L 742.271718 243.333249 
L 739.704795 243.333249 
z
" style="fill:#9e1030;"/>
   </g>
   <g id="patch_196">
    <path clip-path="url(#pacab7b5d7b)" d="M 747.038859 360.635625 
L 749.605781 360.635625 
L 749.605781 214.626338 
L 747.038859 214.626338 
z
" style="fill:#9e1030;"/>
   </g>
   <g id="patch_197">
    <path clip-path="url(#pacab7b5d7b)" d="M 754.372922 360.635625 
L 756.939845 360.635625 
L 756.939845 217.200061 
L 754.372922 217.200061 
z
" style="fill:#9e1030;"/>
   </g>
   <g id="patch_198">
    <path clip-path="url(#pacab7b5d7b)" d="M 761.706986 360.635625 
L 764.273908 360.635625 
L 764.273908 201.064797 
L 761.706986 201.064797 
z
" style="fill:#9e1030;"/>
   </g>
   <g id="patch_199">
    <path clip-path="url(#pacab7b5d7b)" d="M 769.041049 360.635625 
L 771.607972 360.635625 
L 771.607972 176.614429 
L 769.041049 176.614429 
z
" style="fill:#9e1030;"/>
   </g>
   <g id="patch_200">
    <path clip-path="url(#pacab7b5d7b)" d="M 776.375113 360.635625 
L 778.942035 360.635625 
L 778.942035 150.184273 
L 776.375113 150.184273 
z
" style="fill:#9e1030;"/>
   </g>
   <g id="patch_201">
    <path clip-path="url(#pacab7b5d7b)" d="M 783.709176 360.635625 
L 786.276099 360.635625 
L 786.276099 136.226775 
L 783.709176 136.226775 
z
" style="fill:#9e1030;"/>
   </g>
   <g id="patch_202">
    <path clip-path="url(#pacab7b5d7b)" d="M 791.04324 360.635625 
L 793.610162 360.635625 
L 793.610162 141.176242 
L 791.04324 141.176242 
z
" style="fill:#9e1030;"/>
   </g>
   <g id="patch_203">
    <path clip-path="url(#pacab7b5d7b)" d="M 798.377304 360.635625 
L 800.944226 360.635625 
L 800.944226 154.143847 
L 798.377304 154.143847 
z
" style="fill:#9e1030;"/>
   </g>
   <g id="patch_204">
    <path clip-path="url(#pacab7b5d7b)" d="M 805.711367 360.635625 
L 808.278289 360.635625 
L 808.278289 113.459225 
L 805.711367 113.459225 
z
" style="fill:#9e1030;"/>
   </g>
   <g id="patch_205">
    <path clip-path="url(#pacab7b5d7b)" d="M 813.045431 360.635625 
L 815.612353 360.635625 
L 815.612353 111.677417 
L 813.045431 111.677417 
z
" style="fill:#9e1030;"/>
   </g>
   <g id="patch_206">
    <path clip-path="url(#pacab7b5d7b)" d="M 820.379494 360.635625 
L 822.946416 360.635625 
L 822.946416 73.467529 
L 820.379494 73.467529 
z
" style="fill:#9e1030;"/>
   </g>
   <g id="patch_207">
    <path clip-path="url(#pacab7b5d7b)" d="M 827.713558 360.635625 
L 830.28048 360.635625 
L 830.28048 50.007054 
L 827.713558 50.007054 
z
" style="fill:#9e1030;"/>
   </g>
   <g id="patch_208">
    <path clip-path="url(#pacab7b5d7b)" d="M 835.047621 360.635625 
L 837.614543 360.635625 
L 837.614543 149.09539 
L 835.047621 149.09539 
z
" style="fill:#9e1030;"/>
   </g>
   <g id="patch_209">
    <path clip-path="url(#pacab7b5d7b)" d="M 842.381685 360.635625 
L 844.948607 360.635625 
L 844.948607 259.072555 
L 842.381685 259.072555 
z
" style="fill:#9e1030;"/>
   </g>
   <g id="patch_210">
    <path clip-path="url(#pacab7b5d7b)" d="M 849.715748 360.635625 
L 852.28267 360.635625 
L 852.28267 323.217652 
L 849.715748 323.217652 
z
" style="fill:#9e1030;"/>
   </g>
   <g id="matplotlib.axis_1">
    <g id="xtick_1">
     <g id="line2d_1">
      <defs>
       <path d="M 0 0 
L 0 3.5 
" id="mf1a23c01f2" style="stroke:#000000;stroke-width:0.8;"/>
      </defs>
      <g>
       <use style="stroke:#000000;stroke-width:0.8;" x="195.33393" xlink:href="#mf1a23c01f2" y="360.635625"/>
      </g>
     </g>
     <g id="text_1">
      <!-- 1920 -->
      <defs>
       <path d="M 12.40625 8.296875 
L 28.515625 8.296875 
L 28.515625 63.921875 
L 10.984375 60.40625 
L 10.984375 69.390625 
L 28.421875 72.90625 
L 38.28125 72.90625 
L 38.28125 8.296875 
L 54.390625 8.296875 
L 54.390625 0 
L 12.40625 0 
z
" id="DejaVuSans-31"/>
       <path d="M 10.984375 1.515625 
L 10.984375 10.5 
Q 14.703125 8.734375 18.5 7.8125 
Q 22.3125 6.890625 25.984375 6.890625 
Q 35.75 6.890625 40.890625 13.453125 
Q 46.046875 20.015625 46.78125 33.40625 
Q 43.953125 29.203125 39.59375 26.953125 
Q 35.25 24.703125 29.984375 24.703125 
Q 19.046875 24.703125 12.671875 31.3125 
Q 6.296875 37.9375 6.296875 49.421875 
Q 6.296875 60.640625 12.9375 67.421875 
Q 19.578125 74.21875 30.609375 74.21875 
Q 43.265625 74.21875 49.921875 64.515625 
Q 56.59375 54.828125 56.59375 36.375 
Q 56.59375 19.140625 48.40625 8.859375 
Q 40.234375 -1.421875 26.421875 -1.421875 
Q 22.703125 -1.421875 18.890625 -0.6875 
Q 15.09375 0.046875 10.984375 1.515625 
z
M 30.609375 32.421875 
Q 37.25 32.421875 41.125 36.953125 
Q 45.015625 41.5 45.015625 49.421875 
Q 45.015625 57.28125 41.125 61.84375 
Q 37.25 66.40625 30.609375 66.40625 
Q 23.96875 66.40625 20.09375 61.84375 
Q 16.21875 57.28125 16.21875 49.421875 
Q 16.21875 41.5 20.09375 36.953125 
Q 23.96875 32.421875 30.609375 32.421875 
z
" id="DejaVuSans-39"/>
       <path d="M 19.1875 8.296875 
L 53.609375 8.296875 
L 53.609375 0 
L 7.328125 0 
L 7.328125 8.296875 
Q 12.9375 14.109375 22.625 23.890625 
Q 32.328125 33.6875 34.8125 36.53125 
Q 39.546875 41.84375 41.421875 45.53125 
Q 43.3125 49.21875 43.3125 52.78125 
Q 43.3125 58.59375 39.234375 62.25 
Q 35.15625 65.921875 28.609375 65.921875 
Q 23.96875 65.921875 18.8125 64.3125 
Q 13.671875 62.703125 7.8125 59.421875 
L 7.8125 69.390625 
Q 13.765625 71.78125 18.9375 73 
Q 24.125 74.21875 28.421875 74.21875 
Q 39.75 74.21875 46.484375 68.546875 
Q 53.21875 62.890625 53.21875 53.421875 
Q 53.21875 48.921875 51.53125 44.890625 
Q 49.859375 40.875 45.40625 35.40625 
Q 44.1875 33.984375 37.640625 27.21875 
Q 31.109375 20.453125 19.1875 8.296875 
z
" id="DejaVuSans-32"/>
       <path d="M 31.78125 66.40625 
Q 24.171875 66.40625 20.328125 58.90625 
Q 16.5 51.421875 16.5 36.375 
Q 16.5 21.390625 20.328125 13.890625 
Q 24.171875 6.390625 31.78125 6.390625 
Q 39.453125 6.390625 43.28125 13.890625 
Q 47.125 21.390625 47.125 36.375 
Q 47.125 51.421875 43.28125 58.90625 
Q 39.453125 66.40625 31.78125 66.40625 
z
M 31.78125 74.21875 
Q 44.046875 74.21875 50.515625 64.515625 
Q 56.984375 54.828125 56.984375 36.375 
Q 56.984375 17.96875 50.515625 8.265625 
Q 44.046875 -1.421875 31.78125 -1.421875 
Q 19.53125 -1.421875 13.0625 8.265625 
Q 6.59375 17.96875 6.59375 36.375 
Q 6.59375 54.828125 13.0625 64.515625 
Q 19.53125 74.21875 31.78125 74.21875 
z
" id="DejaVuSans-30"/>
      </defs>
      <g transform="translate(182.60893 375.234062)scale(0.1 -0.1)">
       <use xlink:href="#DejaVuSans-31"/>
       <use x="63.623047" xlink:href="#DejaVuSans-39"/>
       <use x="127.246094" xlink:href="#DejaVuSans-32"/>
       <use x="190.869141" xlink:href="#DejaVuSans-30"/>
      </g>
     </g>
    </g>
    <g id="xtick_2">
     <g id="line2d_2">
      <g>
       <use style="stroke:#000000;stroke-width:0.8;" x="342.015201" xlink:href="#mf1a23c01f2" y="360.635625"/>
      </g>
     </g>
     <g id="text_2">
      <!-- 1940 -->
      <defs>
       <path d="M 37.796875 64.3125 
L 12.890625 25.390625 
L 37.796875 25.390625 
z
M 35.203125 72.90625 
L 47.609375 72.90625 
L 47.609375 25.390625 
L 58.015625 25.390625 
L 58.015625 17.1875 
L 47.609375 17.1875 
L 47.609375 0 
L 37.796875 0 
L 37.796875 17.1875 
L 4.890625 17.1875 
L 4.890625 26.703125 
z
" id="DejaVuSans-34"/>
      </defs>
      <g transform="translate(329.290201 375.234062)scale(0.1 -0.1)">
       <use xlink:href="#DejaVuSans-31"/>
       <use x="63.623047" xlink:href="#DejaVuSans-39"/>
       <use x="127.246094" xlink:href="#DejaVuSans-34"/>
       <use x="190.869141" xlink:href="#DejaVuSans-30"/>
      </g>
     </g>
    </g>
    <g id="xtick_3">
     <g id="line2d_3">
      <g>
       <use style="stroke:#000000;stroke-width:0.8;" x="488.696471" xlink:href="#mf1a23c01f2" y="360.635625"/>
      </g>
     </g>
     <g id="text_3">
      <!-- 1960 -->
      <defs>
       <path d="M 33.015625 40.375 
Q 26.375 40.375 22.484375 35.828125 
Q 18.609375 31.296875 18.609375 23.390625 
Q 18.609375 15.53125 22.484375 10.953125 
Q 26.375 6.390625 33.015625 6.390625 
Q 39.65625 6.390625 43.53125 10.953125 
Q 47.40625 15.53125 47.40625 23.390625 
Q 47.40625 31.296875 43.53125 35.828125 
Q 39.65625 40.375 33.015625 40.375 
z
M 52.59375 71.296875 
L 52.59375 62.3125 
Q 48.875 64.0625 45.09375 64.984375 
Q 41.3125 65.921875 37.59375 65.921875 
Q 27.828125 65.921875 22.671875 59.328125 
Q 17.53125 52.734375 16.796875 39.40625 
Q 19.671875 43.65625 24.015625 45.921875 
Q 28.375 48.1875 33.59375 48.1875 
Q 44.578125 48.1875 50.953125 41.515625 
Q 57.328125 34.859375 57.328125 23.390625 
Q 57.328125 12.15625 50.6875 5.359375 
Q 44.046875 -1.421875 33.015625 -1.421875 
Q 20.359375 -1.421875 13.671875 8.265625 
Q 6.984375 17.96875 6.984375 36.375 
Q 6.984375 53.65625 15.1875 63.9375 
Q 23.390625 74.21875 37.203125 74.21875 
Q 40.921875 74.21875 44.703125 73.484375 
Q 48.484375 72.75 52.59375 71.296875 
z
" id="DejaVuSans-36"/>
      </defs>
      <g transform="translate(475.971471 375.234062)scale(0.1 -0.1)">
       <use xlink:href="#DejaVuSans-31"/>
       <use x="63.623047" xlink:href="#DejaVuSans-39"/>
       <use x="127.246094" xlink:href="#DejaVuSans-36"/>
       <use x="190.869141" xlink:href="#DejaVuSans-30"/>
      </g>
     </g>
    </g>
    <g id="xtick_4">
     <g id="line2d_4">
      <g>
       <use style="stroke:#000000;stroke-width:0.8;" x="635.377742" xlink:href="#mf1a23c01f2" y="360.635625"/>
      </g>
     </g>
     <g id="text_4">
      <!-- 1980 -->
      <defs>
       <path d="M 31.78125 34.625 
Q 24.75 34.625 20.71875 30.859375 
Q 16.703125 27.09375 16.703125 20.515625 
Q 16.703125 13.921875 20.71875 10.15625 
Q 24.75 6.390625 31.78125 6.390625 
Q 38.8125 6.390625 42.859375 10.171875 
Q 46.921875 13.96875 46.921875 20.515625 
Q 46.921875 27.09375 42.890625 30.859375 
Q 38.875 34.625 31.78125 34.625 
z
M 21.921875 38.8125 
Q 15.578125 40.375 12.03125 44.71875 
Q 8.5 49.078125 8.5 55.328125 
Q 8.5 64.0625 14.71875 69.140625 
Q 20.953125 74.21875 31.78125 74.21875 
Q 42.671875 74.21875 48.875 69.140625 
Q 55.078125 64.0625 55.078125 55.328125 
Q 55.078125 49.078125 51.53125 44.71875 
Q 48 40.375 41.703125 38.8125 
Q 48.828125 37.15625 52.796875 32.3125 
Q 56.78125 27.484375 56.78125 20.515625 
Q 56.78125 9.90625 50.3125 4.234375 
Q 43.84375 -1.421875 31.78125 -1.421875 
Q 19.734375 -1.421875 13.25 4.234375 
Q 6.78125 9.90625 6.78125 20.515625 
Q 6.78125 27.484375 10.78125 32.3125 
Q 14.796875 37.15625 21.921875 38.8125 
z
M 18.3125 54.390625 
Q 18.3125 48.734375 21.84375 45.5625 
Q 25.390625 42.390625 31.78125 42.390625 
Q 38.140625 42.390625 41.71875 45.5625 
Q 45.3125 48.734375 45.3125 54.390625 
Q 45.3125 60.0625 41.71875 63.234375 
Q 38.140625 66.40625 31.78125 66.40625 
Q 25.390625 66.40625 21.84375 63.234375 
Q 18.3125 60.0625 18.3125 54.390625 
z
" id="DejaVuSans-38"/>
      </defs>
      <g transform="translate(622.652742 375.234062)scale(0.1 -0.1)">
       <use xlink:href="#DejaVuSans-31"/>
       <use x="63.623047" xlink:href="#DejaVuSans-39"/>
       <use x="127.246094" xlink:href="#DejaVuSans-38"/>
       <use x="190.869141" xlink:href="#DejaVuSans-30"/>
      </g>
     </g>
    </g>
    <g id="xtick_5">
     <g id="line2d_5">
      <g>
       <use style="stroke:#000000;stroke-width:0.8;" x="782.059012" xlink:href="#mf1a23c01f2" y="360.635625"/>
      </g>
     </g>
     <g id="text_5">
      <!-- 2000 -->
      <g transform="translate(769.334012 375.234062)scale(0.1 -0.1)">
       <use xlink:href="#DejaVuSans-32"/>
       <use x="63.623047" xlink:href="#DejaVuSans-30"/>
       <use x="127.246094" xlink:href="#DejaVuSans-30"/>
       <use x="190.869141" xlink:href="#DejaVuSans-30"/>
      </g>
     </g>
    </g>
    <g id="text_6">
     <!-- Year -->
     <defs>
      <path d="M -0.203125 72.90625 
L 10.40625 72.90625 
L 30.609375 42.921875 
L 50.6875 72.90625 
L 61.28125 72.90625 
L 35.5 34.71875 
L 35.5 0 
L 25.59375 0 
L 25.59375 34.71875 
z
" id="DejaVuSans-59"/>
      <path d="M 56.203125 29.59375 
L 56.203125 25.203125 
L 14.890625 25.203125 
Q 15.484375 15.921875 20.484375 11.0625 
Q 25.484375 6.203125 34.421875 6.203125 
Q 39.59375 6.203125 44.453125 7.46875 
Q 49.3125 8.734375 54.109375 11.28125 
L 54.109375 2.78125 
Q 49.265625 0.734375 44.1875 -0.34375 
Q 39.109375 -1.421875 33.890625 -1.421875 
Q 20.796875 -1.421875 13.15625 6.1875 
Q 5.515625 13.8125 5.515625 26.8125 
Q 5.515625 40.234375 12.765625 48.109375 
Q 20.015625 56 32.328125 56 
Q 43.359375 56 49.78125 48.890625 
Q 56.203125 41.796875 56.203125 29.59375 
z
M 47.21875 32.234375 
Q 47.125 39.59375 43.09375 43.984375 
Q 39.0625 48.390625 32.421875 48.390625 
Q 24.90625 48.390625 20.390625 44.140625 
Q 15.875 39.890625 15.1875 32.171875 
z
" id="DejaVuSans-65"/>
      <path d="M 34.28125 27.484375 
Q 23.390625 27.484375 19.1875 25 
Q 14.984375 22.515625 14.984375 16.5 
Q 14.984375 11.71875 18.140625 8.90625 
Q 21.296875 6.109375 26.703125 6.109375 
Q 34.1875 6.109375 38.703125 11.40625 
Q 43.21875 16.703125 43.21875 25.484375 
L 43.21875 27.484375 
z
M 52.203125 31.203125 
L 52.203125 0 
L 43.21875 0 
L 43.21875 8.296875 
Q 40.140625 3.328125 35.546875 0.953125 
Q 30.953125 -1.421875 24.3125 -1.421875 
Q 15.921875 -1.421875 10.953125 3.296875 
Q 6 8.015625 6 15.921875 
Q 6 25.140625 12.171875 29.828125 
Q 18.359375 34.515625 30.609375 34.515625 
L 43.21875 34.515625 
L 43.21875 35.40625 
Q 43.21875 41.609375 39.140625 45 
Q 35.0625 48.390625 27.6875 48.390625 
Q 23 48.390625 18.546875 47.265625 
Q 14.109375 46.140625 10.015625 43.890625 
L 10.015625 52.203125 
Q 14.9375 54.109375 19.578125 55.046875 
Q 24.21875 56 28.609375 56 
Q 40.484375 56 46.34375 49.84375 
Q 52.203125 43.703125 52.203125 31.203125 
z
" id="DejaVuSans-61"/>
      <path d="M 41.109375 46.296875 
Q 39.59375 47.171875 37.8125 47.578125 
Q 36.03125 48 33.890625 48 
Q 26.265625 48 22.1875 43.046875 
Q 18.109375 38.09375 18.109375 28.8125 
L 18.109375 0 
L 9.078125 0 
L 9.078125 54.6875 
L 18.109375 54.6875 
L 18.109375 46.1875 
Q 20.953125 51.171875 25.484375 53.578125 
Q 30.03125 56 36.53125 56 
Q 37.453125 56 38.578125 55.875 
Q 39.703125 55.765625 41.0625 55.515625 
z
" id="DejaVuSans-72"/>
     </defs>
     <g transform="translate(460.588281 388.912187)scale(0.1 -0.1)">
      <use xlink:href="#DejaVuSans-59"/>
      <use x="60.880859" xlink:href="#DejaVuSans-65"/>
      <use x="122.404297" xlink:href="#DejaVuSans-61"/>
      <use x="183.683594" xlink:href="#DejaVuSans-72"/>
     </g>
    </g>
   </g>
   <g id="matplotlib.axis_2">
    <g id="ytick_1">
     <g id="line2d_6">
      <defs>
       <path d="M 0 0 
L -3.5 0 
" id="m5627aa4b77" style="stroke:#000000;stroke-width:0.8;"/>
      </defs>
      <g>
       <use style="stroke:#000000;stroke-width:0.8;" x="53.328125" xlink:href="#m5627aa4b77" y="360.635625"/>
      </g>
     </g>
     <g id="text_7">
      <!-- 0 -->
      <g transform="translate(39.965625 364.434844)scale(0.1 -0.1)">
       <use xlink:href="#DejaVuSans-30"/>
      </g>
     </g>
    </g>
    <g id="ytick_2">
     <g id="line2d_7">
      <g>
       <use style="stroke:#000000;stroke-width:0.8;" x="53.328125" xlink:href="#m5627aa4b77" y="311.140951"/>
      </g>
     </g>
     <g id="text_8">
      <!-- 500 -->
      <defs>
       <path d="M 10.796875 72.90625 
L 49.515625 72.90625 
L 49.515625 64.59375 
L 19.828125 64.59375 
L 19.828125 46.734375 
Q 21.96875 47.46875 24.109375 47.828125 
Q 26.265625 48.1875 28.421875 48.1875 
Q 40.625 48.1875 47.75 41.5 
Q 54.890625 34.8125 54.890625 23.390625 
Q 54.890625 11.625 47.5625 5.09375 
Q 40.234375 -1.421875 26.90625 -1.421875 
Q 22.3125 -1.421875 17.546875 -0.640625 
Q 12.796875 0.140625 7.71875 1.703125 
L 7.71875 11.625 
Q 12.109375 9.234375 16.796875 8.0625 
Q 21.484375 6.890625 26.703125 6.890625 
Q 35.15625 6.890625 40.078125 11.328125 
Q 45.015625 15.765625 45.015625 23.390625 
Q 45.015625 31 40.078125 35.4375 
Q 35.15625 39.890625 26.703125 39.890625 
Q 22.75 39.890625 18.8125 39.015625 
Q 14.890625 38.140625 10.796875 36.28125 
z
" id="DejaVuSans-35"/>
      </defs>
      <g transform="translate(27.240625 314.94017)scale(0.1 -0.1)">
       <use xlink:href="#DejaVuSans-35"/>
       <use x="63.623047" xlink:href="#DejaVuSans-30"/>
       <use x="127.246094" xlink:href="#DejaVuSans-30"/>
      </g>
     </g>
    </g>
    <g id="ytick_3">
     <g id="line2d_8">
      <g>
       <use style="stroke:#000000;stroke-width:0.8;" x="53.328125" xlink:href="#m5627aa4b77" y="261.646278"/>
      </g>
     </g>
     <g id="text_9">
      <!-- 1000 -->
      <g transform="translate(20.878125 265.445497)scale(0.1 -0.1)">
       <use xlink:href="#DejaVuSans-31"/>
       <use x="63.623047" xlink:href="#DejaVuSans-30"/>
       <use x="127.246094" xlink:href="#DejaVuSans-30"/>
       <use x="190.869141" xlink:href="#DejaVuSans-30"/>
      </g>
     </g>
    </g>
    <g id="ytick_4">
     <g id="line2d_9">
      <g>
       <use style="stroke:#000000;stroke-width:0.8;" x="53.328125" xlink:href="#m5627aa4b77" y="212.151604"/>
      </g>
     </g>
     <g id="text_10">
      <!-- 1500 -->
      <g transform="translate(20.878125 215.950823)scale(0.1 -0.1)">
       <use xlink:href="#DejaVuSans-31"/>
       <use x="63.623047" xlink:href="#DejaVuSans-35"/>
       <use x="127.246094" xlink:href="#DejaVuSans-30"/>
       <use x="190.869141" xlink:href="#DejaVuSans-30"/>
      </g>
     </g>
    </g>
    <g id="ytick_5">
     <g id="line2d_10">
      <g>
       <use style="stroke:#000000;stroke-width:0.8;" x="53.328125" xlink:href="#m5627aa4b77" y="162.656931"/>
      </g>
     </g>
     <g id="text_11">
      <!-- 2000 -->
      <g transform="translate(20.878125 166.456149)scale(0.1 -0.1)">
       <use xlink:href="#DejaVuSans-32"/>
       <use x="63.623047" xlink:href="#DejaVuSans-30"/>
       <use x="127.246094" xlink:href="#DejaVuSans-30"/>
       <use x="190.869141" xlink:href="#DejaVuSans-30"/>
      </g>
     </g>
    </g>
    <g id="ytick_6">
     <g id="line2d_11">
      <g>
       <use style="stroke:#000000;stroke-width:0.8;" x="53.328125" xlink:href="#m5627aa4b77" y="113.162257"/>
      </g>
     </g>
     <g id="text_12">
      <!-- 2500 -->
      <g transform="translate(20.878125 116.961476)scale(0.1 -0.1)">
       <use xlink:href="#DejaVuSans-32"/>
       <use x="63.623047" xlink:href="#DejaVuSans-35"/>
       <use x="127.246094" xlink:href="#DejaVuSans-30"/>
       <use x="190.869141" xlink:href="#DejaVuSans-30"/>
      </g>
     </g>
    </g>
    <g id="ytick_7">
     <g id="line2d_12">
      <g>
       <use style="stroke:#000000;stroke-width:0.8;" x="53.328125" xlink:href="#m5627aa4b77" y="63.667583"/>
      </g>
     </g>
     <g id="text_13">
      <!-- 3000 -->
      <defs>
       <path d="M 40.578125 39.3125 
Q 47.65625 37.796875 51.625 33 
Q 55.609375 28.21875 55.609375 21.1875 
Q 55.609375 10.40625 48.1875 4.484375 
Q 40.765625 -1.421875 27.09375 -1.421875 
Q 22.515625 -1.421875 17.65625 -0.515625 
Q 12.796875 0.390625 7.625 2.203125 
L 7.625 11.71875 
Q 11.71875 9.328125 16.59375 8.109375 
Q 21.484375 6.890625 26.8125 6.890625 
Q 36.078125 6.890625 40.9375 10.546875 
Q 45.796875 14.203125 45.796875 21.1875 
Q 45.796875 27.640625 41.28125 31.265625 
Q 36.765625 34.90625 28.71875 34.90625 
L 20.21875 34.90625 
L 20.21875 43.015625 
L 29.109375 43.015625 
Q 36.375 43.015625 40.234375 45.921875 
Q 44.09375 48.828125 44.09375 54.296875 
Q 44.09375 59.90625 40.109375 62.90625 
Q 36.140625 65.921875 28.71875 65.921875 
Q 24.65625 65.921875 20.015625 65.03125 
Q 15.375 64.15625 9.8125 62.3125 
L 9.8125 71.09375 
Q 15.4375 72.65625 20.34375 73.4375 
Q 25.25 74.21875 29.59375 74.21875 
Q 40.828125 74.21875 47.359375 69.109375 
Q 53.90625 64.015625 53.90625 55.328125 
Q 53.90625 49.265625 50.4375 45.09375 
Q 46.96875 40.921875 40.578125 39.3125 
z
" id="DejaVuSans-33"/>
      </defs>
      <g transform="translate(20.878125 67.466802)scale(0.1 -0.1)">
       <use xlink:href="#DejaVuSans-33"/>
       <use x="63.623047" xlink:href="#DejaVuSans-30"/>
       <use x="127.246094" xlink:href="#DejaVuSans-30"/>
       <use x="190.869141" xlink:href="#DejaVuSans-30"/>
      </g>
     </g>
    </g>
    <g id="text_14">
     <!-- Occurences -->
     <defs>
      <path d="M 39.40625 66.21875 
Q 28.65625 66.21875 22.328125 58.203125 
Q 16.015625 50.203125 16.015625 36.375 
Q 16.015625 22.609375 22.328125 14.59375 
Q 28.65625 6.59375 39.40625 6.59375 
Q 50.140625 6.59375 56.421875 14.59375 
Q 62.703125 22.609375 62.703125 36.375 
Q 62.703125 50.203125 56.421875 58.203125 
Q 50.140625 66.21875 39.40625 66.21875 
z
M 39.40625 74.21875 
Q 54.734375 74.21875 63.90625 63.9375 
Q 73.09375 53.65625 73.09375 36.375 
Q 73.09375 19.140625 63.90625 8.859375 
Q 54.734375 -1.421875 39.40625 -1.421875 
Q 24.03125 -1.421875 14.8125 8.828125 
Q 5.609375 19.09375 5.609375 36.375 
Q 5.609375 53.65625 14.8125 63.9375 
Q 24.03125 74.21875 39.40625 74.21875 
z
" id="DejaVuSans-4f"/>
      <path d="M 48.78125 52.59375 
L 48.78125 44.1875 
Q 44.96875 46.296875 41.140625 47.34375 
Q 37.3125 48.390625 33.40625 48.390625 
Q 24.65625 48.390625 19.8125 42.84375 
Q 14.984375 37.3125 14.984375 27.296875 
Q 14.984375 17.28125 19.8125 11.734375 
Q 24.65625 6.203125 33.40625 6.203125 
Q 37.3125 6.203125 41.140625 7.25 
Q 44.96875 8.296875 48.78125 10.40625 
L 48.78125 2.09375 
Q 45.015625 0.34375 40.984375 -0.53125 
Q 36.96875 -1.421875 32.421875 -1.421875 
Q 20.0625 -1.421875 12.78125 6.34375 
Q 5.515625 14.109375 5.515625 27.296875 
Q 5.515625 40.671875 12.859375 48.328125 
Q 20.21875 56 33.015625 56 
Q 37.15625 56 41.109375 55.140625 
Q 45.0625 54.296875 48.78125 52.59375 
z
" id="DejaVuSans-63"/>
      <path d="M 8.5 21.578125 
L 8.5 54.6875 
L 17.484375 54.6875 
L 17.484375 21.921875 
Q 17.484375 14.15625 20.5 10.265625 
Q 23.53125 6.390625 29.59375 6.390625 
Q 36.859375 6.390625 41.078125 11.03125 
Q 45.3125 15.671875 45.3125 23.6875 
L 45.3125 54.6875 
L 54.296875 54.6875 
L 54.296875 0 
L 45.3125 0 
L 45.3125 8.40625 
Q 42.046875 3.421875 37.71875 1 
Q 33.40625 -1.421875 27.6875 -1.421875 
Q 18.265625 -1.421875 13.375 4.4375 
Q 8.5 10.296875 8.5 21.578125 
z
M 31.109375 56 
z
" id="DejaVuSans-75"/>
      <path d="M 54.890625 33.015625 
L 54.890625 0 
L 45.90625 0 
L 45.90625 32.71875 
Q 45.90625 40.484375 42.875 44.328125 
Q 39.84375 48.1875 33.796875 48.1875 
Q 26.515625 48.1875 22.3125 43.546875 
Q 18.109375 38.921875 18.109375 30.90625 
L 18.109375 0 
L 9.078125 0 
L 9.078125 54.6875 
L 18.109375 54.6875 
L 18.109375 46.1875 
Q 21.34375 51.125 25.703125 53.5625 
Q 30.078125 56 35.796875 56 
Q 45.21875 56 50.046875 50.171875 
Q 54.890625 44.34375 54.890625 33.015625 
z
" id="DejaVuSans-6e"/>
      <path d="M 44.28125 53.078125 
L 44.28125 44.578125 
Q 40.484375 46.53125 36.375 47.5 
Q 32.28125 48.484375 27.875 48.484375 
Q 21.1875 48.484375 17.84375 46.4375 
Q 14.5 44.390625 14.5 40.28125 
Q 14.5 37.15625 16.890625 35.375 
Q 19.28125 33.59375 26.515625 31.984375 
L 29.59375 31.296875 
Q 39.15625 29.25 43.1875 25.515625 
Q 47.21875 21.78125 47.21875 15.09375 
Q 47.21875 7.46875 41.1875 3.015625 
Q 35.15625 -1.421875 24.609375 -1.421875 
Q 20.21875 -1.421875 15.453125 -0.5625 
Q 10.6875 0.296875 5.421875 2 
L 5.421875 11.28125 
Q 10.40625 8.6875 15.234375 7.390625 
Q 20.0625 6.109375 24.8125 6.109375 
Q 31.15625 6.109375 34.5625 8.28125 
Q 37.984375 10.453125 37.984375 14.40625 
Q 37.984375 18.0625 35.515625 20.015625 
Q 33.0625 21.96875 24.703125 23.78125 
L 21.578125 24.515625 
Q 13.234375 26.265625 9.515625 29.90625 
Q 5.8125 33.546875 5.8125 39.890625 
Q 5.8125 47.609375 11.28125 51.796875 
Q 16.75 56 26.8125 56 
Q 31.78125 56 36.171875 55.265625 
Q 40.578125 54.546875 44.28125 53.078125 
z
" id="DejaVuSans-73"/>
     </defs>
     <g transform="translate(14.798438 226.888437)rotate(-90)scale(0.1 -0.1)">
      <use xlink:href="#DejaVuSans-4f"/>
      <use x="78.710938" xlink:href="#DejaVuSans-63"/>
      <use x="133.691406" xlink:href="#DejaVuSans-63"/>
      <use x="188.671875" xlink:href="#DejaVuSans-75"/>
      <use x="252.050781" xlink:href="#DejaVuSans-72"/>
      <use x="293.132812" xlink:href="#DejaVuSans-65"/>
      <use x="354.65625" xlink:href="#DejaVuSans-6e"/>
      <use x="418.035156" xlink:href="#DejaVuSans-63"/>
      <use x="473.015625" xlink:href="#DejaVuSans-65"/>
      <use x="534.539062" xlink:href="#DejaVuSans-73"/>
     </g>
    </g>
   </g>
   <g id="patch_211">
    <path d="M 53.328125 360.635625 
L 53.328125 34.475625 
" style="fill:none;stroke:#000000;stroke-linecap:square;stroke-linejoin:miter;stroke-width:0.8;"/>
   </g>
   <g id="patch_212">
    <path d="M 890.328125 360.635625 
L 890.328125 34.475625 
" style="fill:none;stroke:#000000;stroke-linecap:square;stroke-linejoin:miter;stroke-width:0.8;"/>
   </g>
   <g id="patch_213">
    <path d="M 53.328125 360.635625 
L 890.328125 360.635625 
" style="fill:none;stroke:#000000;stroke-linecap:square;stroke-linejoin:miter;stroke-width:0.8;"/>
   </g>
   <g id="patch_214">
    <path d="M 53.328125 34.475625 
L 890.328125 34.475625 
" style="fill:none;stroke:#000000;stroke-linecap:square;stroke-linejoin:miter;stroke-width:0.8;"/>
   </g>
   <g id="text_15">
    <!-- Movies and links distribution -->
    <defs>
     <path d="M 9.1875 72.90625 
L 33.109375 72.90625 
L 49.703125 33.890625 
L 66.40625 72.90625 
L 90.28125 72.90625 
L 90.28125 0 
L 72.515625 0 
L 72.515625 53.328125 
L 55.71875 14.015625 
L 43.796875 14.015625 
L 27 53.328125 
L 27 0 
L 9.1875 0 
z
" id="DejaVuSans-Bold-4d"/>
     <path d="M 34.421875 43.5 
Q 28.609375 43.5 25.5625 39.328125 
Q 22.515625 35.15625 22.515625 27.296875 
Q 22.515625 19.4375 25.5625 15.25 
Q 28.609375 11.078125 34.421875 11.078125 
Q 40.140625 11.078125 43.15625 15.25 
Q 46.1875 19.4375 46.1875 27.296875 
Q 46.1875 35.15625 43.15625 39.328125 
Q 40.140625 43.5 34.421875 43.5 
z
M 34.421875 56 
Q 48.53125 56 56.46875 48.375 
Q 64.40625 40.765625 64.40625 27.296875 
Q 64.40625 13.8125 56.46875 6.1875 
Q 48.53125 -1.421875 34.421875 -1.421875 
Q 20.265625 -1.421875 12.28125 6.1875 
Q 4.296875 13.8125 4.296875 27.296875 
Q 4.296875 40.765625 12.28125 48.375 
Q 20.265625 56 34.421875 56 
z
" id="DejaVuSans-Bold-6f"/>
     <path d="M 1.515625 54.6875 
L 19 54.6875 
L 32.625 16.890625 
L 46.1875 54.6875 
L 63.71875 54.6875 
L 42.1875 0 
L 23 0 
z
" id="DejaVuSans-Bold-76"/>
     <path d="M 8.40625 54.6875 
L 25.875 54.6875 
L 25.875 0 
L 8.40625 0 
z
M 8.40625 75.984375 
L 25.875 75.984375 
L 25.875 61.71875 
L 8.40625 61.71875 
z
" id="DejaVuSans-Bold-69"/>
     <path d="M 62.984375 27.484375 
L 62.984375 22.515625 
L 22.125 22.515625 
Q 22.75 16.359375 26.5625 13.28125 
Q 30.375 10.203125 37.203125 10.203125 
Q 42.71875 10.203125 48.5 11.84375 
Q 54.296875 13.484375 60.40625 16.796875 
L 60.40625 3.328125 
Q 54.203125 0.984375 48 -0.21875 
Q 41.796875 -1.421875 35.59375 -1.421875 
Q 20.75 -1.421875 12.515625 6.125 
Q 4.296875 13.671875 4.296875 27.296875 
Q 4.296875 40.671875 12.375 48.328125 
Q 20.453125 56 34.625 56 
Q 47.515625 56 55.25 48.234375 
Q 62.984375 40.484375 62.984375 27.484375 
z
M 45.015625 33.296875 
Q 45.015625 38.28125 42.109375 41.328125 
Q 39.203125 44.390625 34.515625 44.390625 
Q 29.4375 44.390625 26.265625 41.53125 
Q 23.09375 38.671875 22.3125 33.296875 
z
" id="DejaVuSans-Bold-65"/>
     <path d="M 51.125 52.984375 
L 51.125 39.703125 
Q 45.515625 42.046875 40.28125 43.21875 
Q 35.0625 44.390625 30.421875 44.390625 
Q 25.4375 44.390625 23.015625 43.140625 
Q 20.609375 41.890625 20.609375 39.3125 
Q 20.609375 37.203125 22.4375 36.078125 
Q 24.265625 34.96875 29 34.421875 
L 32.078125 33.984375 
Q 45.515625 32.28125 50.140625 28.375 
Q 54.78125 24.46875 54.78125 16.109375 
Q 54.78125 7.375 48.328125 2.96875 
Q 41.890625 -1.421875 29.109375 -1.421875 
Q 23.6875 -1.421875 17.890625 -0.5625 
Q 12.109375 0.296875 6 2 
L 6 15.28125 
Q 11.234375 12.75 16.71875 11.46875 
Q 22.21875 10.203125 27.875 10.203125 
Q 33.015625 10.203125 35.59375 11.609375 
Q 38.1875 13.03125 38.1875 15.828125 
Q 38.1875 18.171875 36.40625 19.3125 
Q 34.625 20.453125 29.296875 21.09375 
L 26.21875 21.484375 
Q 14.546875 22.953125 9.859375 26.90625 
Q 5.171875 30.859375 5.171875 38.921875 
Q 5.171875 47.609375 11.125 51.796875 
Q 17.09375 56 29.390625 56 
Q 34.234375 56 39.546875 55.265625 
Q 44.875 54.546875 51.125 52.984375 
z
" id="DejaVuSans-Bold-73"/>
     <path id="DejaVuSans-Bold-20"/>
     <path d="M 32.90625 24.609375 
Q 27.4375 24.609375 24.671875 22.75 
Q 21.921875 20.90625 21.921875 17.28125 
Q 21.921875 13.96875 24.140625 12.078125 
Q 26.375 10.203125 30.328125 10.203125 
Q 35.25 10.203125 38.625 13.734375 
Q 42 17.28125 42 22.609375 
L 42 24.609375 
z
M 59.625 31.203125 
L 59.625 0 
L 42 0 
L 42 8.109375 
Q 38.484375 3.125 34.078125 0.84375 
Q 29.6875 -1.421875 23.390625 -1.421875 
Q 14.890625 -1.421875 9.59375 3.53125 
Q 4.296875 8.5 4.296875 16.40625 
Q 4.296875 26.03125 10.90625 30.515625 
Q 17.53125 35.015625 31.6875 35.015625 
L 42 35.015625 
L 42 36.375 
Q 42 40.53125 38.71875 42.453125 
Q 35.453125 44.390625 28.515625 44.390625 
Q 22.90625 44.390625 18.0625 43.265625 
Q 13.234375 42.140625 9.078125 39.890625 
L 9.078125 53.21875 
Q 14.703125 54.59375 20.359375 55.296875 
Q 26.03125 56 31.6875 56 
Q 46.484375 56 53.046875 50.171875 
Q 59.625 44.34375 59.625 31.203125 
z
" id="DejaVuSans-Bold-61"/>
     <path d="M 63.375 33.296875 
L 63.375 0 
L 45.796875 0 
L 45.796875 5.421875 
L 45.796875 25.484375 
Q 45.796875 32.5625 45.484375 35.25 
Q 45.171875 37.9375 44.390625 39.203125 
Q 43.359375 40.921875 41.59375 41.875 
Q 39.84375 42.828125 37.59375 42.828125 
Q 32.125 42.828125 29 38.59375 
Q 25.875 34.375 25.875 26.90625 
L 25.875 0 
L 8.40625 0 
L 8.40625 54.6875 
L 25.875 54.6875 
L 25.875 46.6875 
Q 29.828125 51.46875 34.265625 53.734375 
Q 38.71875 56 44.09375 56 
Q 53.5625 56 58.46875 50.1875 
Q 63.375 44.390625 63.375 33.296875 
z
" id="DejaVuSans-Bold-6e"/>
     <path d="M 45.609375 46.6875 
L 45.609375 75.984375 
L 63.1875 75.984375 
L 63.1875 0 
L 45.609375 0 
L 45.609375 7.90625 
Q 42 3.078125 37.640625 0.828125 
Q 33.296875 -1.421875 27.59375 -1.421875 
Q 17.484375 -1.421875 10.984375 6.609375 
Q 4.5 14.65625 4.5 27.296875 
Q 4.5 39.9375 10.984375 47.96875 
Q 17.484375 56 27.59375 56 
Q 33.25 56 37.625 53.734375 
Q 42 51.46875 45.609375 46.6875 
z
M 34.078125 11.28125 
Q 39.703125 11.28125 42.65625 15.375 
Q 45.609375 19.484375 45.609375 27.296875 
Q 45.609375 35.109375 42.65625 39.203125 
Q 39.703125 43.3125 34.078125 43.3125 
Q 28.515625 43.3125 25.5625 39.203125 
Q 22.609375 35.109375 22.609375 27.296875 
Q 22.609375 19.484375 25.5625 15.375 
Q 28.515625 11.28125 34.078125 11.28125 
z
" id="DejaVuSans-Bold-64"/>
     <path d="M 8.40625 75.984375 
L 25.875 75.984375 
L 25.875 0 
L 8.40625 0 
z
" id="DejaVuSans-Bold-6c"/>
     <path d="M 8.40625 75.984375 
L 25.875 75.984375 
L 25.875 34.625 
L 46 54.6875 
L 66.3125 54.6875 
L 39.59375 29.59375 
L 68.40625 0 
L 47.21875 0 
L 25.875 22.796875 
L 25.875 0 
L 8.40625 0 
z
" id="DejaVuSans-Bold-6b"/>
     <path d="M 27.484375 70.21875 
L 27.484375 54.6875 
L 45.515625 54.6875 
L 45.515625 42.1875 
L 27.484375 42.1875 
L 27.484375 19 
Q 27.484375 15.1875 29 13.84375 
Q 30.515625 12.5 35.015625 12.5 
L 44 12.5 
L 44 0 
L 29 0 
Q 18.65625 0 14.328125 4.3125 
Q 10.015625 8.640625 10.015625 19 
L 10.015625 42.1875 
L 1.3125 42.1875 
L 1.3125 54.6875 
L 10.015625 54.6875 
L 10.015625 70.21875 
z
" id="DejaVuSans-Bold-74"/>
     <path d="M 49.03125 39.796875 
Q 46.734375 40.875 44.453125 41.375 
Q 42.1875 41.890625 39.890625 41.890625 
Q 33.15625 41.890625 29.515625 37.5625 
Q 25.875 33.25 25.875 25.203125 
L 25.875 0 
L 8.40625 0 
L 8.40625 54.6875 
L 25.875 54.6875 
L 25.875 45.703125 
Q 29.25 51.078125 33.609375 53.53125 
Q 37.984375 56 44.09375 56 
Q 44.96875 56 45.984375 55.921875 
Q 47.015625 55.859375 48.96875 55.609375 
z
" id="DejaVuSans-Bold-72"/>
     <path d="M 37.5 11.28125 
Q 43.109375 11.28125 46.0625 15.375 
Q 49.03125 19.484375 49.03125 27.296875 
Q 49.03125 35.109375 46.0625 39.203125 
Q 43.109375 43.3125 37.5 43.3125 
Q 31.890625 43.3125 28.875 39.1875 
Q 25.875 35.0625 25.875 27.296875 
Q 25.875 19.53125 28.875 15.40625 
Q 31.890625 11.28125 37.5 11.28125 
z
M 25.875 46.6875 
Q 29.5 51.46875 33.890625 53.734375 
Q 38.28125 56 44 56 
Q 54.109375 56 60.59375 47.96875 
Q 67.09375 39.9375 67.09375 27.296875 
Q 67.09375 14.65625 60.59375 6.609375 
Q 54.109375 -1.421875 44 -1.421875 
Q 38.28125 -1.421875 33.890625 0.84375 
Q 29.5 3.125 25.875 7.90625 
L 25.875 0 
L 8.40625 0 
L 8.40625 75.984375 
L 25.875 75.984375 
z
" id="DejaVuSans-Bold-62"/>
     <path d="M 7.8125 21.296875 
L 7.8125 54.6875 
L 25.390625 54.6875 
L 25.390625 49.21875 
Q 25.390625 44.78125 25.34375 38.0625 
Q 25.296875 31.34375 25.296875 29.109375 
Q 25.296875 22.515625 25.640625 19.609375 
Q 25.984375 16.703125 26.8125 15.375 
Q 27.875 13.671875 29.609375 12.734375 
Q 31.34375 11.8125 33.59375 11.8125 
Q 39.0625 11.8125 42.1875 16.015625 
Q 45.3125 20.21875 45.3125 27.6875 
L 45.3125 54.6875 
L 62.796875 54.6875 
L 62.796875 0 
L 45.3125 0 
L 45.3125 7.90625 
Q 41.359375 3.125 36.9375 0.84375 
Q 32.515625 -1.421875 27.203125 -1.421875 
Q 17.71875 -1.421875 12.765625 4.390625 
Q 7.8125 10.203125 7.8125 21.296875 
z
" id="DejaVuSans-Bold-75"/>
    </defs>
    <g transform="translate(242.650312 28.475625)scale(0.28 -0.28)">
     <use xlink:href="#DejaVuSans-Bold-4d"/>
     <use x="99.511719" xlink:href="#DejaVuSans-Bold-6f"/>
     <use x="168.212891" xlink:href="#DejaVuSans-Bold-76"/>
     <use x="233.398438" xlink:href="#DejaVuSans-Bold-69"/>
     <use x="267.675781" xlink:href="#DejaVuSans-Bold-65"/>
     <use x="335.498047" xlink:href="#DejaVuSans-Bold-73"/>
     <use x="395.019531" xlink:href="#DejaVuSans-Bold-20"/>
     <use x="429.833984" xlink:href="#DejaVuSans-Bold-61"/>
     <use x="497.314453" xlink:href="#DejaVuSans-Bold-6e"/>
     <use x="568.505859" xlink:href="#DejaVuSans-Bold-64"/>
     <use x="640.087891" xlink:href="#DejaVuSans-Bold-20"/>
     <use x="674.902344" xlink:href="#DejaVuSans-Bold-6c"/>
     <use x="709.179688" xlink:href="#DejaVuSans-Bold-69"/>
     <use x="743.457031" xlink:href="#DejaVuSans-Bold-6e"/>
     <use x="814.648438" xlink:href="#DejaVuSans-Bold-6b"/>
     <use x="881.152344" xlink:href="#DejaVuSans-Bold-73"/>
     <use x="940.673828" xlink:href="#DejaVuSans-Bold-20"/>
     <use x="975.488281" xlink:href="#DejaVuSans-Bold-64"/>
     <use x="1047.070312" xlink:href="#DejaVuSans-Bold-69"/>
     <use x="1081.347656" xlink:href="#DejaVuSans-Bold-73"/>
     <use x="1140.869141" xlink:href="#DejaVuSans-Bold-74"/>
     <use x="1188.671875" xlink:href="#DejaVuSans-Bold-72"/>
     <use x="1237.988281" xlink:href="#DejaVuSans-Bold-69"/>
     <use x="1272.265625" xlink:href="#DejaVuSans-Bold-62"/>
     <use x="1343.847656" xlink:href="#DejaVuSans-Bold-75"/>
     <use x="1415.039062" xlink:href="#DejaVuSans-Bold-74"/>
     <use x="1462.841797" xlink:href="#DejaVuSans-Bold-69"/>
     <use x="1497.119141" xlink:href="#DejaVuSans-Bold-6f"/>
     <use x="1565.820312" xlink:href="#DejaVuSans-Bold-6e"/>
    </g>
   </g>
   <g id="legend_1">
    <g id="patch_215">
     <path d="M 60.328125 71.831875 
L 127.134375 71.831875 
Q 129.134375 71.831875 129.134375 69.831875 
L 129.134375 41.475625 
Q 129.134375 39.475625 127.134375 39.475625 
L 60.328125 39.475625 
Q 58.328125 39.475625 58.328125 41.475625 
L 58.328125 69.831875 
Q 58.328125 71.831875 60.328125 71.831875 
z
" style="fill:#ffffff;opacity:0.8;stroke:#cccccc;stroke-linejoin:miter;"/>
    </g>
    <g id="patch_216">
     <path d="M 62.328125 51.074062 
L 82.328125 51.074062 
L 82.328125 44.074062 
L 62.328125 44.074062 
z
" style="fill:#55638a;"/>
    </g>
    <g id="text_16">
     <!-- Movies -->
     <defs>
      <path d="M 9.8125 72.90625 
L 24.515625 72.90625 
L 43.109375 23.296875 
L 61.8125 72.90625 
L 76.515625 72.90625 
L 76.515625 0 
L 66.890625 0 
L 66.890625 64.015625 
L 48.09375 14.015625 
L 38.1875 14.015625 
L 19.390625 64.015625 
L 19.390625 0 
L 9.8125 0 
z
" id="DejaVuSans-4d"/>
      <path d="M 30.609375 48.390625 
Q 23.390625 48.390625 19.1875 42.75 
Q 14.984375 37.109375 14.984375 27.296875 
Q 14.984375 17.484375 19.15625 11.84375 
Q 23.34375 6.203125 30.609375 6.203125 
Q 37.796875 6.203125 41.984375 11.859375 
Q 46.1875 17.53125 46.1875 27.296875 
Q 46.1875 37.015625 41.984375 42.703125 
Q 37.796875 48.390625 30.609375 48.390625 
z
M 30.609375 56 
Q 42.328125 56 49.015625 48.375 
Q 55.71875 40.765625 55.71875 27.296875 
Q 55.71875 13.875 49.015625 6.21875 
Q 42.328125 -1.421875 30.609375 -1.421875 
Q 18.84375 -1.421875 12.171875 6.21875 
Q 5.515625 13.875 5.515625 27.296875 
Q 5.515625 40.765625 12.171875 48.375 
Q 18.84375 56 30.609375 56 
z
" id="DejaVuSans-6f"/>
      <path d="M 2.984375 54.6875 
L 12.5 54.6875 
L 29.59375 8.796875 
L 46.6875 54.6875 
L 56.203125 54.6875 
L 35.6875 0 
L 23.484375 0 
z
" id="DejaVuSans-76"/>
      <path d="M 9.421875 54.6875 
L 18.40625 54.6875 
L 18.40625 0 
L 9.421875 0 
z
M 9.421875 75.984375 
L 18.40625 75.984375 
L 18.40625 64.59375 
L 9.421875 64.59375 
z
" id="DejaVuSans-69"/>
     </defs>
     <g transform="translate(90.328125 51.074062)scale(0.1 -0.1)">
      <use xlink:href="#DejaVuSans-4d"/>
      <use x="86.279297" xlink:href="#DejaVuSans-6f"/>
      <use x="147.460938" xlink:href="#DejaVuSans-76"/>
      <use x="206.640625" xlink:href="#DejaVuSans-69"/>
      <use x="234.423828" xlink:href="#DejaVuSans-65"/>
      <use x="295.947266" xlink:href="#DejaVuSans-73"/>
     </g>
    </g>
    <g id="patch_217">
     <path d="M 62.328125 65.752187 
L 82.328125 65.752187 
L 82.328125 58.752187 
L 62.328125 58.752187 
z
" style="fill:#9e1030;"/>
    </g>
    <g id="text_17">
     <!-- Links -->
     <defs>
      <path d="M 9.8125 72.90625 
L 19.671875 72.90625 
L 19.671875 8.296875 
L 55.171875 8.296875 
L 55.171875 0 
L 9.8125 0 
z
" id="DejaVuSans-4c"/>
      <path d="M 9.078125 75.984375 
L 18.109375 75.984375 
L 18.109375 31.109375 
L 44.921875 54.6875 
L 56.390625 54.6875 
L 27.390625 29.109375 
L 57.625 0 
L 45.90625 0 
L 18.109375 26.703125 
L 18.109375 0 
L 9.078125 0 
z
" id="DejaVuSans-6b"/>
     </defs>
     <g transform="translate(90.328125 65.752187)scale(0.1 -0.1)">
      <use xlink:href="#DejaVuSans-4c"/>
      <use x="55.712891" xlink:href="#DejaVuSans-69"/>
      <use x="83.496094" xlink:href="#DejaVuSans-6e"/>
      <use x="146.875" xlink:href="#DejaVuSans-6b"/>
      <use x="204.785156" xlink:href="#DejaVuSans-73"/>
     </g>
    </g>
   </g>
  </g>
 </g>
 <defs>
  <clipPath id="pacab7b5d7b">
   <rect height="326.16" width="837" x="53.328125" y="34.475625"/>
  </clipPath>
 </defs>
</svg>
