<?xml version="1.0" encoding="utf-8" standalone="no"?>
<!DOCTYPE svg PUBLIC "-//W3C//DTD SVG 1.1//EN"
  "http://www.w3.org/Graphics/SVG/1.1/DTD/svg11.dtd">
<!-- Created with matplotlib (http://matplotlib.org/) -->
<svg height="432pt" version="1.1" viewBox="0 0 1080 432" width="1080pt" xmlns="http://www.w3.org/2000/svg" xmlns:xlink="http://www.w3.org/1999/xlink">
 <defs>
  <style type="text/css">
*{stroke-linecap:butt;stroke-linejoin:round;}
  </style>
 </defs>
 <g id="figure_1">
  <g id="patch_1">
   <path d="M 0 432 
L 1080 432 
L 1080 0 
L 0 0 
z
" style="fill:#ffffff;"/>
  </g>
  <g id="axes_1">
   <g id="patch_2">
    <path d="M 135 378 
L 972 378 
L 972 51.84 
L 135 51.84 
z
" style="fill:#ffffff;"/>
   </g>
   <g id="patch_3">
    <path clip-path="url(#p3e2ffc443d)" d="M 173.045455 378 
L 174.147339 378 
L 174.147339 377.900694 
L 173.045455 377.900694 
z
" style="fill:#232066;"/>
   </g>
   <g id="patch_4">
    <path clip-path="url(#p3e2ffc443d)" d="M 176.844491 378 
L 177.946375 378 
L 177.946375 378 
L 176.844491 378 
z
" style="fill:#232066;"/>
   </g>
   <g id="patch_5">
    <path clip-path="url(#p3e2ffc443d)" d="M 180.643527 378 
L 181.745412 378 
L 181.745412 378 
L 180.643527 378 
z
" style="fill:#232066;"/>
   </g>
   <g id="patch_6">
    <path clip-path="url(#p3e2ffc443d)" d="M 184.442563 378 
L 185.544448 378 
L 185.544448 378 
L 184.442563 378 
z
" style="fill:#232066;"/>
   </g>
   <g id="patch_7">
    <path clip-path="url(#p3e2ffc443d)" d="M 188.241599 378 
L 189.343484 378 
L 189.343484 377.801388 
L 188.241599 377.801388 
z
" style="fill:#232066;"/>
   </g>
   <g id="patch_8">
    <path clip-path="url(#p3e2ffc443d)" d="M 192.040635 378 
L 193.14252 378 
L 193.14252 378 
L 192.040635 378 
z
" style="fill:#232066;"/>
   </g>
   <g id="patch_9">
    <path clip-path="url(#p3e2ffc443d)" d="M 195.839671 378 
L 196.941556 378 
L 196.941556 378 
L 195.839671 378 
z
" style="fill:#232066;"/>
   </g>
   <g id="patch_10">
    <path clip-path="url(#p3e2ffc443d)" d="M 199.638707 378 
L 200.740592 378 
L 200.740592 378 
L 199.638707 378 
z
" style="fill:#232066;"/>
   </g>
   <g id="patch_11">
    <path clip-path="url(#p3e2ffc443d)" d="M 203.437743 378 
L 204.539628 378 
L 204.539628 378 
L 203.437743 378 
z
" style="fill:#232066;"/>
   </g>
   <g id="patch_12">
    <path clip-path="url(#p3e2ffc443d)" d="M 207.236779 378 
L 208.338664 378 
L 208.338664 377.801388 
L 207.236779 377.801388 
z
" style="fill:#232066;"/>
   </g>
   <g id="patch_13">
    <path clip-path="url(#p3e2ffc443d)" d="M 211.035815 378 
L 212.1377 378 
L 212.1377 378 
L 211.035815 378 
z
" style="fill:#232066;"/>
   </g>
   <g id="patch_14">
    <path clip-path="url(#p3e2ffc443d)" d="M 214.834851 378 
L 215.936736 378 
L 215.936736 377.900694 
L 214.834851 377.900694 
z
" style="fill:#232066;"/>
   </g>
   <g id="patch_15">
    <path clip-path="url(#p3e2ffc443d)" d="M 218.633887 378 
L 219.735772 378 
L 219.735772 377.900694 
L 218.633887 377.900694 
z
" style="fill:#232066;"/>
   </g>
   <g id="patch_16">
    <path clip-path="url(#p3e2ffc443d)" d="M 222.432923 378 
L 223.534808 378 
L 223.534808 378 
L 222.432923 378 
z
" style="fill:#232066;"/>
   </g>
   <g id="patch_17">
    <path clip-path="url(#p3e2ffc443d)" d="M 226.231959 378 
L 227.333844 378 
L 227.333844 377.900694 
L 226.231959 377.900694 
z
" style="fill:#232066;"/>
   </g>
   <g id="patch_18">
    <path clip-path="url(#p3e2ffc443d)" d="M 230.030995 378 
L 231.13288 378 
L 231.13288 377.900694 
L 230.030995 377.900694 
z
" style="fill:#232066;"/>
   </g>
   <g id="patch_19">
    <path clip-path="url(#p3e2ffc443d)" d="M 233.830031 378 
L 234.931916 378 
L 234.931916 377.801388 
L 233.830031 377.801388 
z
" style="fill:#232066;"/>
   </g>
   <g id="patch_20">
    <path clip-path="url(#p3e2ffc443d)" d="M 237.629067 378 
L 238.730952 378 
L 238.730952 378 
L 237.629067 378 
z
" style="fill:#232066;"/>
   </g>
   <g id="patch_21">
    <path clip-path="url(#p3e2ffc443d)" d="M 241.428103 378 
L 242.529988 378 
L 242.529988 378 
L 241.428103 378 
z
" style="fill:#232066;"/>
   </g>
   <g id="patch_22">
    <path clip-path="url(#p3e2ffc443d)" d="M 245.227139 378 
L 246.329024 378 
L 246.329024 377.900694 
L 245.227139 377.900694 
z
" style="fill:#232066;"/>
   </g>
   <g id="patch_23">
    <path clip-path="url(#p3e2ffc443d)" d="M 249.026175 378 
L 250.12806 378 
L 250.12806 377.702083 
L 249.026175 377.702083 
z
" style="fill:#232066;"/>
   </g>
   <g id="patch_24">
    <path clip-path="url(#p3e2ffc443d)" d="M 252.825211 378 
L 253.927096 378 
L 253.927096 377.900694 
L 252.825211 377.900694 
z
" style="fill:#232066;"/>
   </g>
   <g id="patch_25">
    <path clip-path="url(#p3e2ffc443d)" d="M 256.624247 378 
L 257.726132 378 
L 257.726132 378 
L 256.624247 378 
z
" style="fill:#232066;"/>
   </g>
   <g id="patch_26">
    <path clip-path="url(#p3e2ffc443d)" d="M 260.423283 378 
L 261.525168 378 
L 261.525168 377.801388 
L 260.423283 377.801388 
z
" style="fill:#232066;"/>
   </g>
   <g id="patch_27">
    <path clip-path="url(#p3e2ffc443d)" d="M 264.222319 378 
L 265.324204 378 
L 265.324204 377.602777 
L 264.222319 377.602777 
z
" style="fill:#232066;"/>
   </g>
   <g id="patch_28">
    <path clip-path="url(#p3e2ffc443d)" d="M 268.021355 378 
L 269.12324 378 
L 269.12324 377.106248 
L 268.021355 377.106248 
z
" style="fill:#232066;"/>
   </g>
   <g id="patch_29">
    <path clip-path="url(#p3e2ffc443d)" d="M 271.820391 378 
L 272.922276 378 
L 272.922276 377.900694 
L 271.820391 377.900694 
z
" style="fill:#232066;"/>
   </g>
   <g id="patch_30">
    <path clip-path="url(#p3e2ffc443d)" d="M 275.619427 378 
L 276.721312 378 
L 276.721312 377.602777 
L 275.619427 377.602777 
z
" style="fill:#232066;"/>
   </g>
   <g id="patch_31">
    <path clip-path="url(#p3e2ffc443d)" d="M 279.418463 378 
L 280.520348 378 
L 280.520348 377.702083 
L 279.418463 377.702083 
z
" style="fill:#232066;"/>
   </g>
   <g id="patch_32">
    <path clip-path="url(#p3e2ffc443d)" d="M 283.217499 378 
L 284.319384 378 
L 284.319384 377.404165 
L 283.217499 377.404165 
z
" style="fill:#232066;"/>
   </g>
   <g id="patch_33">
    <path clip-path="url(#p3e2ffc443d)" d="M 287.016535 378 
L 288.11842 378 
L 288.11842 376.907636 
L 287.016535 376.907636 
z
" style="fill:#232066;"/>
   </g>
   <g id="patch_34">
    <path clip-path="url(#p3e2ffc443d)" d="M 290.815571 378 
L 291.917456 378 
L 291.917456 377.602777 
L 290.815571 377.602777 
z
" style="fill:#232066;"/>
   </g>
   <g id="patch_35">
    <path clip-path="url(#p3e2ffc443d)" d="M 294.614608 378 
L 295.716492 378 
L 295.716492 377.304859 
L 294.614608 377.304859 
z
" style="fill:#232066;"/>
   </g>
   <g id="patch_36">
    <path clip-path="url(#p3e2ffc443d)" d="M 298.413644 378 
L 299.515528 378 
L 299.515528 377.205554 
L 298.413644 377.205554 
z
" style="fill:#232066;"/>
   </g>
   <g id="patch_37">
    <path clip-path="url(#p3e2ffc443d)" d="M 302.21268 378 
L 303.314564 378 
L 303.314564 376.80833 
L 302.21268 376.80833 
z
" style="fill:#232066;"/>
   </g>
   <g id="patch_38">
    <path clip-path="url(#p3e2ffc443d)" d="M 306.011716 378 
L 307.113601 378 
L 307.113601 377.006942 
L 306.011716 377.006942 
z
" style="fill:#232066;"/>
   </g>
   <g id="patch_39">
    <path clip-path="url(#p3e2ffc443d)" d="M 309.810752 378 
L 310.912637 378 
L 310.912637 376.80833 
L 309.810752 376.80833 
z
" style="fill:#232066;"/>
   </g>
   <g id="patch_40">
    <path clip-path="url(#p3e2ffc443d)" d="M 313.609788 378 
L 314.711673 378 
L 314.711673 377.205554 
L 313.609788 377.205554 
z
" style="fill:#232066;"/>
   </g>
   <g id="patch_41">
    <path clip-path="url(#p3e2ffc443d)" d="M 317.408824 378 
L 318.510709 378 
L 318.510709 376.510413 
L 317.408824 376.510413 
z
" style="fill:#232066;"/>
   </g>
   <g id="patch_42">
    <path clip-path="url(#p3e2ffc443d)" d="M 321.20786 378 
L 322.309745 378 
L 322.309745 375.715966 
L 321.20786 375.715966 
z
" style="fill:#232066;"/>
   </g>
   <g id="patch_43">
    <path clip-path="url(#p3e2ffc443d)" d="M 325.006896 378 
L 326.108781 378 
L 326.108781 376.311801 
L 325.006896 376.311801 
z
" style="fill:#232066;"/>
   </g>
   <g id="patch_44">
    <path clip-path="url(#p3e2ffc443d)" d="M 328.805932 378 
L 329.907817 378 
L 329.907817 375.219437 
L 328.805932 375.219437 
z
" style="fill:#232066;"/>
   </g>
   <g id="patch_45">
    <path clip-path="url(#p3e2ffc443d)" d="M 332.604968 378 
L 333.706853 378 
L 333.706853 374.92152 
L 332.604968 374.92152 
z
" style="fill:#232066;"/>
   </g>
   <g id="patch_46">
    <path clip-path="url(#p3e2ffc443d)" d="M 336.404004 378 
L 337.505889 378 
L 337.505889 375.020826 
L 336.404004 375.020826 
z
" style="fill:#232066;"/>
   </g>
   <g id="patch_47">
    <path clip-path="url(#p3e2ffc443d)" d="M 340.20304 378 
L 341.304925 378 
L 341.304925 374.524297 
L 340.20304 374.524297 
z
" style="fill:#232066;"/>
   </g>
   <g id="patch_48">
    <path clip-path="url(#p3e2ffc443d)" d="M 344.002076 378 
L 345.103961 378 
L 345.103961 374.92152 
L 344.002076 374.92152 
z
" style="fill:#232066;"/>
   </g>
   <g id="patch_49">
    <path clip-path="url(#p3e2ffc443d)" d="M 347.801112 378 
L 348.902997 378 
L 348.902997 375.120132 
L 347.801112 375.120132 
z
" style="fill:#232066;"/>
   </g>
   <g id="patch_50">
    <path clip-path="url(#p3e2ffc443d)" d="M 351.600148 378 
L 352.702033 378 
L 352.702033 371.147899 
L 351.600148 371.147899 
z
" style="fill:#232066;"/>
   </g>
   <g id="patch_51">
    <path clip-path="url(#p3e2ffc443d)" d="M 355.399184 378 
L 356.501069 378 
L 356.501069 371.247205 
L 355.399184 371.247205 
z
" style="fill:#232066;"/>
   </g>
   <g id="patch_52">
    <path clip-path="url(#p3e2ffc443d)" d="M 359.19822 378 
L 360.300105 378 
L 360.300105 371.346511 
L 359.19822 371.346511 
z
" style="fill:#232066;"/>
   </g>
   <g id="patch_53">
    <path clip-path="url(#p3e2ffc443d)" d="M 362.997256 378 
L 364.099141 378 
L 364.099141 370.154841 
L 362.997256 370.154841 
z
" style="fill:#232066;"/>
   </g>
   <g id="patch_54">
    <path clip-path="url(#p3e2ffc443d)" d="M 366.796292 378 
L 367.898177 378 
L 367.898177 368.268031 
L 366.796292 368.268031 
z
" style="fill:#232066;"/>
   </g>
   <g id="patch_55">
    <path clip-path="url(#p3e2ffc443d)" d="M 370.595328 378 
L 371.697213 378 
L 371.697213 365.785385 
L 370.595328 365.785385 
z
" style="fill:#232066;"/>
   </g>
   <g id="patch_56">
    <path clip-path="url(#p3e2ffc443d)" d="M 374.394364 378 
L 375.496249 378 
L 375.496249 364.097187 
L 374.394364 364.097187 
z
" style="fill:#232066;"/>
   </g>
   <g id="patch_57">
    <path clip-path="url(#p3e2ffc443d)" d="M 378.1934 378 
L 379.295285 378 
L 379.295285 360.919401 
L 378.1934 360.919401 
z
" style="fill:#232066;"/>
   </g>
   <g id="patch_58">
    <path clip-path="url(#p3e2ffc443d)" d="M 381.992436 378 
L 383.094321 378 
L 383.094321 362.309682 
L 381.992436 362.309682 
z
" style="fill:#232066;"/>
   </g>
   <g id="patch_59">
    <path clip-path="url(#p3e2ffc443d)" d="M 385.791472 378 
L 386.893357 378 
L 386.893357 358.33745 
L 385.791472 358.33745 
z
" style="fill:#232066;"/>
   </g>
   <g id="patch_60">
    <path clip-path="url(#p3e2ffc443d)" d="M 389.590508 378 
L 390.692393 378 
L 390.692393 351.981878 
L 389.590508 351.981878 
z
" style="fill:#232066;"/>
   </g>
   <g id="patch_61">
    <path clip-path="url(#p3e2ffc443d)" d="M 393.389544 378 
L 394.491429 378 
L 394.491429 351.783266 
L 393.389544 351.783266 
z
" style="fill:#232066;"/>
   </g>
   <g id="patch_62">
    <path clip-path="url(#p3e2ffc443d)" d="M 397.18858 378 
L 398.290465 378 
L 398.290465 345.725612 
L 397.18858 345.725612 
z
" style="fill:#232066;"/>
   </g>
   <g id="patch_63">
    <path clip-path="url(#p3e2ffc443d)" d="M 400.987616 378 
L 402.089501 378 
L 402.089501 339.866569 
L 400.987616 339.866569 
z
" style="fill:#232066;"/>
   </g>
   <g id="patch_64">
    <path clip-path="url(#p3e2ffc443d)" d="M 404.786652 378 
L 405.888537 378 
L 405.888537 334.007526 
L 404.786652 334.007526 
z
" style="fill:#232066;"/>
   </g>
   <g id="patch_65">
    <path clip-path="url(#p3e2ffc443d)" d="M 408.585688 378 
L 409.687573 378 
L 409.687573 330.531823 
L 408.585688 330.531823 
z
" style="fill:#232066;"/>
   </g>
   <g id="patch_66">
    <path clip-path="url(#p3e2ffc443d)" d="M 412.384724 378 
L 413.486609 378 
L 413.486609 316.033175 
L 412.384724 316.033175 
z
" style="fill:#232066;"/>
   </g>
   <g id="patch_67">
    <path clip-path="url(#p3e2ffc443d)" d="M 416.18376 378 
L 417.285645 378 
L 417.285645 310.670661 
L 416.18376 310.670661 
z
" style="fill:#232066;"/>
   </g>
   <g id="patch_68">
    <path clip-path="url(#p3e2ffc443d)" d="M 419.982796 378 
L 421.084681 378 
L 421.084681 303.917866 
L 419.982796 303.917866 
z
" style="fill:#232066;"/>
   </g>
   <g id="patch_69">
    <path clip-path="url(#p3e2ffc443d)" d="M 423.781833 378 
L 424.883717 378 
L 424.883717 292.69631 
L 423.781833 292.69631 
z
" style="fill:#232066;"/>
   </g>
   <g id="patch_70">
    <path clip-path="url(#p3e2ffc443d)" d="M 427.580869 378 
L 428.682753 378 
L 428.682753 284.056704 
L 427.580869 284.056704 
z
" style="fill:#232066;"/>
   </g>
   <g id="patch_71">
    <path clip-path="url(#p3e2ffc443d)" d="M 431.379905 378 
L 432.481789 378 
L 432.481789 271.246255 
L 431.379905 271.246255 
z
" style="fill:#232066;"/>
   </g>
   <g id="patch_72">
    <path clip-path="url(#p3e2ffc443d)" d="M 435.178941 378 
L 436.280826 378 
L 436.280826 251.484399 
L 435.178941 251.484399 
z
" style="fill:#232066;"/>
   </g>
   <g id="patch_73">
    <path clip-path="url(#p3e2ffc443d)" d="M 438.977977 378 
L 440.079862 378 
L 440.079862 252.378151 
L 438.977977 252.378151 
z
" style="fill:#232066;"/>
   </g>
   <g id="patch_74">
    <path clip-path="url(#p3e2ffc443d)" d="M 442.777013 378 
L 443.878898 378 
L 443.878898 231.424626 
L 442.777013 231.424626 
z
" style="fill:#232066;"/>
   </g>
   <g id="patch_75">
    <path clip-path="url(#p3e2ffc443d)" d="M 446.576049 378 
L 447.677934 378 
L 447.677934 214.24472 
L 446.576049 214.24472 
z
" style="fill:#232066;"/>
   </g>
   <g id="patch_76">
    <path clip-path="url(#p3e2ffc443d)" d="M 450.375085 378 
L 451.47697 378 
L 451.47697 197.66065 
L 450.375085 197.66065 
z
" style="fill:#232066;"/>
   </g>
   <g id="patch_77">
    <path clip-path="url(#p3e2ffc443d)" d="M 454.174121 378 
L 455.276006 378 
L 455.276006 185.942565 
L 454.174121 185.942565 
z
" style="fill:#232066;"/>
   </g>
   <g id="patch_78">
    <path clip-path="url(#p3e2ffc443d)" d="M 457.973157 378 
L 459.075042 378 
L 459.075042 165.286957 
L 457.973157 165.286957 
z
" style="fill:#232066;"/>
   </g>
   <g id="patch_79">
    <path clip-path="url(#p3e2ffc443d)" d="M 461.772193 378 
L 462.874078 378 
L 462.874078 158.136938 
L 461.772193 158.136938 
z
" style="fill:#232066;"/>
   </g>
   <g id="patch_80">
    <path clip-path="url(#p3e2ffc443d)" d="M 465.571229 378 
L 466.673114 378 
L 466.673114 142.843844 
L 465.571229 142.843844 
z
" style="fill:#232066;"/>
   </g>
   <g id="patch_81">
    <path clip-path="url(#p3e2ffc443d)" d="M 469.370265 378 
L 470.47215 378 
L 470.47215 129.934088 
L 469.370265 129.934088 
z
" style="fill:#232066;"/>
   </g>
   <g id="patch_82">
    <path clip-path="url(#p3e2ffc443d)" d="M 473.169301 378 
L 474.271186 378 
L 474.271186 117.421556 
L 473.169301 117.421556 
z
" style="fill:#232066;"/>
   </g>
   <g id="patch_83">
    <path clip-path="url(#p3e2ffc443d)" d="M 476.968337 378 
L 478.070222 378 
L 478.070222 105.604165 
L 476.968337 105.604165 
z
" style="fill:#232066;"/>
   </g>
   <g id="patch_84">
    <path clip-path="url(#p3e2ffc443d)" d="M 480.767373 378 
L 481.869258 378 
L 481.869258 97.063866 
L 480.767373 97.063866 
z
" style="fill:#232066;"/>
   </g>
   <g id="patch_85">
    <path clip-path="url(#p3e2ffc443d)" d="M 484.566409 378 
L 485.668294 378 
L 485.668294 91.602046 
L 484.566409 91.602046 
z
" style="fill:#232066;"/>
   </g>
   <g id="patch_86">
    <path clip-path="url(#p3e2ffc443d)" d="M 488.365445 378 
L 489.46733 378 
L 489.46733 80.082572 
L 488.365445 80.082572 
z
" style="fill:#232066;"/>
   </g>
   <g id="patch_87">
    <path clip-path="url(#p3e2ffc443d)" d="M 492.164481 378 
L 493.266366 378 
L 493.266366 67.371429 
L 492.164481 67.371429 
z
" style="fill:#232066;"/>
   </g>
   <g id="patch_88">
    <path clip-path="url(#p3e2ffc443d)" d="M 495.963517 378 
L 497.065402 378 
L 497.065402 75.613811 
L 495.963517 75.613811 
z
" style="fill:#232066;"/>
   </g>
   <g id="patch_89">
    <path clip-path="url(#p3e2ffc443d)" d="M 499.762553 378 
L 500.864438 378 
L 500.864438 77.798539 
L 499.762553 77.798539 
z
" style="fill:#232066;"/>
   </g>
   <g id="patch_90">
    <path clip-path="url(#p3e2ffc443d)" d="M 503.561589 378 
L 504.663474 378 
L 504.663474 73.230471 
L 503.561589 73.230471 
z
" style="fill:#232066;"/>
   </g>
   <g id="patch_91">
    <path clip-path="url(#p3e2ffc443d)" d="M 507.360625 378 
L 508.46251 378 
L 508.46251 83.061746 
L 507.360625 83.061746 
z
" style="fill:#232066;"/>
   </g>
   <g id="patch_92">
    <path clip-path="url(#p3e2ffc443d)" d="M 511.159661 378 
L 512.261546 378 
L 512.261546 82.763829 
L 511.159661 82.763829 
z
" style="fill:#232066;"/>
   </g>
   <g id="patch_93">
    <path clip-path="url(#p3e2ffc443d)" d="M 514.958697 378 
L 516.060582 378 
L 516.060582 100.340957 
L 514.958697 100.340957 
z
" style="fill:#232066;"/>
   </g>
   <g id="patch_94">
    <path clip-path="url(#p3e2ffc443d)" d="M 518.757733 378 
L 519.859618 378 
L 519.859618 105.405554 
L 518.757733 105.405554 
z
" style="fill:#232066;"/>
   </g>
   <g id="patch_95">
    <path clip-path="url(#p3e2ffc443d)" d="M 522.556769 378 
L 523.658654 378 
L 523.658654 102.724297 
L 522.556769 102.724297 
z
" style="fill:#232066;"/>
   </g>
   <g id="patch_96">
    <path clip-path="url(#p3e2ffc443d)" d="M 526.355805 378 
L 527.45769 378 
L 527.45769 121.294483 
L 526.355805 121.294483 
z
" style="fill:#232066;"/>
   </g>
   <g id="patch_97">
    <path clip-path="url(#p3e2ffc443d)" d="M 530.154841 378 
L 531.256726 378 
L 531.256726 130.827841 
L 530.154841 130.827841 
z
" style="fill:#232066;"/>
   </g>
   <g id="patch_98">
    <path clip-path="url(#p3e2ffc443d)" d="M 533.953877 378 
L 535.055762 378 
L 535.055762 150.490391 
L 533.953877 150.490391 
z
" style="fill:#232066;"/>
   </g>
   <g id="patch_99">
    <path clip-path="url(#p3e2ffc443d)" d="M 537.752913 378 
L 538.854798 378 
L 538.854798 162.6057 
L 537.752913 162.6057 
z
" style="fill:#232066;"/>
   </g>
   <g id="patch_100">
    <path clip-path="url(#p3e2ffc443d)" d="M 541.551949 378 
L 542.653834 378 
L 542.653834 180.282134 
L 541.551949 180.282134 
z
" style="fill:#232066;"/>
   </g>
   <g id="patch_101">
    <path clip-path="url(#p3e2ffc443d)" d="M 545.350985 378 
L 546.45287 378 
L 546.45287 189.914797 
L 545.350985 189.914797 
z
" style="fill:#232066;"/>
   </g>
   <g id="patch_102">
    <path clip-path="url(#p3e2ffc443d)" d="M 549.150022 378 
L 550.251906 378 
L 550.251906 200.937742 
L 549.150022 200.937742 
z
" style="fill:#232066;"/>
   </g>
   <g id="patch_103">
    <path clip-path="url(#p3e2ffc443d)" d="M 552.949058 378 
L 554.050942 378 
L 554.050942 209.378736 
L 552.949058 209.378736 
z
" style="fill:#232066;"/>
   </g>
   <g id="patch_104">
    <path clip-path="url(#p3e2ffc443d)" d="M 556.748094 378 
L 557.849978 378 
L 557.849978 228.147534 
L 556.748094 228.147534 
z
" style="fill:#232066;"/>
   </g>
   <g id="patch_105">
    <path clip-path="url(#p3e2ffc443d)" d="M 560.54713 378 
L 561.649015 378 
L 561.649015 239.964925 
L 560.54713 239.964925 
z
" style="fill:#232066;"/>
   </g>
   <g id="patch_106">
    <path clip-path="url(#p3e2ffc443d)" d="M 564.346166 378 
L 565.448051 378 
L 565.448051 258.137888 
L 564.346166 258.137888 
z
" style="fill:#232066;"/>
   </g>
   <g id="patch_107">
    <path clip-path="url(#p3e2ffc443d)" d="M 568.145202 378 
L 569.247087 378 
L 569.247087 266.976105 
L 568.145202 266.976105 
z
" style="fill:#232066;"/>
   </g>
   <g id="patch_108">
    <path clip-path="url(#p3e2ffc443d)" d="M 571.944238 378 
L 573.046123 378 
L 573.046123 269.45875 
L 571.944238 269.45875 
z
" style="fill:#232066;"/>
   </g>
   <g id="patch_109">
    <path clip-path="url(#p3e2ffc443d)" d="M 575.743274 378 
L 576.845159 378 
L 576.845159 276.906686 
L 575.743274 276.906686 
z
" style="fill:#232066;"/>
   </g>
   <g id="patch_110">
    <path clip-path="url(#p3e2ffc443d)" d="M 579.54231 378 
L 580.644195 378 
L 580.644195 286.440044 
L 579.54231 286.440044 
z
" style="fill:#232066;"/>
   </g>
   <g id="patch_111">
    <path clip-path="url(#p3e2ffc443d)" d="M 583.341346 378 
L 584.443231 378 
L 584.443231 301.236609 
L 583.341346 301.236609 
z
" style="fill:#232066;"/>
   </g>
   <g id="patch_112">
    <path clip-path="url(#p3e2ffc443d)" d="M 587.140382 378 
L 588.242267 378 
L 588.242267 307.691487 
L 587.140382 307.691487 
z
" style="fill:#232066;"/>
   </g>
   <g id="patch_113">
    <path clip-path="url(#p3e2ffc443d)" d="M 590.939418 378 
L 592.041303 378 
L 592.041303 312.954695 
L 590.939418 312.954695 
z
" style="fill:#232066;"/>
   </g>
   <g id="patch_114">
    <path clip-path="url(#p3e2ffc443d)" d="M 594.738454 378 
L 595.840339 378 
L 595.840339 318.714432 
L 594.738454 318.714432 
z
" style="fill:#232066;"/>
   </g>
   <g id="patch_115">
    <path clip-path="url(#p3e2ffc443d)" d="M 598.53749 378 
L 599.639375 378 
L 599.639375 325.963756 
L 598.53749 325.963756 
z
" style="fill:#232066;"/>
   </g>
   <g id="patch_116">
    <path clip-path="url(#p3e2ffc443d)" d="M 602.336526 378 
L 603.438411 378 
L 603.438411 334.702667 
L 602.336526 334.702667 
z
" style="fill:#232066;"/>
   </g>
   <g id="patch_117">
    <path clip-path="url(#p3e2ffc443d)" d="M 606.135562 378 
L 607.237447 378 
L 607.237447 338.277676 
L 606.135562 338.277676 
z
" style="fill:#232066;"/>
   </g>
   <g id="patch_118">
    <path clip-path="url(#p3e2ffc443d)" d="M 609.934598 378 
L 611.036483 378 
L 611.036483 339.072123 
L 609.934598 339.072123 
z
" style="fill:#232066;"/>
   </g>
   <g id="patch_119">
    <path clip-path="url(#p3e2ffc443d)" d="M 613.733634 378 
L 614.835519 378 
L 614.835519 343.739496 
L 613.733634 343.739496 
z
" style="fill:#232066;"/>
   </g>
   <g id="patch_120">
    <path clip-path="url(#p3e2ffc443d)" d="M 617.53267 378 
L 618.634555 378 
L 618.634555 349.598539 
L 617.53267 349.598539 
z
" style="fill:#232066;"/>
   </g>
   <g id="patch_121">
    <path clip-path="url(#p3e2ffc443d)" d="M 621.331706 378 
L 622.433591 378 
L 622.433591 355.457581 
L 621.331706 355.457581 
z
" style="fill:#232066;"/>
   </g>
   <g id="patch_122">
    <path clip-path="url(#p3e2ffc443d)" d="M 625.130742 378 
L 626.232627 378 
L 626.232627 355.25897 
L 625.130742 355.25897 
z
" style="fill:#232066;"/>
   </g>
   <g id="patch_123">
    <path clip-path="url(#p3e2ffc443d)" d="M 628.929778 378 
L 630.031663 378 
L 630.031663 361.614541 
L 628.929778 361.614541 
z
" style="fill:#232066;"/>
   </g>
   <g id="patch_124">
    <path clip-path="url(#p3e2ffc443d)" d="M 632.728814 378 
L 633.830699 378 
L 633.830699 360.820095 
L 632.728814 360.820095 
z
" style="fill:#232066;"/>
   </g>
   <g id="patch_125">
    <path clip-path="url(#p3e2ffc443d)" d="M 636.52785 378 
L 637.629735 378 
L 637.629735 361.118012 
L 636.52785 361.118012 
z
" style="fill:#232066;"/>
   </g>
   <g id="patch_126">
    <path clip-path="url(#p3e2ffc443d)" d="M 640.326886 378 
L 641.428771 378 
L 641.428771 363.699963 
L 640.326886 363.699963 
z
" style="fill:#232066;"/>
   </g>
   <g id="patch_127">
    <path clip-path="url(#p3e2ffc443d)" d="M 644.125922 378 
L 645.227807 378 
L 645.227807 368.963171 
L 644.125922 368.963171 
z
" style="fill:#232066;"/>
   </g>
   <g id="patch_128">
    <path clip-path="url(#p3e2ffc443d)" d="M 647.924958 378 
L 649.026843 378 
L 649.026843 368.963171 
L 647.924958 368.963171 
z
" style="fill:#232066;"/>
   </g>
   <g id="patch_129">
    <path clip-path="url(#p3e2ffc443d)" d="M 651.723994 378 
L 652.825879 378 
L 652.825879 370.849982 
L 651.723994 370.849982 
z
" style="fill:#232066;"/>
   </g>
   <g id="patch_130">
    <path clip-path="url(#p3e2ffc443d)" d="M 655.52303 378 
L 656.624915 378 
L 656.624915 371.644428 
L 655.52303 371.644428 
z
" style="fill:#232066;"/>
   </g>
   <g id="patch_131">
    <path clip-path="url(#p3e2ffc443d)" d="M 659.322066 378 
L 660.423951 378 
L 660.423951 371.147899 
L 659.322066 371.147899 
z
" style="fill:#232066;"/>
   </g>
   <g id="patch_132">
    <path clip-path="url(#p3e2ffc443d)" d="M 663.121102 378 
L 664.222987 378 
L 664.222987 372.637486 
L 663.121102 372.637486 
z
" style="fill:#232066;"/>
   </g>
   <g id="patch_133">
    <path clip-path="url(#p3e2ffc443d)" d="M 666.920138 378 
L 668.022023 378 
L 668.022023 373.72985 
L 666.920138 373.72985 
z
" style="fill:#232066;"/>
   </g>
   <g id="patch_134">
    <path clip-path="url(#p3e2ffc443d)" d="M 670.719174 378 
L 671.821059 378 
L 671.821059 372.240263 
L 670.719174 372.240263 
z
" style="fill:#232066;"/>
   </g>
   <g id="patch_135">
    <path clip-path="url(#p3e2ffc443d)" d="M 674.518211 378 
L 675.620095 378 
L 675.620095 374.92152 
L 674.518211 374.92152 
z
" style="fill:#232066;"/>
   </g>
   <g id="patch_136">
    <path clip-path="url(#p3e2ffc443d)" d="M 678.317247 378 
L 679.419131 378 
L 679.419131 375.020826 
L 678.317247 375.020826 
z
" style="fill:#232066;"/>
   </g>
   <g id="patch_137">
    <path clip-path="url(#p3e2ffc443d)" d="M 682.116283 378 
L 683.218167 378 
L 683.218167 375.715966 
L 682.116283 375.715966 
z
" style="fill:#232066;"/>
   </g>
   <g id="patch_138">
    <path clip-path="url(#p3e2ffc443d)" d="M 685.915319 378 
L 687.017204 378 
L 687.017204 375.120132 
L 685.915319 375.120132 
z
" style="fill:#232066;"/>
   </g>
   <g id="patch_139">
    <path clip-path="url(#p3e2ffc443d)" d="M 689.714355 378 
L 690.81624 378 
L 690.81624 377.106248 
L 689.714355 377.106248 
z
" style="fill:#232066;"/>
   </g>
   <g id="patch_140">
    <path clip-path="url(#p3e2ffc443d)" d="M 693.513391 378 
L 694.615276 378 
L 694.615276 376.709024 
L 693.513391 376.709024 
z
" style="fill:#232066;"/>
   </g>
   <g id="patch_141">
    <path clip-path="url(#p3e2ffc443d)" d="M 697.312427 378 
L 698.414312 378 
L 698.414312 376.609719 
L 697.312427 376.609719 
z
" style="fill:#232066;"/>
   </g>
   <g id="patch_142">
    <path clip-path="url(#p3e2ffc443d)" d="M 701.111463 378 
L 702.213348 378 
L 702.213348 377.404165 
L 701.111463 377.404165 
z
" style="fill:#232066;"/>
   </g>
   <g id="patch_143">
    <path clip-path="url(#p3e2ffc443d)" d="M 704.910499 378 
L 706.012384 378 
L 706.012384 377.205554 
L 704.910499 377.205554 
z
" style="fill:#232066;"/>
   </g>
   <g id="patch_144">
    <path clip-path="url(#p3e2ffc443d)" d="M 708.709535 378 
L 709.81142 378 
L 709.81142 377.404165 
L 708.709535 377.404165 
z
" style="fill:#232066;"/>
   </g>
   <g id="patch_145">
    <path clip-path="url(#p3e2ffc443d)" d="M 712.508571 378 
L 713.610456 378 
L 713.610456 376.709024 
L 712.508571 376.709024 
z
" style="fill:#232066;"/>
   </g>
   <g id="patch_146">
    <path clip-path="url(#p3e2ffc443d)" d="M 716.307607 378 
L 717.409492 378 
L 717.409492 377.602777 
L 716.307607 377.602777 
z
" style="fill:#232066;"/>
   </g>
   <g id="patch_147">
    <path clip-path="url(#p3e2ffc443d)" d="M 720.106643 378 
L 721.208528 378 
L 721.208528 377.702083 
L 720.106643 377.702083 
z
" style="fill:#232066;"/>
   </g>
   <g id="patch_148">
    <path clip-path="url(#p3e2ffc443d)" d="M 723.905679 378 
L 725.007564 378 
L 725.007564 377.304859 
L 723.905679 377.304859 
z
" style="fill:#232066;"/>
   </g>
   <g id="patch_149">
    <path clip-path="url(#p3e2ffc443d)" d="M 727.704715 378 
L 728.8066 378 
L 728.8066 377.801388 
L 727.704715 377.801388 
z
" style="fill:#232066;"/>
   </g>
   <g id="patch_150">
    <path clip-path="url(#p3e2ffc443d)" d="M 731.503751 378 
L 732.605636 378 
L 732.605636 377.801388 
L 731.503751 377.801388 
z
" style="fill:#232066;"/>
   </g>
   <g id="patch_151">
    <path clip-path="url(#p3e2ffc443d)" d="M 735.302787 378 
L 736.404672 378 
L 736.404672 377.602777 
L 735.302787 377.602777 
z
" style="fill:#232066;"/>
   </g>
   <g id="patch_152">
    <path clip-path="url(#p3e2ffc443d)" d="M 739.101823 378 
L 740.203708 378 
L 740.203708 377.702083 
L 739.101823 377.702083 
z
" style="fill:#232066;"/>
   </g>
   <g id="patch_153">
    <path clip-path="url(#p3e2ffc443d)" d="M 742.900859 378 
L 744.002744 378 
L 744.002744 377.801388 
L 742.900859 377.801388 
z
" style="fill:#232066;"/>
   </g>
   <g id="patch_154">
    <path clip-path="url(#p3e2ffc443d)" d="M 746.699895 378 
L 747.80178 378 
L 747.80178 377.404165 
L 746.699895 377.404165 
z
" style="fill:#232066;"/>
   </g>
   <g id="patch_155">
    <path clip-path="url(#p3e2ffc443d)" d="M 750.498931 378 
L 751.600816 378 
L 751.600816 377.801388 
L 750.498931 377.801388 
z
" style="fill:#232066;"/>
   </g>
   <g id="patch_156">
    <path clip-path="url(#p3e2ffc443d)" d="M 754.297967 378 
L 755.399852 378 
L 755.399852 377.801388 
L 754.297967 377.801388 
z
" style="fill:#232066;"/>
   </g>
   <g id="patch_157">
    <path clip-path="url(#p3e2ffc443d)" d="M 758.097003 378 
L 759.198888 378 
L 759.198888 377.801388 
L 758.097003 377.801388 
z
" style="fill:#232066;"/>
   </g>
   <g id="patch_158">
    <path clip-path="url(#p3e2ffc443d)" d="M 761.896039 378 
L 762.997924 378 
L 762.997924 378 
L 761.896039 378 
z
" style="fill:#232066;"/>
   </g>
   <g id="patch_159">
    <path clip-path="url(#p3e2ffc443d)" d="M 765.695075 378 
L 766.79696 378 
L 766.79696 378 
L 765.695075 378 
z
" style="fill:#232066;"/>
   </g>
   <g id="patch_160">
    <path clip-path="url(#p3e2ffc443d)" d="M 769.494111 378 
L 770.595996 378 
L 770.595996 377.801388 
L 769.494111 377.801388 
z
" style="fill:#232066;"/>
   </g>
   <g id="patch_161">
    <path clip-path="url(#p3e2ffc443d)" d="M 773.293147 378 
L 774.395032 378 
L 774.395032 378 
L 773.293147 378 
z
" style="fill:#232066;"/>
   </g>
   <g id="patch_162">
    <path clip-path="url(#p3e2ffc443d)" d="M 777.092183 378 
L 778.194068 378 
L 778.194068 378 
L 777.092183 378 
z
" style="fill:#232066;"/>
   </g>
   <g id="patch_163">
    <path clip-path="url(#p3e2ffc443d)" d="M 780.891219 378 
L 781.993104 378 
L 781.993104 378 
L 780.891219 378 
z
" style="fill:#232066;"/>
   </g>
   <g id="patch_164">
    <path clip-path="url(#p3e2ffc443d)" d="M 784.690255 378 
L 785.79214 378 
L 785.79214 378 
L 784.690255 378 
z
" style="fill:#232066;"/>
   </g>
   <g id="patch_165">
    <path clip-path="url(#p3e2ffc443d)" d="M 788.489291 378 
L 789.591176 378 
L 789.591176 378 
L 788.489291 378 
z
" style="fill:#232066;"/>
   </g>
   <g id="patch_166">
    <path clip-path="url(#p3e2ffc443d)" d="M 792.288327 378 
L 793.390212 378 
L 793.390212 377.900694 
L 792.288327 377.900694 
z
" style="fill:#232066;"/>
   </g>
   <g id="patch_167">
    <path clip-path="url(#p3e2ffc443d)" d="M 796.087363 378 
L 797.189248 378 
L 797.189248 377.801388 
L 796.087363 377.801388 
z
" style="fill:#232066;"/>
   </g>
   <g id="patch_168">
    <path clip-path="url(#p3e2ffc443d)" d="M 799.886399 378 
L 800.988284 378 
L 800.988284 377.900694 
L 799.886399 377.900694 
z
" style="fill:#232066;"/>
   </g>
   <g id="patch_169">
    <path clip-path="url(#p3e2ffc443d)" d="M 803.685436 378 
L 804.78732 378 
L 804.78732 378 
L 803.685436 378 
z
" style="fill:#232066;"/>
   </g>
   <g id="patch_170">
    <path clip-path="url(#p3e2ffc443d)" d="M 807.484472 378 
L 808.586356 378 
L 808.586356 378 
L 807.484472 378 
z
" style="fill:#232066;"/>
   </g>
   <g id="patch_171">
    <path clip-path="url(#p3e2ffc443d)" d="M 811.283508 378 
L 812.385392 378 
L 812.385392 378 
L 811.283508 378 
z
" style="fill:#232066;"/>
   </g>
   <g id="patch_172">
    <path clip-path="url(#p3e2ffc443d)" d="M 815.082544 378 
L 816.184429 378 
L 816.184429 378 
L 815.082544 378 
z
" style="fill:#232066;"/>
   </g>
   <g id="patch_173">
    <path clip-path="url(#p3e2ffc443d)" d="M 818.88158 378 
L 819.983465 378 
L 819.983465 378 
L 818.88158 378 
z
" style="fill:#232066;"/>
   </g>
   <g id="patch_174">
    <path clip-path="url(#p3e2ffc443d)" d="M 822.680616 378 
L 823.782501 378 
L 823.782501 378 
L 822.680616 378 
z
" style="fill:#232066;"/>
   </g>
   <g id="patch_175">
    <path clip-path="url(#p3e2ffc443d)" d="M 826.479652 378 
L 827.581537 378 
L 827.581537 378 
L 826.479652 378 
z
" style="fill:#232066;"/>
   </g>
   <g id="patch_176">
    <path clip-path="url(#p3e2ffc443d)" d="M 830.278688 378 
L 831.380573 378 
L 831.380573 378 
L 830.278688 378 
z
" style="fill:#232066;"/>
   </g>
   <g id="patch_177">
    <path clip-path="url(#p3e2ffc443d)" d="M 834.077724 378 
L 835.179609 378 
L 835.179609 378 
L 834.077724 378 
z
" style="fill:#232066;"/>
   </g>
   <g id="patch_178">
    <path clip-path="url(#p3e2ffc443d)" d="M 837.87676 378 
L 838.978645 378 
L 838.978645 378 
L 837.87676 378 
z
" style="fill:#232066;"/>
   </g>
   <g id="patch_179">
    <path clip-path="url(#p3e2ffc443d)" d="M 841.675796 378 
L 842.777681 378 
L 842.777681 378 
L 841.675796 378 
z
" style="fill:#232066;"/>
   </g>
   <g id="patch_180">
    <path clip-path="url(#p3e2ffc443d)" d="M 845.474832 378 
L 846.576717 378 
L 846.576717 378 
L 845.474832 378 
z
" style="fill:#232066;"/>
   </g>
   <g id="patch_181">
    <path clip-path="url(#p3e2ffc443d)" d="M 849.273868 378 
L 850.375753 378 
L 850.375753 378 
L 849.273868 378 
z
" style="fill:#232066;"/>
   </g>
   <g id="patch_182">
    <path clip-path="url(#p3e2ffc443d)" d="M 853.072904 378 
L 854.174789 378 
L 854.174789 378 
L 853.072904 378 
z
" style="fill:#232066;"/>
   </g>
   <g id="patch_183">
    <path clip-path="url(#p3e2ffc443d)" d="M 856.87194 378 
L 857.973825 378 
L 857.973825 378 
L 856.87194 378 
z
" style="fill:#232066;"/>
   </g>
   <g id="patch_184">
    <path clip-path="url(#p3e2ffc443d)" d="M 860.670976 378 
L 861.772861 378 
L 861.772861 378 
L 860.670976 378 
z
" style="fill:#232066;"/>
   </g>
   <g id="patch_185">
    <path clip-path="url(#p3e2ffc443d)" d="M 864.470012 378 
L 865.571897 378 
L 865.571897 378 
L 864.470012 378 
z
" style="fill:#232066;"/>
   </g>
   <g id="patch_186">
    <path clip-path="url(#p3e2ffc443d)" d="M 868.269048 378 
L 869.370933 378 
L 869.370933 378 
L 868.269048 378 
z
" style="fill:#232066;"/>
   </g>
   <g id="patch_187">
    <path clip-path="url(#p3e2ffc443d)" d="M 872.068084 378 
L 873.169969 378 
L 873.169969 378 
L 872.068084 378 
z
" style="fill:#232066;"/>
   </g>
   <g id="patch_188">
    <path clip-path="url(#p3e2ffc443d)" d="M 875.86712 378 
L 876.969005 378 
L 876.969005 378 
L 875.86712 378 
z
" style="fill:#232066;"/>
   </g>
   <g id="patch_189">
    <path clip-path="url(#p3e2ffc443d)" d="M 879.666156 378 
L 880.768041 378 
L 880.768041 378 
L 879.666156 378 
z
" style="fill:#232066;"/>
   </g>
   <g id="patch_190">
    <path clip-path="url(#p3e2ffc443d)" d="M 883.465192 378 
L 884.567077 378 
L 884.567077 378 
L 883.465192 378 
z
" style="fill:#232066;"/>
   </g>
   <g id="patch_191">
    <path clip-path="url(#p3e2ffc443d)" d="M 887.264228 378 
L 888.366113 378 
L 888.366113 378 
L 887.264228 378 
z
" style="fill:#232066;"/>
   </g>
   <g id="patch_192">
    <path clip-path="url(#p3e2ffc443d)" d="M 891.063264 378 
L 892.165149 378 
L 892.165149 378 
L 891.063264 378 
z
" style="fill:#232066;"/>
   </g>
   <g id="patch_193">
    <path clip-path="url(#p3e2ffc443d)" d="M 894.8623 378 
L 895.964185 378 
L 895.964185 378 
L 894.8623 378 
z
" style="fill:#232066;"/>
   </g>
   <g id="patch_194">
    <path clip-path="url(#p3e2ffc443d)" d="M 898.661336 378 
L 899.763221 378 
L 899.763221 378 
L 898.661336 378 
z
" style="fill:#232066;"/>
   </g>
   <g id="patch_195">
    <path clip-path="url(#p3e2ffc443d)" d="M 902.460372 378 
L 903.562257 378 
L 903.562257 378 
L 902.460372 378 
z
" style="fill:#232066;"/>
   </g>
   <g id="patch_196">
    <path clip-path="url(#p3e2ffc443d)" d="M 906.259408 378 
L 907.361293 378 
L 907.361293 378 
L 906.259408 378 
z
" style="fill:#232066;"/>
   </g>
   <g id="patch_197">
    <path clip-path="url(#p3e2ffc443d)" d="M 910.058444 378 
L 911.160329 378 
L 911.160329 378 
L 910.058444 378 
z
" style="fill:#232066;"/>
   </g>
   <g id="patch_198">
    <path clip-path="url(#p3e2ffc443d)" d="M 913.85748 378 
L 914.959365 378 
L 914.959365 378 
L 913.85748 378 
z
" style="fill:#232066;"/>
   </g>
   <g id="patch_199">
    <path clip-path="url(#p3e2ffc443d)" d="M 917.656516 378 
L 918.758401 378 
L 918.758401 378 
L 917.656516 378 
z
" style="fill:#232066;"/>
   </g>
   <g id="patch_200">
    <path clip-path="url(#p3e2ffc443d)" d="M 921.455552 378 
L 922.557437 378 
L 922.557437 378 
L 921.455552 378 
z
" style="fill:#232066;"/>
   </g>
   <g id="patch_201">
    <path clip-path="url(#p3e2ffc443d)" d="M 925.254588 378 
L 926.356473 378 
L 926.356473 378 
L 925.254588 378 
z
" style="fill:#232066;"/>
   </g>
   <g id="patch_202">
    <path clip-path="url(#p3e2ffc443d)" d="M 929.053625 378 
L 930.155509 378 
L 930.155509 378 
L 929.053625 378 
z
" style="fill:#232066;"/>
   </g>
   <g id="patch_203">
    <path clip-path="url(#p3e2ffc443d)" d="M 932.852661 378 
L 933.954545 378 
L 933.954545 377.900694 
L 932.852661 377.900694 
z
" style="fill:#232066;"/>
   </g>
   <g id="matplotlib.axis_1">
    <g id="xtick_1">
     <g id="line2d_1">
      <defs>
       <path d="M 0 0 
L 0 3.5 
" id="m75390a056e" style="stroke:#000000;stroke-width:0.8;"/>
      </defs>
      <g>
       <use style="stroke:#000000;stroke-width:0.8;" x="240.811376" xlink:href="#m75390a056e" y="378"/>
      </g>
     </g>
     <g id="text_1">
      <!-- 4.5 -->
      <defs>
       <path d="M 37.796875 64.3125 
L 12.890625 25.390625 
L 37.796875 25.390625 
z
M 35.203125 72.90625 
L 47.609375 72.90625 
L 47.609375 25.390625 
L 58.015625 25.390625 
L 58.015625 17.1875 
L 47.609375 17.1875 
L 47.609375 0 
L 37.796875 0 
L 37.796875 17.1875 
L 4.890625 17.1875 
L 4.890625 26.703125 
z
" id="DejaVuSans-34"/>
       <path d="M 10.6875 12.40625 
L 21 12.40625 
L 21 0 
L 10.6875 0 
z
" id="DejaVuSans-2e"/>
       <path d="M 10.796875 72.90625 
L 49.515625 72.90625 
L 49.515625 64.59375 
L 19.828125 64.59375 
L 19.828125 46.734375 
Q 21.96875 47.46875 24.109375 47.828125 
Q 26.265625 48.1875 28.421875 48.1875 
Q 40.625 48.1875 47.75 41.5 
Q 54.890625 34.8125 54.890625 23.390625 
Q 54.890625 11.625 47.5625 5.09375 
Q 40.234375 -1.421875 26.90625 -1.421875 
Q 22.3125 -1.421875 17.546875 -0.640625 
Q 12.796875 0.140625 7.71875 1.703125 
L 7.71875 11.625 
Q 12.109375 9.234375 16.796875 8.0625 
Q 21.484375 6.890625 26.703125 6.890625 
Q 35.15625 6.890625 40.078125 11.328125 
Q 45.015625 15.765625 45.015625 23.390625 
Q 45.015625 31 40.078125 35.4375 
Q 35.15625 39.890625 26.703125 39.890625 
Q 22.75 39.890625 18.8125 39.015625 
Q 14.890625 38.140625 10.796875 36.28125 
z
" id="DejaVuSans-35"/>
      </defs>
      <g transform="translate(232.859814 392.598437)scale(0.1 -0.1)">
       <use xlink:href="#DejaVuSans-34"/>
       <use x="63.623047" xlink:href="#DejaVuSans-2e"/>
       <use x="95.410156" xlink:href="#DejaVuSans-35"/>
      </g>
     </g>
    </g>
    <g id="xtick_2">
     <g id="line2d_2">
      <g>
       <use style="stroke:#000000;stroke-width:0.8;" x="350.999867" xlink:href="#m75390a056e" y="378"/>
      </g>
     </g>
     <g id="text_2">
      <!-- 5.0 -->
      <defs>
       <path d="M 31.78125 66.40625 
Q 24.171875 66.40625 20.328125 58.90625 
Q 16.5 51.421875 16.5 36.375 
Q 16.5 21.390625 20.328125 13.890625 
Q 24.171875 6.390625 31.78125 6.390625 
Q 39.453125 6.390625 43.28125 13.890625 
Q 47.125 21.390625 47.125 36.375 
Q 47.125 51.421875 43.28125 58.90625 
Q 39.453125 66.40625 31.78125 66.40625 
z
M 31.78125 74.21875 
Q 44.046875 74.21875 50.515625 64.515625 
Q 56.984375 54.828125 56.984375 36.375 
Q 56.984375 17.96875 50.515625 8.265625 
Q 44.046875 -1.421875 31.78125 -1.421875 
Q 19.53125 -1.421875 13.0625 8.265625 
Q 6.59375 17.96875 6.59375 36.375 
Q 6.59375 54.828125 13.0625 64.515625 
Q 19.53125 74.21875 31.78125 74.21875 
z
" id="DejaVuSans-30"/>
      </defs>
      <g transform="translate(343.048305 392.598437)scale(0.1 -0.1)">
       <use xlink:href="#DejaVuSans-35"/>
       <use x="63.623047" xlink:href="#DejaVuSans-2e"/>
       <use x="95.410156" xlink:href="#DejaVuSans-30"/>
      </g>
     </g>
    </g>
    <g id="xtick_3">
     <g id="line2d_3">
      <g>
       <use style="stroke:#000000;stroke-width:0.8;" x="461.188358" xlink:href="#m75390a056e" y="378"/>
      </g>
     </g>
     <g id="text_3">
      <!-- 5.5 -->
      <g transform="translate(453.236796 392.598437)scale(0.1 -0.1)">
       <use xlink:href="#DejaVuSans-35"/>
       <use x="63.623047" xlink:href="#DejaVuSans-2e"/>
       <use x="95.410156" xlink:href="#DejaVuSans-35"/>
      </g>
     </g>
    </g>
    <g id="xtick_4">
     <g id="line2d_4">
      <g>
       <use style="stroke:#000000;stroke-width:0.8;" x="571.376849" xlink:href="#m75390a056e" y="378"/>
      </g>
     </g>
     <g id="text_4">
      <!-- 6.0 -->
      <defs>
       <path d="M 33.015625 40.375 
Q 26.375 40.375 22.484375 35.828125 
Q 18.609375 31.296875 18.609375 23.390625 
Q 18.609375 15.53125 22.484375 10.953125 
Q 26.375 6.390625 33.015625 6.390625 
Q 39.65625 6.390625 43.53125 10.953125 
Q 47.40625 15.53125 47.40625 23.390625 
Q 47.40625 31.296875 43.53125 35.828125 
Q 39.65625 40.375 33.015625 40.375 
z
M 52.59375 71.296875 
L 52.59375 62.3125 
Q 48.875 64.0625 45.09375 64.984375 
Q 41.3125 65.921875 37.59375 65.921875 
Q 27.828125 65.921875 22.671875 59.328125 
Q 17.53125 52.734375 16.796875 39.40625 
Q 19.671875 43.65625 24.015625 45.921875 
Q 28.375 48.1875 33.59375 48.1875 
Q 44.578125 48.1875 50.953125 41.515625 
Q 57.328125 34.859375 57.328125 23.390625 
Q 57.328125 12.15625 50.6875 5.359375 
Q 44.046875 -1.421875 33.015625 -1.421875 
Q 20.359375 -1.421875 13.671875 8.265625 
Q 6.984375 17.96875 6.984375 36.375 
Q 6.984375 53.65625 15.1875 63.9375 
Q 23.390625 74.21875 37.203125 74.21875 
Q 40.921875 74.21875 44.703125 73.484375 
Q 48.484375 72.75 52.59375 71.296875 
z
" id="DejaVuSans-36"/>
      </defs>
      <g transform="translate(563.425287 392.598437)scale(0.1 -0.1)">
       <use xlink:href="#DejaVuSans-36"/>
       <use x="63.623047" xlink:href="#DejaVuSans-2e"/>
       <use x="95.410156" xlink:href="#DejaVuSans-30"/>
      </g>
     </g>
    </g>
    <g id="xtick_5">
     <g id="line2d_5">
      <g>
       <use style="stroke:#000000;stroke-width:0.8;" x="681.56534" xlink:href="#m75390a056e" y="378"/>
      </g>
     </g>
     <g id="text_5">
      <!-- 6.5 -->
      <g transform="translate(673.613778 392.598437)scale(0.1 -0.1)">
       <use xlink:href="#DejaVuSans-36"/>
       <use x="63.623047" xlink:href="#DejaVuSans-2e"/>
       <use x="95.410156" xlink:href="#DejaVuSans-35"/>
      </g>
     </g>
    </g>
    <g id="xtick_6">
     <g id="line2d_6">
      <g>
       <use style="stroke:#000000;stroke-width:0.8;" x="791.753831" xlink:href="#m75390a056e" y="378"/>
      </g>
     </g>
     <g id="text_6">
      <!-- 7.0 -->
      <defs>
       <path d="M 8.203125 72.90625 
L 55.078125 72.90625 
L 55.078125 68.703125 
L 28.609375 0 
L 18.3125 0 
L 43.21875 64.59375 
L 8.203125 64.59375 
z
" id="DejaVuSans-37"/>
      </defs>
      <g transform="translate(783.802269 392.598437)scale(0.1 -0.1)">
       <use xlink:href="#DejaVuSans-37"/>
       <use x="63.623047" xlink:href="#DejaVuSans-2e"/>
       <use x="95.410156" xlink:href="#DejaVuSans-30"/>
      </g>
     </g>
    </g>
    <g id="xtick_7">
     <g id="line2d_7">
      <g>
       <use style="stroke:#000000;stroke-width:0.8;" x="901.942322" xlink:href="#m75390a056e" y="378"/>
      </g>
     </g>
     <g id="text_7">
      <!-- 7.5 -->
      <g transform="translate(893.990759 392.598437)scale(0.1 -0.1)">
       <use xlink:href="#DejaVuSans-37"/>
       <use x="63.623047" xlink:href="#DejaVuSans-2e"/>
       <use x="95.410156" xlink:href="#DejaVuSans-35"/>
      </g>
     </g>
    </g>
    <g id="text_8">
     <!-- Sentiment -->
     <defs>
      <path d="M 53.515625 70.515625 
L 53.515625 60.890625 
Q 47.90625 63.578125 42.921875 64.890625 
Q 37.9375 66.21875 33.296875 66.21875 
Q 25.25 66.21875 20.875 63.09375 
Q 16.5 59.96875 16.5 54.203125 
Q 16.5 49.359375 19.40625 46.890625 
Q 22.3125 44.4375 30.421875 42.921875 
L 36.375 41.703125 
Q 47.40625 39.59375 52.65625 34.296875 
Q 57.90625 29 57.90625 20.125 
Q 57.90625 9.515625 50.796875 4.046875 
Q 43.703125 -1.421875 29.984375 -1.421875 
Q 24.8125 -1.421875 18.96875 -0.25 
Q 13.140625 0.921875 6.890625 3.21875 
L 6.890625 13.375 
Q 12.890625 10.015625 18.65625 8.296875 
Q 24.421875 6.59375 29.984375 6.59375 
Q 38.421875 6.59375 43.015625 9.90625 
Q 47.609375 13.234375 47.609375 19.390625 
Q 47.609375 24.75 44.3125 27.78125 
Q 41.015625 30.8125 33.5 32.328125 
L 27.484375 33.5 
Q 16.453125 35.6875 11.515625 40.375 
Q 6.59375 45.0625 6.59375 53.421875 
Q 6.59375 63.09375 13.40625 68.65625 
Q 20.21875 74.21875 32.171875 74.21875 
Q 37.3125 74.21875 42.625 73.28125 
Q 47.953125 72.359375 53.515625 70.515625 
z
" id="DejaVuSans-53"/>
      <path d="M 56.203125 29.59375 
L 56.203125 25.203125 
L 14.890625 25.203125 
Q 15.484375 15.921875 20.484375 11.0625 
Q 25.484375 6.203125 34.421875 6.203125 
Q 39.59375 6.203125 44.453125 7.46875 
Q 49.3125 8.734375 54.109375 11.28125 
L 54.109375 2.78125 
Q 49.265625 0.734375 44.1875 -0.34375 
Q 39.109375 -1.421875 33.890625 -1.421875 
Q 20.796875 -1.421875 13.15625 6.1875 
Q 5.515625 13.8125 5.515625 26.8125 
Q 5.515625 40.234375 12.765625 48.109375 
Q 20.015625 56 32.328125 56 
Q 43.359375 56 49.78125 48.890625 
Q 56.203125 41.796875 56.203125 29.59375 
z
M 47.21875 32.234375 
Q 47.125 39.59375 43.09375 43.984375 
Q 39.0625 48.390625 32.421875 48.390625 
Q 24.90625 48.390625 20.390625 44.140625 
Q 15.875 39.890625 15.1875 32.171875 
z
" id="DejaVuSans-65"/>
      <path d="M 54.890625 33.015625 
L 54.890625 0 
L 45.90625 0 
L 45.90625 32.71875 
Q 45.90625 40.484375 42.875 44.328125 
Q 39.84375 48.1875 33.796875 48.1875 
Q 26.515625 48.1875 22.3125 43.546875 
Q 18.109375 38.921875 18.109375 30.90625 
L 18.109375 0 
L 9.078125 0 
L 9.078125 54.6875 
L 18.109375 54.6875 
L 18.109375 46.1875 
Q 21.34375 51.125 25.703125 53.5625 
Q 30.078125 56 35.796875 56 
Q 45.21875 56 50.046875 50.171875 
Q 54.890625 44.34375 54.890625 33.015625 
z
" id="DejaVuSans-6e"/>
      <path d="M 18.3125 70.21875 
L 18.3125 54.6875 
L 36.8125 54.6875 
L 36.8125 47.703125 
L 18.3125 47.703125 
L 18.3125 18.015625 
Q 18.3125 11.328125 20.140625 9.421875 
Q 21.96875 7.515625 27.59375 7.515625 
L 36.8125 7.515625 
L 36.8125 0 
L 27.59375 0 
Q 17.1875 0 13.234375 3.875 
Q 9.28125 7.765625 9.28125 18.015625 
L 9.28125 47.703125 
L 2.6875 47.703125 
L 2.6875 54.6875 
L 9.28125 54.6875 
L 9.28125 70.21875 
z
" id="DejaVuSans-74"/>
      <path d="M 9.421875 54.6875 
L 18.40625 54.6875 
L 18.40625 0 
L 9.421875 0 
z
M 9.421875 75.984375 
L 18.40625 75.984375 
L 18.40625 64.59375 
L 9.421875 64.59375 
z
" id="DejaVuSans-69"/>
      <path d="M 52 44.1875 
Q 55.375 50.25 60.0625 53.125 
Q 64.75 56 71.09375 56 
Q 79.640625 56 84.28125 50.015625 
Q 88.921875 44.046875 88.921875 33.015625 
L 88.921875 0 
L 79.890625 0 
L 79.890625 32.71875 
Q 79.890625 40.578125 77.09375 44.375 
Q 74.3125 48.1875 68.609375 48.1875 
Q 61.625 48.1875 57.5625 43.546875 
Q 53.515625 38.921875 53.515625 30.90625 
L 53.515625 0 
L 44.484375 0 
L 44.484375 32.71875 
Q 44.484375 40.625 41.703125 44.40625 
Q 38.921875 48.1875 33.109375 48.1875 
Q 26.21875 48.1875 22.15625 43.53125 
Q 18.109375 38.875 18.109375 30.90625 
L 18.109375 0 
L 9.078125 0 
L 9.078125 54.6875 
L 18.109375 54.6875 
L 18.109375 46.1875 
Q 21.1875 51.21875 25.484375 53.609375 
Q 29.78125 56 35.6875 56 
Q 41.65625 56 45.828125 52.96875 
Q 50 49.953125 52 44.1875 
z
" id="DejaVuSans-6d"/>
     </defs>
     <g transform="translate(527.655469 406.276563)scale(0.1 -0.1)">
      <use xlink:href="#DejaVuSans-53"/>
      <use x="63.476562" xlink:href="#DejaVuSans-65"/>
      <use x="125" xlink:href="#DejaVuSans-6e"/>
      <use x="188.378906" xlink:href="#DejaVuSans-74"/>
      <use x="227.587891" xlink:href="#DejaVuSans-69"/>
      <use x="255.371094" xlink:href="#DejaVuSans-6d"/>
      <use x="352.783203" xlink:href="#DejaVuSans-65"/>
      <use x="414.306641" xlink:href="#DejaVuSans-6e"/>
      <use x="477.685547" xlink:href="#DejaVuSans-74"/>
     </g>
    </g>
   </g>
   <g id="matplotlib.axis_2">
    <g id="ytick_1">
     <g id="line2d_8">
      <defs>
       <path d="M 0 0 
L -3.5 0 
" id="m581b903137" style="stroke:#000000;stroke-width:0.8;"/>
      </defs>
      <g>
       <use style="stroke:#000000;stroke-width:0.8;" x="135" xlink:href="#m581b903137" y="378"/>
      </g>
     </g>
     <g id="text_9">
      <!-- 0 -->
      <g transform="translate(121.6375 381.799219)scale(0.1 -0.1)">
       <use xlink:href="#DejaVuSans-30"/>
      </g>
     </g>
    </g>
    <g id="ytick_2">
     <g id="line2d_9">
      <g>
       <use style="stroke:#000000;stroke-width:0.8;" x="135" xlink:href="#m581b903137" y="328.347095"/>
      </g>
     </g>
     <g id="text_10">
      <!-- 500 -->
      <g transform="translate(108.9125 332.146314)scale(0.1 -0.1)">
       <use xlink:href="#DejaVuSans-35"/>
       <use x="63.623047" xlink:href="#DejaVuSans-30"/>
       <use x="127.246094" xlink:href="#DejaVuSans-30"/>
      </g>
     </g>
    </g>
    <g id="ytick_3">
     <g id="line2d_10">
      <g>
       <use style="stroke:#000000;stroke-width:0.8;" x="135" xlink:href="#m581b903137" y="278.694191"/>
      </g>
     </g>
     <g id="text_11">
      <!-- 1000 -->
      <defs>
       <path d="M 12.40625 8.296875 
L 28.515625 8.296875 
L 28.515625 63.921875 
L 10.984375 60.40625 
L 10.984375 69.390625 
L 28.421875 72.90625 
L 38.28125 72.90625 
L 38.28125 8.296875 
L 54.390625 8.296875 
L 54.390625 0 
L 12.40625 0 
z
" id="DejaVuSans-31"/>
      </defs>
      <g transform="translate(102.55 282.493409)scale(0.1 -0.1)">
       <use xlink:href="#DejaVuSans-31"/>
       <use x="63.623047" xlink:href="#DejaVuSans-30"/>
       <use x="127.246094" xlink:href="#DejaVuSans-30"/>
       <use x="190.869141" xlink:href="#DejaVuSans-30"/>
      </g>
     </g>
    </g>
    <g id="ytick_4">
     <g id="line2d_11">
      <g>
       <use style="stroke:#000000;stroke-width:0.8;" x="135" xlink:href="#m581b903137" y="229.041286"/>
      </g>
     </g>
     <g id="text_12">
      <!-- 1500 -->
      <g transform="translate(102.55 232.840505)scale(0.1 -0.1)">
       <use xlink:href="#DejaVuSans-31"/>
       <use x="63.623047" xlink:href="#DejaVuSans-35"/>
       <use x="127.246094" xlink:href="#DejaVuSans-30"/>
       <use x="190.869141" xlink:href="#DejaVuSans-30"/>
      </g>
     </g>
    </g>
    <g id="ytick_5">
     <g id="line2d_12">
      <g>
       <use style="stroke:#000000;stroke-width:0.8;" x="135" xlink:href="#m581b903137" y="179.388381"/>
      </g>
     </g>
     <g id="text_13">
      <!-- 2000 -->
      <defs>
       <path d="M 19.1875 8.296875 
L 53.609375 8.296875 
L 53.609375 0 
L 7.328125 0 
L 7.328125 8.296875 
Q 12.9375 14.109375 22.625 23.890625 
Q 32.328125 33.6875 34.8125 36.53125 
Q 39.546875 41.84375 41.421875 45.53125 
Q 43.3125 49.21875 43.3125 52.78125 
Q 43.3125 58.59375 39.234375 62.25 
Q 35.15625 65.921875 28.609375 65.921875 
Q 23.96875 65.921875 18.8125 64.3125 
Q 13.671875 62.703125 7.8125 59.421875 
L 7.8125 69.390625 
Q 13.765625 71.78125 18.9375 73 
Q 24.125 74.21875 28.421875 74.21875 
Q 39.75 74.21875 46.484375 68.546875 
Q 53.21875 62.890625 53.21875 53.421875 
Q 53.21875 48.921875 51.53125 44.890625 
Q 49.859375 40.875 45.40625 35.40625 
Q 44.1875 33.984375 37.640625 27.21875 
Q 31.109375 20.453125 19.1875 8.296875 
z
" id="DejaVuSans-32"/>
      </defs>
      <g transform="translate(102.55 183.1876)scale(0.1 -0.1)">
       <use xlink:href="#DejaVuSans-32"/>
       <use x="63.623047" xlink:href="#DejaVuSans-30"/>
       <use x="127.246094" xlink:href="#DejaVuSans-30"/>
       <use x="190.869141" xlink:href="#DejaVuSans-30"/>
      </g>
     </g>
    </g>
    <g id="ytick_6">
     <g id="line2d_13">
      <g>
       <use style="stroke:#000000;stroke-width:0.8;" x="135" xlink:href="#m581b903137" y="129.735477"/>
      </g>
     </g>
     <g id="text_14">
      <!-- 2500 -->
      <g transform="translate(102.55 133.534696)scale(0.1 -0.1)">
       <use xlink:href="#DejaVuSans-32"/>
       <use x="63.623047" xlink:href="#DejaVuSans-35"/>
       <use x="127.246094" xlink:href="#DejaVuSans-30"/>
       <use x="190.869141" xlink:href="#DejaVuSans-30"/>
      </g>
     </g>
    </g>
    <g id="ytick_7">
     <g id="line2d_14">
      <g>
       <use style="stroke:#000000;stroke-width:0.8;" x="135" xlink:href="#m581b903137" y="80.082572"/>
      </g>
     </g>
     <g id="text_15">
      <!-- 3000 -->
      <defs>
       <path d="M 40.578125 39.3125 
Q 47.65625 37.796875 51.625 33 
Q 55.609375 28.21875 55.609375 21.1875 
Q 55.609375 10.40625 48.1875 4.484375 
Q 40.765625 -1.421875 27.09375 -1.421875 
Q 22.515625 -1.421875 17.65625 -0.515625 
Q 12.796875 0.390625 7.625 2.203125 
L 7.625 11.71875 
Q 11.71875 9.328125 16.59375 8.109375 
Q 21.484375 6.890625 26.8125 6.890625 
Q 36.078125 6.890625 40.9375 10.546875 
Q 45.796875 14.203125 45.796875 21.1875 
Q 45.796875 27.640625 41.28125 31.265625 
Q 36.765625 34.90625 28.71875 34.90625 
L 20.21875 34.90625 
L 20.21875 43.015625 
L 29.109375 43.015625 
Q 36.375 43.015625 40.234375 45.921875 
Q 44.09375 48.828125 44.09375 54.296875 
Q 44.09375 59.90625 40.109375 62.90625 
Q 36.140625 65.921875 28.71875 65.921875 
Q 24.65625 65.921875 20.015625 65.03125 
Q 15.375 64.15625 9.8125 62.3125 
L 9.8125 71.09375 
Q 15.4375 72.65625 20.34375 73.4375 
Q 25.25 74.21875 29.59375 74.21875 
Q 40.828125 74.21875 47.359375 69.109375 
Q 53.90625 64.015625 53.90625 55.328125 
Q 53.90625 49.265625 50.4375 45.09375 
Q 46.96875 40.921875 40.578125 39.3125 
z
" id="DejaVuSans-33"/>
      </defs>
      <g transform="translate(102.55 83.881791)scale(0.1 -0.1)">
       <use xlink:href="#DejaVuSans-33"/>
       <use x="63.623047" xlink:href="#DejaVuSans-30"/>
       <use x="127.246094" xlink:href="#DejaVuSans-30"/>
       <use x="190.869141" xlink:href="#DejaVuSans-30"/>
      </g>
     </g>
    </g>
    <g id="text_16">
     <!-- Number of occurences -->
     <defs>
      <path d="M 9.8125 72.90625 
L 23.09375 72.90625 
L 55.421875 11.921875 
L 55.421875 72.90625 
L 64.984375 72.90625 
L 64.984375 0 
L 51.703125 0 
L 19.390625 60.984375 
L 19.390625 0 
L 9.8125 0 
z
" id="DejaVuSans-4e"/>
      <path d="M 8.5 21.578125 
L 8.5 54.6875 
L 17.484375 54.6875 
L 17.484375 21.921875 
Q 17.484375 14.15625 20.5 10.265625 
Q 23.53125 6.390625 29.59375 6.390625 
Q 36.859375 6.390625 41.078125 11.03125 
Q 45.3125 15.671875 45.3125 23.6875 
L 45.3125 54.6875 
L 54.296875 54.6875 
L 54.296875 0 
L 45.3125 0 
L 45.3125 8.40625 
Q 42.046875 3.421875 37.71875 1 
Q 33.40625 -1.421875 27.6875 -1.421875 
Q 18.265625 -1.421875 13.375 4.4375 
Q 8.5 10.296875 8.5 21.578125 
z
M 31.109375 56 
z
" id="DejaVuSans-75"/>
      <path d="M 48.6875 27.296875 
Q 48.6875 37.203125 44.609375 42.84375 
Q 40.53125 48.484375 33.40625 48.484375 
Q 26.265625 48.484375 22.1875 42.84375 
Q 18.109375 37.203125 18.109375 27.296875 
Q 18.109375 17.390625 22.1875 11.75 
Q 26.265625 6.109375 33.40625 6.109375 
Q 40.53125 6.109375 44.609375 11.75 
Q 48.6875 17.390625 48.6875 27.296875 
z
M 18.109375 46.390625 
Q 20.953125 51.265625 25.265625 53.625 
Q 29.59375 56 35.59375 56 
Q 45.5625 56 51.78125 48.09375 
Q 58.015625 40.1875 58.015625 27.296875 
Q 58.015625 14.40625 51.78125 6.484375 
Q 45.5625 -1.421875 35.59375 -1.421875 
Q 29.59375 -1.421875 25.265625 0.953125 
Q 20.953125 3.328125 18.109375 8.203125 
L 18.109375 0 
L 9.078125 0 
L 9.078125 75.984375 
L 18.109375 75.984375 
z
" id="DejaVuSans-62"/>
      <path d="M 41.109375 46.296875 
Q 39.59375 47.171875 37.8125 47.578125 
Q 36.03125 48 33.890625 48 
Q 26.265625 48 22.1875 43.046875 
Q 18.109375 38.09375 18.109375 28.8125 
L 18.109375 0 
L 9.078125 0 
L 9.078125 54.6875 
L 18.109375 54.6875 
L 18.109375 46.1875 
Q 20.953125 51.171875 25.484375 53.578125 
Q 30.03125 56 36.53125 56 
Q 37.453125 56 38.578125 55.875 
Q 39.703125 55.765625 41.0625 55.515625 
z
" id="DejaVuSans-72"/>
      <path id="DejaVuSans-20"/>
      <path d="M 30.609375 48.390625 
Q 23.390625 48.390625 19.1875 42.75 
Q 14.984375 37.109375 14.984375 27.296875 
Q 14.984375 17.484375 19.15625 11.84375 
Q 23.34375 6.203125 30.609375 6.203125 
Q 37.796875 6.203125 41.984375 11.859375 
Q 46.1875 17.53125 46.1875 27.296875 
Q 46.1875 37.015625 41.984375 42.703125 
Q 37.796875 48.390625 30.609375 48.390625 
z
M 30.609375 56 
Q 42.328125 56 49.015625 48.375 
Q 55.71875 40.765625 55.71875 27.296875 
Q 55.71875 13.875 49.015625 6.21875 
Q 42.328125 -1.421875 30.609375 -1.421875 
Q 18.84375 -1.421875 12.171875 6.21875 
Q 5.515625 13.875 5.515625 27.296875 
Q 5.515625 40.765625 12.171875 48.375 
Q 18.84375 56 30.609375 56 
z
" id="DejaVuSans-6f"/>
      <path d="M 37.109375 75.984375 
L 37.109375 68.5 
L 28.515625 68.5 
Q 23.6875 68.5 21.796875 66.546875 
Q 19.921875 64.59375 19.921875 59.515625 
L 19.921875 54.6875 
L 34.71875 54.6875 
L 34.71875 47.703125 
L 19.921875 47.703125 
L 19.921875 0 
L 10.890625 0 
L 10.890625 47.703125 
L 2.296875 47.703125 
L 2.296875 54.6875 
L 10.890625 54.6875 
L 10.890625 58.5 
Q 10.890625 67.625 15.140625 71.796875 
Q 19.390625 75.984375 28.609375 75.984375 
z
" id="DejaVuSans-66"/>
      <path d="M 48.78125 52.59375 
L 48.78125 44.1875 
Q 44.96875 46.296875 41.140625 47.34375 
Q 37.3125 48.390625 33.40625 48.390625 
Q 24.65625 48.390625 19.8125 42.84375 
Q 14.984375 37.3125 14.984375 27.296875 
Q 14.984375 17.28125 19.8125 11.734375 
Q 24.65625 6.203125 33.40625 6.203125 
Q 37.3125 6.203125 41.140625 7.25 
Q 44.96875 8.296875 48.78125 10.40625 
L 48.78125 2.09375 
Q 45.015625 0.34375 40.984375 -0.53125 
Q 36.96875 -1.421875 32.421875 -1.421875 
Q 20.0625 -1.421875 12.78125 6.34375 
Q 5.515625 14.109375 5.515625 27.296875 
Q 5.515625 40.671875 12.859375 48.328125 
Q 20.21875 56 33.015625 56 
Q 37.15625 56 41.109375 55.140625 
Q 45.0625 54.296875 48.78125 52.59375 
z
" id="DejaVuSans-63"/>
      <path d="M 44.28125 53.078125 
L 44.28125 44.578125 
Q 40.484375 46.53125 36.375 47.5 
Q 32.28125 48.484375 27.875 48.484375 
Q 21.1875 48.484375 17.84375 46.4375 
Q 14.5 44.390625 14.5 40.28125 
Q 14.5 37.15625 16.890625 35.375 
Q 19.28125 33.59375 26.515625 31.984375 
L 29.59375 31.296875 
Q 39.15625 29.25 43.1875 25.515625 
Q 47.21875 21.78125 47.21875 15.09375 
Q 47.21875 7.46875 41.1875 3.015625 
Q 35.15625 -1.421875 24.609375 -1.421875 
Q 20.21875 -1.421875 15.453125 -0.5625 
Q 10.6875 0.296875 5.421875 2 
L 5.421875 11.28125 
Q 10.40625 8.6875 15.234375 7.390625 
Q 20.0625 6.109375 24.8125 6.109375 
Q 31.15625 6.109375 34.5625 8.28125 
Q 37.984375 10.453125 37.984375 14.40625 
Q 37.984375 18.0625 35.515625 20.015625 
Q 33.0625 21.96875 24.703125 23.78125 
L 21.578125 24.515625 
Q 13.234375 26.265625 9.515625 29.90625 
Q 5.8125 33.546875 5.8125 39.890625 
Q 5.8125 47.609375 11.28125 51.796875 
Q 16.75 56 26.8125 56 
Q 31.78125 56 36.171875 55.265625 
Q 40.578125 54.546875 44.28125 53.078125 
z
" id="DejaVuSans-73"/>
     </defs>
     <g transform="translate(96.470312 271.459844)rotate(-90)scale(0.1 -0.1)">
      <use xlink:href="#DejaVuSans-4e"/>
      <use x="74.804688" xlink:href="#DejaVuSans-75"/>
      <use x="138.183594" xlink:href="#DejaVuSans-6d"/>
      <use x="235.595703" xlink:href="#DejaVuSans-62"/>
      <use x="299.072266" xlink:href="#DejaVuSans-65"/>
      <use x="360.595703" xlink:href="#DejaVuSans-72"/>
      <use x="401.708984" xlink:href="#DejaVuSans-20"/>
      <use x="433.496094" xlink:href="#DejaVuSans-6f"/>
      <use x="494.677734" xlink:href="#DejaVuSans-66"/>
      <use x="529.882812" xlink:href="#DejaVuSans-20"/>
      <use x="561.669922" xlink:href="#DejaVuSans-6f"/>
      <use x="622.851562" xlink:href="#DejaVuSans-63"/>
      <use x="677.832031" xlink:href="#DejaVuSans-63"/>
      <use x="732.8125" xlink:href="#DejaVuSans-75"/>
      <use x="796.191406" xlink:href="#DejaVuSans-72"/>
      <use x="837.273438" xlink:href="#DejaVuSans-65"/>
      <use x="898.796875" xlink:href="#DejaVuSans-6e"/>
      <use x="962.175781" xlink:href="#DejaVuSans-63"/>
      <use x="1017.15625" xlink:href="#DejaVuSans-65"/>
      <use x="1078.679688" xlink:href="#DejaVuSans-73"/>
     </g>
    </g>
   </g>
   <g id="patch_204">
    <path d="M 135 378 
L 135 51.84 
" style="fill:none;stroke:#000000;stroke-linecap:square;stroke-linejoin:miter;stroke-width:0.8;"/>
   </g>
   <g id="patch_205">
    <path d="M 972 378 
L 972 51.84 
" style="fill:none;stroke:#000000;stroke-linecap:square;stroke-linejoin:miter;stroke-width:0.8;"/>
   </g>
   <g id="patch_206">
    <path d="M 135 378 
L 972 378 
" style="fill:none;stroke:#000000;stroke-linecap:square;stroke-linejoin:miter;stroke-width:0.8;"/>
   </g>
   <g id="patch_207">
    <path d="M 135 51.84 
L 972 51.84 
" style="fill:none;stroke:#000000;stroke-linecap:square;stroke-linejoin:miter;stroke-width:0.8;"/>
   </g>
   <g id="legend_1">
    <g id="patch_208">
     <path d="M 759.803125 74.518125 
L 965 74.518125 
Q 967 74.518125 967 72.518125 
L 967 58.84 
Q 967 56.84 965 56.84 
L 759.803125 56.84 
Q 757.803125 56.84 757.803125 58.84 
L 757.803125 72.518125 
Q 757.803125 74.518125 759.803125 74.518125 
z
" style="fill:#ffffff;opacity:0.8;stroke:#cccccc;stroke-linejoin:miter;"/>
    </g>
    <g id="patch_209">
     <path d="M 761.803125 68.438438 
L 781.803125 68.438438 
L 781.803125 61.438438 
L 761.803125 61.438438 
z
" style="fill:#232066;"/>
    </g>
    <g id="text_17">
     <!-- Sentiment Score of Movie Reviews -->
     <defs>
      <path d="M 9.8125 72.90625 
L 24.515625 72.90625 
L 43.109375 23.296875 
L 61.8125 72.90625 
L 76.515625 72.90625 
L 76.515625 0 
L 66.890625 0 
L 66.890625 64.015625 
L 48.09375 14.015625 
L 38.1875 14.015625 
L 19.390625 64.015625 
L 19.390625 0 
L 9.8125 0 
z
" id="DejaVuSans-4d"/>
      <path d="M 2.984375 54.6875 
L 12.5 54.6875 
L 29.59375 8.796875 
L 46.6875 54.6875 
L 56.203125 54.6875 
L 35.6875 0 
L 23.484375 0 
z
" id="DejaVuSans-76"/>
      <path d="M 44.390625 34.1875 
Q 47.5625 33.109375 50.5625 29.59375 
Q 53.5625 26.078125 56.59375 19.921875 
L 66.609375 0 
L 56 0 
L 46.6875 18.703125 
Q 43.0625 26.03125 39.671875 28.421875 
Q 36.28125 30.8125 30.421875 30.8125 
L 19.671875 30.8125 
L 19.671875 0 
L 9.8125 0 
L 9.8125 72.90625 
L 32.078125 72.90625 
Q 44.578125 72.90625 50.734375 67.671875 
Q 56.890625 62.453125 56.890625 51.90625 
Q 56.890625 45.015625 53.6875 40.46875 
Q 50.484375 35.9375 44.390625 34.1875 
z
M 19.671875 64.796875 
L 19.671875 38.921875 
L 32.078125 38.921875 
Q 39.203125 38.921875 42.84375 42.21875 
Q 46.484375 45.515625 46.484375 51.90625 
Q 46.484375 58.296875 42.84375 61.546875 
Q 39.203125 64.796875 32.078125 64.796875 
z
" id="DejaVuSans-52"/>
      <path d="M 4.203125 54.6875 
L 13.1875 54.6875 
L 24.421875 12.015625 
L 35.59375 54.6875 
L 46.1875 54.6875 
L 57.421875 12.015625 
L 68.609375 54.6875 
L 77.59375 54.6875 
L 63.28125 0 
L 52.6875 0 
L 40.921875 44.828125 
L 29.109375 0 
L 18.5 0 
z
" id="DejaVuSans-77"/>
     </defs>
     <g transform="translate(789.803125 68.438438)scale(0.1 -0.1)">
      <use xlink:href="#DejaVuSans-53"/>
      <use x="63.476562" xlink:href="#DejaVuSans-65"/>
      <use x="125" xlink:href="#DejaVuSans-6e"/>
      <use x="188.378906" xlink:href="#DejaVuSans-74"/>
      <use x="227.587891" xlink:href="#DejaVuSans-69"/>
      <use x="255.371094" xlink:href="#DejaVuSans-6d"/>
      <use x="352.783203" xlink:href="#DejaVuSans-65"/>
      <use x="414.306641" xlink:href="#DejaVuSans-6e"/>
      <use x="477.685547" xlink:href="#DejaVuSans-74"/>
      <use x="516.894531" xlink:href="#DejaVuSans-20"/>
      <use x="548.681641" xlink:href="#DejaVuSans-53"/>
      <use x="612.158203" xlink:href="#DejaVuSans-63"/>
      <use x="667.138672" xlink:href="#DejaVuSans-6f"/>
      <use x="728.320312" xlink:href="#DejaVuSans-72"/>
      <use x="769.402344" xlink:href="#DejaVuSans-65"/>
      <use x="830.925781" xlink:href="#DejaVuSans-20"/>
      <use x="862.712891" xlink:href="#DejaVuSans-6f"/>
      <use x="923.894531" xlink:href="#DejaVuSans-66"/>
      <use x="959.099609" xlink:href="#DejaVuSans-20"/>
      <use x="990.886719" xlink:href="#DejaVuSans-4d"/>
      <use x="1077.166016" xlink:href="#DejaVuSans-6f"/>
      <use x="1138.347656" xlink:href="#DejaVuSans-76"/>
      <use x="1197.527344" xlink:href="#DejaVuSans-69"/>
      <use x="1225.310547" xlink:href="#DejaVuSans-65"/>
      <use x="1286.833984" xlink:href="#DejaVuSans-20"/>
      <use x="1318.621094" xlink:href="#DejaVuSans-52"/>
      <use x="1388.041016" xlink:href="#DejaVuSans-65"/>
      <use x="1449.564453" xlink:href="#DejaVuSans-76"/>
      <use x="1508.744141" xlink:href="#DejaVuSans-69"/>
      <use x="1536.527344" xlink:href="#DejaVuSans-65"/>
      <use x="1598.050781" xlink:href="#DejaVuSans-77"/>
      <use x="1679.837891" xlink:href="#DejaVuSans-73"/>
     </g>
    </g>
   </g>
  </g>
  <g id="text_18">
   <!-- Sentiment distribution -->
   <defs>
    <path d="M 45.40625 46.390625 
L 45.40625 75.984375 
L 54.390625 75.984375 
L 54.390625 0 
L 45.40625 0 
L 45.40625 8.203125 
Q 42.578125 3.328125 38.25 0.953125 
Q 33.9375 -1.421875 27.875 -1.421875 
Q 17.96875 -1.421875 11.734375 6.484375 
Q 5.515625 14.40625 5.515625 27.296875 
Q 5.515625 40.1875 11.734375 48.09375 
Q 17.96875 56 27.875 56 
Q 33.9375 56 38.25 53.625 
Q 42.578125 51.265625 45.40625 46.390625 
z
M 14.796875 27.296875 
Q 14.796875 17.390625 18.875 11.75 
Q 22.953125 6.109375 30.078125 6.109375 
Q 37.203125 6.109375 41.296875 11.75 
Q 45.40625 17.390625 45.40625 27.296875 
Q 45.40625 37.203125 41.296875 42.84375 
Q 37.203125 48.484375 30.078125 48.484375 
Q 22.953125 48.484375 18.875 42.84375 
Q 14.796875 37.203125 14.796875 27.296875 
z
" id="DejaVuSans-64"/>
   </defs>
   <g transform="translate(450.5175 20.7975)scale(0.16 -0.16)">
    <use xlink:href="#DejaVuSans-53"/>
    <use x="63.476562" xlink:href="#DejaVuSans-65"/>
    <use x="125" xlink:href="#DejaVuSans-6e"/>
    <use x="188.378906" xlink:href="#DejaVuSans-74"/>
    <use x="227.587891" xlink:href="#DejaVuSans-69"/>
    <use x="255.371094" xlink:href="#DejaVuSans-6d"/>
    <use x="352.783203" xlink:href="#DejaVuSans-65"/>
    <use x="414.306641" xlink:href="#DejaVuSans-6e"/>
    <use x="477.685547" xlink:href="#DejaVuSans-74"/>
    <use x="516.894531" xlink:href="#DejaVuSans-20"/>
    <use x="548.681641" xlink:href="#DejaVuSans-64"/>
    <use x="612.158203" xlink:href="#DejaVuSans-69"/>
    <use x="639.941406" xlink:href="#DejaVuSans-73"/>
    <use x="692.041016" xlink:href="#DejaVuSans-74"/>
    <use x="731.25" xlink:href="#DejaVuSans-72"/>
    <use x="772.363281" xlink:href="#DejaVuSans-69"/>
    <use x="800.146484" xlink:href="#DejaVuSans-62"/>
    <use x="863.623047" xlink:href="#DejaVuSans-75"/>
    <use x="927.001953" xlink:href="#DejaVuSans-74"/>
    <use x="966.210938" xlink:href="#DejaVuSans-69"/>
    <use x="993.994141" xlink:href="#DejaVuSans-6f"/>
    <use x="1055.175781" xlink:href="#DejaVuSans-6e"/>
   </g>
  </g>
 </g>
 <defs>
  <clipPath id="p3e2ffc443d">
   <rect height="326.16" width="837" x="135" y="51.84"/>
  </clipPath>
 </defs>
</svg>
